<?xml version="1.0" encoding="utf-8" standalone="no"?>
<!DOCTYPE svg PUBLIC "-//W3C//DTD SVG 1.1//EN"
  "http://www.w3.org/Graphics/SVG/1.1/DTD/svg11.dtd">
<svg xmlns:xlink="http://www.w3.org/1999/xlink" width="432pt" height="288pt" viewBox="0 0 432 288" xmlns="http://www.w3.org/2000/svg" version="1.1">
 <metadata>
  <rdf:RDF xmlns:dc="http://purl.org/dc/elements/1.1/" xmlns:cc="http://creativecommons.org/ns#" xmlns:rdf="http://www.w3.org/1999/02/22-rdf-syntax-ns#">
   <cc:Work>
    <dc:type rdf:resource="http://purl.org/dc/dcmitype/StillImage"/>
    <dc:date>2025-11-06T17:29:10.558886</dc:date>
    <dc:format>image/svg+xml</dc:format>
    <dc:creator>
     <cc:Agent>
      <dc:title>Matplotlib v3.10.5, https://matplotlib.org/</dc:title>
     </cc:Agent>
    </dc:creator>
   </cc:Work>
  </rdf:RDF>
 </metadata>
 <defs>
  <style type="text/css">*{stroke-linejoin: round; stroke-linecap: butt}</style>
 </defs>
 <g id="figure_1">
  <g id="patch_1">
   <path d="M 0 288 
L 432 288 
L 432 0 
L 0 0 
z
" style="fill: #ffffff"/>
  </g>
  <g id="axes_1">
   <g id="patch_2">
    <path d="M 47.72 246.04 
L 421.2 246.04 
L 421.2 26.88 
L 47.72 26.88 
z
" style="fill: #ffffff"/>
   </g>
   <g id="matplotlib.axis_1">
    <g id="xtick_1">
     <g id="line2d_1">
      <path d="M 92.701725 246.04 
L 92.701725 26.88 
" clip-path="url(#p30ced2d08e)" style="fill: none; stroke: #b0b0b0; stroke-opacity: 0.3; stroke-width: 0.8; stroke-linecap: square"/>
     </g>
     <g id="line2d_2">
      <defs>
       <path id="ma26a247d3e" d="M 0 0 
L 0 3.5 
" style="stroke: #000000; stroke-width: 0.8"/>
      </defs>
      <g>
       <use xlink:href="#ma26a247d3e" x="92.701725" y="246.04" style="stroke: #000000; stroke-width: 0.8"/>
      </g>
     </g>
     <g id="text_1">
      <!-- 0.01 -->
      <g transform="translate(81.568913 260.638438) scale(0.1 -0.1)">
       <defs>
        <path id="DejaVuSans-30" d="M 2034 4250 
Q 1547 4250 1301 3770 
Q 1056 3291 1056 2328 
Q 1056 1369 1301 889 
Q 1547 409 2034 409 
Q 2525 409 2770 889 
Q 3016 1369 3016 2328 
Q 3016 3291 2770 3770 
Q 2525 4250 2034 4250 
z
M 2034 4750 
Q 2819 4750 3233 4129 
Q 3647 3509 3647 2328 
Q 3647 1150 3233 529 
Q 2819 -91 2034 -91 
Q 1250 -91 836 529 
Q 422 1150 422 2328 
Q 422 3509 836 4129 
Q 1250 4750 2034 4750 
z
" transform="scale(0.015625)"/>
        <path id="DejaVuSans-2e" d="M 684 794 
L 1344 794 
L 1344 0 
L 684 0 
L 684 794 
z
" transform="scale(0.015625)"/>
        <path id="DejaVuSans-31" d="M 794 531 
L 1825 531 
L 1825 4091 
L 703 3866 
L 703 4441 
L 1819 4666 
L 2450 4666 
L 2450 531 
L 3481 531 
L 3481 0 
L 794 0 
L 794 531 
z
" transform="scale(0.015625)"/>
       </defs>
       <use xlink:href="#DejaVuSans-30"/>
       <use xlink:href="#DejaVuSans-2e" transform="translate(63.623047 0)"/>
       <use xlink:href="#DejaVuSans-30" transform="translate(95.410156 0)"/>
       <use xlink:href="#DejaVuSans-31" transform="translate(159.033203 0)"/>
      </g>
     </g>
    </g>
    <g id="xtick_2">
     <g id="line2d_3">
      <path d="M 159.519988 246.04 
L 159.519988 26.88 
" clip-path="url(#p30ced2d08e)" style="fill: none; stroke: #b0b0b0; stroke-opacity: 0.3; stroke-width: 0.8; stroke-linecap: square"/>
     </g>
     <g id="line2d_4">
      <g>
       <use xlink:href="#ma26a247d3e" x="159.519988" y="246.04" style="stroke: #000000; stroke-width: 0.8"/>
      </g>
     </g>
     <g id="text_2">
      <!-- 0.02 -->
      <g transform="translate(148.387176 260.638438) scale(0.1 -0.1)">
       <defs>
        <path id="DejaVuSans-32" d="M 1228 531 
L 3431 531 
L 3431 0 
L 469 0 
L 469 531 
Q 828 903 1448 1529 
Q 2069 2156 2228 2338 
Q 2531 2678 2651 2914 
Q 2772 3150 2772 3378 
Q 2772 3750 2511 3984 
Q 2250 4219 1831 4219 
Q 1534 4219 1204 4116 
Q 875 4013 500 3803 
L 500 4441 
Q 881 4594 1212 4672 
Q 1544 4750 1819 4750 
Q 2544 4750 2975 4387 
Q 3406 4025 3406 3419 
Q 3406 3131 3298 2873 
Q 3191 2616 2906 2266 
Q 2828 2175 2409 1742 
Q 1991 1309 1228 531 
z
" transform="scale(0.015625)"/>
       </defs>
       <use xlink:href="#DejaVuSans-30"/>
       <use xlink:href="#DejaVuSans-2e" transform="translate(63.623047 0)"/>
       <use xlink:href="#DejaVuSans-30" transform="translate(95.410156 0)"/>
       <use xlink:href="#DejaVuSans-32" transform="translate(159.033203 0)"/>
      </g>
     </g>
    </g>
    <g id="xtick_3">
     <g id="line2d_5">
      <path d="M 226.338252 246.04 
L 226.338252 26.88 
" clip-path="url(#p30ced2d08e)" style="fill: none; stroke: #b0b0b0; stroke-opacity: 0.3; stroke-width: 0.8; stroke-linecap: square"/>
     </g>
     <g id="line2d_6">
      <g>
       <use xlink:href="#ma26a247d3e" x="226.338252" y="246.04" style="stroke: #000000; stroke-width: 0.8"/>
      </g>
     </g>
     <g id="text_3">
      <!-- 0.03 -->
      <g transform="translate(215.205439 260.638438) scale(0.1 -0.1)">
       <defs>
        <path id="DejaVuSans-33" d="M 2597 2516 
Q 3050 2419 3304 2112 
Q 3559 1806 3559 1356 
Q 3559 666 3084 287 
Q 2609 -91 1734 -91 
Q 1441 -91 1130 -33 
Q 819 25 488 141 
L 488 750 
Q 750 597 1062 519 
Q 1375 441 1716 441 
Q 2309 441 2620 675 
Q 2931 909 2931 1356 
Q 2931 1769 2642 2001 
Q 2353 2234 1838 2234 
L 1294 2234 
L 1294 2753 
L 1863 2753 
Q 2328 2753 2575 2939 
Q 2822 3125 2822 3475 
Q 2822 3834 2567 4026 
Q 2313 4219 1838 4219 
Q 1578 4219 1281 4162 
Q 984 4106 628 3988 
L 628 4550 
Q 988 4650 1302 4700 
Q 1616 4750 1894 4750 
Q 2613 4750 3031 4423 
Q 3450 4097 3450 3541 
Q 3450 3153 3228 2886 
Q 3006 2619 2597 2516 
z
" transform="scale(0.015625)"/>
       </defs>
       <use xlink:href="#DejaVuSans-30"/>
       <use xlink:href="#DejaVuSans-2e" transform="translate(63.623047 0)"/>
       <use xlink:href="#DejaVuSans-30" transform="translate(95.410156 0)"/>
       <use xlink:href="#DejaVuSans-33" transform="translate(159.033203 0)"/>
      </g>
     </g>
    </g>
    <g id="xtick_4">
     <g id="line2d_7">
      <path d="M 293.156515 246.04 
L 293.156515 26.88 
" clip-path="url(#p30ced2d08e)" style="fill: none; stroke: #b0b0b0; stroke-opacity: 0.3; stroke-width: 0.8; stroke-linecap: square"/>
     </g>
     <g id="line2d_8">
      <g>
       <use xlink:href="#ma26a247d3e" x="293.156515" y="246.04" style="stroke: #000000; stroke-width: 0.8"/>
      </g>
     </g>
     <g id="text_4">
      <!-- 0.04 -->
      <g transform="translate(282.023703 260.638438) scale(0.1 -0.1)">
       <defs>
        <path id="DejaVuSans-34" d="M 2419 4116 
L 825 1625 
L 2419 1625 
L 2419 4116 
z
M 2253 4666 
L 3047 4666 
L 3047 1625 
L 3713 1625 
L 3713 1100 
L 3047 1100 
L 3047 0 
L 2419 0 
L 2419 1100 
L 313 1100 
L 313 1709 
L 2253 4666 
z
" transform="scale(0.015625)"/>
       </defs>
       <use xlink:href="#DejaVuSans-30"/>
       <use xlink:href="#DejaVuSans-2e" transform="translate(63.623047 0)"/>
       <use xlink:href="#DejaVuSans-30" transform="translate(95.410156 0)"/>
       <use xlink:href="#DejaVuSans-34" transform="translate(159.033203 0)"/>
      </g>
     </g>
    </g>
    <g id="xtick_5">
     <g id="line2d_9">
      <path d="M 359.974778 246.04 
L 359.974778 26.88 
" clip-path="url(#p30ced2d08e)" style="fill: none; stroke: #b0b0b0; stroke-opacity: 0.3; stroke-width: 0.8; stroke-linecap: square"/>
     </g>
     <g id="line2d_10">
      <g>
       <use xlink:href="#ma26a247d3e" x="359.974778" y="246.04" style="stroke: #000000; stroke-width: 0.8"/>
      </g>
     </g>
     <g id="text_5">
      <!-- 0.05 -->
      <g transform="translate(348.841966 260.638438) scale(0.1 -0.1)">
       <defs>
        <path id="DejaVuSans-35" d="M 691 4666 
L 3169 4666 
L 3169 4134 
L 1269 4134 
L 1269 2991 
Q 1406 3038 1543 3061 
Q 1681 3084 1819 3084 
Q 2600 3084 3056 2656 
Q 3513 2228 3513 1497 
Q 3513 744 3044 326 
Q 2575 -91 1722 -91 
Q 1428 -91 1123 -41 
Q 819 9 494 109 
L 494 744 
Q 775 591 1075 516 
Q 1375 441 1709 441 
Q 2250 441 2565 725 
Q 2881 1009 2881 1497 
Q 2881 1984 2565 2268 
Q 2250 2553 1709 2553 
Q 1456 2553 1204 2497 
Q 953 2441 691 2322 
L 691 4666 
z
" transform="scale(0.015625)"/>
       </defs>
       <use xlink:href="#DejaVuSans-30"/>
       <use xlink:href="#DejaVuSans-2e" transform="translate(63.623047 0)"/>
       <use xlink:href="#DejaVuSans-30" transform="translate(95.410156 0)"/>
       <use xlink:href="#DejaVuSans-35" transform="translate(159.033203 0)"/>
      </g>
     </g>
    </g>
    <g id="text_6">
     <!-- Δv per spacecraft (m/s) -->
     <g transform="translate(175.775625 274.316562) scale(0.1 -0.1)">
      <defs>
       <path id="DejaVuSans-394" d="M 2188 4044 
L 906 525 
L 3472 525 
L 2188 4044 
z
M 50 0 
L 1831 4666 
L 2547 4666 
L 4325 0 
L 50 0 
z
" transform="scale(0.015625)"/>
       <path id="DejaVuSans-76" d="M 191 3500 
L 800 3500 
L 1894 563 
L 2988 3500 
L 3597 3500 
L 2284 0 
L 1503 0 
L 191 3500 
z
" transform="scale(0.015625)"/>
       <path id="DejaVuSans-20" transform="scale(0.015625)"/>
       <path id="DejaVuSans-70" d="M 1159 525 
L 1159 -1331 
L 581 -1331 
L 581 3500 
L 1159 3500 
L 1159 2969 
Q 1341 3281 1617 3432 
Q 1894 3584 2278 3584 
Q 2916 3584 3314 3078 
Q 3713 2572 3713 1747 
Q 3713 922 3314 415 
Q 2916 -91 2278 -91 
Q 1894 -91 1617 61 
Q 1341 213 1159 525 
z
M 3116 1747 
Q 3116 2381 2855 2742 
Q 2594 3103 2138 3103 
Q 1681 3103 1420 2742 
Q 1159 2381 1159 1747 
Q 1159 1113 1420 752 
Q 1681 391 2138 391 
Q 2594 391 2855 752 
Q 3116 1113 3116 1747 
z
" transform="scale(0.015625)"/>
       <path id="DejaVuSans-65" d="M 3597 1894 
L 3597 1613 
L 953 1613 
Q 991 1019 1311 708 
Q 1631 397 2203 397 
Q 2534 397 2845 478 
Q 3156 559 3463 722 
L 3463 178 
Q 3153 47 2828 -22 
Q 2503 -91 2169 -91 
Q 1331 -91 842 396 
Q 353 884 353 1716 
Q 353 2575 817 3079 
Q 1281 3584 2069 3584 
Q 2775 3584 3186 3129 
Q 3597 2675 3597 1894 
z
M 3022 2063 
Q 3016 2534 2758 2815 
Q 2500 3097 2075 3097 
Q 1594 3097 1305 2825 
Q 1016 2553 972 2059 
L 3022 2063 
z
" transform="scale(0.015625)"/>
       <path id="DejaVuSans-72" d="M 2631 2963 
Q 2534 3019 2420 3045 
Q 2306 3072 2169 3072 
Q 1681 3072 1420 2755 
Q 1159 2438 1159 1844 
L 1159 0 
L 581 0 
L 581 3500 
L 1159 3500 
L 1159 2956 
Q 1341 3275 1631 3429 
Q 1922 3584 2338 3584 
Q 2397 3584 2469 3576 
Q 2541 3569 2628 3553 
L 2631 2963 
z
" transform="scale(0.015625)"/>
       <path id="DejaVuSans-73" d="M 2834 3397 
L 2834 2853 
Q 2591 2978 2328 3040 
Q 2066 3103 1784 3103 
Q 1356 3103 1142 2972 
Q 928 2841 928 2578 
Q 928 2378 1081 2264 
Q 1234 2150 1697 2047 
L 1894 2003 
Q 2506 1872 2764 1633 
Q 3022 1394 3022 966 
Q 3022 478 2636 193 
Q 2250 -91 1575 -91 
Q 1294 -91 989 -36 
Q 684 19 347 128 
L 347 722 
Q 666 556 975 473 
Q 1284 391 1588 391 
Q 1994 391 2212 530 
Q 2431 669 2431 922 
Q 2431 1156 2273 1281 
Q 2116 1406 1581 1522 
L 1381 1569 
Q 847 1681 609 1914 
Q 372 2147 372 2553 
Q 372 3047 722 3315 
Q 1072 3584 1716 3584 
Q 2034 3584 2315 3537 
Q 2597 3491 2834 3397 
z
" transform="scale(0.015625)"/>
       <path id="DejaVuSans-61" d="M 2194 1759 
Q 1497 1759 1228 1600 
Q 959 1441 959 1056 
Q 959 750 1161 570 
Q 1363 391 1709 391 
Q 2188 391 2477 730 
Q 2766 1069 2766 1631 
L 2766 1759 
L 2194 1759 
z
M 3341 1997 
L 3341 0 
L 2766 0 
L 2766 531 
Q 2569 213 2275 61 
Q 1981 -91 1556 -91 
Q 1019 -91 701 211 
Q 384 513 384 1019 
Q 384 1609 779 1909 
Q 1175 2209 1959 2209 
L 2766 2209 
L 2766 2266 
Q 2766 2663 2505 2880 
Q 2244 3097 1772 3097 
Q 1472 3097 1187 3025 
Q 903 2953 641 2809 
L 641 3341 
Q 956 3463 1253 3523 
Q 1550 3584 1831 3584 
Q 2591 3584 2966 3190 
Q 3341 2797 3341 1997 
z
" transform="scale(0.015625)"/>
       <path id="DejaVuSans-63" d="M 3122 3366 
L 3122 2828 
Q 2878 2963 2633 3030 
Q 2388 3097 2138 3097 
Q 1578 3097 1268 2742 
Q 959 2388 959 1747 
Q 959 1106 1268 751 
Q 1578 397 2138 397 
Q 2388 397 2633 464 
Q 2878 531 3122 666 
L 3122 134 
Q 2881 22 2623 -34 
Q 2366 -91 2075 -91 
Q 1284 -91 818 406 
Q 353 903 353 1747 
Q 353 2603 823 3093 
Q 1294 3584 2113 3584 
Q 2378 3584 2631 3529 
Q 2884 3475 3122 3366 
z
" transform="scale(0.015625)"/>
       <path id="DejaVuSans-66" d="M 2375 4863 
L 2375 4384 
L 1825 4384 
Q 1516 4384 1395 4259 
Q 1275 4134 1275 3809 
L 1275 3500 
L 2222 3500 
L 2222 3053 
L 1275 3053 
L 1275 0 
L 697 0 
L 697 3053 
L 147 3053 
L 147 3500 
L 697 3500 
L 697 3744 
Q 697 4328 969 4595 
Q 1241 4863 1831 4863 
L 2375 4863 
z
" transform="scale(0.015625)"/>
       <path id="DejaVuSans-74" d="M 1172 4494 
L 1172 3500 
L 2356 3500 
L 2356 3053 
L 1172 3053 
L 1172 1153 
Q 1172 725 1289 603 
Q 1406 481 1766 481 
L 2356 481 
L 2356 0 
L 1766 0 
Q 1100 0 847 248 
Q 594 497 594 1153 
L 594 3053 
L 172 3053 
L 172 3500 
L 594 3500 
L 594 4494 
L 1172 4494 
z
" transform="scale(0.015625)"/>
       <path id="DejaVuSans-28" d="M 1984 4856 
Q 1566 4138 1362 3434 
Q 1159 2731 1159 2009 
Q 1159 1288 1364 580 
Q 1569 -128 1984 -844 
L 1484 -844 
Q 1016 -109 783 600 
Q 550 1309 550 2009 
Q 550 2706 781 3412 
Q 1013 4119 1484 4856 
L 1984 4856 
z
" transform="scale(0.015625)"/>
       <path id="DejaVuSans-6d" d="M 3328 2828 
Q 3544 3216 3844 3400 
Q 4144 3584 4550 3584 
Q 5097 3584 5394 3201 
Q 5691 2819 5691 2113 
L 5691 0 
L 5113 0 
L 5113 2094 
Q 5113 2597 4934 2840 
Q 4756 3084 4391 3084 
Q 3944 3084 3684 2787 
Q 3425 2491 3425 1978 
L 3425 0 
L 2847 0 
L 2847 2094 
Q 2847 2600 2669 2842 
Q 2491 3084 2119 3084 
Q 1678 3084 1418 2786 
Q 1159 2488 1159 1978 
L 1159 0 
L 581 0 
L 581 3500 
L 1159 3500 
L 1159 2956 
Q 1356 3278 1631 3431 
Q 1906 3584 2284 3584 
Q 2666 3584 2933 3390 
Q 3200 3197 3328 2828 
z
" transform="scale(0.015625)"/>
       <path id="DejaVuSans-2f" d="M 1625 4666 
L 2156 4666 
L 531 -594 
L 0 -594 
L 1625 4666 
z
" transform="scale(0.015625)"/>
       <path id="DejaVuSans-29" d="M 513 4856 
L 1013 4856 
Q 1481 4119 1714 3412 
Q 1947 2706 1947 2009 
Q 1947 1309 1714 600 
Q 1481 -109 1013 -844 
L 513 -844 
Q 928 -128 1133 580 
Q 1338 1288 1338 2009 
Q 1338 2731 1133 3434 
Q 928 4138 513 4856 
z
" transform="scale(0.015625)"/>
      </defs>
      <use xlink:href="#DejaVuSans-394"/>
      <use xlink:href="#DejaVuSans-76" transform="translate(68.408203 0)"/>
      <use xlink:href="#DejaVuSans-20" transform="translate(127.587891 0)"/>
      <use xlink:href="#DejaVuSans-70" transform="translate(159.375 0)"/>
      <use xlink:href="#DejaVuSans-65" transform="translate(222.851562 0)"/>
      <use xlink:href="#DejaVuSans-72" transform="translate(284.375 0)"/>
      <use xlink:href="#DejaVuSans-20" transform="translate(325.488281 0)"/>
      <use xlink:href="#DejaVuSans-73" transform="translate(357.275391 0)"/>
      <use xlink:href="#DejaVuSans-70" transform="translate(409.375 0)"/>
      <use xlink:href="#DejaVuSans-61" transform="translate(472.851562 0)"/>
      <use xlink:href="#DejaVuSans-63" transform="translate(534.130859 0)"/>
      <use xlink:href="#DejaVuSans-65" transform="translate(589.111328 0)"/>
      <use xlink:href="#DejaVuSans-63" transform="translate(650.634766 0)"/>
      <use xlink:href="#DejaVuSans-72" transform="translate(705.615234 0)"/>
      <use xlink:href="#DejaVuSans-61" transform="translate(746.728516 0)"/>
      <use xlink:href="#DejaVuSans-66" transform="translate(808.007812 0)"/>
      <use xlink:href="#DejaVuSans-74" transform="translate(841.462891 0)"/>
      <use xlink:href="#DejaVuSans-20" transform="translate(880.671875 0)"/>
      <use xlink:href="#DejaVuSans-28" transform="translate(912.458984 0)"/>
      <use xlink:href="#DejaVuSans-6d" transform="translate(951.472656 0)"/>
      <use xlink:href="#DejaVuSans-2f" transform="translate(1048.884766 0)"/>
      <use xlink:href="#DejaVuSans-73" transform="translate(1082.576172 0)"/>
      <use xlink:href="#DejaVuSans-29" transform="translate(1134.675781 0)"/>
     </g>
    </g>
   </g>
   <g id="matplotlib.axis_2">
    <g id="ytick_1">
     <g id="line2d_11">
      <path d="M 47.72 236.299802 
L 421.2 236.299802 
" clip-path="url(#p30ced2d08e)" style="fill: none; stroke: #b0b0b0; stroke-opacity: 0.3; stroke-width: 0.8; stroke-linecap: square"/>
     </g>
     <g id="line2d_12">
      <defs>
       <path id="mcb6e64349e" d="M 0 0 
L -3.5 0 
" style="stroke: #000000; stroke-width: 0.8"/>
      </defs>
      <g>
       <use xlink:href="#mcb6e64349e" x="47.72" y="236.299802" style="stroke: #000000; stroke-width: 0.8"/>
      </g>
     </g>
     <g id="text_7">
      <!-- 0.0 -->
      <g transform="translate(24.816875 240.099021) scale(0.1 -0.1)">
       <use xlink:href="#DejaVuSans-30"/>
       <use xlink:href="#DejaVuSans-2e" transform="translate(63.623047 0)"/>
       <use xlink:href="#DejaVuSans-30" transform="translate(95.410156 0)"/>
      </g>
     </g>
    </g>
    <g id="ytick_2">
     <g id="line2d_13">
      <path d="M 47.72 196.408205 
L 421.2 196.408205 
" clip-path="url(#p30ced2d08e)" style="fill: none; stroke: #b0b0b0; stroke-opacity: 0.3; stroke-width: 0.8; stroke-linecap: square"/>
     </g>
     <g id="line2d_14">
      <g>
       <use xlink:href="#mcb6e64349e" x="47.72" y="196.408205" style="stroke: #000000; stroke-width: 0.8"/>
      </g>
     </g>
     <g id="text_8">
      <!-- 0.2 -->
      <g transform="translate(24.816875 200.207424) scale(0.1 -0.1)">
       <use xlink:href="#DejaVuSans-30"/>
       <use xlink:href="#DejaVuSans-2e" transform="translate(63.623047 0)"/>
       <use xlink:href="#DejaVuSans-32" transform="translate(95.410156 0)"/>
      </g>
     </g>
    </g>
    <g id="ytick_3">
     <g id="line2d_15">
      <path d="M 47.72 156.516608 
L 421.2 156.516608 
" clip-path="url(#p30ced2d08e)" style="fill: none; stroke: #b0b0b0; stroke-opacity: 0.3; stroke-width: 0.8; stroke-linecap: square"/>
     </g>
     <g id="line2d_16">
      <g>
       <use xlink:href="#mcb6e64349e" x="47.72" y="156.516608" style="stroke: #000000; stroke-width: 0.8"/>
      </g>
     </g>
     <g id="text_9">
      <!-- 0.4 -->
      <g transform="translate(24.816875 160.315827) scale(0.1 -0.1)">
       <use xlink:href="#DejaVuSans-30"/>
       <use xlink:href="#DejaVuSans-2e" transform="translate(63.623047 0)"/>
       <use xlink:href="#DejaVuSans-34" transform="translate(95.410156 0)"/>
      </g>
     </g>
    </g>
    <g id="ytick_4">
     <g id="line2d_17">
      <path d="M 47.72 116.625012 
L 421.2 116.625012 
" clip-path="url(#p30ced2d08e)" style="fill: none; stroke: #b0b0b0; stroke-opacity: 0.3; stroke-width: 0.8; stroke-linecap: square"/>
     </g>
     <g id="line2d_18">
      <g>
       <use xlink:href="#mcb6e64349e" x="47.72" y="116.625012" style="stroke: #000000; stroke-width: 0.8"/>
      </g>
     </g>
     <g id="text_10">
      <!-- 0.6 -->
      <g transform="translate(24.816875 120.42423) scale(0.1 -0.1)">
       <defs>
        <path id="DejaVuSans-36" d="M 2113 2584 
Q 1688 2584 1439 2293 
Q 1191 2003 1191 1497 
Q 1191 994 1439 701 
Q 1688 409 2113 409 
Q 2538 409 2786 701 
Q 3034 994 3034 1497 
Q 3034 2003 2786 2293 
Q 2538 2584 2113 2584 
z
M 3366 4563 
L 3366 3988 
Q 3128 4100 2886 4159 
Q 2644 4219 2406 4219 
Q 1781 4219 1451 3797 
Q 1122 3375 1075 2522 
Q 1259 2794 1537 2939 
Q 1816 3084 2150 3084 
Q 2853 3084 3261 2657 
Q 3669 2231 3669 1497 
Q 3669 778 3244 343 
Q 2819 -91 2113 -91 
Q 1303 -91 875 529 
Q 447 1150 447 2328 
Q 447 3434 972 4092 
Q 1497 4750 2381 4750 
Q 2619 4750 2861 4703 
Q 3103 4656 3366 4563 
z
" transform="scale(0.015625)"/>
       </defs>
       <use xlink:href="#DejaVuSans-30"/>
       <use xlink:href="#DejaVuSans-2e" transform="translate(63.623047 0)"/>
       <use xlink:href="#DejaVuSans-36" transform="translate(95.410156 0)"/>
      </g>
     </g>
    </g>
    <g id="ytick_5">
     <g id="line2d_19">
      <path d="M 47.72 76.733415 
L 421.2 76.733415 
" clip-path="url(#p30ced2d08e)" style="fill: none; stroke: #b0b0b0; stroke-opacity: 0.3; stroke-width: 0.8; stroke-linecap: square"/>
     </g>
     <g id="line2d_20">
      <g>
       <use xlink:href="#mcb6e64349e" x="47.72" y="76.733415" style="stroke: #000000; stroke-width: 0.8"/>
      </g>
     </g>
     <g id="text_11">
      <!-- 0.8 -->
      <g transform="translate(24.816875 80.532634) scale(0.1 -0.1)">
       <defs>
        <path id="DejaVuSans-38" d="M 2034 2216 
Q 1584 2216 1326 1975 
Q 1069 1734 1069 1313 
Q 1069 891 1326 650 
Q 1584 409 2034 409 
Q 2484 409 2743 651 
Q 3003 894 3003 1313 
Q 3003 1734 2745 1975 
Q 2488 2216 2034 2216 
z
M 1403 2484 
Q 997 2584 770 2862 
Q 544 3141 544 3541 
Q 544 4100 942 4425 
Q 1341 4750 2034 4750 
Q 2731 4750 3128 4425 
Q 3525 4100 3525 3541 
Q 3525 3141 3298 2862 
Q 3072 2584 2669 2484 
Q 3125 2378 3379 2068 
Q 3634 1759 3634 1313 
Q 3634 634 3220 271 
Q 2806 -91 2034 -91 
Q 1263 -91 848 271 
Q 434 634 434 1313 
Q 434 1759 690 2068 
Q 947 2378 1403 2484 
z
M 1172 3481 
Q 1172 3119 1398 2916 
Q 1625 2713 2034 2713 
Q 2441 2713 2670 2916 
Q 2900 3119 2900 3481 
Q 2900 3844 2670 4047 
Q 2441 4250 2034 4250 
Q 1625 4250 1398 4047 
Q 1172 3844 1172 3481 
z
" transform="scale(0.015625)"/>
       </defs>
       <use xlink:href="#DejaVuSans-30"/>
       <use xlink:href="#DejaVuSans-2e" transform="translate(63.623047 0)"/>
       <use xlink:href="#DejaVuSans-38" transform="translate(95.410156 0)"/>
      </g>
     </g>
    </g>
    <g id="ytick_6">
     <g id="line2d_21">
      <path d="M 47.72 36.841818 
L 421.2 36.841818 
" clip-path="url(#p30ced2d08e)" style="fill: none; stroke: #b0b0b0; stroke-opacity: 0.3; stroke-width: 0.8; stroke-linecap: square"/>
     </g>
     <g id="line2d_22">
      <g>
       <use xlink:href="#mcb6e64349e" x="47.72" y="36.841818" style="stroke: #000000; stroke-width: 0.8"/>
      </g>
     </g>
     <g id="text_12">
      <!-- 1.0 -->
      <g transform="translate(24.816875 40.641037) scale(0.1 -0.1)">
       <use xlink:href="#DejaVuSans-31"/>
       <use xlink:href="#DejaVuSans-2e" transform="translate(63.623047 0)"/>
       <use xlink:href="#DejaVuSans-30" transform="translate(95.410156 0)"/>
      </g>
     </g>
    </g>
    <g id="text_13">
     <!-- Cumulative probability -->
     <g transform="translate(18.737188 193.262344) rotate(-90) scale(0.1 -0.1)">
      <defs>
       <path id="DejaVuSans-43" d="M 4122 4306 
L 4122 3641 
Q 3803 3938 3442 4084 
Q 3081 4231 2675 4231 
Q 1875 4231 1450 3742 
Q 1025 3253 1025 2328 
Q 1025 1406 1450 917 
Q 1875 428 2675 428 
Q 3081 428 3442 575 
Q 3803 722 4122 1019 
L 4122 359 
Q 3791 134 3420 21 
Q 3050 -91 2638 -91 
Q 1578 -91 968 557 
Q 359 1206 359 2328 
Q 359 3453 968 4101 
Q 1578 4750 2638 4750 
Q 3056 4750 3426 4639 
Q 3797 4528 4122 4306 
z
" transform="scale(0.015625)"/>
       <path id="DejaVuSans-75" d="M 544 1381 
L 544 3500 
L 1119 3500 
L 1119 1403 
Q 1119 906 1312 657 
Q 1506 409 1894 409 
Q 2359 409 2629 706 
Q 2900 1003 2900 1516 
L 2900 3500 
L 3475 3500 
L 3475 0 
L 2900 0 
L 2900 538 
Q 2691 219 2414 64 
Q 2138 -91 1772 -91 
Q 1169 -91 856 284 
Q 544 659 544 1381 
z
M 1991 3584 
L 1991 3584 
z
" transform="scale(0.015625)"/>
       <path id="DejaVuSans-6c" d="M 603 4863 
L 1178 4863 
L 1178 0 
L 603 0 
L 603 4863 
z
" transform="scale(0.015625)"/>
       <path id="DejaVuSans-69" d="M 603 3500 
L 1178 3500 
L 1178 0 
L 603 0 
L 603 3500 
z
M 603 4863 
L 1178 4863 
L 1178 4134 
L 603 4134 
L 603 4863 
z
" transform="scale(0.015625)"/>
       <path id="DejaVuSans-6f" d="M 1959 3097 
Q 1497 3097 1228 2736 
Q 959 2375 959 1747 
Q 959 1119 1226 758 
Q 1494 397 1959 397 
Q 2419 397 2687 759 
Q 2956 1122 2956 1747 
Q 2956 2369 2687 2733 
Q 2419 3097 1959 3097 
z
M 1959 3584 
Q 2709 3584 3137 3096 
Q 3566 2609 3566 1747 
Q 3566 888 3137 398 
Q 2709 -91 1959 -91 
Q 1206 -91 779 398 
Q 353 888 353 1747 
Q 353 2609 779 3096 
Q 1206 3584 1959 3584 
z
" transform="scale(0.015625)"/>
       <path id="DejaVuSans-62" d="M 3116 1747 
Q 3116 2381 2855 2742 
Q 2594 3103 2138 3103 
Q 1681 3103 1420 2742 
Q 1159 2381 1159 1747 
Q 1159 1113 1420 752 
Q 1681 391 2138 391 
Q 2594 391 2855 752 
Q 3116 1113 3116 1747 
z
M 1159 2969 
Q 1341 3281 1617 3432 
Q 1894 3584 2278 3584 
Q 2916 3584 3314 3078 
Q 3713 2572 3713 1747 
Q 3713 922 3314 415 
Q 2916 -91 2278 -91 
Q 1894 -91 1617 61 
Q 1341 213 1159 525 
L 1159 0 
L 581 0 
L 581 4863 
L 1159 4863 
L 1159 2969 
z
" transform="scale(0.015625)"/>
       <path id="DejaVuSans-79" d="M 2059 -325 
Q 1816 -950 1584 -1140 
Q 1353 -1331 966 -1331 
L 506 -1331 
L 506 -850 
L 844 -850 
Q 1081 -850 1212 -737 
Q 1344 -625 1503 -206 
L 1606 56 
L 191 3500 
L 800 3500 
L 1894 763 
L 2988 3500 
L 3597 3500 
L 2059 -325 
z
" transform="scale(0.015625)"/>
      </defs>
      <use xlink:href="#DejaVuSans-43"/>
      <use xlink:href="#DejaVuSans-75" transform="translate(69.824219 0)"/>
      <use xlink:href="#DejaVuSans-6d" transform="translate(133.203125 0)"/>
      <use xlink:href="#DejaVuSans-75" transform="translate(230.615234 0)"/>
      <use xlink:href="#DejaVuSans-6c" transform="translate(293.994141 0)"/>
      <use xlink:href="#DejaVuSans-61" transform="translate(321.777344 0)"/>
      <use xlink:href="#DejaVuSans-74" transform="translate(383.056641 0)"/>
      <use xlink:href="#DejaVuSans-69" transform="translate(422.265625 0)"/>
      <use xlink:href="#DejaVuSans-76" transform="translate(450.048828 0)"/>
      <use xlink:href="#DejaVuSans-65" transform="translate(509.228516 0)"/>
      <use xlink:href="#DejaVuSans-20" transform="translate(570.751953 0)"/>
      <use xlink:href="#DejaVuSans-70" transform="translate(602.539062 0)"/>
      <use xlink:href="#DejaVuSans-72" transform="translate(666.015625 0)"/>
      <use xlink:href="#DejaVuSans-6f" transform="translate(704.878906 0)"/>
      <use xlink:href="#DejaVuSans-62" transform="translate(766.060547 0)"/>
      <use xlink:href="#DejaVuSans-61" transform="translate(829.537109 0)"/>
      <use xlink:href="#DejaVuSans-62" transform="translate(890.816406 0)"/>
      <use xlink:href="#DejaVuSans-69" transform="translate(954.292969 0)"/>
      <use xlink:href="#DejaVuSans-6c" transform="translate(982.076172 0)"/>
      <use xlink:href="#DejaVuSans-69" transform="translate(1009.859375 0)"/>
      <use xlink:href="#DejaVuSans-74" transform="translate(1037.642578 0)"/>
      <use xlink:href="#DejaVuSans-79" transform="translate(1076.851562 0)"/>
     </g>
    </g>
   </g>
   <g id="line2d_23">
    <path d="M 64.696364 236.078182 
L 70.59134 235.634942 
L 71.39615 235.413322 
L 84.404313 235.191702 
L 89.423473 234.970082 
L 91.789305 234.748462 
L 94.518403 234.083602 
L 94.596008 233.861982 
L 96.298663 233.640362 
L 96.392766 233.418742 
L 96.61199 233.197122 
L 98.976428 232.975502 
L 100.100366 232.753882 
L 100.35362 232.532262 
L 100.968842 232.310642 
L 102.47248 232.089022 
L 102.543191 231.867402 
L 104.205875 231.424162 
L 104.846668 231.202542 
L 105.641815 230.316062 
L 107.197041 229.872822 
L 107.219174 229.651202 
L 107.810766 229.429582 
L 108.071724 229.207962 
L 109.462193 228.764722 
L 112.985232 228.099862 
L 113.201688 227.656623 
L 113.776364 227.435003 
L 115.223269 227.213383 
L 115.457975 226.991763 
L 115.500159 226.548523 
L 116.385026 226.105283 
L 116.659139 225.662043 
L 116.684412 225.440423 
L 117.054206 225.218803 
L 118.275423 224.775563 
L 118.501674 224.553943 
L 118.912354 224.332323 
L 118.920203 224.110703 
L 119.709294 223.889083 
L 120.186978 223.445843 
L 120.751803 223.224223 
L 120.968677 222.780983 
L 122.116245 222.337743 
L 122.203261 222.116123 
L 122.519884 221.894503 
L 122.765288 221.229643 
L 123.58587 220.786403 
L 125.044542 219.899923 
L 125.09905 219.678303 
L 126.748033 218.570203 
L 127.763988 218.348583 
L 127.924878 217.683723 
L 129.051417 216.797243 
L 129.158701 216.575623 
L 129.527697 216.354003 
L 129.923575 215.689143 
L 130.34557 215.467524 
L 131.067556 215.245904 
L 131.360575 214.137804 
L 131.737281 213.916184 
L 131.859676 213.472944 
L 132.300534 213.251324 
L 133.615421 213.029704 
L 134.876109 211.921604 
L 135.012871 211.699984 
L 135.736763 211.478364 
L 135.819656 211.256744 
L 136.53448 210.813504 
L 136.548445 210.591884 
L 136.730791 210.370264 
L 136.871353 209.927024 
L 137.026845 209.705404 
L 137.475275 209.483784 
L 137.478908 209.262164 
L 138.512137 209.040544 
L 138.545934 208.818924 
L 139.404022 208.375684 
L 139.623592 207.710824 
L 140.099261 207.489204 
L 140.294083 207.267584 
L 140.325539 207.045964 
L 141.200201 206.602724 
L 141.879602 205.716244 
L 142.002257 204.608144 
L 142.437488 204.386524 
L 142.579897 204.164904 
L 144.133064 203.721664 
L 144.263674 203.278425 
L 144.635799 203.056805 
L 144.683768 202.835185 
L 145.533267 202.613565 
L 145.740151 202.391945 
L 145.97357 201.727085 
L 146.124726 201.283845 
L 146.328003 200.840605 
L 146.815179 200.618985 
L 146.823848 200.397365 
L 148.663633 200.175745 
L 149.085295 199.954125 
L 149.28979 199.510885 
L 149.723013 199.067645 
L 150.118413 198.846025 
L 150.749178 198.624405 
L 150.914885 198.181165 
L 151.402454 197.737925 
L 151.777287 197.073065 
L 152.229406 196.408205 
L 152.243087 196.186585 
L 152.566531 195.743345 
L 152.747219 195.300105 
L 154.039659 194.856865 
L 154.275772 193.970385 
L 154.284288 193.748765 
L 154.929704 193.083905 
L 155.091416 192.640665 
L 155.141357 192.419045 
L 155.347562 192.197425 
L 155.428842 191.754185 
L 155.501604 191.310945 
L 155.957218 191.089326 
L 156.141052 190.867706 
L 156.728262 190.646086 
L 156.974215 190.424466 
L 157.667097 189.981226 
L 157.807379 189.537986 
L 157.947695 189.094746 
L 158.505574 188.651506 
L 158.632358 187.986646 
L 158.807809 187.543406 
L 159.471038 187.321786 
L 160.265433 185.548826 
L 160.590581 185.327206 
L 160.799984 184.883966 
L 161.116925 184.662346 
L 161.234276 183.997486 
L 161.690649 183.554246 
L 161.704791 183.332626 
L 162.49786 183.111006 
L 162.605385 182.667766 
L 163.004199 181.781286 
L 163.304387 181.559666 
L 163.955649 181.338046 
L 163.972241 181.116426 
L 165.339202 180.229946 
L 166.081094 178.678607 
L 166.128916 178.456987 
L 166.40462 178.235367 
L 166.497455 177.792127 
L 167.138248 177.570507 
L 167.226466 176.905647 
L 167.760835 176.684027 
L 167.779684 176.462407 
L 168.034149 176.240787 
L 168.458644 176.019167 
L 168.493045 175.575927 
L 168.706015 175.354307 
L 169.377424 175.132687 
L 169.521432 174.689447 
L 169.693951 174.467827 
L 169.719175 174.246207 
L 170.456966 173.359727 
L 170.471679 173.138107 
L 171.660818 171.365147 
L 172.239114 170.921907 
L 172.959658 170.700287 
L 173.252979 170.257047 
L 173.719238 170.035427 
L 174.002136 169.370567 
L 174.346187 169.148947 
L 174.471613 168.705707 
L 174.761907 168.484087 
L 174.820348 168.040847 
L 175.445965 167.375987 
L 175.461513 167.154367 
L 176.110594 165.824648 
L 176.151611 164.938168 
L 176.740172 164.716548 
L 177.101261 164.051688 
L 178.204863 163.165208 
L 178.317606 162.721968 
L 178.654939 162.500348 
L 178.787966 162.278728 
L 179.083933 162.057108 
L 179.281534 161.392248 
L 179.600106 160.505768 
L 180.040029 159.619288 
L 180.466767 159.397668 
L 180.540662 158.954428 
L 181.561846 158.067948 
L 181.595068 157.846328 
L 181.791634 157.624708 
L 181.861346 156.959848 
L 182.432795 156.294988 
L 182.92699 156.073368 
L 183.449241 154.743648 
L 184.282655 154.522029 
L 184.486331 154.300409 
L 184.658851 153.635549 
L 184.792405 153.192309 
L 185.230256 152.970689 
L 185.800834 151.419349 
L 188.753383 148.538289 
L 188.757978 148.316669 
L 188.93033 148.095049 
L 189.283063 147.873429 
L 189.300823 147.651809 
L 189.960453 147.208569 
L 189.99349 146.765329 
L 191.288654 145.435609 
L 191.326836 145.213989 
L 192.26651 144.549129 
L 192.2742 143.884269 
L 193.096999 142.776169 
L 193.758314 142.554549 
L 193.895745 142.33293 
L 194.308545 142.11131 
L 194.438644 141.66807 
L 194.488752 141.44645 
L 194.660171 141.22483 
L 194.801039 140.55997 
L 195.22302 140.11673 
L 195.49739 139.67349 
L 195.515256 139.45187 
L 196.148888 138.56539 
L 196.480614 138.12215 
L 196.715088 137.67891 
L 196.78859 137.23567 
L 197.010747 137.01405 
L 197.254932 136.12757 
L 197.747932 135.46271 
L 198.092093 134.35461 
L 198.515709 133.91137 
L 198.610268 133.24651 
L 198.932357 132.80327 
L 199.491007 132.36003 
L 199.498112 132.13841 
L 199.916951 131.69517 
L 200.991809 131.47355 
L 201.048458 131.25193 
L 201.229727 131.03031 
L 201.230584 130.80869 
L 201.964529 130.365451 
L 202.567495 129.257351 
L 202.739613 128.814111 
L 203.710068 128.370871 
L 204.306468 127.041151 
L 204.562345 126.154671 
L 205.005637 125.489811 
L 205.092127 125.268191 
L 205.8663 124.824951 
L 206.047524 124.381711 
L 206.51749 124.160091 
L 206.682289 123.495231 
L 207.186576 123.273611 
L 207.379872 122.830371 
L 207.453867 122.387131 
L 207.705126 122.165511 
L 207.73665 121.722271 
L 208.721634 121.279031 
L 208.900346 120.614171 
L 209.265958 120.392551 
L 209.386437 120.170931 
L 209.745544 119.949311 
L 209.950272 119.062831 
L 210.708015 118.619591 
L 210.793895 118.176352 
L 210.99859 117.733112 
L 211.035513 117.511492 
L 211.212642 117.289872 
L 211.212711 117.068252 
L 211.820475 116.625012 
L 212.583938 116.181772 
L 212.788162 115.516912 
L 213.121909 115.295292 
L 213.712504 115.073672 
L 214.573265 113.522332 
L 214.680424 113.079092 
L 214.860118 112.635852 
L 215.222662 112.414232 
L 215.87467 111.306132 
L 216.635682 111.084512 
L 216.676014 110.862892 
L 217.377236 110.419652 
L 217.491917 110.198032 
L 217.756102 109.976412 
L 217.834912 109.754792 
L 219.092739 109.533172 
L 219.214905 109.089932 
L 219.789356 108.868312 
L 220.24467 108.203452 
L 220.694749 107.316972 
L 221.641815 106.873732 
L 221.734174 106.430492 
L 221.95895 105.987253 
L 223.534571 105.322393 
L 224.063631 104.657533 
L 224.112522 104.435913 
L 224.655721 103.992673 
L 225.363814 103.771053 
L 225.381965 103.549433 
L 225.838228 103.106193 
L 226.077535 102.884573 
L 226.112195 102.662953 
L 226.945145 102.219713 
L 226.945245 101.998093 
L 227.544726 101.111613 
L 227.881075 100.668373 
L 227.993751 100.446753 
L 228.656558 100.003513 
L 228.996806 99.560273 
L 229.134432 99.117033 
L 229.467373 98.895413 
L 229.57942 98.673793 
L 230.733192 98.452173 
L 231.186731 98.230553 
L 231.220371 98.008933 
L 231.524293 97.787313 
L 231.556534 97.565693 
L 232.004238 96.900833 
L 232.317841 96.014353 
L 232.322447 95.792733 
L 233.226222 94.241393 
L 233.826331 94.019773 
L 234.213623 93.576534 
L 234.223016 93.354914 
L 234.702983 92.690054 
L 234.736812 92.468434 
L 234.925053 92.246814 
L 235.556974 91.803574 
L 235.742351 91.581954 
L 236.463332 91.138714 
L 237.231914 90.252234 
L 237.703901 90.030614 
L 238.156052 89.365754 
L 238.199545 89.144134 
L 238.799503 88.700894 
L 239.004437 88.257654 
L 239.294704 88.036034 
L 239.403113 87.592794 
L 240.140762 86.927934 
L 240.247225 86.484694 
L 240.826067 85.819834 
L 240.861017 85.376594 
L 241.724634 83.825254 
L 242.27622 83.603634 
L 242.448052 83.382014 
L 243.158455 83.160394 
L 243.213467 82.717154 
L 243.485295 82.495534 
L 244.931821 82.273914 
L 245.119863 82.052294 
L 245.64811 81.830674 
L 245.655285 81.609055 
L 245.969683 80.944195 
L 245.991797 80.722575 
L 246.32767 80.500955 
L 246.638085 79.836095 
L 246.996451 79.614475 
L 247.093853 79.392855 
L 247.63076 79.171235 
L 247.968049 78.727995 
L 248.406981 78.506375 
L 248.446067 78.284755 
L 249.506561 77.176655 
L 249.530681 76.955035 
L 250.717604 76.511795 
L 252.081196 75.625315 
L 252.195334 75.403695 
L 253.051266 74.960455 
L 253.099063 74.738835 
L 253.758237 74.295595 
L 254.144862 73.630735 
L 255.876944 72.965875 
L 255.903998 72.522635 
L 256.462683 72.301015 
L 256.505146 71.857775 
L 256.723133 71.414535 
L 258.24759 70.528055 
L 258.283887 70.084815 
L 258.658855 69.641575 
L 259.772494 68.976716 
L 259.881832 68.755096 
L 260.238232 68.533476 
L 260.271989 68.311856 
L 260.608124 68.090236 
L 260.630594 67.868616 
L 261.09366 67.425376 
L 261.111717 67.203756 
L 261.761416 66.760516 
L 261.861598 66.538896 
L 262.100365 66.317276 
L 262.109158 66.095656 
L 262.232528 65.874036 
L 264.444705 64.987556 
L 265.109655 64.322696 
L 265.203684 64.101076 
L 266.076006 63.657836 
L 266.200807 63.214596 
L 266.343789 62.771356 
L 266.441851 62.549736 
L 267.714081 62.106496 
L 267.851865 61.884876 
L 269.38497 61.663256 
L 269.937692 61.441636 
L 271.444632 61.220016 
L 271.45782 60.998396 
L 271.896567 60.776776 
L 273.071272 60.333536 
L 273.158034 60.111916 
L 274.195936 59.890296 
L 275.301232 59.225436 
L 275.307189 59.003816 
L 275.520679 58.560576 
L 276.348956 58.117336 
L 277.273161 57.895716 
L 277.45505 57.674096 
L 278.416823 57.452476 
L 278.42142 57.230857 
L 279.02703 57.009237 
L 279.145199 56.787617 
L 280.23894 56.565997 
L 280.257945 56.344377 
L 280.798035 55.679517 
L 280.825813 55.457897 
L 280.999339 55.236277 
L 281.33885 55.014657 
L 281.430663 54.793037 
L 281.788291 54.571417 
L 281.837294 54.128177 
L 282.896871 53.906557 
L 283.03485 53.684937 
L 285.247431 53.241697 
L 285.629632 52.798457 
L 285.966768 52.576837 
L 285.998983 52.355217 
L 286.238663 52.133597 
L 286.909833 51.911977 
L 287.13542 51.247117 
L 287.600042 51.025497 
L 288.501346 50.803877 
L 288.597752 50.582257 
L 289.002607 50.360637 
L 290.47082 50.139017 
L 291.076206 49.917397 
L 292.139769 49.695777 
L 292.262315 49.474157 
L 292.528815 49.252537 
L 293.554109 49.030917 
L 294.482475 48.587677 
L 295.362522 48.366057 
L 297.026525 48.144437 
L 297.413928 47.922817 
L 298.200094 47.701197 
L 298.6951 47.036337 
L 300.962275 46.814717 
L 301.252354 46.593097 
L 301.351311 46.371477 
L 304.425348 46.149857 
L 304.736008 45.928237 
L 306.608274 45.484997 
L 306.788883 45.263377 
L 308.023488 44.598518 
L 308.272006 44.376898 
L 309.544286 43.933658 
L 309.739185 43.712038 
L 310.190217 43.490418 
L 315.234264 42.825558 
L 315.311379 42.603938 
L 317.893462 42.382318 
L 317.909948 42.160698 
L 318.385993 41.717458 
L 323.349483 41.274218 
L 324.211557 40.609358 
L 328.845347 40.166118 
L 331.050411 39.944498 
L 333.202519 39.501258 
L 333.351376 39.279638 
L 333.97534 39.058018 
L 334.252583 38.836398 
L 365.102105 37.728298 
L 375.453112 37.506678 
L 399.705758 37.285058 
L 404.223636 36.841818 
L 404.223636 36.841818 
" clip-path="url(#p30ced2d08e)" style="fill: none; stroke: #1f77b4; stroke-width: 2; stroke-linecap: square"/>
   </g>
   <g id="patch_3">
    <path d="M 47.72 246.04 
L 47.72 26.88 
" style="fill: none; stroke: #000000; stroke-width: 0.8; stroke-linejoin: miter; stroke-linecap: square"/>
   </g>
   <g id="patch_4">
    <path d="M 421.2 246.04 
L 421.2 26.88 
" style="fill: none; stroke: #000000; stroke-width: 0.8; stroke-linejoin: miter; stroke-linecap: square"/>
   </g>
   <g id="patch_5">
    <path d="M 47.72 246.04 
L 421.2 246.04 
" style="fill: none; stroke: #000000; stroke-width: 0.8; stroke-linejoin: miter; stroke-linecap: square"/>
   </g>
   <g id="patch_6">
    <path d="M 47.72 26.88 
L 421.2 26.88 
" style="fill: none; stroke: #000000; stroke-width: 0.8; stroke-linejoin: miter; stroke-linecap: square"/>
   </g>
   <g id="text_14">
    <!-- Injection recovery Δv distribution -->
    <g transform="translate(134.914375 20.88) scale(0.12 -0.12)">
     <defs>
      <path id="DejaVuSans-49" d="M 628 4666 
L 1259 4666 
L 1259 0 
L 628 0 
L 628 4666 
z
" transform="scale(0.015625)"/>
      <path id="DejaVuSans-6e" d="M 3513 2113 
L 3513 0 
L 2938 0 
L 2938 2094 
Q 2938 2591 2744 2837 
Q 2550 3084 2163 3084 
Q 1697 3084 1428 2787 
Q 1159 2491 1159 1978 
L 1159 0 
L 581 0 
L 581 3500 
L 1159 3500 
L 1159 2956 
Q 1366 3272 1645 3428 
Q 1925 3584 2291 3584 
Q 2894 3584 3203 3211 
Q 3513 2838 3513 2113 
z
" transform="scale(0.015625)"/>
      <path id="DejaVuSans-6a" d="M 603 3500 
L 1178 3500 
L 1178 -63 
Q 1178 -731 923 -1031 
Q 669 -1331 103 -1331 
L -116 -1331 
L -116 -844 
L 38 -844 
Q 366 -844 484 -692 
Q 603 -541 603 -63 
L 603 3500 
z
M 603 4863 
L 1178 4863 
L 1178 4134 
L 603 4134 
L 603 4863 
z
" transform="scale(0.015625)"/>
      <path id="DejaVuSans-64" d="M 2906 2969 
L 2906 4863 
L 3481 4863 
L 3481 0 
L 2906 0 
L 2906 525 
Q 2725 213 2448 61 
Q 2172 -91 1784 -91 
Q 1150 -91 751 415 
Q 353 922 353 1747 
Q 353 2572 751 3078 
Q 1150 3584 1784 3584 
Q 2172 3584 2448 3432 
Q 2725 3281 2906 2969 
z
M 947 1747 
Q 947 1113 1208 752 
Q 1469 391 1925 391 
Q 2381 391 2643 752 
Q 2906 1113 2906 1747 
Q 2906 2381 2643 2742 
Q 2381 3103 1925 3103 
Q 1469 3103 1208 2742 
Q 947 2381 947 1747 
z
" transform="scale(0.015625)"/>
     </defs>
     <use xlink:href="#DejaVuSans-49"/>
     <use xlink:href="#DejaVuSans-6e" transform="translate(29.492188 0)"/>
     <use xlink:href="#DejaVuSans-6a" transform="translate(92.871094 0)"/>
     <use xlink:href="#DejaVuSans-65" transform="translate(120.654297 0)"/>
     <use xlink:href="#DejaVuSans-63" transform="translate(182.177734 0)"/>
     <use xlink:href="#DejaVuSans-74" transform="translate(237.158203 0)"/>
     <use xlink:href="#DejaVuSans-69" transform="translate(276.367188 0)"/>
     <use xlink:href="#DejaVuSans-6f" transform="translate(304.150391 0)"/>
     <use xlink:href="#DejaVuSans-6e" transform="translate(365.332031 0)"/>
     <use xlink:href="#DejaVuSans-20" transform="translate(428.710938 0)"/>
     <use xlink:href="#DejaVuSans-72" transform="translate(460.498047 0)"/>
     <use xlink:href="#DejaVuSans-65" transform="translate(499.361328 0)"/>
     <use xlink:href="#DejaVuSans-63" transform="translate(560.884766 0)"/>
     <use xlink:href="#DejaVuSans-6f" transform="translate(615.865234 0)"/>
     <use xlink:href="#DejaVuSans-76" transform="translate(677.046875 0)"/>
     <use xlink:href="#DejaVuSans-65" transform="translate(736.226562 0)"/>
     <use xlink:href="#DejaVuSans-72" transform="translate(797.75 0)"/>
     <use xlink:href="#DejaVuSans-79" transform="translate(838.863281 0)"/>
     <use xlink:href="#DejaVuSans-20" transform="translate(898.042969 0)"/>
     <use xlink:href="#DejaVuSans-394" transform="translate(929.830078 0)"/>
     <use xlink:href="#DejaVuSans-76" transform="translate(998.238281 0)"/>
     <use xlink:href="#DejaVuSans-20" transform="translate(1057.417969 0)"/>
     <use xlink:href="#DejaVuSans-64" transform="translate(1089.205078 0)"/>
     <use xlink:href="#DejaVuSans-69" transform="translate(1152.681641 0)"/>
     <use xlink:href="#DejaVuSans-73" transform="translate(1180.464844 0)"/>
     <use xlink:href="#DejaVuSans-74" transform="translate(1232.564453 0)"/>
     <use xlink:href="#DejaVuSans-72" transform="translate(1271.773438 0)"/>
     <use xlink:href="#DejaVuSans-69" transform="translate(1312.886719 0)"/>
     <use xlink:href="#DejaVuSans-62" transform="translate(1340.669922 0)"/>
     <use xlink:href="#DejaVuSans-75" transform="translate(1404.146484 0)"/>
     <use xlink:href="#DejaVuSans-74" transform="translate(1467.525391 0)"/>
     <use xlink:href="#DejaVuSans-69" transform="translate(1506.734375 0)"/>
     <use xlink:href="#DejaVuSans-6f" transform="translate(1534.517578 0)"/>
     <use xlink:href="#DejaVuSans-6e" transform="translate(1595.699219 0)"/>
    </g>
   </g>
  </g>
 </g>
 <defs>
  <clipPath id="p30ced2d08e">
   <rect x="47.72" y="26.88" width="373.48" height="219.16"/>
  </clipPath>
 </defs>
</svg>
