<?xml version="1.0" encoding="utf-8" standalone="no"?>
<!DOCTYPE svg PUBLIC "-//W3C//DTD SVG 1.1//EN"
  "http://www.w3.org/Graphics/SVG/1.1/DTD/svg11.dtd">
<svg xmlns:xlink="http://www.w3.org/1999/xlink" width="720pt" height="576pt" viewBox="0 0 720 576" xmlns="http://www.w3.org/2000/svg" version="1.1">
 <metadata>
  <rdf:RDF xmlns:dc="http://purl.org/dc/elements/1.1/" xmlns:cc="http://creativecommons.org/ns#" xmlns:rdf="http://www.w3.org/1999/02/22-rdf-syntax-ns#">
   <cc:Work>
    <dc:type rdf:resource="http://purl.org/dc/dcmitype/StillImage"/>
    <dc:date>2025-11-01T08:07:32.398588</dc:date>
    <dc:format>image/svg+xml</dc:format>
    <dc:creator>
     <cc:Agent>
      <dc:title>Matplotlib v3.10.7, https://matplotlib.org/</dc:title>
     </cc:Agent>
    </dc:creator>
   </cc:Work>
  </rdf:RDF>
 </metadata>
 <defs>
  <style type="text/css">*{stroke-linejoin: round; stroke-linecap: butt}</style>
 </defs>
 <g id="figure_1">
  <g id="patch_1">
   <path d="M 0 576 
L 720 576 
L 720 0 
L 0 0 
z
" style="fill: #ffffff"/>
  </g>
  <g id="patch_2">
   <path d="M 90.84 565.2 
L 629.16 565.2 
L 629.16 26.88 
L 90.84 26.88 
z
" style="fill: #eaeaf2"/>
  </g>
  <g id="pane3d_1">
   <g id="patch_3">
    <path d="M 131.486872 432.46754 
L 309.257717 283.456493 
L 306.786532 68.555925 
L 120.508436 204.493195 
" style="fill: #f2f2f2; opacity: 0.5; stroke: #f2f2f2; stroke-width: 0.3; stroke-linejoin: miter"/>
   </g>
  </g>
  <g id="pane3d_2">
   <g id="patch_4">
    <path d="M 309.257717 283.456493 
L 594.516494 366.369957 
L 604.696374 144.067386 
L 306.786532 68.555925 
" style="fill: #e6e6e6; opacity: 0.5; stroke: #e6e6e6; stroke-width: 0.3; stroke-linejoin: miter"/>
   </g>
  </g>
  <g id="pane3d_3">
   <g id="patch_5">
    <path d="M 131.486872 432.46754 
L 433.875108 531.227537 
L 594.516494 366.369957 
L 309.257717 283.456493 
" style="fill: #ececec; opacity: 0.5; stroke: #ececec; stroke-width: 0.3; stroke-linejoin: miter"/>
   </g>
  </g>
  <g id="grid3d_1">
   <g id="Line3DCollection_1">
    <path d="M 154.902957 440.115233 
L 331.437488 289.903276 
L 329.904906 74.415759 
" style="fill: none; stroke: #ffffff"/>
    <path d="M 216.883034 460.357926 
L 390.071894 306.945983 
L 391.057136 89.916067 
" style="fill: none; stroke: #ffffff"/>
    <path d="M 280.248613 481.053124 
L 449.907302 324.337774 
L 453.516653 105.747733 
" style="fill: none; stroke: #ffffff"/>
    <path d="M 345.046677 502.216172 
L 510.980996 342.089486 
L 517.32583 121.9215 
" style="fill: none; stroke: #ffffff"/>
    <path d="M 411.326357 523.863115 
L 573.331815 360.212407 
L 582.528891 138.448575 
" style="fill: none; stroke: #ffffff"/>
   </g>
  </g>
  <g id="grid3d_2">
   <g id="Line3DCollection_2">
    <path d="M 138.165772 191.607676 
L 148.279972 418.39123 
L 449.110854 515.591914 
" style="fill: none; stroke: #ffffff"/>
    <path d="M 177.550214 162.866704 
L 185.780271 386.957737 
L 483.087543 480.723472 
" style="fill: none; stroke: #ffffff"/>
    <path d="M 215.529888 135.150867 
L 222.000037 356.597611 
L 515.843941 447.10735 
" style="fill: none; stroke: #ffffff"/>
    <path d="M 252.178636 108.40628 
L 257.003759 327.256797 
L 547.444629 414.67727 
" style="fill: none; stroke: #ffffff"/>
    <path d="M 287.565212 82.582769 
L 290.851668 298.884808 
L 577.94971 383.371553 
" style="fill: none; stroke: #ffffff"/>
   </g>
  </g>
  <g id="grid3d_3">
   <g id="Line3DCollection_3">
    <path d="M 595.962502 334.792832 
L 308.90606 252.875461 
L 129.929687 400.131581 
" style="fill: none; stroke: #ffffff"/>
    <path d="M 597.697942 296.895253 
L 308.484293 216.197576 
L 128.059832 361.302836 
" style="fill: none; stroke: #ffffff"/>
    <path d="M 599.459923 258.41809 
L 308.056387 178.98577 
L 126.160282 321.857431 
" style="fill: none; stroke: #ffffff"/>
    <path d="M 601.249059 219.347946 
L 307.622206 141.228299 
L 124.230321 281.780557 
" style="fill: none; stroke: #ffffff"/>
    <path d="M 603.065981 179.671005 
L 307.181612 102.913073 
L 122.269216 241.056929 
" style="fill: none; stroke: #ffffff"/>
   </g>
  </g>
  <g id="axis3d_1">
   <g id="line2d_1">
    <path d="M 131.486872 432.46754 
L 433.875108 531.227537 
" style="fill: none"/>
   </g>
   <g id="xtick_1">
    <g id="line2d_2">
     <path d="M 367.274595 288.765405 
" clip-path="url(#pbb684ab436)" style="fill: none; stroke: #ffffff; stroke-linecap: round"/>
    </g>
    <g id="line2d_3">
     <path d="M 156.440324 438.807099 
L 151.821621 442.73712 
" style="fill: none; stroke: #262626; stroke-linecap: round"/>
    </g>
    <g id="text_1">
     <!-- 5000 -->
     <g style="fill: #262626" transform="translate(132.373678 468.201555) scale(0.1 -0.1)">
      <defs>
       <path id="DejaVuSans-35" d="M 691 4666 
L 3169 4666 
L 3169 4134 
L 1269 4134 
L 1269 2991 
Q 1406 3038 1543 3061 
Q 1681 3084 1819 3084 
Q 2600 3084 3056 2656 
Q 3513 2228 3513 1497 
Q 3513 744 3044 326 
Q 2575 -91 1722 -91 
Q 1428 -91 1123 -41 
Q 819 9 494 109 
L 494 744 
Q 775 591 1075 516 
Q 1375 441 1709 441 
Q 2250 441 2565 725 
Q 2881 1009 2881 1497 
Q 2881 1984 2565 2268 
Q 2250 2553 1709 2553 
Q 1456 2553 1204 2497 
Q 953 2441 691 2322 
L 691 4666 
z
" transform="scale(0.015625)"/>
       <path id="DejaVuSans-30" d="M 2034 4250 
Q 1547 4250 1301 3770 
Q 1056 3291 1056 2328 
Q 1056 1369 1301 889 
Q 1547 409 2034 409 
Q 2525 409 2770 889 
Q 3016 1369 3016 2328 
Q 3016 3291 2770 3770 
Q 2525 4250 2034 4250 
z
M 2034 4750 
Q 2819 4750 3233 4129 
Q 3647 3509 3647 2328 
Q 3647 1150 3233 529 
Q 2819 -91 2034 -91 
Q 1250 -91 836 529 
Q 422 1150 422 2328 
Q 422 3509 836 4129 
Q 1250 4750 2034 4750 
z
" transform="scale(0.015625)"/>
      </defs>
      <use xlink:href="#DejaVuSans-35"/>
      <use xlink:href="#DejaVuSans-30" transform="translate(63.623047 0)"/>
      <use xlink:href="#DejaVuSans-30" transform="translate(127.246094 0)"/>
      <use xlink:href="#DejaVuSans-30" transform="translate(190.869141 0)"/>
     </g>
    </g>
   </g>
   <g id="xtick_2">
    <g id="line2d_4">
     <path d="M 367.274595 288.765405 
" clip-path="url(#pbb684ab436)" style="fill: none; stroke: #ffffff; stroke-linecap: round"/>
    </g>
    <g id="line2d_5">
     <path d="M 218.39262 459.020724 
L 213.857307 463.038137 
" style="fill: none; stroke: #262626; stroke-linecap: round"/>
    </g>
    <g id="text_2">
     <!-- 5200 -->
     <g style="fill: #262626" transform="translate(194.395263 488.720294) scale(0.1 -0.1)">
      <defs>
       <path id="DejaVuSans-32" d="M 1228 531 
L 3431 531 
L 3431 0 
L 469 0 
L 469 531 
Q 828 903 1448 1529 
Q 2069 2156 2228 2338 
Q 2531 2678 2651 2914 
Q 2772 3150 2772 3378 
Q 2772 3750 2511 3984 
Q 2250 4219 1831 4219 
Q 1534 4219 1204 4116 
Q 875 4013 500 3803 
L 500 4441 
Q 881 4594 1212 4672 
Q 1544 4750 1819 4750 
Q 2544 4750 2975 4387 
Q 3406 4025 3406 3419 
Q 3406 3131 3298 2873 
Q 3191 2616 2906 2266 
Q 2828 2175 2409 1742 
Q 1991 1309 1228 531 
z
" transform="scale(0.015625)"/>
      </defs>
      <use xlink:href="#DejaVuSans-35"/>
      <use xlink:href="#DejaVuSans-32" transform="translate(63.623047 0)"/>
      <use xlink:href="#DejaVuSans-30" transform="translate(127.246094 0)"/>
      <use xlink:href="#DejaVuSans-30" transform="translate(190.869141 0)"/>
     </g>
    </g>
   </g>
   <g id="xtick_3">
    <g id="line2d_6">
     <path d="M 367.274595 288.765405 
" clip-path="url(#pbb684ab436)" style="fill: none; stroke: #ffffff; stroke-linecap: round"/>
    </g>
    <g id="line2d_7">
     <path d="M 281.728786 479.685874 
L 277.281767 483.793628 
" style="fill: none; stroke: #262626; stroke-linecap: round"/>
    </g>
    <g id="text_3">
     <!-- 5400 -->
     <g style="fill: #262626" transform="translate(257.806674 509.698833) scale(0.1 -0.1)">
      <defs>
       <path id="DejaVuSans-34" d="M 2419 4116 
L 825 1625 
L 2419 1625 
L 2419 4116 
z
M 2253 4666 
L 3047 4666 
L 3047 1625 
L 3713 1625 
L 3713 1100 
L 3047 1100 
L 3047 0 
L 2419 0 
L 2419 1100 
L 313 1100 
L 313 1709 
L 2253 4666 
z
" transform="scale(0.015625)"/>
      </defs>
      <use xlink:href="#DejaVuSans-35"/>
      <use xlink:href="#DejaVuSans-34" transform="translate(63.623047 0)"/>
      <use xlink:href="#DejaVuSans-30" transform="translate(127.246094 0)"/>
      <use xlink:href="#DejaVuSans-30" transform="translate(190.869141 0)"/>
     </g>
    </g>
   </g>
   <g id="xtick_4">
    <g id="line2d_8">
     <path d="M 367.274595 288.765405 
" clip-path="url(#pbb684ab436)" style="fill: none; stroke: #ffffff; stroke-linecap: round"/>
    </g>
    <g id="line2d_9">
     <path d="M 346.495715 500.81785 
L 342.142167 505.019025 
" style="fill: none; stroke: #262626; stroke-linecap: round"/>
    </g>
    <g id="text_4">
     <!-- 5600 -->
     <g style="fill: #262626" transform="translate(322.655158 531.152802) scale(0.1 -0.1)">
      <defs>
       <path id="DejaVuSans-36" d="M 2113 2584 
Q 1688 2584 1439 2293 
Q 1191 2003 1191 1497 
Q 1191 994 1439 701 
Q 1688 409 2113 409 
Q 2538 409 2786 701 
Q 3034 994 3034 1497 
Q 3034 2003 2786 2293 
Q 2538 2584 2113 2584 
z
M 3366 4563 
L 3366 3988 
Q 3128 4100 2886 4159 
Q 2644 4219 2406 4219 
Q 1781 4219 1451 3797 
Q 1122 3375 1075 2522 
Q 1259 2794 1537 2939 
Q 1816 3084 2150 3084 
Q 2853 3084 3261 2657 
Q 3669 2231 3669 1497 
Q 3669 778 3244 343 
Q 2819 -91 2113 -91 
Q 1303 -91 875 529 
Q 447 1150 447 2328 
Q 447 3434 972 4092 
Q 1497 4750 2381 4750 
Q 2619 4750 2861 4703 
Q 3103 4656 3366 4563 
z
" transform="scale(0.015625)"/>
      </defs>
      <use xlink:href="#DejaVuSans-35"/>
      <use xlink:href="#DejaVuSans-36" transform="translate(63.623047 0)"/>
      <use xlink:href="#DejaVuSans-30" transform="translate(127.246094 0)"/>
      <use xlink:href="#DejaVuSans-30" transform="translate(190.869141 0)"/>
     </g>
    </g>
   </g>
   <g id="xtick_5">
    <g id="line2d_10">
     <path d="M 367.274595 288.765405 
" clip-path="url(#pbb684ab436)" style="fill: none; stroke: #ffffff; stroke-linecap: round"/>
    </g>
    <g id="line2d_11">
     <path d="M 412.742441 522.432649 
L 408.487827 526.730471 
" style="fill: none; stroke: #262626; stroke-linecap: round"/>
    </g>
    <g id="text_5">
     <!-- 5800 -->
     <g style="fill: #262626" transform="translate(388.990125 553.098548) scale(0.1 -0.1)">
      <defs>
       <path id="DejaVuSans-38" d="M 2034 2216 
Q 1584 2216 1326 1975 
Q 1069 1734 1069 1313 
Q 1069 891 1326 650 
Q 1584 409 2034 409 
Q 2484 409 2743 651 
Q 3003 894 3003 1313 
Q 3003 1734 2745 1975 
Q 2488 2216 2034 2216 
z
M 1403 2484 
Q 997 2584 770 2862 
Q 544 3141 544 3541 
Q 544 4100 942 4425 
Q 1341 4750 2034 4750 
Q 2731 4750 3128 4425 
Q 3525 4100 3525 3541 
Q 3525 3141 3298 2862 
Q 3072 2584 2669 2484 
Q 3125 2378 3379 2068 
Q 3634 1759 3634 1313 
Q 3634 634 3220 271 
Q 2806 -91 2034 -91 
Q 1263 -91 848 271 
Q 434 634 434 1313 
Q 434 1759 690 2068 
Q 947 2378 1403 2484 
z
M 1172 3481 
Q 1172 3119 1398 2916 
Q 1625 2713 2034 2713 
Q 2441 2713 2670 2916 
Q 2900 3119 2900 3481 
Q 2900 3844 2670 4047 
Q 2441 4250 2034 4250 
Q 1625 4250 1398 4047 
Q 1172 3844 1172 3481 
z
" transform="scale(0.015625)"/>
      </defs>
      <use xlink:href="#DejaVuSans-35"/>
      <use xlink:href="#DejaVuSans-38" transform="translate(63.623047 0)"/>
      <use xlink:href="#DejaVuSans-30" transform="translate(127.246094 0)"/>
      <use xlink:href="#DejaVuSans-30" transform="translate(190.869141 0)"/>
     </g>
    </g>
   </g>
   <g id="text_6">
    <!-- x [km] -->
    <g style="fill: #262626" transform="translate(244.573602 513.01783) rotate(-341.912962) scale(0.11 -0.11)">
     <defs>
      <path id="DejaVuSans-78" d="M 3513 3500 
L 2247 1797 
L 3578 0 
L 2900 0 
L 1881 1375 
L 863 0 
L 184 0 
L 1544 1831 
L 300 3500 
L 978 3500 
L 1906 2253 
L 2834 3500 
L 3513 3500 
z
" transform="scale(0.015625)"/>
      <path id="DejaVuSans-20" transform="scale(0.015625)"/>
      <path id="DejaVuSans-5b" d="M 550 4863 
L 1875 4863 
L 1875 4416 
L 1125 4416 
L 1125 -397 
L 1875 -397 
L 1875 -844 
L 550 -844 
L 550 4863 
z
" transform="scale(0.015625)"/>
      <path id="DejaVuSans-6b" d="M 581 4863 
L 1159 4863 
L 1159 1991 
L 2875 3500 
L 3609 3500 
L 1753 1863 
L 3688 0 
L 2938 0 
L 1159 1709 
L 1159 0 
L 581 0 
L 581 4863 
z
" transform="scale(0.015625)"/>
      <path id="DejaVuSans-6d" d="M 3328 2828 
Q 3544 3216 3844 3400 
Q 4144 3584 4550 3584 
Q 5097 3584 5394 3201 
Q 5691 2819 5691 2113 
L 5691 0 
L 5113 0 
L 5113 2094 
Q 5113 2597 4934 2840 
Q 4756 3084 4391 3084 
Q 3944 3084 3684 2787 
Q 3425 2491 3425 1978 
L 3425 0 
L 2847 0 
L 2847 2094 
Q 2847 2600 2669 2842 
Q 2491 3084 2119 3084 
Q 1678 3084 1418 2786 
Q 1159 2488 1159 1978 
L 1159 0 
L 581 0 
L 581 3500 
L 1159 3500 
L 1159 2956 
Q 1356 3278 1631 3431 
Q 1906 3584 2284 3584 
Q 2666 3584 2933 3390 
Q 3200 3197 3328 2828 
z
" transform="scale(0.015625)"/>
      <path id="DejaVuSans-5d" d="M 1947 4863 
L 1947 -844 
L 622 -844 
L 622 -397 
L 1369 -397 
L 1369 4416 
L 622 4416 
L 622 4863 
L 1947 4863 
z
" transform="scale(0.015625)"/>
     </defs>
     <use xlink:href="#DejaVuSans-78"/>
     <use xlink:href="#DejaVuSans-20" transform="translate(59.179688 0)"/>
     <use xlink:href="#DejaVuSans-5b" transform="translate(90.966797 0)"/>
     <use xlink:href="#DejaVuSans-6b" transform="translate(129.980469 0)"/>
     <use xlink:href="#DejaVuSans-6d" transform="translate(187.890625 0)"/>
     <use xlink:href="#DejaVuSans-5d" transform="translate(285.302734 0)"/>
    </g>
   </g>
  </g>
  <g id="axis3d_2">
   <g id="line2d_12">
    <path d="M 594.516494 366.369957 
L 433.875108 531.227537 
" style="fill: none"/>
   </g>
   <g id="xtick_6">
    <g id="line2d_13">
     <path d="M 367.274595 288.765405 
" clip-path="url(#pbb684ab436)" style="fill: none; stroke: #ffffff; stroke-linecap: round"/>
    </g>
    <g id="line2d_14">
     <path d="M 446.576027 514.772893 
L 454.187049 517.23207 
" style="fill: none; stroke: #262626; stroke-linecap: round"/>
    </g>
    <g id="text_7">
     <!-- −1415 -->
     <g style="fill: #262626" transform="translate(448.957669 540.654892) scale(0.1 -0.1)">
      <defs>
       <path id="DejaVuSans-2212" d="M 678 2272 
L 4684 2272 
L 4684 1741 
L 678 1741 
L 678 2272 
z
" transform="scale(0.015625)"/>
       <path id="DejaVuSans-31" d="M 794 531 
L 1825 531 
L 1825 4091 
L 703 3866 
L 703 4441 
L 1819 4666 
L 2450 4666 
L 2450 531 
L 3481 531 
L 3481 0 
L 794 0 
L 794 531 
z
" transform="scale(0.015625)"/>
      </defs>
      <use xlink:href="#DejaVuSans-2212"/>
      <use xlink:href="#DejaVuSans-31" transform="translate(83.789062 0)"/>
      <use xlink:href="#DejaVuSans-34" transform="translate(147.412109 0)"/>
      <use xlink:href="#DejaVuSans-31" transform="translate(211.035156 0)"/>
      <use xlink:href="#DejaVuSans-35" transform="translate(274.658203 0)"/>
     </g>
    </g>
   </g>
   <g id="xtick_7">
    <g id="line2d_15">
     <path d="M 367.274595 288.765405 
" clip-path="url(#pbb684ab436)" style="fill: none; stroke: #ffffff; stroke-linecap: round"/>
    </g>
    <g id="line2d_16">
     <path d="M 480.584722 479.934124 
L 488.099526 482.304168 
" style="fill: none; stroke: #262626; stroke-linecap: round"/>
    </g>
    <g id="text_8">
     <!-- −1410 -->
     <g style="fill: #262626" transform="translate(482.640582 505.453787) scale(0.1 -0.1)">
      <use xlink:href="#DejaVuSans-2212"/>
      <use xlink:href="#DejaVuSans-31" transform="translate(83.789062 0)"/>
      <use xlink:href="#DejaVuSans-34" transform="translate(147.412109 0)"/>
      <use xlink:href="#DejaVuSans-31" transform="translate(211.035156 0)"/>
      <use xlink:href="#DejaVuSans-30" transform="translate(274.658203 0)"/>
     </g>
    </g>
   </g>
   <g id="xtick_8">
    <g id="line2d_17">
     <path d="M 367.274595 288.765405 
" clip-path="url(#pbb684ab436)" style="fill: none; stroke: #ffffff; stroke-linecap: round"/>
    </g>
    <g id="line2d_18">
     <path d="M 513.372482 446.346092 
L 520.793008 448.63176 
" style="fill: none; stroke: #262626; stroke-linecap: round"/>
    </g>
    <g id="text_9">
     <!-- −1405 -->
     <g style="fill: #262626" transform="translate(515.113307 471.517418) scale(0.1 -0.1)">
      <use xlink:href="#DejaVuSans-2212"/>
      <use xlink:href="#DejaVuSans-31" transform="translate(83.789062 0)"/>
      <use xlink:href="#DejaVuSans-34" transform="translate(147.412109 0)"/>
      <use xlink:href="#DejaVuSans-30" transform="translate(211.035156 0)"/>
      <use xlink:href="#DejaVuSans-35" transform="translate(274.658203 0)"/>
     </g>
    </g>
   </g>
   <g id="xtick_9">
    <g id="line2d_19">
     <path d="M 367.274595 288.765405 
" clip-path="url(#pbb684ab436)" style="fill: none; stroke: #ffffff; stroke-linecap: round"/>
    </g>
    <g id="line2d_20">
     <path d="M 545.003896 413.942628 
L 552.33206 416.148349 
" style="fill: none; stroke: #262626; stroke-linecap: round"/>
    </g>
    <g id="text_10">
     <!-- −1400 -->
     <g style="fill: #262626" transform="translate(546.439911 438.778828) scale(0.1 -0.1)">
      <use xlink:href="#DejaVuSans-2212"/>
      <use xlink:href="#DejaVuSans-31" transform="translate(83.789062 0)"/>
      <use xlink:href="#DejaVuSans-34" transform="translate(147.412109 0)"/>
      <use xlink:href="#DejaVuSans-30" transform="translate(211.035156 0)"/>
      <use xlink:href="#DejaVuSans-30" transform="translate(274.658203 0)"/>
     </g>
    </g>
   </g>
   <g id="xtick_10">
    <g id="line2d_21">
     <path d="M 367.274595 288.765405 
" clip-path="url(#pbb684ab436)" style="fill: none; stroke: #ffffff; stroke-linecap: round"/>
    </g>
    <g id="line2d_22">
     <path d="M 575.539077 382.662155 
L 582.776767 384.792051 
" style="fill: none; stroke: #262626; stroke-linecap: round"/>
    </g>
    <g id="text_11">
     <!-- −1395 -->
     <g style="fill: #262626" transform="translate(576.680023 407.175702) scale(0.1 -0.1)">
      <defs>
       <path id="DejaVuSans-33" d="M 2597 2516 
Q 3050 2419 3304 2112 
Q 3559 1806 3559 1356 
Q 3559 666 3084 287 
Q 2609 -91 1734 -91 
Q 1441 -91 1130 -33 
Q 819 25 488 141 
L 488 750 
Q 750 597 1062 519 
Q 1375 441 1716 441 
Q 2309 441 2620 675 
Q 2931 909 2931 1356 
Q 2931 1769 2642 2001 
Q 2353 2234 1838 2234 
L 1294 2234 
L 1294 2753 
L 1863 2753 
Q 2328 2753 2575 2939 
Q 2822 3125 2822 3475 
Q 2822 3834 2567 4026 
Q 2313 4219 1838 4219 
Q 1578 4219 1281 4162 
Q 984 4106 628 3988 
L 628 4550 
Q 988 4650 1302 4700 
Q 1616 4750 1894 4750 
Q 2613 4750 3031 4423 
Q 3450 4097 3450 3541 
Q 3450 3153 3228 2886 
Q 3006 2619 2597 2516 
z
" transform="scale(0.015625)"/>
       <path id="DejaVuSans-39" d="M 703 97 
L 703 672 
Q 941 559 1184 500 
Q 1428 441 1663 441 
Q 2288 441 2617 861 
Q 2947 1281 2994 2138 
Q 2813 1869 2534 1725 
Q 2256 1581 1919 1581 
Q 1219 1581 811 2004 
Q 403 2428 403 3163 
Q 403 3881 828 4315 
Q 1253 4750 1959 4750 
Q 2769 4750 3195 4129 
Q 3622 3509 3622 2328 
Q 3622 1225 3098 567 
Q 2575 -91 1691 -91 
Q 1453 -91 1209 -44 
Q 966 3 703 97 
z
M 1959 2075 
Q 2384 2075 2632 2365 
Q 2881 2656 2881 3163 
Q 2881 3666 2632 3958 
Q 2384 4250 1959 4250 
Q 1534 4250 1286 3958 
Q 1038 3666 1038 3163 
Q 1038 2656 1286 2365 
Q 1534 2075 1959 2075 
z
" transform="scale(0.015625)"/>
      </defs>
      <use xlink:href="#DejaVuSans-2212"/>
      <use xlink:href="#DejaVuSans-31" transform="translate(83.789062 0)"/>
      <use xlink:href="#DejaVuSans-33" transform="translate(147.412109 0)"/>
      <use xlink:href="#DejaVuSans-39" transform="translate(211.035156 0)"/>
      <use xlink:href="#DejaVuSans-35" transform="translate(274.658203 0)"/>
     </g>
    </g>
   </g>
   <g id="text_12">
    <!-- y [km] -->
    <g style="fill: #262626" transform="translate(534.471679 487.994105) rotate(-45.742112) scale(0.11 -0.11)">
     <defs>
      <path id="DejaVuSans-79" d="M 2059 -325 
Q 1816 -950 1584 -1140 
Q 1353 -1331 966 -1331 
L 506 -1331 
L 506 -850 
L 844 -850 
Q 1081 -850 1212 -737 
Q 1344 -625 1503 -206 
L 1606 56 
L 191 3500 
L 800 3500 
L 1894 763 
L 2988 3500 
L 3597 3500 
L 2059 -325 
z
" transform="scale(0.015625)"/>
     </defs>
     <use xlink:href="#DejaVuSans-79"/>
     <use xlink:href="#DejaVuSans-20" transform="translate(59.179688 0)"/>
     <use xlink:href="#DejaVuSans-5b" transform="translate(90.966797 0)"/>
     <use xlink:href="#DejaVuSans-6b" transform="translate(129.980469 0)"/>
     <use xlink:href="#DejaVuSans-6d" transform="translate(187.890625 0)"/>
     <use xlink:href="#DejaVuSans-5d" transform="translate(285.302734 0)"/>
    </g>
   </g>
  </g>
  <g id="axis3d_3">
   <g id="line2d_23">
    <path d="M 594.516494 366.369957 
L 604.696374 144.067386 
" style="fill: none"/>
   </g>
   <g id="xtick_11">
    <g id="line2d_24">
     <path d="M 367.274595 288.765405 
" style="fill: none; stroke: #ffffff; stroke-linecap: round"/>
    </g>
    <g id="line2d_25">
     <path d="M 593.552591 334.105115 
L 600.788093 336.169912 
" style="fill: none; stroke: #262626; stroke-linecap: round"/>
    </g>
    <g id="text_13">
     <!-- 3600 -->
     <g style="fill: #262626" transform="translate(607.213965 339.029721) scale(0.1 -0.1)">
      <use xlink:href="#DejaVuSans-33"/>
      <use xlink:href="#DejaVuSans-36" transform="translate(63.623047 0)"/>
      <use xlink:href="#DejaVuSans-30" transform="translate(127.246094 0)"/>
      <use xlink:href="#DejaVuSans-30" transform="translate(190.869141 0)"/>
     </g>
    </g>
   </g>
   <g id="xtick_12">
    <g id="line2d_26">
     <path d="M 367.274595 288.765405 
" style="fill: none; stroke: #ffffff; stroke-linecap: round"/>
    </g>
    <g id="line2d_27">
     <path d="M 595.269054 296.217534 
L 602.561578 298.252326 
" style="fill: none; stroke: #262626; stroke-linecap: round"/>
    </g>
    <g id="text_14">
     <!-- 3800 -->
     <g style="fill: #262626" transform="translate(609.127592 301.181049) scale(0.1 -0.1)">
      <use xlink:href="#DejaVuSans-33"/>
      <use xlink:href="#DejaVuSans-38" transform="translate(63.623047 0)"/>
      <use xlink:href="#DejaVuSans-30" transform="translate(127.246094 0)"/>
      <use xlink:href="#DejaVuSans-30" transform="translate(190.869141 0)"/>
     </g>
    </g>
   </g>
   <g id="xtick_13">
    <g id="line2d_28">
     <path d="M 367.274595 288.765405 
" style="fill: none; stroke: #ffffff; stroke-linecap: round"/>
    </g>
    <g id="line2d_29">
     <path d="M 597.011756 257.750756 
L 604.362207 259.754381 
" style="fill: none; stroke: #262626; stroke-linecap: round"/>
    </g>
    <g id="text_15">
     <!-- 4000 -->
     <g style="fill: #262626" transform="translate(611.070428 262.754686) scale(0.1 -0.1)">
      <use xlink:href="#DejaVuSans-34"/>
      <use xlink:href="#DejaVuSans-30" transform="translate(63.623047 0)"/>
      <use xlink:href="#DejaVuSans-30" transform="translate(127.246094 0)"/>
      <use xlink:href="#DejaVuSans-30" transform="translate(190.869141 0)"/>
     </g>
    </g>
   </g>
   <g id="xtick_14">
    <g id="line2d_30">
     <path d="M 367.274595 288.765405 
" style="fill: none; stroke: #ffffff; stroke-linecap: round"/>
    </g>
    <g id="line2d_31">
     <path d="M 598.781305 218.691398 
L 606.190609 220.662649 
" style="fill: none; stroke: #262626; stroke-linecap: round"/>
    </g>
    <g id="text_16">
     <!-- 4200 -->
     <g style="fill: #262626" transform="translate(613.043145 223.737304) scale(0.1 -0.1)">
      <use xlink:href="#DejaVuSans-34"/>
      <use xlink:href="#DejaVuSans-32" transform="translate(63.623047 0)"/>
      <use xlink:href="#DejaVuSans-30" transform="translate(127.246094 0)"/>
      <use xlink:href="#DejaVuSans-30" transform="translate(190.869141 0)"/>
     </g>
    </g>
   </g>
   <g id="xtick_15">
    <g id="line2d_32">
     <path d="M 367.274595 288.765405 
" style="fill: none; stroke: #ffffff; stroke-linecap: round"/>
    </g>
    <g id="line2d_33">
     <path d="M 600.578326 179.02566 
L 608.047431 180.963286 
" style="fill: none; stroke: #262626; stroke-linecap: round"/>
    </g>
    <g id="text_17">
     <!-- 4400 -->
     <g style="fill: #262626" transform="translate(615.046439 184.115163) scale(0.1 -0.1)">
      <use xlink:href="#DejaVuSans-34"/>
      <use xlink:href="#DejaVuSans-34" transform="translate(63.623047 0)"/>
      <use xlink:href="#DejaVuSans-30" transform="translate(127.246094 0)"/>
      <use xlink:href="#DejaVuSans-30" transform="translate(190.869141 0)"/>
     </g>
    </g>
   </g>
   <g id="text_18">
    <!-- z [km] -->
    <g style="fill: #262626" transform="translate(642.239712 269.815314) rotate(-87.378092) scale(0.11 -0.11)">
     <defs>
      <path id="DejaVuSans-7a" d="M 353 3500 
L 3084 3500 
L 3084 2975 
L 922 459 
L 3084 459 
L 3084 0 
L 275 0 
L 275 525 
L 2438 3041 
L 353 3041 
L 353 3500 
z
" transform="scale(0.015625)"/>
     </defs>
     <use xlink:href="#DejaVuSans-7a"/>
     <use xlink:href="#DejaVuSans-20" transform="translate(52.490234 0)"/>
     <use xlink:href="#DejaVuSans-5b" transform="translate(84.277344 0)"/>
     <use xlink:href="#DejaVuSans-6b" transform="translate(123.291016 0)"/>
     <use xlink:href="#DejaVuSans-6d" transform="translate(181.201172 0)"/>
     <use xlink:href="#DejaVuSans-5d" transform="translate(278.613281 0)"/>
    </g>
   </g>
  </g>
  <g id="axes_1">
   <g id="Poly3DCollection_1">
    <path d="M 331.626012 325.439609 
L 331.232637 325.701755 
L 331.550285 325.274904 
L 331.943494 325.012915 
z
" clip-path="url(#pbb684ab436)" style="fill: #7a7a7a; fill-opacity: 0.2"/>
   </g>
   <g id="line2d_34">
    <path d="M 565.33144 365.90696 
L 551.407145 365.956494 
L 537.555185 365.751287 
L 523.783683 365.28794 
L 510.100832 364.563249 
L 496.514886 363.574219 
L 483.03414 362.318071 
L 472.330885 361.119107 
L 461.704562 359.746351 
L 451.159448 358.198705 
L 440.699818 356.475174 
L 430.32994 354.574863 
L 420.054072 352.49699 
L 409.876454 350.240878 
L 399.801308 347.805965 
L 389.832826 345.191801 
L 379.975173 342.398053 
L 370.232474 339.424504 
L 360.608817 336.27106 
L 351.10824 332.937742 
L 341.734733 329.424696 
L 332.492228 325.732192 
L 323.384596 321.86062 
L 314.415644 317.810497 
L 305.589106 313.582464 
L 296.90864 309.177285 
L 288.377826 304.595851 
L 280.000158 299.839178 
L 271.779041 294.908403 
L 263.717785 289.804789 
L 255.819604 284.529722 
L 248.087609 279.084707 
L 240.524806 273.471372 
L 233.134091 267.691462 
L 225.918246 261.746839 
L 218.879938 255.639481 
L 212.021714 249.37148 
L 205.345998 242.945035 
L 198.855088 236.362457 
L 192.551155 229.62616 
L 186.436239 222.738662 
L 180.512249 215.702581 
L 174.780957 208.520628 
L 169.244001 201.195613 
L 166.548873 197.480357 
L 166.548873 197.480357 
" clip-path="url(#pbb684ab436)" style="fill: none; stroke: #004c6d; stroke-width: 1.75; stroke-linecap: round"/>
   </g>
   <g id="line2d_35">
    <path d="M 563.128288 365.931574 
L 549.214878 365.941117 
L 535.37508 365.695371 
L 521.61703 365.190964 
L 507.948931 364.424727 
L 494.379043 363.393698 
L 480.91567 362.095133 
L 470.22726 360.861958 
L 459.616628 359.454767 
L 449.088048 357.872481 
L 438.645795 356.114124 
L 428.294136 354.178826 
L 418.037325 352.065822 
L 407.879599 349.77446 
L 397.825174 347.304199 
L 387.878239 344.654611 
L 378.042949 341.825388 
L 368.323425 338.816336 
L 358.723742 335.627383 
L 349.247932 332.258576 
L 339.899972 328.710084 
L 330.683783 324.982201 
L 321.603225 321.075342 
L 312.662088 316.990049 
L 303.864094 312.726986 
L 295.212885 308.286944 
L 286.712025 303.670838 
L 278.364989 298.879707 
L 270.175166 293.914714 
L 262.145846 288.777145 
L 254.280223 283.468411 
L 246.581388 277.990041 
L 239.052325 272.343686 
L 231.695909 266.531114 
L 224.514898 260.554211 
L 217.511937 254.414976 
L 210.689548 248.115524 
L 204.05013 241.658076 
L 197.595958 235.044962 
L 191.329175 228.278619 
L 185.251797 221.361584 
L 179.365704 214.296493 
L 173.672644 207.086078 
L 168.174228 199.733164 
L 165.498476 196.004177 
L 165.498476 196.004177 
" clip-path="url(#pbb684ab436)" style="fill: none; stroke: #ff7f0e; stroke-width: 1.75; stroke-linecap: round"/>
   </g>
   <g id="line2d_36">
    <path d="M 559.307761 372.221717 
L 545.299682 372.281138 
L 531.364902 372.083585 
L 517.511637 371.625615 
L 503.748174 370.903986 
L 490.082861 369.915666 
L 479.226916 368.931094 
L 468.443467 367.772702 
L 457.736836 366.439251 
L 447.111347 364.929604 
L 436.571323 363.242728 
L 426.121081 361.377694 
L 415.764931 359.333681 
L 405.507163 357.109979 
L 395.35205 354.705992 
L 385.303838 352.121238 
L 375.366742 349.355352 
L 365.544943 346.408087 
L 355.84258 343.279318 
L 346.263747 339.969042 
L 336.812485 336.477379 
L 327.492783 332.804571 
L 318.308564 328.950988 
L 309.263689 324.917125 
L 300.361946 320.703603 
L 291.607047 316.311169 
L 283.002625 311.740698 
L 274.552225 306.99319 
L 266.259305 302.069771 
L 258.127227 296.971693 
L 250.159254 291.700332 
L 242.358549 286.257188 
L 234.728165 280.643884 
L 227.271046 274.86216 
L 219.990022 268.91388 
L 212.887805 262.801021 
L 205.966987 256.525677 
L 199.230033 250.090055 
L 192.679285 243.49647 
L 186.316954 236.747346 
L 180.145118 229.845212 
L 174.165722 222.792697 
L 168.380575 215.59253 
L 162.791349 208.247533 
L 158.728929 202.64549 
L 158.728929 202.64549 
" clip-path="url(#pbb684ab436)" style="fill: none; stroke: #2ca02c; stroke-width: 1.75; stroke-linecap: round"/>
   </g>
   <g id="Poly3DCollection_2">
    <path d="M 325.221795 331.940917 
L 324.825362 332.205582 
L 325.145955 331.775296 
L 325.542221 331.51079 
z
" clip-path="url(#pbb684ab436)" style="fill: #7a7a7a; fill-opacity: 0.2"/>
   </g>
   <g id="text_19">
    <!-- Plane A -->
    <g style="fill: #262626" transform="translate(331.588148 325.357255) scale(0.1 -0.1)">
     <defs>
      <path id="DejaVuSans-50" d="M 1259 4147 
L 1259 2394 
L 2053 2394 
Q 2494 2394 2734 2622 
Q 2975 2850 2975 3272 
Q 2975 3691 2734 3919 
Q 2494 4147 2053 4147 
L 1259 4147 
z
M 628 4666 
L 2053 4666 
Q 2838 4666 3239 4311 
Q 3641 3956 3641 3272 
Q 3641 2581 3239 2228 
Q 2838 1875 2053 1875 
L 1259 1875 
L 1259 0 
L 628 0 
L 628 4666 
z
" transform="scale(0.015625)"/>
      <path id="DejaVuSans-6c" d="M 603 4863 
L 1178 4863 
L 1178 0 
L 603 0 
L 603 4863 
z
" transform="scale(0.015625)"/>
      <path id="DejaVuSans-61" d="M 2194 1759 
Q 1497 1759 1228 1600 
Q 959 1441 959 1056 
Q 959 750 1161 570 
Q 1363 391 1709 391 
Q 2188 391 2477 730 
Q 2766 1069 2766 1631 
L 2766 1759 
L 2194 1759 
z
M 3341 1997 
L 3341 0 
L 2766 0 
L 2766 531 
Q 2569 213 2275 61 
Q 1981 -91 1556 -91 
Q 1019 -91 701 211 
Q 384 513 384 1019 
Q 384 1609 779 1909 
Q 1175 2209 1959 2209 
L 2766 2209 
L 2766 2266 
Q 2766 2663 2505 2880 
Q 2244 3097 1772 3097 
Q 1472 3097 1187 3025 
Q 903 2953 641 2809 
L 641 3341 
Q 956 3463 1253 3523 
Q 1550 3584 1831 3584 
Q 2591 3584 2966 3190 
Q 3341 2797 3341 1997 
z
" transform="scale(0.015625)"/>
      <path id="DejaVuSans-6e" d="M 3513 2113 
L 3513 0 
L 2938 0 
L 2938 2094 
Q 2938 2591 2744 2837 
Q 2550 3084 2163 3084 
Q 1697 3084 1428 2787 
Q 1159 2491 1159 1978 
L 1159 0 
L 581 0 
L 581 3500 
L 1159 3500 
L 1159 2956 
Q 1366 3272 1645 3428 
Q 1925 3584 2291 3584 
Q 2894 3584 3203 3211 
Q 3513 2838 3513 2113 
z
" transform="scale(0.015625)"/>
      <path id="DejaVuSans-65" d="M 3597 1894 
L 3597 1613 
L 953 1613 
Q 991 1019 1311 708 
Q 1631 397 2203 397 
Q 2534 397 2845 478 
Q 3156 559 3463 722 
L 3463 178 
Q 3153 47 2828 -22 
Q 2503 -91 2169 -91 
Q 1331 -91 842 396 
Q 353 884 353 1716 
Q 353 2575 817 3079 
Q 1281 3584 2069 3584 
Q 2775 3584 3186 3129 
Q 3597 2675 3597 1894 
z
M 3022 2063 
Q 3016 2534 2758 2815 
Q 2500 3097 2075 3097 
Q 1594 3097 1305 2825 
Q 1016 2553 972 2059 
L 3022 2063 
z
" transform="scale(0.015625)"/>
      <path id="DejaVuSans-41" d="M 2188 4044 
L 1331 1722 
L 3047 1722 
L 2188 4044 
z
M 1831 4666 
L 2547 4666 
L 4325 0 
L 3669 0 
L 3244 1197 
L 1141 1197 
L 716 0 
L 50 0 
L 1831 4666 
z
" transform="scale(0.015625)"/>
     </defs>
     <use xlink:href="#DejaVuSans-50"/>
     <use xlink:href="#DejaVuSans-6c" transform="translate(60.302734 0)"/>
     <use xlink:href="#DejaVuSans-61" transform="translate(88.085938 0)"/>
     <use xlink:href="#DejaVuSans-6e" transform="translate(149.365234 0)"/>
     <use xlink:href="#DejaVuSans-65" transform="translate(212.744141 0)"/>
     <use xlink:href="#DejaVuSans-20" transform="translate(274.267578 0)"/>
     <use xlink:href="#DejaVuSans-41" transform="translate(306.054688 0)"/>
    </g>
   </g>
   <g id="text_20">
    <!-- Plane B -->
    <g style="fill: #262626" transform="translate(325.183875 331.858106) scale(0.1 -0.1)">
     <defs>
      <path id="DejaVuSans-42" d="M 1259 2228 
L 1259 519 
L 2272 519 
Q 2781 519 3026 730 
Q 3272 941 3272 1375 
Q 3272 1813 3026 2020 
Q 2781 2228 2272 2228 
L 1259 2228 
z
M 1259 4147 
L 1259 2741 
L 2194 2741 
Q 2656 2741 2882 2914 
Q 3109 3088 3109 3444 
Q 3109 3797 2882 3972 
Q 2656 4147 2194 4147 
L 1259 4147 
z
M 628 4666 
L 2241 4666 
Q 2963 4666 3353 4366 
Q 3744 4066 3744 3513 
Q 3744 3084 3544 2831 
Q 3344 2578 2956 2516 
Q 3422 2416 3680 2098 
Q 3938 1781 3938 1306 
Q 3938 681 3513 340 
Q 3088 0 2303 0 
L 628 0 
L 628 4666 
z
" transform="scale(0.015625)"/>
     </defs>
     <use xlink:href="#DejaVuSans-50"/>
     <use xlink:href="#DejaVuSans-6c" transform="translate(60.302734 0)"/>
     <use xlink:href="#DejaVuSans-61" transform="translate(88.085938 0)"/>
     <use xlink:href="#DejaVuSans-6e" transform="translate(149.365234 0)"/>
     <use xlink:href="#DejaVuSans-65" transform="translate(212.744141 0)"/>
     <use xlink:href="#DejaVuSans-20" transform="translate(274.267578 0)"/>
     <use xlink:href="#DejaVuSans-42" transform="translate(306.054688 0)"/>
    </g>
   </g>
   <g id="text_21">
    <!-- Orbital plane geometry over Tehran -->
    <g style="fill: #262626" transform="translate(252.819375 20.88) scale(0.12 -0.12)">
     <defs>
      <path id="DejaVuSans-4f" d="M 2522 4238 
Q 1834 4238 1429 3725 
Q 1025 3213 1025 2328 
Q 1025 1447 1429 934 
Q 1834 422 2522 422 
Q 3209 422 3611 934 
Q 4013 1447 4013 2328 
Q 4013 3213 3611 3725 
Q 3209 4238 2522 4238 
z
M 2522 4750 
Q 3503 4750 4090 4092 
Q 4678 3434 4678 2328 
Q 4678 1225 4090 567 
Q 3503 -91 2522 -91 
Q 1538 -91 948 565 
Q 359 1222 359 2328 
Q 359 3434 948 4092 
Q 1538 4750 2522 4750 
z
" transform="scale(0.015625)"/>
      <path id="DejaVuSans-72" d="M 2631 2963 
Q 2534 3019 2420 3045 
Q 2306 3072 2169 3072 
Q 1681 3072 1420 2755 
Q 1159 2438 1159 1844 
L 1159 0 
L 581 0 
L 581 3500 
L 1159 3500 
L 1159 2956 
Q 1341 3275 1631 3429 
Q 1922 3584 2338 3584 
Q 2397 3584 2469 3576 
Q 2541 3569 2628 3553 
L 2631 2963 
z
" transform="scale(0.015625)"/>
      <path id="DejaVuSans-62" d="M 3116 1747 
Q 3116 2381 2855 2742 
Q 2594 3103 2138 3103 
Q 1681 3103 1420 2742 
Q 1159 2381 1159 1747 
Q 1159 1113 1420 752 
Q 1681 391 2138 391 
Q 2594 391 2855 752 
Q 3116 1113 3116 1747 
z
M 1159 2969 
Q 1341 3281 1617 3432 
Q 1894 3584 2278 3584 
Q 2916 3584 3314 3078 
Q 3713 2572 3713 1747 
Q 3713 922 3314 415 
Q 2916 -91 2278 -91 
Q 1894 -91 1617 61 
Q 1341 213 1159 525 
L 1159 0 
L 581 0 
L 581 4863 
L 1159 4863 
L 1159 2969 
z
" transform="scale(0.015625)"/>
      <path id="DejaVuSans-69" d="M 603 3500 
L 1178 3500 
L 1178 0 
L 603 0 
L 603 3500 
z
M 603 4863 
L 1178 4863 
L 1178 4134 
L 603 4134 
L 603 4863 
z
" transform="scale(0.015625)"/>
      <path id="DejaVuSans-74" d="M 1172 4494 
L 1172 3500 
L 2356 3500 
L 2356 3053 
L 1172 3053 
L 1172 1153 
Q 1172 725 1289 603 
Q 1406 481 1766 481 
L 2356 481 
L 2356 0 
L 1766 0 
Q 1100 0 847 248 
Q 594 497 594 1153 
L 594 3053 
L 172 3053 
L 172 3500 
L 594 3500 
L 594 4494 
L 1172 4494 
z
" transform="scale(0.015625)"/>
      <path id="DejaVuSans-70" d="M 1159 525 
L 1159 -1331 
L 581 -1331 
L 581 3500 
L 1159 3500 
L 1159 2969 
Q 1341 3281 1617 3432 
Q 1894 3584 2278 3584 
Q 2916 3584 3314 3078 
Q 3713 2572 3713 1747 
Q 3713 922 3314 415 
Q 2916 -91 2278 -91 
Q 1894 -91 1617 61 
Q 1341 213 1159 525 
z
M 3116 1747 
Q 3116 2381 2855 2742 
Q 2594 3103 2138 3103 
Q 1681 3103 1420 2742 
Q 1159 2381 1159 1747 
Q 1159 1113 1420 752 
Q 1681 391 2138 391 
Q 2594 391 2855 752 
Q 3116 1113 3116 1747 
z
" transform="scale(0.015625)"/>
      <path id="DejaVuSans-67" d="M 2906 1791 
Q 2906 2416 2648 2759 
Q 2391 3103 1925 3103 
Q 1463 3103 1205 2759 
Q 947 2416 947 1791 
Q 947 1169 1205 825 
Q 1463 481 1925 481 
Q 2391 481 2648 825 
Q 2906 1169 2906 1791 
z
M 3481 434 
Q 3481 -459 3084 -895 
Q 2688 -1331 1869 -1331 
Q 1566 -1331 1297 -1286 
Q 1028 -1241 775 -1147 
L 775 -588 
Q 1028 -725 1275 -790 
Q 1522 -856 1778 -856 
Q 2344 -856 2625 -561 
Q 2906 -266 2906 331 
L 2906 616 
Q 2728 306 2450 153 
Q 2172 0 1784 0 
Q 1141 0 747 490 
Q 353 981 353 1791 
Q 353 2603 747 3093 
Q 1141 3584 1784 3584 
Q 2172 3584 2450 3431 
Q 2728 3278 2906 2969 
L 2906 3500 
L 3481 3500 
L 3481 434 
z
" transform="scale(0.015625)"/>
      <path id="DejaVuSans-6f" d="M 1959 3097 
Q 1497 3097 1228 2736 
Q 959 2375 959 1747 
Q 959 1119 1226 758 
Q 1494 397 1959 397 
Q 2419 397 2687 759 
Q 2956 1122 2956 1747 
Q 2956 2369 2687 2733 
Q 2419 3097 1959 3097 
z
M 1959 3584 
Q 2709 3584 3137 3096 
Q 3566 2609 3566 1747 
Q 3566 888 3137 398 
Q 2709 -91 1959 -91 
Q 1206 -91 779 398 
Q 353 888 353 1747 
Q 353 2609 779 3096 
Q 1206 3584 1959 3584 
z
" transform="scale(0.015625)"/>
      <path id="DejaVuSans-76" d="M 191 3500 
L 800 3500 
L 1894 563 
L 2988 3500 
L 3597 3500 
L 2284 0 
L 1503 0 
L 191 3500 
z
" transform="scale(0.015625)"/>
      <path id="DejaVuSans-54" d="M -19 4666 
L 3928 4666 
L 3928 4134 
L 2272 4134 
L 2272 0 
L 1638 0 
L 1638 4134 
L -19 4134 
L -19 4666 
z
" transform="scale(0.015625)"/>
      <path id="DejaVuSans-68" d="M 3513 2113 
L 3513 0 
L 2938 0 
L 2938 2094 
Q 2938 2591 2744 2837 
Q 2550 3084 2163 3084 
Q 1697 3084 1428 2787 
Q 1159 2491 1159 1978 
L 1159 0 
L 581 0 
L 581 4863 
L 1159 4863 
L 1159 2956 
Q 1366 3272 1645 3428 
Q 1925 3584 2291 3584 
Q 2894 3584 3203 3211 
Q 3513 2838 3513 2113 
z
" transform="scale(0.015625)"/>
     </defs>
     <use xlink:href="#DejaVuSans-4f"/>
     <use xlink:href="#DejaVuSans-72" transform="translate(78.710938 0)"/>
     <use xlink:href="#DejaVuSans-62" transform="translate(119.824219 0)"/>
     <use xlink:href="#DejaVuSans-69" transform="translate(183.300781 0)"/>
     <use xlink:href="#DejaVuSans-74" transform="translate(211.083984 0)"/>
     <use xlink:href="#DejaVuSans-61" transform="translate(250.292969 0)"/>
     <use xlink:href="#DejaVuSans-6c" transform="translate(311.572266 0)"/>
     <use xlink:href="#DejaVuSans-20" transform="translate(339.355469 0)"/>
     <use xlink:href="#DejaVuSans-70" transform="translate(371.142578 0)"/>
     <use xlink:href="#DejaVuSans-6c" transform="translate(434.619141 0)"/>
     <use xlink:href="#DejaVuSans-61" transform="translate(462.402344 0)"/>
     <use xlink:href="#DejaVuSans-6e" transform="translate(523.681641 0)"/>
     <use xlink:href="#DejaVuSans-65" transform="translate(587.060547 0)"/>
     <use xlink:href="#DejaVuSans-20" transform="translate(648.583984 0)"/>
     <use xlink:href="#DejaVuSans-67" transform="translate(680.371094 0)"/>
     <use xlink:href="#DejaVuSans-65" transform="translate(743.847656 0)"/>
     <use xlink:href="#DejaVuSans-6f" transform="translate(805.371094 0)"/>
     <use xlink:href="#DejaVuSans-6d" transform="translate(866.552734 0)"/>
     <use xlink:href="#DejaVuSans-65" transform="translate(963.964844 0)"/>
     <use xlink:href="#DejaVuSans-74" transform="translate(1025.488281 0)"/>
     <use xlink:href="#DejaVuSans-72" transform="translate(1064.697266 0)"/>
     <use xlink:href="#DejaVuSans-79" transform="translate(1105.810547 0)"/>
     <use xlink:href="#DejaVuSans-20" transform="translate(1164.990234 0)"/>
     <use xlink:href="#DejaVuSans-6f" transform="translate(1196.777344 0)"/>
     <use xlink:href="#DejaVuSans-76" transform="translate(1257.958984 0)"/>
     <use xlink:href="#DejaVuSans-65" transform="translate(1317.138672 0)"/>
     <use xlink:href="#DejaVuSans-72" transform="translate(1378.662109 0)"/>
     <use xlink:href="#DejaVuSans-20" transform="translate(1419.775391 0)"/>
     <use xlink:href="#DejaVuSans-54" transform="translate(1451.5625 0)"/>
     <use xlink:href="#DejaVuSans-65" transform="translate(1495.646484 0)"/>
     <use xlink:href="#DejaVuSans-68" transform="translate(1557.169922 0)"/>
     <use xlink:href="#DejaVuSans-72" transform="translate(1620.548828 0)"/>
     <use xlink:href="#DejaVuSans-61" transform="translate(1661.662109 0)"/>
     <use xlink:href="#DejaVuSans-6e" transform="translate(1722.941406 0)"/>
    </g>
   </g>
   <g id="legend_1">
    <g id="line2d_37">
     <path d="M 98.337 37.790998 
L 106.667 37.790998 
L 114.997 37.790998 
" style="fill: none; stroke: #004c6d; stroke-width: 1.75; stroke-linecap: round"/>
    </g>
    <g id="text_22">
     <!-- SAT-1 trajectory -->
     <g style="fill: #262626" transform="translate(121.661 40.706498) scale(0.0833 -0.0833)">
      <defs>
       <path id="DejaVuSans-53" d="M 3425 4513 
L 3425 3897 
Q 3066 4069 2747 4153 
Q 2428 4238 2131 4238 
Q 1616 4238 1336 4038 
Q 1056 3838 1056 3469 
Q 1056 3159 1242 3001 
Q 1428 2844 1947 2747 
L 2328 2669 
Q 3034 2534 3370 2195 
Q 3706 1856 3706 1288 
Q 3706 609 3251 259 
Q 2797 -91 1919 -91 
Q 1588 -91 1214 -16 
Q 841 59 441 206 
L 441 856 
Q 825 641 1194 531 
Q 1563 422 1919 422 
Q 2459 422 2753 634 
Q 3047 847 3047 1241 
Q 3047 1584 2836 1778 
Q 2625 1972 2144 2069 
L 1759 2144 
Q 1053 2284 737 2584 
Q 422 2884 422 3419 
Q 422 4038 858 4394 
Q 1294 4750 2059 4750 
Q 2388 4750 2728 4690 
Q 3069 4631 3425 4513 
z
" transform="scale(0.015625)"/>
       <path id="DejaVuSans-2d" d="M 313 2009 
L 1997 2009 
L 1997 1497 
L 313 1497 
L 313 2009 
z
" transform="scale(0.015625)"/>
       <path id="DejaVuSans-6a" d="M 603 3500 
L 1178 3500 
L 1178 -63 
Q 1178 -731 923 -1031 
Q 669 -1331 103 -1331 
L -116 -1331 
L -116 -844 
L 38 -844 
Q 366 -844 484 -692 
Q 603 -541 603 -63 
L 603 3500 
z
M 603 4863 
L 1178 4863 
L 1178 4134 
L 603 4134 
L 603 4863 
z
" transform="scale(0.015625)"/>
       <path id="DejaVuSans-63" d="M 3122 3366 
L 3122 2828 
Q 2878 2963 2633 3030 
Q 2388 3097 2138 3097 
Q 1578 3097 1268 2742 
Q 959 2388 959 1747 
Q 959 1106 1268 751 
Q 1578 397 2138 397 
Q 2388 397 2633 464 
Q 2878 531 3122 666 
L 3122 134 
Q 2881 22 2623 -34 
Q 2366 -91 2075 -91 
Q 1284 -91 818 406 
Q 353 903 353 1747 
Q 353 2603 823 3093 
Q 1294 3584 2113 3584 
Q 2378 3584 2631 3529 
Q 2884 3475 3122 3366 
z
" transform="scale(0.015625)"/>
      </defs>
      <use xlink:href="#DejaVuSans-53"/>
      <use xlink:href="#DejaVuSans-41" transform="translate(65.351562 0)"/>
      <use xlink:href="#DejaVuSans-54" transform="translate(126.009766 0)"/>
      <use xlink:href="#DejaVuSans-2d" transform="translate(177.96875 0)"/>
      <use xlink:href="#DejaVuSans-31" transform="translate(214.052734 0)"/>
      <use xlink:href="#DejaVuSans-20" transform="translate(277.675781 0)"/>
      <use xlink:href="#DejaVuSans-74" transform="translate(309.462891 0)"/>
      <use xlink:href="#DejaVuSans-72" transform="translate(348.671875 0)"/>
      <use xlink:href="#DejaVuSans-61" transform="translate(389.785156 0)"/>
      <use xlink:href="#DejaVuSans-6a" transform="translate(451.064453 0)"/>
      <use xlink:href="#DejaVuSans-65" transform="translate(478.847656 0)"/>
      <use xlink:href="#DejaVuSans-63" transform="translate(540.371094 0)"/>
      <use xlink:href="#DejaVuSans-74" transform="translate(595.351562 0)"/>
      <use xlink:href="#DejaVuSans-6f" transform="translate(634.560547 0)"/>
      <use xlink:href="#DejaVuSans-72" transform="translate(695.742188 0)"/>
      <use xlink:href="#DejaVuSans-79" transform="translate(736.855469 0)"/>
     </g>
    </g>
    <g id="line2d_38">
     <path d="M 98.337 50.017877 
L 106.667 50.017877 
L 114.997 50.017877 
" style="fill: none; stroke: #ff7f0e; stroke-width: 1.75; stroke-linecap: round"/>
    </g>
    <g id="text_23">
     <!-- SAT-2 trajectory -->
     <g style="fill: #262626" transform="translate(121.661 52.933377) scale(0.0833 -0.0833)">
      <use xlink:href="#DejaVuSans-53"/>
      <use xlink:href="#DejaVuSans-41" transform="translate(65.351562 0)"/>
      <use xlink:href="#DejaVuSans-54" transform="translate(126.009766 0)"/>
      <use xlink:href="#DejaVuSans-2d" transform="translate(177.96875 0)"/>
      <use xlink:href="#DejaVuSans-32" transform="translate(214.052734 0)"/>
      <use xlink:href="#DejaVuSans-20" transform="translate(277.675781 0)"/>
      <use xlink:href="#DejaVuSans-74" transform="translate(309.462891 0)"/>
      <use xlink:href="#DejaVuSans-72" transform="translate(348.671875 0)"/>
      <use xlink:href="#DejaVuSans-61" transform="translate(389.785156 0)"/>
      <use xlink:href="#DejaVuSans-6a" transform="translate(451.064453 0)"/>
      <use xlink:href="#DejaVuSans-65" transform="translate(478.847656 0)"/>
      <use xlink:href="#DejaVuSans-63" transform="translate(540.371094 0)"/>
      <use xlink:href="#DejaVuSans-74" transform="translate(595.351562 0)"/>
      <use xlink:href="#DejaVuSans-6f" transform="translate(634.560547 0)"/>
      <use xlink:href="#DejaVuSans-72" transform="translate(695.742188 0)"/>
      <use xlink:href="#DejaVuSans-79" transform="translate(736.855469 0)"/>
     </g>
    </g>
    <g id="line2d_39">
     <path d="M 98.337 62.244755 
L 106.667 62.244755 
L 114.997 62.244755 
" style="fill: none; stroke: #2ca02c; stroke-width: 1.75; stroke-linecap: round"/>
    </g>
    <g id="text_24">
     <!-- SAT-3 trajectory -->
     <g style="fill: #262626" transform="translate(121.661 65.160255) scale(0.0833 -0.0833)">
      <use xlink:href="#DejaVuSans-53"/>
      <use xlink:href="#DejaVuSans-41" transform="translate(65.351562 0)"/>
      <use xlink:href="#DejaVuSans-54" transform="translate(126.009766 0)"/>
      <use xlink:href="#DejaVuSans-2d" transform="translate(177.96875 0)"/>
      <use xlink:href="#DejaVuSans-33" transform="translate(214.052734 0)"/>
      <use xlink:href="#DejaVuSans-20" transform="translate(277.675781 0)"/>
      <use xlink:href="#DejaVuSans-74" transform="translate(309.462891 0)"/>
      <use xlink:href="#DejaVuSans-72" transform="translate(348.671875 0)"/>
      <use xlink:href="#DejaVuSans-61" transform="translate(389.785156 0)"/>
      <use xlink:href="#DejaVuSans-6a" transform="translate(451.064453 0)"/>
      <use xlink:href="#DejaVuSans-65" transform="translate(478.847656 0)"/>
      <use xlink:href="#DejaVuSans-63" transform="translate(540.371094 0)"/>
      <use xlink:href="#DejaVuSans-74" transform="translate(595.351562 0)"/>
      <use xlink:href="#DejaVuSans-6f" transform="translate(634.560547 0)"/>
      <use xlink:href="#DejaVuSans-72" transform="translate(695.742188 0)"/>
      <use xlink:href="#DejaVuSans-79" transform="translate(736.855469 0)"/>
     </g>
    </g>
   </g>
  </g>
 </g>
 <defs>
  <clipPath id="pbb684ab436">
   <rect x="90.84" y="26.88" width="538.32" height="538.32"/>
  </clipPath>
 </defs>
</svg>
