<?xml version="1.0" encoding="utf-8" standalone="no"?>
<!DOCTYPE svg PUBLIC "-//W3C//DTD SVG 1.1//EN"
  "http://www.w3.org/Graphics/SVG/1.1/DTD/svg11.dtd">
<svg xmlns:xlink="http://www.w3.org/1999/xlink" width="864pt" height="576pt" viewBox="0 0 864 576" xmlns="http://www.w3.org/2000/svg" version="1.1">
 <metadata>
  <rdf:RDF xmlns:dc="http://purl.org/dc/elements/1.1/" xmlns:cc="http://creativecommons.org/ns#" xmlns:rdf="http://www.w3.org/1999/02/22-rdf-syntax-ns#">
   <cc:Work>
    <dc:type rdf:resource="http://purl.org/dc/dcmitype/StillImage"/>
    <dc:date>2025-11-01T08:07:32.750075</dc:date>
    <dc:format>image/svg+xml</dc:format>
    <dc:creator>
     <cc:Agent>
      <dc:title>Matplotlib v3.10.7, https://matplotlib.org/</dc:title>
     </cc:Agent>
    </dc:creator>
   </cc:Work>
  </rdf:RDF>
 </metadata>
 <defs>
  <style type="text/css">*{stroke-linejoin: round; stroke-linecap: butt}</style>
 </defs>
 <g id="figure_1">
  <g id="patch_1">
   <path d="M 0 576 
L 864 576 
L 864 0 
L 0 0 
z
" style="fill: #ffffff"/>
  </g>
  <g id="axes_1">
   <g id="patch_2">
    <path d="M 58.07 261.2 
L 424.125 261.2 
L 424.125 26.88 
L 58.07 26.88 
z
" style="fill: #eaeaf2"/>
   </g>
   <g id="matplotlib.axis_1">
    <g id="xtick_1">
     <g id="line2d_1">
      <path d="M 111.684115 261.2 
L 111.684115 26.88 
" clip-path="url(#p4a7b281e18)" style="fill: none; stroke-dasharray: 0.5,0.825; stroke-dashoffset: 0; stroke: #ffffff; stroke-width: 0.5"/>
     </g>
     <g id="line2d_2"/>
    </g>
    <g id="xtick_2">
     <g id="line2d_3">
      <path d="M 167.146995 261.2 
L 167.146995 26.88 
" clip-path="url(#p4a7b281e18)" style="fill: none; stroke-dasharray: 0.5,0.825; stroke-dashoffset: 0; stroke: #ffffff; stroke-width: 0.5"/>
     </g>
     <g id="line2d_4"/>
    </g>
    <g id="xtick_3">
     <g id="line2d_5">
      <path d="M 222.609874 261.2 
L 222.609874 26.88 
" clip-path="url(#p4a7b281e18)" style="fill: none; stroke-dasharray: 0.5,0.825; stroke-dashoffset: 0; stroke: #ffffff; stroke-width: 0.5"/>
     </g>
     <g id="line2d_6"/>
    </g>
    <g id="xtick_4">
     <g id="line2d_7">
      <path d="M 278.072752 261.2 
L 278.072752 26.88 
" clip-path="url(#p4a7b281e18)" style="fill: none; stroke-dasharray: 0.5,0.825; stroke-dashoffset: 0; stroke: #ffffff; stroke-width: 0.5"/>
     </g>
     <g id="line2d_8"/>
    </g>
    <g id="xtick_5">
     <g id="line2d_9">
      <path d="M 333.535631 261.2 
L 333.535631 26.88 
" clip-path="url(#p4a7b281e18)" style="fill: none; stroke-dasharray: 0.5,0.825; stroke-dashoffset: 0; stroke: #ffffff; stroke-width: 0.5"/>
     </g>
     <g id="line2d_10"/>
    </g>
    <g id="xtick_6">
     <g id="line2d_11">
      <path d="M 388.99851 261.2 
L 388.99851 26.88 
" clip-path="url(#p4a7b281e18)" style="fill: none; stroke-dasharray: 0.5,0.825; stroke-dashoffset: 0; stroke: #ffffff; stroke-width: 0.5"/>
     </g>
     <g id="line2d_12"/>
    </g>
   </g>
   <g id="matplotlib.axis_2">
    <g id="ytick_1">
     <g id="line2d_13">
      <path d="M 58.07 211.794221 
L 424.125 211.794221 
" clip-path="url(#p4a7b281e18)" style="fill: none; stroke-dasharray: 0.5,0.825; stroke-dashoffset: 0; stroke: #ffffff; stroke-width: 0.5"/>
     </g>
     <g id="line2d_14"/>
     <g id="text_1">
      <!-- 6895 -->
      <g style="fill: #262626" transform="translate(25.62 215.593439) scale(0.1 -0.1)">
       <defs>
        <path id="DejaVuSans-36" d="M 2113 2584 
Q 1688 2584 1439 2293 
Q 1191 2003 1191 1497 
Q 1191 994 1439 701 
Q 1688 409 2113 409 
Q 2538 409 2786 701 
Q 3034 994 3034 1497 
Q 3034 2003 2786 2293 
Q 2538 2584 2113 2584 
z
M 3366 4563 
L 3366 3988 
Q 3128 4100 2886 4159 
Q 2644 4219 2406 4219 
Q 1781 4219 1451 3797 
Q 1122 3375 1075 2522 
Q 1259 2794 1537 2939 
Q 1816 3084 2150 3084 
Q 2853 3084 3261 2657 
Q 3669 2231 3669 1497 
Q 3669 778 3244 343 
Q 2819 -91 2113 -91 
Q 1303 -91 875 529 
Q 447 1150 447 2328 
Q 447 3434 972 4092 
Q 1497 4750 2381 4750 
Q 2619 4750 2861 4703 
Q 3103 4656 3366 4563 
z
" transform="scale(0.015625)"/>
        <path id="DejaVuSans-38" d="M 2034 2216 
Q 1584 2216 1326 1975 
Q 1069 1734 1069 1313 
Q 1069 891 1326 650 
Q 1584 409 2034 409 
Q 2484 409 2743 651 
Q 3003 894 3003 1313 
Q 3003 1734 2745 1975 
Q 2488 2216 2034 2216 
z
M 1403 2484 
Q 997 2584 770 2862 
Q 544 3141 544 3541 
Q 544 4100 942 4425 
Q 1341 4750 2034 4750 
Q 2731 4750 3128 4425 
Q 3525 4100 3525 3541 
Q 3525 3141 3298 2862 
Q 3072 2584 2669 2484 
Q 3125 2378 3379 2068 
Q 3634 1759 3634 1313 
Q 3634 634 3220 271 
Q 2806 -91 2034 -91 
Q 1263 -91 848 271 
Q 434 634 434 1313 
Q 434 1759 690 2068 
Q 947 2378 1403 2484 
z
M 1172 3481 
Q 1172 3119 1398 2916 
Q 1625 2713 2034 2713 
Q 2441 2713 2670 2916 
Q 2900 3119 2900 3481 
Q 2900 3844 2670 4047 
Q 2441 4250 2034 4250 
Q 1625 4250 1398 4047 
Q 1172 3844 1172 3481 
z
" transform="scale(0.015625)"/>
        <path id="DejaVuSans-39" d="M 703 97 
L 703 672 
Q 941 559 1184 500 
Q 1428 441 1663 441 
Q 2288 441 2617 861 
Q 2947 1281 2994 2138 
Q 2813 1869 2534 1725 
Q 2256 1581 1919 1581 
Q 1219 1581 811 2004 
Q 403 2428 403 3163 
Q 403 3881 828 4315 
Q 1253 4750 1959 4750 
Q 2769 4750 3195 4129 
Q 3622 3509 3622 2328 
Q 3622 1225 3098 567 
Q 2575 -91 1691 -91 
Q 1453 -91 1209 -44 
Q 966 3 703 97 
z
M 1959 2075 
Q 2384 2075 2632 2365 
Q 2881 2656 2881 3163 
Q 2881 3666 2632 3958 
Q 2384 4250 1959 4250 
Q 1534 4250 1286 3958 
Q 1038 3666 1038 3163 
Q 1038 2656 1286 2365 
Q 1534 2075 1959 2075 
z
" transform="scale(0.015625)"/>
        <path id="DejaVuSans-35" d="M 691 4666 
L 3169 4666 
L 3169 4134 
L 1269 4134 
L 1269 2991 
Q 1406 3038 1543 3061 
Q 1681 3084 1819 3084 
Q 2600 3084 3056 2656 
Q 3513 2228 3513 1497 
Q 3513 744 3044 326 
Q 2575 -91 1722 -91 
Q 1428 -91 1123 -41 
Q 819 9 494 109 
L 494 744 
Q 775 591 1075 516 
Q 1375 441 1709 441 
Q 2250 441 2565 725 
Q 2881 1009 2881 1497 
Q 2881 1984 2565 2268 
Q 2250 2553 1709 2553 
Q 1456 2553 1204 2497 
Q 953 2441 691 2322 
L 691 4666 
z
" transform="scale(0.015625)"/>
       </defs>
       <use xlink:href="#DejaVuSans-36"/>
       <use xlink:href="#DejaVuSans-38" transform="translate(63.623047 0)"/>
       <use xlink:href="#DejaVuSans-39" transform="translate(127.246094 0)"/>
       <use xlink:href="#DejaVuSans-35" transform="translate(190.869141 0)"/>
      </g>
     </g>
    </g>
    <g id="ytick_2">
     <g id="line2d_15">
      <path d="M 58.07 160.597073 
L 424.125 160.597073 
" clip-path="url(#p4a7b281e18)" style="fill: none; stroke-dasharray: 0.5,0.825; stroke-dashoffset: 0; stroke: #ffffff; stroke-width: 0.5"/>
     </g>
     <g id="line2d_16"/>
     <g id="text_2">
      <!-- 6900 -->
      <g style="fill: #262626" transform="translate(25.62 164.396292) scale(0.1 -0.1)">
       <defs>
        <path id="DejaVuSans-30" d="M 2034 4250 
Q 1547 4250 1301 3770 
Q 1056 3291 1056 2328 
Q 1056 1369 1301 889 
Q 1547 409 2034 409 
Q 2525 409 2770 889 
Q 3016 1369 3016 2328 
Q 3016 3291 2770 3770 
Q 2525 4250 2034 4250 
z
M 2034 4750 
Q 2819 4750 3233 4129 
Q 3647 3509 3647 2328 
Q 3647 1150 3233 529 
Q 2819 -91 2034 -91 
Q 1250 -91 836 529 
Q 422 1150 422 2328 
Q 422 3509 836 4129 
Q 1250 4750 2034 4750 
z
" transform="scale(0.015625)"/>
       </defs>
       <use xlink:href="#DejaVuSans-36"/>
       <use xlink:href="#DejaVuSans-39" transform="translate(63.623047 0)"/>
       <use xlink:href="#DejaVuSans-30" transform="translate(127.246094 0)"/>
       <use xlink:href="#DejaVuSans-30" transform="translate(190.869141 0)"/>
      </g>
     </g>
    </g>
    <g id="ytick_3">
     <g id="line2d_17">
      <path d="M 58.07 109.399925 
L 424.125 109.399925 
" clip-path="url(#p4a7b281e18)" style="fill: none; stroke-dasharray: 0.5,0.825; stroke-dashoffset: 0; stroke: #ffffff; stroke-width: 0.5"/>
     </g>
     <g id="line2d_18"/>
     <g id="text_3">
      <!-- 6905 -->
      <g style="fill: #262626" transform="translate(25.62 113.199144) scale(0.1 -0.1)">
       <use xlink:href="#DejaVuSans-36"/>
       <use xlink:href="#DejaVuSans-39" transform="translate(63.623047 0)"/>
       <use xlink:href="#DejaVuSans-30" transform="translate(127.246094 0)"/>
       <use xlink:href="#DejaVuSans-35" transform="translate(190.869141 0)"/>
      </g>
     </g>
    </g>
    <g id="ytick_4">
     <g id="line2d_19">
      <path d="M 58.07 58.202778 
L 424.125 58.202778 
" clip-path="url(#p4a7b281e18)" style="fill: none; stroke-dasharray: 0.5,0.825; stroke-dashoffset: 0; stroke: #ffffff; stroke-width: 0.5"/>
     </g>
     <g id="line2d_20"/>
     <g id="text_4">
      <!-- 6910 -->
      <g style="fill: #262626" transform="translate(25.62 62.001997) scale(0.1 -0.1)">
       <defs>
        <path id="DejaVuSans-31" d="M 794 531 
L 1825 531 
L 1825 4091 
L 703 3866 
L 703 4441 
L 1819 4666 
L 2450 4666 
L 2450 531 
L 3481 531 
L 3481 0 
L 794 0 
L 794 531 
z
" transform="scale(0.015625)"/>
       </defs>
       <use xlink:href="#DejaVuSans-36"/>
       <use xlink:href="#DejaVuSans-39" transform="translate(63.623047 0)"/>
       <use xlink:href="#DejaVuSans-31" transform="translate(127.246094 0)"/>
       <use xlink:href="#DejaVuSans-30" transform="translate(190.869141 0)"/>
      </g>
     </g>
    </g>
    <g id="text_5">
     <!-- a [km] -->
     <g style="fill: #262626" transform="translate(19.332344 161.992344) rotate(-90) scale(0.11 -0.11)">
      <defs>
       <path id="DejaVuSans-61" d="M 2194 1759 
Q 1497 1759 1228 1600 
Q 959 1441 959 1056 
Q 959 750 1161 570 
Q 1363 391 1709 391 
Q 2188 391 2477 730 
Q 2766 1069 2766 1631 
L 2766 1759 
L 2194 1759 
z
M 3341 1997 
L 3341 0 
L 2766 0 
L 2766 531 
Q 2569 213 2275 61 
Q 1981 -91 1556 -91 
Q 1019 -91 701 211 
Q 384 513 384 1019 
Q 384 1609 779 1909 
Q 1175 2209 1959 2209 
L 2766 2209 
L 2766 2266 
Q 2766 2663 2505 2880 
Q 2244 3097 1772 3097 
Q 1472 3097 1187 3025 
Q 903 2953 641 2809 
L 641 3341 
Q 956 3463 1253 3523 
Q 1550 3584 1831 3584 
Q 2591 3584 2966 3190 
Q 3341 2797 3341 1997 
z
" transform="scale(0.015625)"/>
       <path id="DejaVuSans-20" transform="scale(0.015625)"/>
       <path id="DejaVuSans-5b" d="M 550 4863 
L 1875 4863 
L 1875 4416 
L 1125 4416 
L 1125 -397 
L 1875 -397 
L 1875 -844 
L 550 -844 
L 550 4863 
z
" transform="scale(0.015625)"/>
       <path id="DejaVuSans-6b" d="M 581 4863 
L 1159 4863 
L 1159 1991 
L 2875 3500 
L 3609 3500 
L 1753 1863 
L 3688 0 
L 2938 0 
L 1159 1709 
L 1159 0 
L 581 0 
L 581 4863 
z
" transform="scale(0.015625)"/>
       <path id="DejaVuSans-6d" d="M 3328 2828 
Q 3544 3216 3844 3400 
Q 4144 3584 4550 3584 
Q 5097 3584 5394 3201 
Q 5691 2819 5691 2113 
L 5691 0 
L 5113 0 
L 5113 2094 
Q 5113 2597 4934 2840 
Q 4756 3084 4391 3084 
Q 3944 3084 3684 2787 
Q 3425 2491 3425 1978 
L 3425 0 
L 2847 0 
L 2847 2094 
Q 2847 2600 2669 2842 
Q 2491 3084 2119 3084 
Q 1678 3084 1418 2786 
Q 1159 2488 1159 1978 
L 1159 0 
L 581 0 
L 581 3500 
L 1159 3500 
L 1159 2956 
Q 1356 3278 1631 3431 
Q 1906 3584 2284 3584 
Q 2666 3584 2933 3390 
Q 3200 3197 3328 2828 
z
" transform="scale(0.015625)"/>
       <path id="DejaVuSans-5d" d="M 1947 4863 
L 1947 -844 
L 622 -844 
L 622 -397 
L 1369 -397 
L 1369 4416 
L 622 4416 
L 622 4863 
L 1947 4863 
z
" transform="scale(0.015625)"/>
      </defs>
      <use xlink:href="#DejaVuSans-61"/>
      <use xlink:href="#DejaVuSans-20" transform="translate(61.279297 0)"/>
      <use xlink:href="#DejaVuSans-5b" transform="translate(93.066406 0)"/>
      <use xlink:href="#DejaVuSans-6b" transform="translate(132.080078 0)"/>
      <use xlink:href="#DejaVuSans-6d" transform="translate(189.990234 0)"/>
      <use xlink:href="#DejaVuSans-5d" transform="translate(287.402344 0)"/>
     </g>
    </g>
   </g>
   <g id="line2d_21">
    <path d="M 74.708863 250.527701 
L 85.801439 250.549091 
L 407.486136 250.527701 
L 407.486136 250.527701 
" clip-path="url(#p4a7b281e18)" style="fill: none; stroke: #4c72b0; stroke-width: 1.75; stroke-linecap: round"/>
   </g>
   <g id="line2d_22">
    <path d="M 74.708863 250.527701 
L 85.801439 250.549091 
L 407.486136 250.527701 
L 407.486136 250.527701 
" clip-path="url(#p4a7b281e18)" style="fill: none; stroke: #55a868; stroke-width: 1.75; stroke-linecap: round"/>
   </g>
   <g id="line2d_23">
    <path d="M 74.708863 37.530909 
L 85.801439 37.55246 
L 407.486136 37.530909 
L 407.486136 37.530909 
" clip-path="url(#p4a7b281e18)" style="fill: none; stroke: #c44e52; stroke-width: 1.75; stroke-linecap: round"/>
   </g>
   <g id="patch_3">
    <path d="M 58.07 261.2 
L 58.07 26.88 
" style="fill: none"/>
   </g>
   <g id="patch_4">
    <path d="M 424.125 261.2 
L 424.125 26.88 
" style="fill: none"/>
   </g>
   <g id="patch_5">
    <path d="M 58.07 261.2 
L 424.125 261.2 
" style="fill: none"/>
   </g>
   <g id="patch_6">
    <path d="M 58.07 26.88 
L 424.125 26.88 
" style="fill: none"/>
   </g>
   <g id="text_6">
    <!-- Semi-major axis evolution -->
    <g style="fill: #262626" transform="translate(162.88375 20.88) scale(0.12 -0.12)">
     <defs>
      <path id="DejaVuSans-53" d="M 3425 4513 
L 3425 3897 
Q 3066 4069 2747 4153 
Q 2428 4238 2131 4238 
Q 1616 4238 1336 4038 
Q 1056 3838 1056 3469 
Q 1056 3159 1242 3001 
Q 1428 2844 1947 2747 
L 2328 2669 
Q 3034 2534 3370 2195 
Q 3706 1856 3706 1288 
Q 3706 609 3251 259 
Q 2797 -91 1919 -91 
Q 1588 -91 1214 -16 
Q 841 59 441 206 
L 441 856 
Q 825 641 1194 531 
Q 1563 422 1919 422 
Q 2459 422 2753 634 
Q 3047 847 3047 1241 
Q 3047 1584 2836 1778 
Q 2625 1972 2144 2069 
L 1759 2144 
Q 1053 2284 737 2584 
Q 422 2884 422 3419 
Q 422 4038 858 4394 
Q 1294 4750 2059 4750 
Q 2388 4750 2728 4690 
Q 3069 4631 3425 4513 
z
" transform="scale(0.015625)"/>
      <path id="DejaVuSans-65" d="M 3597 1894 
L 3597 1613 
L 953 1613 
Q 991 1019 1311 708 
Q 1631 397 2203 397 
Q 2534 397 2845 478 
Q 3156 559 3463 722 
L 3463 178 
Q 3153 47 2828 -22 
Q 2503 -91 2169 -91 
Q 1331 -91 842 396 
Q 353 884 353 1716 
Q 353 2575 817 3079 
Q 1281 3584 2069 3584 
Q 2775 3584 3186 3129 
Q 3597 2675 3597 1894 
z
M 3022 2063 
Q 3016 2534 2758 2815 
Q 2500 3097 2075 3097 
Q 1594 3097 1305 2825 
Q 1016 2553 972 2059 
L 3022 2063 
z
" transform="scale(0.015625)"/>
      <path id="DejaVuSans-69" d="M 603 3500 
L 1178 3500 
L 1178 0 
L 603 0 
L 603 3500 
z
M 603 4863 
L 1178 4863 
L 1178 4134 
L 603 4134 
L 603 4863 
z
" transform="scale(0.015625)"/>
      <path id="DejaVuSans-2d" d="M 313 2009 
L 1997 2009 
L 1997 1497 
L 313 1497 
L 313 2009 
z
" transform="scale(0.015625)"/>
      <path id="DejaVuSans-6a" d="M 603 3500 
L 1178 3500 
L 1178 -63 
Q 1178 -731 923 -1031 
Q 669 -1331 103 -1331 
L -116 -1331 
L -116 -844 
L 38 -844 
Q 366 -844 484 -692 
Q 603 -541 603 -63 
L 603 3500 
z
M 603 4863 
L 1178 4863 
L 1178 4134 
L 603 4134 
L 603 4863 
z
" transform="scale(0.015625)"/>
      <path id="DejaVuSans-6f" d="M 1959 3097 
Q 1497 3097 1228 2736 
Q 959 2375 959 1747 
Q 959 1119 1226 758 
Q 1494 397 1959 397 
Q 2419 397 2687 759 
Q 2956 1122 2956 1747 
Q 2956 2369 2687 2733 
Q 2419 3097 1959 3097 
z
M 1959 3584 
Q 2709 3584 3137 3096 
Q 3566 2609 3566 1747 
Q 3566 888 3137 398 
Q 2709 -91 1959 -91 
Q 1206 -91 779 398 
Q 353 888 353 1747 
Q 353 2609 779 3096 
Q 1206 3584 1959 3584 
z
" transform="scale(0.015625)"/>
      <path id="DejaVuSans-72" d="M 2631 2963 
Q 2534 3019 2420 3045 
Q 2306 3072 2169 3072 
Q 1681 3072 1420 2755 
Q 1159 2438 1159 1844 
L 1159 0 
L 581 0 
L 581 3500 
L 1159 3500 
L 1159 2956 
Q 1341 3275 1631 3429 
Q 1922 3584 2338 3584 
Q 2397 3584 2469 3576 
Q 2541 3569 2628 3553 
L 2631 2963 
z
" transform="scale(0.015625)"/>
      <path id="DejaVuSans-78" d="M 3513 3500 
L 2247 1797 
L 3578 0 
L 2900 0 
L 1881 1375 
L 863 0 
L 184 0 
L 1544 1831 
L 300 3500 
L 978 3500 
L 1906 2253 
L 2834 3500 
L 3513 3500 
z
" transform="scale(0.015625)"/>
      <path id="DejaVuSans-73" d="M 2834 3397 
L 2834 2853 
Q 2591 2978 2328 3040 
Q 2066 3103 1784 3103 
Q 1356 3103 1142 2972 
Q 928 2841 928 2578 
Q 928 2378 1081 2264 
Q 1234 2150 1697 2047 
L 1894 2003 
Q 2506 1872 2764 1633 
Q 3022 1394 3022 966 
Q 3022 478 2636 193 
Q 2250 -91 1575 -91 
Q 1294 -91 989 -36 
Q 684 19 347 128 
L 347 722 
Q 666 556 975 473 
Q 1284 391 1588 391 
Q 1994 391 2212 530 
Q 2431 669 2431 922 
Q 2431 1156 2273 1281 
Q 2116 1406 1581 1522 
L 1381 1569 
Q 847 1681 609 1914 
Q 372 2147 372 2553 
Q 372 3047 722 3315 
Q 1072 3584 1716 3584 
Q 2034 3584 2315 3537 
Q 2597 3491 2834 3397 
z
" transform="scale(0.015625)"/>
      <path id="DejaVuSans-76" d="M 191 3500 
L 800 3500 
L 1894 563 
L 2988 3500 
L 3597 3500 
L 2284 0 
L 1503 0 
L 191 3500 
z
" transform="scale(0.015625)"/>
      <path id="DejaVuSans-6c" d="M 603 4863 
L 1178 4863 
L 1178 0 
L 603 0 
L 603 4863 
z
" transform="scale(0.015625)"/>
      <path id="DejaVuSans-75" d="M 544 1381 
L 544 3500 
L 1119 3500 
L 1119 1403 
Q 1119 906 1312 657 
Q 1506 409 1894 409 
Q 2359 409 2629 706 
Q 2900 1003 2900 1516 
L 2900 3500 
L 3475 3500 
L 3475 0 
L 2900 0 
L 2900 538 
Q 2691 219 2414 64 
Q 2138 -91 1772 -91 
Q 1169 -91 856 284 
Q 544 659 544 1381 
z
M 1991 3584 
L 1991 3584 
z
" transform="scale(0.015625)"/>
      <path id="DejaVuSans-74" d="M 1172 4494 
L 1172 3500 
L 2356 3500 
L 2356 3053 
L 1172 3053 
L 1172 1153 
Q 1172 725 1289 603 
Q 1406 481 1766 481 
L 2356 481 
L 2356 0 
L 1766 0 
Q 1100 0 847 248 
Q 594 497 594 1153 
L 594 3053 
L 172 3053 
L 172 3500 
L 594 3500 
L 594 4494 
L 1172 4494 
z
" transform="scale(0.015625)"/>
      <path id="DejaVuSans-6e" d="M 3513 2113 
L 3513 0 
L 2938 0 
L 2938 2094 
Q 2938 2591 2744 2837 
Q 2550 3084 2163 3084 
Q 1697 3084 1428 2787 
Q 1159 2491 1159 1978 
L 1159 0 
L 581 0 
L 581 3500 
L 1159 3500 
L 1159 2956 
Q 1366 3272 1645 3428 
Q 1925 3584 2291 3584 
Q 2894 3584 3203 3211 
Q 3513 2838 3513 2113 
z
" transform="scale(0.015625)"/>
     </defs>
     <use xlink:href="#DejaVuSans-53"/>
     <use xlink:href="#DejaVuSans-65" transform="translate(63.476562 0)"/>
     <use xlink:href="#DejaVuSans-6d" transform="translate(125 0)"/>
     <use xlink:href="#DejaVuSans-69" transform="translate(222.412109 0)"/>
     <use xlink:href="#DejaVuSans-2d" transform="translate(250.195312 0)"/>
     <use xlink:href="#DejaVuSans-6d" transform="translate(286.279297 0)"/>
     <use xlink:href="#DejaVuSans-61" transform="translate(383.691406 0)"/>
     <use xlink:href="#DejaVuSans-6a" transform="translate(444.970703 0)"/>
     <use xlink:href="#DejaVuSans-6f" transform="translate(472.753906 0)"/>
     <use xlink:href="#DejaVuSans-72" transform="translate(533.935547 0)"/>
     <use xlink:href="#DejaVuSans-20" transform="translate(575.048828 0)"/>
     <use xlink:href="#DejaVuSans-61" transform="translate(606.835938 0)"/>
     <use xlink:href="#DejaVuSans-78" transform="translate(668.115234 0)"/>
     <use xlink:href="#DejaVuSans-69" transform="translate(727.294922 0)"/>
     <use xlink:href="#DejaVuSans-73" transform="translate(755.078125 0)"/>
     <use xlink:href="#DejaVuSans-20" transform="translate(807.177734 0)"/>
     <use xlink:href="#DejaVuSans-65" transform="translate(838.964844 0)"/>
     <use xlink:href="#DejaVuSans-76" transform="translate(900.488281 0)"/>
     <use xlink:href="#DejaVuSans-6f" transform="translate(959.667969 0)"/>
     <use xlink:href="#DejaVuSans-6c" transform="translate(1020.849609 0)"/>
     <use xlink:href="#DejaVuSans-75" transform="translate(1048.632812 0)"/>
     <use xlink:href="#DejaVuSans-74" transform="translate(1112.011719 0)"/>
     <use xlink:href="#DejaVuSans-69" transform="translate(1151.220703 0)"/>
     <use xlink:href="#DejaVuSans-6f" transform="translate(1179.003906 0)"/>
     <use xlink:href="#DejaVuSans-6e" transform="translate(1240.185547 0)"/>
    </g>
   </g>
   <g id="legend_1">
    <g id="line2d_24">
     <path d="M 370.173933 37.790998 
L 378.503933 37.790998 
L 386.833933 37.790998 
" style="fill: none; stroke: #4c72b0; stroke-width: 1.75; stroke-linecap: round"/>
    </g>
    <g id="text_7">
     <!-- SAT-1 -->
     <g style="fill: #262626" transform="translate(393.497933 40.706498) scale(0.0833 -0.0833)">
      <defs>
       <path id="DejaVuSans-41" d="M 2188 4044 
L 1331 1722 
L 3047 1722 
L 2188 4044 
z
M 1831 4666 
L 2547 4666 
L 4325 0 
L 3669 0 
L 3244 1197 
L 1141 1197 
L 716 0 
L 50 0 
L 1831 4666 
z
" transform="scale(0.015625)"/>
       <path id="DejaVuSans-54" d="M -19 4666 
L 3928 4666 
L 3928 4134 
L 2272 4134 
L 2272 0 
L 1638 0 
L 1638 4134 
L -19 4134 
L -19 4666 
z
" transform="scale(0.015625)"/>
      </defs>
      <use xlink:href="#DejaVuSans-53"/>
      <use xlink:href="#DejaVuSans-41" transform="translate(65.351562 0)"/>
      <use xlink:href="#DejaVuSans-54" transform="translate(126.009766 0)"/>
      <use xlink:href="#DejaVuSans-2d" transform="translate(177.96875 0)"/>
      <use xlink:href="#DejaVuSans-31" transform="translate(214.052734 0)"/>
     </g>
    </g>
    <g id="line2d_25">
     <path d="M 370.173933 50.017877 
L 378.503933 50.017877 
L 386.833933 50.017877 
" style="fill: none; stroke: #55a868; stroke-width: 1.75; stroke-linecap: round"/>
    </g>
    <g id="text_8">
     <!-- SAT-2 -->
     <g style="fill: #262626" transform="translate(393.497933 52.933377) scale(0.0833 -0.0833)">
      <defs>
       <path id="DejaVuSans-32" d="M 1228 531 
L 3431 531 
L 3431 0 
L 469 0 
L 469 531 
Q 828 903 1448 1529 
Q 2069 2156 2228 2338 
Q 2531 2678 2651 2914 
Q 2772 3150 2772 3378 
Q 2772 3750 2511 3984 
Q 2250 4219 1831 4219 
Q 1534 4219 1204 4116 
Q 875 4013 500 3803 
L 500 4441 
Q 881 4594 1212 4672 
Q 1544 4750 1819 4750 
Q 2544 4750 2975 4387 
Q 3406 4025 3406 3419 
Q 3406 3131 3298 2873 
Q 3191 2616 2906 2266 
Q 2828 2175 2409 1742 
Q 1991 1309 1228 531 
z
" transform="scale(0.015625)"/>
      </defs>
      <use xlink:href="#DejaVuSans-53"/>
      <use xlink:href="#DejaVuSans-41" transform="translate(65.351562 0)"/>
      <use xlink:href="#DejaVuSans-54" transform="translate(126.009766 0)"/>
      <use xlink:href="#DejaVuSans-2d" transform="translate(177.96875 0)"/>
      <use xlink:href="#DejaVuSans-32" transform="translate(214.052734 0)"/>
     </g>
    </g>
    <g id="line2d_26">
     <path d="M 370.173933 62.244755 
L 378.503933 62.244755 
L 386.833933 62.244755 
" style="fill: none; stroke: #c44e52; stroke-width: 1.75; stroke-linecap: round"/>
    </g>
    <g id="text_9">
     <!-- SAT-3 -->
     <g style="fill: #262626" transform="translate(393.497933 65.160255) scale(0.0833 -0.0833)">
      <defs>
       <path id="DejaVuSans-33" d="M 2597 2516 
Q 3050 2419 3304 2112 
Q 3559 1806 3559 1356 
Q 3559 666 3084 287 
Q 2609 -91 1734 -91 
Q 1441 -91 1130 -33 
Q 819 25 488 141 
L 488 750 
Q 750 597 1062 519 
Q 1375 441 1716 441 
Q 2309 441 2620 675 
Q 2931 909 2931 1356 
Q 2931 1769 2642 2001 
Q 2353 2234 1838 2234 
L 1294 2234 
L 1294 2753 
L 1863 2753 
Q 2328 2753 2575 2939 
Q 2822 3125 2822 3475 
Q 2822 3834 2567 4026 
Q 2313 4219 1838 4219 
Q 1578 4219 1281 4162 
Q 984 4106 628 3988 
L 628 4550 
Q 988 4650 1302 4700 
Q 1616 4750 1894 4750 
Q 2613 4750 3031 4423 
Q 3450 4097 3450 3541 
Q 3450 3153 3228 2886 
Q 3006 2619 2597 2516 
z
" transform="scale(0.015625)"/>
      </defs>
      <use xlink:href="#DejaVuSans-53"/>
      <use xlink:href="#DejaVuSans-41" transform="translate(65.351562 0)"/>
      <use xlink:href="#DejaVuSans-54" transform="translate(126.009766 0)"/>
      <use xlink:href="#DejaVuSans-2d" transform="translate(177.96875 0)"/>
      <use xlink:href="#DejaVuSans-33" transform="translate(214.052734 0)"/>
     </g>
    </g>
   </g>
  </g>
  <g id="axes_2">
   <g id="patch_7">
    <path d="M 487.145 261.2 
L 853.2 261.2 
L 853.2 26.88 
L 487.145 26.88 
z
" style="fill: #eaeaf2"/>
   </g>
   <g id="matplotlib.axis_3">
    <g id="xtick_7">
     <g id="line2d_27">
      <path d="M 540.759115 261.2 
L 540.759115 26.88 
" clip-path="url(#pf5f0a7214a)" style="fill: none; stroke-dasharray: 0.5,0.825; stroke-dashoffset: 0; stroke: #ffffff; stroke-width: 0.5"/>
     </g>
     <g id="line2d_28"/>
    </g>
    <g id="xtick_8">
     <g id="line2d_29">
      <path d="M 596.221994 261.2 
L 596.221994 26.88 
" clip-path="url(#pf5f0a7214a)" style="fill: none; stroke-dasharray: 0.5,0.825; stroke-dashoffset: 0; stroke: #ffffff; stroke-width: 0.5"/>
     </g>
     <g id="line2d_30"/>
    </g>
    <g id="xtick_9">
     <g id="line2d_31">
      <path d="M 651.684874 261.2 
L 651.684874 26.88 
" clip-path="url(#pf5f0a7214a)" style="fill: none; stroke-dasharray: 0.5,0.825; stroke-dashoffset: 0; stroke: #ffffff; stroke-width: 0.5"/>
     </g>
     <g id="line2d_32"/>
    </g>
    <g id="xtick_10">
     <g id="line2d_33">
      <path d="M 707.147752 261.2 
L 707.147752 26.88 
" clip-path="url(#pf5f0a7214a)" style="fill: none; stroke-dasharray: 0.5,0.825; stroke-dashoffset: 0; stroke: #ffffff; stroke-width: 0.5"/>
     </g>
     <g id="line2d_34"/>
    </g>
    <g id="xtick_11">
     <g id="line2d_35">
      <path d="M 762.610631 261.2 
L 762.610631 26.88 
" clip-path="url(#pf5f0a7214a)" style="fill: none; stroke-dasharray: 0.5,0.825; stroke-dashoffset: 0; stroke: #ffffff; stroke-width: 0.5"/>
     </g>
     <g id="line2d_36"/>
    </g>
    <g id="xtick_12">
     <g id="line2d_37">
      <path d="M 818.07351 261.2 
L 818.07351 26.88 
" clip-path="url(#pf5f0a7214a)" style="fill: none; stroke-dasharray: 0.5,0.825; stroke-dashoffset: 0; stroke: #ffffff; stroke-width: 0.5"/>
     </g>
     <g id="line2d_38"/>
    </g>
   </g>
   <g id="matplotlib.axis_4">
    <g id="ytick_5">
     <g id="line2d_39">
      <path d="M 487.145 232.359375 
L 853.2 232.359375 
" clip-path="url(#pf5f0a7214a)" style="fill: none; stroke-dasharray: 0.5,0.825; stroke-dashoffset: 0; stroke: #ffffff; stroke-width: 0.5"/>
     </g>
     <g id="line2d_40"/>
     <g id="text_10">
      <!-- −0.75 -->
      <g style="fill: #262626" transform="translate(449.499687 236.158594) scale(0.1 -0.1)">
       <defs>
        <path id="DejaVuSans-2212" d="M 678 2272 
L 4684 2272 
L 4684 1741 
L 678 1741 
L 678 2272 
z
" transform="scale(0.015625)"/>
        <path id="DejaVuSans-2e" d="M 684 794 
L 1344 794 
L 1344 0 
L 684 0 
L 684 794 
z
" transform="scale(0.015625)"/>
        <path id="DejaVuSans-37" d="M 525 4666 
L 3525 4666 
L 3525 4397 
L 1831 0 
L 1172 0 
L 2766 4134 
L 525 4134 
L 525 4666 
z
" transform="scale(0.015625)"/>
       </defs>
       <use xlink:href="#DejaVuSans-2212"/>
       <use xlink:href="#DejaVuSans-30" transform="translate(83.789062 0)"/>
       <use xlink:href="#DejaVuSans-2e" transform="translate(147.412109 0)"/>
       <use xlink:href="#DejaVuSans-37" transform="translate(179.199219 0)"/>
       <use xlink:href="#DejaVuSans-35" transform="translate(242.822266 0)"/>
      </g>
     </g>
    </g>
    <g id="ytick_6">
     <g id="line2d_41">
      <path d="M 487.145 202.953125 
L 853.2 202.953125 
" clip-path="url(#pf5f0a7214a)" style="fill: none; stroke-dasharray: 0.5,0.825; stroke-dashoffset: 0; stroke: #ffffff; stroke-width: 0.5"/>
     </g>
     <g id="line2d_42"/>
     <g id="text_11">
      <!-- −0.50 -->
      <g style="fill: #262626" transform="translate(449.499687 206.752344) scale(0.1 -0.1)">
       <use xlink:href="#DejaVuSans-2212"/>
       <use xlink:href="#DejaVuSans-30" transform="translate(83.789062 0)"/>
       <use xlink:href="#DejaVuSans-2e" transform="translate(147.412109 0)"/>
       <use xlink:href="#DejaVuSans-35" transform="translate(179.199219 0)"/>
       <use xlink:href="#DejaVuSans-30" transform="translate(242.822266 0)"/>
      </g>
     </g>
    </g>
    <g id="ytick_7">
     <g id="line2d_43">
      <path d="M 487.145 173.53125 
L 853.2 173.53125 
" clip-path="url(#pf5f0a7214a)" style="fill: none; stroke-dasharray: 0.5,0.825; stroke-dashoffset: 0; stroke: #ffffff; stroke-width: 0.5"/>
     </g>
     <g id="line2d_44"/>
     <g id="text_12">
      <!-- −0.25 -->
      <g style="fill: #262626" transform="translate(449.499687 177.330469) scale(0.1 -0.1)">
       <use xlink:href="#DejaVuSans-2212"/>
       <use xlink:href="#DejaVuSans-30" transform="translate(83.789062 0)"/>
       <use xlink:href="#DejaVuSans-2e" transform="translate(147.412109 0)"/>
       <use xlink:href="#DejaVuSans-32" transform="translate(179.199219 0)"/>
       <use xlink:href="#DejaVuSans-35" transform="translate(242.822266 0)"/>
      </g>
     </g>
    </g>
    <g id="ytick_8">
     <g id="line2d_45">
      <path d="M 487.145 144.125 
L 853.2 144.125 
" clip-path="url(#pf5f0a7214a)" style="fill: none; stroke-dasharray: 0.5,0.825; stroke-dashoffset: 0; stroke: #ffffff; stroke-width: 0.5"/>
     </g>
     <g id="line2d_46"/>
     <g id="text_13">
      <!-- −0.00 -->
      <g style="fill: #262626" transform="translate(449.499687 147.924219) scale(0.1 -0.1)">
       <use xlink:href="#DejaVuSans-2212"/>
       <use xlink:href="#DejaVuSans-30" transform="translate(83.789062 0)"/>
       <use xlink:href="#DejaVuSans-2e" transform="translate(147.412109 0)"/>
       <use xlink:href="#DejaVuSans-30" transform="translate(179.199219 0)"/>
       <use xlink:href="#DejaVuSans-30" transform="translate(242.822266 0)"/>
      </g>
     </g>
    </g>
    <g id="ytick_9">
     <g id="line2d_47">
      <path d="M 487.145 114.734375 
L 853.2 114.734375 
" clip-path="url(#pf5f0a7214a)" style="fill: none; stroke-dasharray: 0.5,0.825; stroke-dashoffset: 0; stroke: #ffffff; stroke-width: 0.5"/>
     </g>
     <g id="line2d_48"/>
     <g id="text_14">
      <!-- 0.25 -->
      <g style="fill: #262626" transform="translate(457.879375 118.533594) scale(0.1 -0.1)">
       <use xlink:href="#DejaVuSans-30"/>
       <use xlink:href="#DejaVuSans-2e" transform="translate(63.623047 0)"/>
       <use xlink:href="#DejaVuSans-32" transform="translate(95.410156 0)"/>
       <use xlink:href="#DejaVuSans-35" transform="translate(159.033203 0)"/>
      </g>
     </g>
    </g>
    <g id="ytick_10">
     <g id="line2d_49">
      <path d="M 487.145 85.328125 
L 853.2 85.328125 
" clip-path="url(#pf5f0a7214a)" style="fill: none; stroke-dasharray: 0.5,0.825; stroke-dashoffset: 0; stroke: #ffffff; stroke-width: 0.5"/>
     </g>
     <g id="line2d_50"/>
     <g id="text_15">
      <!-- 0.50 -->
      <g style="fill: #262626" transform="translate(457.879375 89.127344) scale(0.1 -0.1)">
       <use xlink:href="#DejaVuSans-30"/>
       <use xlink:href="#DejaVuSans-2e" transform="translate(63.623047 0)"/>
       <use xlink:href="#DejaVuSans-35" transform="translate(95.410156 0)"/>
       <use xlink:href="#DejaVuSans-30" transform="translate(159.033203 0)"/>
      </g>
     </g>
    </g>
    <g id="ytick_11">
     <g id="line2d_51">
      <path d="M 487.145 55.90625 
L 853.2 55.90625 
" clip-path="url(#pf5f0a7214a)" style="fill: none; stroke-dasharray: 0.5,0.825; stroke-dashoffset: 0; stroke: #ffffff; stroke-width: 0.5"/>
     </g>
     <g id="line2d_52"/>
     <g id="text_16">
      <!-- 0.75 -->
      <g style="fill: #262626" transform="translate(457.879375 59.705469) scale(0.1 -0.1)">
       <use xlink:href="#DejaVuSans-30"/>
       <use xlink:href="#DejaVuSans-2e" transform="translate(63.623047 0)"/>
       <use xlink:href="#DejaVuSans-37" transform="translate(95.410156 0)"/>
       <use xlink:href="#DejaVuSans-35" transform="translate(159.033203 0)"/>
      </g>
     </g>
    </g>
    <g id="text_17">
     <!-- i [deg] -->
     <g style="fill: #262626" transform="translate(443.212031 161.975156) rotate(-90) scale(0.11 -0.11)">
      <defs>
       <path id="DejaVuSans-64" d="M 2906 2969 
L 2906 4863 
L 3481 4863 
L 3481 0 
L 2906 0 
L 2906 525 
Q 2725 213 2448 61 
Q 2172 -91 1784 -91 
Q 1150 -91 751 415 
Q 353 922 353 1747 
Q 353 2572 751 3078 
Q 1150 3584 1784 3584 
Q 2172 3584 2448 3432 
Q 2725 3281 2906 2969 
z
M 947 1747 
Q 947 1113 1208 752 
Q 1469 391 1925 391 
Q 2381 391 2643 752 
Q 2906 1113 2906 1747 
Q 2906 2381 2643 2742 
Q 2381 3103 1925 3103 
Q 1469 3103 1208 2742 
Q 947 2381 947 1747 
z
" transform="scale(0.015625)"/>
       <path id="DejaVuSans-67" d="M 2906 1791 
Q 2906 2416 2648 2759 
Q 2391 3103 1925 3103 
Q 1463 3103 1205 2759 
Q 947 2416 947 1791 
Q 947 1169 1205 825 
Q 1463 481 1925 481 
Q 2391 481 2648 825 
Q 2906 1169 2906 1791 
z
M 3481 434 
Q 3481 -459 3084 -895 
Q 2688 -1331 1869 -1331 
Q 1566 -1331 1297 -1286 
Q 1028 -1241 775 -1147 
L 775 -588 
Q 1028 -725 1275 -790 
Q 1522 -856 1778 -856 
Q 2344 -856 2625 -561 
Q 2906 -266 2906 331 
L 2906 616 
Q 2728 306 2450 153 
Q 2172 0 1784 0 
Q 1141 0 747 490 
Q 353 981 353 1791 
Q 353 2603 747 3093 
Q 1141 3584 1784 3584 
Q 2172 3584 2450 3431 
Q 2728 3278 2906 2969 
L 2906 3500 
L 3481 3500 
L 3481 434 
z
" transform="scale(0.015625)"/>
      </defs>
      <use xlink:href="#DejaVuSans-69"/>
      <use xlink:href="#DejaVuSans-20" transform="translate(27.783203 0)"/>
      <use xlink:href="#DejaVuSans-5b" transform="translate(59.570312 0)"/>
      <use xlink:href="#DejaVuSans-64" transform="translate(98.583984 0)"/>
      <use xlink:href="#DejaVuSans-65" transform="translate(162.060547 0)"/>
      <use xlink:href="#DejaVuSans-67" transform="translate(223.583984 0)"/>
      <use xlink:href="#DejaVuSans-5d" transform="translate(287.060547 0)"/>
     </g>
    </g>
    <g id="text_18">
     <!-- 1e−10+9.77e1 -->
     <g style="fill: #262626" transform="translate(487.145 23.88) scale(0.1 -0.1)">
      <defs>
       <path id="DejaVuSans-2b" d="M 2944 4013 
L 2944 2272 
L 4684 2272 
L 4684 1741 
L 2944 1741 
L 2944 0 
L 2419 0 
L 2419 1741 
L 678 1741 
L 678 2272 
L 2419 2272 
L 2419 4013 
L 2944 4013 
z
" transform="scale(0.015625)"/>
      </defs>
      <use xlink:href="#DejaVuSans-31"/>
      <use xlink:href="#DejaVuSans-65" transform="translate(63.623047 0)"/>
      <use xlink:href="#DejaVuSans-2212" transform="translate(125.146484 0)"/>
      <use xlink:href="#DejaVuSans-31" transform="translate(208.935547 0)"/>
      <use xlink:href="#DejaVuSans-30" transform="translate(272.558594 0)"/>
      <use xlink:href="#DejaVuSans-2b" transform="translate(336.181641 0)"/>
      <use xlink:href="#DejaVuSans-39" transform="translate(419.970703 0)"/>
      <use xlink:href="#DejaVuSans-2e" transform="translate(483.59375 0)"/>
      <use xlink:href="#DejaVuSans-37" transform="translate(515.380859 0)"/>
      <use xlink:href="#DejaVuSans-37" transform="translate(579.003906 0)"/>
      <use xlink:href="#DejaVuSans-65" transform="translate(642.626953 0)"/>
      <use xlink:href="#DejaVuSans-31" transform="translate(704.150391 0)"/>
     </g>
    </g>
   </g>
   <g id="line2d_53">
    <path d="M 503.783863 143.078125 
L 505.632626 143.75 
L 507.481389 144.046875 
L 509.330151 143 
L 511.178913 144.578125 
L 513.027677 145.03125 
L 514.876439 143.46875 
L 516.725201 144.453125 
L 518.573964 143.40625 
L 520.422727 143.3125 
L 522.271489 144.875 
L 524.120252 145.25 
L 527.817777 143 
L 529.66654 143.71875 
L 531.515302 144.796875 
L 533.364065 143.8125 
L 535.212828 143.515625 
L 537.06159 144.609375 
L 538.910353 144.921875 
L 540.759115 143.828125 
L 542.607878 144.0625 
L 544.456641 145.15625 
L 546.305403 143.703125 
L 548.154166 143.984375 
L 550.002929 144.046875 
L 551.851691 142.84375 
L 553.700454 143.640625 
L 555.549216 143.875 
L 557.397979 143.984375 
L 559.246742 145.765625 
L 561.095504 145.4375 
L 564.79303 143.078125 
L 566.641792 143.359375 
L 568.490555 144.578125 
L 570.339318 144.265625 
L 572.18808 144.296875 
L 574.036843 144.515625 
L 575.885605 143.46875 
L 577.734368 142.96875 
L 579.583131 144.5 
L 581.431893 145.15625 
L 583.280656 143.46875 
L 585.129419 144.03125 
L 586.978181 145.265625 
L 588.826944 144.03125 
L 590.675706 143.296875 
L 592.524469 144.34375 
L 594.373232 144.296875 
L 596.221994 143.40625 
L 598.070757 144.734375 
L 599.91952 143.78125 
L 601.768282 143.984375 
L 605.465807 144.046875 
L 607.31457 144.40625 
L 609.163333 144.265625 
L 611.012095 144.578125 
L 612.860858 143.53125 
L 618.407146 144.609375 
L 620.255908 144.171875 
L 622.104671 143.59375 
L 623.953434 144.5 
L 625.802197 143.9375 
L 627.650959 143.640625 
L 629.499722 144.75 
L 631.348485 144.546875 
L 633.197247 143.703125 
L 635.04601 143.46875 
L 636.894773 144.96875 
L 638.743535 143.46875 
L 640.592298 143.03125 
L 642.44106 143.859375 
L 644.289823 143.640625 
L 646.138586 145.328125 
L 647.987348 144.640625 
L 649.836111 144.46875 
L 653.533636 143.984375 
L 655.382398 144.296875 
L 657.231162 143.78125 
L 659.079924 144.703125 
L 660.928686 145.296875 
L 662.777449 143.3125 
L 664.626212 142.796875 
L 666.474974 144.265625 
L 668.323737 144.6875 
L 670.172499 144.453125 
L 672.021262 143.515625 
L 673.870025 143.75 
L 675.718787 143.859375 
L 677.56755 144.75 
L 679.416313 144.875 
L 681.265075 143.203125 
L 683.113838 143.40625 
L 684.9626 144.265625 
L 686.811363 144.875 
L 688.660126 143.703125 
L 690.508888 143.875 
L 692.357651 144.796875 
L 694.206414 144.578125 
L 696.055176 144.5 
L 697.903939 143.578125 
L 699.752701 143.578125 
L 701.601464 143.0625 
L 703.450227 144.21875 
L 705.298989 144.640625 
L 707.147752 144.546875 
L 708.996515 144.984375 
L 710.845277 143.359375 
L 712.69404 143.359375 
L 714.542802 144.96875 
L 716.391565 144.78125 
L 718.240328 143.359375 
L 720.08909 143.484375 
L 721.937853 144.21875 
L 723.786616 144.75 
L 727.484141 143.828125 
L 729.332904 144.5625 
L 731.181666 143.171875 
L 733.030429 144.296875 
L 734.879191 145.046875 
L 736.727954 143.75 
L 738.576717 143.578125 
L 740.425479 143.875 
L 742.274242 145.328125 
L 744.123005 144.265625 
L 745.971767 143.765625 
L 747.82053 143.859375 
L 749.669292 143.640625 
L 751.518055 143.984375 
L 755.21558 143.8125 
L 757.064343 145.03125 
L 758.913106 144.28125 
L 760.761868 143.171875 
L 762.610631 145.375 
L 764.459394 144.171875 
L 766.308156 142.765625 
L 768.156919 144.640625 
L 770.005682 144.734375 
L 771.854444 144.21875 
L 773.703207 143.515625 
L 775.55197 144.03125 
L 777.400732 144.328125 
L 779.249495 143.859375 
L 781.098258 144.640625 
L 782.94702 143.71875 
L 784.795783 144.03125 
L 786.644545 145.328125 
L 790.342071 143.078125 
L 792.190833 143.203125 
L 794.039596 143.859375 
L 795.888359 145.03125 
L 797.737121 144 
L 799.585883 143.46875 
L 801.434647 144.5 
L 803.283409 143.546875 
L 805.132171 143.9375 
L 806.980934 145.5625 
L 808.829697 144.5 
L 810.678459 142.65625 
L 812.527222 143.75 
L 814.375984 145.046875 
L 816.224747 144.578125 
L 818.07351 143.984375 
L 821.771035 144.34375 
L 823.619798 144 
L 825.46856 143.984375 
L 827.317323 143.515625 
L 829.166085 144.0625 
L 831.014848 143.859375 
L 832.863611 144.21875 
L 834.712373 144.8125 
L 836.561136 143.984375 
L 836.561136 143.984375 
" clip-path="url(#pf5f0a7214a)" style="fill: none; stroke: #4c72b0; stroke-width: 1.75; stroke-linecap: round"/>
   </g>
   <g id="line2d_54">
    <path d="M 503.783863 144.578125 
L 509.330151 143.546875 
L 511.178913 144.265625 
L 513.027677 145.15625 
L 514.876439 144.28125 
L 516.725201 144.171875 
L 518.573964 143 
L 520.422727 142.65625 
L 522.271489 145.390625 
L 524.120252 144.875 
L 525.969014 143.484375 
L 527.817777 144.21875 
L 531.515302 144.40625 
L 533.364065 143.75 
L 535.212828 143.546875 
L 537.06159 144.296875 
L 538.910353 144.46875 
L 540.759115 143.9375 
L 542.607878 144.453125 
L 544.456641 144.734375 
L 546.305403 143.53125 
L 548.154166 143.9375 
L 550.002929 144.109375 
L 551.851691 143.171875 
L 553.700454 144.21875 
L 555.549216 144.984375 
L 557.397979 143.78125 
L 559.246742 144.8125 
L 561.095504 144.234375 
L 562.944267 143.078125 
L 564.79303 144.5 
L 566.641792 145.109375 
L 568.490555 144.265625 
L 570.339318 142.796875 
L 572.18808 143.640625 
L 574.036843 144.265625 
L 575.885605 143.46875 
L 577.734368 144.296875 
L 579.583131 145.328125 
L 581.431893 144.40625 
L 583.280656 143.03125 
L 585.129419 144.546875 
L 586.978181 145.109375 
L 588.826944 143.359375 
L 590.675706 143.546875 
L 592.524469 144.390625 
L 594.373232 144.046875 
L 596.221994 143.953125 
L 598.070757 144.6875 
L 599.91952 143.71875 
L 601.768282 144.171875 
L 603.617045 144.03125 
L 605.465807 144.21875 
L 607.31457 144.84375 
L 609.163333 144.0625 
L 611.012095 143.9375 
L 612.860858 144.21875 
L 614.709621 144.921875 
L 616.558383 143.640625 
L 618.407146 143.9375 
L 620.255908 143.75 
L 622.104671 143.984375 
L 623.953434 144.640625 
L 625.802197 143.578125 
L 627.650959 144.046875 
L 629.499722 144.171875 
L 631.348485 143.703125 
L 633.197247 144.796875 
L 635.04601 144.296875 
L 636.894773 144.296875 
L 638.743535 143.484375 
L 640.592298 143.25 
L 642.44106 144 
L 644.289823 143.9375 
L 646.138586 145.25 
L 651.684874 143.3125 
L 653.533636 144.28125 
L 655.382398 144.296875 
L 657.231162 143.40625 
L 659.079924 144.578125 
L 660.928686 145.109375 
L 662.777449 143.78125 
L 664.626212 143.359375 
L 666.474974 145.21875 
L 668.323737 144.5 
L 670.172499 143.359375 
L 672.021262 144 
L 673.870025 144.34375 
L 675.718787 143.3125 
L 677.56755 143.40625 
L 679.416313 144.546875 
L 681.265075 143.9375 
L 684.9626 144.640625 
L 686.811363 144 
L 688.660126 143.703125 
L 690.508888 144.296875 
L 692.357651 145.140625 
L 696.055176 144.21875 
L 697.903939 143.015625 
L 699.752701 143.859375 
L 701.601464 143.640625 
L 703.450227 143.171875 
L 705.298989 144.9375 
L 707.147752 144.171875 
L 708.996515 144.9375 
L 710.845277 144.703125 
L 712.69404 143.578125 
L 716.391565 144.453125 
L 718.240328 144.578125 
L 720.08909 143.546875 
L 721.937853 143.828125 
L 723.786616 144.40625 
L 725.635378 144.109375 
L 727.484141 144.296875 
L 729.332904 143.296875 
L 731.181666 142.96875 
L 733.030429 144.8125 
L 734.879191 144.78125 
L 736.727954 144.0625 
L 738.576717 143.765625 
L 740.425479 144.234375 
L 742.274242 144.5625 
L 744.123005 144.234375 
L 745.971767 144.171875 
L 747.82053 143.828125 
L 749.669292 144.34375 
L 751.518055 143.3125 
L 753.366818 143.078125 
L 755.21558 143.984375 
L 757.064343 145.046875 
L 758.913106 145.140625 
L 760.761868 144.03125 
L 762.610631 144.5 
L 766.308156 143.28125 
L 768.156919 144.5 
L 770.005682 144.5 
L 771.854444 143.8125 
L 773.703207 143.515625 
L 775.55197 143.75 
L 777.400732 144.171875 
L 781.098258 144.46875 
L 782.94702 144.171875 
L 784.795783 143.59375 
L 786.644545 144.640625 
L 788.493308 144.453125 
L 790.342071 143.25 
L 792.190833 143.515625 
L 794.039596 144.5625 
L 795.888359 145.953125 
L 797.737121 143.40625 
L 799.585883 142.484375 
L 801.434647 145.03125 
L 803.283409 144.734375 
L 805.132171 143.953125 
L 806.980934 144.296875 
L 808.829697 143.75 
L 812.527222 144.0625 
L 814.375984 144.6875 
L 816.224747 144.46875 
L 819.922272 143.640625 
L 821.771035 143.359375 
L 823.619798 143.875 
L 825.46856 144.796875 
L 827.317323 144.734375 
L 829.166085 143.9375 
L 831.014848 143.875 
L 832.863611 144.5 
L 834.712373 143.71875 
L 836.561136 142.015625 
L 836.561136 142.015625 
" clip-path="url(#pf5f0a7214a)" style="fill: none; stroke: #55a868; stroke-width: 1.75; stroke-linecap: round"/>
   </g>
   <g id="line2d_55">
    <path d="M 503.783863 145.25 
L 505.632626 144.46875 
L 507.481389 143.40625 
L 509.330151 143.546875 
L 513.027677 145.4375 
L 514.876439 144.796875 
L 518.573964 142.203125 
L 520.422727 143.703125 
L 522.271489 146.078125 
L 524.120252 144.609375 
L 525.969014 143.515625 
L 527.817777 143.578125 
L 529.66654 143.9375 
L 531.515302 144.796875 
L 533.364065 143.875 
L 535.212828 142.796875 
L 538.910353 144.734375 
L 540.759115 144.296875 
L 546.305403 144.734375 
L 548.154166 143.484375 
L 550.002929 143.828125 
L 551.851691 144.40625 
L 553.700454 144.0625 
L 555.549216 144.03125 
L 557.397979 143.875 
L 559.246742 145.328125 
L 562.944267 143.171875 
L 564.79303 143.828125 
L 566.641792 144.328125 
L 568.490555 144.328125 
L 570.339318 143.9375 
L 572.18808 143.8125 
L 574.036843 144.09375 
L 575.885605 144.0625 
L 577.734368 143.859375 
L 579.583131 144.703125 
L 581.431893 144.46875 
L 583.280656 142.796875 
L 585.129419 144.46875 
L 586.978181 145.65625 
L 588.826944 144.21875 
L 590.675706 143.3125 
L 592.524469 143.515625 
L 594.373232 144.46875 
L 596.221994 143.8125 
L 598.070757 144 
L 599.91952 144 
L 601.768282 143.71875 
L 603.617045 144.03125 
L 605.465807 144.03125 
L 607.31457 145.015625 
L 609.163333 144.8125 
L 611.012095 144.46875 
L 614.709621 143.59375 
L 616.558383 143.3125 
L 618.407146 144.234375 
L 620.255908 144.78125 
L 622.104671 143.484375 
L 623.953434 144.03125 
L 625.802197 143.703125 
L 627.650959 144.46875 
L 629.499722 144.984375 
L 631.348485 143.03125 
L 633.197247 143.9375 
L 636.894773 144.796875 
L 638.743535 143.515625 
L 640.592298 143.0625 
L 642.44106 144.40625 
L 644.289823 144.5 
L 646.138586 144.296875 
L 647.987348 144.703125 
L 649.836111 144.28125 
L 651.684874 143.34375 
L 653.533636 144.03125 
L 655.382398 143.78125 
L 657.231162 144.578125 
L 660.928686 145.15625 
L 662.777449 143.984375 
L 664.626212 143.59375 
L 666.474974 144.21875 
L 668.323737 143.8125 
L 670.172499 144.46875 
L 672.021262 143.859375 
L 673.870025 143.078125 
L 675.718787 143.8125 
L 677.56755 144.78125 
L 681.265075 144.171875 
L 683.113838 143.640625 
L 684.9626 143.578125 
L 686.811363 144.578125 
L 688.660126 144.109375 
L 690.508888 143.9375 
L 694.206414 144.515625 
L 696.055176 144.84375 
L 697.903939 143.40625 
L 699.752701 144.09375 
L 701.601464 143.59375 
L 703.450227 143.546875 
L 705.298989 144.171875 
L 707.147752 144.46875 
L 708.996515 145.25 
L 710.845277 144.03125 
L 712.69404 143.515625 
L 714.542802 143.40625 
L 716.391565 144.6875 
L 718.240328 144.78125 
L 720.08909 143.59375 
L 721.937853 144.921875 
L 723.786616 144.640625 
L 725.635378 143.765625 
L 727.484141 144.640625 
L 729.332904 143.171875 
L 731.181666 142.28125 
L 733.030429 144.9375 
L 734.879191 145.03125 
L 736.727954 143.078125 
L 738.576717 143.171875 
L 740.425479 144.5 
L 742.274242 146.09375 
L 745.971767 143.171875 
L 747.82053 143.34375 
L 749.669292 144 
L 751.518055 144.453125 
L 753.366818 143.875 
L 755.21558 143.484375 
L 757.064343 144.78125 
L 758.913106 145.203125 
L 760.761868 143.859375 
L 762.610631 144.84375 
L 764.459394 143.296875 
L 766.308156 142.890625 
L 768.156919 144.8125 
L 770.005682 144.734375 
L 771.854444 144.171875 
L 773.703207 143.828125 
L 775.55197 144.234375 
L 777.400732 144.453125 
L 779.249495 143.875 
L 781.098258 143.703125 
L 782.94702 144.390625 
L 784.795783 143.640625 
L 786.644545 144.609375 
L 788.493308 144.265625 
L 790.342071 142.828125 
L 792.190833 144.734375 
L 794.039596 144.640625 
L 795.888359 144.78125 
L 797.737121 143.953125 
L 799.585883 142.84375 
L 801.434647 143.765625 
L 803.283409 144.546875 
L 805.132171 145.015625 
L 806.980934 144.6875 
L 808.829697 143.546875 
L 810.678459 142.59375 
L 812.527222 144.03125 
L 814.375984 145.046875 
L 816.224747 144.03125 
L 818.07351 143.59375 
L 819.922272 144.96875 
L 823.619798 143.828125 
L 825.46856 143.640625 
L 827.317323 144.21875 
L 829.166085 144.578125 
L 831.014848 143.03125 
L 832.863611 144.171875 
L 834.712373 144.875 
L 836.561136 144.40625 
L 836.561136 144.40625 
" clip-path="url(#pf5f0a7214a)" style="fill: none; stroke: #c44e52; stroke-width: 1.75; stroke-linecap: round"/>
   </g>
   <g id="patch_8">
    <path d="M 487.145 261.203125 
L 487.145 26.890625 
" style="fill: none"/>
   </g>
   <g id="patch_9">
    <path d="M 853.2 261.203125 
L 853.2 26.890625 
" style="fill: none"/>
   </g>
   <g id="patch_10">
    <path d="M 487.145 261.2 
L 853.199999 261.2 
" style="fill: none"/>
   </g>
   <g id="patch_11">
    <path d="M 487.145 26.88 
L 853.199999 26.88 
" style="fill: none"/>
   </g>
   <g id="text_19">
    <!-- Inclination evolution -->
    <g style="fill: #262626" transform="translate(609.211562 20.88) scale(0.12 -0.12)">
     <defs>
      <path id="DejaVuSans-49" d="M 628 4666 
L 1259 4666 
L 1259 0 
L 628 0 
L 628 4666 
z
" transform="scale(0.015625)"/>
      <path id="DejaVuSans-63" d="M 3122 3366 
L 3122 2828 
Q 2878 2963 2633 3030 
Q 2388 3097 2138 3097 
Q 1578 3097 1268 2742 
Q 959 2388 959 1747 
Q 959 1106 1268 751 
Q 1578 397 2138 397 
Q 2388 397 2633 464 
Q 2878 531 3122 666 
L 3122 134 
Q 2881 22 2623 -34 
Q 2366 -91 2075 -91 
Q 1284 -91 818 406 
Q 353 903 353 1747 
Q 353 2603 823 3093 
Q 1294 3584 2113 3584 
Q 2378 3584 2631 3529 
Q 2884 3475 3122 3366 
z
" transform="scale(0.015625)"/>
     </defs>
     <use xlink:href="#DejaVuSans-49"/>
     <use xlink:href="#DejaVuSans-6e" transform="translate(29.492188 0)"/>
     <use xlink:href="#DejaVuSans-63" transform="translate(92.871094 0)"/>
     <use xlink:href="#DejaVuSans-6c" transform="translate(147.851562 0)"/>
     <use xlink:href="#DejaVuSans-69" transform="translate(175.634766 0)"/>
     <use xlink:href="#DejaVuSans-6e" transform="translate(203.417969 0)"/>
     <use xlink:href="#DejaVuSans-61" transform="translate(266.796875 0)"/>
     <use xlink:href="#DejaVuSans-74" transform="translate(328.076172 0)"/>
     <use xlink:href="#DejaVuSans-69" transform="translate(367.285156 0)"/>
     <use xlink:href="#DejaVuSans-6f" transform="translate(395.068359 0)"/>
     <use xlink:href="#DejaVuSans-6e" transform="translate(456.25 0)"/>
     <use xlink:href="#DejaVuSans-20" transform="translate(519.628906 0)"/>
     <use xlink:href="#DejaVuSans-65" transform="translate(551.416016 0)"/>
     <use xlink:href="#DejaVuSans-76" transform="translate(612.939453 0)"/>
     <use xlink:href="#DejaVuSans-6f" transform="translate(672.119141 0)"/>
     <use xlink:href="#DejaVuSans-6c" transform="translate(733.300781 0)"/>
     <use xlink:href="#DejaVuSans-75" transform="translate(761.083984 0)"/>
     <use xlink:href="#DejaVuSans-74" transform="translate(824.462891 0)"/>
     <use xlink:href="#DejaVuSans-69" transform="translate(863.671875 0)"/>
     <use xlink:href="#DejaVuSans-6f" transform="translate(891.455078 0)"/>
     <use xlink:href="#DejaVuSans-6e" transform="translate(952.636719 0)"/>
    </g>
   </g>
  </g>
  <g id="axes_3">
   <g id="patch_12">
    <path d="M 58.07 533.32 
L 424.125 533.32 
L 424.125 299 
L 58.07 299 
z
" style="fill: #eaeaf2"/>
   </g>
   <g id="matplotlib.axis_5">
    <g id="xtick_13">
     <g id="line2d_56">
      <path d="M 111.684115 533.32 
L 111.684115 299 
" clip-path="url(#p46548e8bbd)" style="fill: none; stroke-dasharray: 0.5,0.825; stroke-dashoffset: 0; stroke: #ffffff; stroke-width: 0.5"/>
     </g>
     <g id="line2d_57"/>
     <g id="text_20">
      <!-- 07:39:00 -->
      <g style="fill: #262626" transform="translate(89.227865 547.918437) scale(0.1 -0.1)">
       <defs>
        <path id="DejaVuSans-3a" d="M 750 794 
L 1409 794 
L 1409 0 
L 750 0 
L 750 794 
z
M 750 3309 
L 1409 3309 
L 1409 2516 
L 750 2516 
L 750 3309 
z
" transform="scale(0.015625)"/>
       </defs>
       <use xlink:href="#DejaVuSans-30"/>
       <use xlink:href="#DejaVuSans-37" transform="translate(63.623047 0)"/>
       <use xlink:href="#DejaVuSans-3a" transform="translate(127.246094 0)"/>
       <use xlink:href="#DejaVuSans-33" transform="translate(160.9375 0)"/>
       <use xlink:href="#DejaVuSans-39" transform="translate(224.560547 0)"/>
       <use xlink:href="#DejaVuSans-3a" transform="translate(288.183594 0)"/>
       <use xlink:href="#DejaVuSans-30" transform="translate(321.875 0)"/>
       <use xlink:href="#DejaVuSans-30" transform="translate(385.498047 0)"/>
      </g>
     </g>
    </g>
    <g id="xtick_14">
     <g id="line2d_58">
      <path d="M 167.146995 533.32 
L 167.146995 299 
" clip-path="url(#p46548e8bbd)" style="fill: none; stroke-dasharray: 0.5,0.825; stroke-dashoffset: 0; stroke: #ffffff; stroke-width: 0.5"/>
     </g>
     <g id="line2d_59"/>
     <g id="text_21">
      <!-- 07:39:30 -->
      <g style="fill: #262626" transform="translate(144.690745 547.918437) scale(0.1 -0.1)">
       <use xlink:href="#DejaVuSans-30"/>
       <use xlink:href="#DejaVuSans-37" transform="translate(63.623047 0)"/>
       <use xlink:href="#DejaVuSans-3a" transform="translate(127.246094 0)"/>
       <use xlink:href="#DejaVuSans-33" transform="translate(160.9375 0)"/>
       <use xlink:href="#DejaVuSans-39" transform="translate(224.560547 0)"/>
       <use xlink:href="#DejaVuSans-3a" transform="translate(288.183594 0)"/>
       <use xlink:href="#DejaVuSans-33" transform="translate(321.875 0)"/>
       <use xlink:href="#DejaVuSans-30" transform="translate(385.498047 0)"/>
      </g>
     </g>
    </g>
    <g id="xtick_15">
     <g id="line2d_60">
      <path d="M 222.609874 533.32 
L 222.609874 299 
" clip-path="url(#p46548e8bbd)" style="fill: none; stroke-dasharray: 0.5,0.825; stroke-dashoffset: 0; stroke: #ffffff; stroke-width: 0.5"/>
     </g>
     <g id="line2d_61"/>
     <g id="text_22">
      <!-- 07:40:00 -->
      <g style="fill: #262626" transform="translate(200.153624 547.918437) scale(0.1 -0.1)">
       <defs>
        <path id="DejaVuSans-34" d="M 2419 4116 
L 825 1625 
L 2419 1625 
L 2419 4116 
z
M 2253 4666 
L 3047 4666 
L 3047 1625 
L 3713 1625 
L 3713 1100 
L 3047 1100 
L 3047 0 
L 2419 0 
L 2419 1100 
L 313 1100 
L 313 1709 
L 2253 4666 
z
" transform="scale(0.015625)"/>
       </defs>
       <use xlink:href="#DejaVuSans-30"/>
       <use xlink:href="#DejaVuSans-37" transform="translate(63.623047 0)"/>
       <use xlink:href="#DejaVuSans-3a" transform="translate(127.246094 0)"/>
       <use xlink:href="#DejaVuSans-34" transform="translate(160.9375 0)"/>
       <use xlink:href="#DejaVuSans-30" transform="translate(224.560547 0)"/>
       <use xlink:href="#DejaVuSans-3a" transform="translate(288.183594 0)"/>
       <use xlink:href="#DejaVuSans-30" transform="translate(321.875 0)"/>
       <use xlink:href="#DejaVuSans-30" transform="translate(385.498047 0)"/>
      </g>
     </g>
    </g>
    <g id="xtick_16">
     <g id="line2d_62">
      <path d="M 278.072752 533.32 
L 278.072752 299 
" clip-path="url(#p46548e8bbd)" style="fill: none; stroke-dasharray: 0.5,0.825; stroke-dashoffset: 0; stroke: #ffffff; stroke-width: 0.5"/>
     </g>
     <g id="line2d_63"/>
     <g id="text_23">
      <!-- 07:40:30 -->
      <g style="fill: #262626" transform="translate(255.616502 547.918437) scale(0.1 -0.1)">
       <use xlink:href="#DejaVuSans-30"/>
       <use xlink:href="#DejaVuSans-37" transform="translate(63.623047 0)"/>
       <use xlink:href="#DejaVuSans-3a" transform="translate(127.246094 0)"/>
       <use xlink:href="#DejaVuSans-34" transform="translate(160.9375 0)"/>
       <use xlink:href="#DejaVuSans-30" transform="translate(224.560547 0)"/>
       <use xlink:href="#DejaVuSans-3a" transform="translate(288.183594 0)"/>
       <use xlink:href="#DejaVuSans-33" transform="translate(321.875 0)"/>
       <use xlink:href="#DejaVuSans-30" transform="translate(385.498047 0)"/>
      </g>
     </g>
    </g>
    <g id="xtick_17">
     <g id="line2d_64">
      <path d="M 333.535631 533.32 
L 333.535631 299 
" clip-path="url(#p46548e8bbd)" style="fill: none; stroke-dasharray: 0.5,0.825; stroke-dashoffset: 0; stroke: #ffffff; stroke-width: 0.5"/>
     </g>
     <g id="line2d_65"/>
     <g id="text_24">
      <!-- 07:41:00 -->
      <g style="fill: #262626" transform="translate(311.079381 547.918437) scale(0.1 -0.1)">
       <use xlink:href="#DejaVuSans-30"/>
       <use xlink:href="#DejaVuSans-37" transform="translate(63.623047 0)"/>
       <use xlink:href="#DejaVuSans-3a" transform="translate(127.246094 0)"/>
       <use xlink:href="#DejaVuSans-34" transform="translate(160.9375 0)"/>
       <use xlink:href="#DejaVuSans-31" transform="translate(224.560547 0)"/>
       <use xlink:href="#DejaVuSans-3a" transform="translate(288.183594 0)"/>
       <use xlink:href="#DejaVuSans-30" transform="translate(321.875 0)"/>
       <use xlink:href="#DejaVuSans-30" transform="translate(385.498047 0)"/>
      </g>
     </g>
    </g>
    <g id="xtick_18">
     <g id="line2d_66">
      <path d="M 388.99851 533.32 
L 388.99851 299 
" clip-path="url(#p46548e8bbd)" style="fill: none; stroke-dasharray: 0.5,0.825; stroke-dashoffset: 0; stroke: #ffffff; stroke-width: 0.5"/>
     </g>
     <g id="line2d_67"/>
     <g id="text_25">
      <!-- 07:41:30 -->
      <g style="fill: #262626" transform="translate(366.54226 547.918437) scale(0.1 -0.1)">
       <use xlink:href="#DejaVuSans-30"/>
       <use xlink:href="#DejaVuSans-37" transform="translate(63.623047 0)"/>
       <use xlink:href="#DejaVuSans-3a" transform="translate(127.246094 0)"/>
       <use xlink:href="#DejaVuSans-34" transform="translate(160.9375 0)"/>
       <use xlink:href="#DejaVuSans-31" transform="translate(224.560547 0)"/>
       <use xlink:href="#DejaVuSans-3a" transform="translate(288.183594 0)"/>
       <use xlink:href="#DejaVuSans-33" transform="translate(321.875 0)"/>
       <use xlink:href="#DejaVuSans-30" transform="translate(385.498047 0)"/>
      </g>
     </g>
    </g>
   </g>
   <g id="matplotlib.axis_6">
    <g id="ytick_12">
     <g id="line2d_68">
      <path d="M 58.07 511.140625 
L 424.125 511.140625 
" clip-path="url(#p46548e8bbd)" style="fill: none; stroke-dasharray: 0.5,0.825; stroke-dashoffset: 0; stroke: #ffffff; stroke-width: 0.5"/>
     </g>
     <g id="line2d_69"/>
     <g id="text_26">
      <!-- 40 -->
      <g style="fill: #262626" transform="translate(38.345 514.939844) scale(0.1 -0.1)">
       <use xlink:href="#DejaVuSans-34"/>
       <use xlink:href="#DejaVuSans-30" transform="translate(63.623047 0)"/>
      </g>
     </g>
    </g>
    <g id="ytick_13">
     <g id="line2d_70">
      <path d="M 58.07 477.90625 
L 424.125 477.90625 
" clip-path="url(#p46548e8bbd)" style="fill: none; stroke-dasharray: 0.5,0.825; stroke-dashoffset: 0; stroke: #ffffff; stroke-width: 0.5"/>
     </g>
     <g id="line2d_71"/>
     <g id="text_27">
      <!-- 41 -->
      <g style="fill: #262626" transform="translate(38.345 481.705469) scale(0.1 -0.1)">
       <use xlink:href="#DejaVuSans-34"/>
       <use xlink:href="#DejaVuSans-31" transform="translate(63.623047 0)"/>
      </g>
     </g>
    </g>
    <g id="ytick_14">
     <g id="line2d_72">
      <path d="M 58.07 444.703125 
L 424.125 444.703125 
" clip-path="url(#p46548e8bbd)" style="fill: none; stroke-dasharray: 0.5,0.825; stroke-dashoffset: 0; stroke: #ffffff; stroke-width: 0.5"/>
     </g>
     <g id="line2d_73"/>
     <g id="text_28">
      <!-- 42 -->
      <g style="fill: #262626" transform="translate(38.345 448.502344) scale(0.1 -0.1)">
       <use xlink:href="#DejaVuSans-34"/>
       <use xlink:href="#DejaVuSans-32" transform="translate(63.623047 0)"/>
      </g>
     </g>
    </g>
    <g id="ytick_15">
     <g id="line2d_74">
      <path d="M 58.07 411.46875 
L 424.125 411.46875 
" clip-path="url(#p46548e8bbd)" style="fill: none; stroke-dasharray: 0.5,0.825; stroke-dashoffset: 0; stroke: #ffffff; stroke-width: 0.5"/>
     </g>
     <g id="line2d_75"/>
     <g id="text_29">
      <!-- 43 -->
      <g style="fill: #262626" transform="translate(38.345 415.267969) scale(0.1 -0.1)">
       <use xlink:href="#DejaVuSans-34"/>
       <use xlink:href="#DejaVuSans-33" transform="translate(63.623047 0)"/>
      </g>
     </g>
    </g>
    <g id="ytick_16">
     <g id="line2d_76">
      <path d="M 58.07 378.25 
L 424.125 378.25 
" clip-path="url(#p46548e8bbd)" style="fill: none; stroke-dasharray: 0.5,0.825; stroke-dashoffset: 0; stroke: #ffffff; stroke-width: 0.5"/>
     </g>
     <g id="line2d_77"/>
     <g id="text_30">
      <!-- 44 -->
      <g style="fill: #262626" transform="translate(38.345 382.049219) scale(0.1 -0.1)">
       <use xlink:href="#DejaVuSans-34"/>
       <use xlink:href="#DejaVuSans-34" transform="translate(63.623047 0)"/>
      </g>
     </g>
    </g>
    <g id="ytick_17">
     <g id="line2d_78">
      <path d="M 58.07 345.03125 
L 424.125 345.03125 
" clip-path="url(#p46548e8bbd)" style="fill: none; stroke-dasharray: 0.5,0.825; stroke-dashoffset: 0; stroke: #ffffff; stroke-width: 0.5"/>
     </g>
     <g id="line2d_79"/>
     <g id="text_31">
      <!-- 45 -->
      <g style="fill: #262626" transform="translate(38.345 348.830469) scale(0.1 -0.1)">
       <use xlink:href="#DejaVuSans-34"/>
       <use xlink:href="#DejaVuSans-35" transform="translate(63.623047 0)"/>
      </g>
     </g>
    </g>
    <g id="ytick_18">
     <g id="line2d_80">
      <path d="M 58.07 311.78125 
L 424.125 311.78125 
" clip-path="url(#p46548e8bbd)" style="fill: none; stroke-dasharray: 0.5,0.825; stroke-dashoffset: 0; stroke: #ffffff; stroke-width: 0.5"/>
     </g>
     <g id="line2d_81"/>
     <g id="text_32">
      <!-- 46 -->
      <g style="fill: #262626" transform="translate(38.345 315.580469) scale(0.1 -0.1)">
       <use xlink:href="#DejaVuSans-34"/>
       <use xlink:href="#DejaVuSans-36" transform="translate(63.623047 0)"/>
      </g>
     </g>
    </g>
    <g id="text_33">
     <!-- RAAN [deg] -->
     <g style="fill: #262626" transform="translate(32.057344 447.959453) rotate(-90) scale(0.11 -0.11)">
      <defs>
       <path id="DejaVuSans-52" d="M 2841 2188 
Q 3044 2119 3236 1894 
Q 3428 1669 3622 1275 
L 4263 0 
L 3584 0 
L 2988 1197 
Q 2756 1666 2539 1819 
Q 2322 1972 1947 1972 
L 1259 1972 
L 1259 0 
L 628 0 
L 628 4666 
L 2053 4666 
Q 2853 4666 3247 4331 
Q 3641 3997 3641 3322 
Q 3641 2881 3436 2590 
Q 3231 2300 2841 2188 
z
M 1259 4147 
L 1259 2491 
L 2053 2491 
Q 2509 2491 2742 2702 
Q 2975 2913 2975 3322 
Q 2975 3731 2742 3939 
Q 2509 4147 2053 4147 
L 1259 4147 
z
" transform="scale(0.015625)"/>
       <path id="DejaVuSans-4e" d="M 628 4666 
L 1478 4666 
L 3547 763 
L 3547 4666 
L 4159 4666 
L 4159 0 
L 3309 0 
L 1241 3903 
L 1241 0 
L 628 0 
L 628 4666 
z
" transform="scale(0.015625)"/>
      </defs>
      <use xlink:href="#DejaVuSans-52"/>
      <use xlink:href="#DejaVuSans-41" transform="translate(65.482422 0)"/>
      <use xlink:href="#DejaVuSans-41" transform="translate(136.640625 0)"/>
      <use xlink:href="#DejaVuSans-4e" transform="translate(205.048828 0)"/>
      <use xlink:href="#DejaVuSans-20" transform="translate(279.853516 0)"/>
      <use xlink:href="#DejaVuSans-5b" transform="translate(311.640625 0)"/>
      <use xlink:href="#DejaVuSans-64" transform="translate(350.654297 0)"/>
      <use xlink:href="#DejaVuSans-65" transform="translate(414.130859 0)"/>
      <use xlink:href="#DejaVuSans-67" transform="translate(475.654297 0)"/>
      <use xlink:href="#DejaVuSans-5d" transform="translate(539.130859 0)"/>
     </g>
    </g>
    <g id="text_34">
     <!-- 1e−10+3.50983817e2 -->
     <g style="fill: #262626" transform="translate(58.07 296) scale(0.1 -0.1)">
      <use xlink:href="#DejaVuSans-31"/>
      <use xlink:href="#DejaVuSans-65" transform="translate(63.623047 0)"/>
      <use xlink:href="#DejaVuSans-2212" transform="translate(125.146484 0)"/>
      <use xlink:href="#DejaVuSans-31" transform="translate(208.935547 0)"/>
      <use xlink:href="#DejaVuSans-30" transform="translate(272.558594 0)"/>
      <use xlink:href="#DejaVuSans-2b" transform="translate(336.181641 0)"/>
      <use xlink:href="#DejaVuSans-33" transform="translate(419.970703 0)"/>
      <use xlink:href="#DejaVuSans-2e" transform="translate(483.59375 0)"/>
      <use xlink:href="#DejaVuSans-35" transform="translate(515.380859 0)"/>
      <use xlink:href="#DejaVuSans-30" transform="translate(579.003906 0)"/>
      <use xlink:href="#DejaVuSans-39" transform="translate(642.626953 0)"/>
      <use xlink:href="#DejaVuSans-38" transform="translate(706.25 0)"/>
      <use xlink:href="#DejaVuSans-33" transform="translate(769.873047 0)"/>
      <use xlink:href="#DejaVuSans-38" transform="translate(833.496094 0)"/>
      <use xlink:href="#DejaVuSans-31" transform="translate(897.119141 0)"/>
      <use xlink:href="#DejaVuSans-37" transform="translate(960.742188 0)"/>
      <use xlink:href="#DejaVuSans-65" transform="translate(1024.365234 0)"/>
      <use xlink:href="#DejaVuSans-32" transform="translate(1085.888672 0)"/>
     </g>
    </g>
   </g>
   <g id="line2d_82">
    <path d="M 74.708863 416.03125 
L 78.406389 416.203125 
L 80.255151 416 
L 82.103914 416.28125 
L 83.952677 416.359375 
L 85.801439 416.09375 
L 87.650202 416.265625 
L 89.498964 416.078125 
L 91.347727 416.078125 
L 93.19649 416.34375 
L 95.045252 416.40625 
L 98.742778 416 
L 102.440303 416.3125 
L 106.137828 416.109375 
L 107.986591 416.296875 
L 109.835353 416.34375 
L 111.684115 416.1875 
L 113.532879 416.203125 
L 115.381641 416.390625 
L 117.230403 416.125 
L 120.927929 416.203125 
L 122.776691 416 
L 126.474216 416.171875 
L 128.322979 416.171875 
L 130.171742 416.484375 
L 132.020504 416.4375 
L 135.71803 416.015625 
L 137.566792 416.078125 
L 139.415555 416.28125 
L 146.810606 416.078125 
L 148.659369 416 
L 150.508131 416.28125 
L 152.356894 416.40625 
L 154.205656 416.09375 
L 157.903182 416.40625 
L 161.600707 416.078125 
L 163.44947 416.265625 
L 165.298232 416.25 
L 167.146995 416.078125 
L 168.995757 416.3125 
L 170.84452 416.125 
L 181.937096 416.296875 
L 183.785858 416.09375 
L 189.332146 416.3125 
L 193.029672 416.109375 
L 194.878434 416.28125 
L 198.575959 416.09375 
L 200.424722 416.3125 
L 205.97101 416.09375 
L 207.819773 416.390625 
L 209.668535 416.09375 
L 211.517298 415.984375 
L 213.36606 416.15625 
L 215.214823 416.125 
L 217.063586 416.453125 
L 220.761111 416.265625 
L 224.458636 416.203125 
L 226.307399 416.25 
L 228.156162 416.125 
L 231.853687 416.453125 
L 233.702449 416.046875 
L 235.551212 415.921875 
L 237.399975 416.25 
L 241.0975 416.265625 
L 242.946263 416.09375 
L 246.643788 416.15625 
L 248.49255 416.34375 
L 250.341313 416.375 
L 252.190076 416.015625 
L 255.8876 416.25 
L 257.736364 416.375 
L 259.585126 416.109375 
L 266.980176 416.28125 
L 268.828939 416.09375 
L 272.526465 415.984375 
L 274.375227 416.25 
L 279.921515 416.40625 
L 281.770278 416.046875 
L 283.61904 416.078125 
L 285.467803 416.40625 
L 287.316566 416.34375 
L 289.165328 416.03125 
L 292.862854 416.21875 
L 294.711616 416.359375 
L 298.409141 416.15625 
L 300.257904 416.3125 
L 302.106667 416 
L 303.955429 416.265625 
L 305.804192 416.40625 
L 307.652955 416.125 
L 311.35048 416.171875 
L 313.199242 416.484375 
L 316.896768 416.125 
L 324.291818 416.171875 
L 326.140581 416.125 
L 327.989343 416.40625 
L 331.686869 416 
L 333.535631 416.515625 
L 337.233157 415.921875 
L 339.081919 416.34375 
L 340.930682 416.359375 
L 344.628207 416.078125 
L 348.325732 416.265625 
L 350.174495 416.125 
L 352.023258 416.34375 
L 353.87202 416.09375 
L 355.720783 416.203125 
L 357.569545 416.484375 
L 361.267071 415.9375 
L 363.115833 415.984375 
L 366.813359 416.4375 
L 368.662121 416.171875 
L 370.510884 416.046875 
L 372.359647 416.28125 
L 374.208409 416.09375 
L 376.057172 416.1875 
L 377.905934 416.5625 
L 379.754697 416.296875 
L 381.60346 415.84375 
L 385.300985 416.4375 
L 390.847273 416.21875 
L 392.696035 416.265625 
L 398.242323 416.046875 
L 400.091085 416.203125 
L 403.788611 416.21875 
L 405.637374 416.375 
L 407.486136 416.171875 
L 407.486136 416.171875 
" clip-path="url(#p46548e8bbd)" style="fill: none; stroke: #4c72b0; stroke-width: 1.75; stroke-linecap: round"/>
   </g>
   <g id="line2d_83">
    <path d="M 74.708863 416.28125 
L 82.103914 416.25 
L 83.952677 416.390625 
L 85.801439 416.21875 
L 87.650202 416.203125 
L 89.498964 416 
L 91.347727 415.953125 
L 93.19649 416.453125 
L 95.045252 416.34375 
L 96.894015 416.09375 
L 98.742778 416.25 
L 102.440303 416.265625 
L 106.137828 416.09375 
L 107.986591 416.25 
L 115.381641 416.296875 
L 117.230403 416.09375 
L 120.927929 416.203125 
L 122.776691 416.046875 
L 126.474216 416.375 
L 128.322979 416.125 
L 130.171742 416.34375 
L 133.869267 416.015625 
L 137.566792 416.40625 
L 141.264318 415.953125 
L 144.961843 416.25 
L 146.810606 416.09375 
L 150.508131 416.40625 
L 152.356894 416.265625 
L 154.205656 416 
L 156.054419 416.28125 
L 157.903182 416.40625 
L 159.751944 416.078125 
L 161.600707 416.09375 
L 163.44947 416.265625 
L 167.146995 416.171875 
L 168.995757 416.296875 
L 170.84452 416.125 
L 174.542045 416.203125 
L 176.390808 416.203125 
L 178.239571 416.34375 
L 181.937096 416.171875 
L 185.634621 416.375 
L 187.483384 416.109375 
L 194.878434 416.296875 
L 196.727197 416.09375 
L 200.424722 416.203125 
L 202.273485 416.125 
L 204.122247 416.34375 
L 211.517298 416.046875 
L 213.36606 416.1875 
L 215.214823 416.1875 
L 217.063586 416.4375 
L 222.609874 416.046875 
L 224.458636 416.25 
L 226.307399 416.25 
L 228.156162 416.046875 
L 230.004924 416.3125 
L 231.853687 416.40625 
L 233.702449 416.125 
L 235.551212 416.078125 
L 237.399975 416.40625 
L 241.0975 416.046875 
L 244.795025 416.25 
L 246.643788 416.046875 
L 248.49255 416.046875 
L 250.341313 416.3125 
L 252.190076 416.171875 
L 255.8876 416.34375 
L 259.585126 416.125 
L 263.282651 416.40625 
L 266.980176 416.21875 
L 268.828939 415.953125 
L 270.677701 416.15625 
L 274.375227 416 
L 276.223989 416.40625 
L 278.072752 416.21875 
L 279.921515 416.390625 
L 281.770278 416.3125 
L 283.61904 416.09375 
L 289.165328 416.3125 
L 291.014091 416.09375 
L 298.409141 416.25 
L 300.257904 416.03125 
L 302.106667 415.9375 
L 303.955429 416.359375 
L 305.804192 416.34375 
L 309.501717 416.125 
L 313.199242 416.296875 
L 318.74553 416.125 
L 320.594293 416.265625 
L 322.443056 416.015625 
L 324.291818 415.953125 
L 327.989343 416.4375 
L 329.838106 416.453125 
L 331.686869 416.203125 
L 333.535631 416.296875 
L 337.233157 416 
L 339.081919 416.296875 
L 340.930682 416.28125 
L 344.628207 416.078125 
L 353.87202 416.25 
L 355.720783 416.09375 
L 357.569545 416.34375 
L 359.418308 416.265625 
L 361.267071 415.984375 
L 363.115833 416.046875 
L 366.813359 416.640625 
L 368.662121 416.046875 
L 370.510884 415.8125 
L 372.359647 416.4375 
L 381.60346 416.15625 
L 387.149748 416.28125 
L 392.696035 416 
L 398.242323 416.375 
L 400.091085 416.15625 
L 401.939849 416.15625 
L 403.788611 416.296875 
L 405.637374 416.109375 
L 407.486136 415.671875 
L 407.486136 415.671875 
" clip-path="url(#p46548e8bbd)" style="fill: none; stroke: #55a868; stroke-width: 1.75; stroke-linecap: round"/>
   </g>
   <g id="line2d_84">
    <path d="M 74.708863 416.390625 
L 80.255151 416.09375 
L 83.952677 416.4375 
L 85.801439 416.34375 
L 89.498964 415.890625 
L 91.347727 416.125 
L 93.19649 416.546875 
L 96.894015 416.109375 
L 100.59154 416.171875 
L 102.440303 416.34375 
L 106.137828 415.984375 
L 109.835353 416.3125 
L 113.532879 416.265625 
L 117.230403 416.3125 
L 119.079166 416.09375 
L 122.776691 416.265625 
L 128.322979 416.171875 
L 130.171742 416.4375 
L 133.869267 416.03125 
L 137.566792 416.25 
L 152.356894 416.265625 
L 154.205656 415.984375 
L 157.903182 416.484375 
L 159.751944 416.21875 
L 161.600707 416.078125 
L 163.44947 416.09375 
L 165.298232 416.265625 
L 167.146995 416.15625 
L 170.84452 416.1875 
L 172.693283 416.125 
L 180.088333 416.34375 
L 187.483384 416.078125 
L 191.180909 416.34375 
L 193.029672 416.078125 
L 194.878434 416.203125 
L 196.727197 416.125 
L 200.424722 416.375 
L 202.273485 416 
L 205.97101 416.265625 
L 207.819773 416.34375 
L 209.668535 416.09375 
L 211.517298 416 
L 213.36606 416.265625 
L 220.761111 416.25 
L 222.609874 416.078125 
L 224.458636 416.1875 
L 226.307399 416.15625 
L 230.004924 416.359375 
L 231.853687 416.40625 
L 233.702449 416.1875 
L 235.551212 416.09375 
L 237.399975 416.21875 
L 239.248737 416.15625 
L 241.0975 416.28125 
L 244.795025 416 
L 250.341313 416.296875 
L 255.8876 416.09375 
L 257.736364 416.3125 
L 261.433888 416.1875 
L 266.980176 416.375 
L 268.828939 416.078125 
L 270.677701 416.203125 
L 274.375227 416.09375 
L 279.921515 416.453125 
L 281.770278 416.1875 
L 285.467803 416.046875 
L 287.316566 416.34375 
L 289.165328 416.34375 
L 291.014091 416.09375 
L 292.862854 416.390625 
L 294.711616 416.34375 
L 296.560379 416.125 
L 298.409141 416.34375 
L 300.257904 415.984375 
L 302.106667 415.796875 
L 303.955429 416.390625 
L 305.804192 416.40625 
L 307.652955 416 
L 309.501717 416 
L 313.199242 416.640625 
L 316.896768 416 
L 318.74553 416.015625 
L 322.443056 416.28125 
L 326.140581 416.078125 
L 327.989343 416.375 
L 329.838106 416.46875 
L 331.686869 416.15625 
L 333.535631 416.390625 
L 335.384394 416 
L 337.233157 415.921875 
L 339.081919 416.390625 
L 352.023258 416.09375 
L 353.87202 416.265625 
L 355.720783 416.09375 
L 357.569545 416.34375 
L 359.418308 416.25 
L 361.267071 415.90625 
L 363.115833 416.34375 
L 366.813359 416.390625 
L 370.510884 415.921875 
L 374.208409 416.296875 
L 376.057172 416.40625 
L 377.905934 416.34375 
L 381.60346 415.828125 
L 385.300985 416.453125 
L 387.149748 416.1875 
L 388.99851 416.078125 
L 390.847273 416.40625 
L 396.393561 416.078125 
L 400.091085 416.34375 
L 401.939849 415.921875 
L 405.637374 416.40625 
L 407.486136 416.28125 
L 407.486136 416.28125 
" clip-path="url(#p46548e8bbd)" style="fill: none; stroke: #c44e52; stroke-width: 1.75; stroke-linecap: round"/>
   </g>
   <g id="patch_13">
    <path d="M 58.07 533.3125 
L 58.07 299 
" style="fill: none"/>
   </g>
   <g id="patch_14">
    <path d="M 424.125 533.3125 
L 424.125 299 
" style="fill: none"/>
   </g>
   <g id="patch_15">
    <path d="M 58.07 533.32 
L 424.125 533.32 
" style="fill: none"/>
   </g>
   <g id="patch_16">
    <path d="M 58.07 299 
L 424.125 299 
" style="fill: none"/>
   </g>
   <g id="text_35">
    <!-- RAAN evolution -->
    <g style="fill: #262626" transform="translate(194.5225 293) scale(0.12 -0.12)">
     <use xlink:href="#DejaVuSans-52"/>
     <use xlink:href="#DejaVuSans-41" transform="translate(65.482422 0)"/>
     <use xlink:href="#DejaVuSans-41" transform="translate(136.640625 0)"/>
     <use xlink:href="#DejaVuSans-4e" transform="translate(205.048828 0)"/>
     <use xlink:href="#DejaVuSans-20" transform="translate(279.853516 0)"/>
     <use xlink:href="#DejaVuSans-65" transform="translate(311.640625 0)"/>
     <use xlink:href="#DejaVuSans-76" transform="translate(373.164062 0)"/>
     <use xlink:href="#DejaVuSans-6f" transform="translate(432.34375 0)"/>
     <use xlink:href="#DejaVuSans-6c" transform="translate(493.525391 0)"/>
     <use xlink:href="#DejaVuSans-75" transform="translate(521.308594 0)"/>
     <use xlink:href="#DejaVuSans-74" transform="translate(584.6875 0)"/>
     <use xlink:href="#DejaVuSans-69" transform="translate(623.896484 0)"/>
     <use xlink:href="#DejaVuSans-6f" transform="translate(651.679688 0)"/>
     <use xlink:href="#DejaVuSans-6e" transform="translate(712.861328 0)"/>
    </g>
   </g>
  </g>
  <g id="axes_4">
   <g id="patch_17">
    <path d="M 487.145 533.32 
L 853.2 533.32 
L 853.2 299 
L 487.145 299 
z
" style="fill: #eaeaf2"/>
   </g>
   <g id="matplotlib.axis_7">
    <g id="xtick_19">
     <g id="line2d_85">
      <path d="M 540.759115 533.32 
L 540.759115 299 
" clip-path="url(#p606a45e614)" style="fill: none; stroke-dasharray: 0.5,0.825; stroke-dashoffset: 0; stroke: #ffffff; stroke-width: 0.5"/>
     </g>
     <g id="line2d_86"/>
     <g id="text_36">
      <!-- 07:39:00 -->
      <g style="fill: #262626" transform="translate(518.302865 547.918437) scale(0.1 -0.1)">
       <use xlink:href="#DejaVuSans-30"/>
       <use xlink:href="#DejaVuSans-37" transform="translate(63.623047 0)"/>
       <use xlink:href="#DejaVuSans-3a" transform="translate(127.246094 0)"/>
       <use xlink:href="#DejaVuSans-33" transform="translate(160.9375 0)"/>
       <use xlink:href="#DejaVuSans-39" transform="translate(224.560547 0)"/>
       <use xlink:href="#DejaVuSans-3a" transform="translate(288.183594 0)"/>
       <use xlink:href="#DejaVuSans-30" transform="translate(321.875 0)"/>
       <use xlink:href="#DejaVuSans-30" transform="translate(385.498047 0)"/>
      </g>
     </g>
    </g>
    <g id="xtick_20">
     <g id="line2d_87">
      <path d="M 596.221994 533.32 
L 596.221994 299 
" clip-path="url(#p606a45e614)" style="fill: none; stroke-dasharray: 0.5,0.825; stroke-dashoffset: 0; stroke: #ffffff; stroke-width: 0.5"/>
     </g>
     <g id="line2d_88"/>
     <g id="text_37">
      <!-- 07:39:30 -->
      <g style="fill: #262626" transform="translate(573.765744 547.918437) scale(0.1 -0.1)">
       <use xlink:href="#DejaVuSans-30"/>
       <use xlink:href="#DejaVuSans-37" transform="translate(63.623047 0)"/>
       <use xlink:href="#DejaVuSans-3a" transform="translate(127.246094 0)"/>
       <use xlink:href="#DejaVuSans-33" transform="translate(160.9375 0)"/>
       <use xlink:href="#DejaVuSans-39" transform="translate(224.560547 0)"/>
       <use xlink:href="#DejaVuSans-3a" transform="translate(288.183594 0)"/>
       <use xlink:href="#DejaVuSans-33" transform="translate(321.875 0)"/>
       <use xlink:href="#DejaVuSans-30" transform="translate(385.498047 0)"/>
      </g>
     </g>
    </g>
    <g id="xtick_21">
     <g id="line2d_89">
      <path d="M 651.684874 533.32 
L 651.684874 299 
" clip-path="url(#p606a45e614)" style="fill: none; stroke-dasharray: 0.5,0.825; stroke-dashoffset: 0; stroke: #ffffff; stroke-width: 0.5"/>
     </g>
     <g id="line2d_90"/>
     <g id="text_38">
      <!-- 07:40:00 -->
      <g style="fill: #262626" transform="translate(629.228624 547.918437) scale(0.1 -0.1)">
       <use xlink:href="#DejaVuSans-30"/>
       <use xlink:href="#DejaVuSans-37" transform="translate(63.623047 0)"/>
       <use xlink:href="#DejaVuSans-3a" transform="translate(127.246094 0)"/>
       <use xlink:href="#DejaVuSans-34" transform="translate(160.9375 0)"/>
       <use xlink:href="#DejaVuSans-30" transform="translate(224.560547 0)"/>
       <use xlink:href="#DejaVuSans-3a" transform="translate(288.183594 0)"/>
       <use xlink:href="#DejaVuSans-30" transform="translate(321.875 0)"/>
       <use xlink:href="#DejaVuSans-30" transform="translate(385.498047 0)"/>
      </g>
     </g>
    </g>
    <g id="xtick_22">
     <g id="line2d_91">
      <path d="M 707.147752 533.32 
L 707.147752 299 
" clip-path="url(#p606a45e614)" style="fill: none; stroke-dasharray: 0.5,0.825; stroke-dashoffset: 0; stroke: #ffffff; stroke-width: 0.5"/>
     </g>
     <g id="line2d_92"/>
     <g id="text_39">
      <!-- 07:40:30 -->
      <g style="fill: #262626" transform="translate(684.691502 547.918437) scale(0.1 -0.1)">
       <use xlink:href="#DejaVuSans-30"/>
       <use xlink:href="#DejaVuSans-37" transform="translate(63.623047 0)"/>
       <use xlink:href="#DejaVuSans-3a" transform="translate(127.246094 0)"/>
       <use xlink:href="#DejaVuSans-34" transform="translate(160.9375 0)"/>
       <use xlink:href="#DejaVuSans-30" transform="translate(224.560547 0)"/>
       <use xlink:href="#DejaVuSans-3a" transform="translate(288.183594 0)"/>
       <use xlink:href="#DejaVuSans-33" transform="translate(321.875 0)"/>
       <use xlink:href="#DejaVuSans-30" transform="translate(385.498047 0)"/>
      </g>
     </g>
    </g>
    <g id="xtick_23">
     <g id="line2d_93">
      <path d="M 762.610631 533.32 
L 762.610631 299 
" clip-path="url(#p606a45e614)" style="fill: none; stroke-dasharray: 0.5,0.825; stroke-dashoffset: 0; stroke: #ffffff; stroke-width: 0.5"/>
     </g>
     <g id="line2d_94"/>
     <g id="text_40">
      <!-- 07:41:00 -->
      <g style="fill: #262626" transform="translate(740.154381 547.918437) scale(0.1 -0.1)">
       <use xlink:href="#DejaVuSans-30"/>
       <use xlink:href="#DejaVuSans-37" transform="translate(63.623047 0)"/>
       <use xlink:href="#DejaVuSans-3a" transform="translate(127.246094 0)"/>
       <use xlink:href="#DejaVuSans-34" transform="translate(160.9375 0)"/>
       <use xlink:href="#DejaVuSans-31" transform="translate(224.560547 0)"/>
       <use xlink:href="#DejaVuSans-3a" transform="translate(288.183594 0)"/>
       <use xlink:href="#DejaVuSans-30" transform="translate(321.875 0)"/>
       <use xlink:href="#DejaVuSans-30" transform="translate(385.498047 0)"/>
      </g>
     </g>
    </g>
    <g id="xtick_24">
     <g id="line2d_95">
      <path d="M 818.07351 533.32 
L 818.07351 299 
" clip-path="url(#p606a45e614)" style="fill: none; stroke-dasharray: 0.5,0.825; stroke-dashoffset: 0; stroke: #ffffff; stroke-width: 0.5"/>
     </g>
     <g id="line2d_96"/>
     <g id="text_41">
      <!-- 07:41:30 -->
      <g style="fill: #262626" transform="translate(795.61726 547.918437) scale(0.1 -0.1)">
       <use xlink:href="#DejaVuSans-30"/>
       <use xlink:href="#DejaVuSans-37" transform="translate(63.623047 0)"/>
       <use xlink:href="#DejaVuSans-3a" transform="translate(127.246094 0)"/>
       <use xlink:href="#DejaVuSans-34" transform="translate(160.9375 0)"/>
       <use xlink:href="#DejaVuSans-31" transform="translate(224.560547 0)"/>
       <use xlink:href="#DejaVuSans-3a" transform="translate(288.183594 0)"/>
       <use xlink:href="#DejaVuSans-33" transform="translate(321.875 0)"/>
       <use xlink:href="#DejaVuSans-30" transform="translate(385.498047 0)"/>
      </g>
     </g>
    </g>
    <g id="text_42">
     <!-- Time [UTC] -->
     <g style="fill: #262626" transform="translate(639.773828 562.356406) scale(0.11 -0.11)">
      <defs>
       <path id="DejaVuSans-55" d="M 556 4666 
L 1191 4666 
L 1191 1831 
Q 1191 1081 1462 751 
Q 1734 422 2344 422 
Q 2950 422 3222 751 
Q 3494 1081 3494 1831 
L 3494 4666 
L 4128 4666 
L 4128 1753 
Q 4128 841 3676 375 
Q 3225 -91 2344 -91 
Q 1459 -91 1007 375 
Q 556 841 556 1753 
L 556 4666 
z
" transform="scale(0.015625)"/>
       <path id="DejaVuSans-43" d="M 4122 4306 
L 4122 3641 
Q 3803 3938 3442 4084 
Q 3081 4231 2675 4231 
Q 1875 4231 1450 3742 
Q 1025 3253 1025 2328 
Q 1025 1406 1450 917 
Q 1875 428 2675 428 
Q 3081 428 3442 575 
Q 3803 722 4122 1019 
L 4122 359 
Q 3791 134 3420 21 
Q 3050 -91 2638 -91 
Q 1578 -91 968 557 
Q 359 1206 359 2328 
Q 359 3453 968 4101 
Q 1578 4750 2638 4750 
Q 3056 4750 3426 4639 
Q 3797 4528 4122 4306 
z
" transform="scale(0.015625)"/>
      </defs>
      <use xlink:href="#DejaVuSans-54"/>
      <use xlink:href="#DejaVuSans-69" transform="translate(57.958984 0)"/>
      <use xlink:href="#DejaVuSans-6d" transform="translate(85.742188 0)"/>
      <use xlink:href="#DejaVuSans-65" transform="translate(183.154297 0)"/>
      <use xlink:href="#DejaVuSans-20" transform="translate(244.677734 0)"/>
      <use xlink:href="#DejaVuSans-5b" transform="translate(276.464844 0)"/>
      <use xlink:href="#DejaVuSans-55" transform="translate(315.478516 0)"/>
      <use xlink:href="#DejaVuSans-54" transform="translate(388.671875 0)"/>
      <use xlink:href="#DejaVuSans-43" transform="translate(443.880859 0)"/>
      <use xlink:href="#DejaVuSans-5d" transform="translate(513.705078 0)"/>
     </g>
    </g>
   </g>
   <g id="matplotlib.axis_8">
    <g id="ytick_19">
     <g id="line2d_97">
      <path d="M 487.145 497.098681 
L 853.2 497.098681 
" clip-path="url(#p606a45e614)" style="fill: none; stroke-dasharray: 0.5,0.825; stroke-dashoffset: 0; stroke: #ffffff; stroke-width: 0.5"/>
     </g>
     <g id="line2d_98"/>
     <g id="text_43">
      <!-- 50 -->
      <g style="fill: #262626" transform="translate(467.42 500.8979) scale(0.1 -0.1)">
       <use xlink:href="#DejaVuSans-35"/>
       <use xlink:href="#DejaVuSans-30" transform="translate(63.623047 0)"/>
      </g>
     </g>
    </g>
    <g id="ytick_20">
     <g id="line2d_99">
      <path d="M 487.145 452.025653 
L 853.2 452.025653 
" clip-path="url(#p606a45e614)" style="fill: none; stroke-dasharray: 0.5,0.825; stroke-dashoffset: 0; stroke: #ffffff; stroke-width: 0.5"/>
     </g>
     <g id="line2d_100"/>
     <g id="text_44">
      <!-- 100 -->
      <g style="fill: #262626" transform="translate(461.0575 455.824871) scale(0.1 -0.1)">
       <use xlink:href="#DejaVuSans-31"/>
       <use xlink:href="#DejaVuSans-30" transform="translate(63.623047 0)"/>
       <use xlink:href="#DejaVuSans-30" transform="translate(127.246094 0)"/>
      </g>
     </g>
    </g>
    <g id="ytick_21">
     <g id="line2d_101">
      <path d="M 487.145 406.952624 
L 853.2 406.952624 
" clip-path="url(#p606a45e614)" style="fill: none; stroke-dasharray: 0.5,0.825; stroke-dashoffset: 0; stroke: #ffffff; stroke-width: 0.5"/>
     </g>
     <g id="line2d_102"/>
     <g id="text_45">
      <!-- 150 -->
      <g style="fill: #262626" transform="translate(461.0575 410.751842) scale(0.1 -0.1)">
       <use xlink:href="#DejaVuSans-31"/>
       <use xlink:href="#DejaVuSans-35" transform="translate(63.623047 0)"/>
       <use xlink:href="#DejaVuSans-30" transform="translate(127.246094 0)"/>
      </g>
     </g>
    </g>
    <g id="ytick_22">
     <g id="line2d_103">
      <path d="M 487.145 361.879595 
L 853.2 361.879595 
" clip-path="url(#p606a45e614)" style="fill: none; stroke-dasharray: 0.5,0.825; stroke-dashoffset: 0; stroke: #ffffff; stroke-width: 0.5"/>
     </g>
     <g id="line2d_104"/>
     <g id="text_46">
      <!-- 200 -->
      <g style="fill: #262626" transform="translate(461.0575 365.678814) scale(0.1 -0.1)">
       <use xlink:href="#DejaVuSans-32"/>
       <use xlink:href="#DejaVuSans-30" transform="translate(63.623047 0)"/>
       <use xlink:href="#DejaVuSans-30" transform="translate(127.246094 0)"/>
      </g>
     </g>
    </g>
    <g id="ytick_23">
     <g id="line2d_105">
      <path d="M 487.145 316.806566 
L 853.2 316.806566 
" clip-path="url(#p606a45e614)" style="fill: none; stroke-dasharray: 0.5,0.825; stroke-dashoffset: 0; stroke: #ffffff; stroke-width: 0.5"/>
     </g>
     <g id="line2d_106"/>
     <g id="text_47">
      <!-- 250 -->
      <g style="fill: #262626" transform="translate(461.0575 320.605785) scale(0.1 -0.1)">
       <use xlink:href="#DejaVuSans-32"/>
       <use xlink:href="#DejaVuSans-35" transform="translate(63.623047 0)"/>
       <use xlink:href="#DejaVuSans-30" transform="translate(127.246094 0)"/>
      </g>
     </g>
    </g>
    <g id="text_48">
     <!-- ω [deg] -->
     <g style="fill: #262626" transform="translate(454.769844 437.172578) rotate(-90) scale(0.11 -0.11)">
      <defs>
       <path id="DejaVuSans-3c9" d="M 1719 -91 
Q 422 -91 422 1766 
Q 422 2500 906 3500 
L 1525 3500 
Q 1078 2500 1078 1750 
Q 1078 397 1772 397 
Q 2406 397 2406 2078 
L 2938 2078 
Q 2938 397 3572 397 
Q 4266 397 4266 1750 
Q 4266 2500 3819 3500 
L 4438 3500 
Q 4922 2500 4922 1766 
Q 4922 -91 3625 -91 
Q 2775 -91 2672 844 
Q 2544 -91 1719 -91 
z
" transform="scale(0.015625)"/>
      </defs>
      <use xlink:href="#DejaVuSans-3c9"/>
      <use xlink:href="#DejaVuSans-20" transform="translate(83.740234 0)"/>
      <use xlink:href="#DejaVuSans-5b" transform="translate(115.527344 0)"/>
      <use xlink:href="#DejaVuSans-64" transform="translate(154.541016 0)"/>
      <use xlink:href="#DejaVuSans-65" transform="translate(218.017578 0)"/>
      <use xlink:href="#DejaVuSans-67" transform="translate(279.541016 0)"/>
      <use xlink:href="#DejaVuSans-5d" transform="translate(343.017578 0)"/>
     </g>
    </g>
   </g>
   <g id="line2d_107">
    <path d="M 503.783863 385.145169 
L 505.632626 352.486103 
L 834.712373 342.354911 
L 836.561136 309.695845 
L 836.561136 309.695845 
" clip-path="url(#p606a45e614)" style="fill: none; stroke: #4c72b0; stroke-width: 1.75; stroke-linecap: round"/>
   </g>
   <g id="line2d_108">
    <path d="M 503.783863 385.100233 
L 505.632626 352.441167 
L 834.712373 342.309975 
L 836.561136 309.650909 
L 836.561136 309.650909 
" clip-path="url(#p606a45e614)" style="fill: none; stroke: #55a868; stroke-width: 1.75; stroke-linecap: round"/>
   </g>
   <g id="line2d_109">
    <path d="M 503.783863 496.652795 
L 505.632626 514.726539 
L 834.712373 504.595347 
L 836.561136 522.669091 
L 836.561136 522.669091 
" clip-path="url(#p606a45e614)" style="fill: none; stroke: #c44e52; stroke-width: 1.75; stroke-linecap: round"/>
   </g>
   <g id="patch_18">
    <path d="M 487.145 533.32 
L 487.145 299 
" style="fill: none"/>
   </g>
   <g id="patch_19">
    <path d="M 853.2 533.32 
L 853.2 299 
" style="fill: none"/>
   </g>
   <g id="patch_20">
    <path d="M 487.145 533.32 
L 853.199999 533.32 
" style="fill: none"/>
   </g>
   <g id="patch_21">
    <path d="M 487.145 299 
L 853.199999 299 
" style="fill: none"/>
   </g>
   <g id="text_49">
    <!-- Argument of perigee evolution -->
    <g style="fill: #262626" transform="translate(578.19625 293) scale(0.12 -0.12)">
     <defs>
      <path id="DejaVuSans-66" d="M 2375 4863 
L 2375 4384 
L 1825 4384 
Q 1516 4384 1395 4259 
Q 1275 4134 1275 3809 
L 1275 3500 
L 2222 3500 
L 2222 3053 
L 1275 3053 
L 1275 0 
L 697 0 
L 697 3053 
L 147 3053 
L 147 3500 
L 697 3500 
L 697 3744 
Q 697 4328 969 4595 
Q 1241 4863 1831 4863 
L 2375 4863 
z
" transform="scale(0.015625)"/>
      <path id="DejaVuSans-70" d="M 1159 525 
L 1159 -1331 
L 581 -1331 
L 581 3500 
L 1159 3500 
L 1159 2969 
Q 1341 3281 1617 3432 
Q 1894 3584 2278 3584 
Q 2916 3584 3314 3078 
Q 3713 2572 3713 1747 
Q 3713 922 3314 415 
Q 2916 -91 2278 -91 
Q 1894 -91 1617 61 
Q 1341 213 1159 525 
z
M 3116 1747 
Q 3116 2381 2855 2742 
Q 2594 3103 2138 3103 
Q 1681 3103 1420 2742 
Q 1159 2381 1159 1747 
Q 1159 1113 1420 752 
Q 1681 391 2138 391 
Q 2594 391 2855 752 
Q 3116 1113 3116 1747 
z
" transform="scale(0.015625)"/>
     </defs>
     <use xlink:href="#DejaVuSans-41"/>
     <use xlink:href="#DejaVuSans-72" transform="translate(68.408203 0)"/>
     <use xlink:href="#DejaVuSans-67" transform="translate(107.771484 0)"/>
     <use xlink:href="#DejaVuSans-75" transform="translate(171.248047 0)"/>
     <use xlink:href="#DejaVuSans-6d" transform="translate(234.626953 0)"/>
     <use xlink:href="#DejaVuSans-65" transform="translate(332.039062 0)"/>
     <use xlink:href="#DejaVuSans-6e" transform="translate(393.5625 0)"/>
     <use xlink:href="#DejaVuSans-74" transform="translate(456.941406 0)"/>
     <use xlink:href="#DejaVuSans-20" transform="translate(496.150391 0)"/>
     <use xlink:href="#DejaVuSans-6f" transform="translate(527.9375 0)"/>
     <use xlink:href="#DejaVuSans-66" transform="translate(589.119141 0)"/>
     <use xlink:href="#DejaVuSans-20" transform="translate(624.324219 0)"/>
     <use xlink:href="#DejaVuSans-70" transform="translate(656.111328 0)"/>
     <use xlink:href="#DejaVuSans-65" transform="translate(719.587891 0)"/>
     <use xlink:href="#DejaVuSans-72" transform="translate(781.111328 0)"/>
     <use xlink:href="#DejaVuSans-69" transform="translate(822.224609 0)"/>
     <use xlink:href="#DejaVuSans-67" transform="translate(850.007812 0)"/>
     <use xlink:href="#DejaVuSans-65" transform="translate(913.484375 0)"/>
     <use xlink:href="#DejaVuSans-65" transform="translate(975.007812 0)"/>
     <use xlink:href="#DejaVuSans-20" transform="translate(1036.53125 0)"/>
     <use xlink:href="#DejaVuSans-65" transform="translate(1068.318359 0)"/>
     <use xlink:href="#DejaVuSans-76" transform="translate(1129.841797 0)"/>
     <use xlink:href="#DejaVuSans-6f" transform="translate(1189.021484 0)"/>
     <use xlink:href="#DejaVuSans-6c" transform="translate(1250.203125 0)"/>
     <use xlink:href="#DejaVuSans-75" transform="translate(1277.986328 0)"/>
     <use xlink:href="#DejaVuSans-74" transform="translate(1341.365234 0)"/>
     <use xlink:href="#DejaVuSans-69" transform="translate(1380.574219 0)"/>
     <use xlink:href="#DejaVuSans-6f" transform="translate(1408.357422 0)"/>
     <use xlink:href="#DejaVuSans-6e" transform="translate(1469.539062 0)"/>
    </g>
   </g>
  </g>
 </g>
 <defs>
  <clipPath id="p4a7b281e18">
   <rect x="58.07" y="26.88" width="366.055" height="234.32"/>
  </clipPath>
  <clipPath id="pf5f0a7214a">
   <rect x="487.145" y="26.88" width="366.055" height="234.32"/>
  </clipPath>
  <clipPath id="p46548e8bbd">
   <rect x="58.07" y="299" width="366.055" height="234.32"/>
  </clipPath>
  <clipPath id="p606a45e614">
   <rect x="487.145" y="299" width="366.055" height="234.32"/>
  </clipPath>
 </defs>
</svg>
