<?xml version="1.0" encoding="utf-8" standalone="no"?>
<!DOCTYPE svg PUBLIC "-//W3C//DTD SVG 1.1//EN"
  "http://www.w3.org/Graphics/SVG/1.1/DTD/svg11.dtd">
<svg xmlns:xlink="http://www.w3.org/1999/xlink" width="720pt" height="432pt" viewBox="0 0 720 432" xmlns="http://www.w3.org/2000/svg" version="1.1">
 <metadata>
  <rdf:RDF xmlns:dc="http://purl.org/dc/elements/1.1/" xmlns:cc="http://creativecommons.org/ns#" xmlns:rdf="http://www.w3.org/1999/02/22-rdf-syntax-ns#">
   <cc:Work>
    <dc:type rdf:resource="http://purl.org/dc/dcmitype/StillImage"/>
    <dc:date>2025-11-01T08:07:33.246175</dc:date>
    <dc:format>image/svg+xml</dc:format>
    <dc:creator>
     <cc:Agent>
      <dc:title>Matplotlib v3.10.7, https://matplotlib.org/</dc:title>
     </cc:Agent>
    </dc:creator>
   </cc:Work>
  </rdf:RDF>
 </metadata>
 <defs>
  <style type="text/css">*{stroke-linejoin: round; stroke-linecap: butt}</style>
 </defs>
 <g id="figure_1">
  <g id="patch_1">
   <path d="M 0 432 
L 720 432 
L 720 0 
L 0 0 
z
" style="fill: #ffffff"/>
  </g>
  <g id="axes_1">
   <g id="patch_2">
    <path d="M 63.02 389.32 
L 709.2 389.32 
L 709.2 26.88 
L 63.02 26.88 
z
" style="fill: #eaeaf2"/>
   </g>
   <g id="matplotlib.axis_1">
    <g id="xtick_1">
     <g id="line2d_1">
      <path d="M 141.344848 389.32 
L 141.344848 26.88 
" clip-path="url(#p334a347793)" style="fill: none; stroke-dasharray: 0.5,0.825; stroke-dashoffset: 0; stroke: #ffffff; stroke-width: 0.5"/>
     </g>
     <g id="line2d_2"/>
     <g id="text_1">
      <!-- −75 -->
      <g style="fill: #262626" transform="translate(130.792505 403.918437) scale(0.1 -0.1)">
       <defs>
        <path id="DejaVuSans-2212" d="M 678 2272 
L 4684 2272 
L 4684 1741 
L 678 1741 
L 678 2272 
z
" transform="scale(0.015625)"/>
        <path id="DejaVuSans-37" d="M 525 4666 
L 3525 4666 
L 3525 4397 
L 1831 0 
L 1172 0 
L 2766 4134 
L 525 4134 
L 525 4666 
z
" transform="scale(0.015625)"/>
        <path id="DejaVuSans-35" d="M 691 4666 
L 3169 4666 
L 3169 4134 
L 1269 4134 
L 1269 2991 
Q 1406 3038 1543 3061 
Q 1681 3084 1819 3084 
Q 2600 3084 3056 2656 
Q 3513 2228 3513 1497 
Q 3513 744 3044 326 
Q 2575 -91 1722 -91 
Q 1428 -91 1123 -41 
Q 819 9 494 109 
L 494 744 
Q 775 591 1075 516 
Q 1375 441 1709 441 
Q 2250 441 2565 725 
Q 2881 1009 2881 1497 
Q 2881 1984 2565 2268 
Q 2250 2553 1709 2553 
Q 1456 2553 1204 2497 
Q 953 2441 691 2322 
L 691 4666 
z
" transform="scale(0.015625)"/>
       </defs>
       <use xlink:href="#DejaVuSans-2212"/>
       <use xlink:href="#DejaVuSans-37" transform="translate(83.789062 0)"/>
       <use xlink:href="#DejaVuSans-35" transform="translate(147.412109 0)"/>
      </g>
     </g>
    </g>
    <g id="xtick_2">
     <g id="line2d_3">
      <path d="M 222.933232 389.32 
L 222.933232 26.88 
" clip-path="url(#p334a347793)" style="fill: none; stroke-dasharray: 0.5,0.825; stroke-dashoffset: 0; stroke: #ffffff; stroke-width: 0.5"/>
     </g>
     <g id="line2d_4"/>
     <g id="text_2">
      <!-- −50 -->
      <g style="fill: #262626" transform="translate(212.380889 403.918437) scale(0.1 -0.1)">
       <defs>
        <path id="DejaVuSans-30" d="M 2034 4250 
Q 1547 4250 1301 3770 
Q 1056 3291 1056 2328 
Q 1056 1369 1301 889 
Q 1547 409 2034 409 
Q 2525 409 2770 889 
Q 3016 1369 3016 2328 
Q 3016 3291 2770 3770 
Q 2525 4250 2034 4250 
z
M 2034 4750 
Q 2819 4750 3233 4129 
Q 3647 3509 3647 2328 
Q 3647 1150 3233 529 
Q 2819 -91 2034 -91 
Q 1250 -91 836 529 
Q 422 1150 422 2328 
Q 422 3509 836 4129 
Q 1250 4750 2034 4750 
z
" transform="scale(0.015625)"/>
       </defs>
       <use xlink:href="#DejaVuSans-2212"/>
       <use xlink:href="#DejaVuSans-35" transform="translate(83.789062 0)"/>
       <use xlink:href="#DejaVuSans-30" transform="translate(147.412109 0)"/>
      </g>
     </g>
    </g>
    <g id="xtick_3">
     <g id="line2d_5">
      <path d="M 304.521616 389.32 
L 304.521616 26.88 
" clip-path="url(#p334a347793)" style="fill: none; stroke-dasharray: 0.5,0.825; stroke-dashoffset: 0; stroke: #ffffff; stroke-width: 0.5"/>
     </g>
     <g id="line2d_6"/>
     <g id="text_3">
      <!-- −25 -->
      <g style="fill: #262626" transform="translate(293.969272 403.918437) scale(0.1 -0.1)">
       <defs>
        <path id="DejaVuSans-32" d="M 1228 531 
L 3431 531 
L 3431 0 
L 469 0 
L 469 531 
Q 828 903 1448 1529 
Q 2069 2156 2228 2338 
Q 2531 2678 2651 2914 
Q 2772 3150 2772 3378 
Q 2772 3750 2511 3984 
Q 2250 4219 1831 4219 
Q 1534 4219 1204 4116 
Q 875 4013 500 3803 
L 500 4441 
Q 881 4594 1212 4672 
Q 1544 4750 1819 4750 
Q 2544 4750 2975 4387 
Q 3406 4025 3406 3419 
Q 3406 3131 3298 2873 
Q 3191 2616 2906 2266 
Q 2828 2175 2409 1742 
Q 1991 1309 1228 531 
z
" transform="scale(0.015625)"/>
       </defs>
       <use xlink:href="#DejaVuSans-2212"/>
       <use xlink:href="#DejaVuSans-32" transform="translate(83.789062 0)"/>
       <use xlink:href="#DejaVuSans-35" transform="translate(147.412109 0)"/>
      </g>
     </g>
    </g>
    <g id="xtick_4">
     <g id="line2d_7">
      <path d="M 386.11 389.32 
L 386.11 26.88 
" clip-path="url(#p334a347793)" style="fill: none; stroke-dasharray: 0.5,0.825; stroke-dashoffset: 0; stroke: #ffffff; stroke-width: 0.5"/>
     </g>
     <g id="line2d_8"/>
     <g id="text_4">
      <!-- 0 -->
      <g style="fill: #262626" transform="translate(382.92875 403.918437) scale(0.1 -0.1)">
       <use xlink:href="#DejaVuSans-30"/>
      </g>
     </g>
    </g>
    <g id="xtick_5">
     <g id="line2d_9">
      <path d="M 467.698384 389.32 
L 467.698384 26.88 
" clip-path="url(#p334a347793)" style="fill: none; stroke-dasharray: 0.5,0.825; stroke-dashoffset: 0; stroke: #ffffff; stroke-width: 0.5"/>
     </g>
     <g id="line2d_10"/>
     <g id="text_5">
      <!-- 25 -->
      <g style="fill: #262626" transform="translate(461.335884 403.918437) scale(0.1 -0.1)">
       <use xlink:href="#DejaVuSans-32"/>
       <use xlink:href="#DejaVuSans-35" transform="translate(63.623047 0)"/>
      </g>
     </g>
    </g>
    <g id="xtick_6">
     <g id="line2d_11">
      <path d="M 549.286768 389.32 
L 549.286768 26.88 
" clip-path="url(#p334a347793)" style="fill: none; stroke-dasharray: 0.5,0.825; stroke-dashoffset: 0; stroke: #ffffff; stroke-width: 0.5"/>
     </g>
     <g id="line2d_12"/>
     <g id="text_6">
      <!-- 50 -->
      <g style="fill: #262626" transform="translate(542.924268 403.918437) scale(0.1 -0.1)">
       <use xlink:href="#DejaVuSans-35"/>
       <use xlink:href="#DejaVuSans-30" transform="translate(63.623047 0)"/>
      </g>
     </g>
    </g>
    <g id="xtick_7">
     <g id="line2d_13">
      <path d="M 630.875152 389.32 
L 630.875152 26.88 
" clip-path="url(#p334a347793)" style="fill: none; stroke-dasharray: 0.5,0.825; stroke-dashoffset: 0; stroke: #ffffff; stroke-width: 0.5"/>
     </g>
     <g id="line2d_14"/>
     <g id="text_7">
      <!-- 75 -->
      <g style="fill: #262626" transform="translate(624.512652 403.918437) scale(0.1 -0.1)">
       <use xlink:href="#DejaVuSans-37"/>
       <use xlink:href="#DejaVuSans-35" transform="translate(63.623047 0)"/>
      </g>
     </g>
    </g>
    <g id="text_8">
     <!-- Time offset [s] -->
     <g style="fill: #262626" transform="translate(346.357031 418.356406) scale(0.11 -0.11)">
      <defs>
       <path id="DejaVuSans-54" d="M -19 4666 
L 3928 4666 
L 3928 4134 
L 2272 4134 
L 2272 0 
L 1638 0 
L 1638 4134 
L -19 4134 
L -19 4666 
z
" transform="scale(0.015625)"/>
       <path id="DejaVuSans-69" d="M 603 3500 
L 1178 3500 
L 1178 0 
L 603 0 
L 603 3500 
z
M 603 4863 
L 1178 4863 
L 1178 4134 
L 603 4134 
L 603 4863 
z
" transform="scale(0.015625)"/>
       <path id="DejaVuSans-6d" d="M 3328 2828 
Q 3544 3216 3844 3400 
Q 4144 3584 4550 3584 
Q 5097 3584 5394 3201 
Q 5691 2819 5691 2113 
L 5691 0 
L 5113 0 
L 5113 2094 
Q 5113 2597 4934 2840 
Q 4756 3084 4391 3084 
Q 3944 3084 3684 2787 
Q 3425 2491 3425 1978 
L 3425 0 
L 2847 0 
L 2847 2094 
Q 2847 2600 2669 2842 
Q 2491 3084 2119 3084 
Q 1678 3084 1418 2786 
Q 1159 2488 1159 1978 
L 1159 0 
L 581 0 
L 581 3500 
L 1159 3500 
L 1159 2956 
Q 1356 3278 1631 3431 
Q 1906 3584 2284 3584 
Q 2666 3584 2933 3390 
Q 3200 3197 3328 2828 
z
" transform="scale(0.015625)"/>
       <path id="DejaVuSans-65" d="M 3597 1894 
L 3597 1613 
L 953 1613 
Q 991 1019 1311 708 
Q 1631 397 2203 397 
Q 2534 397 2845 478 
Q 3156 559 3463 722 
L 3463 178 
Q 3153 47 2828 -22 
Q 2503 -91 2169 -91 
Q 1331 -91 842 396 
Q 353 884 353 1716 
Q 353 2575 817 3079 
Q 1281 3584 2069 3584 
Q 2775 3584 3186 3129 
Q 3597 2675 3597 1894 
z
M 3022 2063 
Q 3016 2534 2758 2815 
Q 2500 3097 2075 3097 
Q 1594 3097 1305 2825 
Q 1016 2553 972 2059 
L 3022 2063 
z
" transform="scale(0.015625)"/>
       <path id="DejaVuSans-20" transform="scale(0.015625)"/>
       <path id="DejaVuSans-6f" d="M 1959 3097 
Q 1497 3097 1228 2736 
Q 959 2375 959 1747 
Q 959 1119 1226 758 
Q 1494 397 1959 397 
Q 2419 397 2687 759 
Q 2956 1122 2956 1747 
Q 2956 2369 2687 2733 
Q 2419 3097 1959 3097 
z
M 1959 3584 
Q 2709 3584 3137 3096 
Q 3566 2609 3566 1747 
Q 3566 888 3137 398 
Q 2709 -91 1959 -91 
Q 1206 -91 779 398 
Q 353 888 353 1747 
Q 353 2609 779 3096 
Q 1206 3584 1959 3584 
z
" transform="scale(0.015625)"/>
       <path id="DejaVuSans-66" d="M 2375 4863 
L 2375 4384 
L 1825 4384 
Q 1516 4384 1395 4259 
Q 1275 4134 1275 3809 
L 1275 3500 
L 2222 3500 
L 2222 3053 
L 1275 3053 
L 1275 0 
L 697 0 
L 697 3053 
L 147 3053 
L 147 3500 
L 697 3500 
L 697 3744 
Q 697 4328 969 4595 
Q 1241 4863 1831 4863 
L 2375 4863 
z
" transform="scale(0.015625)"/>
       <path id="DejaVuSans-73" d="M 2834 3397 
L 2834 2853 
Q 2591 2978 2328 3040 
Q 2066 3103 1784 3103 
Q 1356 3103 1142 2972 
Q 928 2841 928 2578 
Q 928 2378 1081 2264 
Q 1234 2150 1697 2047 
L 1894 2003 
Q 2506 1872 2764 1633 
Q 3022 1394 3022 966 
Q 3022 478 2636 193 
Q 2250 -91 1575 -91 
Q 1294 -91 989 -36 
Q 684 19 347 128 
L 347 722 
Q 666 556 975 473 
Q 1284 391 1588 391 
Q 1994 391 2212 530 
Q 2431 669 2431 922 
Q 2431 1156 2273 1281 
Q 2116 1406 1581 1522 
L 1381 1569 
Q 847 1681 609 1914 
Q 372 2147 372 2553 
Q 372 3047 722 3315 
Q 1072 3584 1716 3584 
Q 2034 3584 2315 3537 
Q 2597 3491 2834 3397 
z
" transform="scale(0.015625)"/>
       <path id="DejaVuSans-74" d="M 1172 4494 
L 1172 3500 
L 2356 3500 
L 2356 3053 
L 1172 3053 
L 1172 1153 
Q 1172 725 1289 603 
Q 1406 481 1766 481 
L 2356 481 
L 2356 0 
L 1766 0 
Q 1100 0 847 248 
Q 594 497 594 1153 
L 594 3053 
L 172 3053 
L 172 3500 
L 594 3500 
L 594 4494 
L 1172 4494 
z
" transform="scale(0.015625)"/>
       <path id="DejaVuSans-5b" d="M 550 4863 
L 1875 4863 
L 1875 4416 
L 1125 4416 
L 1125 -397 
L 1875 -397 
L 1875 -844 
L 550 -844 
L 550 4863 
z
" transform="scale(0.015625)"/>
       <path id="DejaVuSans-5d" d="M 1947 4863 
L 1947 -844 
L 622 -844 
L 622 -397 
L 1369 -397 
L 1369 4416 
L 622 4416 
L 622 4863 
L 1947 4863 
z
" transform="scale(0.015625)"/>
      </defs>
      <use xlink:href="#DejaVuSans-54"/>
      <use xlink:href="#DejaVuSans-69" transform="translate(57.958984 0)"/>
      <use xlink:href="#DejaVuSans-6d" transform="translate(85.742188 0)"/>
      <use xlink:href="#DejaVuSans-65" transform="translate(183.154297 0)"/>
      <use xlink:href="#DejaVuSans-20" transform="translate(244.677734 0)"/>
      <use xlink:href="#DejaVuSans-6f" transform="translate(276.464844 0)"/>
      <use xlink:href="#DejaVuSans-66" transform="translate(337.646484 0)"/>
      <use xlink:href="#DejaVuSans-66" transform="translate(372.851562 0)"/>
      <use xlink:href="#DejaVuSans-73" transform="translate(408.056641 0)"/>
      <use xlink:href="#DejaVuSans-65" transform="translate(460.15625 0)"/>
      <use xlink:href="#DejaVuSans-74" transform="translate(521.679688 0)"/>
      <use xlink:href="#DejaVuSans-20" transform="translate(560.888672 0)"/>
      <use xlink:href="#DejaVuSans-5b" transform="translate(592.675781 0)"/>
      <use xlink:href="#DejaVuSans-73" transform="translate(631.689453 0)"/>
      <use xlink:href="#DejaVuSans-5d" transform="translate(683.789062 0)"/>
     </g>
    </g>
   </g>
   <g id="matplotlib.axis_2">
    <g id="ytick_1">
     <g id="line2d_15">
      <path d="M 63.02 362.25 
L 709.2 362.25 
" clip-path="url(#p334a347793)" style="fill: none; stroke-dasharray: 0.5,0.825; stroke-dashoffset: 0; stroke: #ffffff; stroke-width: 0.5"/>
     </g>
     <g id="line2d_16"/>
     <g id="text_9">
      <!-- −0.75 -->
      <g style="fill: #262626" transform="translate(25.374687 366.049219) scale(0.1 -0.1)">
       <defs>
        <path id="DejaVuSans-2e" d="M 684 794 
L 1344 794 
L 1344 0 
L 684 0 
L 684 794 
z
" transform="scale(0.015625)"/>
       </defs>
       <use xlink:href="#DejaVuSans-2212"/>
       <use xlink:href="#DejaVuSans-30" transform="translate(83.789062 0)"/>
       <use xlink:href="#DejaVuSans-2e" transform="translate(147.412109 0)"/>
       <use xlink:href="#DejaVuSans-37" transform="translate(179.199219 0)"/>
       <use xlink:href="#DejaVuSans-35" transform="translate(242.822266 0)"/>
      </g>
     </g>
    </g>
    <g id="ytick_2">
     <g id="line2d_17">
      <path d="M 63.02 314.5 
L 709.2 314.5 
" clip-path="url(#p334a347793)" style="fill: none; stroke-dasharray: 0.5,0.825; stroke-dashoffset: 0; stroke: #ffffff; stroke-width: 0.5"/>
     </g>
     <g id="line2d_18"/>
     <g id="text_10">
      <!-- −0.50 -->
      <g style="fill: #262626" transform="translate(25.374687 318.299219) scale(0.1 -0.1)">
       <use xlink:href="#DejaVuSans-2212"/>
       <use xlink:href="#DejaVuSans-30" transform="translate(83.789062 0)"/>
       <use xlink:href="#DejaVuSans-2e" transform="translate(147.412109 0)"/>
       <use xlink:href="#DejaVuSans-35" transform="translate(179.199219 0)"/>
       <use xlink:href="#DejaVuSans-30" transform="translate(242.822266 0)"/>
      </g>
     </g>
    </g>
    <g id="ytick_3">
     <g id="line2d_19">
      <path d="M 63.02 267 
L 709.2 267 
" clip-path="url(#p334a347793)" style="fill: none; stroke-dasharray: 0.5,0.825; stroke-dashoffset: 0; stroke: #ffffff; stroke-width: 0.5"/>
     </g>
     <g id="line2d_20"/>
     <g id="text_11">
      <!-- −0.25 -->
      <g style="fill: #262626" transform="translate(25.374687 270.799219) scale(0.1 -0.1)">
       <use xlink:href="#DejaVuSans-2212"/>
       <use xlink:href="#DejaVuSans-30" transform="translate(83.789062 0)"/>
       <use xlink:href="#DejaVuSans-2e" transform="translate(147.412109 0)"/>
       <use xlink:href="#DejaVuSans-32" transform="translate(179.199219 0)"/>
       <use xlink:href="#DejaVuSans-35" transform="translate(242.822266 0)"/>
      </g>
     </g>
    </g>
    <g id="ytick_4">
     <g id="line2d_21">
      <path d="M 63.02 219 
L 709.2 219 
" clip-path="url(#p334a347793)" style="fill: none; stroke-dasharray: 0.5,0.825; stroke-dashoffset: 0; stroke: #ffffff; stroke-width: 0.5"/>
     </g>
     <g id="line2d_22"/>
     <g id="text_12">
      <!-- 0.00 -->
      <g style="fill: #262626" transform="translate(33.754375 222.799219) scale(0.1 -0.1)">
       <use xlink:href="#DejaVuSans-30"/>
       <use xlink:href="#DejaVuSans-2e" transform="translate(63.623047 0)"/>
       <use xlink:href="#DejaVuSans-30" transform="translate(95.410156 0)"/>
       <use xlink:href="#DejaVuSans-30" transform="translate(159.033203 0)"/>
      </g>
     </g>
    </g>
    <g id="ytick_5">
     <g id="line2d_23">
      <path d="M 63.02 171.5 
L 709.2 171.5 
" clip-path="url(#p334a347793)" style="fill: none; stroke-dasharray: 0.5,0.825; stroke-dashoffset: 0; stroke: #ffffff; stroke-width: 0.5"/>
     </g>
     <g id="line2d_24"/>
     <g id="text_13">
      <!-- 0.25 -->
      <g style="fill: #262626" transform="translate(33.754375 175.299219) scale(0.1 -0.1)">
       <use xlink:href="#DejaVuSans-30"/>
       <use xlink:href="#DejaVuSans-2e" transform="translate(63.623047 0)"/>
       <use xlink:href="#DejaVuSans-32" transform="translate(95.410156 0)"/>
       <use xlink:href="#DejaVuSans-35" transform="translate(159.033203 0)"/>
      </g>
     </g>
    </g>
    <g id="ytick_6">
     <g id="line2d_25">
      <path d="M 63.02 123.75 
L 709.2 123.75 
" clip-path="url(#p334a347793)" style="fill: none; stroke-dasharray: 0.5,0.825; stroke-dashoffset: 0; stroke: #ffffff; stroke-width: 0.5"/>
     </g>
     <g id="line2d_26"/>
     <g id="text_14">
      <!-- 0.50 -->
      <g style="fill: #262626" transform="translate(33.754375 127.549219) scale(0.1 -0.1)">
       <use xlink:href="#DejaVuSans-30"/>
       <use xlink:href="#DejaVuSans-2e" transform="translate(63.623047 0)"/>
       <use xlink:href="#DejaVuSans-35" transform="translate(95.410156 0)"/>
       <use xlink:href="#DejaVuSans-30" transform="translate(159.033203 0)"/>
      </g>
     </g>
    </g>
    <g id="ytick_7">
     <g id="line2d_27">
      <path d="M 63.02 76 
L 709.2 76 
" clip-path="url(#p334a347793)" style="fill: none; stroke-dasharray: 0.5,0.825; stroke-dashoffset: 0; stroke: #ffffff; stroke-width: 0.5"/>
     </g>
     <g id="line2d_28"/>
     <g id="text_15">
      <!-- 0.75 -->
      <g style="fill: #262626" transform="translate(33.754375 79.799219) scale(0.1 -0.1)">
       <use xlink:href="#DejaVuSans-30"/>
       <use xlink:href="#DejaVuSans-2e" transform="translate(63.623047 0)"/>
       <use xlink:href="#DejaVuSans-37" transform="translate(95.410156 0)"/>
       <use xlink:href="#DejaVuSans-35" transform="translate(159.033203 0)"/>
      </g>
     </g>
    </g>
    <g id="ytick_8">
     <g id="line2d_29">
      <path d="M 63.02 28.25 
L 709.2 28.25 
" clip-path="url(#p334a347793)" style="fill: none; stroke-dasharray: 0.5,0.825; stroke-dashoffset: 0; stroke: #ffffff; stroke-width: 0.5"/>
     </g>
     <g id="line2d_30"/>
     <g id="text_16">
      <!-- 1.00 -->
      <g style="fill: #262626" transform="translate(33.754375 32.049219) scale(0.1 -0.1)">
       <defs>
        <path id="DejaVuSans-31" d="M 794 531 
L 1825 531 
L 1825 4091 
L 703 3866 
L 703 4441 
L 1819 4666 
L 2450 4666 
L 2450 531 
L 3481 531 
L 3481 0 
L 794 0 
L 794 531 
z
" transform="scale(0.015625)"/>
       </defs>
       <use xlink:href="#DejaVuSans-31"/>
       <use xlink:href="#DejaVuSans-2e" transform="translate(63.623047 0)"/>
       <use xlink:href="#DejaVuSans-30" transform="translate(95.410156 0)"/>
       <use xlink:href="#DejaVuSans-30" transform="translate(159.033203 0)"/>
      </g>
     </g>
    </g>
    <g id="text_17">
     <!-- Separation [km] -->
     <g style="fill: #262626" transform="translate(19.087031 252.586406) rotate(-90) scale(0.11 -0.11)">
      <defs>
       <path id="DejaVuSans-53" d="M 3425 4513 
L 3425 3897 
Q 3066 4069 2747 4153 
Q 2428 4238 2131 4238 
Q 1616 4238 1336 4038 
Q 1056 3838 1056 3469 
Q 1056 3159 1242 3001 
Q 1428 2844 1947 2747 
L 2328 2669 
Q 3034 2534 3370 2195 
Q 3706 1856 3706 1288 
Q 3706 609 3251 259 
Q 2797 -91 1919 -91 
Q 1588 -91 1214 -16 
Q 841 59 441 206 
L 441 856 
Q 825 641 1194 531 
Q 1563 422 1919 422 
Q 2459 422 2753 634 
Q 3047 847 3047 1241 
Q 3047 1584 2836 1778 
Q 2625 1972 2144 2069 
L 1759 2144 
Q 1053 2284 737 2584 
Q 422 2884 422 3419 
Q 422 4038 858 4394 
Q 1294 4750 2059 4750 
Q 2388 4750 2728 4690 
Q 3069 4631 3425 4513 
z
" transform="scale(0.015625)"/>
       <path id="DejaVuSans-70" d="M 1159 525 
L 1159 -1331 
L 581 -1331 
L 581 3500 
L 1159 3500 
L 1159 2969 
Q 1341 3281 1617 3432 
Q 1894 3584 2278 3584 
Q 2916 3584 3314 3078 
Q 3713 2572 3713 1747 
Q 3713 922 3314 415 
Q 2916 -91 2278 -91 
Q 1894 -91 1617 61 
Q 1341 213 1159 525 
z
M 3116 1747 
Q 3116 2381 2855 2742 
Q 2594 3103 2138 3103 
Q 1681 3103 1420 2742 
Q 1159 2381 1159 1747 
Q 1159 1113 1420 752 
Q 1681 391 2138 391 
Q 2594 391 2855 752 
Q 3116 1113 3116 1747 
z
" transform="scale(0.015625)"/>
       <path id="DejaVuSans-61" d="M 2194 1759 
Q 1497 1759 1228 1600 
Q 959 1441 959 1056 
Q 959 750 1161 570 
Q 1363 391 1709 391 
Q 2188 391 2477 730 
Q 2766 1069 2766 1631 
L 2766 1759 
L 2194 1759 
z
M 3341 1997 
L 3341 0 
L 2766 0 
L 2766 531 
Q 2569 213 2275 61 
Q 1981 -91 1556 -91 
Q 1019 -91 701 211 
Q 384 513 384 1019 
Q 384 1609 779 1909 
Q 1175 2209 1959 2209 
L 2766 2209 
L 2766 2266 
Q 2766 2663 2505 2880 
Q 2244 3097 1772 3097 
Q 1472 3097 1187 3025 
Q 903 2953 641 2809 
L 641 3341 
Q 956 3463 1253 3523 
Q 1550 3584 1831 3584 
Q 2591 3584 2966 3190 
Q 3341 2797 3341 1997 
z
" transform="scale(0.015625)"/>
       <path id="DejaVuSans-72" d="M 2631 2963 
Q 2534 3019 2420 3045 
Q 2306 3072 2169 3072 
Q 1681 3072 1420 2755 
Q 1159 2438 1159 1844 
L 1159 0 
L 581 0 
L 581 3500 
L 1159 3500 
L 1159 2956 
Q 1341 3275 1631 3429 
Q 1922 3584 2338 3584 
Q 2397 3584 2469 3576 
Q 2541 3569 2628 3553 
L 2631 2963 
z
" transform="scale(0.015625)"/>
       <path id="DejaVuSans-6e" d="M 3513 2113 
L 3513 0 
L 2938 0 
L 2938 2094 
Q 2938 2591 2744 2837 
Q 2550 3084 2163 3084 
Q 1697 3084 1428 2787 
Q 1159 2491 1159 1978 
L 1159 0 
L 581 0 
L 581 3500 
L 1159 3500 
L 1159 2956 
Q 1366 3272 1645 3428 
Q 1925 3584 2291 3584 
Q 2894 3584 3203 3211 
Q 3513 2838 3513 2113 
z
" transform="scale(0.015625)"/>
       <path id="DejaVuSans-6b" d="M 581 4863 
L 1159 4863 
L 1159 1991 
L 2875 3500 
L 3609 3500 
L 1753 1863 
L 3688 0 
L 2938 0 
L 1159 1709 
L 1159 0 
L 581 0 
L 581 4863 
z
" transform="scale(0.015625)"/>
      </defs>
      <use xlink:href="#DejaVuSans-53"/>
      <use xlink:href="#DejaVuSans-65" transform="translate(63.476562 0)"/>
      <use xlink:href="#DejaVuSans-70" transform="translate(125 0)"/>
      <use xlink:href="#DejaVuSans-61" transform="translate(188.476562 0)"/>
      <use xlink:href="#DejaVuSans-72" transform="translate(249.755859 0)"/>
      <use xlink:href="#DejaVuSans-61" transform="translate(290.869141 0)"/>
      <use xlink:href="#DejaVuSans-74" transform="translate(352.148438 0)"/>
      <use xlink:href="#DejaVuSans-69" transform="translate(391.357422 0)"/>
      <use xlink:href="#DejaVuSans-6f" transform="translate(419.140625 0)"/>
      <use xlink:href="#DejaVuSans-6e" transform="translate(480.322266 0)"/>
      <use xlink:href="#DejaVuSans-20" transform="translate(543.701172 0)"/>
      <use xlink:href="#DejaVuSans-5b" transform="translate(575.488281 0)"/>
      <use xlink:href="#DejaVuSans-6b" transform="translate(614.501953 0)"/>
      <use xlink:href="#DejaVuSans-6d" transform="translate(672.412109 0)"/>
      <use xlink:href="#DejaVuSans-5d" transform="translate(769.824219 0)"/>
     </g>
    </g>
    <g id="text_18">
     <!-- 1e−12+6 -->
     <g style="fill: #262626" transform="translate(63.02 23.88) scale(0.1 -0.1)">
      <defs>
       <path id="DejaVuSans-2b" d="M 2944 4013 
L 2944 2272 
L 4684 2272 
L 4684 1741 
L 2944 1741 
L 2944 0 
L 2419 0 
L 2419 1741 
L 678 1741 
L 678 2272 
L 2419 2272 
L 2419 4013 
L 2944 4013 
z
" transform="scale(0.015625)"/>
       <path id="DejaVuSans-36" d="M 2113 2584 
Q 1688 2584 1439 2293 
Q 1191 2003 1191 1497 
Q 1191 994 1439 701 
Q 1688 409 2113 409 
Q 2538 409 2786 701 
Q 3034 994 3034 1497 
Q 3034 2003 2786 2293 
Q 2538 2584 2113 2584 
z
M 3366 4563 
L 3366 3988 
Q 3128 4100 2886 4159 
Q 2644 4219 2406 4219 
Q 1781 4219 1451 3797 
Q 1122 3375 1075 2522 
Q 1259 2794 1537 2939 
Q 1816 3084 2150 3084 
Q 2853 3084 3261 2657 
Q 3669 2231 3669 1497 
Q 3669 778 3244 343 
Q 2819 -91 2113 -91 
Q 1303 -91 875 529 
Q 447 1150 447 2328 
Q 447 3434 972 4092 
Q 1497 4750 2381 4750 
Q 2619 4750 2861 4703 
Q 3103 4656 3366 4563 
z
" transform="scale(0.015625)"/>
      </defs>
      <use xlink:href="#DejaVuSans-31"/>
      <use xlink:href="#DejaVuSans-65" transform="translate(63.623047 0)"/>
      <use xlink:href="#DejaVuSans-2212" transform="translate(125.146484 0)"/>
      <use xlink:href="#DejaVuSans-31" transform="translate(208.935547 0)"/>
      <use xlink:href="#DejaVuSans-32" transform="translate(272.558594 0)"/>
      <use xlink:href="#DejaVuSans-2b" transform="translate(336.181641 0)"/>
      <use xlink:href="#DejaVuSans-36" transform="translate(419.970703 0)"/>
     </g>
    </g>
   </g>
   <g id="line2d_31">
    <path d="M 92.391818 241.25 
L 95.655354 270.75 
L 98.918889 325.25 
L 102.182424 162.25 
L 105.44596 203.75 
L 108.709495 285.25 
L 111.97303 292.75 
L 115.236566 248.75 
L 118.500101 286 
L 121.763636 225.5 
L 125.027172 144 
L 128.290707 300 
L 131.554242 128.25 
L 134.817778 235 
L 138.081313 282.5 
L 141.344848 273.5 
L 144.608384 198.5 
L 147.871919 155 
L 151.135455 211.5 
L 154.39899 149 
L 157.662525 228 
L 160.926061 232.75 
L 164.189596 293.5 
L 167.453131 310.5 
L 170.716667 154.25 
L 173.980202 255.75 
L 177.243737 282.75 
L 180.507273 232.25 
L 183.770808 210 
L 187.034343 256.5 
L 190.297879 208.75 
L 193.561414 304.25 
L 196.824949 252.25 
L 200.088485 217 
L 203.35202 179 
L 206.615556 275.5 
L 209.879091 165.5 
L 213.142626 132 
L 216.406162 202.75 
L 219.669697 195 
L 222.933232 159.25 
L 226.196768 230.25 
L 229.460303 161.25 
L 232.723838 260.25 
L 235.987374 257.25 
L 239.250909 211.75 
L 242.514444 146 
L 245.77798 244 
L 249.041515 258.5 
L 252.305051 246.5 
L 255.568586 280.5 
L 258.832121 221.75 
L 262.095657 213.25 
L 265.359192 190.5 
L 268.622727 247.25 
L 271.886263 170.25 
L 275.149798 173.25 
L 278.413333 268.75 
L 281.676869 319.5 
L 284.940404 137.25 
L 288.203939 262 
L 294.73101 137.25 
L 297.994545 178.5 
L 301.258081 246.5 
L 304.521616 239.25 
L 307.785152 163.75 
L 311.048687 105.75 
L 314.312222 248 
L 317.575758 160.25 
L 320.839293 158 
L 324.102828 293.25 
L 327.366364 290 
L 330.629899 241.25 
L 333.893434 315 
L 337.15697 217.5 
L 340.420505 188.75 
L 343.68404 181.75 
L 346.947576 258 
L 350.211111 194 
L 353.474646 225.5 
L 356.738182 126.25 
L 360.001717 245.25 
L 363.265253 168 
L 366.528788 179 
L 369.792323 288 
L 373.055859 174.5 
L 376.319394 169 
L 379.582929 231 
L 382.846465 269.25 
L 386.11 168.5 
L 389.373535 192.25 
L 392.637071 192.75 
L 395.900606 216.5 
L 399.164141 152 
L 402.427677 224 
L 405.691212 250.25 
L 408.954747 348.25 
L 412.218283 191.25 
L 415.481818 289.25 
L 418.745354 171.75 
L 422.008889 315.25 
L 425.272424 213.25 
L 428.53596 161.75 
L 431.799495 223.75 
L 435.06303 305.5 
L 438.326566 217.5 
L 441.590101 187.5 
L 444.853636 204.5 
L 448.117172 281 
L 451.380707 192 
L 454.644242 159.5 
L 457.907778 181.25 
L 461.171313 293.25 
L 464.434848 165.5 
L 467.698384 235.75 
L 470.961919 278 
L 474.225455 264.5 
L 477.48899 248.25 
L 480.752525 276 
L 484.016061 85.25 
L 487.279596 173.25 
L 490.543131 350 
L 493.806667 255.5 
L 497.070202 276 
L 500.333737 151.25 
L 503.597273 230.5 
L 506.860808 216.75 
L 510.124343 199 
L 513.387879 204.25 
L 516.651414 171.25 
L 519.914949 290.25 
L 523.178485 263.25 
L 526.44202 269 
L 529.705556 310.25 
L 532.969091 165 
L 536.232626 188 
L 539.496162 257.25 
L 542.759697 303 
L 546.023232 168 
L 549.286768 178 
L 552.550303 366.5 
L 555.813838 112.5 
L 559.077374 210 
L 562.340909 251.5 
L 565.604444 130.25 
L 568.86798 310.5 
L 572.131515 105.5 
L 575.395051 216 
L 578.658586 212.25 
L 581.922121 100.75 
L 585.185657 188.75 
L 588.449192 217 
L 591.712727 226 
L 594.976263 152.25 
L 598.239798 251.5 
L 601.503333 213.5 
L 604.766869 259.75 
L 608.030404 178 
L 611.293939 174.25 
L 614.557475 135.75 
L 617.82101 233.25 
L 621.084545 187.25 
L 624.348081 168.5 
L 627.611616 265 
L 630.875152 229 
L 634.138687 114.5 
L 637.402222 158.75 
L 640.665758 162.75 
L 643.929293 198.5 
L 647.192828 166.5 
L 650.456364 371.25 
L 653.719899 194.5 
L 656.983434 292.5 
L 660.24697 278 
L 663.510505 275.75 
L 666.77404 249.75 
L 670.037576 213.5 
L 673.301111 205.5 
L 676.564646 89.5 
L 679.828182 281.25 
L 679.828182 281.25 
" clip-path="url(#p334a347793)" style="fill: none; stroke: #4c72b0; stroke-width: 1.75; stroke-linecap: round"/>
   </g>
   <g id="line2d_32">
    <path d="M 92.391818 313 
L 95.655354 214.5 
L 98.918889 178.5 
L 102.182424 243.75 
L 105.44596 181 
L 108.709495 195.5 
L 111.97303 238 
L 115.236566 82.75 
L 118.500101 172.25 
L 121.763636 226 
L 125.027172 172.75 
L 128.290707 157.25 
L 131.554242 252.25 
L 134.817778 200.25 
L 138.081313 198 
L 141.344848 195.5 
L 144.608384 206.25 
L 151.135455 276.75 
L 154.39899 238 
L 157.662525 236.5 
L 160.926061 248 
L 164.189596 270.25 
L 167.453131 248.5 
L 170.716667 201.25 
L 173.980202 236.75 
L 177.243737 218.25 
L 180.507273 163.25 
L 183.770808 194.25 
L 187.034343 167.25 
L 190.297879 179.75 
L 193.561414 225 
L 196.824949 295.25 
L 200.088485 286.5 
L 203.35202 259.25 
L 206.615556 135.25 
L 209.879091 198.25 
L 213.142626 211.75 
L 216.406162 174.5 
L 219.669697 238.5 
L 222.933232 310 
L 226.196768 171.5 
L 229.460303 273.5 
L 232.723838 221.5 
L 235.987374 209 
L 239.250909 147.25 
L 242.514444 183.5 
L 245.77798 215.5 
L 249.041515 289.25 
L 252.305051 273 
L 255.568586 215.25 
L 258.832121 256 
L 262.095657 177 
L 265.359192 207 
L 268.622727 233.75 
L 271.886263 163.25 
L 275.149798 247 
L 278.413333 141.75 
L 281.676869 224.25 
L 284.940404 203.5 
L 288.203939 215 
L 291.467475 242.75 
L 294.73101 246.25 
L 297.994545 284 
L 301.258081 207 
L 304.521616 177.5 
L 307.785152 290.25 
L 311.048687 293.5 
L 314.312222 177 
L 317.575758 268.75 
L 320.839293 314.25 
L 324.102828 265 
L 327.366364 189.5 
L 330.629899 249.25 
L 333.893434 279.75 
L 337.15697 248.5 
L 340.420505 210.25 
L 343.68404 185 
L 346.947576 173.25 
L 350.211111 237 
L 353.474646 217.25 
L 356.738182 155.75 
L 360.001717 310.25 
L 363.265253 252.75 
L 366.528788 244 
L 369.792323 285 
L 373.055859 225 
L 376.319394 280.25 
L 379.582929 125.75 
L 382.846465 238.5 
L 386.11 126.75 
L 389.373535 190.25 
L 392.637071 261 
L 395.900606 242.75 
L 399.164141 226.5 
L 402.427677 199 
L 405.691212 221.75 
L 408.954747 233.75 
L 412.218283 266.25 
L 418.745354 130.5 
L 422.008889 198.75 
L 425.272424 158.5 
L 428.53596 185.5 
L 431.799495 139.75 
L 435.06303 224.5 
L 438.326566 221.75 
L 441.590101 198.5 
L 444.853636 304.5 
L 448.117172 154.25 
L 451.380707 255.5 
L 454.644242 236.25 
L 457.907778 167 
L 461.171313 243.5 
L 464.434848 289.75 
L 467.698384 300.75 
L 470.961919 281.5 
L 474.225455 219 
L 477.48899 226.25 
L 480.752525 156 
L 484.016061 192.75 
L 487.279596 194 
L 490.543131 108.75 
L 493.806667 367 
L 497.070202 264.25 
L 500.333737 265.25 
L 503.597273 292.75 
L 506.860808 248.75 
L 510.124343 187 
L 513.387879 163.75 
L 516.651414 133.25 
L 519.914949 144.75 
L 523.178485 272.25 
L 526.44202 299 
L 529.705556 352 
L 532.969091 216.75 
L 536.232626 245.5 
L 539.496162 247.25 
L 542.759697 270.5 
L 546.023232 43.25 
L 549.286768 174.75 
L 552.550303 261.25 
L 555.813838 269.25 
L 559.077374 302.5 
L 565.604444 121.25 
L 568.86798 325.5 
L 572.131515 56.5 
L 575.395051 289.5 
L 578.658586 213.5 
L 581.922121 182.75 
L 585.185657 176.75 
L 588.449192 133.75 
L 591.712727 285.5 
L 594.976263 263.25 
L 598.239798 299.25 
L 601.503333 307.25 
L 604.766869 149.75 
L 608.030404 227.5 
L 611.293939 145 
L 614.557475 256.75 
L 617.82101 220.25 
L 621.084545 241.75 
L 624.348081 53.25 
L 627.611616 117.75 
L 630.875152 232.75 
L 634.138687 162.25 
L 637.402222 275.5 
L 640.665758 218 
L 643.929293 304 
L 647.192828 249.75 
L 650.456364 273.25 
L 653.719899 159.75 
L 656.983434 220 
L 660.24697 270.75 
L 663.510505 343.5 
L 666.77404 158.5 
L 670.037576 301.5 
L 673.301111 160.25 
L 676.564646 247.5 
L 679.828182 330.5 
L 679.828182 330.5 
" clip-path="url(#p334a347793)" style="fill: none; stroke: #55a868; stroke-width: 1.75; stroke-linecap: round"/>
   </g>
   <g id="line2d_33">
    <path d="M 92.391818 291.25 
L 95.655354 332.5 
L 98.918889 308.5 
L 102.182424 204 
L 105.44596 241 
L 108.709495 173.25 
L 111.97303 191.25 
L 115.236566 169 
L 118.500101 252 
L 121.763636 294.75 
L 125.027172 212.75 
L 128.290707 151.25 
L 131.554242 184.5 
L 134.817778 49 
L 138.081313 307.5 
L 141.344848 313.5 
L 144.608384 207.75 
L 147.871919 199 
L 151.135455 199.75 
L 154.39899 207.25 
L 157.662525 267.75 
L 160.926061 319.75 
L 164.189596 368.75 
L 167.453131 321 
L 170.716667 131.25 
L 173.980202 339 
L 177.243737 198 
L 180.507273 179.75 
L 183.770808 171.5 
L 187.034343 278.75 
L 190.297879 164.75 
L 193.561414 228.25 
L 196.824949 266.5 
L 200.088485 283.25 
L 203.35202 370.75 
L 206.615556 307.75 
L 209.879091 161.5 
L 213.142626 187 
L 216.406162 197.5 
L 219.669697 78.5 
L 222.933232 117 
L 226.196768 121.75 
L 229.460303 199.25 
L 232.723838 261.75 
L 235.987374 181.25 
L 239.250909 205.25 
L 242.514444 121.75 
L 245.77798 133.25 
L 249.041515 342.25 
L 252.305051 198.5 
L 255.568586 88.5 
L 258.832121 300 
L 262.095657 113.75 
L 265.359192 289.5 
L 268.622727 231.75 
L 271.886263 136.75 
L 275.149798 201.5 
L 278.413333 238 
L 281.676869 227 
L 284.940404 78 
L 288.203939 245 
L 291.467475 246.5 
L 294.73101 311.75 
L 297.994545 221.75 
L 301.258081 193.75 
L 304.521616 271.25 
L 307.785152 278.25 
L 311.048687 212.25 
L 314.312222 159.25 
L 317.575758 261.25 
L 320.839293 187 
L 324.102828 369.75 
L 327.366364 259.25 
L 330.629899 213.75 
L 333.893434 330.5 
L 337.15697 202.75 
L 340.420505 232 
L 343.68404 111.75 
L 346.947576 343.5 
L 350.211111 92.75 
L 353.474646 269.75 
L 356.738182 155 
L 360.001717 276.25 
L 363.265253 194.75 
L 366.528788 186.5 
L 369.792323 272.25 
L 373.055859 152.75 
L 376.319394 303.25 
L 379.582929 183.75 
L 382.846465 368.75 
L 386.11 109.25 
L 389.373535 76.5 
L 392.637071 129.25 
L 395.900606 372.75 
L 399.164141 74 
L 402.427677 107.5 
L 405.691212 241 
L 408.954747 245.25 
L 412.218283 281.25 
L 415.481818 258.75 
L 418.745354 105.5 
L 422.008889 162.75 
L 425.272424 134.75 
L 428.53596 266.25 
L 431.799495 190.25 
L 435.06303 300.25 
L 441.590101 260.75 
L 444.853636 264.5 
L 448.117172 120.25 
L 451.380707 308.5 
L 454.644242 103.75 
L 457.907778 193.25 
L 461.171313 332.5 
L 464.434848 273.5 
L 467.698384 350.75 
L 470.961919 261.75 
L 474.225455 264 
L 477.48899 146.5 
L 480.752525 84.25 
L 487.279596 253.5 
L 490.543131 164.75 
L 493.806667 327.5 
L 497.070202 194.25 
L 500.333737 106.5 
L 503.597273 202.25 
L 506.860808 305.5 
L 510.124343 340 
L 513.387879 230.75 
L 516.651414 131.25 
L 519.914949 260.25 
L 523.178485 343 
L 526.44202 282 
L 529.705556 250.25 
L 532.969091 102.75 
L 536.232626 63.25 
L 539.496162 223.25 
L 542.759697 88.5 
L 546.023232 143 
L 549.286768 112.75 
L 552.550303 254 
L 555.813838 208 
L 559.077374 128.5 
L 562.340909 200.25 
L 565.604444 211.25 
L 568.86798 228.25 
L 572.131515 85.25 
L 575.395051 178 
L 578.658586 139.5 
L 581.922121 124.75 
L 585.185657 247 
L 588.449192 152.5 
L 591.712727 222.75 
L 594.976263 165.25 
L 598.239798 263.5 
L 601.503333 308.5 
L 604.766869 119.25 
L 608.030404 265.25 
L 611.293939 250.25 
L 614.557475 226.25 
L 617.82101 83.25 
L 621.084545 238.25 
L 624.348081 139.25 
L 627.611616 222.75 
L 630.875152 250.25 
L 634.138687 119.5 
L 637.402222 199.25 
L 640.665758 248.5 
L 643.929293 231.25 
L 647.192828 299.25 
L 650.456364 271.75 
L 653.719899 253.25 
L 656.983434 246.25 
L 660.24697 61.75 
L 663.510505 282.75 
L 666.77404 255.5 
L 670.037576 281 
L 673.301111 245.25 
L 676.564646 232.25 
L 679.828182 296.5 
L 679.828182 296.5 
" clip-path="url(#p334a347793)" style="fill: none; stroke: #c44e52; stroke-width: 1.75; stroke-linecap: round"/>
   </g>
   <g id="patch_3">
    <path d="M 63.02 389.25 
L 63.02 26.75 
" style="fill: none"/>
   </g>
   <g id="patch_4">
    <path d="M 709.2 389.25 
L 709.2 26.75 
" style="fill: none"/>
   </g>
   <g id="patch_5">
    <path d="M 63.02 389.32 
L 709.2 389.32 
" style="fill: none"/>
   </g>
   <g id="patch_6">
    <path d="M 63.02 26.88 
L 709.2 26.88 
" style="fill: none"/>
   </g>
   <g id="text_19">
    <!-- Pairwise separation across the access window -->
    <g style="fill: #262626" transform="translate(248.028438 20.88) scale(0.12 -0.12)">
     <defs>
      <path id="DejaVuSans-50" d="M 1259 4147 
L 1259 2394 
L 2053 2394 
Q 2494 2394 2734 2622 
Q 2975 2850 2975 3272 
Q 2975 3691 2734 3919 
Q 2494 4147 2053 4147 
L 1259 4147 
z
M 628 4666 
L 2053 4666 
Q 2838 4666 3239 4311 
Q 3641 3956 3641 3272 
Q 3641 2581 3239 2228 
Q 2838 1875 2053 1875 
L 1259 1875 
L 1259 0 
L 628 0 
L 628 4666 
z
" transform="scale(0.015625)"/>
      <path id="DejaVuSans-77" d="M 269 3500 
L 844 3500 
L 1563 769 
L 2278 3500 
L 2956 3500 
L 3675 769 
L 4391 3500 
L 4966 3500 
L 4050 0 
L 3372 0 
L 2619 2869 
L 1863 0 
L 1184 0 
L 269 3500 
z
" transform="scale(0.015625)"/>
      <path id="DejaVuSans-63" d="M 3122 3366 
L 3122 2828 
Q 2878 2963 2633 3030 
Q 2388 3097 2138 3097 
Q 1578 3097 1268 2742 
Q 959 2388 959 1747 
Q 959 1106 1268 751 
Q 1578 397 2138 397 
Q 2388 397 2633 464 
Q 2878 531 3122 666 
L 3122 134 
Q 2881 22 2623 -34 
Q 2366 -91 2075 -91 
Q 1284 -91 818 406 
Q 353 903 353 1747 
Q 353 2603 823 3093 
Q 1294 3584 2113 3584 
Q 2378 3584 2631 3529 
Q 2884 3475 3122 3366 
z
" transform="scale(0.015625)"/>
      <path id="DejaVuSans-68" d="M 3513 2113 
L 3513 0 
L 2938 0 
L 2938 2094 
Q 2938 2591 2744 2837 
Q 2550 3084 2163 3084 
Q 1697 3084 1428 2787 
Q 1159 2491 1159 1978 
L 1159 0 
L 581 0 
L 581 4863 
L 1159 4863 
L 1159 2956 
Q 1366 3272 1645 3428 
Q 1925 3584 2291 3584 
Q 2894 3584 3203 3211 
Q 3513 2838 3513 2113 
z
" transform="scale(0.015625)"/>
      <path id="DejaVuSans-64" d="M 2906 2969 
L 2906 4863 
L 3481 4863 
L 3481 0 
L 2906 0 
L 2906 525 
Q 2725 213 2448 61 
Q 2172 -91 1784 -91 
Q 1150 -91 751 415 
Q 353 922 353 1747 
Q 353 2572 751 3078 
Q 1150 3584 1784 3584 
Q 2172 3584 2448 3432 
Q 2725 3281 2906 2969 
z
M 947 1747 
Q 947 1113 1208 752 
Q 1469 391 1925 391 
Q 2381 391 2643 752 
Q 2906 1113 2906 1747 
Q 2906 2381 2643 2742 
Q 2381 3103 1925 3103 
Q 1469 3103 1208 2742 
Q 947 2381 947 1747 
z
" transform="scale(0.015625)"/>
     </defs>
     <use xlink:href="#DejaVuSans-50"/>
     <use xlink:href="#DejaVuSans-61" transform="translate(55.802734 0)"/>
     <use xlink:href="#DejaVuSans-69" transform="translate(117.082031 0)"/>
     <use xlink:href="#DejaVuSans-72" transform="translate(144.865234 0)"/>
     <use xlink:href="#DejaVuSans-77" transform="translate(185.978516 0)"/>
     <use xlink:href="#DejaVuSans-69" transform="translate(267.765625 0)"/>
     <use xlink:href="#DejaVuSans-73" transform="translate(295.548828 0)"/>
     <use xlink:href="#DejaVuSans-65" transform="translate(347.648438 0)"/>
     <use xlink:href="#DejaVuSans-20" transform="translate(409.171875 0)"/>
     <use xlink:href="#DejaVuSans-73" transform="translate(440.958984 0)"/>
     <use xlink:href="#DejaVuSans-65" transform="translate(493.058594 0)"/>
     <use xlink:href="#DejaVuSans-70" transform="translate(554.582031 0)"/>
     <use xlink:href="#DejaVuSans-61" transform="translate(618.058594 0)"/>
     <use xlink:href="#DejaVuSans-72" transform="translate(679.337891 0)"/>
     <use xlink:href="#DejaVuSans-61" transform="translate(720.451172 0)"/>
     <use xlink:href="#DejaVuSans-74" transform="translate(781.730469 0)"/>
     <use xlink:href="#DejaVuSans-69" transform="translate(820.939453 0)"/>
     <use xlink:href="#DejaVuSans-6f" transform="translate(848.722656 0)"/>
     <use xlink:href="#DejaVuSans-6e" transform="translate(909.904297 0)"/>
     <use xlink:href="#DejaVuSans-20" transform="translate(973.283203 0)"/>
     <use xlink:href="#DejaVuSans-61" transform="translate(1005.070312 0)"/>
     <use xlink:href="#DejaVuSans-63" transform="translate(1066.349609 0)"/>
     <use xlink:href="#DejaVuSans-72" transform="translate(1121.330078 0)"/>
     <use xlink:href="#DejaVuSans-6f" transform="translate(1160.193359 0)"/>
     <use xlink:href="#DejaVuSans-73" transform="translate(1221.375 0)"/>
     <use xlink:href="#DejaVuSans-73" transform="translate(1273.474609 0)"/>
     <use xlink:href="#DejaVuSans-20" transform="translate(1325.574219 0)"/>
     <use xlink:href="#DejaVuSans-74" transform="translate(1357.361328 0)"/>
     <use xlink:href="#DejaVuSans-68" transform="translate(1396.570312 0)"/>
     <use xlink:href="#DejaVuSans-65" transform="translate(1459.949219 0)"/>
     <use xlink:href="#DejaVuSans-20" transform="translate(1521.472656 0)"/>
     <use xlink:href="#DejaVuSans-61" transform="translate(1553.259766 0)"/>
     <use xlink:href="#DejaVuSans-63" transform="translate(1614.539062 0)"/>
     <use xlink:href="#DejaVuSans-63" transform="translate(1669.519531 0)"/>
     <use xlink:href="#DejaVuSans-65" transform="translate(1724.5 0)"/>
     <use xlink:href="#DejaVuSans-73" transform="translate(1786.023438 0)"/>
     <use xlink:href="#DejaVuSans-73" transform="translate(1838.123047 0)"/>
     <use xlink:href="#DejaVuSans-20" transform="translate(1890.222656 0)"/>
     <use xlink:href="#DejaVuSans-77" transform="translate(1922.009766 0)"/>
     <use xlink:href="#DejaVuSans-69" transform="translate(2003.796875 0)"/>
     <use xlink:href="#DejaVuSans-6e" transform="translate(2031.580078 0)"/>
     <use xlink:href="#DejaVuSans-64" transform="translate(2094.958984 0)"/>
     <use xlink:href="#DejaVuSans-6f" transform="translate(2158.435547 0)"/>
     <use xlink:href="#DejaVuSans-77" transform="translate(2219.617188 0)"/>
    </g>
   </g>
   <g id="legend_1">
    <g id="line2d_34">
     <path d="M 613.057813 39.978437 
L 623.057813 39.978437 
L 633.057813 39.978437 
" style="fill: none; stroke: #4c72b0; stroke-width: 1.75; stroke-linecap: round"/>
    </g>
    <g id="text_20">
     <!-- SAT-1-SAT-2 -->
     <g style="fill: #262626" transform="translate(641.057813 43.478437) scale(0.1 -0.1)">
      <defs>
       <path id="DejaVuSans-41" d="M 2188 4044 
L 1331 1722 
L 3047 1722 
L 2188 4044 
z
M 1831 4666 
L 2547 4666 
L 4325 0 
L 3669 0 
L 3244 1197 
L 1141 1197 
L 716 0 
L 50 0 
L 1831 4666 
z
" transform="scale(0.015625)"/>
       <path id="DejaVuSans-2d" d="M 313 2009 
L 1997 2009 
L 1997 1497 
L 313 1497 
L 313 2009 
z
" transform="scale(0.015625)"/>
      </defs>
      <use xlink:href="#DejaVuSans-53"/>
      <use xlink:href="#DejaVuSans-41" transform="translate(65.351562 0)"/>
      <use xlink:href="#DejaVuSans-54" transform="translate(126.009766 0)"/>
      <use xlink:href="#DejaVuSans-2d" transform="translate(177.96875 0)"/>
      <use xlink:href="#DejaVuSans-31" transform="translate(214.052734 0)"/>
      <use xlink:href="#DejaVuSans-2d" transform="translate(277.675781 0)"/>
      <use xlink:href="#DejaVuSans-53" transform="translate(313.759766 0)"/>
      <use xlink:href="#DejaVuSans-41" transform="translate(379.111328 0)"/>
      <use xlink:href="#DejaVuSans-54" transform="translate(439.769531 0)"/>
      <use xlink:href="#DejaVuSans-2d" transform="translate(491.728516 0)"/>
      <use xlink:href="#DejaVuSans-32" transform="translate(527.8125 0)"/>
     </g>
    </g>
    <g id="line2d_35">
     <path d="M 613.057813 54.656563 
L 623.057813 54.656563 
L 633.057813 54.656563 
" style="fill: none; stroke: #55a868; stroke-width: 1.75; stroke-linecap: round"/>
    </g>
    <g id="text_21">
     <!-- SAT-1-SAT-3 -->
     <g style="fill: #262626" transform="translate(641.057813 58.156563) scale(0.1 -0.1)">
      <defs>
       <path id="DejaVuSans-33" d="M 2597 2516 
Q 3050 2419 3304 2112 
Q 3559 1806 3559 1356 
Q 3559 666 3084 287 
Q 2609 -91 1734 -91 
Q 1441 -91 1130 -33 
Q 819 25 488 141 
L 488 750 
Q 750 597 1062 519 
Q 1375 441 1716 441 
Q 2309 441 2620 675 
Q 2931 909 2931 1356 
Q 2931 1769 2642 2001 
Q 2353 2234 1838 2234 
L 1294 2234 
L 1294 2753 
L 1863 2753 
Q 2328 2753 2575 2939 
Q 2822 3125 2822 3475 
Q 2822 3834 2567 4026 
Q 2313 4219 1838 4219 
Q 1578 4219 1281 4162 
Q 984 4106 628 3988 
L 628 4550 
Q 988 4650 1302 4700 
Q 1616 4750 1894 4750 
Q 2613 4750 3031 4423 
Q 3450 4097 3450 3541 
Q 3450 3153 3228 2886 
Q 3006 2619 2597 2516 
z
" transform="scale(0.015625)"/>
      </defs>
      <use xlink:href="#DejaVuSans-53"/>
      <use xlink:href="#DejaVuSans-41" transform="translate(65.351562 0)"/>
      <use xlink:href="#DejaVuSans-54" transform="translate(126.009766 0)"/>
      <use xlink:href="#DejaVuSans-2d" transform="translate(177.96875 0)"/>
      <use xlink:href="#DejaVuSans-31" transform="translate(214.052734 0)"/>
      <use xlink:href="#DejaVuSans-2d" transform="translate(277.675781 0)"/>
      <use xlink:href="#DejaVuSans-53" transform="translate(313.759766 0)"/>
      <use xlink:href="#DejaVuSans-41" transform="translate(379.111328 0)"/>
      <use xlink:href="#DejaVuSans-54" transform="translate(439.769531 0)"/>
      <use xlink:href="#DejaVuSans-2d" transform="translate(491.728516 0)"/>
      <use xlink:href="#DejaVuSans-33" transform="translate(527.8125 0)"/>
     </g>
    </g>
    <g id="line2d_36">
     <path d="M 613.057813 69.334687 
L 623.057813 69.334687 
L 633.057813 69.334687 
" style="fill: none; stroke: #c44e52; stroke-width: 1.75; stroke-linecap: round"/>
    </g>
    <g id="text_22">
     <!-- SAT-2-SAT-3 -->
     <g style="fill: #262626" transform="translate(641.057813 72.834687) scale(0.1 -0.1)">
      <use xlink:href="#DejaVuSans-53"/>
      <use xlink:href="#DejaVuSans-41" transform="translate(65.351562 0)"/>
      <use xlink:href="#DejaVuSans-54" transform="translate(126.009766 0)"/>
      <use xlink:href="#DejaVuSans-2d" transform="translate(177.96875 0)"/>
      <use xlink:href="#DejaVuSans-32" transform="translate(214.052734 0)"/>
      <use xlink:href="#DejaVuSans-2d" transform="translate(277.675781 0)"/>
      <use xlink:href="#DejaVuSans-53" transform="translate(313.759766 0)"/>
      <use xlink:href="#DejaVuSans-41" transform="translate(379.111328 0)"/>
      <use xlink:href="#DejaVuSans-54" transform="translate(439.769531 0)"/>
      <use xlink:href="#DejaVuSans-2d" transform="translate(491.728516 0)"/>
      <use xlink:href="#DejaVuSans-33" transform="translate(527.8125 0)"/>
     </g>
    </g>
   </g>
  </g>
 </g>
 <defs>
  <clipPath id="p334a347793">
   <rect x="63.02" y="26.88" width="646.18" height="362.44"/>
  </clipPath>
 </defs>
</svg>
