<?xml version="1.0" encoding="utf-8" standalone="no"?>
<!DOCTYPE svg PUBLIC "-//W3C//DTD SVG 1.1//EN"
  "http://www.w3.org/Graphics/SVG/1.1/DTD/svg11.dtd">
<svg xmlns:xlink="http://www.w3.org/1999/xlink" width="1080pt" height="360pt" viewBox="0 0 1080 360" xmlns="http://www.w3.org/2000/svg" version="1.1">
 <metadata>
  <rdf:RDF xmlns:dc="http://purl.org/dc/elements/1.1/" xmlns:cc="http://creativecommons.org/ns#" xmlns:rdf="http://www.w3.org/1999/02/22-rdf-syntax-ns#">
   <cc:Work>
    <dc:type rdf:resource="http://purl.org/dc/dcmitype/StillImage"/>
    <dc:date>2025-11-01T08:07:33.071164</dc:date>
    <dc:format>image/svg+xml</dc:format>
    <dc:creator>
     <cc:Agent>
      <dc:title>Matplotlib v3.10.7, https://matplotlib.org/</dc:title>
     </cc:Agent>
    </dc:creator>
   </cc:Work>
  </rdf:RDF>
 </metadata>
 <defs>
  <style type="text/css">*{stroke-linejoin: round; stroke-linecap: butt}</style>
 </defs>
 <g id="figure_1">
  <g id="patch_1">
   <path d="M 0 360 
L 1080 360 
L 1080 0 
L 0 0 
z
" style="fill: #ffffff"/>
  </g>
  <g id="axes_1">
   <g id="patch_2">
    <path d="M 47.36 317.32 
L 370.906667 317.32 
L 370.906667 26.88 
L 47.36 26.88 
z
" style="fill: #eaeaf2"/>
   </g>
   <g id="matplotlib.axis_1">
    <g id="xtick_1">
     <g id="line2d_1">
      <path d="M 62.103589 317.32 
L 62.103589 26.88 
" clip-path="url(#p0b392d31c9)" style="fill: none; stroke-dasharray: 0.5,0.825; stroke-dashoffset: 0; stroke: #ffffff; stroke-width: 0.5"/>
     </g>
     <g id="line2d_2"/>
     <g id="text_1">
      <!-- −3 -->
      <g style="fill: #262626" transform="translate(54.732495 331.918437) scale(0.1 -0.1)">
       <defs>
        <path id="DejaVuSans-2212" d="M 678 2272 
L 4684 2272 
L 4684 1741 
L 678 1741 
L 678 2272 
z
" transform="scale(0.015625)"/>
        <path id="DejaVuSans-33" d="M 2597 2516 
Q 3050 2419 3304 2112 
Q 3559 1806 3559 1356 
Q 3559 666 3084 287 
Q 2609 -91 1734 -91 
Q 1441 -91 1130 -33 
Q 819 25 488 141 
L 488 750 
Q 750 597 1062 519 
Q 1375 441 1716 441 
Q 2309 441 2620 675 
Q 2931 909 2931 1356 
Q 2931 1769 2642 2001 
Q 2353 2234 1838 2234 
L 1294 2234 
L 1294 2753 
L 1863 2753 
Q 2328 2753 2575 2939 
Q 2822 3125 2822 3475 
Q 2822 3834 2567 4026 
Q 2313 4219 1838 4219 
Q 1578 4219 1281 4162 
Q 984 4106 628 3988 
L 628 4550 
Q 988 4650 1302 4700 
Q 1616 4750 1894 4750 
Q 2613 4750 3031 4423 
Q 3450 4097 3450 3541 
Q 3450 3153 3228 2886 
Q 3006 2619 2597 2516 
z
" transform="scale(0.015625)"/>
       </defs>
       <use xlink:href="#DejaVuSans-2212"/>
       <use xlink:href="#DejaVuSans-33" transform="translate(83.789062 0)"/>
      </g>
     </g>
    </g>
    <g id="xtick_2">
     <g id="line2d_3">
      <path d="M 111.125816 317.32 
L 111.125816 26.88 
" clip-path="url(#p0b392d31c9)" style="fill: none; stroke-dasharray: 0.5,0.825; stroke-dashoffset: 0; stroke: #ffffff; stroke-width: 0.5"/>
     </g>
     <g id="line2d_4"/>
     <g id="text_2">
      <!-- −2 -->
      <g style="fill: #262626" transform="translate(103.754722 331.918437) scale(0.1 -0.1)">
       <defs>
        <path id="DejaVuSans-32" d="M 1228 531 
L 3431 531 
L 3431 0 
L 469 0 
L 469 531 
Q 828 903 1448 1529 
Q 2069 2156 2228 2338 
Q 2531 2678 2651 2914 
Q 2772 3150 2772 3378 
Q 2772 3750 2511 3984 
Q 2250 4219 1831 4219 
Q 1534 4219 1204 4116 
Q 875 4013 500 3803 
L 500 4441 
Q 881 4594 1212 4672 
Q 1544 4750 1819 4750 
Q 2544 4750 2975 4387 
Q 3406 4025 3406 3419 
Q 3406 3131 3298 2873 
Q 3191 2616 2906 2266 
Q 2828 2175 2409 1742 
Q 1991 1309 1228 531 
z
" transform="scale(0.015625)"/>
       </defs>
       <use xlink:href="#DejaVuSans-2212"/>
       <use xlink:href="#DejaVuSans-32" transform="translate(83.789062 0)"/>
      </g>
     </g>
    </g>
    <g id="xtick_3">
     <g id="line2d_5">
      <path d="M 160.148043 317.32 
L 160.148043 26.88 
" clip-path="url(#p0b392d31c9)" style="fill: none; stroke-dasharray: 0.5,0.825; stroke-dashoffset: 0; stroke: #ffffff; stroke-width: 0.5"/>
     </g>
     <g id="line2d_6"/>
     <g id="text_3">
      <!-- −1 -->
      <g style="fill: #262626" transform="translate(152.776949 331.918437) scale(0.1 -0.1)">
       <defs>
        <path id="DejaVuSans-31" d="M 794 531 
L 1825 531 
L 1825 4091 
L 703 3866 
L 703 4441 
L 1819 4666 
L 2450 4666 
L 2450 531 
L 3481 531 
L 3481 0 
L 794 0 
L 794 531 
z
" transform="scale(0.015625)"/>
       </defs>
       <use xlink:href="#DejaVuSans-2212"/>
       <use xlink:href="#DejaVuSans-31" transform="translate(83.789062 0)"/>
      </g>
     </g>
    </g>
    <g id="xtick_4">
     <g id="line2d_7">
      <path d="M 209.17027 317.32 
L 209.17027 26.88 
" clip-path="url(#p0b392d31c9)" style="fill: none; stroke-dasharray: 0.5,0.825; stroke-dashoffset: 0; stroke: #ffffff; stroke-width: 0.5"/>
     </g>
     <g id="line2d_8"/>
     <g id="text_4">
      <!-- 0 -->
      <g style="fill: #262626" transform="translate(205.98902 331.918437) scale(0.1 -0.1)">
       <defs>
        <path id="DejaVuSans-30" d="M 2034 4250 
Q 1547 4250 1301 3770 
Q 1056 3291 1056 2328 
Q 1056 1369 1301 889 
Q 1547 409 2034 409 
Q 2525 409 2770 889 
Q 3016 1369 3016 2328 
Q 3016 3291 2770 3770 
Q 2525 4250 2034 4250 
z
M 2034 4750 
Q 2819 4750 3233 4129 
Q 3647 3509 3647 2328 
Q 3647 1150 3233 529 
Q 2819 -91 2034 -91 
Q 1250 -91 836 529 
Q 422 1150 422 2328 
Q 422 3509 836 4129 
Q 1250 4750 2034 4750 
z
" transform="scale(0.015625)"/>
       </defs>
       <use xlink:href="#DejaVuSans-30"/>
      </g>
     </g>
    </g>
    <g id="xtick_5">
     <g id="line2d_9">
      <path d="M 258.192496 317.32 
L 258.192496 26.88 
" clip-path="url(#p0b392d31c9)" style="fill: none; stroke-dasharray: 0.5,0.825; stroke-dashoffset: 0; stroke: #ffffff; stroke-width: 0.5"/>
     </g>
     <g id="line2d_10"/>
     <g id="text_5">
      <!-- 1 -->
      <g style="fill: #262626" transform="translate(255.011246 331.918437) scale(0.1 -0.1)">
       <use xlink:href="#DejaVuSans-31"/>
      </g>
     </g>
    </g>
    <g id="xtick_6">
     <g id="line2d_11">
      <path d="M 307.214723 317.32 
L 307.214723 26.88 
" clip-path="url(#p0b392d31c9)" style="fill: none; stroke-dasharray: 0.5,0.825; stroke-dashoffset: 0; stroke: #ffffff; stroke-width: 0.5"/>
     </g>
     <g id="line2d_12"/>
     <g id="text_6">
      <!-- 2 -->
      <g style="fill: #262626" transform="translate(304.033473 331.918437) scale(0.1 -0.1)">
       <use xlink:href="#DejaVuSans-32"/>
      </g>
     </g>
    </g>
    <g id="xtick_7">
     <g id="line2d_13">
      <path d="M 356.23695 317.32 
L 356.23695 26.88 
" clip-path="url(#p0b392d31c9)" style="fill: none; stroke-dasharray: 0.5,0.825; stroke-dashoffset: 0; stroke: #ffffff; stroke-width: 0.5"/>
     </g>
     <g id="line2d_14"/>
     <g id="text_7">
      <!-- 3 -->
      <g style="fill: #262626" transform="translate(353.0557 331.918437) scale(0.1 -0.1)">
       <use xlink:href="#DejaVuSans-33"/>
      </g>
     </g>
    </g>
    <g id="text_8">
     <!-- Along-track [km] -->
     <g style="fill: #262626" transform="translate(162.93763 346.356406) scale(0.11 -0.11)">
      <defs>
       <path id="DejaVuSans-41" d="M 2188 4044 
L 1331 1722 
L 3047 1722 
L 2188 4044 
z
M 1831 4666 
L 2547 4666 
L 4325 0 
L 3669 0 
L 3244 1197 
L 1141 1197 
L 716 0 
L 50 0 
L 1831 4666 
z
" transform="scale(0.015625)"/>
       <path id="DejaVuSans-6c" d="M 603 4863 
L 1178 4863 
L 1178 0 
L 603 0 
L 603 4863 
z
" transform="scale(0.015625)"/>
       <path id="DejaVuSans-6f" d="M 1959 3097 
Q 1497 3097 1228 2736 
Q 959 2375 959 1747 
Q 959 1119 1226 758 
Q 1494 397 1959 397 
Q 2419 397 2687 759 
Q 2956 1122 2956 1747 
Q 2956 2369 2687 2733 
Q 2419 3097 1959 3097 
z
M 1959 3584 
Q 2709 3584 3137 3096 
Q 3566 2609 3566 1747 
Q 3566 888 3137 398 
Q 2709 -91 1959 -91 
Q 1206 -91 779 398 
Q 353 888 353 1747 
Q 353 2609 779 3096 
Q 1206 3584 1959 3584 
z
" transform="scale(0.015625)"/>
       <path id="DejaVuSans-6e" d="M 3513 2113 
L 3513 0 
L 2938 0 
L 2938 2094 
Q 2938 2591 2744 2837 
Q 2550 3084 2163 3084 
Q 1697 3084 1428 2787 
Q 1159 2491 1159 1978 
L 1159 0 
L 581 0 
L 581 3500 
L 1159 3500 
L 1159 2956 
Q 1366 3272 1645 3428 
Q 1925 3584 2291 3584 
Q 2894 3584 3203 3211 
Q 3513 2838 3513 2113 
z
" transform="scale(0.015625)"/>
       <path id="DejaVuSans-67" d="M 2906 1791 
Q 2906 2416 2648 2759 
Q 2391 3103 1925 3103 
Q 1463 3103 1205 2759 
Q 947 2416 947 1791 
Q 947 1169 1205 825 
Q 1463 481 1925 481 
Q 2391 481 2648 825 
Q 2906 1169 2906 1791 
z
M 3481 434 
Q 3481 -459 3084 -895 
Q 2688 -1331 1869 -1331 
Q 1566 -1331 1297 -1286 
Q 1028 -1241 775 -1147 
L 775 -588 
Q 1028 -725 1275 -790 
Q 1522 -856 1778 -856 
Q 2344 -856 2625 -561 
Q 2906 -266 2906 331 
L 2906 616 
Q 2728 306 2450 153 
Q 2172 0 1784 0 
Q 1141 0 747 490 
Q 353 981 353 1791 
Q 353 2603 747 3093 
Q 1141 3584 1784 3584 
Q 2172 3584 2450 3431 
Q 2728 3278 2906 2969 
L 2906 3500 
L 3481 3500 
L 3481 434 
z
" transform="scale(0.015625)"/>
       <path id="DejaVuSans-2d" d="M 313 2009 
L 1997 2009 
L 1997 1497 
L 313 1497 
L 313 2009 
z
" transform="scale(0.015625)"/>
       <path id="DejaVuSans-74" d="M 1172 4494 
L 1172 3500 
L 2356 3500 
L 2356 3053 
L 1172 3053 
L 1172 1153 
Q 1172 725 1289 603 
Q 1406 481 1766 481 
L 2356 481 
L 2356 0 
L 1766 0 
Q 1100 0 847 248 
Q 594 497 594 1153 
L 594 3053 
L 172 3053 
L 172 3500 
L 594 3500 
L 594 4494 
L 1172 4494 
z
" transform="scale(0.015625)"/>
       <path id="DejaVuSans-72" d="M 2631 2963 
Q 2534 3019 2420 3045 
Q 2306 3072 2169 3072 
Q 1681 3072 1420 2755 
Q 1159 2438 1159 1844 
L 1159 0 
L 581 0 
L 581 3500 
L 1159 3500 
L 1159 2956 
Q 1341 3275 1631 3429 
Q 1922 3584 2338 3584 
Q 2397 3584 2469 3576 
Q 2541 3569 2628 3553 
L 2631 2963 
z
" transform="scale(0.015625)"/>
       <path id="DejaVuSans-61" d="M 2194 1759 
Q 1497 1759 1228 1600 
Q 959 1441 959 1056 
Q 959 750 1161 570 
Q 1363 391 1709 391 
Q 2188 391 2477 730 
Q 2766 1069 2766 1631 
L 2766 1759 
L 2194 1759 
z
M 3341 1997 
L 3341 0 
L 2766 0 
L 2766 531 
Q 2569 213 2275 61 
Q 1981 -91 1556 -91 
Q 1019 -91 701 211 
Q 384 513 384 1019 
Q 384 1609 779 1909 
Q 1175 2209 1959 2209 
L 2766 2209 
L 2766 2266 
Q 2766 2663 2505 2880 
Q 2244 3097 1772 3097 
Q 1472 3097 1187 3025 
Q 903 2953 641 2809 
L 641 3341 
Q 956 3463 1253 3523 
Q 1550 3584 1831 3584 
Q 2591 3584 2966 3190 
Q 3341 2797 3341 1997 
z
" transform="scale(0.015625)"/>
       <path id="DejaVuSans-63" d="M 3122 3366 
L 3122 2828 
Q 2878 2963 2633 3030 
Q 2388 3097 2138 3097 
Q 1578 3097 1268 2742 
Q 959 2388 959 1747 
Q 959 1106 1268 751 
Q 1578 397 2138 397 
Q 2388 397 2633 464 
Q 2878 531 3122 666 
L 3122 134 
Q 2881 22 2623 -34 
Q 2366 -91 2075 -91 
Q 1284 -91 818 406 
Q 353 903 353 1747 
Q 353 2603 823 3093 
Q 1294 3584 2113 3584 
Q 2378 3584 2631 3529 
Q 2884 3475 3122 3366 
z
" transform="scale(0.015625)"/>
       <path id="DejaVuSans-6b" d="M 581 4863 
L 1159 4863 
L 1159 1991 
L 2875 3500 
L 3609 3500 
L 1753 1863 
L 3688 0 
L 2938 0 
L 1159 1709 
L 1159 0 
L 581 0 
L 581 4863 
z
" transform="scale(0.015625)"/>
       <path id="DejaVuSans-20" transform="scale(0.015625)"/>
       <path id="DejaVuSans-5b" d="M 550 4863 
L 1875 4863 
L 1875 4416 
L 1125 4416 
L 1125 -397 
L 1875 -397 
L 1875 -844 
L 550 -844 
L 550 4863 
z
" transform="scale(0.015625)"/>
       <path id="DejaVuSans-6d" d="M 3328 2828 
Q 3544 3216 3844 3400 
Q 4144 3584 4550 3584 
Q 5097 3584 5394 3201 
Q 5691 2819 5691 2113 
L 5691 0 
L 5113 0 
L 5113 2094 
Q 5113 2597 4934 2840 
Q 4756 3084 4391 3084 
Q 3944 3084 3684 2787 
Q 3425 2491 3425 1978 
L 3425 0 
L 2847 0 
L 2847 2094 
Q 2847 2600 2669 2842 
Q 2491 3084 2119 3084 
Q 1678 3084 1418 2786 
Q 1159 2488 1159 1978 
L 1159 0 
L 581 0 
L 581 3500 
L 1159 3500 
L 1159 2956 
Q 1356 3278 1631 3431 
Q 1906 3584 2284 3584 
Q 2666 3584 2933 3390 
Q 3200 3197 3328 2828 
z
" transform="scale(0.015625)"/>
       <path id="DejaVuSans-5d" d="M 1947 4863 
L 1947 -844 
L 622 -844 
L 622 -397 
L 1369 -397 
L 1369 4416 
L 622 4416 
L 622 4863 
L 1947 4863 
z
" transform="scale(0.015625)"/>
      </defs>
      <use xlink:href="#DejaVuSans-41"/>
      <use xlink:href="#DejaVuSans-6c" transform="translate(68.408203 0)"/>
      <use xlink:href="#DejaVuSans-6f" transform="translate(96.191406 0)"/>
      <use xlink:href="#DejaVuSans-6e" transform="translate(157.373047 0)"/>
      <use xlink:href="#DejaVuSans-67" transform="translate(220.751953 0)"/>
      <use xlink:href="#DejaVuSans-2d" transform="translate(284.228516 0)"/>
      <use xlink:href="#DejaVuSans-74" transform="translate(320.3125 0)"/>
      <use xlink:href="#DejaVuSans-72" transform="translate(359.521484 0)"/>
      <use xlink:href="#DejaVuSans-61" transform="translate(400.634766 0)"/>
      <use xlink:href="#DejaVuSans-63" transform="translate(461.914062 0)"/>
      <use xlink:href="#DejaVuSans-6b" transform="translate(516.894531 0)"/>
      <use xlink:href="#DejaVuSans-20" transform="translate(574.804688 0)"/>
      <use xlink:href="#DejaVuSans-5b" transform="translate(606.591797 0)"/>
      <use xlink:href="#DejaVuSans-6b" transform="translate(645.605469 0)"/>
      <use xlink:href="#DejaVuSans-6d" transform="translate(703.515625 0)"/>
      <use xlink:href="#DejaVuSans-5d" transform="translate(800.927734 0)"/>
     </g>
    </g>
   </g>
   <g id="matplotlib.axis_2">
    <g id="ytick_1">
     <g id="line2d_15">
      <path d="M 47.36 266.862931 
L 370.906667 266.862931 
" clip-path="url(#p0b392d31c9)" style="fill: none; stroke-dasharray: 0.5,0.825; stroke-dashoffset: 0; stroke: #ffffff; stroke-width: 0.5"/>
     </g>
     <g id="line2d_16"/>
     <g id="text_9">
      <!-- −1 -->
      <g style="fill: #262626" transform="translate(25.617813 270.662149) scale(0.1 -0.1)">
       <use xlink:href="#DejaVuSans-2212"/>
       <use xlink:href="#DejaVuSans-31" transform="translate(83.789062 0)"/>
      </g>
     </g>
    </g>
    <g id="ytick_2">
     <g id="line2d_17">
      <path d="M 47.36 216.061863 
L 370.906667 216.061863 
" clip-path="url(#p0b392d31c9)" style="fill: none; stroke-dasharray: 0.5,0.825; stroke-dashoffset: 0; stroke: #ffffff; stroke-width: 0.5"/>
     </g>
     <g id="line2d_18"/>
     <g id="text_10">
      <!-- 0 -->
      <g style="fill: #262626" transform="translate(33.9975 219.861081) scale(0.1 -0.1)">
       <use xlink:href="#DejaVuSans-30"/>
      </g>
     </g>
    </g>
    <g id="ytick_3">
     <g id="line2d_19">
      <path d="M 47.36 165.260795 
L 370.906667 165.260795 
" clip-path="url(#p0b392d31c9)" style="fill: none; stroke-dasharray: 0.5,0.825; stroke-dashoffset: 0; stroke: #ffffff; stroke-width: 0.5"/>
     </g>
     <g id="line2d_20"/>
     <g id="text_11">
      <!-- 1 -->
      <g style="fill: #262626" transform="translate(33.9975 169.060014) scale(0.1 -0.1)">
       <use xlink:href="#DejaVuSans-31"/>
      </g>
     </g>
    </g>
    <g id="ytick_4">
     <g id="line2d_21">
      <path d="M 47.36 114.459727 
L 370.906667 114.459727 
" clip-path="url(#p0b392d31c9)" style="fill: none; stroke-dasharray: 0.5,0.825; stroke-dashoffset: 0; stroke: #ffffff; stroke-width: 0.5"/>
     </g>
     <g id="line2d_22"/>
     <g id="text_12">
      <!-- 2 -->
      <g style="fill: #262626" transform="translate(33.9975 118.258946) scale(0.1 -0.1)">
       <use xlink:href="#DejaVuSans-32"/>
      </g>
     </g>
    </g>
    <g id="ytick_5">
     <g id="line2d_23">
      <path d="M 47.36 63.658659 
L 370.906667 63.658659 
" clip-path="url(#p0b392d31c9)" style="fill: none; stroke-dasharray: 0.5,0.825; stroke-dashoffset: 0; stroke: #ffffff; stroke-width: 0.5"/>
     </g>
     <g id="line2d_24"/>
     <g id="text_13">
      <!-- 3 -->
      <g style="fill: #262626" transform="translate(33.9975 67.457878) scale(0.1 -0.1)">
       <use xlink:href="#DejaVuSans-33"/>
      </g>
     </g>
    </g>
    <g id="text_14">
     <!-- Radial [km] -->
     <g style="fill: #262626" transform="translate(19.330156 203.668281) rotate(-90) scale(0.11 -0.11)">
      <defs>
       <path id="DejaVuSans-52" d="M 2841 2188 
Q 3044 2119 3236 1894 
Q 3428 1669 3622 1275 
L 4263 0 
L 3584 0 
L 2988 1197 
Q 2756 1666 2539 1819 
Q 2322 1972 1947 1972 
L 1259 1972 
L 1259 0 
L 628 0 
L 628 4666 
L 2053 4666 
Q 2853 4666 3247 4331 
Q 3641 3997 3641 3322 
Q 3641 2881 3436 2590 
Q 3231 2300 2841 2188 
z
M 1259 4147 
L 1259 2491 
L 2053 2491 
Q 2509 2491 2742 2702 
Q 2975 2913 2975 3322 
Q 2975 3731 2742 3939 
Q 2509 4147 2053 4147 
L 1259 4147 
z
" transform="scale(0.015625)"/>
       <path id="DejaVuSans-64" d="M 2906 2969 
L 2906 4863 
L 3481 4863 
L 3481 0 
L 2906 0 
L 2906 525 
Q 2725 213 2448 61 
Q 2172 -91 1784 -91 
Q 1150 -91 751 415 
Q 353 922 353 1747 
Q 353 2572 751 3078 
Q 1150 3584 1784 3584 
Q 2172 3584 2448 3432 
Q 2725 3281 2906 2969 
z
M 947 1747 
Q 947 1113 1208 752 
Q 1469 391 1925 391 
Q 2381 391 2643 752 
Q 2906 1113 2906 1747 
Q 2906 2381 2643 2742 
Q 2381 3103 1925 3103 
Q 1469 3103 1208 2742 
Q 947 2381 947 1747 
z
" transform="scale(0.015625)"/>
       <path id="DejaVuSans-69" d="M 603 3500 
L 1178 3500 
L 1178 0 
L 603 0 
L 603 3500 
z
M 603 4863 
L 1178 4863 
L 1178 4134 
L 603 4134 
L 603 4863 
z
" transform="scale(0.015625)"/>
      </defs>
      <use xlink:href="#DejaVuSans-52"/>
      <use xlink:href="#DejaVuSans-61" transform="translate(67.232422 0)"/>
      <use xlink:href="#DejaVuSans-64" transform="translate(128.511719 0)"/>
      <use xlink:href="#DejaVuSans-69" transform="translate(191.988281 0)"/>
      <use xlink:href="#DejaVuSans-61" transform="translate(219.771484 0)"/>
      <use xlink:href="#DejaVuSans-6c" transform="translate(281.050781 0)"/>
      <use xlink:href="#DejaVuSans-20" transform="translate(308.833984 0)"/>
      <use xlink:href="#DejaVuSans-5b" transform="translate(340.621094 0)"/>
      <use xlink:href="#DejaVuSans-6b" transform="translate(379.634766 0)"/>
      <use xlink:href="#DejaVuSans-6d" transform="translate(437.544922 0)"/>
      <use xlink:href="#DejaVuSans-5d" transform="translate(534.957031 0)"/>
     </g>
    </g>
   </g>
   <g id="PathCollection_1">
    <defs>
     <path id="m8fd287142e" d="M 0 3.5 
C 0.928211 3.5 1.81853 3.131218 2.474874 2.474874 
C 3.131218 1.81853 3.5 0.928211 3.5 0 
C 3.5 -0.928211 3.131218 -1.81853 2.474874 -2.474874 
C 1.81853 -3.131218 0.928211 -3.5 0 -3.5 
C -0.928211 -3.5 -1.81853 -3.131218 -2.474874 -2.474874 
C -3.131218 -1.81853 -3.5 -0.928211 -3.5 0 
C -3.5 0.928211 -3.131218 1.81853 -2.474874 2.474874 
C -1.81853 3.131218 -0.928211 3.5 0 3.5 
z
" style="stroke: #4c72b0; stroke-width: 0.3"/>
    </defs>
    <g clip-path="url(#p0b392d31c9)">
     <use xlink:href="#m8fd287142e" x="62.066667" y="303.985588" style="fill: #4c72b0; stroke: #4c72b0; stroke-width: 0.3"/>
    </g>
   </g>
   <g id="PathCollection_2">
    <defs>
     <path id="m3e68c745e3" d="M 0 3.5 
C 0.928211 3.5 1.81853 3.131218 2.474874 2.474874 
C 3.131218 1.81853 3.5 0.928211 3.5 0 
C 3.5 -0.928211 3.131218 -1.81853 2.474874 -2.474874 
C 1.81853 -3.131218 0.928211 -3.5 0 -3.5 
C -0.928211 -3.5 -1.81853 -3.131218 -2.474874 -2.474874 
C -3.131218 -1.81853 -3.5 -0.928211 -3.5 0 
C -3.5 0.928211 -3.131218 1.81853 -2.474874 2.474874 
C -1.81853 3.131218 -0.928211 3.5 0 3.5 
z
" style="stroke: #55a868; stroke-width: 0.3"/>
    </defs>
    <g clip-path="url(#p0b392d31c9)">
     <use xlink:href="#m3e68c745e3" x="356.2" y="304.118182" style="fill: #55a868; stroke: #55a868; stroke-width: 0.3"/>
    </g>
   </g>
   <g id="PathCollection_3">
    <defs>
     <path id="m5d18aeaddd" d="M 0 3.5 
C 0.928211 3.5 1.81853 3.131218 2.474874 2.474874 
C 3.131218 1.81853 3.5 0.928211 3.5 0 
C 3.5 -0.928211 3.131218 -1.81853 2.474874 -2.474874 
C 1.81853 -3.131218 0.928211 -3.5 0 -3.5 
C -0.928211 -3.5 -1.81853 -3.131218 -2.474874 -2.474874 
C -3.131218 -1.81853 -3.5 -0.928211 -3.5 0 
C -3.5 0.928211 -3.131218 1.81853 -2.474874 2.474874 
C -1.81853 3.131218 -0.928211 3.5 0 3.5 
z
" style="stroke: #c44e52; stroke-width: 0.3"/>
    </defs>
    <g clip-path="url(#p0b392d31c9)">
     <use xlink:href="#m5d18aeaddd" x="209.244142" y="40.081818" style="fill: #c44e52; stroke: #c44e52; stroke-width: 0.3"/>
    </g>
   </g>
   <g id="patch_3">
    <path d="M 47.36 317.32 
L 47.36 26.88 
" style="fill: none"/>
   </g>
   <g id="patch_4">
    <path d="M 370.906667 317.32 
L 370.906667 26.88 
" style="fill: none"/>
   </g>
   <g id="patch_5">
    <path d="M 47.36 317.32 
L 370.906667 317.32 
" style="fill: none"/>
   </g>
   <g id="patch_6">
    <path d="M 47.36 26.88 
L 370.906667 26.88 
" style="fill: none"/>
   </g>
   <g id="text_15">
    <!-- Centred frame -90 s -->
    <g style="fill: #262626" transform="translate(148.826771 20.88) scale(0.12 -0.12)">
     <defs>
      <path id="DejaVuSans-43" d="M 4122 4306 
L 4122 3641 
Q 3803 3938 3442 4084 
Q 3081 4231 2675 4231 
Q 1875 4231 1450 3742 
Q 1025 3253 1025 2328 
Q 1025 1406 1450 917 
Q 1875 428 2675 428 
Q 3081 428 3442 575 
Q 3803 722 4122 1019 
L 4122 359 
Q 3791 134 3420 21 
Q 3050 -91 2638 -91 
Q 1578 -91 968 557 
Q 359 1206 359 2328 
Q 359 3453 968 4101 
Q 1578 4750 2638 4750 
Q 3056 4750 3426 4639 
Q 3797 4528 4122 4306 
z
" transform="scale(0.015625)"/>
      <path id="DejaVuSans-65" d="M 3597 1894 
L 3597 1613 
L 953 1613 
Q 991 1019 1311 708 
Q 1631 397 2203 397 
Q 2534 397 2845 478 
Q 3156 559 3463 722 
L 3463 178 
Q 3153 47 2828 -22 
Q 2503 -91 2169 -91 
Q 1331 -91 842 396 
Q 353 884 353 1716 
Q 353 2575 817 3079 
Q 1281 3584 2069 3584 
Q 2775 3584 3186 3129 
Q 3597 2675 3597 1894 
z
M 3022 2063 
Q 3016 2534 2758 2815 
Q 2500 3097 2075 3097 
Q 1594 3097 1305 2825 
Q 1016 2553 972 2059 
L 3022 2063 
z
" transform="scale(0.015625)"/>
      <path id="DejaVuSans-66" d="M 2375 4863 
L 2375 4384 
L 1825 4384 
Q 1516 4384 1395 4259 
Q 1275 4134 1275 3809 
L 1275 3500 
L 2222 3500 
L 2222 3053 
L 1275 3053 
L 1275 0 
L 697 0 
L 697 3053 
L 147 3053 
L 147 3500 
L 697 3500 
L 697 3744 
Q 697 4328 969 4595 
Q 1241 4863 1831 4863 
L 2375 4863 
z
" transform="scale(0.015625)"/>
      <path id="DejaVuSans-39" d="M 703 97 
L 703 672 
Q 941 559 1184 500 
Q 1428 441 1663 441 
Q 2288 441 2617 861 
Q 2947 1281 2994 2138 
Q 2813 1869 2534 1725 
Q 2256 1581 1919 1581 
Q 1219 1581 811 2004 
Q 403 2428 403 3163 
Q 403 3881 828 4315 
Q 1253 4750 1959 4750 
Q 2769 4750 3195 4129 
Q 3622 3509 3622 2328 
Q 3622 1225 3098 567 
Q 2575 -91 1691 -91 
Q 1453 -91 1209 -44 
Q 966 3 703 97 
z
M 1959 2075 
Q 2384 2075 2632 2365 
Q 2881 2656 2881 3163 
Q 2881 3666 2632 3958 
Q 2384 4250 1959 4250 
Q 1534 4250 1286 3958 
Q 1038 3666 1038 3163 
Q 1038 2656 1286 2365 
Q 1534 2075 1959 2075 
z
" transform="scale(0.015625)"/>
      <path id="DejaVuSans-73" d="M 2834 3397 
L 2834 2853 
Q 2591 2978 2328 3040 
Q 2066 3103 1784 3103 
Q 1356 3103 1142 2972 
Q 928 2841 928 2578 
Q 928 2378 1081 2264 
Q 1234 2150 1697 2047 
L 1894 2003 
Q 2506 1872 2764 1633 
Q 3022 1394 3022 966 
Q 3022 478 2636 193 
Q 2250 -91 1575 -91 
Q 1294 -91 989 -36 
Q 684 19 347 128 
L 347 722 
Q 666 556 975 473 
Q 1284 391 1588 391 
Q 1994 391 2212 530 
Q 2431 669 2431 922 
Q 2431 1156 2273 1281 
Q 2116 1406 1581 1522 
L 1381 1569 
Q 847 1681 609 1914 
Q 372 2147 372 2553 
Q 372 3047 722 3315 
Q 1072 3584 1716 3584 
Q 2034 3584 2315 3537 
Q 2597 3491 2834 3397 
z
" transform="scale(0.015625)"/>
     </defs>
     <use xlink:href="#DejaVuSans-43"/>
     <use xlink:href="#DejaVuSans-65" transform="translate(69.824219 0)"/>
     <use xlink:href="#DejaVuSans-6e" transform="translate(131.347656 0)"/>
     <use xlink:href="#DejaVuSans-74" transform="translate(194.726562 0)"/>
     <use xlink:href="#DejaVuSans-72" transform="translate(233.935547 0)"/>
     <use xlink:href="#DejaVuSans-65" transform="translate(272.798828 0)"/>
     <use xlink:href="#DejaVuSans-64" transform="translate(334.322266 0)"/>
     <use xlink:href="#DejaVuSans-20" transform="translate(397.798828 0)"/>
     <use xlink:href="#DejaVuSans-66" transform="translate(429.585938 0)"/>
     <use xlink:href="#DejaVuSans-72" transform="translate(464.791016 0)"/>
     <use xlink:href="#DejaVuSans-61" transform="translate(505.904297 0)"/>
     <use xlink:href="#DejaVuSans-6d" transform="translate(567.183594 0)"/>
     <use xlink:href="#DejaVuSans-65" transform="translate(664.595703 0)"/>
     <use xlink:href="#DejaVuSans-20" transform="translate(726.119141 0)"/>
     <use xlink:href="#DejaVuSans-2d" transform="translate(757.90625 0)"/>
     <use xlink:href="#DejaVuSans-39" transform="translate(793.990234 0)"/>
     <use xlink:href="#DejaVuSans-30" transform="translate(857.613281 0)"/>
     <use xlink:href="#DejaVuSans-20" transform="translate(921.236328 0)"/>
     <use xlink:href="#DejaVuSans-73" transform="translate(953.023438 0)"/>
    </g>
   </g>
   <g id="legend_1">
    <g id="PathCollection_4">
     <g>
      <use xlink:href="#m8fd287142e" x="325.285599" y="38.519873" style="fill: #4c72b0; stroke: #4c72b0; stroke-width: 0.3"/>
     </g>
    </g>
    <g id="text_16">
     <!-- SAT-1 -->
     <g style="fill: #262626" transform="translate(340.279599 40.706498) scale(0.0833 -0.0833)">
      <defs>
       <path id="DejaVuSans-53" d="M 3425 4513 
L 3425 3897 
Q 3066 4069 2747 4153 
Q 2428 4238 2131 4238 
Q 1616 4238 1336 4038 
Q 1056 3838 1056 3469 
Q 1056 3159 1242 3001 
Q 1428 2844 1947 2747 
L 2328 2669 
Q 3034 2534 3370 2195 
Q 3706 1856 3706 1288 
Q 3706 609 3251 259 
Q 2797 -91 1919 -91 
Q 1588 -91 1214 -16 
Q 841 59 441 206 
L 441 856 
Q 825 641 1194 531 
Q 1563 422 1919 422 
Q 2459 422 2753 634 
Q 3047 847 3047 1241 
Q 3047 1584 2836 1778 
Q 2625 1972 2144 2069 
L 1759 2144 
Q 1053 2284 737 2584 
Q 422 2884 422 3419 
Q 422 4038 858 4394 
Q 1294 4750 2059 4750 
Q 2388 4750 2728 4690 
Q 3069 4631 3425 4513 
z
" transform="scale(0.015625)"/>
       <path id="DejaVuSans-54" d="M -19 4666 
L 3928 4666 
L 3928 4134 
L 2272 4134 
L 2272 0 
L 1638 0 
L 1638 4134 
L -19 4134 
L -19 4666 
z
" transform="scale(0.015625)"/>
      </defs>
      <use xlink:href="#DejaVuSans-53"/>
      <use xlink:href="#DejaVuSans-41" transform="translate(65.351562 0)"/>
      <use xlink:href="#DejaVuSans-54" transform="translate(126.009766 0)"/>
      <use xlink:href="#DejaVuSans-2d" transform="translate(177.96875 0)"/>
      <use xlink:href="#DejaVuSans-31" transform="translate(214.052734 0)"/>
     </g>
    </g>
    <g id="PathCollection_5">
     <g>
      <use xlink:href="#m3e68c745e3" x="325.285599" y="50.746752" style="fill: #55a868; stroke: #55a868; stroke-width: 0.3"/>
     </g>
    </g>
    <g id="text_17">
     <!-- SAT-2 -->
     <g style="fill: #262626" transform="translate(340.279599 52.933377) scale(0.0833 -0.0833)">
      <use xlink:href="#DejaVuSans-53"/>
      <use xlink:href="#DejaVuSans-41" transform="translate(65.351562 0)"/>
      <use xlink:href="#DejaVuSans-54" transform="translate(126.009766 0)"/>
      <use xlink:href="#DejaVuSans-2d" transform="translate(177.96875 0)"/>
      <use xlink:href="#DejaVuSans-32" transform="translate(214.052734 0)"/>
     </g>
    </g>
    <g id="PathCollection_6">
     <g>
      <use xlink:href="#m5d18aeaddd" x="325.285599" y="62.97363" style="fill: #c44e52; stroke: #c44e52; stroke-width: 0.3"/>
     </g>
    </g>
    <g id="text_18">
     <!-- SAT-3 -->
     <g style="fill: #262626" transform="translate(340.279599 65.160255) scale(0.0833 -0.0833)">
      <use xlink:href="#DejaVuSans-53"/>
      <use xlink:href="#DejaVuSans-41" transform="translate(65.351562 0)"/>
      <use xlink:href="#DejaVuSans-54" transform="translate(126.009766 0)"/>
      <use xlink:href="#DejaVuSans-2d" transform="translate(177.96875 0)"/>
      <use xlink:href="#DejaVuSans-33" transform="translate(214.052734 0)"/>
     </g>
    </g>
   </g>
  </g>
  <g id="axes_2">
   <g id="patch_7">
    <path d="M 396.506667 317.32 
L 720.053333 317.32 
L 720.053333 26.88 
L 396.506667 26.88 
z
" style="fill: #eaeaf2"/>
   </g>
   <g id="matplotlib.axis_3">
    <g id="xtick_8">
     <g id="line2d_25">
      <path d="M 411.250256 317.32 
L 411.250256 26.88 
" clip-path="url(#p35de2d516c)" style="fill: none; stroke-dasharray: 0.5,0.825; stroke-dashoffset: 0; stroke: #ffffff; stroke-width: 0.5"/>
     </g>
     <g id="line2d_26"/>
     <g id="text_19">
      <!-- −3 -->
      <g style="fill: #262626" transform="translate(403.879162 331.918437) scale(0.1 -0.1)">
       <use xlink:href="#DejaVuSans-2212"/>
       <use xlink:href="#DejaVuSans-33" transform="translate(83.789062 0)"/>
      </g>
     </g>
    </g>
    <g id="xtick_9">
     <g id="line2d_27">
      <path d="M 460.272482 317.32 
L 460.272482 26.88 
" clip-path="url(#p35de2d516c)" style="fill: none; stroke-dasharray: 0.5,0.825; stroke-dashoffset: 0; stroke: #ffffff; stroke-width: 0.5"/>
     </g>
     <g id="line2d_28"/>
     <g id="text_20">
      <!-- −2 -->
      <g style="fill: #262626" transform="translate(452.901389 331.918437) scale(0.1 -0.1)">
       <use xlink:href="#DejaVuSans-2212"/>
       <use xlink:href="#DejaVuSans-32" transform="translate(83.789062 0)"/>
      </g>
     </g>
    </g>
    <g id="xtick_10">
     <g id="line2d_29">
      <path d="M 509.294709 317.32 
L 509.294709 26.88 
" clip-path="url(#p35de2d516c)" style="fill: none; stroke-dasharray: 0.5,0.825; stroke-dashoffset: 0; stroke: #ffffff; stroke-width: 0.5"/>
     </g>
     <g id="line2d_30"/>
     <g id="text_21">
      <!-- −1 -->
      <g style="fill: #262626" transform="translate(501.923616 331.918437) scale(0.1 -0.1)">
       <use xlink:href="#DejaVuSans-2212"/>
       <use xlink:href="#DejaVuSans-31" transform="translate(83.789062 0)"/>
      </g>
     </g>
    </g>
    <g id="xtick_11">
     <g id="line2d_31">
      <path d="M 558.316936 317.32 
L 558.316936 26.88 
" clip-path="url(#p35de2d516c)" style="fill: none; stroke-dasharray: 0.5,0.825; stroke-dashoffset: 0; stroke: #ffffff; stroke-width: 0.5"/>
     </g>
     <g id="line2d_32"/>
     <g id="text_22">
      <!-- 0 -->
      <g style="fill: #262626" transform="translate(555.135686 331.918437) scale(0.1 -0.1)">
       <use xlink:href="#DejaVuSans-30"/>
      </g>
     </g>
    </g>
    <g id="xtick_12">
     <g id="line2d_33">
      <path d="M 607.339163 317.32 
L 607.339163 26.88 
" clip-path="url(#p35de2d516c)" style="fill: none; stroke-dasharray: 0.5,0.825; stroke-dashoffset: 0; stroke: #ffffff; stroke-width: 0.5"/>
     </g>
     <g id="line2d_34"/>
     <g id="text_23">
      <!-- 1 -->
      <g style="fill: #262626" transform="translate(604.157913 331.918437) scale(0.1 -0.1)">
       <use xlink:href="#DejaVuSans-31"/>
      </g>
     </g>
    </g>
    <g id="xtick_13">
     <g id="line2d_35">
      <path d="M 656.36139 317.32 
L 656.36139 26.88 
" clip-path="url(#p35de2d516c)" style="fill: none; stroke-dasharray: 0.5,0.825; stroke-dashoffset: 0; stroke: #ffffff; stroke-width: 0.5"/>
     </g>
     <g id="line2d_36"/>
     <g id="text_24">
      <!-- 2 -->
      <g style="fill: #262626" transform="translate(653.18014 331.918437) scale(0.1 -0.1)">
       <use xlink:href="#DejaVuSans-32"/>
      </g>
     </g>
    </g>
    <g id="xtick_14">
     <g id="line2d_37">
      <path d="M 705.383617 317.32 
L 705.383617 26.88 
" clip-path="url(#p35de2d516c)" style="fill: none; stroke-dasharray: 0.5,0.825; stroke-dashoffset: 0; stroke: #ffffff; stroke-width: 0.5"/>
     </g>
     <g id="line2d_38"/>
     <g id="text_25">
      <!-- 3 -->
      <g style="fill: #262626" transform="translate(702.202367 331.918437) scale(0.1 -0.1)">
       <use xlink:href="#DejaVuSans-33"/>
      </g>
     </g>
    </g>
    <g id="text_26">
     <!-- Along-track [km] -->
     <g style="fill: #262626" transform="translate(512.084297 346.356406) scale(0.11 -0.11)">
      <use xlink:href="#DejaVuSans-41"/>
      <use xlink:href="#DejaVuSans-6c" transform="translate(68.408203 0)"/>
      <use xlink:href="#DejaVuSans-6f" transform="translate(96.191406 0)"/>
      <use xlink:href="#DejaVuSans-6e" transform="translate(157.373047 0)"/>
      <use xlink:href="#DejaVuSans-67" transform="translate(220.751953 0)"/>
      <use xlink:href="#DejaVuSans-2d" transform="translate(284.228516 0)"/>
      <use xlink:href="#DejaVuSans-74" transform="translate(320.3125 0)"/>
      <use xlink:href="#DejaVuSans-72" transform="translate(359.521484 0)"/>
      <use xlink:href="#DejaVuSans-61" transform="translate(400.634766 0)"/>
      <use xlink:href="#DejaVuSans-63" transform="translate(461.914062 0)"/>
      <use xlink:href="#DejaVuSans-6b" transform="translate(516.894531 0)"/>
      <use xlink:href="#DejaVuSans-20" transform="translate(574.804688 0)"/>
      <use xlink:href="#DejaVuSans-5b" transform="translate(606.591797 0)"/>
      <use xlink:href="#DejaVuSans-6b" transform="translate(645.605469 0)"/>
      <use xlink:href="#DejaVuSans-6d" transform="translate(703.515625 0)"/>
      <use xlink:href="#DejaVuSans-5d" transform="translate(800.927734 0)"/>
     </g>
    </g>
   </g>
   <g id="matplotlib.axis_4">
    <g id="ytick_6">
     <g id="line2d_39">
      <path d="M 396.506667 266.862931 
L 720.053333 266.862931 
" clip-path="url(#p35de2d516c)" style="fill: none; stroke-dasharray: 0.5,0.825; stroke-dashoffset: 0; stroke: #ffffff; stroke-width: 0.5"/>
     </g>
     <g id="line2d_40"/>
    </g>
    <g id="ytick_7">
     <g id="line2d_41">
      <path d="M 396.506667 216.061863 
L 720.053333 216.061863 
" clip-path="url(#p35de2d516c)" style="fill: none; stroke-dasharray: 0.5,0.825; stroke-dashoffset: 0; stroke: #ffffff; stroke-width: 0.5"/>
     </g>
     <g id="line2d_42"/>
    </g>
    <g id="ytick_8">
     <g id="line2d_43">
      <path d="M 396.506667 165.260795 
L 720.053333 165.260795 
" clip-path="url(#p35de2d516c)" style="fill: none; stroke-dasharray: 0.5,0.825; stroke-dashoffset: 0; stroke: #ffffff; stroke-width: 0.5"/>
     </g>
     <g id="line2d_44"/>
    </g>
    <g id="ytick_9">
     <g id="line2d_45">
      <path d="M 396.506667 114.459727 
L 720.053333 114.459727 
" clip-path="url(#p35de2d516c)" style="fill: none; stroke-dasharray: 0.5,0.825; stroke-dashoffset: 0; stroke: #ffffff; stroke-width: 0.5"/>
     </g>
     <g id="line2d_46"/>
    </g>
    <g id="ytick_10">
     <g id="line2d_47">
      <path d="M 396.506667 63.658659 
L 720.053333 63.658659 
" clip-path="url(#p35de2d516c)" style="fill: none; stroke-dasharray: 0.5,0.825; stroke-dashoffset: 0; stroke: #ffffff; stroke-width: 0.5"/>
     </g>
     <g id="line2d_48"/>
    </g>
    <g id="text_27">
     <!-- Radial [km] -->
     <g style="fill: #262626" transform="translate(390.21901 203.668281) rotate(-90) scale(0.11 -0.11)">
      <use xlink:href="#DejaVuSans-52"/>
      <use xlink:href="#DejaVuSans-61" transform="translate(67.232422 0)"/>
      <use xlink:href="#DejaVuSans-64" transform="translate(128.511719 0)"/>
      <use xlink:href="#DejaVuSans-69" transform="translate(191.988281 0)"/>
      <use xlink:href="#DejaVuSans-61" transform="translate(219.771484 0)"/>
      <use xlink:href="#DejaVuSans-6c" transform="translate(281.050781 0)"/>
      <use xlink:href="#DejaVuSans-20" transform="translate(308.833984 0)"/>
      <use xlink:href="#DejaVuSans-5b" transform="translate(340.621094 0)"/>
      <use xlink:href="#DejaVuSans-6b" transform="translate(379.634766 0)"/>
      <use xlink:href="#DejaVuSans-6d" transform="translate(437.544922 0)"/>
      <use xlink:href="#DejaVuSans-5d" transform="translate(534.957031 0)"/>
     </g>
    </g>
   </g>
   <g id="PathCollection_7">
    <g clip-path="url(#p35de2d516c)">
     <use xlink:href="#m8fd287142e" x="411.213333" y="303.985588" style="fill: #4c72b0; stroke: #4c72b0; stroke-width: 0.3"/>
    </g>
   </g>
   <g id="PathCollection_8">
    <g clip-path="url(#p35de2d516c)">
     <use xlink:href="#m3e68c745e3" x="705.346667" y="304.118182" style="fill: #55a868; stroke: #55a868; stroke-width: 0.3"/>
    </g>
   </g>
   <g id="PathCollection_9">
    <g clip-path="url(#p35de2d516c)">
     <use xlink:href="#m5d18aeaddd" x="558.390809" y="40.081818" style="fill: #c44e52; stroke: #c44e52; stroke-width: 0.3"/>
    </g>
   </g>
   <g id="patch_8">
    <path d="M 396.506667 317.32 
L 396.506667 26.88 
" style="fill: none"/>
   </g>
   <g id="patch_9">
    <path d="M 720.053333 317.32 
L 720.053333 26.88 
" style="fill: none"/>
   </g>
   <g id="patch_10">
    <path d="M 396.506667 317.32 
L 720.053333 317.32 
" style="fill: none"/>
   </g>
   <g id="patch_11">
    <path d="M 396.506667 26.88 
L 720.053333 26.88 
" style="fill: none"/>
   </g>
   <g id="text_28">
    <!-- Centred frame 0 s -->
    <g style="fill: #262626" transform="translate(503.955625 20.88) scale(0.12 -0.12)">
     <use xlink:href="#DejaVuSans-43"/>
     <use xlink:href="#DejaVuSans-65" transform="translate(69.824219 0)"/>
     <use xlink:href="#DejaVuSans-6e" transform="translate(131.347656 0)"/>
     <use xlink:href="#DejaVuSans-74" transform="translate(194.726562 0)"/>
     <use xlink:href="#DejaVuSans-72" transform="translate(233.935547 0)"/>
     <use xlink:href="#DejaVuSans-65" transform="translate(272.798828 0)"/>
     <use xlink:href="#DejaVuSans-64" transform="translate(334.322266 0)"/>
     <use xlink:href="#DejaVuSans-20" transform="translate(397.798828 0)"/>
     <use xlink:href="#DejaVuSans-66" transform="translate(429.585938 0)"/>
     <use xlink:href="#DejaVuSans-72" transform="translate(464.791016 0)"/>
     <use xlink:href="#DejaVuSans-61" transform="translate(505.904297 0)"/>
     <use xlink:href="#DejaVuSans-6d" transform="translate(567.183594 0)"/>
     <use xlink:href="#DejaVuSans-65" transform="translate(664.595703 0)"/>
     <use xlink:href="#DejaVuSans-20" transform="translate(726.119141 0)"/>
     <use xlink:href="#DejaVuSans-30" transform="translate(757.90625 0)"/>
     <use xlink:href="#DejaVuSans-20" transform="translate(821.529297 0)"/>
     <use xlink:href="#DejaVuSans-73" transform="translate(853.316406 0)"/>
    </g>
   </g>
  </g>
  <g id="axes_3">
   <g id="patch_12">
    <path d="M 745.653333 317.32 
L 1069.2 317.32 
L 1069.2 26.88 
L 745.653333 26.88 
z
" style="fill: #eaeaf2"/>
   </g>
   <g id="matplotlib.axis_5">
    <g id="xtick_15">
     <g id="line2d_49">
      <path d="M 760.396922 317.32 
L 760.396922 26.88 
" clip-path="url(#p23c5ae8408)" style="fill: none; stroke-dasharray: 0.5,0.825; stroke-dashoffset: 0; stroke: #ffffff; stroke-width: 0.5"/>
     </g>
     <g id="line2d_50"/>
     <g id="text_29">
      <!-- −3 -->
      <g style="fill: #262626" transform="translate(753.025829 331.918437) scale(0.1 -0.1)">
       <use xlink:href="#DejaVuSans-2212"/>
       <use xlink:href="#DejaVuSans-33" transform="translate(83.789062 0)"/>
      </g>
     </g>
    </g>
    <g id="xtick_16">
     <g id="line2d_51">
      <path d="M 809.419149 317.32 
L 809.419149 26.88 
" clip-path="url(#p23c5ae8408)" style="fill: none; stroke-dasharray: 0.5,0.825; stroke-dashoffset: 0; stroke: #ffffff; stroke-width: 0.5"/>
     </g>
     <g id="line2d_52"/>
     <g id="text_30">
      <!-- −2 -->
      <g style="fill: #262626" transform="translate(802.048055 331.918437) scale(0.1 -0.1)">
       <use xlink:href="#DejaVuSans-2212"/>
       <use xlink:href="#DejaVuSans-32" transform="translate(83.789062 0)"/>
      </g>
     </g>
    </g>
    <g id="xtick_17">
     <g id="line2d_53">
      <path d="M 858.441376 317.32 
L 858.441376 26.88 
" clip-path="url(#p23c5ae8408)" style="fill: none; stroke-dasharray: 0.5,0.825; stroke-dashoffset: 0; stroke: #ffffff; stroke-width: 0.5"/>
     </g>
     <g id="line2d_54"/>
     <g id="text_31">
      <!-- −1 -->
      <g style="fill: #262626" transform="translate(851.070282 331.918437) scale(0.1 -0.1)">
       <use xlink:href="#DejaVuSans-2212"/>
       <use xlink:href="#DejaVuSans-31" transform="translate(83.789062 0)"/>
      </g>
     </g>
    </g>
    <g id="xtick_18">
     <g id="line2d_55">
      <path d="M 907.463603 317.32 
L 907.463603 26.88 
" clip-path="url(#p23c5ae8408)" style="fill: none; stroke-dasharray: 0.5,0.825; stroke-dashoffset: 0; stroke: #ffffff; stroke-width: 0.5"/>
     </g>
     <g id="line2d_56"/>
     <g id="text_32">
      <!-- 0 -->
      <g style="fill: #262626" transform="translate(904.282353 331.918437) scale(0.1 -0.1)">
       <use xlink:href="#DejaVuSans-30"/>
      </g>
     </g>
    </g>
    <g id="xtick_19">
     <g id="line2d_57">
      <path d="M 956.48583 317.32 
L 956.48583 26.88 
" clip-path="url(#p23c5ae8408)" style="fill: none; stroke-dasharray: 0.5,0.825; stroke-dashoffset: 0; stroke: #ffffff; stroke-width: 0.5"/>
     </g>
     <g id="line2d_58"/>
     <g id="text_33">
      <!-- 1 -->
      <g style="fill: #262626" transform="translate(953.30458 331.918437) scale(0.1 -0.1)">
       <use xlink:href="#DejaVuSans-31"/>
      </g>
     </g>
    </g>
    <g id="xtick_20">
     <g id="line2d_59">
      <path d="M 1005.508057 317.32 
L 1005.508057 26.88 
" clip-path="url(#p23c5ae8408)" style="fill: none; stroke-dasharray: 0.5,0.825; stroke-dashoffset: 0; stroke: #ffffff; stroke-width: 0.5"/>
     </g>
     <g id="line2d_60"/>
     <g id="text_34">
      <!-- 2 -->
      <g style="fill: #262626" transform="translate(1002.326807 331.918437) scale(0.1 -0.1)">
       <use xlink:href="#DejaVuSans-32"/>
      </g>
     </g>
    </g>
    <g id="xtick_21">
     <g id="line2d_61">
      <path d="M 1054.530283 317.32 
L 1054.530283 26.88 
" clip-path="url(#p23c5ae8408)" style="fill: none; stroke-dasharray: 0.5,0.825; stroke-dashoffset: 0; stroke: #ffffff; stroke-width: 0.5"/>
     </g>
     <g id="line2d_62"/>
     <g id="text_35">
      <!-- 3 -->
      <g style="fill: #262626" transform="translate(1051.349033 331.918437) scale(0.1 -0.1)">
       <use xlink:href="#DejaVuSans-33"/>
      </g>
     </g>
    </g>
    <g id="text_36">
     <!-- Along-track [km] -->
     <g style="fill: #262626" transform="translate(861.230964 346.356406) scale(0.11 -0.11)">
      <use xlink:href="#DejaVuSans-41"/>
      <use xlink:href="#DejaVuSans-6c" transform="translate(68.408203 0)"/>
      <use xlink:href="#DejaVuSans-6f" transform="translate(96.191406 0)"/>
      <use xlink:href="#DejaVuSans-6e" transform="translate(157.373047 0)"/>
      <use xlink:href="#DejaVuSans-67" transform="translate(220.751953 0)"/>
      <use xlink:href="#DejaVuSans-2d" transform="translate(284.228516 0)"/>
      <use xlink:href="#DejaVuSans-74" transform="translate(320.3125 0)"/>
      <use xlink:href="#DejaVuSans-72" transform="translate(359.521484 0)"/>
      <use xlink:href="#DejaVuSans-61" transform="translate(400.634766 0)"/>
      <use xlink:href="#DejaVuSans-63" transform="translate(461.914062 0)"/>
      <use xlink:href="#DejaVuSans-6b" transform="translate(516.894531 0)"/>
      <use xlink:href="#DejaVuSans-20" transform="translate(574.804688 0)"/>
      <use xlink:href="#DejaVuSans-5b" transform="translate(606.591797 0)"/>
      <use xlink:href="#DejaVuSans-6b" transform="translate(645.605469 0)"/>
      <use xlink:href="#DejaVuSans-6d" transform="translate(703.515625 0)"/>
      <use xlink:href="#DejaVuSans-5d" transform="translate(800.927734 0)"/>
     </g>
    </g>
   </g>
   <g id="matplotlib.axis_6">
    <g id="ytick_11">
     <g id="line2d_63">
      <path d="M 745.653333 266.862931 
L 1069.2 266.862931 
" clip-path="url(#p23c5ae8408)" style="fill: none; stroke-dasharray: 0.5,0.825; stroke-dashoffset: 0; stroke: #ffffff; stroke-width: 0.5"/>
     </g>
     <g id="line2d_64"/>
    </g>
    <g id="ytick_12">
     <g id="line2d_65">
      <path d="M 745.653333 216.061863 
L 1069.2 216.061863 
" clip-path="url(#p23c5ae8408)" style="fill: none; stroke-dasharray: 0.5,0.825; stroke-dashoffset: 0; stroke: #ffffff; stroke-width: 0.5"/>
     </g>
     <g id="line2d_66"/>
    </g>
    <g id="ytick_13">
     <g id="line2d_67">
      <path d="M 745.653333 165.260795 
L 1069.2 165.260795 
" clip-path="url(#p23c5ae8408)" style="fill: none; stroke-dasharray: 0.5,0.825; stroke-dashoffset: 0; stroke: #ffffff; stroke-width: 0.5"/>
     </g>
     <g id="line2d_68"/>
    </g>
    <g id="ytick_14">
     <g id="line2d_69">
      <path d="M 745.653333 114.459727 
L 1069.2 114.459727 
" clip-path="url(#p23c5ae8408)" style="fill: none; stroke-dasharray: 0.5,0.825; stroke-dashoffset: 0; stroke: #ffffff; stroke-width: 0.5"/>
     </g>
     <g id="line2d_70"/>
    </g>
    <g id="ytick_15">
     <g id="line2d_71">
      <path d="M 745.653333 63.658659 
L 1069.2 63.658659 
" clip-path="url(#p23c5ae8408)" style="fill: none; stroke-dasharray: 0.5,0.825; stroke-dashoffset: 0; stroke: #ffffff; stroke-width: 0.5"/>
     </g>
     <g id="line2d_72"/>
    </g>
    <g id="text_37">
     <!-- Radial [km] -->
     <g style="fill: #262626" transform="translate(739.365677 203.668281) rotate(-90) scale(0.11 -0.11)">
      <use xlink:href="#DejaVuSans-52"/>
      <use xlink:href="#DejaVuSans-61" transform="translate(67.232422 0)"/>
      <use xlink:href="#DejaVuSans-64" transform="translate(128.511719 0)"/>
      <use xlink:href="#DejaVuSans-69" transform="translate(191.988281 0)"/>
      <use xlink:href="#DejaVuSans-61" transform="translate(219.771484 0)"/>
      <use xlink:href="#DejaVuSans-6c" transform="translate(281.050781 0)"/>
      <use xlink:href="#DejaVuSans-20" transform="translate(308.833984 0)"/>
      <use xlink:href="#DejaVuSans-5b" transform="translate(340.621094 0)"/>
      <use xlink:href="#DejaVuSans-6b" transform="translate(379.634766 0)"/>
      <use xlink:href="#DejaVuSans-6d" transform="translate(437.544922 0)"/>
      <use xlink:href="#DejaVuSans-5d" transform="translate(534.957031 0)"/>
     </g>
    </g>
   </g>
   <g id="PathCollection_10">
    <g clip-path="url(#p23c5ae8408)">
     <use xlink:href="#m8fd287142e" x="760.36" y="303.985588" style="fill: #4c72b0; stroke: #4c72b0; stroke-width: 0.3"/>
    </g>
   </g>
   <g id="PathCollection_11">
    <g clip-path="url(#p23c5ae8408)">
     <use xlink:href="#m3e68c745e3" x="1054.493333" y="304.118182" style="fill: #55a868; stroke: #55a868; stroke-width: 0.3"/>
    </g>
   </g>
   <g id="PathCollection_12">
    <g clip-path="url(#p23c5ae8408)">
     <use xlink:href="#m5d18aeaddd" x="907.537475" y="40.081818" style="fill: #c44e52; stroke: #c44e52; stroke-width: 0.3"/>
    </g>
   </g>
   <g id="patch_13">
    <path d="M 745.653333 317.32 
L 745.653333 26.88 
" style="fill: none"/>
   </g>
   <g id="patch_14">
    <path d="M 1069.2 317.32 
L 1069.2 26.88 
" style="fill: none"/>
   </g>
   <g id="patch_15">
    <path d="M 745.653333 317.32 
L 1069.2 317.32 
" style="fill: none"/>
   </g>
   <g id="patch_16">
    <path d="M 745.653333 26.88 
L 1069.2 26.88 
" style="fill: none"/>
   </g>
   <g id="text_38">
    <!-- Centred frame +90 s -->
    <g style="fill: #262626" transform="translate(844.256979 20.88) scale(0.12 -0.12)">
     <defs>
      <path id="DejaVuSans-2b" d="M 2944 4013 
L 2944 2272 
L 4684 2272 
L 4684 1741 
L 2944 1741 
L 2944 0 
L 2419 0 
L 2419 1741 
L 678 1741 
L 678 2272 
L 2419 2272 
L 2419 4013 
L 2944 4013 
z
" transform="scale(0.015625)"/>
     </defs>
     <use xlink:href="#DejaVuSans-43"/>
     <use xlink:href="#DejaVuSans-65" transform="translate(69.824219 0)"/>
     <use xlink:href="#DejaVuSans-6e" transform="translate(131.347656 0)"/>
     <use xlink:href="#DejaVuSans-74" transform="translate(194.726562 0)"/>
     <use xlink:href="#DejaVuSans-72" transform="translate(233.935547 0)"/>
     <use xlink:href="#DejaVuSans-65" transform="translate(272.798828 0)"/>
     <use xlink:href="#DejaVuSans-64" transform="translate(334.322266 0)"/>
     <use xlink:href="#DejaVuSans-20" transform="translate(397.798828 0)"/>
     <use xlink:href="#DejaVuSans-66" transform="translate(429.585938 0)"/>
     <use xlink:href="#DejaVuSans-72" transform="translate(464.791016 0)"/>
     <use xlink:href="#DejaVuSans-61" transform="translate(505.904297 0)"/>
     <use xlink:href="#DejaVuSans-6d" transform="translate(567.183594 0)"/>
     <use xlink:href="#DejaVuSans-65" transform="translate(664.595703 0)"/>
     <use xlink:href="#DejaVuSans-20" transform="translate(726.119141 0)"/>
     <use xlink:href="#DejaVuSans-2b" transform="translate(757.90625 0)"/>
     <use xlink:href="#DejaVuSans-39" transform="translate(841.695312 0)"/>
     <use xlink:href="#DejaVuSans-30" transform="translate(905.318359 0)"/>
     <use xlink:href="#DejaVuSans-20" transform="translate(968.941406 0)"/>
     <use xlink:href="#DejaVuSans-73" transform="translate(1000.728516 0)"/>
    </g>
   </g>
  </g>
 </g>
 <defs>
  <clipPath id="p0b392d31c9">
   <rect x="47.36" y="26.88" width="323.546667" height="290.44"/>
  </clipPath>
  <clipPath id="p35de2d516c">
   <rect x="396.506667" y="26.88" width="323.546667" height="290.44"/>
  </clipPath>
  <clipPath id="p23c5ae8408">
   <rect x="745.653333" y="26.88" width="323.546667" height="290.44"/>
  </clipPath>
 </defs>
</svg>
