<?xml version="1.0" encoding="utf-8" standalone="no"?>
<!DOCTYPE svg PUBLIC "-//W3C//DTD SVG 1.1//EN"
  "http://www.w3.org/Graphics/SVG/1.1/DTD/svg11.dtd">
<svg xmlns:xlink="http://www.w3.org/1999/xlink" width="468pt" height="432pt" viewBox="0 0 468 432" xmlns="http://www.w3.org/2000/svg" version="1.1">
 <metadata>
  <rdf:RDF xmlns:dc="http://purl.org/dc/elements/1.1/" xmlns:cc="http://creativecommons.org/ns#" xmlns:rdf="http://www.w3.org/1999/02/22-rdf-syntax-ns#">
   <cc:Work>
    <dc:type rdf:resource="http://purl.org/dc/dcmitype/StillImage"/>
    <dc:date>2025-11-01T11:48:48.994519</dc:date>
    <dc:format>image/svg+xml</dc:format>
    <dc:creator>
     <cc:Agent>
      <dc:title>Matplotlib v3.10.7, https://matplotlib.org/</dc:title>
     </cc:Agent>
    </dc:creator>
   </cc:Work>
  </rdf:RDF>
 </metadata>
 <defs>
  <style type="text/css">*{stroke-linejoin: round; stroke-linecap: butt}</style>
 </defs>
 <g id="figure_1">
  <g id="patch_1">
   <path d="M 0 432 
L 468 432 
L 468 0 
L 0 0 
z
" style="fill: #ffffff"/>
  </g>
  <g id="axes_1">
   <g id="patch_2">
    <path d="M 54.02 369.847222 
L 457.2 369.847222 
L 457.2 56.262778 
L 54.02 56.262778 
z
" style="fill: #ffffff"/>
   </g>
   <g id="matplotlib.axis_1">
    <g id="xtick_1">
     <g id="line2d_1">
      <path d="M 81.346644 369.847222 
L 81.346644 56.262778 
" clip-path="url(#p7dee7cf9f0)" style="fill: none; stroke-dasharray: 0.6,0.99; stroke-dashoffset: 0; stroke: #b0b0b0; stroke-width: 0.6"/>
     </g>
     <g id="line2d_2">
      <defs>
       <path id="mb291d7e4bd" d="M 0 0 
L 0 3.5 
" style="stroke: #000000; stroke-width: 0.8"/>
      </defs>
      <g>
       <use xlink:href="#mb291d7e4bd" x="81.346644" y="369.847222" style="stroke: #000000; stroke-width: 0.8"/>
      </g>
     </g>
     <g id="text_1">
      <!-- 51.0 -->
      <g transform="translate(70.213832 384.44566) scale(0.1 -0.1)">
       <defs>
        <path id="DejaVuSans-35" d="M 691 4666 
L 3169 4666 
L 3169 4134 
L 1269 4134 
L 1269 2991 
Q 1406 3038 1543 3061 
Q 1681 3084 1819 3084 
Q 2600 3084 3056 2656 
Q 3513 2228 3513 1497 
Q 3513 744 3044 326 
Q 2575 -91 1722 -91 
Q 1428 -91 1123 -41 
Q 819 9 494 109 
L 494 744 
Q 775 591 1075 516 
Q 1375 441 1709 441 
Q 2250 441 2565 725 
Q 2881 1009 2881 1497 
Q 2881 1984 2565 2268 
Q 2250 2553 1709 2553 
Q 1456 2553 1204 2497 
Q 953 2441 691 2322 
L 691 4666 
z
" transform="scale(0.015625)"/>
        <path id="DejaVuSans-31" d="M 794 531 
L 1825 531 
L 1825 4091 
L 703 3866 
L 703 4441 
L 1819 4666 
L 2450 4666 
L 2450 531 
L 3481 531 
L 3481 0 
L 794 0 
L 794 531 
z
" transform="scale(0.015625)"/>
        <path id="DejaVuSans-2e" d="M 684 794 
L 1344 794 
L 1344 0 
L 684 0 
L 684 794 
z
" transform="scale(0.015625)"/>
        <path id="DejaVuSans-30" d="M 2034 4250 
Q 1547 4250 1301 3770 
Q 1056 3291 1056 2328 
Q 1056 1369 1301 889 
Q 1547 409 2034 409 
Q 2525 409 2770 889 
Q 3016 1369 3016 2328 
Q 3016 3291 2770 3770 
Q 2525 4250 2034 4250 
z
M 2034 4750 
Q 2819 4750 3233 4129 
Q 3647 3509 3647 2328 
Q 3647 1150 3233 529 
Q 2819 -91 2034 -91 
Q 1250 -91 836 529 
Q 422 1150 422 2328 
Q 422 3509 836 4129 
Q 1250 4750 2034 4750 
z
" transform="scale(0.015625)"/>
       </defs>
       <use xlink:href="#DejaVuSans-35"/>
       <use xlink:href="#DejaVuSans-31" transform="translate(63.623047 0)"/>
       <use xlink:href="#DejaVuSans-2e" transform="translate(127.246094 0)"/>
       <use xlink:href="#DejaVuSans-30" transform="translate(159.033203 0)"/>
      </g>
     </g>
    </g>
    <g id="xtick_2">
     <g id="line2d_3">
      <path d="M 170.9422 369.847222 
L 170.9422 56.262778 
" clip-path="url(#p7dee7cf9f0)" style="fill: none; stroke-dasharray: 0.6,0.99; stroke-dashoffset: 0; stroke: #b0b0b0; stroke-width: 0.6"/>
     </g>
     <g id="line2d_4">
      <g>
       <use xlink:href="#mb291d7e4bd" x="170.9422" y="369.847222" style="stroke: #000000; stroke-width: 0.8"/>
      </g>
     </g>
     <g id="text_2">
      <!-- 51.2 -->
      <g transform="translate(159.809388 384.44566) scale(0.1 -0.1)">
       <defs>
        <path id="DejaVuSans-32" d="M 1228 531 
L 3431 531 
L 3431 0 
L 469 0 
L 469 531 
Q 828 903 1448 1529 
Q 2069 2156 2228 2338 
Q 2531 2678 2651 2914 
Q 2772 3150 2772 3378 
Q 2772 3750 2511 3984 
Q 2250 4219 1831 4219 
Q 1534 4219 1204 4116 
Q 875 4013 500 3803 
L 500 4441 
Q 881 4594 1212 4672 
Q 1544 4750 1819 4750 
Q 2544 4750 2975 4387 
Q 3406 4025 3406 3419 
Q 3406 3131 3298 2873 
Q 3191 2616 2906 2266 
Q 2828 2175 2409 1742 
Q 1991 1309 1228 531 
z
" transform="scale(0.015625)"/>
       </defs>
       <use xlink:href="#DejaVuSans-35"/>
       <use xlink:href="#DejaVuSans-31" transform="translate(63.623047 0)"/>
       <use xlink:href="#DejaVuSans-2e" transform="translate(127.246094 0)"/>
       <use xlink:href="#DejaVuSans-32" transform="translate(159.033203 0)"/>
      </g>
     </g>
    </g>
    <g id="xtick_3">
     <g id="line2d_5">
      <path d="M 260.537756 369.847222 
L 260.537756 56.262778 
" clip-path="url(#p7dee7cf9f0)" style="fill: none; stroke-dasharray: 0.6,0.99; stroke-dashoffset: 0; stroke: #b0b0b0; stroke-width: 0.6"/>
     </g>
     <g id="line2d_6">
      <g>
       <use xlink:href="#mb291d7e4bd" x="260.537756" y="369.847222" style="stroke: #000000; stroke-width: 0.8"/>
      </g>
     </g>
     <g id="text_3">
      <!-- 51.4 -->
      <g transform="translate(249.404943 384.44566) scale(0.1 -0.1)">
       <defs>
        <path id="DejaVuSans-34" d="M 2419 4116 
L 825 1625 
L 2419 1625 
L 2419 4116 
z
M 2253 4666 
L 3047 4666 
L 3047 1625 
L 3713 1625 
L 3713 1100 
L 3047 1100 
L 3047 0 
L 2419 0 
L 2419 1100 
L 313 1100 
L 313 1709 
L 2253 4666 
z
" transform="scale(0.015625)"/>
       </defs>
       <use xlink:href="#DejaVuSans-35"/>
       <use xlink:href="#DejaVuSans-31" transform="translate(63.623047 0)"/>
       <use xlink:href="#DejaVuSans-2e" transform="translate(127.246094 0)"/>
       <use xlink:href="#DejaVuSans-34" transform="translate(159.033203 0)"/>
      </g>
     </g>
    </g>
    <g id="xtick_4">
     <g id="line2d_7">
      <path d="M 350.133311 369.847222 
L 350.133311 56.262778 
" clip-path="url(#p7dee7cf9f0)" style="fill: none; stroke-dasharray: 0.6,0.99; stroke-dashoffset: 0; stroke: #b0b0b0; stroke-width: 0.6"/>
     </g>
     <g id="line2d_8">
      <g>
       <use xlink:href="#mb291d7e4bd" x="350.133311" y="369.847222" style="stroke: #000000; stroke-width: 0.8"/>
      </g>
     </g>
     <g id="text_4">
      <!-- 51.6 -->
      <g transform="translate(339.000499 384.44566) scale(0.1 -0.1)">
       <defs>
        <path id="DejaVuSans-36" d="M 2113 2584 
Q 1688 2584 1439 2293 
Q 1191 2003 1191 1497 
Q 1191 994 1439 701 
Q 1688 409 2113 409 
Q 2538 409 2786 701 
Q 3034 994 3034 1497 
Q 3034 2003 2786 2293 
Q 2538 2584 2113 2584 
z
M 3366 4563 
L 3366 3988 
Q 3128 4100 2886 4159 
Q 2644 4219 2406 4219 
Q 1781 4219 1451 3797 
Q 1122 3375 1075 2522 
Q 1259 2794 1537 2939 
Q 1816 3084 2150 3084 
Q 2853 3084 3261 2657 
Q 3669 2231 3669 1497 
Q 3669 778 3244 343 
Q 2819 -91 2113 -91 
Q 1303 -91 875 529 
Q 447 1150 447 2328 
Q 447 3434 972 4092 
Q 1497 4750 2381 4750 
Q 2619 4750 2861 4703 
Q 3103 4656 3366 4563 
z
" transform="scale(0.015625)"/>
       </defs>
       <use xlink:href="#DejaVuSans-35"/>
       <use xlink:href="#DejaVuSans-31" transform="translate(63.623047 0)"/>
       <use xlink:href="#DejaVuSans-2e" transform="translate(127.246094 0)"/>
       <use xlink:href="#DejaVuSans-36" transform="translate(159.033203 0)"/>
      </g>
     </g>
    </g>
    <g id="xtick_5">
     <g id="line2d_9">
      <path d="M 439.728867 369.847222 
L 439.728867 56.262778 
" clip-path="url(#p7dee7cf9f0)" style="fill: none; stroke-dasharray: 0.6,0.99; stroke-dashoffset: 0; stroke: #b0b0b0; stroke-width: 0.6"/>
     </g>
     <g id="line2d_10">
      <g>
       <use xlink:href="#mb291d7e4bd" x="439.728867" y="369.847222" style="stroke: #000000; stroke-width: 0.8"/>
      </g>
     </g>
     <g id="text_5">
      <!-- 51.8 -->
      <g transform="translate(428.596054 384.44566) scale(0.1 -0.1)">
       <defs>
        <path id="DejaVuSans-38" d="M 2034 2216 
Q 1584 2216 1326 1975 
Q 1069 1734 1069 1313 
Q 1069 891 1326 650 
Q 1584 409 2034 409 
Q 2484 409 2743 651 
Q 3003 894 3003 1313 
Q 3003 1734 2745 1975 
Q 2488 2216 2034 2216 
z
M 1403 2484 
Q 997 2584 770 2862 
Q 544 3141 544 3541 
Q 544 4100 942 4425 
Q 1341 4750 2034 4750 
Q 2731 4750 3128 4425 
Q 3525 4100 3525 3541 
Q 3525 3141 3298 2862 
Q 3072 2584 2669 2484 
Q 3125 2378 3379 2068 
Q 3634 1759 3634 1313 
Q 3634 634 3220 271 
Q 2806 -91 2034 -91 
Q 1263 -91 848 271 
Q 434 634 434 1313 
Q 434 1759 690 2068 
Q 947 2378 1403 2484 
z
M 1172 3481 
Q 1172 3119 1398 2916 
Q 1625 2713 2034 2713 
Q 2441 2713 2670 2916 
Q 2900 3119 2900 3481 
Q 2900 3844 2670 4047 
Q 2441 4250 2034 4250 
Q 1625 4250 1398 4047 
Q 1172 3844 1172 3481 
z
" transform="scale(0.015625)"/>
       </defs>
       <use xlink:href="#DejaVuSans-35"/>
       <use xlink:href="#DejaVuSans-31" transform="translate(63.623047 0)"/>
       <use xlink:href="#DejaVuSans-2e" transform="translate(127.246094 0)"/>
       <use xlink:href="#DejaVuSans-38" transform="translate(159.033203 0)"/>
      </g>
     </g>
    </g>
    <g id="text_6">
     <!-- Longitude [deg] -->
     <g transform="translate(215.824844 398.123785) scale(0.1 -0.1)">
      <defs>
       <path id="DejaVuSans-4c" d="M 628 4666 
L 1259 4666 
L 1259 531 
L 3531 531 
L 3531 0 
L 628 0 
L 628 4666 
z
" transform="scale(0.015625)"/>
       <path id="DejaVuSans-6f" d="M 1959 3097 
Q 1497 3097 1228 2736 
Q 959 2375 959 1747 
Q 959 1119 1226 758 
Q 1494 397 1959 397 
Q 2419 397 2687 759 
Q 2956 1122 2956 1747 
Q 2956 2369 2687 2733 
Q 2419 3097 1959 3097 
z
M 1959 3584 
Q 2709 3584 3137 3096 
Q 3566 2609 3566 1747 
Q 3566 888 3137 398 
Q 2709 -91 1959 -91 
Q 1206 -91 779 398 
Q 353 888 353 1747 
Q 353 2609 779 3096 
Q 1206 3584 1959 3584 
z
" transform="scale(0.015625)"/>
       <path id="DejaVuSans-6e" d="M 3513 2113 
L 3513 0 
L 2938 0 
L 2938 2094 
Q 2938 2591 2744 2837 
Q 2550 3084 2163 3084 
Q 1697 3084 1428 2787 
Q 1159 2491 1159 1978 
L 1159 0 
L 581 0 
L 581 3500 
L 1159 3500 
L 1159 2956 
Q 1366 3272 1645 3428 
Q 1925 3584 2291 3584 
Q 2894 3584 3203 3211 
Q 3513 2838 3513 2113 
z
" transform="scale(0.015625)"/>
       <path id="DejaVuSans-67" d="M 2906 1791 
Q 2906 2416 2648 2759 
Q 2391 3103 1925 3103 
Q 1463 3103 1205 2759 
Q 947 2416 947 1791 
Q 947 1169 1205 825 
Q 1463 481 1925 481 
Q 2391 481 2648 825 
Q 2906 1169 2906 1791 
z
M 3481 434 
Q 3481 -459 3084 -895 
Q 2688 -1331 1869 -1331 
Q 1566 -1331 1297 -1286 
Q 1028 -1241 775 -1147 
L 775 -588 
Q 1028 -725 1275 -790 
Q 1522 -856 1778 -856 
Q 2344 -856 2625 -561 
Q 2906 -266 2906 331 
L 2906 616 
Q 2728 306 2450 153 
Q 2172 0 1784 0 
Q 1141 0 747 490 
Q 353 981 353 1791 
Q 353 2603 747 3093 
Q 1141 3584 1784 3584 
Q 2172 3584 2450 3431 
Q 2728 3278 2906 2969 
L 2906 3500 
L 3481 3500 
L 3481 434 
z
" transform="scale(0.015625)"/>
       <path id="DejaVuSans-69" d="M 603 3500 
L 1178 3500 
L 1178 0 
L 603 0 
L 603 3500 
z
M 603 4863 
L 1178 4863 
L 1178 4134 
L 603 4134 
L 603 4863 
z
" transform="scale(0.015625)"/>
       <path id="DejaVuSans-74" d="M 1172 4494 
L 1172 3500 
L 2356 3500 
L 2356 3053 
L 1172 3053 
L 1172 1153 
Q 1172 725 1289 603 
Q 1406 481 1766 481 
L 2356 481 
L 2356 0 
L 1766 0 
Q 1100 0 847 248 
Q 594 497 594 1153 
L 594 3053 
L 172 3053 
L 172 3500 
L 594 3500 
L 594 4494 
L 1172 4494 
z
" transform="scale(0.015625)"/>
       <path id="DejaVuSans-75" d="M 544 1381 
L 544 3500 
L 1119 3500 
L 1119 1403 
Q 1119 906 1312 657 
Q 1506 409 1894 409 
Q 2359 409 2629 706 
Q 2900 1003 2900 1516 
L 2900 3500 
L 3475 3500 
L 3475 0 
L 2900 0 
L 2900 538 
Q 2691 219 2414 64 
Q 2138 -91 1772 -91 
Q 1169 -91 856 284 
Q 544 659 544 1381 
z
M 1991 3584 
L 1991 3584 
z
" transform="scale(0.015625)"/>
       <path id="DejaVuSans-64" d="M 2906 2969 
L 2906 4863 
L 3481 4863 
L 3481 0 
L 2906 0 
L 2906 525 
Q 2725 213 2448 61 
Q 2172 -91 1784 -91 
Q 1150 -91 751 415 
Q 353 922 353 1747 
Q 353 2572 751 3078 
Q 1150 3584 1784 3584 
Q 2172 3584 2448 3432 
Q 2725 3281 2906 2969 
z
M 947 1747 
Q 947 1113 1208 752 
Q 1469 391 1925 391 
Q 2381 391 2643 752 
Q 2906 1113 2906 1747 
Q 2906 2381 2643 2742 
Q 2381 3103 1925 3103 
Q 1469 3103 1208 2742 
Q 947 2381 947 1747 
z
" transform="scale(0.015625)"/>
       <path id="DejaVuSans-65" d="M 3597 1894 
L 3597 1613 
L 953 1613 
Q 991 1019 1311 708 
Q 1631 397 2203 397 
Q 2534 397 2845 478 
Q 3156 559 3463 722 
L 3463 178 
Q 3153 47 2828 -22 
Q 2503 -91 2169 -91 
Q 1331 -91 842 396 
Q 353 884 353 1716 
Q 353 2575 817 3079 
Q 1281 3584 2069 3584 
Q 2775 3584 3186 3129 
Q 3597 2675 3597 1894 
z
M 3022 2063 
Q 3016 2534 2758 2815 
Q 2500 3097 2075 3097 
Q 1594 3097 1305 2825 
Q 1016 2553 972 2059 
L 3022 2063 
z
" transform="scale(0.015625)"/>
       <path id="DejaVuSans-20" transform="scale(0.015625)"/>
       <path id="DejaVuSans-5b" d="M 550 4863 
L 1875 4863 
L 1875 4416 
L 1125 4416 
L 1125 -397 
L 1875 -397 
L 1875 -844 
L 550 -844 
L 550 4863 
z
" transform="scale(0.015625)"/>
       <path id="DejaVuSans-5d" d="M 1947 4863 
L 1947 -844 
L 622 -844 
L 622 -397 
L 1369 -397 
L 1369 4416 
L 622 4416 
L 622 4863 
L 1947 4863 
z
" transform="scale(0.015625)"/>
      </defs>
      <use xlink:href="#DejaVuSans-4c"/>
      <use xlink:href="#DejaVuSans-6f" transform="translate(53.962891 0)"/>
      <use xlink:href="#DejaVuSans-6e" transform="translate(115.144531 0)"/>
      <use xlink:href="#DejaVuSans-67" transform="translate(178.523438 0)"/>
      <use xlink:href="#DejaVuSans-69" transform="translate(242 0)"/>
      <use xlink:href="#DejaVuSans-74" transform="translate(269.783203 0)"/>
      <use xlink:href="#DejaVuSans-75" transform="translate(308.992188 0)"/>
      <use xlink:href="#DejaVuSans-64" transform="translate(372.371094 0)"/>
      <use xlink:href="#DejaVuSans-65" transform="translate(435.847656 0)"/>
      <use xlink:href="#DejaVuSans-20" transform="translate(497.371094 0)"/>
      <use xlink:href="#DejaVuSans-5b" transform="translate(529.158203 0)"/>
      <use xlink:href="#DejaVuSans-64" transform="translate(568.171875 0)"/>
      <use xlink:href="#DejaVuSans-65" transform="translate(631.648438 0)"/>
      <use xlink:href="#DejaVuSans-67" transform="translate(693.171875 0)"/>
      <use xlink:href="#DejaVuSans-5d" transform="translate(756.648438 0)"/>
     </g>
    </g>
   </g>
   <g id="matplotlib.axis_2">
    <g id="ytick_1">
     <g id="line2d_11">
      <path d="M 54.02 342.610173 
L 457.2 342.610173 
" clip-path="url(#p7dee7cf9f0)" style="fill: none; stroke-dasharray: 0.6,0.99; stroke-dashoffset: 0; stroke: #b0b0b0; stroke-width: 0.6"/>
     </g>
     <g id="line2d_12">
      <defs>
       <path id="m85fd1db612" d="M 0 0 
L -3.5 0 
" style="stroke: #000000; stroke-width: 0.8"/>
      </defs>
      <g>
       <use xlink:href="#m85fd1db612" x="54.02" y="342.610173" style="stroke: #000000; stroke-width: 0.8"/>
      </g>
     </g>
     <g id="text_7">
      <!-- 35.4 -->
      <g transform="translate(24.754375 346.409392) scale(0.1 -0.1)">
       <defs>
        <path id="DejaVuSans-33" d="M 2597 2516 
Q 3050 2419 3304 2112 
Q 3559 1806 3559 1356 
Q 3559 666 3084 287 
Q 2609 -91 1734 -91 
Q 1441 -91 1130 -33 
Q 819 25 488 141 
L 488 750 
Q 750 597 1062 519 
Q 1375 441 1716 441 
Q 2309 441 2620 675 
Q 2931 909 2931 1356 
Q 2931 1769 2642 2001 
Q 2353 2234 1838 2234 
L 1294 2234 
L 1294 2753 
L 1863 2753 
Q 2328 2753 2575 2939 
Q 2822 3125 2822 3475 
Q 2822 3834 2567 4026 
Q 2313 4219 1838 4219 
Q 1578 4219 1281 4162 
Q 984 4106 628 3988 
L 628 4550 
Q 988 4650 1302 4700 
Q 1616 4750 1894 4750 
Q 2613 4750 3031 4423 
Q 3450 4097 3450 3541 
Q 3450 3153 3228 2886 
Q 3006 2619 2597 2516 
z
" transform="scale(0.015625)"/>
       </defs>
       <use xlink:href="#DejaVuSans-33"/>
       <use xlink:href="#DejaVuSans-35" transform="translate(63.623047 0)"/>
       <use xlink:href="#DejaVuSans-2e" transform="translate(127.246094 0)"/>
       <use xlink:href="#DejaVuSans-34" transform="translate(159.033203 0)"/>
      </g>
     </g>
    </g>
    <g id="ytick_2">
     <g id="line2d_13">
      <path d="M 54.02 297.812396 
L 457.2 297.812396 
" clip-path="url(#p7dee7cf9f0)" style="fill: none; stroke-dasharray: 0.6,0.99; stroke-dashoffset: 0; stroke: #b0b0b0; stroke-width: 0.6"/>
     </g>
     <g id="line2d_14">
      <g>
       <use xlink:href="#m85fd1db612" x="54.02" y="297.812396" style="stroke: #000000; stroke-width: 0.8"/>
      </g>
     </g>
     <g id="text_8">
      <!-- 35.5 -->
      <g transform="translate(24.754375 301.611614) scale(0.1 -0.1)">
       <use xlink:href="#DejaVuSans-33"/>
       <use xlink:href="#DejaVuSans-35" transform="translate(63.623047 0)"/>
       <use xlink:href="#DejaVuSans-2e" transform="translate(127.246094 0)"/>
       <use xlink:href="#DejaVuSans-35" transform="translate(159.033203 0)"/>
      </g>
     </g>
    </g>
    <g id="ytick_3">
     <g id="line2d_15">
      <path d="M 54.02 253.014618 
L 457.2 253.014618 
" clip-path="url(#p7dee7cf9f0)" style="fill: none; stroke-dasharray: 0.6,0.99; stroke-dashoffset: 0; stroke: #b0b0b0; stroke-width: 0.6"/>
     </g>
     <g id="line2d_16">
      <g>
       <use xlink:href="#m85fd1db612" x="54.02" y="253.014618" style="stroke: #000000; stroke-width: 0.8"/>
      </g>
     </g>
     <g id="text_9">
      <!-- 35.6 -->
      <g transform="translate(24.754375 256.813837) scale(0.1 -0.1)">
       <use xlink:href="#DejaVuSans-33"/>
       <use xlink:href="#DejaVuSans-35" transform="translate(63.623047 0)"/>
       <use xlink:href="#DejaVuSans-2e" transform="translate(127.246094 0)"/>
       <use xlink:href="#DejaVuSans-36" transform="translate(159.033203 0)"/>
      </g>
     </g>
    </g>
    <g id="ytick_4">
     <g id="line2d_17">
      <path d="M 54.02 208.21684 
L 457.2 208.21684 
" clip-path="url(#p7dee7cf9f0)" style="fill: none; stroke-dasharray: 0.6,0.99; stroke-dashoffset: 0; stroke: #b0b0b0; stroke-width: 0.6"/>
     </g>
     <g id="line2d_18">
      <g>
       <use xlink:href="#m85fd1db612" x="54.02" y="208.21684" style="stroke: #000000; stroke-width: 0.8"/>
      </g>
     </g>
     <g id="text_10">
      <!-- 35.7 -->
      <g transform="translate(24.754375 212.016059) scale(0.1 -0.1)">
       <defs>
        <path id="DejaVuSans-37" d="M 525 4666 
L 3525 4666 
L 3525 4397 
L 1831 0 
L 1172 0 
L 2766 4134 
L 525 4134 
L 525 4666 
z
" transform="scale(0.015625)"/>
       </defs>
       <use xlink:href="#DejaVuSans-33"/>
       <use xlink:href="#DejaVuSans-35" transform="translate(63.623047 0)"/>
       <use xlink:href="#DejaVuSans-2e" transform="translate(127.246094 0)"/>
       <use xlink:href="#DejaVuSans-37" transform="translate(159.033203 0)"/>
      </g>
     </g>
    </g>
    <g id="ytick_5">
     <g id="line2d_19">
      <path d="M 54.02 163.419062 
L 457.2 163.419062 
" clip-path="url(#p7dee7cf9f0)" style="fill: none; stroke-dasharray: 0.6,0.99; stroke-dashoffset: 0; stroke: #b0b0b0; stroke-width: 0.6"/>
     </g>
     <g id="line2d_20">
      <g>
       <use xlink:href="#m85fd1db612" x="54.02" y="163.419062" style="stroke: #000000; stroke-width: 0.8"/>
      </g>
     </g>
     <g id="text_11">
      <!-- 35.8 -->
      <g transform="translate(24.754375 167.218281) scale(0.1 -0.1)">
       <use xlink:href="#DejaVuSans-33"/>
       <use xlink:href="#DejaVuSans-35" transform="translate(63.623047 0)"/>
       <use xlink:href="#DejaVuSans-2e" transform="translate(127.246094 0)"/>
       <use xlink:href="#DejaVuSans-38" transform="translate(159.033203 0)"/>
      </g>
     </g>
    </g>
    <g id="ytick_6">
     <g id="line2d_21">
      <path d="M 54.02 118.621284 
L 457.2 118.621284 
" clip-path="url(#p7dee7cf9f0)" style="fill: none; stroke-dasharray: 0.6,0.99; stroke-dashoffset: 0; stroke: #b0b0b0; stroke-width: 0.6"/>
     </g>
     <g id="line2d_22">
      <g>
       <use xlink:href="#m85fd1db612" x="54.02" y="118.621284" style="stroke: #000000; stroke-width: 0.8"/>
      </g>
     </g>
     <g id="text_12">
      <!-- 35.9 -->
      <g transform="translate(24.754375 122.420503) scale(0.1 -0.1)">
       <defs>
        <path id="DejaVuSans-39" d="M 703 97 
L 703 672 
Q 941 559 1184 500 
Q 1428 441 1663 441 
Q 2288 441 2617 861 
Q 2947 1281 2994 2138 
Q 2813 1869 2534 1725 
Q 2256 1581 1919 1581 
Q 1219 1581 811 2004 
Q 403 2428 403 3163 
Q 403 3881 828 4315 
Q 1253 4750 1959 4750 
Q 2769 4750 3195 4129 
Q 3622 3509 3622 2328 
Q 3622 1225 3098 567 
Q 2575 -91 1691 -91 
Q 1453 -91 1209 -44 
Q 966 3 703 97 
z
M 1959 2075 
Q 2384 2075 2632 2365 
Q 2881 2656 2881 3163 
Q 2881 3666 2632 3958 
Q 2384 4250 1959 4250 
Q 1534 4250 1286 3958 
Q 1038 3666 1038 3163 
Q 1038 2656 1286 2365 
Q 1534 2075 1959 2075 
z
" transform="scale(0.015625)"/>
       </defs>
       <use xlink:href="#DejaVuSans-33"/>
       <use xlink:href="#DejaVuSans-35" transform="translate(63.623047 0)"/>
       <use xlink:href="#DejaVuSans-2e" transform="translate(127.246094 0)"/>
       <use xlink:href="#DejaVuSans-39" transform="translate(159.033203 0)"/>
      </g>
     </g>
    </g>
    <g id="ytick_7">
     <g id="line2d_23">
      <path d="M 54.02 73.823507 
L 457.2 73.823507 
" clip-path="url(#p7dee7cf9f0)" style="fill: none; stroke-dasharray: 0.6,0.99; stroke-dashoffset: 0; stroke: #b0b0b0; stroke-width: 0.6"/>
     </g>
     <g id="line2d_24">
      <g>
       <use xlink:href="#m85fd1db612" x="54.02" y="73.823507" style="stroke: #000000; stroke-width: 0.8"/>
      </g>
     </g>
     <g id="text_13">
      <!-- 36.0 -->
      <g transform="translate(24.754375 77.622725) scale(0.1 -0.1)">
       <use xlink:href="#DejaVuSans-33"/>
       <use xlink:href="#DejaVuSans-36" transform="translate(63.623047 0)"/>
       <use xlink:href="#DejaVuSans-2e" transform="translate(127.246094 0)"/>
       <use xlink:href="#DejaVuSans-30" transform="translate(159.033203 0)"/>
      </g>
     </g>
    </g>
    <g id="text_14">
     <!-- Latitude [deg] -->
     <g transform="translate(18.674688 248.549531) rotate(-90) scale(0.1 -0.1)">
      <defs>
       <path id="DejaVuSans-61" d="M 2194 1759 
Q 1497 1759 1228 1600 
Q 959 1441 959 1056 
Q 959 750 1161 570 
Q 1363 391 1709 391 
Q 2188 391 2477 730 
Q 2766 1069 2766 1631 
L 2766 1759 
L 2194 1759 
z
M 3341 1997 
L 3341 0 
L 2766 0 
L 2766 531 
Q 2569 213 2275 61 
Q 1981 -91 1556 -91 
Q 1019 -91 701 211 
Q 384 513 384 1019 
Q 384 1609 779 1909 
Q 1175 2209 1959 2209 
L 2766 2209 
L 2766 2266 
Q 2766 2663 2505 2880 
Q 2244 3097 1772 3097 
Q 1472 3097 1187 3025 
Q 903 2953 641 2809 
L 641 3341 
Q 956 3463 1253 3523 
Q 1550 3584 1831 3584 
Q 2591 3584 2966 3190 
Q 3341 2797 3341 1997 
z
" transform="scale(0.015625)"/>
      </defs>
      <use xlink:href="#DejaVuSans-4c"/>
      <use xlink:href="#DejaVuSans-61" transform="translate(55.712891 0)"/>
      <use xlink:href="#DejaVuSans-74" transform="translate(116.992188 0)"/>
      <use xlink:href="#DejaVuSans-69" transform="translate(156.201172 0)"/>
      <use xlink:href="#DejaVuSans-74" transform="translate(183.984375 0)"/>
      <use xlink:href="#DejaVuSans-75" transform="translate(223.193359 0)"/>
      <use xlink:href="#DejaVuSans-64" transform="translate(286.572266 0)"/>
      <use xlink:href="#DejaVuSans-65" transform="translate(350.048828 0)"/>
      <use xlink:href="#DejaVuSans-20" transform="translate(411.572266 0)"/>
      <use xlink:href="#DejaVuSans-5b" transform="translate(443.359375 0)"/>
      <use xlink:href="#DejaVuSans-64" transform="translate(482.373047 0)"/>
      <use xlink:href="#DejaVuSans-65" transform="translate(545.849609 0)"/>
      <use xlink:href="#DejaVuSans-67" transform="translate(607.373047 0)"/>
      <use xlink:href="#DejaVuSans-5d" transform="translate(670.849609 0)"/>
     </g>
    </g>
   </g>
   <g id="line2d_25">
    <path d="M 396.717184 433 
L 395.406231 428.126029 
L 387.876637 400.164865 
L 380.338389 372.204645 
L 372.791454 344.245374 
L 365.235799 316.287052 
L 357.671316 288.329683 
L 350.098122 260.373269 
L 342.516107 232.417813 
L 334.925237 204.463317 
L 327.32548 176.509783 
L 319.7168 148.557215 
L 312.099163 120.605615 
L 304.472461 92.654986 
L 296.836808 64.705329 
L 289.192095 36.756648 
L 281.538287 8.808946 
L 278.848692 -1 
" clip-path="url(#p7dee7cf9f0)" style="fill: none; stroke: #1f77b4; stroke-linecap: square"/>
    <defs>
     <path id="mca2b9008c4" d="M 0 2.25 
C 0.596707 2.25 1.169055 2.012926 1.59099 1.59099 
C 2.012926 1.169055 2.25 0.596707 2.25 0 
C 2.25 -0.596707 2.012926 -1.169055 1.59099 -1.59099 
C 1.169055 -2.012926 0.596707 -2.25 0 -2.25 
C -0.596707 -2.25 -1.169055 -2.012926 -1.59099 -1.59099 
C -2.012926 -1.169055 -2.25 -0.596707 -2.25 0 
C -2.25 0.596707 -2.012926 1.169055 -1.59099 1.59099 
C -1.169055 2.012926 -0.596707 2.25 0 2.25 
z
" style="stroke: #1f77b4"/>
    </defs>
    <g clip-path="url(#p7dee7cf9f0)">
     <use xlink:href="#mca2b9008c4" x="689.858188" y="1547.319659" style="fill: #1f77b4; stroke: #1f77b4"/>
     <use xlink:href="#mca2b9008c4" x="682.649028" y="1519.322665" style="fill: #1f77b4; stroke: #1f77b4"/>
     <use xlink:href="#mca2b9008c4" x="675.432507" y="1491.326523" style="fill: #1f77b4; stroke: #1f77b4"/>
     <use xlink:href="#mca2b9008c4" x="668.208522" y="1463.331233" style="fill: #1f77b4; stroke: #1f77b4"/>
     <use xlink:href="#mca2b9008c4" x="660.977046" y="1435.336798" style="fill: #1f77b4; stroke: #1f77b4"/>
     <use xlink:href="#mca2b9008c4" x="653.738048" y="1407.34322" style="fill: #1f77b4; stroke: #1f77b4"/>
     <use xlink:href="#mca2b9008c4" x="646.491503" y="1379.350502" style="fill: #1f77b4; stroke: #1f77b4"/>
     <use xlink:href="#mca2b9008c4" x="639.237379" y="1351.358646" style="fill: #1f77b4; stroke: #1f77b4"/>
     <use xlink:href="#mca2b9008c4" x="631.975575" y="1323.367653" style="fill: #1f77b4; stroke: #1f77b4"/>
     <use xlink:href="#mca2b9008c4" x="624.706211" y="1295.377528" style="fill: #1f77b4; stroke: #1f77b4"/>
     <use xlink:href="#mca2b9008c4" x="617.429184" y="1267.38827" style="fill: #1f77b4; stroke: #1f77b4"/>
     <use xlink:href="#mca2b9008c4" x="610.144464" y="1239.399884" style="fill: #1f77b4; stroke: #1f77b4"/>
     <use xlink:href="#mca2b9008c4" x="602.852022" y="1211.412371" style="fill: #1f77b4; stroke: #1f77b4"/>
     <use xlink:href="#mca2b9008c4" x="595.551829" y="1183.425734" style="fill: #1f77b4; stroke: #1f77b4"/>
     <use xlink:href="#mca2b9008c4" x="588.243856" y="1155.439974" style="fill: #1f77b4; stroke: #1f77b4"/>
     <use xlink:href="#mca2b9008c4" x="580.927997" y="1127.455094" style="fill: #1f77b4; stroke: #1f77b4"/>
     <use xlink:href="#mca2b9008c4" x="573.604375" y="1099.471097" style="fill: #1f77b4; stroke: #1f77b4"/>
     <use xlink:href="#mca2b9008c4" x="566.272883" y="1071.487984" style="fill: #1f77b4; stroke: #1f77b4"/>
     <use xlink:href="#mca2b9008c4" x="558.933492" y="1043.505759" style="fill: #1f77b4; stroke: #1f77b4"/>
     <use xlink:href="#mca2b9008c4" x="551.586172" y="1015.524423" style="fill: #1f77b4; stroke: #1f77b4"/>
     <use xlink:href="#mca2b9008c4" x="544.230893" y="987.543979" style="fill: #1f77b4; stroke: #1f77b4"/>
     <use xlink:href="#mca2b9008c4" x="536.867625" y="959.564429" style="fill: #1f77b4; stroke: #1f77b4"/>
     <use xlink:href="#mca2b9008c4" x="529.496337" y="931.585775" style="fill: #1f77b4; stroke: #1f77b4"/>
     <use xlink:href="#mca2b9008c4" x="522.116924" y="903.60802" style="fill: #1f77b4; stroke: #1f77b4"/>
     <use xlink:href="#mca2b9008c4" x="514.729506" y="875.631166" style="fill: #1f77b4; stroke: #1f77b4"/>
     <use xlink:href="#mca2b9008c4" x="507.333976" y="847.655216" style="fill: #1f77b4; stroke: #1f77b4"/>
     <use xlink:href="#mca2b9008c4" x="499.930304" y="819.680172" style="fill: #1f77b4; stroke: #1f77b4"/>
     <use xlink:href="#mca2b9008c4" x="492.518458" y="791.706036" style="fill: #1f77b4; stroke: #1f77b4"/>
     <use xlink:href="#mca2b9008c4" x="485.098409" y="763.732811" style="fill: #1f77b4; stroke: #1f77b4"/>
     <use xlink:href="#mca2b9008c4" x="477.670123" y="735.760499" style="fill: #1f77b4; stroke: #1f77b4"/>
     <use xlink:href="#mca2b9008c4" x="470.233496" y="707.789103" style="fill: #1f77b4; stroke: #1f77b4"/>
     <use xlink:href="#mca2b9008c4" x="462.788646" y="679.818624" style="fill: #1f77b4; stroke: #1f77b4"/>
     <use xlink:href="#mca2b9008c4" x="455.335465" y="651.849066" style="fill: #1f77b4; stroke: #1f77b4"/>
     <use xlink:href="#mca2b9008c4" x="447.873923" y="623.880431" style="fill: #1f77b4; stroke: #1f77b4"/>
     <use xlink:href="#mca2b9008c4" x="440.403988" y="595.912721" style="fill: #1f77b4; stroke: #1f77b4"/>
     <use xlink:href="#mca2b9008c4" x="432.925627" y="567.945939" style="fill: #1f77b4; stroke: #1f77b4"/>
     <use xlink:href="#mca2b9008c4" x="425.438807" y="539.980087" style="fill: #1f77b4; stroke: #1f77b4"/>
     <use xlink:href="#mca2b9008c4" x="417.943499" y="512.015167" style="fill: #1f77b4; stroke: #1f77b4"/>
     <use xlink:href="#mca2b9008c4" x="410.439592" y="484.051183" style="fill: #1f77b4; stroke: #1f77b4"/>
     <use xlink:href="#mca2b9008c4" x="402.927205" y="456.088136" style="fill: #1f77b4; stroke: #1f77b4"/>
     <use xlink:href="#mca2b9008c4" x="395.406231" y="428.126029" style="fill: #1f77b4; stroke: #1f77b4"/>
     <use xlink:href="#mca2b9008c4" x="387.876637" y="400.164865" style="fill: #1f77b4; stroke: #1f77b4"/>
     <use xlink:href="#mca2b9008c4" x="380.338389" y="372.204645" style="fill: #1f77b4; stroke: #1f77b4"/>
     <use xlink:href="#mca2b9008c4" x="372.791454" y="344.245374" style="fill: #1f77b4; stroke: #1f77b4"/>
     <use xlink:href="#mca2b9008c4" x="365.235799" y="316.287052" style="fill: #1f77b4; stroke: #1f77b4"/>
     <use xlink:href="#mca2b9008c4" x="357.671316" y="288.329683" style="fill: #1f77b4; stroke: #1f77b4"/>
     <use xlink:href="#mca2b9008c4" x="350.098122" y="260.373269" style="fill: #1f77b4; stroke: #1f77b4"/>
     <use xlink:href="#mca2b9008c4" x="342.516107" y="232.417813" style="fill: #1f77b4; stroke: #1f77b4"/>
     <use xlink:href="#mca2b9008c4" x="334.925237" y="204.463317" style="fill: #1f77b4; stroke: #1f77b4"/>
     <use xlink:href="#mca2b9008c4" x="327.32548" y="176.509783" style="fill: #1f77b4; stroke: #1f77b4"/>
     <use xlink:href="#mca2b9008c4" x="319.7168" y="148.557215" style="fill: #1f77b4; stroke: #1f77b4"/>
     <use xlink:href="#mca2b9008c4" x="312.099163" y="120.605615" style="fill: #1f77b4; stroke: #1f77b4"/>
     <use xlink:href="#mca2b9008c4" x="304.472461" y="92.654986" style="fill: #1f77b4; stroke: #1f77b4"/>
     <use xlink:href="#mca2b9008c4" x="296.836808" y="64.705329" style="fill: #1f77b4; stroke: #1f77b4"/>
     <use xlink:href="#mca2b9008c4" x="289.192095" y="36.756648" style="fill: #1f77b4; stroke: #1f77b4"/>
     <use xlink:href="#mca2b9008c4" x="281.538287" y="8.808946" style="fill: #1f77b4; stroke: #1f77b4"/>
     <use xlink:href="#mca2b9008c4" x="278.848692" y="-1" style="fill: #1f77b4; stroke: #1f77b4"/>
    </g>
   </g>
   <g id="line2d_26">
    <path d="M 398.195372 433 
L 390.939968 406.050348 
L 383.403544 378.08993 
L 375.858441 350.130459 
L 368.304625 322.171937 
L 360.742062 294.214367 
L 353.170644 266.257752 
L 345.590489 238.302094 
L 338.001486 210.347396 
L 330.403602 182.393659 
L 322.796803 154.440888 
L 315.181055 126.489084 
L 307.556323 98.53825 
L 299.922497 70.588388 
L 292.279694 42.639502 
L 284.627803 14.691593 
L 280.326311 -1 
" clip-path="url(#p7dee7cf9f0)" style="fill: none; stroke: #ff7f0e; stroke-linecap: square"/>
    <defs>
     <path id="me795161928" d="M 0 2.25 
C 0.596707 2.25 1.169055 2.012926 1.59099 1.59099 
C 2.012926 1.169055 2.25 0.596707 2.25 0 
C 2.25 -0.596707 2.012926 -1.169055 1.59099 -1.59099 
C 1.169055 -2.012926 0.596707 -2.25 0 -2.25 
C -0.596707 -2.25 -1.169055 -2.012926 -1.59099 -1.59099 
C -2.012926 -1.169055 -2.25 -0.596707 -2.25 0 
C -2.25 0.596707 -2.012926 1.169055 -1.59099 1.59099 
C -1.169055 2.012926 -0.596707 2.25 0 2.25 
z
" style="stroke: #ff7f0e"/>
    </defs>
    <g clip-path="url(#p7dee7cf9f0)">
     <use xlink:href="#me795161928" x="685.644869" y="1525.215699" style="fill: #ff7f0e; stroke: #ff7f0e"/>
     <use xlink:href="#me795161928" x="678.42984" y="1497.219377" style="fill: #ff7f0e; stroke: #ff7f0e"/>
     <use xlink:href="#me795161928" x="671.207429" y="1469.223907" style="fill: #ff7f0e; stroke: #ff7f0e"/>
     <use xlink:href="#me795161928" x="663.977532" y="1441.229292" style="fill: #ff7f0e; stroke: #ff7f0e"/>
     <use xlink:href="#me795161928" x="656.74012" y="1413.235534" style="fill: #ff7f0e; stroke: #ff7f0e"/>
     <use xlink:href="#me795161928" x="649.495166" y="1385.242634" style="fill: #ff7f0e; stroke: #ff7f0e"/>
     <use xlink:href="#me795161928" x="642.24264" y="1357.250597" style="fill: #ff7f0e; stroke: #ff7f0e"/>
     <use xlink:href="#me795161928" x="634.982514" y="1329.259422" style="fill: #ff7f0e; stroke: #ff7f0e"/>
     <use xlink:href="#me795161928" x="627.714684" y="1301.269114" style="fill: #ff7f0e; stroke: #ff7f0e"/>
     <use xlink:href="#me795161928" x="620.439273" y="1273.279674" style="fill: #ff7f0e; stroke: #ff7f0e"/>
     <use xlink:href="#me795161928" x="613.156174" y="1245.291104" style="fill: #ff7f0e; stroke: #ff7f0e"/>
     <use xlink:href="#me795161928" x="605.86536" y="1217.303407" style="fill: #ff7f0e; stroke: #ff7f0e"/>
     <use xlink:href="#me795161928" x="598.566801" y="1189.316585" style="fill: #ff7f0e; stroke: #ff7f0e"/>
     <use xlink:href="#me795161928" x="591.260468" y="1161.33064" style="fill: #ff7f0e; stroke: #ff7f0e"/>
     <use xlink:href="#me795161928" x="583.946331" y="1133.345575" style="fill: #ff7f0e; stroke: #ff7f0e"/>
     <use xlink:href="#me795161928" x="576.624286" y="1105.361392" style="fill: #ff7f0e; stroke: #ff7f0e"/>
     <use xlink:href="#me795161928" x="569.294453" y="1077.378093" style="fill: #ff7f0e; stroke: #ff7f0e"/>
     <use xlink:href="#me795161928" x="561.956727" y="1049.395681" style="fill: #ff7f0e; stroke: #ff7f0e"/>
     <use xlink:href="#me795161928" x="554.611079" y="1021.414157" style="fill: #ff7f0e; stroke: #ff7f0e"/>
     <use xlink:href="#me795161928" x="547.257478" y="993.433525" style="fill: #ff7f0e; stroke: #ff7f0e"/>
     <use xlink:href="#me795161928" x="539.895894" y="965.453787" style="fill: #ff7f0e; stroke: #ff7f0e"/>
     <use xlink:href="#me795161928" x="532.526297" y="937.474944" style="fill: #ff7f0e; stroke: #ff7f0e"/>
     <use xlink:href="#me795161928" x="525.148656" y="909.497" style="fill: #ff7f0e; stroke: #ff7f0e"/>
     <use xlink:href="#me795161928" x="517.762865" y="881.519956" style="fill: #ff7f0e; stroke: #ff7f0e"/>
     <use xlink:href="#me795161928" x="510.369045" y="853.543816" style="fill: #ff7f0e; stroke: #ff7f0e"/>
     <use xlink:href="#me795161928" x="502.96709" y="825.568581" style="fill: #ff7f0e; stroke: #ff7f0e"/>
     <use xlink:href="#me795161928" x="495.556967" y="797.594254" style="fill: #ff7f0e; stroke: #ff7f0e"/>
     <use xlink:href="#me795161928" x="488.138647" y="769.620837" style="fill: #ff7f0e; stroke: #ff7f0e"/>
     <use xlink:href="#me795161928" x="480.712098" y="741.648332" style="fill: #ff7f0e; stroke: #ff7f0e"/>
     <use xlink:href="#me795161928" x="473.277289" y="713.676743" style="fill: #ff7f0e; stroke: #ff7f0e"/>
     <use xlink:href="#me795161928" x="465.834112" y="685.706071" style="fill: #ff7f0e; stroke: #ff7f0e"/>
     <use xlink:href="#me795161928" x="458.382688" y="657.736319" style="fill: #ff7f0e; stroke: #ff7f0e"/>
     <use xlink:href="#me795161928" x="450.922909" y="629.767489" style="fill: #ff7f0e; stroke: #ff7f0e"/>
     <use xlink:href="#me795161928" x="443.454743" y="601.799584" style="fill: #ff7f0e; stroke: #ff7f0e"/>
     <use xlink:href="#me795161928" x="435.978157" y="573.832606" style="fill: #ff7f0e; stroke: #ff7f0e"/>
     <use xlink:href="#me795161928" x="428.493122" y="545.866558" style="fill: #ff7f0e; stroke: #ff7f0e"/>
     <use xlink:href="#me795161928" x="420.999602" y="517.901442" style="fill: #ff7f0e; stroke: #ff7f0e"/>
     <use xlink:href="#me795161928" x="413.497567" y="489.937261" style="fill: #ff7f0e; stroke: #ff7f0e"/>
     <use xlink:href="#me795161928" x="405.986909" y="461.974016" style="fill: #ff7f0e; stroke: #ff7f0e"/>
     <use xlink:href="#me795161928" x="398.467745" y="434.011711" style="fill: #ff7f0e; stroke: #ff7f0e"/>
     <use xlink:href="#me795161928" x="390.939968" y="406.050348" style="fill: #ff7f0e; stroke: #ff7f0e"/>
     <use xlink:href="#me795161928" x="383.403544" y="378.08993" style="fill: #ff7f0e; stroke: #ff7f0e"/>
     <use xlink:href="#me795161928" x="375.858441" y="350.130459" style="fill: #ff7f0e; stroke: #ff7f0e"/>
     <use xlink:href="#me795161928" x="368.304625" y="322.171937" style="fill: #ff7f0e; stroke: #ff7f0e"/>
     <use xlink:href="#me795161928" x="360.742062" y="294.214367" style="fill: #ff7f0e; stroke: #ff7f0e"/>
     <use xlink:href="#me795161928" x="353.170644" y="266.257752" style="fill: #ff7f0e; stroke: #ff7f0e"/>
     <use xlink:href="#me795161928" x="345.590489" y="238.302094" style="fill: #ff7f0e; stroke: #ff7f0e"/>
     <use xlink:href="#me795161928" x="338.001486" y="210.347396" style="fill: #ff7f0e; stroke: #ff7f0e"/>
     <use xlink:href="#me795161928" x="330.403602" y="182.393659" style="fill: #ff7f0e; stroke: #ff7f0e"/>
     <use xlink:href="#me795161928" x="322.796803" y="154.440888" style="fill: #ff7f0e; stroke: #ff7f0e"/>
     <use xlink:href="#me795161928" x="315.181055" y="126.489084" style="fill: #ff7f0e; stroke: #ff7f0e"/>
     <use xlink:href="#me795161928" x="307.556323" y="98.53825" style="fill: #ff7f0e; stroke: #ff7f0e"/>
     <use xlink:href="#me795161928" x="299.922497" y="70.588388" style="fill: #ff7f0e; stroke: #ff7f0e"/>
     <use xlink:href="#me795161928" x="292.279694" y="42.639502" style="fill: #ff7f0e; stroke: #ff7f0e"/>
     <use xlink:href="#me795161928" x="284.627803" y="14.691593" style="fill: #ff7f0e; stroke: #ff7f0e"/>
     <use xlink:href="#me795161928" x="280.326311" y="-1" style="fill: #ff7f0e; stroke: #ff7f0e"/>
    </g>
   </g>
   <g id="line2d_27">
    <path d="M 397.440375 433 
L 393.173772 417.144668 
L 385.640766 389.18392 
L 378.099093 361.224117 
L 370.54872 333.265263 
L 362.989613 305.307359 
L 355.421666 277.350409 
L 347.844993 249.394414 
L 340.259487 221.439378 
L 332.665113 193.485303 
L 325.061838 165.532191 
L 317.449627 137.580046 
L 309.828445 109.628869 
L 302.198183 81.678663 
L 294.558958 53.729431 
L 286.910659 25.781175 
L 279.572756 -1 
" clip-path="url(#p7dee7cf9f0)" style="fill: none; stroke: #2ca02c; stroke-linecap: square"/>
    <defs>
     <path id="m95b8c8e09b" d="M 0 2.25 
C 0.596707 2.25 1.169055 2.012926 1.59099 1.59099 
C 2.012926 1.169055 2.25 0.596707 2.25 0 
C 2.25 -0.596707 2.012926 -1.169055 1.59099 -1.59099 
C 1.169055 -2.012926 0.596707 -2.25 0 -2.25 
C -0.596707 -2.25 -1.169055 -2.012926 -1.59099 -1.59099 
C -2.012926 -1.169055 -2.25 -0.596707 -2.25 0 
C -2.25 0.596707 -2.012926 1.169055 -1.59099 1.59099 
C -1.169055 2.012926 -0.596707 2.25 0 2.25 
z
" style="stroke: #2ca02c"/>
    </defs>
    <g clip-path="url(#p7dee7cf9f0)">
     <use xlink:href="#m95b8c8e09b" x="687.752107" y="1536.322223" style="fill: #2ca02c; stroke: #2ca02c"/>
     <use xlink:href="#m95b8c8e09b" x="680.540014" y="1508.325619" style="fill: #2ca02c; stroke: #2ca02c"/>
     <use xlink:href="#m95b8c8e09b" x="673.32055" y="1480.329866" style="fill: #2ca02c; stroke: #2ca02c"/>
     <use xlink:href="#m95b8c8e09b" x="666.093612" y="1452.334967" style="fill: #2ca02c; stroke: #2ca02c"/>
     <use xlink:href="#m95b8c8e09b" x="658.85917" y="1424.340923" style="fill: #2ca02c; stroke: #2ca02c"/>
     <use xlink:href="#m95b8c8e09b" x="651.617196" y="1396.347737" style="fill: #2ca02c; stroke: #2ca02c"/>
     <use xlink:href="#m95b8c8e09b" x="644.367663" y="1368.355411" style="fill: #2ca02c; stroke: #2ca02c"/>
     <use xlink:href="#m95b8c8e09b" x="637.11054" y="1340.363948" style="fill: #2ca02c; stroke: #2ca02c"/>
     <use xlink:href="#m95b8c8e09b" x="629.845725" y="1312.37335" style="fill: #2ca02c; stroke: #2ca02c"/>
     <use xlink:href="#m95b8c8e09b" x="622.57334" y="1284.383618" style="fill: #2ca02c; stroke: #2ca02c"/>
     <use xlink:href="#m95b8c8e09b" x="615.293279" y="1256.394756" style="fill: #2ca02c; stroke: #2ca02c"/>
     <use xlink:href="#m95b8c8e09b" x="608.005515" y="1228.406765" style="fill: #2ca02c; stroke: #2ca02c"/>
     <use xlink:href="#m95b8c8e09b" x="600.710016" y="1200.419648" style="fill: #2ca02c; stroke: #2ca02c"/>
     <use xlink:href="#m95b8c8e09b" x="593.406756" y="1172.433407" style="fill: #2ca02c; stroke: #2ca02c"/>
     <use xlink:href="#m95b8c8e09b" x="586.095703" y="1144.448045" style="fill: #2ca02c; stroke: #2ca02c"/>
     <use xlink:href="#m95b8c8e09b" x="578.776753" y="1116.463563" style="fill: #2ca02c; stroke: #2ca02c"/>
     <use xlink:href="#m95b8c8e09b" x="571.450028" y="1088.479965" style="fill: #2ca02c; stroke: #2ca02c"/>
     <use xlink:href="#m95b8c8e09b" x="564.115421" y="1060.497252" style="fill: #2ca02c; stroke: #2ca02c"/>
     <use xlink:href="#m95b8c8e09b" x="556.772904" y="1032.515427" style="fill: #2ca02c; stroke: #2ca02c"/>
     <use xlink:href="#m95b8c8e09b" x="549.422446" y="1004.534491" style="fill: #2ca02c; stroke: #2ca02c"/>
     <use xlink:href="#m95b8c8e09b" x="542.064017" y="976.554448" style="fill: #2ca02c; stroke: #2ca02c"/>
     <use xlink:href="#m95b8c8e09b" x="534.697587" y="948.5753" style="fill: #2ca02c; stroke: #2ca02c"/>
     <use xlink:href="#m95b8c8e09b" x="527.323125" y="920.597049" style="fill: #2ca02c; stroke: #2ca02c"/>
     <use xlink:href="#m95b8c8e09b" x="519.940525" y="892.619698" style="fill: #2ca02c; stroke: #2ca02c"/>
     <use xlink:href="#m95b8c8e09b" x="512.549909" y="864.643248" style="fill: #2ca02c; stroke: #2ca02c"/>
     <use xlink:href="#m95b8c8e09b" x="505.151168" y="836.667703" style="fill: #2ca02c; stroke: #2ca02c"/>
     <use xlink:href="#m95b8c8e09b" x="497.744273" y="808.693064" style="fill: #2ca02c; stroke: #2ca02c"/>
     <use xlink:href="#m95b8c8e09b" x="490.329193" y="780.719334" style="fill: #2ca02c; stroke: #2ca02c"/>
     <use xlink:href="#m95b8c8e09b" x="482.905896" y="752.746516" style="fill: #2ca02c; stroke: #2ca02c"/>
     <use xlink:href="#m95b8c8e09b" x="475.474351" y="724.774611" style="fill: #2ca02c; stroke: #2ca02c"/>
     <use xlink:href="#m95b8c8e09b" x="468.034452" y="696.803623" style="fill: #2ca02c; stroke: #2ca02c"/>
     <use xlink:href="#m95b8c8e09b" x="460.586317" y="668.833553" style="fill: #2ca02c; stroke: #2ca02c"/>
     <use xlink:href="#m95b8c8e09b" x="453.129839" y="640.864405" style="fill: #2ca02c; stroke: #2ca02c"/>
     <use xlink:href="#m95b8c8e09b" x="445.664988" y="612.89618" style="fill: #2ca02c; stroke: #2ca02c"/>
     <use xlink:href="#m95b8c8e09b" x="438.19173" y="584.928881" style="fill: #2ca02c; stroke: #2ca02c"/>
     <use xlink:href="#m95b8c8e09b" x="430.710034" y="556.96251" style="fill: #2ca02c; stroke: #2ca02c"/>
     <use xlink:href="#m95b8c8e09b" x="423.219867" y="528.99707" style="fill: #2ca02c; stroke: #2ca02c"/>
     <use xlink:href="#m95b8c8e09b" x="415.721198" y="501.032563" style="fill: #2ca02c; stroke: #2ca02c"/>
     <use xlink:href="#m95b8c8e09b" x="408.213918" y="473.068993" style="fill: #2ca02c; stroke: #2ca02c"/>
     <use xlink:href="#m95b8c8e09b" x="400.698145" y="445.10636" style="fill: #2ca02c; stroke: #2ca02c"/>
     <use xlink:href="#m95b8c8e09b" x="393.173772" y="417.144668" style="fill: #2ca02c; stroke: #2ca02c"/>
     <use xlink:href="#m95b8c8e09b" x="385.640766" y="389.18392" style="fill: #2ca02c; stroke: #2ca02c"/>
     <use xlink:href="#m95b8c8e09b" x="378.099093" y="361.224117" style="fill: #2ca02c; stroke: #2ca02c"/>
     <use xlink:href="#m95b8c8e09b" x="370.54872" y="333.265263" style="fill: #2ca02c; stroke: #2ca02c"/>
     <use xlink:href="#m95b8c8e09b" x="362.989613" y="305.307359" style="fill: #2ca02c; stroke: #2ca02c"/>
     <use xlink:href="#m95b8c8e09b" x="355.421666" y="277.350409" style="fill: #2ca02c; stroke: #2ca02c"/>
     <use xlink:href="#m95b8c8e09b" x="347.844993" y="249.394414" style="fill: #2ca02c; stroke: #2ca02c"/>
     <use xlink:href="#m95b8c8e09b" x="340.259487" y="221.439378" style="fill: #2ca02c; stroke: #2ca02c"/>
     <use xlink:href="#m95b8c8e09b" x="332.665113" y="193.485303" style="fill: #2ca02c; stroke: #2ca02c"/>
     <use xlink:href="#m95b8c8e09b" x="325.061838" y="165.532191" style="fill: #2ca02c; stroke: #2ca02c"/>
     <use xlink:href="#m95b8c8e09b" x="317.449627" y="137.580046" style="fill: #2ca02c; stroke: #2ca02c"/>
     <use xlink:href="#m95b8c8e09b" x="309.828445" y="109.628869" style="fill: #2ca02c; stroke: #2ca02c"/>
     <use xlink:href="#m95b8c8e09b" x="302.198183" y="81.678663" style="fill: #2ca02c; stroke: #2ca02c"/>
     <use xlink:href="#m95b8c8e09b" x="294.558958" y="53.729431" style="fill: #2ca02c; stroke: #2ca02c"/>
     <use xlink:href="#m95b8c8e09b" x="286.910659" y="25.781175" style="fill: #2ca02c; stroke: #2ca02c"/>
     <use xlink:href="#m95b8c8e09b" x="279.572756" y="-1" style="fill: #2ca02c; stroke: #2ca02c"/>
    </g>
   </g>
   <g id="patch_3">
    <path d="M 54.02 369.847222 
L 54.02 56.262778 
" style="fill: none; stroke: #000000; stroke-width: 0.8; stroke-linejoin: miter; stroke-linecap: square"/>
   </g>
   <g id="patch_4">
    <path d="M 457.2 369.847222 
L 457.2 56.262778 
" style="fill: none; stroke: #000000; stroke-width: 0.8; stroke-linejoin: miter; stroke-linecap: square"/>
   </g>
   <g id="patch_5">
    <path d="M 54.02 369.847222 
L 457.2 369.847222 
" style="fill: none; stroke: #000000; stroke-width: 0.8; stroke-linejoin: miter; stroke-linecap: square"/>
   </g>
   <g id="patch_6">
    <path d="M 54.02 56.262778 
L 457.2 56.262778 
" style="fill: none; stroke: #000000; stroke-width: 0.8; stroke-linejoin: miter; stroke-linecap: square"/>
   </g>
   <g id="text_15">
    <!-- Ninety-second ground tracks centred on Tehran -->
    <g transform="translate(112.905625 50.262778) scale(0.12 -0.12)">
     <defs>
      <path id="DejaVuSans-4e" d="M 628 4666 
L 1478 4666 
L 3547 763 
L 3547 4666 
L 4159 4666 
L 4159 0 
L 3309 0 
L 1241 3903 
L 1241 0 
L 628 0 
L 628 4666 
z
" transform="scale(0.015625)"/>
      <path id="DejaVuSans-79" d="M 2059 -325 
Q 1816 -950 1584 -1140 
Q 1353 -1331 966 -1331 
L 506 -1331 
L 506 -850 
L 844 -850 
Q 1081 -850 1212 -737 
Q 1344 -625 1503 -206 
L 1606 56 
L 191 3500 
L 800 3500 
L 1894 763 
L 2988 3500 
L 3597 3500 
L 2059 -325 
z
" transform="scale(0.015625)"/>
      <path id="DejaVuSans-2d" d="M 313 2009 
L 1997 2009 
L 1997 1497 
L 313 1497 
L 313 2009 
z
" transform="scale(0.015625)"/>
      <path id="DejaVuSans-73" d="M 2834 3397 
L 2834 2853 
Q 2591 2978 2328 3040 
Q 2066 3103 1784 3103 
Q 1356 3103 1142 2972 
Q 928 2841 928 2578 
Q 928 2378 1081 2264 
Q 1234 2150 1697 2047 
L 1894 2003 
Q 2506 1872 2764 1633 
Q 3022 1394 3022 966 
Q 3022 478 2636 193 
Q 2250 -91 1575 -91 
Q 1294 -91 989 -36 
Q 684 19 347 128 
L 347 722 
Q 666 556 975 473 
Q 1284 391 1588 391 
Q 1994 391 2212 530 
Q 2431 669 2431 922 
Q 2431 1156 2273 1281 
Q 2116 1406 1581 1522 
L 1381 1569 
Q 847 1681 609 1914 
Q 372 2147 372 2553 
Q 372 3047 722 3315 
Q 1072 3584 1716 3584 
Q 2034 3584 2315 3537 
Q 2597 3491 2834 3397 
z
" transform="scale(0.015625)"/>
      <path id="DejaVuSans-63" d="M 3122 3366 
L 3122 2828 
Q 2878 2963 2633 3030 
Q 2388 3097 2138 3097 
Q 1578 3097 1268 2742 
Q 959 2388 959 1747 
Q 959 1106 1268 751 
Q 1578 397 2138 397 
Q 2388 397 2633 464 
Q 2878 531 3122 666 
L 3122 134 
Q 2881 22 2623 -34 
Q 2366 -91 2075 -91 
Q 1284 -91 818 406 
Q 353 903 353 1747 
Q 353 2603 823 3093 
Q 1294 3584 2113 3584 
Q 2378 3584 2631 3529 
Q 2884 3475 3122 3366 
z
" transform="scale(0.015625)"/>
      <path id="DejaVuSans-72" d="M 2631 2963 
Q 2534 3019 2420 3045 
Q 2306 3072 2169 3072 
Q 1681 3072 1420 2755 
Q 1159 2438 1159 1844 
L 1159 0 
L 581 0 
L 581 3500 
L 1159 3500 
L 1159 2956 
Q 1341 3275 1631 3429 
Q 1922 3584 2338 3584 
Q 2397 3584 2469 3576 
Q 2541 3569 2628 3553 
L 2631 2963 
z
" transform="scale(0.015625)"/>
      <path id="DejaVuSans-6b" d="M 581 4863 
L 1159 4863 
L 1159 1991 
L 2875 3500 
L 3609 3500 
L 1753 1863 
L 3688 0 
L 2938 0 
L 1159 1709 
L 1159 0 
L 581 0 
L 581 4863 
z
" transform="scale(0.015625)"/>
      <path id="DejaVuSans-54" d="M -19 4666 
L 3928 4666 
L 3928 4134 
L 2272 4134 
L 2272 0 
L 1638 0 
L 1638 4134 
L -19 4134 
L -19 4666 
z
" transform="scale(0.015625)"/>
      <path id="DejaVuSans-68" d="M 3513 2113 
L 3513 0 
L 2938 0 
L 2938 2094 
Q 2938 2591 2744 2837 
Q 2550 3084 2163 3084 
Q 1697 3084 1428 2787 
Q 1159 2491 1159 1978 
L 1159 0 
L 581 0 
L 581 4863 
L 1159 4863 
L 1159 2956 
Q 1366 3272 1645 3428 
Q 1925 3584 2291 3584 
Q 2894 3584 3203 3211 
Q 3513 2838 3513 2113 
z
" transform="scale(0.015625)"/>
     </defs>
     <use xlink:href="#DejaVuSans-4e"/>
     <use xlink:href="#DejaVuSans-69" transform="translate(74.804688 0)"/>
     <use xlink:href="#DejaVuSans-6e" transform="translate(102.587891 0)"/>
     <use xlink:href="#DejaVuSans-65" transform="translate(165.966797 0)"/>
     <use xlink:href="#DejaVuSans-74" transform="translate(227.490234 0)"/>
     <use xlink:href="#DejaVuSans-79" transform="translate(266.699219 0)"/>
     <use xlink:href="#DejaVuSans-2d" transform="translate(324.128906 0)"/>
     <use xlink:href="#DejaVuSans-73" transform="translate(360.212891 0)"/>
     <use xlink:href="#DejaVuSans-65" transform="translate(412.3125 0)"/>
     <use xlink:href="#DejaVuSans-63" transform="translate(473.835938 0)"/>
     <use xlink:href="#DejaVuSans-6f" transform="translate(528.816406 0)"/>
     <use xlink:href="#DejaVuSans-6e" transform="translate(589.998047 0)"/>
     <use xlink:href="#DejaVuSans-64" transform="translate(653.376953 0)"/>
     <use xlink:href="#DejaVuSans-20" transform="translate(716.853516 0)"/>
     <use xlink:href="#DejaVuSans-67" transform="translate(748.640625 0)"/>
     <use xlink:href="#DejaVuSans-72" transform="translate(812.117188 0)"/>
     <use xlink:href="#DejaVuSans-6f" transform="translate(850.980469 0)"/>
     <use xlink:href="#DejaVuSans-75" transform="translate(912.162109 0)"/>
     <use xlink:href="#DejaVuSans-6e" transform="translate(975.541016 0)"/>
     <use xlink:href="#DejaVuSans-64" transform="translate(1038.919922 0)"/>
     <use xlink:href="#DejaVuSans-20" transform="translate(1102.396484 0)"/>
     <use xlink:href="#DejaVuSans-74" transform="translate(1134.183594 0)"/>
     <use xlink:href="#DejaVuSans-72" transform="translate(1173.392578 0)"/>
     <use xlink:href="#DejaVuSans-61" transform="translate(1214.505859 0)"/>
     <use xlink:href="#DejaVuSans-63" transform="translate(1275.785156 0)"/>
     <use xlink:href="#DejaVuSans-6b" transform="translate(1330.765625 0)"/>
     <use xlink:href="#DejaVuSans-73" transform="translate(1388.675781 0)"/>
     <use xlink:href="#DejaVuSans-20" transform="translate(1440.775391 0)"/>
     <use xlink:href="#DejaVuSans-63" transform="translate(1472.5625 0)"/>
     <use xlink:href="#DejaVuSans-65" transform="translate(1527.542969 0)"/>
     <use xlink:href="#DejaVuSans-6e" transform="translate(1589.066406 0)"/>
     <use xlink:href="#DejaVuSans-74" transform="translate(1652.445312 0)"/>
     <use xlink:href="#DejaVuSans-72" transform="translate(1691.654297 0)"/>
     <use xlink:href="#DejaVuSans-65" transform="translate(1730.517578 0)"/>
     <use xlink:href="#DejaVuSans-64" transform="translate(1792.041016 0)"/>
     <use xlink:href="#DejaVuSans-20" transform="translate(1855.517578 0)"/>
     <use xlink:href="#DejaVuSans-6f" transform="translate(1887.304688 0)"/>
     <use xlink:href="#DejaVuSans-6e" transform="translate(1948.486328 0)"/>
     <use xlink:href="#DejaVuSans-20" transform="translate(2011.865234 0)"/>
     <use xlink:href="#DejaVuSans-54" transform="translate(2043.652344 0)"/>
     <use xlink:href="#DejaVuSans-65" transform="translate(2087.736328 0)"/>
     <use xlink:href="#DejaVuSans-68" transform="translate(2149.259766 0)"/>
     <use xlink:href="#DejaVuSans-72" transform="translate(2212.638672 0)"/>
     <use xlink:href="#DejaVuSans-61" transform="translate(2253.751953 0)"/>
     <use xlink:href="#DejaVuSans-6e" transform="translate(2315.03125 0)"/>
    </g>
   </g>
   <g id="PathCollection_1">
    <defs>
     <path id="m18ddc4a690" d="M 0 2.95804 
C 0.784481 2.95804 1.536938 2.646362 2.09165 2.09165 
C 2.646362 1.536938 2.95804 0.784481 2.95804 0 
C 2.95804 -0.784481 2.646362 -1.536938 2.09165 -2.09165 
C 1.536938 -2.646362 0.784481 -2.95804 0 -2.95804 
C -0.784481 -2.95804 -1.536938 -2.646362 -2.09165 -2.09165 
C -2.646362 -1.536938 -2.95804 -0.784481 -2.95804 0 
C -2.95804 0.784481 -2.646362 1.536938 -2.09165 2.09165 
C -1.536938 2.646362 -0.784481 2.95804 0 2.95804 
z
" style="stroke: #1f77b4"/>
    </defs>
    <g clip-path="url(#p7dee7cf9f0)"/>
   </g>
   <g id="PathCollection_2">
    <defs>
     <path id="mafece60c5b" d="M 0 2.95804 
C 0.784481 2.95804 1.536938 2.646362 2.09165 2.09165 
C 2.646362 1.536938 2.95804 0.784481 2.95804 0 
C 2.95804 -0.784481 2.646362 -1.536938 2.09165 -2.09165 
C 1.536938 -2.646362 0.784481 -2.95804 0 -2.95804 
C -0.784481 -2.95804 -1.536938 -2.646362 -2.09165 -2.09165 
C -2.646362 -1.536938 -2.95804 -0.784481 -2.95804 0 
C -2.95804 0.784481 -2.646362 1.536938 -2.09165 2.09165 
C -1.536938 2.646362 -0.784481 2.95804 0 2.95804 
z
" style="stroke: #ff7f0e"/>
    </defs>
    <g clip-path="url(#p7dee7cf9f0)"/>
   </g>
   <g id="PathCollection_3">
    <defs>
     <path id="m1bc5283aea" d="M 0 2.95804 
C 0.784481 2.95804 1.536938 2.646362 2.09165 2.09165 
C 2.646362 1.536938 2.95804 0.784481 2.95804 0 
C 2.95804 -0.784481 2.646362 -1.536938 2.09165 -2.09165 
C 1.536938 -2.646362 0.784481 -2.95804 0 -2.95804 
C -0.784481 -2.95804 -1.536938 -2.646362 -2.09165 -2.09165 
C -2.646362 -1.536938 -2.95804 -0.784481 -2.95804 0 
C -2.95804 0.784481 -2.646362 1.536938 -2.09165 2.09165 
C -1.536938 2.646362 -0.784481 2.95804 0 2.95804 
z
" style="stroke: #2ca02c"/>
    </defs>
    <g clip-path="url(#p7dee7cf9f0)"/>
   </g>
   <g id="legend_1">
    <g id="patch_7">
     <path d="M 349.331706 111.83429 
L 451.369 111.83429 
Q 453.035 111.83429 453.035 110.16829 
L 453.035 62.093778 
Q 453.035 60.427778 451.369 60.427778 
L 349.331706 60.427778 
Q 347.665706 60.427778 347.665706 62.093778 
L 347.665706 110.16829 
Q 347.665706 111.83429 349.331706 111.83429 
z
" style="fill: #ffffff; opacity: 0.8; stroke: #cccccc; stroke-linejoin: miter"/>
    </g>
    <g id="line2d_28">
     <path d="M 350.997706 67.173776 
L 359.327706 67.173776 
L 367.657706 67.173776 
" style="fill: none; stroke: #1f77b4; stroke-linecap: square"/>
     <g>
      <use xlink:href="#mca2b9008c4" x="359.327706" y="67.173776" style="fill: #1f77b4; stroke: #1f77b4"/>
     </g>
    </g>
    <g id="text_16">
     <!-- SAT-1 Tehran pass -->
     <g transform="translate(374.321706 70.089276) scale(0.0833 -0.0833)">
      <defs>
       <path id="DejaVuSans-53" d="M 3425 4513 
L 3425 3897 
Q 3066 4069 2747 4153 
Q 2428 4238 2131 4238 
Q 1616 4238 1336 4038 
Q 1056 3838 1056 3469 
Q 1056 3159 1242 3001 
Q 1428 2844 1947 2747 
L 2328 2669 
Q 3034 2534 3370 2195 
Q 3706 1856 3706 1288 
Q 3706 609 3251 259 
Q 2797 -91 1919 -91 
Q 1588 -91 1214 -16 
Q 841 59 441 206 
L 441 856 
Q 825 641 1194 531 
Q 1563 422 1919 422 
Q 2459 422 2753 634 
Q 3047 847 3047 1241 
Q 3047 1584 2836 1778 
Q 2625 1972 2144 2069 
L 1759 2144 
Q 1053 2284 737 2584 
Q 422 2884 422 3419 
Q 422 4038 858 4394 
Q 1294 4750 2059 4750 
Q 2388 4750 2728 4690 
Q 3069 4631 3425 4513 
z
" transform="scale(0.015625)"/>
       <path id="DejaVuSans-41" d="M 2188 4044 
L 1331 1722 
L 3047 1722 
L 2188 4044 
z
M 1831 4666 
L 2547 4666 
L 4325 0 
L 3669 0 
L 3244 1197 
L 1141 1197 
L 716 0 
L 50 0 
L 1831 4666 
z
" transform="scale(0.015625)"/>
       <path id="DejaVuSans-70" d="M 1159 525 
L 1159 -1331 
L 581 -1331 
L 581 3500 
L 1159 3500 
L 1159 2969 
Q 1341 3281 1617 3432 
Q 1894 3584 2278 3584 
Q 2916 3584 3314 3078 
Q 3713 2572 3713 1747 
Q 3713 922 3314 415 
Q 2916 -91 2278 -91 
Q 1894 -91 1617 61 
Q 1341 213 1159 525 
z
M 3116 1747 
Q 3116 2381 2855 2742 
Q 2594 3103 2138 3103 
Q 1681 3103 1420 2742 
Q 1159 2381 1159 1747 
Q 1159 1113 1420 752 
Q 1681 391 2138 391 
Q 2594 391 2855 752 
Q 3116 1113 3116 1747 
z
" transform="scale(0.015625)"/>
      </defs>
      <use xlink:href="#DejaVuSans-53"/>
      <use xlink:href="#DejaVuSans-41" transform="translate(65.351562 0)"/>
      <use xlink:href="#DejaVuSans-54" transform="translate(126.009766 0)"/>
      <use xlink:href="#DejaVuSans-2d" transform="translate(177.96875 0)"/>
      <use xlink:href="#DejaVuSans-31" transform="translate(214.052734 0)"/>
      <use xlink:href="#DejaVuSans-20" transform="translate(277.675781 0)"/>
      <use xlink:href="#DejaVuSans-54" transform="translate(309.462891 0)"/>
      <use xlink:href="#DejaVuSans-65" transform="translate(353.546875 0)"/>
      <use xlink:href="#DejaVuSans-68" transform="translate(415.070312 0)"/>
      <use xlink:href="#DejaVuSans-72" transform="translate(478.449219 0)"/>
      <use xlink:href="#DejaVuSans-61" transform="translate(519.5625 0)"/>
      <use xlink:href="#DejaVuSans-6e" transform="translate(580.841797 0)"/>
      <use xlink:href="#DejaVuSans-20" transform="translate(644.220703 0)"/>
      <use xlink:href="#DejaVuSans-70" transform="translate(676.007812 0)"/>
      <use xlink:href="#DejaVuSans-61" transform="translate(739.484375 0)"/>
      <use xlink:href="#DejaVuSans-73" transform="translate(800.763672 0)"/>
      <use xlink:href="#DejaVuSans-73" transform="translate(852.863281 0)"/>
     </g>
    </g>
    <g id="line2d_29">
     <path d="M 350.997706 79.400654 
L 359.327706 79.400654 
L 367.657706 79.400654 
" style="fill: none; stroke: #ff7f0e; stroke-linecap: square"/>
     <g>
      <use xlink:href="#me795161928" x="359.327706" y="79.400654" style="fill: #ff7f0e; stroke: #ff7f0e"/>
     </g>
    </g>
    <g id="text_17">
     <!-- SAT-2 Tehran pass -->
     <g transform="translate(374.321706 82.316154) scale(0.0833 -0.0833)">
      <use xlink:href="#DejaVuSans-53"/>
      <use xlink:href="#DejaVuSans-41" transform="translate(65.351562 0)"/>
      <use xlink:href="#DejaVuSans-54" transform="translate(126.009766 0)"/>
      <use xlink:href="#DejaVuSans-2d" transform="translate(177.96875 0)"/>
      <use xlink:href="#DejaVuSans-32" transform="translate(214.052734 0)"/>
      <use xlink:href="#DejaVuSans-20" transform="translate(277.675781 0)"/>
      <use xlink:href="#DejaVuSans-54" transform="translate(309.462891 0)"/>
      <use xlink:href="#DejaVuSans-65" transform="translate(353.546875 0)"/>
      <use xlink:href="#DejaVuSans-68" transform="translate(415.070312 0)"/>
      <use xlink:href="#DejaVuSans-72" transform="translate(478.449219 0)"/>
      <use xlink:href="#DejaVuSans-61" transform="translate(519.5625 0)"/>
      <use xlink:href="#DejaVuSans-6e" transform="translate(580.841797 0)"/>
      <use xlink:href="#DejaVuSans-20" transform="translate(644.220703 0)"/>
      <use xlink:href="#DejaVuSans-70" transform="translate(676.007812 0)"/>
      <use xlink:href="#DejaVuSans-61" transform="translate(739.484375 0)"/>
      <use xlink:href="#DejaVuSans-73" transform="translate(800.763672 0)"/>
      <use xlink:href="#DejaVuSans-73" transform="translate(852.863281 0)"/>
     </g>
    </g>
    <g id="line2d_30">
     <path d="M 350.997706 91.627532 
L 359.327706 91.627532 
L 367.657706 91.627532 
" style="fill: none; stroke: #2ca02c; stroke-linecap: square"/>
     <g>
      <use xlink:href="#m95b8c8e09b" x="359.327706" y="91.627532" style="fill: #2ca02c; stroke: #2ca02c"/>
     </g>
    </g>
    <g id="text_18">
     <!-- SAT-3 Tehran pass -->
     <g transform="translate(374.321706 94.543032) scale(0.0833 -0.0833)">
      <use xlink:href="#DejaVuSans-53"/>
      <use xlink:href="#DejaVuSans-41" transform="translate(65.351562 0)"/>
      <use xlink:href="#DejaVuSans-54" transform="translate(126.009766 0)"/>
      <use xlink:href="#DejaVuSans-2d" transform="translate(177.96875 0)"/>
      <use xlink:href="#DejaVuSans-33" transform="translate(214.052734 0)"/>
      <use xlink:href="#DejaVuSans-20" transform="translate(277.675781 0)"/>
      <use xlink:href="#DejaVuSans-54" transform="translate(309.462891 0)"/>
      <use xlink:href="#DejaVuSans-65" transform="translate(353.546875 0)"/>
      <use xlink:href="#DejaVuSans-68" transform="translate(415.070312 0)"/>
      <use xlink:href="#DejaVuSans-72" transform="translate(478.449219 0)"/>
      <use xlink:href="#DejaVuSans-61" transform="translate(519.5625 0)"/>
      <use xlink:href="#DejaVuSans-6e" transform="translate(580.841797 0)"/>
      <use xlink:href="#DejaVuSans-20" transform="translate(644.220703 0)"/>
      <use xlink:href="#DejaVuSans-70" transform="translate(676.007812 0)"/>
      <use xlink:href="#DejaVuSans-61" transform="translate(739.484375 0)"/>
      <use xlink:href="#DejaVuSans-73" transform="translate(800.763672 0)"/>
      <use xlink:href="#DejaVuSans-73" transform="translate(852.863281 0)"/>
     </g>
    </g>
    <g id="PathCollection_4">
     <defs>
      <path id="m5313454e86" d="M 0 -6.123724 
L -1.374862 -1.892335 
L -5.824008 -1.892335 
L -2.224573 0.722808 
L -3.599435 4.954197 
L -0 2.339054 
L 3.599435 4.954197 
L 2.224573 0.722808 
L 5.824008 -1.892335 
L 1.374862 -1.892335 
z
" style="stroke: #000000"/>
     </defs>
     <g>
      <use xlink:href="#m5313454e86" x="359.327706" y="104.583286" style="stroke: #000000"/>
     </g>
    </g>
    <g id="text_19">
     <!-- Tehran -->
     <g transform="translate(374.321706 106.769911) scale(0.0833 -0.0833)">
      <use xlink:href="#DejaVuSans-54"/>
      <use xlink:href="#DejaVuSans-65" transform="translate(44.083984 0)"/>
      <use xlink:href="#DejaVuSans-68" transform="translate(105.607422 0)"/>
      <use xlink:href="#DejaVuSans-72" transform="translate(168.986328 0)"/>
      <use xlink:href="#DejaVuSans-61" transform="translate(210.099609 0)"/>
      <use xlink:href="#DejaVuSans-6e" transform="translate(271.378906 0)"/>
     </g>
    </g>
   </g>
   <g id="PathCollection_5">
    <g clip-path="url(#p7dee7cf9f0)">
     <use xlink:href="#m5313454e86" x="255.61" y="213.055" style="stroke: #000000"/>
    </g>
   </g>
  </g>
 </g>
 <defs>
  <clipPath id="p7dee7cf9f0">
   <rect x="54.02" y="56.262778" width="403.18" height="313.584444"/>
  </clipPath>
 </defs>
</svg>
