<?xml version="1.0" encoding="utf-8" standalone="no"?>
<!DOCTYPE svg PUBLIC "-//W3C//DTD SVG 1.1//EN"
  "http://www.w3.org/Graphics/SVG/1.1/DTD/svg11.dtd">
<svg xmlns:xlink="http://www.w3.org/1999/xlink" width="720pt" height="864pt" viewBox="0 0 720 864" xmlns="http://www.w3.org/2000/svg" version="1.1">
 <metadata>
  <rdf:RDF xmlns:dc="http://purl.org/dc/elements/1.1/" xmlns:cc="http://creativecommons.org/ns#" xmlns:rdf="http://www.w3.org/1999/02/22-rdf-syntax-ns#">
   <cc:Work>
    <dc:type rdf:resource="http://purl.org/dc/dcmitype/StillImage"/>
    <dc:date>2025-11-01T08:07:52.034987</dc:date>
    <dc:format>image/svg+xml</dc:format>
    <dc:creator>
     <cc:Agent>
      <dc:title>Matplotlib v3.10.7, https://matplotlib.org/</dc:title>
     </cc:Agent>
    </dc:creator>
   </cc:Work>
  </rdf:RDF>
 </metadata>
 <defs>
  <style type="text/css">*{stroke-linejoin: round; stroke-linecap: butt}</style>
 </defs>
 <g id="figure_1">
  <g id="patch_1">
   <path d="M 0 864 
L 720 864 
L 720 0 
L 0 0 
z
" style="fill: #ffffff"/>
  </g>
  <g id="axes_1">
   <g id="patch_2">
    <path d="M 56 206.755 
L 709.2 206.755 
L 709.2 26.88 
L 56 26.88 
z
" style="fill: #ffffff"/>
   </g>
   <g id="matplotlib.axis_1">
    <g id="xtick_1">
     <g id="line2d_1">
      <path d="M 151.670707 206.755 
L 151.670707 26.88 
" clip-path="url(#p69b7f58f34)" style="fill: none; stroke-dasharray: 2.96,1.28; stroke-dashoffset: 0; stroke: #b0b0b0; stroke-opacity: 0.5; stroke-width: 0.8"/>
     </g>
     <g id="line2d_2">
      <defs>
       <path id="mfe5021b9f3" d="M 0 0 
L 0 3.5 
" style="stroke: #000000; stroke-width: 0.8"/>
      </defs>
      <g>
       <use xlink:href="#mfe5021b9f3" x="151.670707" y="206.755" style="stroke: #000000; stroke-width: 0.8"/>
      </g>
     </g>
    </g>
    <g id="xtick_2">
     <g id="line2d_3">
      <path d="M 250.640405 206.755 
L 250.640405 26.88 
" clip-path="url(#p69b7f58f34)" style="fill: none; stroke-dasharray: 2.96,1.28; stroke-dashoffset: 0; stroke: #b0b0b0; stroke-opacity: 0.5; stroke-width: 0.8"/>
     </g>
     <g id="line2d_4">
      <g>
       <use xlink:href="#mfe5021b9f3" x="250.640405" y="206.755" style="stroke: #000000; stroke-width: 0.8"/>
      </g>
     </g>
    </g>
    <g id="xtick_3">
     <g id="line2d_5">
      <path d="M 349.610102 206.755 
L 349.610102 26.88 
" clip-path="url(#p69b7f58f34)" style="fill: none; stroke-dasharray: 2.96,1.28; stroke-dashoffset: 0; stroke: #b0b0b0; stroke-opacity: 0.5; stroke-width: 0.8"/>
     </g>
     <g id="line2d_6">
      <g>
       <use xlink:href="#mfe5021b9f3" x="349.610102" y="206.755" style="stroke: #000000; stroke-width: 0.8"/>
      </g>
     </g>
    </g>
    <g id="xtick_4">
     <g id="line2d_7">
      <path d="M 448.579798 206.755 
L 448.579798 26.88 
" clip-path="url(#p69b7f58f34)" style="fill: none; stroke-dasharray: 2.96,1.28; stroke-dashoffset: 0; stroke: #b0b0b0; stroke-opacity: 0.5; stroke-width: 0.8"/>
     </g>
     <g id="line2d_8">
      <g>
       <use xlink:href="#mfe5021b9f3" x="448.579798" y="206.755" style="stroke: #000000; stroke-width: 0.8"/>
      </g>
     </g>
    </g>
    <g id="xtick_5">
     <g id="line2d_9">
      <path d="M 547.549496 206.755 
L 547.549496 26.88 
" clip-path="url(#p69b7f58f34)" style="fill: none; stroke-dasharray: 2.96,1.28; stroke-dashoffset: 0; stroke: #b0b0b0; stroke-opacity: 0.5; stroke-width: 0.8"/>
     </g>
     <g id="line2d_10">
      <g>
       <use xlink:href="#mfe5021b9f3" x="547.549496" y="206.755" style="stroke: #000000; stroke-width: 0.8"/>
      </g>
     </g>
    </g>
    <g id="xtick_6">
     <g id="line2d_11">
      <path d="M 646.519193 206.755 
L 646.519193 26.88 
" clip-path="url(#p69b7f58f34)" style="fill: none; stroke-dasharray: 2.96,1.28; stroke-dashoffset: 0; stroke: #b0b0b0; stroke-opacity: 0.5; stroke-width: 0.8"/>
     </g>
     <g id="line2d_12">
      <g>
       <use xlink:href="#mfe5021b9f3" x="646.519193" y="206.755" style="stroke: #000000; stroke-width: 0.8"/>
      </g>
     </g>
    </g>
   </g>
   <g id="matplotlib.axis_2">
    <g id="ytick_1">
     <g id="line2d_13">
      <path d="M 56 183.472486 
L 709.2 183.472486 
" clip-path="url(#p69b7f58f34)" style="fill: none; stroke-dasharray: 2.96,1.28; stroke-dashoffset: 0; stroke: #b0b0b0; stroke-opacity: 0.5; stroke-width: 0.8"/>
     </g>
     <g id="line2d_14">
      <defs>
       <path id="ma2f1746051" d="M 0 0 
L -3.5 0 
" style="stroke: #000000; stroke-width: 0.8"/>
      </defs>
      <g>
       <use xlink:href="#ma2f1746051" x="56" y="183.472486" style="stroke: #000000; stroke-width: 0.8"/>
      </g>
     </g>
     <g id="text_1">
      <!-- 515 -->
      <g transform="translate(29.9125 187.271704) scale(0.1 -0.1)">
       <defs>
        <path id="DejaVuSans-35" d="M 691 4666 
L 3169 4666 
L 3169 4134 
L 1269 4134 
L 1269 2991 
Q 1406 3038 1543 3061 
Q 1681 3084 1819 3084 
Q 2600 3084 3056 2656 
Q 3513 2228 3513 1497 
Q 3513 744 3044 326 
Q 2575 -91 1722 -91 
Q 1428 -91 1123 -41 
Q 819 9 494 109 
L 494 744 
Q 775 591 1075 516 
Q 1375 441 1709 441 
Q 2250 441 2565 725 
Q 2881 1009 2881 1497 
Q 2881 1984 2565 2268 
Q 2250 2553 1709 2553 
Q 1456 2553 1204 2497 
Q 953 2441 691 2322 
L 691 4666 
z
" transform="scale(0.015625)"/>
        <path id="DejaVuSans-31" d="M 794 531 
L 1825 531 
L 1825 4091 
L 703 3866 
L 703 4441 
L 1819 4666 
L 2450 4666 
L 2450 531 
L 3481 531 
L 3481 0 
L 794 0 
L 794 531 
z
" transform="scale(0.015625)"/>
       </defs>
       <use xlink:href="#DejaVuSans-35"/>
       <use xlink:href="#DejaVuSans-31" transform="translate(63.623047 0)"/>
       <use xlink:href="#DejaVuSans-35" transform="translate(127.246094 0)"/>
      </g>
     </g>
    </g>
    <g id="ytick_2">
     <g id="line2d_15">
      <path d="M 56 144.171159 
L 709.2 144.171159 
" clip-path="url(#p69b7f58f34)" style="fill: none; stroke-dasharray: 2.96,1.28; stroke-dashoffset: 0; stroke: #b0b0b0; stroke-opacity: 0.5; stroke-width: 0.8"/>
     </g>
     <g id="line2d_16">
      <g>
       <use xlink:href="#ma2f1746051" x="56" y="144.171159" style="stroke: #000000; stroke-width: 0.8"/>
      </g>
     </g>
     <g id="text_2">
      <!-- 520 -->
      <g transform="translate(29.9125 147.970377) scale(0.1 -0.1)">
       <defs>
        <path id="DejaVuSans-32" d="M 1228 531 
L 3431 531 
L 3431 0 
L 469 0 
L 469 531 
Q 828 903 1448 1529 
Q 2069 2156 2228 2338 
Q 2531 2678 2651 2914 
Q 2772 3150 2772 3378 
Q 2772 3750 2511 3984 
Q 2250 4219 1831 4219 
Q 1534 4219 1204 4116 
Q 875 4013 500 3803 
L 500 4441 
Q 881 4594 1212 4672 
Q 1544 4750 1819 4750 
Q 2544 4750 2975 4387 
Q 3406 4025 3406 3419 
Q 3406 3131 3298 2873 
Q 3191 2616 2906 2266 
Q 2828 2175 2409 1742 
Q 1991 1309 1228 531 
z
" transform="scale(0.015625)"/>
        <path id="DejaVuSans-30" d="M 2034 4250 
Q 1547 4250 1301 3770 
Q 1056 3291 1056 2328 
Q 1056 1369 1301 889 
Q 1547 409 2034 409 
Q 2525 409 2770 889 
Q 3016 1369 3016 2328 
Q 3016 3291 2770 3770 
Q 2525 4250 2034 4250 
z
M 2034 4750 
Q 2819 4750 3233 4129 
Q 3647 3509 3647 2328 
Q 3647 1150 3233 529 
Q 2819 -91 2034 -91 
Q 1250 -91 836 529 
Q 422 1150 422 2328 
Q 422 3509 836 4129 
Q 1250 4750 2034 4750 
z
" transform="scale(0.015625)"/>
       </defs>
       <use xlink:href="#DejaVuSans-35"/>
       <use xlink:href="#DejaVuSans-32" transform="translate(63.623047 0)"/>
       <use xlink:href="#DejaVuSans-30" transform="translate(127.246094 0)"/>
      </g>
     </g>
    </g>
    <g id="ytick_3">
     <g id="line2d_17">
      <path d="M 56 104.869832 
L 709.2 104.869832 
" clip-path="url(#p69b7f58f34)" style="fill: none; stroke-dasharray: 2.96,1.28; stroke-dashoffset: 0; stroke: #b0b0b0; stroke-opacity: 0.5; stroke-width: 0.8"/>
     </g>
     <g id="line2d_18">
      <g>
       <use xlink:href="#ma2f1746051" x="56" y="104.869832" style="stroke: #000000; stroke-width: 0.8"/>
      </g>
     </g>
     <g id="text_3">
      <!-- 525 -->
      <g transform="translate(29.9125 108.669051) scale(0.1 -0.1)">
       <use xlink:href="#DejaVuSans-35"/>
       <use xlink:href="#DejaVuSans-32" transform="translate(63.623047 0)"/>
       <use xlink:href="#DejaVuSans-35" transform="translate(127.246094 0)"/>
      </g>
     </g>
    </g>
    <g id="ytick_4">
     <g id="line2d_19">
      <path d="M 56 65.568505 
L 709.2 65.568505 
" clip-path="url(#p69b7f58f34)" style="fill: none; stroke-dasharray: 2.96,1.28; stroke-dashoffset: 0; stroke: #b0b0b0; stroke-opacity: 0.5; stroke-width: 0.8"/>
     </g>
     <g id="line2d_20">
      <g>
       <use xlink:href="#ma2f1746051" x="56" y="65.568505" style="stroke: #000000; stroke-width: 0.8"/>
      </g>
     </g>
     <g id="text_4">
      <!-- 530 -->
      <g transform="translate(29.9125 69.367724) scale(0.1 -0.1)">
       <defs>
        <path id="DejaVuSans-33" d="M 2597 2516 
Q 3050 2419 3304 2112 
Q 3559 1806 3559 1356 
Q 3559 666 3084 287 
Q 2609 -91 1734 -91 
Q 1441 -91 1130 -33 
Q 819 25 488 141 
L 488 750 
Q 750 597 1062 519 
Q 1375 441 1716 441 
Q 2309 441 2620 675 
Q 2931 909 2931 1356 
Q 2931 1769 2642 2001 
Q 2353 2234 1838 2234 
L 1294 2234 
L 1294 2753 
L 1863 2753 
Q 2328 2753 2575 2939 
Q 2822 3125 2822 3475 
Q 2822 3834 2567 4026 
Q 2313 4219 1838 4219 
Q 1578 4219 1281 4162 
Q 984 4106 628 3988 
L 628 4550 
Q 988 4650 1302 4700 
Q 1616 4750 1894 4750 
Q 2613 4750 3031 4423 
Q 3450 4097 3450 3541 
Q 3450 3153 3228 2886 
Q 3006 2619 2597 2516 
z
" transform="scale(0.015625)"/>
       </defs>
       <use xlink:href="#DejaVuSans-35"/>
       <use xlink:href="#DejaVuSans-33" transform="translate(63.623047 0)"/>
       <use xlink:href="#DejaVuSans-30" transform="translate(127.246094 0)"/>
      </g>
     </g>
    </g>
    <g id="text_5">
     <!-- Altitude [km] -->
     <g transform="translate(23.832813 149.612031) rotate(-90) scale(0.1 -0.1)">
      <defs>
       <path id="DejaVuSans-41" d="M 2188 4044 
L 1331 1722 
L 3047 1722 
L 2188 4044 
z
M 1831 4666 
L 2547 4666 
L 4325 0 
L 3669 0 
L 3244 1197 
L 1141 1197 
L 716 0 
L 50 0 
L 1831 4666 
z
" transform="scale(0.015625)"/>
       <path id="DejaVuSans-6c" d="M 603 4863 
L 1178 4863 
L 1178 0 
L 603 0 
L 603 4863 
z
" transform="scale(0.015625)"/>
       <path id="DejaVuSans-74" d="M 1172 4494 
L 1172 3500 
L 2356 3500 
L 2356 3053 
L 1172 3053 
L 1172 1153 
Q 1172 725 1289 603 
Q 1406 481 1766 481 
L 2356 481 
L 2356 0 
L 1766 0 
Q 1100 0 847 248 
Q 594 497 594 1153 
L 594 3053 
L 172 3053 
L 172 3500 
L 594 3500 
L 594 4494 
L 1172 4494 
z
" transform="scale(0.015625)"/>
       <path id="DejaVuSans-69" d="M 603 3500 
L 1178 3500 
L 1178 0 
L 603 0 
L 603 3500 
z
M 603 4863 
L 1178 4863 
L 1178 4134 
L 603 4134 
L 603 4863 
z
" transform="scale(0.015625)"/>
       <path id="DejaVuSans-75" d="M 544 1381 
L 544 3500 
L 1119 3500 
L 1119 1403 
Q 1119 906 1312 657 
Q 1506 409 1894 409 
Q 2359 409 2629 706 
Q 2900 1003 2900 1516 
L 2900 3500 
L 3475 3500 
L 3475 0 
L 2900 0 
L 2900 538 
Q 2691 219 2414 64 
Q 2138 -91 1772 -91 
Q 1169 -91 856 284 
Q 544 659 544 1381 
z
M 1991 3584 
L 1991 3584 
z
" transform="scale(0.015625)"/>
       <path id="DejaVuSans-64" d="M 2906 2969 
L 2906 4863 
L 3481 4863 
L 3481 0 
L 2906 0 
L 2906 525 
Q 2725 213 2448 61 
Q 2172 -91 1784 -91 
Q 1150 -91 751 415 
Q 353 922 353 1747 
Q 353 2572 751 3078 
Q 1150 3584 1784 3584 
Q 2172 3584 2448 3432 
Q 2725 3281 2906 2969 
z
M 947 1747 
Q 947 1113 1208 752 
Q 1469 391 1925 391 
Q 2381 391 2643 752 
Q 2906 1113 2906 1747 
Q 2906 2381 2643 2742 
Q 2381 3103 1925 3103 
Q 1469 3103 1208 2742 
Q 947 2381 947 1747 
z
" transform="scale(0.015625)"/>
       <path id="DejaVuSans-65" d="M 3597 1894 
L 3597 1613 
L 953 1613 
Q 991 1019 1311 708 
Q 1631 397 2203 397 
Q 2534 397 2845 478 
Q 3156 559 3463 722 
L 3463 178 
Q 3153 47 2828 -22 
Q 2503 -91 2169 -91 
Q 1331 -91 842 396 
Q 353 884 353 1716 
Q 353 2575 817 3079 
Q 1281 3584 2069 3584 
Q 2775 3584 3186 3129 
Q 3597 2675 3597 1894 
z
M 3022 2063 
Q 3016 2534 2758 2815 
Q 2500 3097 2075 3097 
Q 1594 3097 1305 2825 
Q 1016 2553 972 2059 
L 3022 2063 
z
" transform="scale(0.015625)"/>
       <path id="DejaVuSans-20" transform="scale(0.015625)"/>
       <path id="DejaVuSans-5b" d="M 550 4863 
L 1875 4863 
L 1875 4416 
L 1125 4416 
L 1125 -397 
L 1875 -397 
L 1875 -844 
L 550 -844 
L 550 4863 
z
" transform="scale(0.015625)"/>
       <path id="DejaVuSans-6b" d="M 581 4863 
L 1159 4863 
L 1159 1991 
L 2875 3500 
L 3609 3500 
L 1753 1863 
L 3688 0 
L 2938 0 
L 1159 1709 
L 1159 0 
L 581 0 
L 581 4863 
z
" transform="scale(0.015625)"/>
       <path id="DejaVuSans-6d" d="M 3328 2828 
Q 3544 3216 3844 3400 
Q 4144 3584 4550 3584 
Q 5097 3584 5394 3201 
Q 5691 2819 5691 2113 
L 5691 0 
L 5113 0 
L 5113 2094 
Q 5113 2597 4934 2840 
Q 4756 3084 4391 3084 
Q 3944 3084 3684 2787 
Q 3425 2491 3425 1978 
L 3425 0 
L 2847 0 
L 2847 2094 
Q 2847 2600 2669 2842 
Q 2491 3084 2119 3084 
Q 1678 3084 1418 2786 
Q 1159 2488 1159 1978 
L 1159 0 
L 581 0 
L 581 3500 
L 1159 3500 
L 1159 2956 
Q 1356 3278 1631 3431 
Q 1906 3584 2284 3584 
Q 2666 3584 2933 3390 
Q 3200 3197 3328 2828 
z
" transform="scale(0.015625)"/>
       <path id="DejaVuSans-5d" d="M 1947 4863 
L 1947 -844 
L 622 -844 
L 622 -397 
L 1369 -397 
L 1369 4416 
L 622 4416 
L 622 4863 
L 1947 4863 
z
" transform="scale(0.015625)"/>
      </defs>
      <use xlink:href="#DejaVuSans-41"/>
      <use xlink:href="#DejaVuSans-6c" transform="translate(68.408203 0)"/>
      <use xlink:href="#DejaVuSans-74" transform="translate(96.191406 0)"/>
      <use xlink:href="#DejaVuSans-69" transform="translate(135.400391 0)"/>
      <use xlink:href="#DejaVuSans-74" transform="translate(163.183594 0)"/>
      <use xlink:href="#DejaVuSans-75" transform="translate(202.392578 0)"/>
      <use xlink:href="#DejaVuSans-64" transform="translate(265.771484 0)"/>
      <use xlink:href="#DejaVuSans-65" transform="translate(329.248047 0)"/>
      <use xlink:href="#DejaVuSans-20" transform="translate(390.771484 0)"/>
      <use xlink:href="#DejaVuSans-5b" transform="translate(422.558594 0)"/>
      <use xlink:href="#DejaVuSans-6b" transform="translate(461.572266 0)"/>
      <use xlink:href="#DejaVuSans-6d" transform="translate(519.482422 0)"/>
      <use xlink:href="#DejaVuSans-5d" transform="translate(616.894531 0)"/>
     </g>
    </g>
   </g>
   <g id="line2d_21">
    <path d="M 85.690909 198.562444 
L 108.783838 198.578864 
L 679.509091 198.562444 
L 679.509091 198.562444 
" clip-path="url(#p69b7f58f34)" style="fill: none; stroke: #1f77b4; stroke-width: 1.5; stroke-linecap: square"/>
   </g>
   <g id="line2d_22">
    <path d="M 85.690909 198.562444 
L 108.783838 198.578864 
L 679.509091 198.562444 
L 679.509091 198.562444 
" clip-path="url(#p69b7f58f34)" style="fill: none; stroke: #ff7f0e; stroke-width: 1.5; stroke-linecap: square"/>
   </g>
   <g id="line2d_23">
    <path d="M 85.690909 35.056136 
L 108.783838 35.07268 
L 679.509091 35.056136 
L 679.509091 35.056136 
" clip-path="url(#p69b7f58f34)" style="fill: none; stroke: #2ca02c; stroke-width: 1.5; stroke-linecap: square"/>
   </g>
   <g id="patch_3">
    <path d="M 56 206.755 
L 56 26.88 
" style="fill: none; stroke: #000000; stroke-width: 0.8; stroke-linejoin: miter; stroke-linecap: square"/>
   </g>
   <g id="patch_4">
    <path d="M 709.2 206.755 
L 709.2 26.88 
" style="fill: none; stroke: #000000; stroke-width: 0.8; stroke-linejoin: miter; stroke-linecap: square"/>
   </g>
   <g id="patch_5">
    <path d="M 56 206.755 
L 709.2 206.755 
" style="fill: none; stroke: #000000; stroke-width: 0.8; stroke-linejoin: miter; stroke-linecap: square"/>
   </g>
   <g id="patch_6">
    <path d="M 56 26.88 
L 709.2 26.88 
" style="fill: none; stroke: #000000; stroke-width: 0.8; stroke-linejoin: miter; stroke-linecap: square"/>
   </g>
   <g id="text_6">
    <!-- Classical orbital elements during formation window -->
    <g transform="translate(228.515313 20.88) scale(0.12 -0.12)">
     <defs>
      <path id="DejaVuSans-43" d="M 4122 4306 
L 4122 3641 
Q 3803 3938 3442 4084 
Q 3081 4231 2675 4231 
Q 1875 4231 1450 3742 
Q 1025 3253 1025 2328 
Q 1025 1406 1450 917 
Q 1875 428 2675 428 
Q 3081 428 3442 575 
Q 3803 722 4122 1019 
L 4122 359 
Q 3791 134 3420 21 
Q 3050 -91 2638 -91 
Q 1578 -91 968 557 
Q 359 1206 359 2328 
Q 359 3453 968 4101 
Q 1578 4750 2638 4750 
Q 3056 4750 3426 4639 
Q 3797 4528 4122 4306 
z
" transform="scale(0.015625)"/>
      <path id="DejaVuSans-61" d="M 2194 1759 
Q 1497 1759 1228 1600 
Q 959 1441 959 1056 
Q 959 750 1161 570 
Q 1363 391 1709 391 
Q 2188 391 2477 730 
Q 2766 1069 2766 1631 
L 2766 1759 
L 2194 1759 
z
M 3341 1997 
L 3341 0 
L 2766 0 
L 2766 531 
Q 2569 213 2275 61 
Q 1981 -91 1556 -91 
Q 1019 -91 701 211 
Q 384 513 384 1019 
Q 384 1609 779 1909 
Q 1175 2209 1959 2209 
L 2766 2209 
L 2766 2266 
Q 2766 2663 2505 2880 
Q 2244 3097 1772 3097 
Q 1472 3097 1187 3025 
Q 903 2953 641 2809 
L 641 3341 
Q 956 3463 1253 3523 
Q 1550 3584 1831 3584 
Q 2591 3584 2966 3190 
Q 3341 2797 3341 1997 
z
" transform="scale(0.015625)"/>
      <path id="DejaVuSans-73" d="M 2834 3397 
L 2834 2853 
Q 2591 2978 2328 3040 
Q 2066 3103 1784 3103 
Q 1356 3103 1142 2972 
Q 928 2841 928 2578 
Q 928 2378 1081 2264 
Q 1234 2150 1697 2047 
L 1894 2003 
Q 2506 1872 2764 1633 
Q 3022 1394 3022 966 
Q 3022 478 2636 193 
Q 2250 -91 1575 -91 
Q 1294 -91 989 -36 
Q 684 19 347 128 
L 347 722 
Q 666 556 975 473 
Q 1284 391 1588 391 
Q 1994 391 2212 530 
Q 2431 669 2431 922 
Q 2431 1156 2273 1281 
Q 2116 1406 1581 1522 
L 1381 1569 
Q 847 1681 609 1914 
Q 372 2147 372 2553 
Q 372 3047 722 3315 
Q 1072 3584 1716 3584 
Q 2034 3584 2315 3537 
Q 2597 3491 2834 3397 
z
" transform="scale(0.015625)"/>
      <path id="DejaVuSans-63" d="M 3122 3366 
L 3122 2828 
Q 2878 2963 2633 3030 
Q 2388 3097 2138 3097 
Q 1578 3097 1268 2742 
Q 959 2388 959 1747 
Q 959 1106 1268 751 
Q 1578 397 2138 397 
Q 2388 397 2633 464 
Q 2878 531 3122 666 
L 3122 134 
Q 2881 22 2623 -34 
Q 2366 -91 2075 -91 
Q 1284 -91 818 406 
Q 353 903 353 1747 
Q 353 2603 823 3093 
Q 1294 3584 2113 3584 
Q 2378 3584 2631 3529 
Q 2884 3475 3122 3366 
z
" transform="scale(0.015625)"/>
      <path id="DejaVuSans-6f" d="M 1959 3097 
Q 1497 3097 1228 2736 
Q 959 2375 959 1747 
Q 959 1119 1226 758 
Q 1494 397 1959 397 
Q 2419 397 2687 759 
Q 2956 1122 2956 1747 
Q 2956 2369 2687 2733 
Q 2419 3097 1959 3097 
z
M 1959 3584 
Q 2709 3584 3137 3096 
Q 3566 2609 3566 1747 
Q 3566 888 3137 398 
Q 2709 -91 1959 -91 
Q 1206 -91 779 398 
Q 353 888 353 1747 
Q 353 2609 779 3096 
Q 1206 3584 1959 3584 
z
" transform="scale(0.015625)"/>
      <path id="DejaVuSans-72" d="M 2631 2963 
Q 2534 3019 2420 3045 
Q 2306 3072 2169 3072 
Q 1681 3072 1420 2755 
Q 1159 2438 1159 1844 
L 1159 0 
L 581 0 
L 581 3500 
L 1159 3500 
L 1159 2956 
Q 1341 3275 1631 3429 
Q 1922 3584 2338 3584 
Q 2397 3584 2469 3576 
Q 2541 3569 2628 3553 
L 2631 2963 
z
" transform="scale(0.015625)"/>
      <path id="DejaVuSans-62" d="M 3116 1747 
Q 3116 2381 2855 2742 
Q 2594 3103 2138 3103 
Q 1681 3103 1420 2742 
Q 1159 2381 1159 1747 
Q 1159 1113 1420 752 
Q 1681 391 2138 391 
Q 2594 391 2855 752 
Q 3116 1113 3116 1747 
z
M 1159 2969 
Q 1341 3281 1617 3432 
Q 1894 3584 2278 3584 
Q 2916 3584 3314 3078 
Q 3713 2572 3713 1747 
Q 3713 922 3314 415 
Q 2916 -91 2278 -91 
Q 1894 -91 1617 61 
Q 1341 213 1159 525 
L 1159 0 
L 581 0 
L 581 4863 
L 1159 4863 
L 1159 2969 
z
" transform="scale(0.015625)"/>
      <path id="DejaVuSans-6e" d="M 3513 2113 
L 3513 0 
L 2938 0 
L 2938 2094 
Q 2938 2591 2744 2837 
Q 2550 3084 2163 3084 
Q 1697 3084 1428 2787 
Q 1159 2491 1159 1978 
L 1159 0 
L 581 0 
L 581 3500 
L 1159 3500 
L 1159 2956 
Q 1366 3272 1645 3428 
Q 1925 3584 2291 3584 
Q 2894 3584 3203 3211 
Q 3513 2838 3513 2113 
z
" transform="scale(0.015625)"/>
      <path id="DejaVuSans-67" d="M 2906 1791 
Q 2906 2416 2648 2759 
Q 2391 3103 1925 3103 
Q 1463 3103 1205 2759 
Q 947 2416 947 1791 
Q 947 1169 1205 825 
Q 1463 481 1925 481 
Q 2391 481 2648 825 
Q 2906 1169 2906 1791 
z
M 3481 434 
Q 3481 -459 3084 -895 
Q 2688 -1331 1869 -1331 
Q 1566 -1331 1297 -1286 
Q 1028 -1241 775 -1147 
L 775 -588 
Q 1028 -725 1275 -790 
Q 1522 -856 1778 -856 
Q 2344 -856 2625 -561 
Q 2906 -266 2906 331 
L 2906 616 
Q 2728 306 2450 153 
Q 2172 0 1784 0 
Q 1141 0 747 490 
Q 353 981 353 1791 
Q 353 2603 747 3093 
Q 1141 3584 1784 3584 
Q 2172 3584 2450 3431 
Q 2728 3278 2906 2969 
L 2906 3500 
L 3481 3500 
L 3481 434 
z
" transform="scale(0.015625)"/>
      <path id="DejaVuSans-66" d="M 2375 4863 
L 2375 4384 
L 1825 4384 
Q 1516 4384 1395 4259 
Q 1275 4134 1275 3809 
L 1275 3500 
L 2222 3500 
L 2222 3053 
L 1275 3053 
L 1275 0 
L 697 0 
L 697 3053 
L 147 3053 
L 147 3500 
L 697 3500 
L 697 3744 
Q 697 4328 969 4595 
Q 1241 4863 1831 4863 
L 2375 4863 
z
" transform="scale(0.015625)"/>
      <path id="DejaVuSans-77" d="M 269 3500 
L 844 3500 
L 1563 769 
L 2278 3500 
L 2956 3500 
L 3675 769 
L 4391 3500 
L 4966 3500 
L 4050 0 
L 3372 0 
L 2619 2869 
L 1863 0 
L 1184 0 
L 269 3500 
z
" transform="scale(0.015625)"/>
     </defs>
     <use xlink:href="#DejaVuSans-43"/>
     <use xlink:href="#DejaVuSans-6c" transform="translate(69.824219 0)"/>
     <use xlink:href="#DejaVuSans-61" transform="translate(97.607422 0)"/>
     <use xlink:href="#DejaVuSans-73" transform="translate(158.886719 0)"/>
     <use xlink:href="#DejaVuSans-73" transform="translate(210.986328 0)"/>
     <use xlink:href="#DejaVuSans-69" transform="translate(263.085938 0)"/>
     <use xlink:href="#DejaVuSans-63" transform="translate(290.869141 0)"/>
     <use xlink:href="#DejaVuSans-61" transform="translate(345.849609 0)"/>
     <use xlink:href="#DejaVuSans-6c" transform="translate(407.128906 0)"/>
     <use xlink:href="#DejaVuSans-20" transform="translate(434.912109 0)"/>
     <use xlink:href="#DejaVuSans-6f" transform="translate(466.699219 0)"/>
     <use xlink:href="#DejaVuSans-72" transform="translate(527.880859 0)"/>
     <use xlink:href="#DejaVuSans-62" transform="translate(568.994141 0)"/>
     <use xlink:href="#DejaVuSans-69" transform="translate(632.470703 0)"/>
     <use xlink:href="#DejaVuSans-74" transform="translate(660.253906 0)"/>
     <use xlink:href="#DejaVuSans-61" transform="translate(699.462891 0)"/>
     <use xlink:href="#DejaVuSans-6c" transform="translate(760.742188 0)"/>
     <use xlink:href="#DejaVuSans-20" transform="translate(788.525391 0)"/>
     <use xlink:href="#DejaVuSans-65" transform="translate(820.3125 0)"/>
     <use xlink:href="#DejaVuSans-6c" transform="translate(881.835938 0)"/>
     <use xlink:href="#DejaVuSans-65" transform="translate(909.619141 0)"/>
     <use xlink:href="#DejaVuSans-6d" transform="translate(971.142578 0)"/>
     <use xlink:href="#DejaVuSans-65" transform="translate(1068.554688 0)"/>
     <use xlink:href="#DejaVuSans-6e" transform="translate(1130.078125 0)"/>
     <use xlink:href="#DejaVuSans-74" transform="translate(1193.457031 0)"/>
     <use xlink:href="#DejaVuSans-73" transform="translate(1232.666016 0)"/>
     <use xlink:href="#DejaVuSans-20" transform="translate(1284.765625 0)"/>
     <use xlink:href="#DejaVuSans-64" transform="translate(1316.552734 0)"/>
     <use xlink:href="#DejaVuSans-75" transform="translate(1380.029297 0)"/>
     <use xlink:href="#DejaVuSans-72" transform="translate(1443.408203 0)"/>
     <use xlink:href="#DejaVuSans-69" transform="translate(1484.521484 0)"/>
     <use xlink:href="#DejaVuSans-6e" transform="translate(1512.304688 0)"/>
     <use xlink:href="#DejaVuSans-67" transform="translate(1575.683594 0)"/>
     <use xlink:href="#DejaVuSans-20" transform="translate(1639.160156 0)"/>
     <use xlink:href="#DejaVuSans-66" transform="translate(1670.947266 0)"/>
     <use xlink:href="#DejaVuSans-6f" transform="translate(1706.152344 0)"/>
     <use xlink:href="#DejaVuSans-72" transform="translate(1767.333984 0)"/>
     <use xlink:href="#DejaVuSans-6d" transform="translate(1806.697266 0)"/>
     <use xlink:href="#DejaVuSans-61" transform="translate(1904.109375 0)"/>
     <use xlink:href="#DejaVuSans-74" transform="translate(1965.388672 0)"/>
     <use xlink:href="#DejaVuSans-69" transform="translate(2004.597656 0)"/>
     <use xlink:href="#DejaVuSans-6f" transform="translate(2032.380859 0)"/>
     <use xlink:href="#DejaVuSans-6e" transform="translate(2093.5625 0)"/>
     <use xlink:href="#DejaVuSans-20" transform="translate(2156.941406 0)"/>
     <use xlink:href="#DejaVuSans-77" transform="translate(2188.728516 0)"/>
     <use xlink:href="#DejaVuSans-69" transform="translate(2270.515625 0)"/>
     <use xlink:href="#DejaVuSans-6e" transform="translate(2298.298828 0)"/>
     <use xlink:href="#DejaVuSans-64" transform="translate(2361.677734 0)"/>
     <use xlink:href="#DejaVuSans-6f" transform="translate(2425.154297 0)"/>
     <use xlink:href="#DejaVuSans-77" transform="translate(2486.335938 0)"/>
    </g>
   </g>
   <g id="legend_1">
    <g id="patch_7">
     <path d="M 642.432813 78.914375 
L 702.2 78.914375 
Q 704.2 78.914375 704.2 76.914375 
L 704.2 33.88 
Q 704.2 31.88 702.2 31.88 
L 642.432813 31.88 
Q 640.432813 31.88 640.432813 33.88 
L 640.432813 76.914375 
Q 640.432813 78.914375 642.432813 78.914375 
z
" style="fill: #ffffff; opacity: 0.8; stroke: #cccccc; stroke-linejoin: miter"/>
    </g>
    <g id="line2d_24">
     <path d="M 644.432813 39.978438 
L 654.432813 39.978438 
L 664.432813 39.978438 
" style="fill: none; stroke: #1f77b4; stroke-width: 1.5; stroke-linecap: square"/>
    </g>
    <g id="text_7">
     <!-- SAT-1 -->
     <g transform="translate(672.432813 43.478438) scale(0.1 -0.1)">
      <defs>
       <path id="DejaVuSans-53" d="M 3425 4513 
L 3425 3897 
Q 3066 4069 2747 4153 
Q 2428 4238 2131 4238 
Q 1616 4238 1336 4038 
Q 1056 3838 1056 3469 
Q 1056 3159 1242 3001 
Q 1428 2844 1947 2747 
L 2328 2669 
Q 3034 2534 3370 2195 
Q 3706 1856 3706 1288 
Q 3706 609 3251 259 
Q 2797 -91 1919 -91 
Q 1588 -91 1214 -16 
Q 841 59 441 206 
L 441 856 
Q 825 641 1194 531 
Q 1563 422 1919 422 
Q 2459 422 2753 634 
Q 3047 847 3047 1241 
Q 3047 1584 2836 1778 
Q 2625 1972 2144 2069 
L 1759 2144 
Q 1053 2284 737 2584 
Q 422 2884 422 3419 
Q 422 4038 858 4394 
Q 1294 4750 2059 4750 
Q 2388 4750 2728 4690 
Q 3069 4631 3425 4513 
z
" transform="scale(0.015625)"/>
       <path id="DejaVuSans-54" d="M -19 4666 
L 3928 4666 
L 3928 4134 
L 2272 4134 
L 2272 0 
L 1638 0 
L 1638 4134 
L -19 4134 
L -19 4666 
z
" transform="scale(0.015625)"/>
       <path id="DejaVuSans-2d" d="M 313 2009 
L 1997 2009 
L 1997 1497 
L 313 1497 
L 313 2009 
z
" transform="scale(0.015625)"/>
      </defs>
      <use xlink:href="#DejaVuSans-53"/>
      <use xlink:href="#DejaVuSans-41" transform="translate(65.351562 0)"/>
      <use xlink:href="#DejaVuSans-54" transform="translate(126.009766 0)"/>
      <use xlink:href="#DejaVuSans-2d" transform="translate(177.96875 0)"/>
      <use xlink:href="#DejaVuSans-31" transform="translate(214.052734 0)"/>
     </g>
    </g>
    <g id="line2d_25">
     <path d="M 644.432813 54.656563 
L 654.432813 54.656563 
L 664.432813 54.656563 
" style="fill: none; stroke: #ff7f0e; stroke-width: 1.5; stroke-linecap: square"/>
    </g>
    <g id="text_8">
     <!-- SAT-2 -->
     <g transform="translate(672.432813 58.156563) scale(0.1 -0.1)">
      <use xlink:href="#DejaVuSans-53"/>
      <use xlink:href="#DejaVuSans-41" transform="translate(65.351562 0)"/>
      <use xlink:href="#DejaVuSans-54" transform="translate(126.009766 0)"/>
      <use xlink:href="#DejaVuSans-2d" transform="translate(177.96875 0)"/>
      <use xlink:href="#DejaVuSans-32" transform="translate(214.052734 0)"/>
     </g>
    </g>
    <g id="line2d_26">
     <path d="M 644.432813 69.334688 
L 654.432813 69.334688 
L 664.432813 69.334688 
" style="fill: none; stroke: #2ca02c; stroke-width: 1.5; stroke-linecap: square"/>
    </g>
    <g id="text_9">
     <!-- SAT-3 -->
     <g transform="translate(672.432813 72.834688) scale(0.1 -0.1)">
      <use xlink:href="#DejaVuSans-53"/>
      <use xlink:href="#DejaVuSans-41" transform="translate(65.351562 0)"/>
      <use xlink:href="#DejaVuSans-54" transform="translate(126.009766 0)"/>
      <use xlink:href="#DejaVuSans-2d" transform="translate(177.96875 0)"/>
      <use xlink:href="#DejaVuSans-33" transform="translate(214.052734 0)"/>
     </g>
    </g>
   </g>
  </g>
  <g id="axes_2">
   <g id="patch_8">
    <path d="M 56 411.85 
L 709.2 411.85 
L 709.2 231.975 
L 56 231.975 
z
" style="fill: #ffffff"/>
   </g>
   <g id="matplotlib.axis_3">
    <g id="xtick_7">
     <g id="line2d_27">
      <path d="M 151.670707 411.85 
L 151.670707 231.975 
" clip-path="url(#pf66a31f76f)" style="fill: none; stroke-dasharray: 2.96,1.28; stroke-dashoffset: 0; stroke: #b0b0b0; stroke-opacity: 0.5; stroke-width: 0.8"/>
     </g>
     <g id="line2d_28">
      <g>
       <use xlink:href="#mfe5021b9f3" x="151.670707" y="411.85" style="stroke: #000000; stroke-width: 0.8"/>
      </g>
     </g>
    </g>
    <g id="xtick_8">
     <g id="line2d_29">
      <path d="M 250.640405 411.85 
L 250.640405 231.975 
" clip-path="url(#pf66a31f76f)" style="fill: none; stroke-dasharray: 2.96,1.28; stroke-dashoffset: 0; stroke: #b0b0b0; stroke-opacity: 0.5; stroke-width: 0.8"/>
     </g>
     <g id="line2d_30">
      <g>
       <use xlink:href="#mfe5021b9f3" x="250.640405" y="411.85" style="stroke: #000000; stroke-width: 0.8"/>
      </g>
     </g>
    </g>
    <g id="xtick_9">
     <g id="line2d_31">
      <path d="M 349.610102 411.85 
L 349.610102 231.975 
" clip-path="url(#pf66a31f76f)" style="fill: none; stroke-dasharray: 2.96,1.28; stroke-dashoffset: 0; stroke: #b0b0b0; stroke-opacity: 0.5; stroke-width: 0.8"/>
     </g>
     <g id="line2d_32">
      <g>
       <use xlink:href="#mfe5021b9f3" x="349.610102" y="411.85" style="stroke: #000000; stroke-width: 0.8"/>
      </g>
     </g>
    </g>
    <g id="xtick_10">
     <g id="line2d_33">
      <path d="M 448.579798 411.85 
L 448.579798 231.975 
" clip-path="url(#pf66a31f76f)" style="fill: none; stroke-dasharray: 2.96,1.28; stroke-dashoffset: 0; stroke: #b0b0b0; stroke-opacity: 0.5; stroke-width: 0.8"/>
     </g>
     <g id="line2d_34">
      <g>
       <use xlink:href="#mfe5021b9f3" x="448.579798" y="411.85" style="stroke: #000000; stroke-width: 0.8"/>
      </g>
     </g>
    </g>
    <g id="xtick_11">
     <g id="line2d_35">
      <path d="M 547.549496 411.85 
L 547.549496 231.975 
" clip-path="url(#pf66a31f76f)" style="fill: none; stroke-dasharray: 2.96,1.28; stroke-dashoffset: 0; stroke: #b0b0b0; stroke-opacity: 0.5; stroke-width: 0.8"/>
     </g>
     <g id="line2d_36">
      <g>
       <use xlink:href="#mfe5021b9f3" x="547.549496" y="411.85" style="stroke: #000000; stroke-width: 0.8"/>
      </g>
     </g>
    </g>
    <g id="xtick_12">
     <g id="line2d_37">
      <path d="M 646.519193 411.85 
L 646.519193 231.975 
" clip-path="url(#pf66a31f76f)" style="fill: none; stroke-dasharray: 2.96,1.28; stroke-dashoffset: 0; stroke: #b0b0b0; stroke-opacity: 0.5; stroke-width: 0.8"/>
     </g>
     <g id="line2d_38">
      <g>
       <use xlink:href="#mfe5021b9f3" x="646.519193" y="411.85" style="stroke: #000000; stroke-width: 0.8"/>
      </g>
     </g>
    </g>
   </g>
   <g id="matplotlib.axis_4">
    <g id="ytick_5">
     <g id="line2d_39">
      <path d="M 56 389.703125 
L 709.2 389.703125 
" clip-path="url(#pf66a31f76f)" style="fill: none; stroke-dasharray: 2.96,1.28; stroke-dashoffset: 0; stroke: #b0b0b0; stroke-opacity: 0.5; stroke-width: 0.8"/>
     </g>
     <g id="line2d_40">
      <g>
       <use xlink:href="#ma2f1746051" x="56" y="389.703125" style="stroke: #000000; stroke-width: 0.8"/>
      </g>
     </g>
     <g id="text_10">
      <!-- −0.75 -->
      <g transform="translate(18.354688 393.502344) scale(0.1 -0.1)">
       <defs>
        <path id="DejaVuSans-2212" d="M 678 2272 
L 4684 2272 
L 4684 1741 
L 678 1741 
L 678 2272 
z
" transform="scale(0.015625)"/>
        <path id="DejaVuSans-2e" d="M 684 794 
L 1344 794 
L 1344 0 
L 684 0 
L 684 794 
z
" transform="scale(0.015625)"/>
        <path id="DejaVuSans-37" d="M 525 4666 
L 3525 4666 
L 3525 4397 
L 1831 0 
L 1172 0 
L 2766 4134 
L 525 4134 
L 525 4666 
z
" transform="scale(0.015625)"/>
       </defs>
       <use xlink:href="#DejaVuSans-2212"/>
       <use xlink:href="#DejaVuSans-30" transform="translate(83.789062 0)"/>
       <use xlink:href="#DejaVuSans-2e" transform="translate(147.412109 0)"/>
       <use xlink:href="#DejaVuSans-37" transform="translate(179.199219 0)"/>
       <use xlink:href="#DejaVuSans-35" transform="translate(242.822266 0)"/>
      </g>
     </g>
    </g>
    <g id="ytick_6">
     <g id="line2d_41">
      <path d="M 56 367.125 
L 709.2 367.125 
" clip-path="url(#pf66a31f76f)" style="fill: none; stroke-dasharray: 2.96,1.28; stroke-dashoffset: 0; stroke: #b0b0b0; stroke-opacity: 0.5; stroke-width: 0.8"/>
     </g>
     <g id="line2d_42">
      <g>
       <use xlink:href="#ma2f1746051" x="56" y="367.125" style="stroke: #000000; stroke-width: 0.8"/>
      </g>
     </g>
     <g id="text_11">
      <!-- −0.50 -->
      <g transform="translate(18.354688 370.924219) scale(0.1 -0.1)">
       <use xlink:href="#DejaVuSans-2212"/>
       <use xlink:href="#DejaVuSans-30" transform="translate(83.789062 0)"/>
       <use xlink:href="#DejaVuSans-2e" transform="translate(147.412109 0)"/>
       <use xlink:href="#DejaVuSans-35" transform="translate(179.199219 0)"/>
       <use xlink:href="#DejaVuSans-30" transform="translate(242.822266 0)"/>
      </g>
     </g>
    </g>
    <g id="ytick_7">
     <g id="line2d_43">
      <path d="M 56 344.546875 
L 709.2 344.546875 
" clip-path="url(#pf66a31f76f)" style="fill: none; stroke-dasharray: 2.96,1.28; stroke-dashoffset: 0; stroke: #b0b0b0; stroke-opacity: 0.5; stroke-width: 0.8"/>
     </g>
     <g id="line2d_44">
      <g>
       <use xlink:href="#ma2f1746051" x="56" y="344.546875" style="stroke: #000000; stroke-width: 0.8"/>
      </g>
     </g>
     <g id="text_12">
      <!-- −0.25 -->
      <g transform="translate(18.354688 348.346094) scale(0.1 -0.1)">
       <use xlink:href="#DejaVuSans-2212"/>
       <use xlink:href="#DejaVuSans-30" transform="translate(83.789062 0)"/>
       <use xlink:href="#DejaVuSans-2e" transform="translate(147.412109 0)"/>
       <use xlink:href="#DejaVuSans-32" transform="translate(179.199219 0)"/>
       <use xlink:href="#DejaVuSans-35" transform="translate(242.822266 0)"/>
      </g>
     </g>
    </g>
    <g id="ytick_8">
     <g id="line2d_45">
      <path d="M 56 321.96875 
L 709.2 321.96875 
" clip-path="url(#pf66a31f76f)" style="fill: none; stroke-dasharray: 2.96,1.28; stroke-dashoffset: 0; stroke: #b0b0b0; stroke-opacity: 0.5; stroke-width: 0.8"/>
     </g>
     <g id="line2d_46">
      <g>
       <use xlink:href="#ma2f1746051" x="56" y="321.96875" style="stroke: #000000; stroke-width: 0.8"/>
      </g>
     </g>
     <g id="text_13">
      <!-- −0.00 -->
      <g transform="translate(18.354688 325.767969) scale(0.1 -0.1)">
       <use xlink:href="#DejaVuSans-2212"/>
       <use xlink:href="#DejaVuSans-30" transform="translate(83.789062 0)"/>
       <use xlink:href="#DejaVuSans-2e" transform="translate(147.412109 0)"/>
       <use xlink:href="#DejaVuSans-30" transform="translate(179.199219 0)"/>
       <use xlink:href="#DejaVuSans-30" transform="translate(242.822266 0)"/>
      </g>
     </g>
    </g>
    <g id="ytick_9">
     <g id="line2d_47">
      <path d="M 56 299.40625 
L 709.2 299.40625 
" clip-path="url(#pf66a31f76f)" style="fill: none; stroke-dasharray: 2.96,1.28; stroke-dashoffset: 0; stroke: #b0b0b0; stroke-opacity: 0.5; stroke-width: 0.8"/>
     </g>
     <g id="line2d_48">
      <g>
       <use xlink:href="#ma2f1746051" x="56" y="299.40625" style="stroke: #000000; stroke-width: 0.8"/>
      </g>
     </g>
     <g id="text_14">
      <!-- 0.25 -->
      <g transform="translate(26.734375 303.205469) scale(0.1 -0.1)">
       <use xlink:href="#DejaVuSans-30"/>
       <use xlink:href="#DejaVuSans-2e" transform="translate(63.623047 0)"/>
       <use xlink:href="#DejaVuSans-32" transform="translate(95.410156 0)"/>
       <use xlink:href="#DejaVuSans-35" transform="translate(159.033203 0)"/>
      </g>
     </g>
    </g>
    <g id="ytick_10">
     <g id="line2d_49">
      <path d="M 56 276.828125 
L 709.2 276.828125 
" clip-path="url(#pf66a31f76f)" style="fill: none; stroke-dasharray: 2.96,1.28; stroke-dashoffset: 0; stroke: #b0b0b0; stroke-opacity: 0.5; stroke-width: 0.8"/>
     </g>
     <g id="line2d_50">
      <g>
       <use xlink:href="#ma2f1746051" x="56" y="276.828125" style="stroke: #000000; stroke-width: 0.8"/>
      </g>
     </g>
     <g id="text_15">
      <!-- 0.50 -->
      <g transform="translate(26.734375 280.627344) scale(0.1 -0.1)">
       <use xlink:href="#DejaVuSans-30"/>
       <use xlink:href="#DejaVuSans-2e" transform="translate(63.623047 0)"/>
       <use xlink:href="#DejaVuSans-35" transform="translate(95.410156 0)"/>
       <use xlink:href="#DejaVuSans-30" transform="translate(159.033203 0)"/>
      </g>
     </g>
    </g>
    <g id="ytick_11">
     <g id="line2d_51">
      <path d="M 56 254.25 
L 709.2 254.25 
" clip-path="url(#pf66a31f76f)" style="fill: none; stroke-dasharray: 2.96,1.28; stroke-dashoffset: 0; stroke: #b0b0b0; stroke-opacity: 0.5; stroke-width: 0.8"/>
     </g>
     <g id="line2d_52">
      <g>
       <use xlink:href="#ma2f1746051" x="56" y="254.25" style="stroke: #000000; stroke-width: 0.8"/>
      </g>
     </g>
     <g id="text_16">
      <!-- 0.75 -->
      <g transform="translate(26.734375 258.049219) scale(0.1 -0.1)">
       <use xlink:href="#DejaVuSans-30"/>
       <use xlink:href="#DejaVuSans-2e" transform="translate(63.623047 0)"/>
       <use xlink:href="#DejaVuSans-37" transform="translate(95.410156 0)"/>
       <use xlink:href="#DejaVuSans-35" transform="translate(159.033203 0)"/>
      </g>
     </g>
    </g>
    <g id="text_17">
     <!-- Inclination [deg] -->
     <g transform="translate(12.275 362.809375) rotate(-90) scale(0.1 -0.1)">
      <defs>
       <path id="DejaVuSans-49" d="M 628 4666 
L 1259 4666 
L 1259 0 
L 628 0 
L 628 4666 
z
" transform="scale(0.015625)"/>
      </defs>
      <use xlink:href="#DejaVuSans-49"/>
      <use xlink:href="#DejaVuSans-6e" transform="translate(29.492188 0)"/>
      <use xlink:href="#DejaVuSans-63" transform="translate(92.871094 0)"/>
      <use xlink:href="#DejaVuSans-6c" transform="translate(147.851562 0)"/>
      <use xlink:href="#DejaVuSans-69" transform="translate(175.634766 0)"/>
      <use xlink:href="#DejaVuSans-6e" transform="translate(203.417969 0)"/>
      <use xlink:href="#DejaVuSans-61" transform="translate(266.796875 0)"/>
      <use xlink:href="#DejaVuSans-74" transform="translate(328.076172 0)"/>
      <use xlink:href="#DejaVuSans-69" transform="translate(367.285156 0)"/>
      <use xlink:href="#DejaVuSans-6f" transform="translate(395.068359 0)"/>
      <use xlink:href="#DejaVuSans-6e" transform="translate(456.25 0)"/>
      <use xlink:href="#DejaVuSans-20" transform="translate(519.628906 0)"/>
      <use xlink:href="#DejaVuSans-5b" transform="translate(551.416016 0)"/>
      <use xlink:href="#DejaVuSans-64" transform="translate(590.429688 0)"/>
      <use xlink:href="#DejaVuSans-65" transform="translate(653.90625 0)"/>
      <use xlink:href="#DejaVuSans-67" transform="translate(715.429688 0)"/>
      <use xlink:href="#DejaVuSans-5d" transform="translate(778.90625 0)"/>
     </g>
    </g>
    <g id="text_18">
     <!-- 1e−10+9.77e1 -->
     <g transform="translate(56 228.975) scale(0.1 -0.1)">
      <defs>
       <path id="DejaVuSans-2b" d="M 2944 4013 
L 2944 2272 
L 4684 2272 
L 4684 1741 
L 2944 1741 
L 2944 0 
L 2419 0 
L 2419 1741 
L 678 1741 
L 678 2272 
L 2419 2272 
L 2419 4013 
L 2944 4013 
z
" transform="scale(0.015625)"/>
       <path id="DejaVuSans-39" d="M 703 97 
L 703 672 
Q 941 559 1184 500 
Q 1428 441 1663 441 
Q 2288 441 2617 861 
Q 2947 1281 2994 2138 
Q 2813 1869 2534 1725 
Q 2256 1581 1919 1581 
Q 1219 1581 811 2004 
Q 403 2428 403 3163 
Q 403 3881 828 4315 
Q 1253 4750 1959 4750 
Q 2769 4750 3195 4129 
Q 3622 3509 3622 2328 
Q 3622 1225 3098 567 
Q 2575 -91 1691 -91 
Q 1453 -91 1209 -44 
Q 966 3 703 97 
z
M 1959 2075 
Q 2384 2075 2632 2365 
Q 2881 2656 2881 3163 
Q 2881 3666 2632 3958 
Q 2384 4250 1959 4250 
Q 1534 4250 1286 3958 
Q 1038 3666 1038 3163 
Q 1038 2656 1286 2365 
Q 1534 2075 1959 2075 
z
" transform="scale(0.015625)"/>
      </defs>
      <use xlink:href="#DejaVuSans-31"/>
      <use xlink:href="#DejaVuSans-65" transform="translate(63.623047 0)"/>
      <use xlink:href="#DejaVuSans-2212" transform="translate(125.146484 0)"/>
      <use xlink:href="#DejaVuSans-31" transform="translate(208.935547 0)"/>
      <use xlink:href="#DejaVuSans-30" transform="translate(272.558594 0)"/>
      <use xlink:href="#DejaVuSans-2b" transform="translate(336.181641 0)"/>
      <use xlink:href="#DejaVuSans-39" transform="translate(419.970703 0)"/>
      <use xlink:href="#DejaVuSans-2e" transform="translate(483.59375 0)"/>
      <use xlink:href="#DejaVuSans-37" transform="translate(515.380859 0)"/>
      <use xlink:href="#DejaVuSans-37" transform="translate(579.003906 0)"/>
      <use xlink:href="#DejaVuSans-65" transform="translate(642.626953 0)"/>
      <use xlink:href="#DejaVuSans-31" transform="translate(704.150391 0)"/>
     </g>
    </g>
   </g>
   <g id="line2d_53">
    <path d="M 85.690909 321.171875 
L 88.9899 321.6875 
L 92.288889 321.90625 
L 95.587879 321.109375 
L 98.886868 322.328125 
L 102.185859 322.671875 
L 105.484849 321.46875 
L 108.783838 322.21875 
L 112.082829 321.421875 
L 115.381819 321.34375 
L 118.680808 322.546875 
L 121.979798 322.828125 
L 128.577779 321.109375 
L 131.876768 321.65625 
L 135.175757 322.484375 
L 138.474748 321.734375 
L 141.773738 321.5 
L 145.072727 322.34375 
L 148.371717 322.578125 
L 151.670707 321.75 
L 154.969698 321.921875 
L 158.268687 322.765625 
L 161.567677 321.640625 
L 164.866667 321.859375 
L 168.165657 321.90625 
L 171.464646 320.984375 
L 174.763637 321.609375 
L 181.361617 321.859375 
L 184.660606 323.234375 
L 187.959596 322.96875 
L 194.557576 321.171875 
L 197.856565 321.390625 
L 201.155556 322.328125 
L 204.454546 322.078125 
L 207.753536 322.109375 
L 211.052526 322.265625 
L 214.351515 321.46875 
L 217.650506 321.078125 
L 220.949495 322.25 
L 224.248485 322.765625 
L 227.547475 321.46875 
L 230.846465 321.890625 
L 234.145455 322.84375 
L 237.444445 321.890625 
L 240.743434 321.328125 
L 244.042425 322.140625 
L 247.341414 322.109375 
L 250.640405 321.421875 
L 253.939394 322.4375 
L 257.238384 321.703125 
L 260.537374 321.859375 
L 267.135353 321.90625 
L 270.434344 322.1875 
L 273.733334 322.078125 
L 277.032324 322.328125 
L 280.331313 321.515625 
L 290.228283 322.34375 
L 296.826263 321.5625 
L 300.125253 322.25 
L 303.424243 321.828125 
L 306.723232 321.609375 
L 310.022223 322.453125 
L 313.321213 322.296875 
L 316.620202 321.640625 
L 319.919191 321.46875 
L 323.218183 322.609375 
L 326.517172 321.46875 
L 329.816162 321.125 
L 333.115151 321.765625 
L 336.414142 321.609375 
L 339.713132 322.90625 
L 343.012121 322.359375 
L 349.610102 322 
L 352.909091 321.859375 
L 356.208081 322.109375 
L 359.507071 321.703125 
L 362.806061 322.40625 
L 366.105051 322.875 
L 369.40404 321.34375 
L 372.703032 320.953125 
L 376.002021 322.078125 
L 379.30101 322.40625 
L 382.6 322.21875 
L 385.898991 321.5 
L 392.49697 321.765625 
L 395.795959 322.453125 
L 399.094951 322.546875 
L 402.39394 321.25 
L 405.692929 321.421875 
L 408.99192 322.078125 
L 412.29091 322.546875 
L 415.5899 321.640625 
L 418.888889 321.78125 
L 422.187879 322.484375 
L 428.785859 322.25 
L 432.084848 321.546875 
L 435.383839 321.546875 
L 438.682829 321.15625 
L 441.981819 322.046875 
L 445.280808 322.359375 
L 448.579798 322.296875 
L 451.878789 322.625 
L 455.177778 321.390625 
L 458.476768 321.390625 
L 461.775758 322.609375 
L 465.074748 322.46875 
L 468.373738 321.390625 
L 471.672728 321.46875 
L 474.971718 322.046875 
L 478.270708 322.453125 
L 484.868687 321.75 
L 488.167678 322.3125 
L 491.466667 321.25 
L 494.765657 322.109375 
L 498.064647 322.6875 
L 501.363637 321.6875 
L 504.662627 321.546875 
L 507.961617 321.78125 
L 511.260607 322.90625 
L 514.559597 322.078125 
L 517.858586 321.6875 
L 521.157577 321.765625 
L 524.456566 321.609375 
L 527.755556 321.859375 
L 534.353536 321.734375 
L 537.652526 322.671875 
L 540.951516 322.09375 
L 544.250505 321.25 
L 547.549496 322.921875 
L 550.848485 322 
L 554.147476 320.921875 
L 557.446465 322.359375 
L 560.745455 322.4375 
L 564.044445 322.046875 
L 567.343435 321.5 
L 570.642425 321.890625 
L 573.941415 322.125 
L 577.240404 321.765625 
L 580.539395 322.359375 
L 583.838385 321.65625 
L 587.137374 321.890625 
L 590.436364 322.90625 
L 597.034344 321.171875 
L 600.333334 321.25 
L 603.632324 321.765625 
L 606.931314 322.671875 
L 610.230304 321.875 
L 613.529293 321.46875 
L 616.828284 322.25 
L 620.127274 321.53125 
L 623.426263 321.828125 
L 626.725253 323.078125 
L 630.024243 322.25 
L 633.323234 320.84375 
L 636.622223 321.6875 
L 639.921212 322.6875 
L 646.519193 321.859375 
L 653.117172 322.140625 
L 656.416162 321.875 
L 659.715153 321.859375 
L 663.014142 321.5 
L 666.313131 321.921875 
L 669.612123 321.765625 
L 672.911112 322.046875 
L 676.210102 322.5 
L 679.509091 321.859375 
L 679.509091 321.859375 
" clip-path="url(#pf66a31f76f)" style="fill: none; stroke: #1f77b4; stroke-width: 1.5; stroke-linecap: square"/>
   </g>
   <g id="line2d_54">
    <path d="M 85.690909 322.328125 
L 95.587879 321.53125 
L 98.886868 322.078125 
L 102.185859 322.765625 
L 105.484849 322.09375 
L 108.783838 322 
L 112.082829 321.109375 
L 115.381819 320.84375 
L 118.680808 322.9375 
L 121.979798 322.546875 
L 125.278788 321.46875 
L 128.577779 322.046875 
L 135.175757 322.1875 
L 138.474748 321.6875 
L 141.773738 321.53125 
L 145.072727 322.109375 
L 148.371717 322.234375 
L 151.670707 321.828125 
L 154.969698 322.21875 
L 158.268687 322.4375 
L 161.567677 321.515625 
L 164.866667 321.828125 
L 168.165657 321.96875 
L 171.464646 321.25 
L 174.763637 322.046875 
L 178.062626 322.625 
L 181.361617 321.703125 
L 184.660606 322.5 
L 187.959596 322.046875 
L 191.258586 321.171875 
L 194.557576 322.25 
L 197.856565 322.71875 
L 201.155556 322.078125 
L 204.454546 320.953125 
L 207.753536 321.609375 
L 211.052526 322.078125 
L 214.351515 321.46875 
L 217.650506 322.109375 
L 220.949495 322.90625 
L 224.248485 322.1875 
L 227.547475 321.125 
L 230.846465 322.296875 
L 234.145455 322.71875 
L 237.444445 321.390625 
L 240.743434 321.53125 
L 244.042425 322.171875 
L 247.341414 321.90625 
L 250.640405 321.828125 
L 253.939394 322.40625 
L 257.238384 321.65625 
L 260.537374 322 
L 263.836364 321.890625 
L 267.135353 322.046875 
L 270.434344 322.53125 
L 273.733334 321.921875 
L 277.032324 321.828125 
L 280.331313 322.046875 
L 283.630303 322.578125 
L 286.929294 321.609375 
L 290.228283 321.828125 
L 293.527272 321.6875 
L 296.826263 321.859375 
L 300.125253 322.359375 
L 303.424243 321.546875 
L 306.723232 321.90625 
L 310.022223 322 
L 313.321213 321.640625 
L 316.620202 322.484375 
L 319.919191 322.109375 
L 323.218183 322.109375 
L 326.517172 321.46875 
L 329.816162 321.296875 
L 333.115151 321.875 
L 336.414142 321.828125 
L 339.713132 322.828125 
L 349.610102 321.34375 
L 352.909091 322.09375 
L 356.208081 322.109375 
L 359.507071 321.421875 
L 362.806061 322.328125 
L 366.105051 322.71875 
L 369.40404 321.703125 
L 372.703032 321.390625 
L 376.002021 322.8125 
L 379.30101 322.25 
L 382.6 321.390625 
L 385.898991 321.875 
L 389.197981 322.140625 
L 392.49697 321.34375 
L 395.795959 321.421875 
L 399.094951 322.296875 
L 402.39394 321.828125 
L 408.99192 322.359375 
L 412.29091 321.875 
L 415.5899 321.640625 
L 418.888889 322.109375 
L 422.187879 322.75 
L 428.785859 322.046875 
L 432.084848 321.109375 
L 435.383839 321.765625 
L 438.682829 321.609375 
L 441.981819 321.25 
L 445.280808 322.59375 
L 448.579798 322 
L 451.878789 322.59375 
L 455.177778 322.40625 
L 458.476768 321.546875 
L 465.074748 322.21875 
L 468.373738 322.328125 
L 471.672728 321.53125 
L 474.971718 321.75 
L 478.270708 322.1875 
L 481.569697 321.96875 
L 484.868687 322.109375 
L 488.167678 321.328125 
L 491.466667 321.078125 
L 494.765657 322.5 
L 498.064647 322.46875 
L 501.363637 321.921875 
L 504.662627 321.6875 
L 511.260607 322.3125 
L 514.559597 322.046875 
L 517.858586 322 
L 521.157577 321.75 
L 524.456566 322.140625 
L 527.755556 321.34375 
L 531.054546 321.171875 
L 534.353536 321.859375 
L 537.652526 322.6875 
L 540.951516 322.75 
L 544.250505 321.890625 
L 547.549496 322.25 
L 554.147476 321.328125 
L 557.446465 322.25 
L 560.745455 322.25 
L 564.044445 321.734375 
L 567.343435 321.5 
L 570.642425 321.6875 
L 573.941415 322 
L 580.539395 322.234375 
L 583.838385 322 
L 587.137374 321.5625 
L 590.436364 322.359375 
L 593.735354 322.21875 
L 597.034344 321.296875 
L 600.333334 321.5 
L 603.632324 322.3125 
L 606.931314 323.375 
L 610.230304 321.421875 
L 613.529293 320.703125 
L 616.828284 322.671875 
L 620.127274 322.4375 
L 623.426263 321.828125 
L 626.725253 322.109375 
L 630.024243 321.6875 
L 636.622223 321.921875 
L 639.921212 322.40625 
L 643.220203 322.234375 
L 649.818183 321.609375 
L 653.117172 321.390625 
L 656.416162 321.78125 
L 659.715153 322.484375 
L 663.014142 322.4375 
L 666.313131 321.828125 
L 669.612123 321.78125 
L 672.911112 322.25 
L 676.210102 321.65625 
L 679.509091 320.34375 
L 679.509091 320.34375 
" clip-path="url(#pf66a31f76f)" style="fill: none; stroke: #ff7f0e; stroke-width: 1.5; stroke-linecap: square"/>
   </g>
   <g id="line2d_55">
    <path d="M 85.690909 322.828125 
L 88.9899 322.234375 
L 92.288889 321.421875 
L 95.587879 321.53125 
L 102.185859 322.96875 
L 105.484849 322.484375 
L 112.082829 320.5 
L 115.381819 321.640625 
L 118.680808 323.46875 
L 121.979798 322.34375 
L 125.278788 321.5 
L 128.577779 321.546875 
L 131.876768 321.828125 
L 135.175757 322.484375 
L 138.474748 321.78125 
L 141.773738 320.953125 
L 148.371717 322.4375 
L 151.670707 322.109375 
L 161.567677 322.4375 
L 164.866667 321.46875 
L 168.165657 321.75 
L 171.464646 322.1875 
L 174.763637 321.921875 
L 181.361617 321.78125 
L 184.660606 322.90625 
L 191.258586 321.25 
L 194.557576 321.75 
L 197.856565 322.125 
L 201.155556 322.125 
L 204.454546 321.828125 
L 207.753536 321.734375 
L 211.052526 321.953125 
L 214.351515 321.921875 
L 217.650506 321.765625 
L 220.949495 322.40625 
L 224.248485 322.234375 
L 227.547475 320.953125 
L 230.846465 322.234375 
L 234.145455 323.140625 
L 237.444445 322.046875 
L 240.743434 321.34375 
L 244.042425 321.5 
L 247.341414 322.234375 
L 250.640405 321.734375 
L 253.939394 321.875 
L 257.238384 321.875 
L 260.537374 321.65625 
L 263.836364 321.890625 
L 267.135353 321.890625 
L 270.434344 322.65625 
L 277.032324 322.234375 
L 283.630303 321.5625 
L 286.929294 321.34375 
L 290.228283 322.046875 
L 293.527272 322.46875 
L 296.826263 321.46875 
L 300.125253 321.890625 
L 303.424243 321.640625 
L 306.723232 322.234375 
L 310.022223 322.625 
L 313.321213 321.125 
L 316.620202 321.828125 
L 323.218183 322.484375 
L 326.517172 321.5 
L 329.816162 321.15625 
L 333.115151 322.1875 
L 336.414142 322.25 
L 339.713132 322.109375 
L 343.012121 322.40625 
L 346.311112 322.09375 
L 349.610102 321.375 
L 352.909091 321.890625 
L 356.208081 321.703125 
L 359.507071 322.328125 
L 366.105051 322.765625 
L 369.40404 321.859375 
L 372.703032 321.5625 
L 376.002021 322.046875 
L 379.30101 321.734375 
L 382.6 322.234375 
L 385.898991 321.765625 
L 389.197981 321.171875 
L 392.49697 321.734375 
L 395.795959 322.46875 
L 402.39394 322 
L 405.692929 321.609375 
L 408.99192 321.546875 
L 412.29091 322.328125 
L 415.5899 321.96875 
L 418.888889 321.828125 
L 425.48687 322.265625 
L 428.785859 322.53125 
L 432.084848 321.421875 
L 435.383839 321.953125 
L 438.682829 321.5625 
L 441.981819 321.53125 
L 445.280808 322 
L 448.579798 322.234375 
L 451.878789 322.828125 
L 455.177778 321.890625 
L 458.476768 321.5 
L 461.775758 321.421875 
L 465.074748 322.40625 
L 468.373738 322.46875 
L 471.672728 321.5625 
L 474.971718 322.578125 
L 478.270708 322.359375 
L 481.569697 321.6875 
L 484.868687 322.359375 
L 488.167678 321.25 
L 491.466667 320.546875 
L 494.765657 322.59375 
L 498.064647 322.671875 
L 501.363637 321.171875 
L 504.662627 321.25 
L 507.961617 322.25 
L 511.260607 323.484375 
L 517.858586 321.25 
L 521.157577 321.375 
L 524.456566 321.875 
L 527.755556 322.21875 
L 531.054546 321.78125 
L 534.353536 321.46875 
L 537.652526 322.46875 
L 540.951516 322.796875 
L 544.250505 321.765625 
L 547.549496 322.53125 
L 550.848485 321.328125 
L 554.147476 321.03125 
L 557.446465 322.5 
L 560.745455 322.4375 
L 564.044445 322 
L 567.343435 321.75 
L 570.642425 322.046875 
L 573.941415 322.21875 
L 577.240404 321.78125 
L 580.539395 321.640625 
L 583.838385 322.171875 
L 587.137374 321.609375 
L 590.436364 322.34375 
L 593.735354 322.078125 
L 597.034344 320.96875 
L 600.333334 322.4375 
L 603.632324 322.359375 
L 606.931314 322.46875 
L 610.230304 321.828125 
L 613.529293 320.984375 
L 620.127274 322.296875 
L 623.426263 322.65625 
L 626.725253 322.40625 
L 630.024243 321.53125 
L 633.323234 320.796875 
L 636.622223 321.890625 
L 639.921212 322.6875 
L 643.220203 321.890625 
L 646.519193 321.5625 
L 649.818183 322.609375 
L 656.416162 321.75 
L 659.715153 321.609375 
L 663.014142 322.046875 
L 666.313131 322.328125 
L 669.612123 321.125 
L 672.911112 322 
L 676.210102 322.546875 
L 679.509091 322.1875 
L 679.509091 322.1875 
" clip-path="url(#pf66a31f76f)" style="fill: none; stroke: #2ca02c; stroke-width: 1.5; stroke-linecap: square"/>
   </g>
   <g id="patch_9">
    <path d="M 56 411.84375 
L 56 231.96875 
" style="fill: none; stroke: #000000; stroke-width: 0.8; stroke-linejoin: miter; stroke-linecap: square"/>
   </g>
   <g id="patch_10">
    <path d="M 709.2 411.84375 
L 709.2 231.96875 
" style="fill: none; stroke: #000000; stroke-width: 0.8; stroke-linejoin: miter; stroke-linecap: square"/>
   </g>
   <g id="patch_11">
    <path d="M 56 411.85 
L 709.2 411.85 
" style="fill: none; stroke: #000000; stroke-width: 0.8; stroke-linejoin: miter; stroke-linecap: square"/>
   </g>
   <g id="patch_12">
    <path d="M 56 231.975 
L 709.2 231.975 
" style="fill: none; stroke: #000000; stroke-width: 0.8; stroke-linejoin: miter; stroke-linecap: square"/>
   </g>
  </g>
  <g id="axes_3">
   <g id="patch_13">
    <path d="M 56 616.945 
L 709.2 616.945 
L 709.2 437.07 
L 56 437.07 
z
" style="fill: #ffffff"/>
   </g>
   <g id="matplotlib.axis_5">
    <g id="xtick_13">
     <g id="line2d_56">
      <path d="M 151.670707 616.945 
L 151.670707 437.07 
" clip-path="url(#p8866880900)" style="fill: none; stroke-dasharray: 2.96,1.28; stroke-dashoffset: 0; stroke: #b0b0b0; stroke-opacity: 0.5; stroke-width: 0.8"/>
     </g>
     <g id="line2d_57">
      <g>
       <use xlink:href="#mfe5021b9f3" x="151.670707" y="616.945" style="stroke: #000000; stroke-width: 0.8"/>
      </g>
     </g>
    </g>
    <g id="xtick_14">
     <g id="line2d_58">
      <path d="M 250.640405 616.945 
L 250.640405 437.07 
" clip-path="url(#p8866880900)" style="fill: none; stroke-dasharray: 2.96,1.28; stroke-dashoffset: 0; stroke: #b0b0b0; stroke-opacity: 0.5; stroke-width: 0.8"/>
     </g>
     <g id="line2d_59">
      <g>
       <use xlink:href="#mfe5021b9f3" x="250.640405" y="616.945" style="stroke: #000000; stroke-width: 0.8"/>
      </g>
     </g>
    </g>
    <g id="xtick_15">
     <g id="line2d_60">
      <path d="M 349.610102 616.945 
L 349.610102 437.07 
" clip-path="url(#p8866880900)" style="fill: none; stroke-dasharray: 2.96,1.28; stroke-dashoffset: 0; stroke: #b0b0b0; stroke-opacity: 0.5; stroke-width: 0.8"/>
     </g>
     <g id="line2d_61">
      <g>
       <use xlink:href="#mfe5021b9f3" x="349.610102" y="616.945" style="stroke: #000000; stroke-width: 0.8"/>
      </g>
     </g>
    </g>
    <g id="xtick_16">
     <g id="line2d_62">
      <path d="M 448.579798 616.945 
L 448.579798 437.07 
" clip-path="url(#p8866880900)" style="fill: none; stroke-dasharray: 2.96,1.28; stroke-dashoffset: 0; stroke: #b0b0b0; stroke-opacity: 0.5; stroke-width: 0.8"/>
     </g>
     <g id="line2d_63">
      <g>
       <use xlink:href="#mfe5021b9f3" x="448.579798" y="616.945" style="stroke: #000000; stroke-width: 0.8"/>
      </g>
     </g>
    </g>
    <g id="xtick_17">
     <g id="line2d_64">
      <path d="M 547.549496 616.945 
L 547.549496 437.07 
" clip-path="url(#p8866880900)" style="fill: none; stroke-dasharray: 2.96,1.28; stroke-dashoffset: 0; stroke: #b0b0b0; stroke-opacity: 0.5; stroke-width: 0.8"/>
     </g>
     <g id="line2d_65">
      <g>
       <use xlink:href="#mfe5021b9f3" x="547.549496" y="616.945" style="stroke: #000000; stroke-width: 0.8"/>
      </g>
     </g>
    </g>
    <g id="xtick_18">
     <g id="line2d_66">
      <path d="M 646.519193 616.945 
L 646.519193 437.07 
" clip-path="url(#p8866880900)" style="fill: none; stroke-dasharray: 2.96,1.28; stroke-dashoffset: 0; stroke: #b0b0b0; stroke-opacity: 0.5; stroke-width: 0.8"/>
     </g>
     <g id="line2d_67">
      <g>
       <use xlink:href="#mfe5021b9f3" x="646.519193" y="616.945" style="stroke: #000000; stroke-width: 0.8"/>
      </g>
     </g>
    </g>
   </g>
   <g id="matplotlib.axis_6">
    <g id="ytick_12">
     <g id="line2d_68">
      <path d="M 56 599.921875 
L 709.2 599.921875 
" clip-path="url(#p8866880900)" style="fill: none; stroke-dasharray: 2.96,1.28; stroke-dashoffset: 0; stroke: #b0b0b0; stroke-opacity: 0.5; stroke-width: 0.8"/>
     </g>
     <g id="line2d_69">
      <g>
       <use xlink:href="#ma2f1746051" x="56" y="599.921875" style="stroke: #000000; stroke-width: 0.8"/>
      </g>
     </g>
     <g id="text_19">
      <!-- 40 -->
      <g transform="translate(36.275 603.721094) scale(0.1 -0.1)">
       <defs>
        <path id="DejaVuSans-34" d="M 2419 4116 
L 825 1625 
L 2419 1625 
L 2419 4116 
z
M 2253 4666 
L 3047 4666 
L 3047 1625 
L 3713 1625 
L 3713 1100 
L 3047 1100 
L 3047 0 
L 2419 0 
L 2419 1100 
L 313 1100 
L 313 1709 
L 2253 4666 
z
" transform="scale(0.015625)"/>
       </defs>
       <use xlink:href="#DejaVuSans-34"/>
       <use xlink:href="#DejaVuSans-30" transform="translate(63.623047 0)"/>
      </g>
     </g>
    </g>
    <g id="ytick_13">
     <g id="line2d_70">
      <path d="M 56 574.40625 
L 709.2 574.40625 
" clip-path="url(#p8866880900)" style="fill: none; stroke-dasharray: 2.96,1.28; stroke-dashoffset: 0; stroke: #b0b0b0; stroke-opacity: 0.5; stroke-width: 0.8"/>
     </g>
     <g id="line2d_71">
      <g>
       <use xlink:href="#ma2f1746051" x="56" y="574.40625" style="stroke: #000000; stroke-width: 0.8"/>
      </g>
     </g>
     <g id="text_20">
      <!-- 41 -->
      <g transform="translate(36.275 578.205469) scale(0.1 -0.1)">
       <use xlink:href="#DejaVuSans-34"/>
       <use xlink:href="#DejaVuSans-31" transform="translate(63.623047 0)"/>
      </g>
     </g>
    </g>
    <g id="ytick_14">
     <g id="line2d_72">
      <path d="M 56 548.921875 
L 709.2 548.921875 
" clip-path="url(#p8866880900)" style="fill: none; stroke-dasharray: 2.96,1.28; stroke-dashoffset: 0; stroke: #b0b0b0; stroke-opacity: 0.5; stroke-width: 0.8"/>
     </g>
     <g id="line2d_73">
      <g>
       <use xlink:href="#ma2f1746051" x="56" y="548.921875" style="stroke: #000000; stroke-width: 0.8"/>
      </g>
     </g>
     <g id="text_21">
      <!-- 42 -->
      <g transform="translate(36.275 552.721094) scale(0.1 -0.1)">
       <use xlink:href="#DejaVuSans-34"/>
       <use xlink:href="#DejaVuSans-32" transform="translate(63.623047 0)"/>
      </g>
     </g>
    </g>
    <g id="ytick_15">
     <g id="line2d_74">
      <path d="M 56 523.40625 
L 709.2 523.40625 
" clip-path="url(#p8866880900)" style="fill: none; stroke-dasharray: 2.96,1.28; stroke-dashoffset: 0; stroke: #b0b0b0; stroke-opacity: 0.5; stroke-width: 0.8"/>
     </g>
     <g id="line2d_75">
      <g>
       <use xlink:href="#ma2f1746051" x="56" y="523.40625" style="stroke: #000000; stroke-width: 0.8"/>
      </g>
     </g>
     <g id="text_22">
      <!-- 43 -->
      <g transform="translate(36.275 527.205469) scale(0.1 -0.1)">
       <use xlink:href="#DejaVuSans-34"/>
       <use xlink:href="#DejaVuSans-33" transform="translate(63.623047 0)"/>
      </g>
     </g>
    </g>
    <g id="ytick_16">
     <g id="line2d_76">
      <path d="M 56 497.890625 
L 709.2 497.890625 
" clip-path="url(#p8866880900)" style="fill: none; stroke-dasharray: 2.96,1.28; stroke-dashoffset: 0; stroke: #b0b0b0; stroke-opacity: 0.5; stroke-width: 0.8"/>
     </g>
     <g id="line2d_77">
      <g>
       <use xlink:href="#ma2f1746051" x="56" y="497.890625" style="stroke: #000000; stroke-width: 0.8"/>
      </g>
     </g>
     <g id="text_23">
      <!-- 44 -->
      <g transform="translate(36.275 501.689844) scale(0.1 -0.1)">
       <use xlink:href="#DejaVuSans-34"/>
       <use xlink:href="#DejaVuSans-34" transform="translate(63.623047 0)"/>
      </g>
     </g>
    </g>
    <g id="ytick_17">
     <g id="line2d_78">
      <path d="M 56 472.390625 
L 709.2 472.390625 
" clip-path="url(#p8866880900)" style="fill: none; stroke-dasharray: 2.96,1.28; stroke-dashoffset: 0; stroke: #b0b0b0; stroke-opacity: 0.5; stroke-width: 0.8"/>
     </g>
     <g id="line2d_79">
      <g>
       <use xlink:href="#ma2f1746051" x="56" y="472.390625" style="stroke: #000000; stroke-width: 0.8"/>
      </g>
     </g>
     <g id="text_24">
      <!-- 45 -->
      <g transform="translate(36.275 476.189844) scale(0.1 -0.1)">
       <use xlink:href="#DejaVuSans-34"/>
       <use xlink:href="#DejaVuSans-35" transform="translate(63.623047 0)"/>
      </g>
     </g>
    </g>
    <g id="ytick_18">
     <g id="line2d_80">
      <path d="M 56 446.875 
L 709.2 446.875 
" clip-path="url(#p8866880900)" style="fill: none; stroke-dasharray: 2.96,1.28; stroke-dashoffset: 0; stroke: #b0b0b0; stroke-opacity: 0.5; stroke-width: 0.8"/>
     </g>
     <g id="line2d_81">
      <g>
       <use xlink:href="#ma2f1746051" x="56" y="446.875" style="stroke: #000000; stroke-width: 0.8"/>
      </g>
     </g>
     <g id="text_25">
      <!-- 46 -->
      <g transform="translate(36.275 450.674219) scale(0.1 -0.1)">
       <defs>
        <path id="DejaVuSans-36" d="M 2113 2584 
Q 1688 2584 1439 2293 
Q 1191 2003 1191 1497 
Q 1191 994 1439 701 
Q 1688 409 2113 409 
Q 2538 409 2786 701 
Q 3034 994 3034 1497 
Q 3034 2003 2786 2293 
Q 2538 2584 2113 2584 
z
M 3366 4563 
L 3366 3988 
Q 3128 4100 2886 4159 
Q 2644 4219 2406 4219 
Q 1781 4219 1451 3797 
Q 1122 3375 1075 2522 
Q 1259 2794 1537 2939 
Q 1816 3084 2150 3084 
Q 2853 3084 3261 2657 
Q 3669 2231 3669 1497 
Q 3669 778 3244 343 
Q 2819 -91 2113 -91 
Q 1303 -91 875 529 
Q 447 1150 447 2328 
Q 447 3434 972 4092 
Q 1497 4750 2381 4750 
Q 2619 4750 2861 4703 
Q 3103 4656 3366 4563 
z
" transform="scale(0.015625)"/>
       </defs>
       <use xlink:href="#DejaVuSans-34"/>
       <use xlink:href="#DejaVuSans-36" transform="translate(63.623047 0)"/>
      </g>
     </g>
    </g>
    <g id="text_26">
     <!-- RAAN [deg] -->
     <g transform="translate(30.195313 555.916094) rotate(-90) scale(0.1 -0.1)">
      <defs>
       <path id="DejaVuSans-52" d="M 2841 2188 
Q 3044 2119 3236 1894 
Q 3428 1669 3622 1275 
L 4263 0 
L 3584 0 
L 2988 1197 
Q 2756 1666 2539 1819 
Q 2322 1972 1947 1972 
L 1259 1972 
L 1259 0 
L 628 0 
L 628 4666 
L 2053 4666 
Q 2853 4666 3247 4331 
Q 3641 3997 3641 3322 
Q 3641 2881 3436 2590 
Q 3231 2300 2841 2188 
z
M 1259 4147 
L 1259 2491 
L 2053 2491 
Q 2509 2491 2742 2702 
Q 2975 2913 2975 3322 
Q 2975 3731 2742 3939 
Q 2509 4147 2053 4147 
L 1259 4147 
z
" transform="scale(0.015625)"/>
       <path id="DejaVuSans-4e" d="M 628 4666 
L 1478 4666 
L 3547 763 
L 3547 4666 
L 4159 4666 
L 4159 0 
L 3309 0 
L 1241 3903 
L 1241 0 
L 628 0 
L 628 4666 
z
" transform="scale(0.015625)"/>
      </defs>
      <use xlink:href="#DejaVuSans-52"/>
      <use xlink:href="#DejaVuSans-41" transform="translate(65.482422 0)"/>
      <use xlink:href="#DejaVuSans-41" transform="translate(136.640625 0)"/>
      <use xlink:href="#DejaVuSans-4e" transform="translate(205.048828 0)"/>
      <use xlink:href="#DejaVuSans-20" transform="translate(279.853516 0)"/>
      <use xlink:href="#DejaVuSans-5b" transform="translate(311.640625 0)"/>
      <use xlink:href="#DejaVuSans-64" transform="translate(350.654297 0)"/>
      <use xlink:href="#DejaVuSans-65" transform="translate(414.130859 0)"/>
      <use xlink:href="#DejaVuSans-67" transform="translate(475.654297 0)"/>
      <use xlink:href="#DejaVuSans-5d" transform="translate(539.130859 0)"/>
     </g>
    </g>
    <g id="text_27">
     <!-- 1e−10+3.50983817e2 -->
     <g transform="translate(56 434.07) scale(0.1 -0.1)">
      <defs>
       <path id="DejaVuSans-38" d="M 2034 2216 
Q 1584 2216 1326 1975 
Q 1069 1734 1069 1313 
Q 1069 891 1326 650 
Q 1584 409 2034 409 
Q 2484 409 2743 651 
Q 3003 894 3003 1313 
Q 3003 1734 2745 1975 
Q 2488 2216 2034 2216 
z
M 1403 2484 
Q 997 2584 770 2862 
Q 544 3141 544 3541 
Q 544 4100 942 4425 
Q 1341 4750 2034 4750 
Q 2731 4750 3128 4425 
Q 3525 4100 3525 3541 
Q 3525 3141 3298 2862 
Q 3072 2584 2669 2484 
Q 3125 2378 3379 2068 
Q 3634 1759 3634 1313 
Q 3634 634 3220 271 
Q 2806 -91 2034 -91 
Q 1263 -91 848 271 
Q 434 634 434 1313 
Q 434 1759 690 2068 
Q 947 2378 1403 2484 
z
M 1172 3481 
Q 1172 3119 1398 2916 
Q 1625 2713 2034 2713 
Q 2441 2713 2670 2916 
Q 2900 3119 2900 3481 
Q 2900 3844 2670 4047 
Q 2441 4250 2034 4250 
Q 1625 4250 1398 4047 
Q 1172 3844 1172 3481 
z
" transform="scale(0.015625)"/>
      </defs>
      <use xlink:href="#DejaVuSans-31"/>
      <use xlink:href="#DejaVuSans-65" transform="translate(63.623047 0)"/>
      <use xlink:href="#DejaVuSans-2212" transform="translate(125.146484 0)"/>
      <use xlink:href="#DejaVuSans-31" transform="translate(208.935547 0)"/>
      <use xlink:href="#DejaVuSans-30" transform="translate(272.558594 0)"/>
      <use xlink:href="#DejaVuSans-2b" transform="translate(336.181641 0)"/>
      <use xlink:href="#DejaVuSans-33" transform="translate(419.970703 0)"/>
      <use xlink:href="#DejaVuSans-2e" transform="translate(483.59375 0)"/>
      <use xlink:href="#DejaVuSans-35" transform="translate(515.380859 0)"/>
      <use xlink:href="#DejaVuSans-30" transform="translate(579.003906 0)"/>
      <use xlink:href="#DejaVuSans-39" transform="translate(642.626953 0)"/>
      <use xlink:href="#DejaVuSans-38" transform="translate(706.25 0)"/>
      <use xlink:href="#DejaVuSans-33" transform="translate(769.873047 0)"/>
      <use xlink:href="#DejaVuSans-38" transform="translate(833.496094 0)"/>
      <use xlink:href="#DejaVuSans-31" transform="translate(897.119141 0)"/>
      <use xlink:href="#DejaVuSans-37" transform="translate(960.742188 0)"/>
      <use xlink:href="#DejaVuSans-65" transform="translate(1024.365234 0)"/>
      <use xlink:href="#DejaVuSans-32" transform="translate(1085.888672 0)"/>
     </g>
    </g>
   </g>
   <g id="line2d_82">
    <path d="M 85.690909 526.90625 
L 92.288889 527.03125 
L 95.587879 526.875 
L 98.886868 527.09375 
L 102.185859 527.15625 
L 105.484849 526.953125 
L 108.783838 527.078125 
L 112.082829 526.9375 
L 115.381819 526.9375 
L 118.680808 527.140625 
L 121.979798 527.203125 
L 128.577779 526.875 
L 135.175757 527.125 
L 141.773738 526.96875 
L 148.371717 527.140625 
L 151.670707 527.015625 
L 154.969698 527.03125 
L 158.268687 527.1875 
L 161.567677 526.984375 
L 168.165657 527.03125 
L 171.464646 526.875 
L 178.062626 527.015625 
L 181.361617 527.015625 
L 184.660606 527.25 
L 187.959596 527.21875 
L 194.557576 526.890625 
L 211.052526 527.078125 
L 217.650506 526.875 
L 224.248485 527.203125 
L 227.547475 526.953125 
L 234.145455 527.203125 
L 240.743434 526.9375 
L 244.042425 527.078125 
L 267.135353 527.03125 
L 277.032324 527.109375 
L 280.331313 526.953125 
L 290.228283 527.125 
L 296.826263 526.96875 
L 300.125253 527.09375 
L 306.723232 526.953125 
L 310.022223 527.125 
L 319.919191 526.953125 
L 323.218183 527.1875 
L 326.517172 526.953125 
L 329.816162 526.859375 
L 333.115151 527 
L 336.414142 526.984375 
L 339.713132 527.21875 
L 349.610102 527.046875 
L 359.507071 526.984375 
L 366.105051 527.21875 
L 369.40404 526.921875 
L 372.703032 526.8125 
L 376.002021 527.0625 
L 382.6 527.078125 
L 385.898991 526.953125 
L 399.094951 527.171875 
L 402.39394 526.890625 
L 408.99192 527.0625 
L 412.29091 527.171875 
L 415.5899 526.96875 
L 428.785859 527.09375 
L 432.084848 526.953125 
L 441.981819 527.0625 
L 451.878789 527.203125 
L 455.177778 526.921875 
L 458.476768 526.9375 
L 461.775758 527.203125 
L 465.074748 527.140625 
L 468.373738 526.90625 
L 474.971718 527.046875 
L 478.270708 527.15625 
L 484.868687 527 
L 488.167678 527.125 
L 491.466667 526.875 
L 498.064647 527.203125 
L 501.363637 526.984375 
L 507.961617 527.015625 
L 511.260607 527.25 
L 517.858586 526.984375 
L 534.353536 526.984375 
L 537.652526 527.203125 
L 544.250505 526.875 
L 547.549496 527.265625 
L 554.147476 526.8125 
L 557.446465 527.140625 
L 560.745455 527.15625 
L 567.343435 526.9375 
L 573.941415 527.078125 
L 577.240404 526.984375 
L 580.539395 527.140625 
L 583.838385 526.953125 
L 587.137374 527.03125 
L 590.436364 527.25 
L 597.034344 526.828125 
L 600.333334 526.859375 
L 606.931314 527.21875 
L 613.529293 526.921875 
L 616.828284 527.09375 
L 620.127274 526.953125 
L 623.426263 527.015625 
L 626.725253 527.3125 
L 630.024243 527.109375 
L 633.323234 526.765625 
L 639.921212 527.21875 
L 649.818183 527.046875 
L 656.416162 527.015625 
L 672.911112 527.046875 
L 676.210102 527.171875 
L 679.509091 527.015625 
L 679.509091 527.015625 
" clip-path="url(#p8866880900)" style="fill: none; stroke: #1f77b4; stroke-width: 1.5; stroke-linecap: square"/>
   </g>
   <g id="line2d_83">
    <path d="M 85.690909 527.09375 
L 98.886868 527.0625 
L 102.185859 527.1875 
L 105.484849 527.046875 
L 108.783838 527.03125 
L 112.082829 526.875 
L 115.381819 526.84375 
L 118.680808 527.21875 
L 128.577779 527.0625 
L 168.165657 527.03125 
L 171.464646 526.921875 
L 178.062626 527.171875 
L 181.361617 526.984375 
L 184.660606 527.140625 
L 191.258586 526.890625 
L 197.856565 527.203125 
L 204.454546 526.84375 
L 211.052526 527.0625 
L 214.351515 526.953125 
L 220.949495 527.203125 
L 227.547475 526.875 
L 234.145455 527.203125 
L 237.444445 526.9375 
L 283.630303 527.171875 
L 286.929294 526.96875 
L 300.125253 527.109375 
L 303.424243 526.953125 
L 310.022223 527.03125 
L 313.321213 526.984375 
L 316.620202 527.140625 
L 329.816162 526.921875 
L 339.713132 527.21875 
L 349.610102 526.921875 
L 352.909091 527.0625 
L 356.208081 527.0625 
L 359.507071 526.921875 
L 362.806061 527.125 
L 366.105051 527.203125 
L 369.40404 526.984375 
L 372.703032 526.9375 
L 376.002021 527.203125 
L 382.6 526.921875 
L 389.197981 527.0625 
L 392.49697 526.921875 
L 395.795959 526.921875 
L 399.094951 527.125 
L 402.39394 527.015625 
L 408.99192 527.140625 
L 415.5899 526.984375 
L 425.48687 527.140625 
L 432.084848 526.84375 
L 435.383839 527 
L 441.981819 526.875 
L 445.280808 527.203125 
L 448.579798 527.046875 
L 451.878789 527.1875 
L 461.775758 527.03125 
L 468.373738 527.125 
L 471.672728 526.953125 
L 484.868687 527.0625 
L 491.466667 526.828125 
L 494.765657 527.15625 
L 501.363637 527.03125 
L 504.662627 526.984375 
L 511.260607 527.109375 
L 521.157577 526.984375 
L 524.456566 527.078125 
L 527.755556 526.890625 
L 531.054546 526.84375 
L 537.652526 527.21875 
L 540.951516 527.21875 
L 544.250505 527.03125 
L 547.549496 527.109375 
L 554.147476 526.875 
L 557.446465 527.109375 
L 564.044445 526.984375 
L 570.642425 526.984375 
L 580.539395 527.09375 
L 587.137374 526.953125 
L 590.436364 527.140625 
L 593.735354 527.078125 
L 597.034344 526.859375 
L 600.333334 526.921875 
L 606.931314 527.375 
L 610.230304 526.921875 
L 613.529293 526.734375 
L 616.828284 527.21875 
L 633.323234 527 
L 646.519193 527.015625 
L 653.117172 526.875 
L 663.014142 527.171875 
L 666.313131 527 
L 676.210102 526.96875 
L 679.509091 526.625 
L 679.509091 526.625 
" clip-path="url(#p8866880900)" style="fill: none; stroke: #ff7f0e; stroke-width: 1.5; stroke-linecap: square"/>
   </g>
   <g id="line2d_84">
    <path d="M 85.690909 527.1875 
L 95.587879 526.953125 
L 102.185859 527.21875 
L 108.783838 526.953125 
L 112.082829 526.796875 
L 115.381819 526.984375 
L 118.680808 527.296875 
L 125.278788 526.96875 
L 131.876768 527.015625 
L 135.175757 527.140625 
L 141.773738 526.859375 
L 148.371717 527.125 
L 154.969698 527.078125 
L 161.567677 527.125 
L 164.866667 526.953125 
L 174.763637 527.03125 
L 181.361617 527.015625 
L 184.660606 527.21875 
L 191.258586 526.90625 
L 197.856565 527.0625 
L 224.248485 527.078125 
L 227.547475 526.859375 
L 234.145455 527.25 
L 240.743434 526.9375 
L 280.331313 527.015625 
L 286.929294 526.9375 
L 293.527272 527.140625 
L 296.826263 526.9375 
L 300.125253 527.03125 
L 303.424243 526.984375 
L 310.022223 527.171875 
L 313.321213 526.875 
L 319.919191 527.078125 
L 323.218183 527.140625 
L 329.816162 526.875 
L 333.115151 527.078125 
L 346.311112 527.0625 
L 349.610102 526.9375 
L 362.806061 527.15625 
L 366.105051 527.203125 
L 369.40404 527.015625 
L 372.703032 526.953125 
L 376.002021 527.046875 
L 379.30101 527 
L 382.6 527.09375 
L 389.197981 526.875 
L 399.094951 527.109375 
L 408.99192 526.953125 
L 412.29091 527.125 
L 418.888889 527.015625 
L 428.785859 527.171875 
L 432.084848 526.9375 
L 435.383839 527.03125 
L 441.981819 526.953125 
L 451.878789 527.21875 
L 455.177778 527.015625 
L 461.775758 526.921875 
L 465.074748 527.140625 
L 468.373738 527.140625 
L 471.672728 526.953125 
L 474.971718 527.1875 
L 484.868687 527.140625 
L 488.167678 526.859375 
L 491.466667 526.71875 
L 494.765657 527.1875 
L 498.064647 527.203125 
L 501.363637 526.875 
L 504.662627 526.875 
L 511.260607 527.375 
L 517.858586 526.875 
L 524.456566 527.015625 
L 527.755556 527.09375 
L 534.353536 526.9375 
L 537.652526 527.171875 
L 540.951516 527.234375 
L 544.250505 527 
L 547.549496 527.1875 
L 550.848485 526.875 
L 554.147476 526.8125 
L 557.446465 527.1875 
L 570.642425 527.046875 
L 573.941415 527.078125 
L 580.539395 526.953125 
L 583.838385 527.078125 
L 587.137374 526.953125 
L 590.436364 527.140625 
L 593.735354 527.0625 
L 597.034344 526.8125 
L 600.333334 527.140625 
L 606.931314 527.1875 
L 613.529293 526.8125 
L 620.127274 527.109375 
L 623.426263 527.203125 
L 626.725253 527.140625 
L 633.323234 526.75 
L 639.921212 527.21875 
L 643.220203 527.015625 
L 646.519193 526.9375 
L 649.818183 527.203125 
L 659.715153 526.9375 
L 666.313131 527.140625 
L 669.612123 526.8125 
L 676.210102 527.203125 
L 679.509091 527.09375 
L 679.509091 527.09375 
" clip-path="url(#p8866880900)" style="fill: none; stroke: #2ca02c; stroke-width: 1.5; stroke-linecap: square"/>
   </g>
   <g id="patch_14">
    <path d="M 56 616.9375 
L 56 437.0625 
" style="fill: none; stroke: #000000; stroke-width: 0.8; stroke-linejoin: miter; stroke-linecap: square"/>
   </g>
   <g id="patch_15">
    <path d="M 709.2 616.9375 
L 709.2 437.0625 
" style="fill: none; stroke: #000000; stroke-width: 0.8; stroke-linejoin: miter; stroke-linecap: square"/>
   </g>
   <g id="patch_16">
    <path d="M 56 616.945 
L 709.2 616.945 
" style="fill: none; stroke: #000000; stroke-width: 0.8; stroke-linejoin: miter; stroke-linecap: square"/>
   </g>
   <g id="patch_17">
    <path d="M 56 437.07 
L 709.2 437.07 
" style="fill: none; stroke: #000000; stroke-width: 0.8; stroke-linejoin: miter; stroke-linecap: square"/>
   </g>
  </g>
  <g id="axes_4">
   <g id="patch_18">
    <path d="M 56 822.04 
L 709.2 822.04 
L 709.2 642.165 
L 56 642.165 
z
" style="fill: #ffffff"/>
   </g>
   <g id="matplotlib.axis_7">
    <g id="xtick_19">
     <g id="line2d_85">
      <path d="M 151.670707 822.04 
L 151.670707 642.165 
" clip-path="url(#p78f99a5b15)" style="fill: none; stroke-dasharray: 2.96,1.28; stroke-dashoffset: 0; stroke: #b0b0b0; stroke-opacity: 0.5; stroke-width: 0.8"/>
     </g>
     <g id="line2d_86">
      <g>
       <use xlink:href="#mfe5021b9f3" x="151.670707" y="822.04" style="stroke: #000000; stroke-width: 0.8"/>
      </g>
     </g>
     <g id="text_28">
      <!-- 07:39:00 -->
      <g transform="translate(129.214457 836.638438) scale(0.1 -0.1)">
       <defs>
        <path id="DejaVuSans-3a" d="M 750 794 
L 1409 794 
L 1409 0 
L 750 0 
L 750 794 
z
M 750 3309 
L 1409 3309 
L 1409 2516 
L 750 2516 
L 750 3309 
z
" transform="scale(0.015625)"/>
       </defs>
       <use xlink:href="#DejaVuSans-30"/>
       <use xlink:href="#DejaVuSans-37" transform="translate(63.623047 0)"/>
       <use xlink:href="#DejaVuSans-3a" transform="translate(127.246094 0)"/>
       <use xlink:href="#DejaVuSans-33" transform="translate(160.9375 0)"/>
       <use xlink:href="#DejaVuSans-39" transform="translate(224.560547 0)"/>
       <use xlink:href="#DejaVuSans-3a" transform="translate(288.183594 0)"/>
       <use xlink:href="#DejaVuSans-30" transform="translate(321.875 0)"/>
       <use xlink:href="#DejaVuSans-30" transform="translate(385.498047 0)"/>
      </g>
     </g>
    </g>
    <g id="xtick_20">
     <g id="line2d_87">
      <path d="M 250.640405 822.04 
L 250.640405 642.165 
" clip-path="url(#p78f99a5b15)" style="fill: none; stroke-dasharray: 2.96,1.28; stroke-dashoffset: 0; stroke: #b0b0b0; stroke-opacity: 0.5; stroke-width: 0.8"/>
     </g>
     <g id="line2d_88">
      <g>
       <use xlink:href="#mfe5021b9f3" x="250.640405" y="822.04" style="stroke: #000000; stroke-width: 0.8"/>
      </g>
     </g>
     <g id="text_29">
      <!-- 07:39:30 -->
      <g transform="translate(228.184155 836.638438) scale(0.1 -0.1)">
       <use xlink:href="#DejaVuSans-30"/>
       <use xlink:href="#DejaVuSans-37" transform="translate(63.623047 0)"/>
       <use xlink:href="#DejaVuSans-3a" transform="translate(127.246094 0)"/>
       <use xlink:href="#DejaVuSans-33" transform="translate(160.9375 0)"/>
       <use xlink:href="#DejaVuSans-39" transform="translate(224.560547 0)"/>
       <use xlink:href="#DejaVuSans-3a" transform="translate(288.183594 0)"/>
       <use xlink:href="#DejaVuSans-33" transform="translate(321.875 0)"/>
       <use xlink:href="#DejaVuSans-30" transform="translate(385.498047 0)"/>
      </g>
     </g>
    </g>
    <g id="xtick_21">
     <g id="line2d_89">
      <path d="M 349.610102 822.04 
L 349.610102 642.165 
" clip-path="url(#p78f99a5b15)" style="fill: none; stroke-dasharray: 2.96,1.28; stroke-dashoffset: 0; stroke: #b0b0b0; stroke-opacity: 0.5; stroke-width: 0.8"/>
     </g>
     <g id="line2d_90">
      <g>
       <use xlink:href="#mfe5021b9f3" x="349.610102" y="822.04" style="stroke: #000000; stroke-width: 0.8"/>
      </g>
     </g>
     <g id="text_30">
      <!-- 07:40:00 -->
      <g transform="translate(327.153852 836.638438) scale(0.1 -0.1)">
       <use xlink:href="#DejaVuSans-30"/>
       <use xlink:href="#DejaVuSans-37" transform="translate(63.623047 0)"/>
       <use xlink:href="#DejaVuSans-3a" transform="translate(127.246094 0)"/>
       <use xlink:href="#DejaVuSans-34" transform="translate(160.9375 0)"/>
       <use xlink:href="#DejaVuSans-30" transform="translate(224.560547 0)"/>
       <use xlink:href="#DejaVuSans-3a" transform="translate(288.183594 0)"/>
       <use xlink:href="#DejaVuSans-30" transform="translate(321.875 0)"/>
       <use xlink:href="#DejaVuSans-30" transform="translate(385.498047 0)"/>
      </g>
     </g>
    </g>
    <g id="xtick_22">
     <g id="line2d_91">
      <path d="M 448.579798 822.04 
L 448.579798 642.165 
" clip-path="url(#p78f99a5b15)" style="fill: none; stroke-dasharray: 2.96,1.28; stroke-dashoffset: 0; stroke: #b0b0b0; stroke-opacity: 0.5; stroke-width: 0.8"/>
     </g>
     <g id="line2d_92">
      <g>
       <use xlink:href="#mfe5021b9f3" x="448.579798" y="822.04" style="stroke: #000000; stroke-width: 0.8"/>
      </g>
     </g>
     <g id="text_31">
      <!-- 07:40:30 -->
      <g transform="translate(426.123548 836.638438) scale(0.1 -0.1)">
       <use xlink:href="#DejaVuSans-30"/>
       <use xlink:href="#DejaVuSans-37" transform="translate(63.623047 0)"/>
       <use xlink:href="#DejaVuSans-3a" transform="translate(127.246094 0)"/>
       <use xlink:href="#DejaVuSans-34" transform="translate(160.9375 0)"/>
       <use xlink:href="#DejaVuSans-30" transform="translate(224.560547 0)"/>
       <use xlink:href="#DejaVuSans-3a" transform="translate(288.183594 0)"/>
       <use xlink:href="#DejaVuSans-33" transform="translate(321.875 0)"/>
       <use xlink:href="#DejaVuSans-30" transform="translate(385.498047 0)"/>
      </g>
     </g>
    </g>
    <g id="xtick_23">
     <g id="line2d_93">
      <path d="M 547.549496 822.04 
L 547.549496 642.165 
" clip-path="url(#p78f99a5b15)" style="fill: none; stroke-dasharray: 2.96,1.28; stroke-dashoffset: 0; stroke: #b0b0b0; stroke-opacity: 0.5; stroke-width: 0.8"/>
     </g>
     <g id="line2d_94">
      <g>
       <use xlink:href="#mfe5021b9f3" x="547.549496" y="822.04" style="stroke: #000000; stroke-width: 0.8"/>
      </g>
     </g>
     <g id="text_32">
      <!-- 07:41:00 -->
      <g transform="translate(525.093246 836.638438) scale(0.1 -0.1)">
       <use xlink:href="#DejaVuSans-30"/>
       <use xlink:href="#DejaVuSans-37" transform="translate(63.623047 0)"/>
       <use xlink:href="#DejaVuSans-3a" transform="translate(127.246094 0)"/>
       <use xlink:href="#DejaVuSans-34" transform="translate(160.9375 0)"/>
       <use xlink:href="#DejaVuSans-31" transform="translate(224.560547 0)"/>
       <use xlink:href="#DejaVuSans-3a" transform="translate(288.183594 0)"/>
       <use xlink:href="#DejaVuSans-30" transform="translate(321.875 0)"/>
       <use xlink:href="#DejaVuSans-30" transform="translate(385.498047 0)"/>
      </g>
     </g>
    </g>
    <g id="xtick_24">
     <g id="line2d_95">
      <path d="M 646.519193 822.04 
L 646.519193 642.165 
" clip-path="url(#p78f99a5b15)" style="fill: none; stroke-dasharray: 2.96,1.28; stroke-dashoffset: 0; stroke: #b0b0b0; stroke-opacity: 0.5; stroke-width: 0.8"/>
     </g>
     <g id="line2d_96">
      <g>
       <use xlink:href="#mfe5021b9f3" x="646.519193" y="822.04" style="stroke: #000000; stroke-width: 0.8"/>
      </g>
     </g>
     <g id="text_33">
      <!-- 07:41:30 -->
      <g transform="translate(624.062943 836.638438) scale(0.1 -0.1)">
       <use xlink:href="#DejaVuSans-30"/>
       <use xlink:href="#DejaVuSans-37" transform="translate(63.623047 0)"/>
       <use xlink:href="#DejaVuSans-3a" transform="translate(127.246094 0)"/>
       <use xlink:href="#DejaVuSans-34" transform="translate(160.9375 0)"/>
       <use xlink:href="#DejaVuSans-31" transform="translate(224.560547 0)"/>
       <use xlink:href="#DejaVuSans-3a" transform="translate(288.183594 0)"/>
       <use xlink:href="#DejaVuSans-33" transform="translate(321.875 0)"/>
       <use xlink:href="#DejaVuSans-30" transform="translate(385.498047 0)"/>
      </g>
     </g>
    </g>
    <g id="text_34">
     <!-- Time [UTC] -->
     <g transform="translate(354.964844 850.316563) scale(0.1 -0.1)">
      <defs>
       <path id="DejaVuSans-55" d="M 556 4666 
L 1191 4666 
L 1191 1831 
Q 1191 1081 1462 751 
Q 1734 422 2344 422 
Q 2950 422 3222 751 
Q 3494 1081 3494 1831 
L 3494 4666 
L 4128 4666 
L 4128 1753 
Q 4128 841 3676 375 
Q 3225 -91 2344 -91 
Q 1459 -91 1007 375 
Q 556 841 556 1753 
L 556 4666 
z
" transform="scale(0.015625)"/>
      </defs>
      <use xlink:href="#DejaVuSans-54"/>
      <use xlink:href="#DejaVuSans-69" transform="translate(57.958984 0)"/>
      <use xlink:href="#DejaVuSans-6d" transform="translate(85.742188 0)"/>
      <use xlink:href="#DejaVuSans-65" transform="translate(183.154297 0)"/>
      <use xlink:href="#DejaVuSans-20" transform="translate(244.677734 0)"/>
      <use xlink:href="#DejaVuSans-5b" transform="translate(276.464844 0)"/>
      <use xlink:href="#DejaVuSans-55" transform="translate(315.478516 0)"/>
      <use xlink:href="#DejaVuSans-54" transform="translate(388.671875 0)"/>
      <use xlink:href="#DejaVuSans-43" transform="translate(443.880859 0)"/>
      <use xlink:href="#DejaVuSans-5d" transform="translate(513.705078 0)"/>
     </g>
    </g>
   </g>
   <g id="matplotlib.axis_8">
    <g id="ytick_19">
     <g id="line2d_97">
      <path d="M 56 794.23482 
L 709.2 794.23482 
" clip-path="url(#p78f99a5b15)" style="fill: none; stroke-dasharray: 2.96,1.28; stroke-dashoffset: 0; stroke: #b0b0b0; stroke-opacity: 0.5; stroke-width: 0.8"/>
     </g>
     <g id="line2d_98">
      <g>
       <use xlink:href="#ma2f1746051" x="56" y="794.23482" style="stroke: #000000; stroke-width: 0.8"/>
      </g>
     </g>
     <g id="text_35">
      <!-- 50 -->
      <g transform="translate(36.275 798.034039) scale(0.1 -0.1)">
       <use xlink:href="#DejaVuSans-35"/>
       <use xlink:href="#DejaVuSans-30" transform="translate(63.623047 0)"/>
      </g>
     </g>
    </g>
    <g id="ytick_20">
     <g id="line2d_99">
      <path d="M 56 759.634654 
L 709.2 759.634654 
" clip-path="url(#p78f99a5b15)" style="fill: none; stroke-dasharray: 2.96,1.28; stroke-dashoffset: 0; stroke: #b0b0b0; stroke-opacity: 0.5; stroke-width: 0.8"/>
     </g>
     <g id="line2d_100">
      <g>
       <use xlink:href="#ma2f1746051" x="56" y="759.634654" style="stroke: #000000; stroke-width: 0.8"/>
      </g>
     </g>
     <g id="text_36">
      <!-- 100 -->
      <g transform="translate(29.9125 763.433872) scale(0.1 -0.1)">
       <use xlink:href="#DejaVuSans-31"/>
       <use xlink:href="#DejaVuSans-30" transform="translate(63.623047 0)"/>
       <use xlink:href="#DejaVuSans-30" transform="translate(127.246094 0)"/>
      </g>
     </g>
    </g>
    <g id="ytick_21">
     <g id="line2d_101">
      <path d="M 56 725.034487 
L 709.2 725.034487 
" clip-path="url(#p78f99a5b15)" style="fill: none; stroke-dasharray: 2.96,1.28; stroke-dashoffset: 0; stroke: #b0b0b0; stroke-opacity: 0.5; stroke-width: 0.8"/>
     </g>
     <g id="line2d_102">
      <g>
       <use xlink:href="#ma2f1746051" x="56" y="725.034487" style="stroke: #000000; stroke-width: 0.8"/>
      </g>
     </g>
     <g id="text_37">
      <!-- 150 -->
      <g transform="translate(29.9125 728.833706) scale(0.1 -0.1)">
       <use xlink:href="#DejaVuSans-31"/>
       <use xlink:href="#DejaVuSans-35" transform="translate(63.623047 0)"/>
       <use xlink:href="#DejaVuSans-30" transform="translate(127.246094 0)"/>
      </g>
     </g>
    </g>
    <g id="ytick_22">
     <g id="line2d_103">
      <path d="M 56 690.43432 
L 709.2 690.43432 
" clip-path="url(#p78f99a5b15)" style="fill: none; stroke-dasharray: 2.96,1.28; stroke-dashoffset: 0; stroke: #b0b0b0; stroke-opacity: 0.5; stroke-width: 0.8"/>
     </g>
     <g id="line2d_104">
      <g>
       <use xlink:href="#ma2f1746051" x="56" y="690.43432" style="stroke: #000000; stroke-width: 0.8"/>
      </g>
     </g>
     <g id="text_38">
      <!-- 200 -->
      <g transform="translate(29.9125 694.233539) scale(0.1 -0.1)">
       <use xlink:href="#DejaVuSans-32"/>
       <use xlink:href="#DejaVuSans-30" transform="translate(63.623047 0)"/>
       <use xlink:href="#DejaVuSans-30" transform="translate(127.246094 0)"/>
      </g>
     </g>
    </g>
    <g id="ytick_23">
     <g id="line2d_105">
      <path d="M 56 655.834154 
L 709.2 655.834154 
" clip-path="url(#p78f99a5b15)" style="fill: none; stroke-dasharray: 2.96,1.28; stroke-dashoffset: 0; stroke: #b0b0b0; stroke-opacity: 0.5; stroke-width: 0.8"/>
     </g>
     <g id="line2d_106">
      <g>
       <use xlink:href="#ma2f1746051" x="56" y="655.834154" style="stroke: #000000; stroke-width: 0.8"/>
      </g>
     </g>
     <g id="text_39">
      <!-- 250 -->
      <g transform="translate(29.9125 659.633372) scale(0.1 -0.1)">
       <use xlink:href="#DejaVuSans-32"/>
       <use xlink:href="#DejaVuSans-35" transform="translate(63.623047 0)"/>
       <use xlink:href="#DejaVuSans-30" transform="translate(127.246094 0)"/>
      </g>
     </g>
    </g>
    <g id="text_40">
     <!-- Arg. of perigee [deg] -->
     <g transform="translate(23.832813 784.19) rotate(-90) scale(0.1 -0.1)">
      <defs>
       <path id="DejaVuSans-70" d="M 1159 525 
L 1159 -1331 
L 581 -1331 
L 581 3500 
L 1159 3500 
L 1159 2969 
Q 1341 3281 1617 3432 
Q 1894 3584 2278 3584 
Q 2916 3584 3314 3078 
Q 3713 2572 3713 1747 
Q 3713 922 3314 415 
Q 2916 -91 2278 -91 
Q 1894 -91 1617 61 
Q 1341 213 1159 525 
z
M 3116 1747 
Q 3116 2381 2855 2742 
Q 2594 3103 2138 3103 
Q 1681 3103 1420 2742 
Q 1159 2381 1159 1747 
Q 1159 1113 1420 752 
Q 1681 391 2138 391 
Q 2594 391 2855 752 
Q 3116 1113 3116 1747 
z
" transform="scale(0.015625)"/>
      </defs>
      <use xlink:href="#DejaVuSans-41"/>
      <use xlink:href="#DejaVuSans-72" transform="translate(68.408203 0)"/>
      <use xlink:href="#DejaVuSans-67" transform="translate(107.771484 0)"/>
      <use xlink:href="#DejaVuSans-2e" transform="translate(171.248047 0)"/>
      <use xlink:href="#DejaVuSans-20" transform="translate(203.035156 0)"/>
      <use xlink:href="#DejaVuSans-6f" transform="translate(234.822266 0)"/>
      <use xlink:href="#DejaVuSans-66" transform="translate(296.003906 0)"/>
      <use xlink:href="#DejaVuSans-20" transform="translate(331.208984 0)"/>
      <use xlink:href="#DejaVuSans-70" transform="translate(362.996094 0)"/>
      <use xlink:href="#DejaVuSans-65" transform="translate(426.472656 0)"/>
      <use xlink:href="#DejaVuSans-72" transform="translate(487.996094 0)"/>
      <use xlink:href="#DejaVuSans-69" transform="translate(529.109375 0)"/>
      <use xlink:href="#DejaVuSans-67" transform="translate(556.892578 0)"/>
      <use xlink:href="#DejaVuSans-65" transform="translate(620.369141 0)"/>
      <use xlink:href="#DejaVuSans-65" transform="translate(681.892578 0)"/>
      <use xlink:href="#DejaVuSans-20" transform="translate(743.416016 0)"/>
      <use xlink:href="#DejaVuSans-5b" transform="translate(775.203125 0)"/>
      <use xlink:href="#DejaVuSans-64" transform="translate(814.216797 0)"/>
      <use xlink:href="#DejaVuSans-65" transform="translate(877.693359 0)"/>
      <use xlink:href="#DejaVuSans-67" transform="translate(939.216797 0)"/>
      <use xlink:href="#DejaVuSans-5d" transform="translate(1002.693359 0)"/>
     </g>
    </g>
   </g>
   <g id="line2d_107">
    <path d="M 85.690909 708.294064 
L 88.9899 683.223436 
L 676.210102 675.446259 
L 679.509091 650.375632 
L 679.509091 650.375632 
" clip-path="url(#p78f99a5b15)" style="fill: none; stroke: #1f77b4; stroke-width: 1.5; stroke-linecap: square"/>
   </g>
   <g id="line2d_108">
    <path d="M 85.690909 708.259569 
L 88.9899 683.188941 
L 676.210102 675.411764 
L 679.509091 650.341136 
L 679.509091 650.341136 
" clip-path="url(#p78f99a5b15)" style="fill: none; stroke: #ff7f0e; stroke-width: 1.5; stroke-linecap: square"/>
   </g>
   <g id="line2d_109">
    <path d="M 85.690909 793.892537 
L 88.9899 807.766789 
L 676.210102 799.989612 
L 679.509091 813.863864 
L 679.509091 813.863864 
" clip-path="url(#p78f99a5b15)" style="fill: none; stroke: #2ca02c; stroke-width: 1.5; stroke-linecap: square"/>
   </g>
   <g id="patch_19">
    <path d="M 56 822.04 
L 56 642.165 
" style="fill: none; stroke: #000000; stroke-width: 0.8; stroke-linejoin: miter; stroke-linecap: square"/>
   </g>
   <g id="patch_20">
    <path d="M 709.2 822.04 
L 709.2 642.165 
" style="fill: none; stroke: #000000; stroke-width: 0.8; stroke-linejoin: miter; stroke-linecap: square"/>
   </g>
   <g id="patch_21">
    <path d="M 56 822.04 
L 709.2 822.04 
" style="fill: none; stroke: #000000; stroke-width: 0.8; stroke-linejoin: miter; stroke-linecap: square"/>
   </g>
   <g id="patch_22">
    <path d="M 56 642.165 
L 709.2 642.165 
" style="fill: none; stroke: #000000; stroke-width: 0.8; stroke-linejoin: miter; stroke-linecap: square"/>
   </g>
  </g>
 </g>
 <defs>
  <clipPath id="p69b7f58f34">
   <rect x="56" y="26.88" width="653.2" height="179.875"/>
  </clipPath>
  <clipPath id="pf66a31f76f">
   <rect x="56" y="231.975" width="653.2" height="179.875"/>
  </clipPath>
  <clipPath id="p8866880900">
   <rect x="56" y="437.07" width="653.2" height="179.875"/>
  </clipPath>
  <clipPath id="p78f99a5b15">
   <rect x="56" y="642.165" width="653.2" height="179.875"/>
  </clipPath>
 </defs>
</svg>
