<?xml version="1.0" encoding="utf-8" standalone="no"?>
<!DOCTYPE svg PUBLIC "-//W3C//DTD SVG 1.1//EN"
  "http://www.w3.org/Graphics/SVG/1.1/DTD/svg11.dtd">
<svg xmlns:xlink="http://www.w3.org/1999/xlink" width="576pt" height="504pt" viewBox="0 0 576 504" xmlns="http://www.w3.org/2000/svg" version="1.1">
 <metadata>
  <rdf:RDF xmlns:dc="http://purl.org/dc/elements/1.1/" xmlns:cc="http://creativecommons.org/ns#" xmlns:rdf="http://www.w3.org/1999/02/22-rdf-syntax-ns#">
   <cc:Work>
    <dc:type rdf:resource="http://purl.org/dc/dcmitype/StillImage"/>
    <dc:date>2025-11-01T08:07:47.956316</dc:date>
    <dc:format>image/svg+xml</dc:format>
    <dc:creator>
     <cc:Agent>
      <dc:title>Matplotlib v3.10.7, https://matplotlib.org/</dc:title>
     </cc:Agent>
    </dc:creator>
   </cc:Work>
  </rdf:RDF>
 </metadata>
 <defs>
  <style type="text/css">*{stroke-linejoin: round; stroke-linecap: butt}</style>
 </defs>
 <g id="figure_1">
  <g id="patch_1">
   <path d="M 0 504 
L 576 504 
L 576 0 
L 0 0 
z
" style="fill: #ffffff"/>
  </g>
  <g id="patch_2">
   <path d="M 54.84 493.2 
L 521.16 493.2 
L 521.16 26.88 
L 54.84 26.88 
z
" style="fill: #ffffff"/>
  </g>
  <g id="pane3d_1">
   <g id="patch_3">
    <path d="M 90.050376 378.220432 
L 244.044469 249.13953 
L 241.903804 62.981793 
L 80.540299 180.737529 
" style="fill: #f2f2f2; opacity: 0.5; stroke: #f2f2f2; stroke-linejoin: miter"/>
   </g>
  </g>
  <g id="pane3d_2">
   <g id="patch_4">
    <path d="M 244.044469 249.13953 
L 491.150044 320.963365 
L 499.96837 128.393638 
L 241.903804 62.981793 
" style="fill: #e6e6e6; opacity: 0.5; stroke: #e6e6e6; stroke-linejoin: miter"/>
   </g>
  </g>
  <g id="pane3d_3">
   <g id="patch_5">
    <path d="M 90.050376 378.220432 
L 351.994354 463.771335 
L 491.150044 320.963365 
L 244.044469 249.13953 
" style="fill: #ececec; opacity: 0.5; stroke: #ececec; stroke-linejoin: miter"/>
   </g>
  </g>
  <g id="grid3d_1">
   <g id="Line3DCollection_1">
    <path d="M 91.534607 378.705182 
L 245.450783 249.54829 
L 243.369407 63.353281 
" style="fill: none; stroke: #b0b0b0; stroke-width: 0.8"/>
    <path d="M 122.059343 388.674561 
L 274.357437 257.950313 
L 273.502549 70.991154 
" style="fill: none; stroke: #b0b0b0; stroke-width: 0.8"/>
    <path d="M 152.971666 398.770526 
L 303.600784 266.450199 
L 304.001805 78.721826 
" style="fill: none; stroke: #b0b0b0; stroke-width: 0.8"/>
    <path d="M 184.279005 408.995502 
L 333.18674 275.049669 
L 334.873888 86.546999 
" style="fill: none; stroke: #b0b0b0; stroke-width: 0.8"/>
    <path d="M 215.98898 419.35198 
L 363.121364 283.750482 
L 366.125677 94.468417 
" style="fill: none; stroke: #b0b0b0; stroke-width: 0.8"/>
    <path d="M 248.109408 429.842512 
L 393.410853 292.554441 
L 397.764221 102.487866 
" style="fill: none; stroke: #b0b0b0; stroke-width: 0.8"/>
    <path d="M 280.648312 440.469718 
L 424.061557 301.46339 
L 429.796744 110.607176 
" style="fill: none; stroke: #b0b0b0; stroke-width: 0.8"/>
    <path d="M 313.613923 451.236286 
L 455.079976 310.47922 
L 462.230649 118.828226 
" style="fill: none; stroke: #b0b0b0; stroke-width: 0.8"/>
    <path d="M 347.014689 462.144977 
L 486.472766 319.603865 
L 495.073531 127.152939 
" style="fill: none; stroke: #b0b0b0; stroke-width: 0.8"/>
   </g>
  </g>
  <g id="grid3d_2">
   <g id="Line3DCollection_2">
    <path d="M 86.753153 176.203671 
L 95.957882 373.268644 
L 357.355341 458.269643 
" style="fill: none; stroke: #b0b0b0; stroke-width: 0.8"/>
    <path d="M 112.484529 157.426085 
L 120.442989 352.744741 
L 379.555881 435.486428 
" style="fill: none; stroke: #b0b0b0; stroke-width: 0.8"/>
    <path d="M 137.523947 139.153458 
L 144.298103 332.748912 
L 401.155212 413.3202 
" style="fill: none; stroke: #b0b0b0; stroke-width: 0.8"/>
    <path d="M 161.89895 121.365692 
L 167.54723 313.261033 
L 422.177432 391.746232 
" style="fill: none; stroke: #b0b0b0; stroke-width: 0.8"/>
    <path d="M 185.635635 104.04374 
L 190.21317 294.261992 
L 442.645364 370.741099 
" style="fill: none; stroke: #b0b0b0; stroke-width: 0.8"/>
    <path d="M 208.758753 87.169541 
L 212.317596 275.733624 
L 462.580645 350.282596 
" style="fill: none; stroke: #b0b0b0; stroke-width: 0.8"/>
    <path d="M 231.291791 70.725957 
L 233.881117 257.658653 
L 482.003801 330.34966 
" style="fill: none; stroke: #b0b0b0; stroke-width: 0.8"/>
   </g>
  </g>
  <g id="grid3d_3">
   <g id="Line3DCollection_3">
    <path d="M 491.262968 318.497385 
L 244.016999 246.750686 
L 89.928796 375.695742 
" style="fill: none; stroke: #b0b0b0; stroke-width: 0.8"/>
    <path d="M 492.621081 288.839662 
L 243.686744 218.03079 
L 88.466171 345.323388 
" style="fill: none; stroke: #b0b0b0; stroke-width: 0.8"/>
    <path d="M 493.998054 258.7701 
L 243.352121 188.93115 
L 86.98246 314.513171 
" style="fill: none; stroke: #b0b0b0; stroke-width: 0.8"/>
    <path d="M 495.394281 228.28006 
L 243.013044 159.444185 
L 85.477204 283.255554 
" style="fill: none; stroke: #b0b0b0; stroke-width: 0.8"/>
    <path d="M 496.81017 197.360661 
L 242.669424 129.562111 
L 83.94993 251.540722 
" style="fill: none; stroke: #b0b0b0; stroke-width: 0.8"/>
    <path d="M 498.246139 166.002769 
L 242.321169 99.276932 
L 82.400152 219.358568 
" style="fill: none; stroke: #b0b0b0; stroke-width: 0.8"/>
    <path d="M 499.702618 134.196989 
L 241.968184 68.580435 
L 80.827367 186.698686 
" style="fill: none; stroke: #b0b0b0; stroke-width: 0.8"/>
   </g>
  </g>
  <g id="axis3d_1">
   <g id="line2d_1">
    <path d="M 90.050376 378.220432 
L 351.994354 463.771335 
" style="fill: none; stroke: #000000; stroke-width: 0.8; stroke-linecap: square"/>
   </g>
   <g id="xtick_1">
    <g id="line2d_2">
     <path d="M 92.874578 377.580762 
L 88.848933 380.958833 
" style="fill: none; stroke: #000000; stroke-width: 0.8; stroke-linecap: square"/>
    </g>
    <g id="text_1">
     <!-- 3000 -->
     <g transform="translate(71.28451 401.932801) scale(0.1 -0.1)">
      <defs>
       <path id="DejaVuSans-33" d="M 2597 2516 
Q 3050 2419 3304 2112 
Q 3559 1806 3559 1356 
Q 3559 666 3084 287 
Q 2609 -91 1734 -91 
Q 1441 -91 1130 -33 
Q 819 25 488 141 
L 488 750 
Q 750 597 1062 519 
Q 1375 441 1716 441 
Q 2309 441 2620 675 
Q 2931 909 2931 1356 
Q 2931 1769 2642 2001 
Q 2353 2234 1838 2234 
L 1294 2234 
L 1294 2753 
L 1863 2753 
Q 2328 2753 2575 2939 
Q 2822 3125 2822 3475 
Q 2822 3834 2567 4026 
Q 2313 4219 1838 4219 
Q 1578 4219 1281 4162 
Q 984 4106 628 3988 
L 628 4550 
Q 988 4650 1302 4700 
Q 1616 4750 1894 4750 
Q 2613 4750 3031 4423 
Q 3450 4097 3450 3541 
Q 3450 3153 3228 2886 
Q 3006 2619 2597 2516 
z
" transform="scale(0.015625)"/>
       <path id="DejaVuSans-30" d="M 2034 4250 
Q 1547 4250 1301 3770 
Q 1056 3291 1056 2328 
Q 1056 1369 1301 889 
Q 1547 409 2034 409 
Q 2525 409 2770 889 
Q 3016 1369 3016 2328 
Q 3016 3291 2770 3770 
Q 2525 4250 2034 4250 
z
M 2034 4750 
Q 2819 4750 3233 4129 
Q 3647 3509 3647 2328 
Q 3647 1150 3233 529 
Q 2819 -91 2034 -91 
Q 1250 -91 836 529 
Q 422 1150 422 2328 
Q 422 3509 836 4129 
Q 1250 4750 2034 4750 
z
" transform="scale(0.015625)"/>
      </defs>
      <use xlink:href="#DejaVuSans-33"/>
      <use xlink:href="#DejaVuSans-30" transform="translate(63.623047 0)"/>
      <use xlink:href="#DejaVuSans-30" transform="translate(127.246094 0)"/>
      <use xlink:href="#DejaVuSans-30" transform="translate(190.869141 0)"/>
     </g>
    </g>
   </g>
   <g id="xtick_2">
    <g id="line2d_3">
     <path d="M 123.385905 387.535914 
L 119.400508 390.956757 
" style="fill: none; stroke: #000000; stroke-width: 0.8; stroke-linecap: square"/>
    </g>
    <g id="text_2">
     <!-- 3500 -->
     <g transform="translate(101.826537 412.022174) scale(0.1 -0.1)">
      <defs>
       <path id="DejaVuSans-35" d="M 691 4666 
L 3169 4666 
L 3169 4134 
L 1269 4134 
L 1269 2991 
Q 1406 3038 1543 3061 
Q 1681 3084 1819 3084 
Q 2600 3084 3056 2656 
Q 3513 2228 3513 1497 
Q 3513 744 3044 326 
Q 2575 -91 1722 -91 
Q 1428 -91 1123 -41 
Q 819 9 494 109 
L 494 744 
Q 775 591 1075 516 
Q 1375 441 1709 441 
Q 2250 441 2565 725 
Q 2881 1009 2881 1497 
Q 2881 1984 2565 2268 
Q 2250 2553 1709 2553 
Q 1456 2553 1204 2497 
Q 953 2441 691 2322 
L 691 4666 
z
" transform="scale(0.015625)"/>
      </defs>
      <use xlink:href="#DejaVuSans-33"/>
      <use xlink:href="#DejaVuSans-35" transform="translate(63.623047 0)"/>
      <use xlink:href="#DejaVuSans-30" transform="translate(127.246094 0)"/>
      <use xlink:href="#DejaVuSans-30" transform="translate(190.869141 0)"/>
     </g>
    </g>
   </g>
   <g id="xtick_3">
    <g id="line2d_4">
     <path d="M 154.284369 397.61738 
L 150.340572 401.081813 
" style="fill: none; stroke: #000000; stroke-width: 0.8; stroke-linecap: square"/>
    </g>
    <g id="text_3">
     <!-- 4000 -->
     <g transform="translate(132.757199 422.23993) scale(0.1 -0.1)">
      <defs>
       <path id="DejaVuSans-34" d="M 2419 4116 
L 825 1625 
L 2419 1625 
L 2419 4116 
z
M 2253 4666 
L 3047 4666 
L 3047 1625 
L 3713 1625 
L 3713 1100 
L 3047 1100 
L 3047 0 
L 2419 0 
L 2419 1100 
L 313 1100 
L 313 1709 
L 2253 4666 
z
" transform="scale(0.015625)"/>
      </defs>
      <use xlink:href="#DejaVuSans-34"/>
      <use xlink:href="#DejaVuSans-30" transform="translate(63.623047 0)"/>
      <use xlink:href="#DejaVuSans-30" transform="translate(127.246094 0)"/>
      <use xlink:href="#DejaVuSans-30" transform="translate(190.869141 0)"/>
     </g>
    </g>
   </g>
   <g id="xtick_4">
    <g id="line2d_5">
     <path d="M 185.577386 407.827579 
L 181.676581 411.336441 
" style="fill: none; stroke: #000000; stroke-width: 0.8; stroke-linecap: square"/>
    </g>
    <g id="text_4">
     <!-- 4500 -->
     <g transform="translate(164.083962 432.588535) scale(0.1 -0.1)">
      <use xlink:href="#DejaVuSans-34"/>
      <use xlink:href="#DejaVuSans-35" transform="translate(63.623047 0)"/>
      <use xlink:href="#DejaVuSans-30" transform="translate(127.246094 0)"/>
      <use xlink:href="#DejaVuSans-30" transform="translate(190.869141 0)"/>
     </g>
    </g>
   </g>
   <g id="xtick_5">
    <g id="line2d_6">
     <path d="M 217.272561 418.168994 
L 213.416184 421.723144 
" style="fill: none; stroke: #000000; stroke-width: 0.8; stroke-linecap: square"/>
    </g>
    <g id="text_5">
     <!-- 5000 -->
     <g transform="translate(195.814483 443.07052) scale(0.1 -0.1)">
      <use xlink:href="#DejaVuSans-35"/>
      <use xlink:href="#DejaVuSans-30" transform="translate(63.623047 0)"/>
      <use xlink:href="#DejaVuSans-30" transform="translate(127.246094 0)"/>
      <use xlink:href="#DejaVuSans-30" transform="translate(190.869141 0)"/>
     </g>
    </g>
   </g>
   <g id="xtick_6">
    <g id="line2d_7">
     <path d="M 249.377697 428.64417 
L 245.567229 432.24449 
" style="fill: none; stroke: #000000; stroke-width: 0.8; stroke-linecap: square"/>
    </g>
    <g id="text_6">
     <!-- 5500 -->
     <g transform="translate(227.95662 453.688479) scale(0.1 -0.1)">
      <use xlink:href="#DejaVuSans-35"/>
      <use xlink:href="#DejaVuSans-35" transform="translate(63.623047 0)"/>
      <use xlink:href="#DejaVuSans-30" transform="translate(127.246094 0)"/>
      <use xlink:href="#DejaVuSans-30" transform="translate(190.869141 0)"/>
     </g>
    </g>
   </g>
   <g id="xtick_7">
    <g id="line2d_8">
     <path d="M 281.900799 439.255718 
L 278.137769 442.903115 
" style="fill: none; stroke: #000000; stroke-width: 0.8; stroke-linecap: square"/>
    </g>
    <g id="text_7">
     <!-- 6000 -->
     <g transform="translate(260.518434 464.445076) scale(0.1 -0.1)">
      <defs>
       <path id="DejaVuSans-36" d="M 2113 2584 
Q 1688 2584 1439 2293 
Q 1191 2003 1191 1497 
Q 1191 994 1439 701 
Q 1688 409 2113 409 
Q 2538 409 2786 701 
Q 3034 994 3034 1497 
Q 3034 2003 2786 2293 
Q 2538 2584 2113 2584 
z
M 3366 4563 
L 3366 3988 
Q 3128 4100 2886 4159 
Q 2644 4219 2406 4219 
Q 1781 4219 1451 3797 
Q 1122 3375 1075 2522 
Q 1259 2794 1537 2939 
Q 1816 3084 2150 3084 
Q 2853 3084 3261 2657 
Q 3669 2231 3669 1497 
Q 3669 778 3244 343 
Q 2819 -91 2113 -91 
Q 1303 -91 875 529 
Q 447 1150 447 2328 
Q 447 3434 972 4092 
Q 1497 4750 2381 4750 
Q 2619 4750 2861 4703 
Q 3103 4656 3366 4563 
z
" transform="scale(0.015625)"/>
      </defs>
      <use xlink:href="#DejaVuSans-36"/>
      <use xlink:href="#DejaVuSans-30" transform="translate(63.623047 0)"/>
      <use xlink:href="#DejaVuSans-30" transform="translate(127.246094 0)"/>
      <use xlink:href="#DejaVuSans-30" transform="translate(190.869141 0)"/>
     </g>
    </g>
   </g>
   <g id="xtick_8">
    <g id="line2d_9">
     <path d="M 314.850084 450.00632 
L 311.136068 453.701723 
" style="fill: none; stroke: #000000; stroke-width: 0.8; stroke-linecap: square"/>
    </g>
    <g id="text_8">
     <!-- 6500 -->
     <g transform="translate(293.508198 475.343044) scale(0.1 -0.1)">
      <use xlink:href="#DejaVuSans-36"/>
      <use xlink:href="#DejaVuSans-35" transform="translate(63.623047 0)"/>
      <use xlink:href="#DejaVuSans-30" transform="translate(127.246094 0)"/>
      <use xlink:href="#DejaVuSans-30" transform="translate(190.869141 0)"/>
     </g>
    </g>
   </g>
   <g id="xtick_9">
    <g id="line2d_10">
     <path d="M 348.233983 460.898727 
L 344.570608 464.64309 
" style="fill: none; stroke: #000000; stroke-width: 0.8; stroke-linecap: square"/>
    </g>
    <g id="text_9">
     <!-- 7000 -->
     <g transform="translate(326.934405 486.385188) scale(0.1 -0.1)">
      <defs>
       <path id="DejaVuSans-37" d="M 525 4666 
L 3525 4666 
L 3525 4397 
L 1831 0 
L 1172 0 
L 2766 4134 
L 525 4134 
L 525 4666 
z
" transform="scale(0.015625)"/>
      </defs>
      <use xlink:href="#DejaVuSans-37"/>
      <use xlink:href="#DejaVuSans-30" transform="translate(63.623047 0)"/>
      <use xlink:href="#DejaVuSans-30" transform="translate(127.246094 0)"/>
      <use xlink:href="#DejaVuSans-30" transform="translate(190.869141 0)"/>
     </g>
    </g>
   </g>
   <g id="text_10">
    <!-- X [km] -->
    <g transform="translate(184.622332 452.459048) rotate(-341.912962) scale(0.1 -0.1)">
     <defs>
      <path id="DejaVuSans-58" d="M 403 4666 
L 1081 4666 
L 2241 2931 
L 3406 4666 
L 4084 4666 
L 2584 2425 
L 4184 0 
L 3506 0 
L 2194 1984 
L 872 0 
L 191 0 
L 1856 2491 
L 403 4666 
z
" transform="scale(0.015625)"/>
      <path id="DejaVuSans-20" transform="scale(0.015625)"/>
      <path id="DejaVuSans-5b" d="M 550 4863 
L 1875 4863 
L 1875 4416 
L 1125 4416 
L 1125 -397 
L 1875 -397 
L 1875 -844 
L 550 -844 
L 550 4863 
z
" transform="scale(0.015625)"/>
      <path id="DejaVuSans-6b" d="M 581 4863 
L 1159 4863 
L 1159 1991 
L 2875 3500 
L 3609 3500 
L 1753 1863 
L 3688 0 
L 2938 0 
L 1159 1709 
L 1159 0 
L 581 0 
L 581 4863 
z
" transform="scale(0.015625)"/>
      <path id="DejaVuSans-6d" d="M 3328 2828 
Q 3544 3216 3844 3400 
Q 4144 3584 4550 3584 
Q 5097 3584 5394 3201 
Q 5691 2819 5691 2113 
L 5691 0 
L 5113 0 
L 5113 2094 
Q 5113 2597 4934 2840 
Q 4756 3084 4391 3084 
Q 3944 3084 3684 2787 
Q 3425 2491 3425 1978 
L 3425 0 
L 2847 0 
L 2847 2094 
Q 2847 2600 2669 2842 
Q 2491 3084 2119 3084 
Q 1678 3084 1418 2786 
Q 1159 2488 1159 1978 
L 1159 0 
L 581 0 
L 581 3500 
L 1159 3500 
L 1159 2956 
Q 1356 3278 1631 3431 
Q 1906 3584 2284 3584 
Q 2666 3584 2933 3390 
Q 3200 3197 3328 2828 
z
" transform="scale(0.015625)"/>
      <path id="DejaVuSans-5d" d="M 1947 4863 
L 1947 -844 
L 622 -844 
L 622 -397 
L 1369 -397 
L 1369 4416 
L 622 4416 
L 622 4863 
L 1947 4863 
z
" transform="scale(0.015625)"/>
     </defs>
     <use xlink:href="#DejaVuSans-58"/>
     <use xlink:href="#DejaVuSans-20" transform="translate(68.505859 0)"/>
     <use xlink:href="#DejaVuSans-5b" transform="translate(100.292969 0)"/>
     <use xlink:href="#DejaVuSans-6b" transform="translate(139.306641 0)"/>
     <use xlink:href="#DejaVuSans-6d" transform="translate(197.216797 0)"/>
     <use xlink:href="#DejaVuSans-5d" transform="translate(294.628906 0)"/>
    </g>
   </g>
  </g>
  <g id="axis3d_2">
   <g id="line2d_11">
    <path d="M 491.150044 320.963365 
L 351.994354 463.771335 
" style="fill: none; stroke: #000000; stroke-width: 0.8; stroke-linecap: square"/>
   </g>
   <g id="xtick_10">
    <g id="line2d_12">
     <path d="M 355.152242 457.553241 
L 361.767253 459.704305 
" style="fill: none; stroke: #000000; stroke-width: 0.8; stroke-linecap: square"/>
    </g>
    <g id="text_11">
     <!-- −2000 -->
     <g transform="translate(353.350438 479.324938) scale(0.1 -0.1)">
      <defs>
       <path id="DejaVuSans-2212" d="M 678 2272 
L 4684 2272 
L 4684 1741 
L 678 1741 
L 678 2272 
z
" transform="scale(0.015625)"/>
       <path id="DejaVuSans-32" d="M 1228 531 
L 3431 531 
L 3431 0 
L 469 0 
L 469 531 
Q 828 903 1448 1529 
Q 2069 2156 2228 2338 
Q 2531 2678 2651 2914 
Q 2772 3150 2772 3378 
Q 2772 3750 2511 3984 
Q 2250 4219 1831 4219 
Q 1534 4219 1204 4116 
Q 875 4013 500 3803 
L 500 4441 
Q 881 4594 1212 4672 
Q 1544 4750 1819 4750 
Q 2544 4750 2975 4387 
Q 3406 4025 3406 3419 
Q 3406 3131 3298 2873 
Q 3191 2616 2906 2266 
Q 2828 2175 2409 1742 
Q 1991 1309 1228 531 
z
" transform="scale(0.015625)"/>
      </defs>
      <use xlink:href="#DejaVuSans-2212"/>
      <use xlink:href="#DejaVuSans-32" transform="translate(83.789062 0)"/>
      <use xlink:href="#DejaVuSans-30" transform="translate(147.412109 0)"/>
      <use xlink:href="#DejaVuSans-30" transform="translate(211.035156 0)"/>
      <use xlink:href="#DejaVuSans-30" transform="translate(274.658203 0)"/>
     </g>
    </g>
   </g>
   <g id="xtick_11">
    <g id="line2d_13">
     <path d="M 377.373558 434.789554 
L 383.926107 436.881958 
" style="fill: none; stroke: #000000; stroke-width: 0.8; stroke-linecap: square"/>
    </g>
    <g id="text_12">
     <!-- −1000 -->
     <g transform="translate(375.381213 456.349252) scale(0.1 -0.1)">
      <defs>
       <path id="DejaVuSans-31" d="M 794 531 
L 1825 531 
L 1825 4091 
L 703 3866 
L 703 4441 
L 1819 4666 
L 2450 4666 
L 2450 531 
L 3481 531 
L 3481 0 
L 794 0 
L 794 531 
z
" transform="scale(0.015625)"/>
      </defs>
      <use xlink:href="#DejaVuSans-2212"/>
      <use xlink:href="#DejaVuSans-31" transform="translate(83.789062 0)"/>
      <use xlink:href="#DejaVuSans-30" transform="translate(147.412109 0)"/>
      <use xlink:href="#DejaVuSans-30" transform="translate(211.035156 0)"/>
      <use xlink:href="#DejaVuSans-30" transform="translate(274.658203 0)"/>
     </g>
    </g>
   </g>
   <g id="xtick_12">
    <g id="line2d_14">
     <path d="M 398.993357 412.642067 
L 405.484378 414.678179 
" style="fill: none; stroke: #000000; stroke-width: 0.8; stroke-linecap: square"/>
    </g>
    <g id="text_13">
     <!-- 0 -->
     <g transform="translate(410.548771 433.995973) scale(0.1 -0.1)">
      <use xlink:href="#DejaVuSans-30"/>
     </g>
    </g>
   </g>
   <g id="xtick_13">
    <g id="line2d_15">
     <path d="M 420.035736 391.086092 
L 426.466155 393.068154 
" style="fill: none; stroke: #000000; stroke-width: 0.8; stroke-linecap: square"/>
    </g>
    <g id="text_14">
     <!-- 1000 -->
     <g transform="translate(421.866104 412.240147) scale(0.1 -0.1)">
      <use xlink:href="#DejaVuSans-31"/>
      <use xlink:href="#DejaVuSans-30" transform="translate(63.623047 0)"/>
      <use xlink:href="#DejaVuSans-30" transform="translate(127.246094 0)"/>
      <use xlink:href="#DejaVuSans-30" transform="translate(190.869141 0)"/>
     </g>
    </g>
   </g>
   <g id="xtick_14">
    <g id="line2d_16">
     <path d="M 440.523522 370.098247 
L 446.894258 372.028382 
" style="fill: none; stroke: #000000; stroke-width: 0.8; stroke-linecap: square"/>
    </g>
    <g id="text_15">
     <!-- 2000 -->
     <g transform="translate(442.176969 391.058138) scale(0.1 -0.1)">
      <use xlink:href="#DejaVuSans-32"/>
      <use xlink:href="#DejaVuSans-30" transform="translate(63.623047 0)"/>
      <use xlink:href="#DejaVuSans-30" transform="translate(127.246094 0)"/>
      <use xlink:href="#DejaVuSans-30" transform="translate(190.869141 0)"/>
     </g>
    </g>
   </g>
   <g id="xtick_15">
    <g id="line2d_17">
     <path d="M 460.478356 349.656361 
L 466.790318 351.536584 
" style="fill: none; stroke: #000000; stroke-width: 0.8; stroke-linecap: square"/>
    </g>
    <g id="text_16">
     <!-- 3000 -->
     <g transform="translate(461.959102 370.427538) scale(0.1 -0.1)">
      <use xlink:href="#DejaVuSans-33"/>
      <use xlink:href="#DejaVuSans-30" transform="translate(63.623047 0)"/>
      <use xlink:href="#DejaVuSans-30" transform="translate(127.246094 0)"/>
      <use xlink:href="#DejaVuSans-30" transform="translate(190.869141 0)"/>
     </g>
    </g>
   </g>
   <g id="xtick_16">
    <g id="line2d_18">
     <path d="M 479.920767 329.739406 
L 486.174852 331.571628 
" style="fill: none; stroke: #000000; stroke-width: 0.8; stroke-linecap: square"/>
    </g>
    <g id="text_17">
     <!-- 4000 -->
     <g transform="translate(481.232883 350.327094) scale(0.1 -0.1)">
      <use xlink:href="#DejaVuSans-34"/>
      <use xlink:href="#DejaVuSans-30" transform="translate(63.623047 0)"/>
      <use xlink:href="#DejaVuSans-30" transform="translate(127.246094 0)"/>
      <use xlink:href="#DejaVuSans-30" transform="translate(190.869141 0)"/>
     </g>
    </g>
   </g>
   <g id="text_18">
    <!-- Y [km] -->
    <g transform="translate(442.237467 430.773023) rotate(-45.742112) scale(0.1 -0.1)">
     <defs>
      <path id="DejaVuSans-59" d="M -13 4666 
L 666 4666 
L 1959 2747 
L 3244 4666 
L 3922 4666 
L 2272 2222 
L 2272 0 
L 1638 0 
L 1638 2222 
L -13 4666 
z
" transform="scale(0.015625)"/>
     </defs>
     <use xlink:href="#DejaVuSans-59"/>
     <use xlink:href="#DejaVuSans-20" transform="translate(61.083984 0)"/>
     <use xlink:href="#DejaVuSans-5b" transform="translate(92.871094 0)"/>
     <use xlink:href="#DejaVuSans-6b" transform="translate(131.884766 0)"/>
     <use xlink:href="#DejaVuSans-6d" transform="translate(189.794922 0)"/>
     <use xlink:href="#DejaVuSans-5d" transform="translate(287.207031 0)"/>
    </g>
   </g>
  </g>
  <g id="axis3d_3">
   <g id="line2d_19">
    <path d="M 491.150044 320.963365 
L 499.96837 128.393638 
" style="fill: none; stroke: #000000; stroke-width: 0.8; stroke-linecap: square"/>
   </g>
   <g id="xtick_17">
    <g id="line2d_20">
     <path d="M 489.187838 317.895216 
L 495.418167 319.703155 
" style="fill: none; stroke: #000000; stroke-width: 0.8; stroke-linecap: square"/>
    </g>
    <g id="text_19">
     <!-- 2500 -->
     <g transform="translate(496.820398 323.490201) scale(0.1 -0.1)">
      <use xlink:href="#DejaVuSans-32"/>
      <use xlink:href="#DejaVuSans-35" transform="translate(63.623047 0)"/>
      <use xlink:href="#DejaVuSans-30" transform="translate(127.246094 0)"/>
      <use xlink:href="#DejaVuSans-30" transform="translate(190.869141 0)"/>
     </g>
    </g>
   </g>
   <g id="xtick_18">
    <g id="line2d_21">
     <path d="M 490.531106 288.245173 
L 496.806039 290.030065 
" style="fill: none; stroke: #000000; stroke-width: 0.8; stroke-linecap: square"/>
    </g>
    <g id="text_20">
     <!-- 3000 -->
     <g transform="translate(498.302013 293.86573) scale(0.1 -0.1)">
      <use xlink:href="#DejaVuSans-33"/>
      <use xlink:href="#DejaVuSans-30" transform="translate(63.623047 0)"/>
      <use xlink:href="#DejaVuSans-30" transform="translate(127.246094 0)"/>
      <use xlink:href="#DejaVuSans-30" transform="translate(190.869141 0)"/>
     </g>
    </g>
   </g>
   <g id="xtick_19">
    <g id="line2d_22">
     <path d="M 491.89302 258.183562 
L 498.2132 259.944591 
" style="fill: none; stroke: #000000; stroke-width: 0.8; stroke-linecap: square"/>
    </g>
    <g id="text_21">
     <!-- 3500 -->
     <g transform="translate(499.804167 263.830598) scale(0.1 -0.1)">
      <use xlink:href="#DejaVuSans-33"/>
      <use xlink:href="#DejaVuSans-35" transform="translate(63.623047 0)"/>
      <use xlink:href="#DejaVuSans-30" transform="translate(127.246094 0)"/>
      <use xlink:href="#DejaVuSans-30" transform="translate(190.869141 0)"/>
     </g>
    </g>
   </g>
   <g id="xtick_20">
    <g id="line2d_23">
     <path d="M 493.273971 227.701755 
L 499.640053 229.438076 
" style="fill: none; stroke: #000000; stroke-width: 0.8; stroke-linecap: square"/>
    </g>
    <g id="text_22">
     <!-- 4000 -->
     <g transform="translate(501.327289 233.376204) scale(0.1 -0.1)">
      <use xlink:href="#DejaVuSans-34"/>
      <use xlink:href="#DejaVuSans-30" transform="translate(63.623047 0)"/>
      <use xlink:href="#DejaVuSans-30" transform="translate(127.246094 0)"/>
      <use xlink:href="#DejaVuSans-30" transform="translate(190.869141 0)"/>
     </g>
    </g>
   </g>
   <g id="xtick_21">
    <g id="line2d_24">
     <path d="M 494.67436 196.790879 
L 501.087016 198.501619 
" style="fill: none; stroke: #000000; stroke-width: 0.8; stroke-linecap: square"/>
    </g>
    <g id="text_23">
     <!-- 4500 -->
     <g transform="translate(502.871822 202.493708) scale(0.1 -0.1)">
      <use xlink:href="#DejaVuSans-34"/>
      <use xlink:href="#DejaVuSans-35" transform="translate(63.623047 0)"/>
      <use xlink:href="#DejaVuSans-30" transform="translate(127.246094 0)"/>
      <use xlink:href="#DejaVuSans-30" transform="translate(190.869141 0)"/>
     </g>
    </g>
   </g>
   <g id="xtick_22">
    <g id="line2d_25">
     <path d="M 496.094602 165.441811 
L 502.554516 167.126067 
" style="fill: none; stroke: #000000; stroke-width: 0.8; stroke-linecap: square"/>
    </g>
    <g id="text_24">
     <!-- 5000 -->
     <g transform="translate(504.43822 171.17402) scale(0.1 -0.1)">
      <use xlink:href="#DejaVuSans-35"/>
      <use xlink:href="#DejaVuSans-30" transform="translate(63.623047 0)"/>
      <use xlink:href="#DejaVuSans-30" transform="translate(127.246094 0)"/>
      <use xlink:href="#DejaVuSans-30" transform="translate(190.869141 0)"/>
     </g>
    </g>
   </g>
   <g id="xtick_23">
    <g id="line2d_26">
     <path d="M 497.53512 133.645167 
L 504.042993 135.302005 
" style="fill: none; stroke: #000000; stroke-width: 0.8; stroke-linecap: square"/>
    </g>
    <g id="text_25">
     <!-- 5500 -->
     <g transform="translate(506.026951 139.407789) scale(0.1 -0.1)">
      <use xlink:href="#DejaVuSans-35"/>
      <use xlink:href="#DejaVuSans-35" transform="translate(63.623047 0)"/>
      <use xlink:href="#DejaVuSans-30" transform="translate(127.246094 0)"/>
      <use xlink:href="#DejaVuSans-30" transform="translate(190.869141 0)"/>
     </g>
    </g>
   </g>
   <g id="text_26">
    <!-- Z [km] -->
    <g transform="translate(537.947185 238.153143) rotate(-87.378092) scale(0.1 -0.1)">
     <defs>
      <path id="DejaVuSans-5a" d="M 359 4666 
L 4025 4666 
L 4025 4184 
L 1075 531 
L 4097 531 
L 4097 0 
L 288 0 
L 288 481 
L 3238 4134 
L 359 4134 
L 359 4666 
z
" transform="scale(0.015625)"/>
     </defs>
     <use xlink:href="#DejaVuSans-5a"/>
     <use xlink:href="#DejaVuSans-20" transform="translate(68.505859 0)"/>
     <use xlink:href="#DejaVuSans-5b" transform="translate(100.292969 0)"/>
     <use xlink:href="#DejaVuSans-6b" transform="translate(139.306641 0)"/>
     <use xlink:href="#DejaVuSans-6d" transform="translate(197.216797 0)"/>
     <use xlink:href="#DejaVuSans-5d" transform="translate(294.628906 0)"/>
    </g>
   </g>
  </g>
  <g id="axes_1">
   <g id="line2d_27">
    <path d="M 287.297801 355.724705 
L 281.089164 344.618758 
L 274.648343 333.54325 
L 267.980638 322.508552 
L 261.091652 311.525034 
L 253.987282 300.603051 
L 246.673715 289.752924 
L 239.157413 278.98492 
L 232.800156 270.158803 
L 232.800156 270.158803 
" clip-path="url(#p211f51d65d)" style="fill: none; stroke: #1b9e77; stroke-width: 1.5; stroke-linecap: square"/>
   </g>
   <g id="line2d_28">
    <path d="M 287.088584 355.343085 
L 280.871892 344.238011 
L 274.423193 333.163732 
L 267.747798 322.130619 
L 260.851319 311.149042 
L 253.739664 300.229354 
L 246.419029 289.381876 
L 238.895886 278.616873 
L 232.533155 269.793498 
L 232.533155 269.793498 
" clip-path="url(#p211f51d65d)" style="fill: none; stroke: #d95f02; stroke-width: 1.5; stroke-linecap: square"/>
   </g>
   <g id="line2d_29">
    <path d="M 287.455441 355.481128 
L 281.237685 344.365961 
L 274.7876 333.281425 
L 268.110493 322.2379 
L 261.211979 311.245769 
L 254.097968 300.3154 
L 246.774655 289.457123 
L 239.248516 278.681217 
L 232.883072 269.848766 
L 232.883072 269.848766 
" clip-path="url(#p211f51d65d)" style="fill: none; stroke: #7570b3; stroke-width: 1.5; stroke-linecap: square"/>
   </g>
   <g id="Path3DCollection_1">
    <defs>
     <path id="m4df81422c9" d="M 0 -5.477226 
L -1.229714 -1.692556 
L -5.209151 -1.692556 
L -1.989719 0.646499 
L -3.219432 4.431169 
L -0 2.092114 
L 3.219432 4.431169 
L 1.989719 0.646499 
L 5.209151 -1.692556 
L 1.229714 -1.692556 
z
" style="stroke: #000000"/>
    </defs>
    <g clip-path="url(#p211f51d65d)">
     <use xlink:href="#m4df81422c9" x="249.343766" y="188.759898" style="stroke: #000000"/>
    </g>
   </g>
   <g id="text_27">
    <!-- Orbital planes intersecting above Tehran -->
    <g transform="translate(166.025625 20.88) scale(0.12 -0.12)">
     <defs>
      <path id="DejaVuSans-4f" d="M 2522 4238 
Q 1834 4238 1429 3725 
Q 1025 3213 1025 2328 
Q 1025 1447 1429 934 
Q 1834 422 2522 422 
Q 3209 422 3611 934 
Q 4013 1447 4013 2328 
Q 4013 3213 3611 3725 
Q 3209 4238 2522 4238 
z
M 2522 4750 
Q 3503 4750 4090 4092 
Q 4678 3434 4678 2328 
Q 4678 1225 4090 567 
Q 3503 -91 2522 -91 
Q 1538 -91 948 565 
Q 359 1222 359 2328 
Q 359 3434 948 4092 
Q 1538 4750 2522 4750 
z
" transform="scale(0.015625)"/>
      <path id="DejaVuSans-72" d="M 2631 2963 
Q 2534 3019 2420 3045 
Q 2306 3072 2169 3072 
Q 1681 3072 1420 2755 
Q 1159 2438 1159 1844 
L 1159 0 
L 581 0 
L 581 3500 
L 1159 3500 
L 1159 2956 
Q 1341 3275 1631 3429 
Q 1922 3584 2338 3584 
Q 2397 3584 2469 3576 
Q 2541 3569 2628 3553 
L 2631 2963 
z
" transform="scale(0.015625)"/>
      <path id="DejaVuSans-62" d="M 3116 1747 
Q 3116 2381 2855 2742 
Q 2594 3103 2138 3103 
Q 1681 3103 1420 2742 
Q 1159 2381 1159 1747 
Q 1159 1113 1420 752 
Q 1681 391 2138 391 
Q 2594 391 2855 752 
Q 3116 1113 3116 1747 
z
M 1159 2969 
Q 1341 3281 1617 3432 
Q 1894 3584 2278 3584 
Q 2916 3584 3314 3078 
Q 3713 2572 3713 1747 
Q 3713 922 3314 415 
Q 2916 -91 2278 -91 
Q 1894 -91 1617 61 
Q 1341 213 1159 525 
L 1159 0 
L 581 0 
L 581 4863 
L 1159 4863 
L 1159 2969 
z
" transform="scale(0.015625)"/>
      <path id="DejaVuSans-69" d="M 603 3500 
L 1178 3500 
L 1178 0 
L 603 0 
L 603 3500 
z
M 603 4863 
L 1178 4863 
L 1178 4134 
L 603 4134 
L 603 4863 
z
" transform="scale(0.015625)"/>
      <path id="DejaVuSans-74" d="M 1172 4494 
L 1172 3500 
L 2356 3500 
L 2356 3053 
L 1172 3053 
L 1172 1153 
Q 1172 725 1289 603 
Q 1406 481 1766 481 
L 2356 481 
L 2356 0 
L 1766 0 
Q 1100 0 847 248 
Q 594 497 594 1153 
L 594 3053 
L 172 3053 
L 172 3500 
L 594 3500 
L 594 4494 
L 1172 4494 
z
" transform="scale(0.015625)"/>
      <path id="DejaVuSans-61" d="M 2194 1759 
Q 1497 1759 1228 1600 
Q 959 1441 959 1056 
Q 959 750 1161 570 
Q 1363 391 1709 391 
Q 2188 391 2477 730 
Q 2766 1069 2766 1631 
L 2766 1759 
L 2194 1759 
z
M 3341 1997 
L 3341 0 
L 2766 0 
L 2766 531 
Q 2569 213 2275 61 
Q 1981 -91 1556 -91 
Q 1019 -91 701 211 
Q 384 513 384 1019 
Q 384 1609 779 1909 
Q 1175 2209 1959 2209 
L 2766 2209 
L 2766 2266 
Q 2766 2663 2505 2880 
Q 2244 3097 1772 3097 
Q 1472 3097 1187 3025 
Q 903 2953 641 2809 
L 641 3341 
Q 956 3463 1253 3523 
Q 1550 3584 1831 3584 
Q 2591 3584 2966 3190 
Q 3341 2797 3341 1997 
z
" transform="scale(0.015625)"/>
      <path id="DejaVuSans-6c" d="M 603 4863 
L 1178 4863 
L 1178 0 
L 603 0 
L 603 4863 
z
" transform="scale(0.015625)"/>
      <path id="DejaVuSans-70" d="M 1159 525 
L 1159 -1331 
L 581 -1331 
L 581 3500 
L 1159 3500 
L 1159 2969 
Q 1341 3281 1617 3432 
Q 1894 3584 2278 3584 
Q 2916 3584 3314 3078 
Q 3713 2572 3713 1747 
Q 3713 922 3314 415 
Q 2916 -91 2278 -91 
Q 1894 -91 1617 61 
Q 1341 213 1159 525 
z
M 3116 1747 
Q 3116 2381 2855 2742 
Q 2594 3103 2138 3103 
Q 1681 3103 1420 2742 
Q 1159 2381 1159 1747 
Q 1159 1113 1420 752 
Q 1681 391 2138 391 
Q 2594 391 2855 752 
Q 3116 1113 3116 1747 
z
" transform="scale(0.015625)"/>
      <path id="DejaVuSans-6e" d="M 3513 2113 
L 3513 0 
L 2938 0 
L 2938 2094 
Q 2938 2591 2744 2837 
Q 2550 3084 2163 3084 
Q 1697 3084 1428 2787 
Q 1159 2491 1159 1978 
L 1159 0 
L 581 0 
L 581 3500 
L 1159 3500 
L 1159 2956 
Q 1366 3272 1645 3428 
Q 1925 3584 2291 3584 
Q 2894 3584 3203 3211 
Q 3513 2838 3513 2113 
z
" transform="scale(0.015625)"/>
      <path id="DejaVuSans-65" d="M 3597 1894 
L 3597 1613 
L 953 1613 
Q 991 1019 1311 708 
Q 1631 397 2203 397 
Q 2534 397 2845 478 
Q 3156 559 3463 722 
L 3463 178 
Q 3153 47 2828 -22 
Q 2503 -91 2169 -91 
Q 1331 -91 842 396 
Q 353 884 353 1716 
Q 353 2575 817 3079 
Q 1281 3584 2069 3584 
Q 2775 3584 3186 3129 
Q 3597 2675 3597 1894 
z
M 3022 2063 
Q 3016 2534 2758 2815 
Q 2500 3097 2075 3097 
Q 1594 3097 1305 2825 
Q 1016 2553 972 2059 
L 3022 2063 
z
" transform="scale(0.015625)"/>
      <path id="DejaVuSans-73" d="M 2834 3397 
L 2834 2853 
Q 2591 2978 2328 3040 
Q 2066 3103 1784 3103 
Q 1356 3103 1142 2972 
Q 928 2841 928 2578 
Q 928 2378 1081 2264 
Q 1234 2150 1697 2047 
L 1894 2003 
Q 2506 1872 2764 1633 
Q 3022 1394 3022 966 
Q 3022 478 2636 193 
Q 2250 -91 1575 -91 
Q 1294 -91 989 -36 
Q 684 19 347 128 
L 347 722 
Q 666 556 975 473 
Q 1284 391 1588 391 
Q 1994 391 2212 530 
Q 2431 669 2431 922 
Q 2431 1156 2273 1281 
Q 2116 1406 1581 1522 
L 1381 1569 
Q 847 1681 609 1914 
Q 372 2147 372 2553 
Q 372 3047 722 3315 
Q 1072 3584 1716 3584 
Q 2034 3584 2315 3537 
Q 2597 3491 2834 3397 
z
" transform="scale(0.015625)"/>
      <path id="DejaVuSans-63" d="M 3122 3366 
L 3122 2828 
Q 2878 2963 2633 3030 
Q 2388 3097 2138 3097 
Q 1578 3097 1268 2742 
Q 959 2388 959 1747 
Q 959 1106 1268 751 
Q 1578 397 2138 397 
Q 2388 397 2633 464 
Q 2878 531 3122 666 
L 3122 134 
Q 2881 22 2623 -34 
Q 2366 -91 2075 -91 
Q 1284 -91 818 406 
Q 353 903 353 1747 
Q 353 2603 823 3093 
Q 1294 3584 2113 3584 
Q 2378 3584 2631 3529 
Q 2884 3475 3122 3366 
z
" transform="scale(0.015625)"/>
      <path id="DejaVuSans-67" d="M 2906 1791 
Q 2906 2416 2648 2759 
Q 2391 3103 1925 3103 
Q 1463 3103 1205 2759 
Q 947 2416 947 1791 
Q 947 1169 1205 825 
Q 1463 481 1925 481 
Q 2391 481 2648 825 
Q 2906 1169 2906 1791 
z
M 3481 434 
Q 3481 -459 3084 -895 
Q 2688 -1331 1869 -1331 
Q 1566 -1331 1297 -1286 
Q 1028 -1241 775 -1147 
L 775 -588 
Q 1028 -725 1275 -790 
Q 1522 -856 1778 -856 
Q 2344 -856 2625 -561 
Q 2906 -266 2906 331 
L 2906 616 
Q 2728 306 2450 153 
Q 2172 0 1784 0 
Q 1141 0 747 490 
Q 353 981 353 1791 
Q 353 2603 747 3093 
Q 1141 3584 1784 3584 
Q 2172 3584 2450 3431 
Q 2728 3278 2906 2969 
L 2906 3500 
L 3481 3500 
L 3481 434 
z
" transform="scale(0.015625)"/>
      <path id="DejaVuSans-6f" d="M 1959 3097 
Q 1497 3097 1228 2736 
Q 959 2375 959 1747 
Q 959 1119 1226 758 
Q 1494 397 1959 397 
Q 2419 397 2687 759 
Q 2956 1122 2956 1747 
Q 2956 2369 2687 2733 
Q 2419 3097 1959 3097 
z
M 1959 3584 
Q 2709 3584 3137 3096 
Q 3566 2609 3566 1747 
Q 3566 888 3137 398 
Q 2709 -91 1959 -91 
Q 1206 -91 779 398 
Q 353 888 353 1747 
Q 353 2609 779 3096 
Q 1206 3584 1959 3584 
z
" transform="scale(0.015625)"/>
      <path id="DejaVuSans-76" d="M 191 3500 
L 800 3500 
L 1894 563 
L 2988 3500 
L 3597 3500 
L 2284 0 
L 1503 0 
L 191 3500 
z
" transform="scale(0.015625)"/>
      <path id="DejaVuSans-54" d="M -19 4666 
L 3928 4666 
L 3928 4134 
L 2272 4134 
L 2272 0 
L 1638 0 
L 1638 4134 
L -19 4134 
L -19 4666 
z
" transform="scale(0.015625)"/>
      <path id="DejaVuSans-68" d="M 3513 2113 
L 3513 0 
L 2938 0 
L 2938 2094 
Q 2938 2591 2744 2837 
Q 2550 3084 2163 3084 
Q 1697 3084 1428 2787 
Q 1159 2491 1159 1978 
L 1159 0 
L 581 0 
L 581 4863 
L 1159 4863 
L 1159 2956 
Q 1366 3272 1645 3428 
Q 1925 3584 2291 3584 
Q 2894 3584 3203 3211 
Q 3513 2838 3513 2113 
z
" transform="scale(0.015625)"/>
     </defs>
     <use xlink:href="#DejaVuSans-4f"/>
     <use xlink:href="#DejaVuSans-72" transform="translate(78.710938 0)"/>
     <use xlink:href="#DejaVuSans-62" transform="translate(119.824219 0)"/>
     <use xlink:href="#DejaVuSans-69" transform="translate(183.300781 0)"/>
     <use xlink:href="#DejaVuSans-74" transform="translate(211.083984 0)"/>
     <use xlink:href="#DejaVuSans-61" transform="translate(250.292969 0)"/>
     <use xlink:href="#DejaVuSans-6c" transform="translate(311.572266 0)"/>
     <use xlink:href="#DejaVuSans-20" transform="translate(339.355469 0)"/>
     <use xlink:href="#DejaVuSans-70" transform="translate(371.142578 0)"/>
     <use xlink:href="#DejaVuSans-6c" transform="translate(434.619141 0)"/>
     <use xlink:href="#DejaVuSans-61" transform="translate(462.402344 0)"/>
     <use xlink:href="#DejaVuSans-6e" transform="translate(523.681641 0)"/>
     <use xlink:href="#DejaVuSans-65" transform="translate(587.060547 0)"/>
     <use xlink:href="#DejaVuSans-73" transform="translate(648.583984 0)"/>
     <use xlink:href="#DejaVuSans-20" transform="translate(700.683594 0)"/>
     <use xlink:href="#DejaVuSans-69" transform="translate(732.470703 0)"/>
     <use xlink:href="#DejaVuSans-6e" transform="translate(760.253906 0)"/>
     <use xlink:href="#DejaVuSans-74" transform="translate(823.632812 0)"/>
     <use xlink:href="#DejaVuSans-65" transform="translate(862.841797 0)"/>
     <use xlink:href="#DejaVuSans-72" transform="translate(924.365234 0)"/>
     <use xlink:href="#DejaVuSans-73" transform="translate(965.478516 0)"/>
     <use xlink:href="#DejaVuSans-65" transform="translate(1017.578125 0)"/>
     <use xlink:href="#DejaVuSans-63" transform="translate(1079.101562 0)"/>
     <use xlink:href="#DejaVuSans-74" transform="translate(1134.082031 0)"/>
     <use xlink:href="#DejaVuSans-69" transform="translate(1173.291016 0)"/>
     <use xlink:href="#DejaVuSans-6e" transform="translate(1201.074219 0)"/>
     <use xlink:href="#DejaVuSans-67" transform="translate(1264.453125 0)"/>
     <use xlink:href="#DejaVuSans-20" transform="translate(1327.929688 0)"/>
     <use xlink:href="#DejaVuSans-61" transform="translate(1359.716797 0)"/>
     <use xlink:href="#DejaVuSans-62" transform="translate(1420.996094 0)"/>
     <use xlink:href="#DejaVuSans-6f" transform="translate(1484.472656 0)"/>
     <use xlink:href="#DejaVuSans-76" transform="translate(1545.654297 0)"/>
     <use xlink:href="#DejaVuSans-65" transform="translate(1604.833984 0)"/>
     <use xlink:href="#DejaVuSans-20" transform="translate(1666.357422 0)"/>
     <use xlink:href="#DejaVuSans-54" transform="translate(1698.144531 0)"/>
     <use xlink:href="#DejaVuSans-65" transform="translate(1742.228516 0)"/>
     <use xlink:href="#DejaVuSans-68" transform="translate(1803.751953 0)"/>
     <use xlink:href="#DejaVuSans-72" transform="translate(1867.130859 0)"/>
     <use xlink:href="#DejaVuSans-61" transform="translate(1908.244141 0)"/>
     <use xlink:href="#DejaVuSans-6e" transform="translate(1969.523438 0)"/>
    </g>
   </g>
   <g id="Poly3DCollection_1">
    <path d="M 203.518275 351.789538 
L 185.766295 344.870274 
L 187.594625 362.615892 
L 205.269633 369.581 
z
" clip-path="url(#p211f51d65d)" style="fill: #7f90b6; fill-opacity: 0.2"/>
    <path d="M 221.429826 358.770999 
L 203.518275 351.789538 
L 205.269633 369.581 
L 223.102754 376.608415 
z
" clip-path="url(#p211f51d65d)" style="fill: #7f90b6; fill-opacity: 0.2"/>
    <path d="M 201.74996 333.825818 
L 183.920341 326.953611 
L 185.766295 344.870274 
L 203.518275 351.789538 
z
" clip-path="url(#p211f51d65d)" style="fill: #7f90b6; fill-opacity: 0.2"/>
    <path d="M 239.50311 365.815499 
L 221.429826 358.770999 
L 223.102754 376.608415 
L 241.096121 383.698978 
z
" clip-path="url(#p211f51d65d)" style="fill: #7f90b6; fill-opacity: 0.2"/>
    <path d="M 219.740627 340.760099 
L 201.74996 333.825818 
L 203.518275 351.789538 
L 221.429826 358.770999 
z
" clip-path="url(#p211f51d65d)" style="fill: #7f90b6; fill-opacity: 0.2"/>
    <path d="M 199.964441 315.687324 
L 182.056508 308.863416 
L 183.920341 326.953611 
L 201.74996 333.825818 
z
" clip-path="url(#p211f51d65d)" style="fill: #7f90b6; fill-opacity: 0.2"/>
    <path d="M 257.740326 372.923896 
L 239.50311 365.815499 
L 241.096121 383.698978 
L 259.251902 390.853543 
z
" clip-path="url(#p211f51d65d)" style="fill: #7f90b6; fill-opacity: 0.2"/>
    <path d="M 237.894535 347.757299 
L 219.740627 340.760099 
L 221.429826 358.770999 
L 239.50311 365.815499 
z
" clip-path="url(#p211f51d65d)" style="fill: #7f90b6; fill-opacity: 0.2"/>
    <path d="M 218.03492 322.573172 
L 199.964441 315.687324 
L 201.74996 333.825818 
L 219.740627 340.760099 
z
" clip-path="url(#p211f51d65d)" style="fill: #7f90b6; fill-opacity: 0.2"/>
    <path d="M 198.161465 297.371495 
L 180.174536 290.597157 
L 182.056508 308.863416 
L 199.964441 315.687324 
z
" clip-path="url(#p211f51d65d)" style="fill: #7f90b6; fill-opacity: 0.2"/>
    <path d="M 276.143716 380.097062 
L 257.740326 372.923896 
L 259.251902 390.853543 
L 277.572307 398.07298 
z
" clip-path="url(#p211f51d65d)" style="fill: #7f90b6; fill-opacity: 0.2"/>
    <path d="M 256.213915 354.818278 
L 237.894535 347.757299 
L 239.50311 365.815499 
L 257.740326 372.923896 
z
" clip-path="url(#p211f51d65d)" style="fill: #7f90b6; fill-opacity: 0.2"/>
    <path d="M 236.270168 329.521805 
L 218.03492 322.573172 
L 219.740627 340.760099 
L 237.894535 347.757299 
z
" clip-path="url(#p211f51d65d)" style="fill: #7f90b6; fill-opacity: 0.2"/>
    <path d="M 216.31246 304.207624 
L 198.161465 297.371495 
L 199.964441 315.687324 
L 218.03492 322.573172 
z
" clip-path="url(#p211f51d65d)" style="fill: #7f90b6; fill-opacity: 0.2"/>
    <path d="M 196.340776 278.875717 
L 178.274158 272.152251 
L 180.174536 290.597157 
L 198.161465 297.371495 
z
" clip-path="url(#p211f51d65d)" style="fill: #7f90b6; fill-opacity: 0.2"/>
    <path d="M 294.715561 387.335889 
L 276.143716 380.097062 
L 277.572307 398.07298 
L 296.059586 405.358176 
z
" clip-path="url(#p211f51d65d)" style="fill: #7f90b6; fill-opacity: 0.2"/>
    <path d="M 274.70104 361.943913 
L 256.213915 354.818278 
L 257.740326 372.923896 
L 276.143716 380.097062 
z
" clip-path="url(#p211f51d65d)" style="fill: #7f90b6; fill-opacity: 0.2"/>
    <path d="M 254.672449 336.534088 
L 236.270168 329.521805 
L 237.894535 347.757299 
L 256.213915 354.818278 
z
" clip-path="url(#p211f51d65d)" style="fill: #7f90b6; fill-opacity: 0.2"/>
    <path d="M 234.629774 311.106394 
L 216.31246 304.207624 
L 218.03492 322.573172 
L 236.270168 329.521805 
z
" clip-path="url(#p211f51d65d)" style="fill: #7f90b6; fill-opacity: 0.2"/>
    <path d="M 214.572999 285.660812 
L 196.340776 278.875717 
L 198.161465 297.371495 
L 216.31246 304.207624 
z
" clip-path="url(#p211f51d65d)" style="fill: #7f90b6; fill-opacity: 0.2"/>
    <path d="M 194.50211 260.197324 
L 176.355102 253.526064 
L 178.274158 272.152251 
L 196.340776 278.875717 
z
" clip-path="url(#p211f51d65d)" style="fill: #7f90b6; fill-opacity: 0.2"/>
    <path d="M 313.458185 394.64128 
L 294.715561 387.335889 
L 296.059586 405.358176 
L 314.716028 412.710033 
z
" clip-path="url(#p211f51d65d)" style="fill: #7f90b6; fill-opacity: 0.2"/>
    <path d="M 293.358224 369.135095 
L 274.70104 361.943913 
L 276.143716 380.097062 
L 294.715561 387.335889 
z
" clip-path="url(#p211f51d65d)" style="fill: #7f90b6; fill-opacity: 0.2"/>
    <path d="M 273.244069 343.610897 
L 254.672449 336.534088 
L 256.213915 354.818278 
L 274.70104 361.943913 
z
" clip-path="url(#p211f51d65d)" style="fill: #7f90b6; fill-opacity: 0.2"/>
    <path d="M 253.115704 318.068668 
L 234.629774 311.106394 
L 236.270168 329.521805 
L 254.672449 336.534088 
z
" clip-path="url(#p211f51d65d)" style="fill: #7f90b6; fill-opacity: 0.2"/>
    <path d="M 232.973115 292.508388 
L 214.572999 285.660812 
L 216.31246 304.207624 
L 234.629774 311.106394 
z
" clip-path="url(#p211f51d65d)" style="fill: #7f90b6; fill-opacity: 0.2"/>
    <path d="M 212.816285 266.930038 
L 194.50211 260.197324 
L 196.340776 278.875717 
L 214.572999 285.660812 
z
" clip-path="url(#p211f51d65d)" style="fill: #7f90b6; fill-opacity: 0.2"/>
    <path d="M 192.645201 241.333599 
L 174.417092 234.715911 
L 176.355102 253.526064 
L 194.50211 260.197324 
z
" clip-path="url(#p211f51d65d)" style="fill: #7f90b6; fill-opacity: 0.2"/>
    <path d="M 332.373953 402.014159 
L 313.458185 394.64128 
L 314.716028 412.710033 
L 333.543965 420.129471 
z
" clip-path="url(#p211f51d65d)" style="fill: #7f90b6; fill-opacity: 0.2"/>
    <path d="M 312.187826 376.392733 
L 293.358224 369.135095 
L 294.715561 387.335889 
L 313.458185 394.64128 
z
" clip-path="url(#p211f51d65d)" style="fill: #7f90b6; fill-opacity: 0.2"/>
    <path d="M 291.987376 350.75313 
L 273.244069 343.610897 
L 274.70104 361.943913 
L 293.358224 369.135095 
z
" clip-path="url(#p211f51d65d)" style="fill: #7f90b6; fill-opacity: 0.2"/>
    <path d="M 271.772591 325.095329 
L 253.115704 318.068668 
L 254.672449 336.534088 
L 273.244069 343.610897 
z
" clip-path="url(#p211f51d65d)" style="fill: #7f90b6; fill-opacity: 0.2"/>
    <path d="M 251.543453 299.419313 
L 232.973115 292.508388 
L 234.629774 311.106394 
L 253.115704 318.068668 
z
" clip-path="url(#p211f51d65d)" style="fill: #7f90b6; fill-opacity: 0.2"/>
    <path d="M 231.299948 273.72506 
L 212.816285 266.930038 
L 214.572999 285.660812 
L 232.973115 292.508388 
z
" clip-path="url(#p211f51d65d)" style="fill: #7f90b6; fill-opacity: 0.2"/>
    <path d="M 211.04206 248.012552 
L 192.645201 241.333599 
L 194.50211 260.197324 
L 212.816285 266.930038 
z
" clip-path="url(#p211f51d65d)" style="fill: #7f90b6; fill-opacity: 0.2"/>
    <path d="M 190.769775 222.28177 
L 172.459846 215.719052 
L 174.417092 234.715911 
L 192.645201 241.333599 
z
" clip-path="url(#p211f51d65d)" style="fill: #7f90b6; fill-opacity: 0.2"/>
    <path d="M 351.465277 409.455465 
L 332.373953 402.014159 
L 333.543965 420.129471 
L 352.545775 427.617426 
z
" clip-path="url(#p211f51d65d)" style="fill: #7f90b6; fill-opacity: 0.2"/>
    <path d="M 331.192245 383.717752 
L 312.187826 376.392733 
L 313.458185 394.64128 
L 332.373953 402.014159 
z
" clip-path="url(#p211f51d65d)" style="fill: #7f90b6; fill-opacity: 0.2"/>
    <path d="M 310.904763 357.961695 
L 291.987376 350.75313 
L 293.358224 369.135095 
L 312.187826 376.392733 
z
" clip-path="url(#p211f51d65d)" style="fill: #7f90b6; fill-opacity: 0.2"/>
    <path d="M 290.602815 332.187274 
L 271.772591 325.095329 
L 273.244069 343.610897 
L 291.987376 350.75313 
z
" clip-path="url(#p211f51d65d)" style="fill: #7f90b6; fill-opacity: 0.2"/>
    <path d="M 270.286386 306.394468 
L 251.543453 299.419313 
L 253.115704 318.068668 
L 271.772591 325.095329 
z
" clip-path="url(#p211f51d65d)" style="fill: #7f90b6; fill-opacity: 0.2"/>
    <path d="M 249.955461 280.583258 
L 231.299948 273.72506 
L 232.973115 292.508388 
L 251.543453 299.419313 
z
" clip-path="url(#p211f51d65d)" style="fill: #7f90b6; fill-opacity: 0.2"/>
    <path d="M 229.610025 254.753625 
L 211.04206 248.012552 
L 212.816285 266.930038 
L 231.299948 273.72506 
z
" clip-path="url(#p211f51d65d)" style="fill: #7f90b6; fill-opacity: 0.2"/>
    <path d="M 209.250061 228.905549 
L 190.769775 222.28177 
L 192.645201 241.333599 
L 211.04206 248.012552 
z
" clip-path="url(#p211f51d65d)" style="fill: #7f90b6; fill-opacity: 0.2"/>
    <path d="M 188.875554 203.039009 
L 170.483076 196.532694 
L 172.459846 215.719052 
L 190.769775 222.28177 
z
" clip-path="url(#p211f51d65d)" style="fill: #7f90b6; fill-opacity: 0.2"/>
    <path d="M 350.373928 391.111096 
L 331.192245 383.717752 
L 332.373953 402.014159 
L 351.465277 409.455465 
z
" clip-path="url(#p211f51d65d)" style="fill: #7f90b6; fill-opacity: 0.2"/>
    <path d="M 329.998664 365.237523 
L 310.904763 357.961695 
L 312.187826 376.392733 
L 331.192245 383.717752 
z
" clip-path="url(#p211f51d65d)" style="fill: #7f90b6; fill-opacity: 0.2"/>
    <path d="M 309.608804 339.345416 
L 290.602815 332.187274 
L 291.987376 350.75313 
L 310.904763 357.961695 
z
" clip-path="url(#p211f51d65d)" style="fill: #7f90b6; fill-opacity: 0.2"/>
    <path d="M 289.204333 313.434754 
L 270.286386 306.394468 
L 271.772591 325.095329 
L 290.602815 332.187274 
z
" clip-path="url(#p211f51d65d)" style="fill: #7f90b6; fill-opacity: 0.2"/>
    <path d="M 268.785234 287.505518 
L 249.955461 280.583258 
L 251.543453 299.419313 
L 270.286386 306.394468 
z
" clip-path="url(#p211f51d65d)" style="fill: #7f90b6; fill-opacity: 0.2"/>
    <path d="M 248.351493 261.557688 
L 229.610025 254.753625 
L 231.299948 273.72506 
L 249.955461 280.583258 
z
" clip-path="url(#p211f51d65d)" style="fill: #7f90b6; fill-opacity: 0.2"/>
    <path d="M 227.903093 235.591243 
L 209.250061 228.905549 
L 211.04206 248.012552 
L 229.610025 254.753625 
z
" clip-path="url(#p211f51d65d)" style="fill: #7f90b6; fill-opacity: 0.2"/>
    <path d="M 207.440018 209.606164 
L 188.875554 203.039009 
L 190.769775 222.28177 
L 209.250061 228.905549 
z
" clip-path="url(#p211f51d65d)" style="fill: #7f90b6; fill-opacity: 0.2"/>
    <path d="M 349.271563 372.581559 
L 329.998664 365.237523 
L 331.192245 383.717752 
L 350.373928 391.111096 
z
" clip-path="url(#p211f51d65d)" style="fill: #7f90b6; fill-opacity: 0.2"/>
    <path d="M 328.793031 346.570687 
L 309.608804 339.345416 
L 310.904763 357.961695 
L 329.998664 365.237523 
z
" clip-path="url(#p211f51d65d)" style="fill: #7f90b6; fill-opacity: 0.2"/>
    <path d="M 308.299755 320.541088 
L 289.204333 313.434754 
L 290.602815 332.187274 
L 309.608804 339.345416 
z
" clip-path="url(#p211f51d65d)" style="fill: #7f90b6; fill-opacity: 0.2"/>
    <path d="M 287.791719 294.492741 
L 268.785234 287.505518 
L 270.286386 306.394468 
L 289.204333 313.434754 
z
" clip-path="url(#p211f51d65d)" style="fill: #7f90b6; fill-opacity: 0.2"/>
    <path d="M 267.268907 268.425628 
L 248.351493 261.557688 
L 249.955461 280.583258 
L 268.785234 287.505518 
z
" clip-path="url(#p211f51d65d)" style="fill: #7f90b6; fill-opacity: 0.2"/>
    <path d="M 246.731304 242.339727 
L 227.903093 235.591243 
L 229.610025 254.753625 
L 248.351493 261.557688 
z
" clip-path="url(#p211f51d65d)" style="fill: #7f90b6; fill-opacity: 0.2"/>
    <path d="M 226.178894 216.235017 
L 207.440018 209.606164 
L 209.250061 228.905549 
L 227.903093 235.591243 
z
" clip-path="url(#p211f51d65d)" style="fill: #7f90b6; fill-opacity: 0.2"/>
    <path d="M 348.158014 353.864035 
L 328.793031 346.570687 
L 329.998664 365.237523 
L 349.271563 372.581559 
z
" clip-path="url(#p211f51d65d)" style="fill: #7f90b6; fill-opacity: 0.2"/>
    <path d="M 327.575162 327.714402 
L 308.299755 320.541088 
L 309.608804 339.345416 
L 328.793031 346.570687 
z
" clip-path="url(#p211f51d65d)" style="fill: #7f90b6; fill-opacity: 0.2"/>
    <path d="M 306.977415 301.545847 
L 287.791719 294.492741 
L 289.204333 313.434754 
L 308.299755 320.541088 
z
" clip-path="url(#p211f51d65d)" style="fill: #7f90b6; fill-opacity: 0.2"/>
    <path d="M 286.364758 275.358349 
L 267.268907 268.425628 
L 268.785234 287.505518 
L 287.791719 294.492741 
z
" clip-path="url(#p211f51d65d)" style="fill: #7f90b6; fill-opacity: 0.2"/>
    <path d="M 265.737175 249.151887 
L 246.731304 242.339727 
L 248.351493 261.557688 
L 267.268907 268.425628 
z
" clip-path="url(#p211f51d65d)" style="fill: #7f90b6; fill-opacity: 0.2"/>
    <path d="M 245.094649 222.926442 
L 226.178894 216.235017 
L 227.903093 235.591243 
L 246.731304 242.339727 
z
" clip-path="url(#p211f51d65d)" style="fill: #7f90b6; fill-opacity: 0.2"/>
    <path d="M 347.03311 334.955649 
L 327.575162 327.714402 
L 328.793031 346.570687 
L 348.158014 353.864035 
z
" clip-path="url(#p211f51d65d)" style="fill: #7f90b6; fill-opacity: 0.2"/>
    <path d="M 326.344869 308.665771 
L 306.977415 301.545847 
L 308.299755 320.541088 
L 327.575162 327.714402 
z
" clip-path="url(#p211f51d65d)" style="fill: #7f90b6; fill-opacity: 0.2"/>
    <path d="M 305.641582 282.356772 
L 286.364758 275.358349 
L 287.791719 294.492741 
L 306.977415 301.545847 
z
" clip-path="url(#p211f51d65d)" style="fill: #7f90b6; fill-opacity: 0.2"/>
    <path d="M 284.923231 256.028631 
L 265.737175 249.151887 
L 267.268907 268.425628 
L 286.364758 275.358349 
z
" clip-path="url(#p211f51d65d)" style="fill: #7f90b6; fill-opacity: 0.2"/>
    <path d="M 264.189801 229.681327 
L 245.094649 222.926442 
L 246.731304 242.339727 
L 265.737175 249.151887 
z
" clip-path="url(#p211f51d65d)" style="fill: #7f90b6; fill-opacity: 0.2"/>
    <path d="M 345.896677 315.853467 
L 326.344869 308.665771 
L 327.575162 327.714402 
L 347.03311 334.955649 
z
" clip-path="url(#p211f51d65d)" style="fill: #7f90b6; fill-opacity: 0.2"/>
    <path d="M 325.101963 289.421835 
L 305.641582 282.356772 
L 306.977415 301.545847 
L 326.344869 308.665771 
z
" clip-path="url(#p211f51d65d)" style="fill: #7f90b6; fill-opacity: 0.2"/>
    <path d="M 304.292047 262.97088 
L 284.923231 256.028631 
L 286.364758 275.358349 
L 305.641582 282.356772 
z
" clip-path="url(#p211f51d65d)" style="fill: #7f90b6; fill-opacity: 0.2"/>
    <path d="M 283.466913 236.500581 
L 264.189801 229.681327 
L 265.737175 249.151887 
L 284.923231 256.028631 
z
" clip-path="url(#p211f51d65d)" style="fill: #7f90b6; fill-opacity: 0.2"/>
    <path d="M 344.748536 296.554495 
L 325.101963 289.421835 
L 326.344869 308.665771 
L 345.896677 315.853467 
z
" clip-path="url(#p211f51d65d)" style="fill: #7f90b6; fill-opacity: 0.2"/>
    <path d="M 323.846247 269.979575 
L 304.292047 262.97088 
L 305.641582 282.356772 
L 325.101963 289.421835 
z
" clip-path="url(#p211f51d65d)" style="fill: #7f90b6; fill-opacity: 0.2"/>
    <path d="M 302.9286 243.385127 
L 283.466913 236.500581 
L 284.923231 256.028631 
L 304.292047 262.97088 
z
" clip-path="url(#p211f51d65d)" style="fill: #7f90b6; fill-opacity: 0.2"/>
    <path d="M 343.588506 277.055674 
L 323.846247 269.979575 
L 325.101963 289.421835 
L 344.748536 296.554495 
z
" clip-path="url(#p211f51d65d)" style="fill: #7f90b6; fill-opacity: 0.2"/>
    <path d="M 322.577524 250.335909 
L 302.9286 243.385127 
L 304.292047 262.97088 
L 323.846247 269.979575 
z
" clip-path="url(#p211f51d65d)" style="fill: #7f90b6; fill-opacity: 0.2"/>
    <path d="M 342.416401 257.353886 
L 322.577524 250.335909 
L 323.846247 269.979575 
L 343.588506 277.055674 
z
" clip-path="url(#p211f51d65d)" style="fill: #7f90b6; fill-opacity: 0.2"/>
   </g>
   <g id="Poly3DCollection_2">
    <path d="M 203.518275 351.789538 
L 185.766295 344.870274 
L 187.594625 362.615892 
L 205.269633 369.581 
z
" clip-path="url(#p211f51d65d)" style="fill: #5cae94; fill-opacity: 0.2"/>
    <path d="M 221.429826 358.770999 
L 203.518275 351.789538 
L 205.269633 369.581 
L 223.102754 376.608415 
z
" clip-path="url(#p211f51d65d)" style="fill: #5cae94; fill-opacity: 0.2"/>
    <path d="M 201.74996 333.825818 
L 183.920341 326.953611 
L 185.766295 344.870274 
L 203.518275 351.789538 
z
" clip-path="url(#p211f51d65d)" style="fill: #5cae94; fill-opacity: 0.2"/>
    <path d="M 239.50311 365.815499 
L 221.429826 358.770999 
L 223.102754 376.608415 
L 241.096121 383.698978 
z
" clip-path="url(#p211f51d65d)" style="fill: #5cae94; fill-opacity: 0.2"/>
    <path d="M 219.740627 340.760099 
L 201.74996 333.825818 
L 203.518275 351.789538 
L 221.429826 358.770999 
z
" clip-path="url(#p211f51d65d)" style="fill: #5cae94; fill-opacity: 0.2"/>
    <path d="M 199.964441 315.687324 
L 182.056508 308.863416 
L 183.920341 326.953611 
L 201.74996 333.825818 
z
" clip-path="url(#p211f51d65d)" style="fill: #5cae94; fill-opacity: 0.2"/>
    <path d="M 257.740326 372.923896 
L 239.50311 365.815499 
L 241.096121 383.698978 
L 259.251902 390.853543 
z
" clip-path="url(#p211f51d65d)" style="fill: #5cae94; fill-opacity: 0.2"/>
    <path d="M 237.894535 347.757299 
L 219.740627 340.760099 
L 221.429826 358.770999 
L 239.50311 365.815499 
z
" clip-path="url(#p211f51d65d)" style="fill: #5cae94; fill-opacity: 0.2"/>
    <path d="M 218.03492 322.573172 
L 199.964441 315.687324 
L 201.74996 333.825818 
L 219.740627 340.760099 
z
" clip-path="url(#p211f51d65d)" style="fill: #5cae94; fill-opacity: 0.2"/>
    <path d="M 198.161465 297.371495 
L 180.174536 290.597157 
L 182.056508 308.863416 
L 199.964441 315.687324 
z
" clip-path="url(#p211f51d65d)" style="fill: #5cae94; fill-opacity: 0.2"/>
    <path d="M 276.143716 380.097062 
L 257.740326 372.923896 
L 259.251902 390.853543 
L 277.572307 398.07298 
z
" clip-path="url(#p211f51d65d)" style="fill: #5cae94; fill-opacity: 0.2"/>
    <path d="M 256.213915 354.818278 
L 237.894535 347.757299 
L 239.50311 365.815499 
L 257.740326 372.923896 
z
" clip-path="url(#p211f51d65d)" style="fill: #5cae94; fill-opacity: 0.2"/>
    <path d="M 236.270168 329.521805 
L 218.03492 322.573172 
L 219.740627 340.760099 
L 237.894535 347.757299 
z
" clip-path="url(#p211f51d65d)" style="fill: #5cae94; fill-opacity: 0.2"/>
    <path d="M 216.31246 304.207624 
L 198.161465 297.371495 
L 199.964441 315.687324 
L 218.03492 322.573172 
z
" clip-path="url(#p211f51d65d)" style="fill: #5cae94; fill-opacity: 0.2"/>
    <path d="M 196.340776 278.875717 
L 178.274158 272.152251 
L 180.174536 290.597157 
L 198.161465 297.371495 
z
" clip-path="url(#p211f51d65d)" style="fill: #5cae94; fill-opacity: 0.2"/>
    <path d="M 294.715561 387.335889 
L 276.143716 380.097062 
L 277.572307 398.07298 
L 296.059586 405.358176 
z
" clip-path="url(#p211f51d65d)" style="fill: #5cae94; fill-opacity: 0.2"/>
    <path d="M 274.70104 361.943913 
L 256.213915 354.818278 
L 257.740326 372.923896 
L 276.143716 380.097062 
z
" clip-path="url(#p211f51d65d)" style="fill: #5cae94; fill-opacity: 0.2"/>
    <path d="M 254.672449 336.534088 
L 236.270168 329.521805 
L 237.894535 347.757299 
L 256.213915 354.818278 
z
" clip-path="url(#p211f51d65d)" style="fill: #5cae94; fill-opacity: 0.2"/>
    <path d="M 234.629774 311.106394 
L 216.31246 304.207624 
L 218.03492 322.573172 
L 236.270168 329.521805 
z
" clip-path="url(#p211f51d65d)" style="fill: #5cae94; fill-opacity: 0.2"/>
    <path d="M 214.572999 285.660812 
L 196.340776 278.875717 
L 198.161465 297.371495 
L 216.31246 304.207624 
z
" clip-path="url(#p211f51d65d)" style="fill: #5cae94; fill-opacity: 0.2"/>
    <path d="M 194.50211 260.197324 
L 176.355102 253.526064 
L 178.274158 272.152251 
L 196.340776 278.875717 
z
" clip-path="url(#p211f51d65d)" style="fill: #5cae94; fill-opacity: 0.2"/>
    <path d="M 313.458185 394.64128 
L 294.715561 387.335889 
L 296.059586 405.358176 
L 314.716028 412.710033 
z
" clip-path="url(#p211f51d65d)" style="fill: #5cae94; fill-opacity: 0.2"/>
    <path d="M 293.358224 369.135095 
L 274.70104 361.943913 
L 276.143716 380.097062 
L 294.715561 387.335889 
z
" clip-path="url(#p211f51d65d)" style="fill: #5cae94; fill-opacity: 0.2"/>
    <path d="M 273.244069 343.610897 
L 254.672449 336.534088 
L 256.213915 354.818278 
L 274.70104 361.943913 
z
" clip-path="url(#p211f51d65d)" style="fill: #5cae94; fill-opacity: 0.2"/>
    <path d="M 253.115704 318.068668 
L 234.629774 311.106394 
L 236.270168 329.521805 
L 254.672449 336.534088 
z
" clip-path="url(#p211f51d65d)" style="fill: #5cae94; fill-opacity: 0.2"/>
    <path d="M 232.973115 292.508388 
L 214.572999 285.660812 
L 216.31246 304.207624 
L 234.629774 311.106394 
z
" clip-path="url(#p211f51d65d)" style="fill: #5cae94; fill-opacity: 0.2"/>
    <path d="M 212.816285 266.930038 
L 194.50211 260.197324 
L 196.340776 278.875717 
L 214.572999 285.660812 
z
" clip-path="url(#p211f51d65d)" style="fill: #5cae94; fill-opacity: 0.2"/>
    <path d="M 192.645201 241.333599 
L 174.417092 234.715911 
L 176.355102 253.526064 
L 194.50211 260.197324 
z
" clip-path="url(#p211f51d65d)" style="fill: #5cae94; fill-opacity: 0.2"/>
    <path d="M 332.373953 402.014159 
L 313.458185 394.64128 
L 314.716028 412.710033 
L 333.543965 420.129471 
z
" clip-path="url(#p211f51d65d)" style="fill: #5cae94; fill-opacity: 0.2"/>
    <path d="M 312.187826 376.392733 
L 293.358224 369.135095 
L 294.715561 387.335889 
L 313.458185 394.64128 
z
" clip-path="url(#p211f51d65d)" style="fill: #5cae94; fill-opacity: 0.2"/>
    <path d="M 291.987376 350.75313 
L 273.244069 343.610897 
L 274.70104 361.943913 
L 293.358224 369.135095 
z
" clip-path="url(#p211f51d65d)" style="fill: #5cae94; fill-opacity: 0.2"/>
    <path d="M 271.772591 325.095329 
L 253.115704 318.068668 
L 254.672449 336.534088 
L 273.244069 343.610897 
z
" clip-path="url(#p211f51d65d)" style="fill: #5cae94; fill-opacity: 0.2"/>
    <path d="M 251.543453 299.419313 
L 232.973115 292.508388 
L 234.629774 311.106394 
L 253.115704 318.068668 
z
" clip-path="url(#p211f51d65d)" style="fill: #5cae94; fill-opacity: 0.2"/>
    <path d="M 231.299948 273.72506 
L 212.816285 266.930038 
L 214.572999 285.660812 
L 232.973115 292.508388 
z
" clip-path="url(#p211f51d65d)" style="fill: #5cae94; fill-opacity: 0.2"/>
    <path d="M 211.04206 248.012552 
L 192.645201 241.333599 
L 194.50211 260.197324 
L 212.816285 266.930038 
z
" clip-path="url(#p211f51d65d)" style="fill: #5cae94; fill-opacity: 0.2"/>
    <path d="M 190.769775 222.28177 
L 172.459846 215.719052 
L 174.417092 234.715911 
L 192.645201 241.333599 
z
" clip-path="url(#p211f51d65d)" style="fill: #5cae94; fill-opacity: 0.2"/>
    <path d="M 351.465277 409.455465 
L 332.373953 402.014159 
L 333.543965 420.129471 
L 352.545775 427.617426 
z
" clip-path="url(#p211f51d65d)" style="fill: #5cae94; fill-opacity: 0.2"/>
    <path d="M 331.192245 383.717752 
L 312.187826 376.392733 
L 313.458185 394.64128 
L 332.373953 402.014159 
z
" clip-path="url(#p211f51d65d)" style="fill: #5cae94; fill-opacity: 0.2"/>
    <path d="M 310.904763 357.961695 
L 291.987376 350.75313 
L 293.358224 369.135095 
L 312.187826 376.392733 
z
" clip-path="url(#p211f51d65d)" style="fill: #5cae94; fill-opacity: 0.2"/>
    <path d="M 290.602815 332.187274 
L 271.772591 325.095329 
L 273.244069 343.610897 
L 291.987376 350.75313 
z
" clip-path="url(#p211f51d65d)" style="fill: #5cae94; fill-opacity: 0.2"/>
    <path d="M 270.286386 306.394468 
L 251.543453 299.419313 
L 253.115704 318.068668 
L 271.772591 325.095329 
z
" clip-path="url(#p211f51d65d)" style="fill: #5cae94; fill-opacity: 0.2"/>
    <path d="M 249.955461 280.583258 
L 231.299948 273.72506 
L 232.973115 292.508388 
L 251.543453 299.419313 
z
" clip-path="url(#p211f51d65d)" style="fill: #5cae94; fill-opacity: 0.2"/>
    <path d="M 229.610025 254.753625 
L 211.04206 248.012552 
L 212.816285 266.930038 
L 231.299948 273.72506 
z
" clip-path="url(#p211f51d65d)" style="fill: #5cae94; fill-opacity: 0.2"/>
    <path d="M 209.250061 228.905549 
L 190.769775 222.28177 
L 192.645201 241.333599 
L 211.04206 248.012552 
z
" clip-path="url(#p211f51d65d)" style="fill: #5cae94; fill-opacity: 0.2"/>
    <path d="M 188.875554 203.039009 
L 170.483076 196.532694 
L 172.459846 215.719052 
L 190.769775 222.28177 
z
" clip-path="url(#p211f51d65d)" style="fill: #5cae94; fill-opacity: 0.2"/>
    <path d="M 350.373928 391.111096 
L 331.192245 383.717752 
L 332.373953 402.014159 
L 351.465277 409.455465 
z
" clip-path="url(#p211f51d65d)" style="fill: #5cae94; fill-opacity: 0.2"/>
    <path d="M 329.998664 365.237523 
L 310.904763 357.961695 
L 312.187826 376.392733 
L 331.192245 383.717752 
z
" clip-path="url(#p211f51d65d)" style="fill: #5cae94; fill-opacity: 0.2"/>
    <path d="M 309.608804 339.345416 
L 290.602815 332.187274 
L 291.987376 350.75313 
L 310.904763 357.961695 
z
" clip-path="url(#p211f51d65d)" style="fill: #5cae94; fill-opacity: 0.2"/>
    <path d="M 289.204333 313.434754 
L 270.286386 306.394468 
L 271.772591 325.095329 
L 290.602815 332.187274 
z
" clip-path="url(#p211f51d65d)" style="fill: #5cae94; fill-opacity: 0.2"/>
    <path d="M 268.785234 287.505518 
L 249.955461 280.583258 
L 251.543453 299.419313 
L 270.286386 306.394468 
z
" clip-path="url(#p211f51d65d)" style="fill: #5cae94; fill-opacity: 0.2"/>
    <path d="M 248.351493 261.557688 
L 229.610025 254.753625 
L 231.299948 273.72506 
L 249.955461 280.583258 
z
" clip-path="url(#p211f51d65d)" style="fill: #5cae94; fill-opacity: 0.2"/>
    <path d="M 227.903093 235.591243 
L 209.250061 228.905549 
L 211.04206 248.012552 
L 229.610025 254.753625 
z
" clip-path="url(#p211f51d65d)" style="fill: #5cae94; fill-opacity: 0.2"/>
    <path d="M 207.440018 209.606164 
L 188.875554 203.039009 
L 190.769775 222.28177 
L 209.250061 228.905549 
z
" clip-path="url(#p211f51d65d)" style="fill: #5cae94; fill-opacity: 0.2"/>
    <path d="M 349.271563 372.581559 
L 329.998664 365.237523 
L 331.192245 383.717752 
L 350.373928 391.111096 
z
" clip-path="url(#p211f51d65d)" style="fill: #5cae94; fill-opacity: 0.2"/>
    <path d="M 328.793031 346.570687 
L 309.608804 339.345416 
L 310.904763 357.961695 
L 329.998664 365.237523 
z
" clip-path="url(#p211f51d65d)" style="fill: #5cae94; fill-opacity: 0.2"/>
    <path d="M 308.299755 320.541088 
L 289.204333 313.434754 
L 290.602815 332.187274 
L 309.608804 339.345416 
z
" clip-path="url(#p211f51d65d)" style="fill: #5cae94; fill-opacity: 0.2"/>
    <path d="M 287.791719 294.492741 
L 268.785234 287.505518 
L 270.286386 306.394468 
L 289.204333 313.434754 
z
" clip-path="url(#p211f51d65d)" style="fill: #5cae94; fill-opacity: 0.2"/>
    <path d="M 267.268907 268.425628 
L 248.351493 261.557688 
L 249.955461 280.583258 
L 268.785234 287.505518 
z
" clip-path="url(#p211f51d65d)" style="fill: #5cae94; fill-opacity: 0.2"/>
    <path d="M 246.731304 242.339727 
L 227.903093 235.591243 
L 229.610025 254.753625 
L 248.351493 261.557688 
z
" clip-path="url(#p211f51d65d)" style="fill: #5cae94; fill-opacity: 0.2"/>
    <path d="M 226.178894 216.235017 
L 207.440018 209.606164 
L 209.250061 228.905549 
L 227.903093 235.591243 
z
" clip-path="url(#p211f51d65d)" style="fill: #5cae94; fill-opacity: 0.2"/>
    <path d="M 348.158014 353.864035 
L 328.793031 346.570687 
L 329.998664 365.237523 
L 349.271563 372.581559 
z
" clip-path="url(#p211f51d65d)" style="fill: #5cae94; fill-opacity: 0.2"/>
    <path d="M 327.575162 327.714402 
L 308.299755 320.541088 
L 309.608804 339.345416 
L 328.793031 346.570687 
z
" clip-path="url(#p211f51d65d)" style="fill: #5cae94; fill-opacity: 0.2"/>
    <path d="M 306.977415 301.545847 
L 287.791719 294.492741 
L 289.204333 313.434754 
L 308.299755 320.541088 
z
" clip-path="url(#p211f51d65d)" style="fill: #5cae94; fill-opacity: 0.2"/>
    <path d="M 286.364758 275.358349 
L 267.268907 268.425628 
L 268.785234 287.505518 
L 287.791719 294.492741 
z
" clip-path="url(#p211f51d65d)" style="fill: #5cae94; fill-opacity: 0.2"/>
    <path d="M 265.737175 249.151887 
L 246.731304 242.339727 
L 248.351493 261.557688 
L 267.268907 268.425628 
z
" clip-path="url(#p211f51d65d)" style="fill: #5cae94; fill-opacity: 0.2"/>
    <path d="M 245.094649 222.926442 
L 226.178894 216.235017 
L 227.903093 235.591243 
L 246.731304 242.339727 
z
" clip-path="url(#p211f51d65d)" style="fill: #5cae94; fill-opacity: 0.2"/>
    <path d="M 347.03311 334.955649 
L 327.575162 327.714402 
L 328.793031 346.570687 
L 348.158014 353.864035 
z
" clip-path="url(#p211f51d65d)" style="fill: #5cae94; fill-opacity: 0.2"/>
    <path d="M 326.344869 308.665771 
L 306.977415 301.545847 
L 308.299755 320.541088 
L 327.575162 327.714402 
z
" clip-path="url(#p211f51d65d)" style="fill: #5cae94; fill-opacity: 0.2"/>
    <path d="M 305.641582 282.356772 
L 286.364758 275.358349 
L 287.791719 294.492741 
L 306.977415 301.545847 
z
" clip-path="url(#p211f51d65d)" style="fill: #5cae94; fill-opacity: 0.2"/>
    <path d="M 284.923231 256.028631 
L 265.737175 249.151887 
L 267.268907 268.425628 
L 286.364758 275.358349 
z
" clip-path="url(#p211f51d65d)" style="fill: #5cae94; fill-opacity: 0.2"/>
    <path d="M 264.189801 229.681327 
L 245.094649 222.926442 
L 246.731304 242.339727 
L 265.737175 249.151887 
z
" clip-path="url(#p211f51d65d)" style="fill: #5cae94; fill-opacity: 0.2"/>
    <path d="M 345.896677 315.853467 
L 326.344869 308.665771 
L 327.575162 327.714402 
L 347.03311 334.955649 
z
" clip-path="url(#p211f51d65d)" style="fill: #5cae94; fill-opacity: 0.2"/>
    <path d="M 325.101963 289.421835 
L 305.641582 282.356772 
L 306.977415 301.545847 
L 326.344869 308.665771 
z
" clip-path="url(#p211f51d65d)" style="fill: #5cae94; fill-opacity: 0.2"/>
    <path d="M 304.292047 262.97088 
L 284.923231 256.028631 
L 286.364758 275.358349 
L 305.641582 282.356772 
z
" clip-path="url(#p211f51d65d)" style="fill: #5cae94; fill-opacity: 0.2"/>
    <path d="M 283.466913 236.500581 
L 264.189801 229.681327 
L 265.737175 249.151887 
L 284.923231 256.028631 
z
" clip-path="url(#p211f51d65d)" style="fill: #5cae94; fill-opacity: 0.2"/>
    <path d="M 344.748536 296.554495 
L 325.101963 289.421835 
L 326.344869 308.665771 
L 345.896677 315.853467 
z
" clip-path="url(#p211f51d65d)" style="fill: #5cae94; fill-opacity: 0.2"/>
    <path d="M 323.846247 269.979575 
L 304.292047 262.97088 
L 305.641582 282.356772 
L 325.101963 289.421835 
z
" clip-path="url(#p211f51d65d)" style="fill: #5cae94; fill-opacity: 0.2"/>
    <path d="M 302.9286 243.385127 
L 283.466913 236.500581 
L 284.923231 256.028631 
L 304.292047 262.97088 
z
" clip-path="url(#p211f51d65d)" style="fill: #5cae94; fill-opacity: 0.2"/>
    <path d="M 343.588506 277.055674 
L 323.846247 269.979575 
L 325.101963 289.421835 
L 344.748536 296.554495 
z
" clip-path="url(#p211f51d65d)" style="fill: #5cae94; fill-opacity: 0.2"/>
    <path d="M 322.577524 250.335909 
L 302.9286 243.385127 
L 304.292047 262.97088 
L 323.846247 269.979575 
z
" clip-path="url(#p211f51d65d)" style="fill: #5cae94; fill-opacity: 0.2"/>
    <path d="M 342.416401 257.353886 
L 322.577524 250.335909 
L 323.846247 269.979575 
L 343.588506 277.055674 
z
" clip-path="url(#p211f51d65d)" style="fill: #5cae94; fill-opacity: 0.2"/>
   </g>
   <g id="legend_1">
    <g id="patch_6">
     <path d="M 60.671 82.451512 
L 143.187459 82.451512 
Q 144.853459 82.451512 144.853459 80.785512 
L 144.853459 32.711 
Q 144.853459 31.045 143.187459 31.045 
L 60.671 31.045 
Q 59.005 31.045 59.005 32.711 
L 59.005 80.785512 
Q 59.005 82.451512 60.671 82.451512 
z
" style="fill: #ffffff; opacity: 0.8; stroke: #cccccc; stroke-linejoin: miter"/>
    </g>
    <g id="line2d_30">
     <path d="M 62.337 37.790998 
L 70.667 37.790998 
L 78.997 37.790998 
" style="fill: none; stroke: #1b9e77; stroke-width: 1.5; stroke-linecap: square"/>
    </g>
    <g id="text_28">
     <!-- SAT-1 -->
     <g transform="translate(85.661 40.706498) scale(0.0833 -0.0833)">
      <defs>
       <path id="DejaVuSans-53" d="M 3425 4513 
L 3425 3897 
Q 3066 4069 2747 4153 
Q 2428 4238 2131 4238 
Q 1616 4238 1336 4038 
Q 1056 3838 1056 3469 
Q 1056 3159 1242 3001 
Q 1428 2844 1947 2747 
L 2328 2669 
Q 3034 2534 3370 2195 
Q 3706 1856 3706 1288 
Q 3706 609 3251 259 
Q 2797 -91 1919 -91 
Q 1588 -91 1214 -16 
Q 841 59 441 206 
L 441 856 
Q 825 641 1194 531 
Q 1563 422 1919 422 
Q 2459 422 2753 634 
Q 3047 847 3047 1241 
Q 3047 1584 2836 1778 
Q 2625 1972 2144 2069 
L 1759 2144 
Q 1053 2284 737 2584 
Q 422 2884 422 3419 
Q 422 4038 858 4394 
Q 1294 4750 2059 4750 
Q 2388 4750 2728 4690 
Q 3069 4631 3425 4513 
z
" transform="scale(0.015625)"/>
       <path id="DejaVuSans-41" d="M 2188 4044 
L 1331 1722 
L 3047 1722 
L 2188 4044 
z
M 1831 4666 
L 2547 4666 
L 4325 0 
L 3669 0 
L 3244 1197 
L 1141 1197 
L 716 0 
L 50 0 
L 1831 4666 
z
" transform="scale(0.015625)"/>
       <path id="DejaVuSans-2d" d="M 313 2009 
L 1997 2009 
L 1997 1497 
L 313 1497 
L 313 2009 
z
" transform="scale(0.015625)"/>
      </defs>
      <use xlink:href="#DejaVuSans-53"/>
      <use xlink:href="#DejaVuSans-41" transform="translate(65.351562 0)"/>
      <use xlink:href="#DejaVuSans-54" transform="translate(126.009766 0)"/>
      <use xlink:href="#DejaVuSans-2d" transform="translate(177.96875 0)"/>
      <use xlink:href="#DejaVuSans-31" transform="translate(214.052734 0)"/>
     </g>
    </g>
    <g id="line2d_31">
     <path d="M 62.337 50.017877 
L 70.667 50.017877 
L 78.997 50.017877 
" style="fill: none; stroke: #d95f02; stroke-width: 1.5; stroke-linecap: square"/>
    </g>
    <g id="text_29">
     <!-- SAT-2 -->
     <g transform="translate(85.661 52.933377) scale(0.0833 -0.0833)">
      <use xlink:href="#DejaVuSans-53"/>
      <use xlink:href="#DejaVuSans-41" transform="translate(65.351562 0)"/>
      <use xlink:href="#DejaVuSans-54" transform="translate(126.009766 0)"/>
      <use xlink:href="#DejaVuSans-2d" transform="translate(177.96875 0)"/>
      <use xlink:href="#DejaVuSans-32" transform="translate(214.052734 0)"/>
     </g>
    </g>
    <g id="line2d_32">
     <path d="M 62.337 62.244755 
L 70.667 62.244755 
L 78.997 62.244755 
" style="fill: none; stroke: #7570b3; stroke-width: 1.5; stroke-linecap: square"/>
    </g>
    <g id="text_30">
     <!-- SAT-3 -->
     <g transform="translate(85.661 65.160255) scale(0.0833 -0.0833)">
      <use xlink:href="#DejaVuSans-53"/>
      <use xlink:href="#DejaVuSans-41" transform="translate(65.351562 0)"/>
      <use xlink:href="#DejaVuSans-54" transform="translate(126.009766 0)"/>
      <use xlink:href="#DejaVuSans-2d" transform="translate(177.96875 0)"/>
      <use xlink:href="#DejaVuSans-33" transform="translate(214.052734 0)"/>
     </g>
    </g>
    <g id="Path3DCollection_2">
     <g>
      <use xlink:href="#m4df81422c9" x="70.667" y="75.200508" style="stroke: #000000"/>
     </g>
    </g>
    <g id="text_31">
     <!-- Tehran target -->
     <g transform="translate(85.661 77.387133) scale(0.0833 -0.0833)">
      <use xlink:href="#DejaVuSans-54"/>
      <use xlink:href="#DejaVuSans-65" transform="translate(44.083984 0)"/>
      <use xlink:href="#DejaVuSans-68" transform="translate(105.607422 0)"/>
      <use xlink:href="#DejaVuSans-72" transform="translate(168.986328 0)"/>
      <use xlink:href="#DejaVuSans-61" transform="translate(210.099609 0)"/>
      <use xlink:href="#DejaVuSans-6e" transform="translate(271.378906 0)"/>
      <use xlink:href="#DejaVuSans-20" transform="translate(334.757812 0)"/>
      <use xlink:href="#DejaVuSans-74" transform="translate(366.544922 0)"/>
      <use xlink:href="#DejaVuSans-61" transform="translate(405.753906 0)"/>
      <use xlink:href="#DejaVuSans-72" transform="translate(467.033203 0)"/>
      <use xlink:href="#DejaVuSans-67" transform="translate(506.396484 0)"/>
      <use xlink:href="#DejaVuSans-65" transform="translate(569.873047 0)"/>
      <use xlink:href="#DejaVuSans-74" transform="translate(631.396484 0)"/>
     </g>
    </g>
   </g>
  </g>
 </g>
 <defs>
  <clipPath id="p211f51d65d">
   <rect x="54.84" y="26.88" width="466.32" height="466.32"/>
  </clipPath>
 </defs>
</svg>
