<?xml version="1.0" encoding="utf-8" standalone="no"?>
<!DOCTYPE svg PUBLIC "-//W3C//DTD SVG 1.1//EN"
  "http://www.w3.org/Graphics/SVG/1.1/DTD/svg11.dtd">
<svg xmlns:xlink="http://www.w3.org/1999/xlink" width="864pt" height="576pt" viewBox="0 0 864 576" xmlns="http://www.w3.org/2000/svg" version="1.1">
 <metadata>
  <rdf:RDF xmlns:dc="http://purl.org/dc/elements/1.1/" xmlns:cc="http://creativecommons.org/ns#" xmlns:rdf="http://www.w3.org/1999/02/22-rdf-syntax-ns#">
   <cc:Work>
    <dc:type rdf:resource="http://purl.org/dc/dcmitype/StillImage"/>
    <dc:date>2025-11-01T08:07:48.294748</dc:date>
    <dc:format>image/svg+xml</dc:format>
    <dc:creator>
     <cc:Agent>
      <dc:title>Matplotlib v3.10.7, https://matplotlib.org/</dc:title>
     </cc:Agent>
    </dc:creator>
   </cc:Work>
  </rdf:RDF>
 </metadata>
 <defs>
  <style type="text/css">*{stroke-linejoin: round; stroke-linecap: butt}</style>
 </defs>
 <g id="figure_1">
  <g id="patch_1">
   <path d="M 0 576 
L 864 576 
L 864 0 
L 0 0 
z
" style="fill: #ffffff"/>
  </g>
  <g id="axes_1">
   <g id="patch_2">
    <path d="M 57.35 267.85 
L 424.125 267.85 
L 424.125 26.88 
L 57.35 26.88 
z
" style="fill: #ffffff"/>
   </g>
   <g id="matplotlib.axis_1">
    <g id="xtick_1">
     <g id="line2d_1">
      <path d="M 111.06957 267.85 
L 111.06957 26.88 
" clip-path="url(#p3b7556b6d5)" style="fill: none; stroke-dasharray: 0.6,0.99; stroke-dashoffset: 0; stroke: #b0b0b0; stroke-width: 0.6"/>
     </g>
     <g id="line2d_2">
      <defs>
       <path id="m75471c7c7a" d="M 0 0 
L 0 3.5 
" style="stroke: #000000; stroke-width: 0.8"/>
      </defs>
      <g>
       <use xlink:href="#m75471c7c7a" x="111.06957" y="267.85" style="stroke: #000000; stroke-width: 0.8"/>
      </g>
     </g>
    </g>
    <g id="xtick_2">
     <g id="line2d_3">
      <path d="M 166.64154 267.85 
L 166.64154 26.88 
" clip-path="url(#p3b7556b6d5)" style="fill: none; stroke-dasharray: 0.6,0.99; stroke-dashoffset: 0; stroke: #b0b0b0; stroke-width: 0.6"/>
     </g>
     <g id="line2d_4">
      <g>
       <use xlink:href="#m75471c7c7a" x="166.64154" y="267.85" style="stroke: #000000; stroke-width: 0.8"/>
      </g>
     </g>
    </g>
    <g id="xtick_3">
     <g id="line2d_5">
      <path d="M 222.21351 267.85 
L 222.21351 26.88 
" clip-path="url(#p3b7556b6d5)" style="fill: none; stroke-dasharray: 0.6,0.99; stroke-dashoffset: 0; stroke: #b0b0b0; stroke-width: 0.6"/>
     </g>
     <g id="line2d_6">
      <g>
       <use xlink:href="#m75471c7c7a" x="222.21351" y="267.85" style="stroke: #000000; stroke-width: 0.8"/>
      </g>
     </g>
    </g>
    <g id="xtick_4">
     <g id="line2d_7">
      <path d="M 277.78548 267.85 
L 277.78548 26.88 
" clip-path="url(#p3b7556b6d5)" style="fill: none; stroke-dasharray: 0.6,0.99; stroke-dashoffset: 0; stroke: #b0b0b0; stroke-width: 0.6"/>
     </g>
     <g id="line2d_8">
      <g>
       <use xlink:href="#m75471c7c7a" x="277.78548" y="267.85" style="stroke: #000000; stroke-width: 0.8"/>
      </g>
     </g>
    </g>
    <g id="xtick_5">
     <g id="line2d_9">
      <path d="M 333.35745 267.85 
L 333.35745 26.88 
" clip-path="url(#p3b7556b6d5)" style="fill: none; stroke-dasharray: 0.6,0.99; stroke-dashoffset: 0; stroke: #b0b0b0; stroke-width: 0.6"/>
     </g>
     <g id="line2d_10">
      <g>
       <use xlink:href="#m75471c7c7a" x="333.35745" y="267.85" style="stroke: #000000; stroke-width: 0.8"/>
      </g>
     </g>
    </g>
    <g id="xtick_6">
     <g id="line2d_11">
      <path d="M 388.929419 267.85 
L 388.929419 26.88 
" clip-path="url(#p3b7556b6d5)" style="fill: none; stroke-dasharray: 0.6,0.99; stroke-dashoffset: 0; stroke: #b0b0b0; stroke-width: 0.6"/>
     </g>
     <g id="line2d_12">
      <g>
       <use xlink:href="#m75471c7c7a" x="388.929419" y="267.85" style="stroke: #000000; stroke-width: 0.8"/>
      </g>
     </g>
    </g>
   </g>
   <g id="matplotlib.axis_2">
    <g id="ytick_1">
     <g id="line2d_13">
      <path d="M 57.35 217.042085 
L 424.125 217.042085 
" clip-path="url(#p3b7556b6d5)" style="fill: none; stroke-dasharray: 0.6,0.99; stroke-dashoffset: 0; stroke: #b0b0b0; stroke-width: 0.6"/>
     </g>
     <g id="line2d_14">
      <defs>
       <path id="mdcab30a58d" d="M 0 0 
L -3.5 0 
" style="stroke: #000000; stroke-width: 0.8"/>
      </defs>
      <g>
       <use xlink:href="#mdcab30a58d" x="57.35" y="217.042085" style="stroke: #000000; stroke-width: 0.8"/>
      </g>
     </g>
     <g id="text_1">
      <!-- 6895 -->
      <g transform="translate(24.9 220.841304) scale(0.1 -0.1)">
       <defs>
        <path id="DejaVuSans-36" d="M 2113 2584 
Q 1688 2584 1439 2293 
Q 1191 2003 1191 1497 
Q 1191 994 1439 701 
Q 1688 409 2113 409 
Q 2538 409 2786 701 
Q 3034 994 3034 1497 
Q 3034 2003 2786 2293 
Q 2538 2584 2113 2584 
z
M 3366 4563 
L 3366 3988 
Q 3128 4100 2886 4159 
Q 2644 4219 2406 4219 
Q 1781 4219 1451 3797 
Q 1122 3375 1075 2522 
Q 1259 2794 1537 2939 
Q 1816 3084 2150 3084 
Q 2853 3084 3261 2657 
Q 3669 2231 3669 1497 
Q 3669 778 3244 343 
Q 2819 -91 2113 -91 
Q 1303 -91 875 529 
Q 447 1150 447 2328 
Q 447 3434 972 4092 
Q 1497 4750 2381 4750 
Q 2619 4750 2861 4703 
Q 3103 4656 3366 4563 
z
" transform="scale(0.015625)"/>
        <path id="DejaVuSans-38" d="M 2034 2216 
Q 1584 2216 1326 1975 
Q 1069 1734 1069 1313 
Q 1069 891 1326 650 
Q 1584 409 2034 409 
Q 2484 409 2743 651 
Q 3003 894 3003 1313 
Q 3003 1734 2745 1975 
Q 2488 2216 2034 2216 
z
M 1403 2484 
Q 997 2584 770 2862 
Q 544 3141 544 3541 
Q 544 4100 942 4425 
Q 1341 4750 2034 4750 
Q 2731 4750 3128 4425 
Q 3525 4100 3525 3541 
Q 3525 3141 3298 2862 
Q 3072 2584 2669 2484 
Q 3125 2378 3379 2068 
Q 3634 1759 3634 1313 
Q 3634 634 3220 271 
Q 2806 -91 2034 -91 
Q 1263 -91 848 271 
Q 434 634 434 1313 
Q 434 1759 690 2068 
Q 947 2378 1403 2484 
z
M 1172 3481 
Q 1172 3119 1398 2916 
Q 1625 2713 2034 2713 
Q 2441 2713 2670 2916 
Q 2900 3119 2900 3481 
Q 2900 3844 2670 4047 
Q 2441 4250 2034 4250 
Q 1625 4250 1398 4047 
Q 1172 3844 1172 3481 
z
" transform="scale(0.015625)"/>
        <path id="DejaVuSans-39" d="M 703 97 
L 703 672 
Q 941 559 1184 500 
Q 1428 441 1663 441 
Q 2288 441 2617 861 
Q 2947 1281 2994 2138 
Q 2813 1869 2534 1725 
Q 2256 1581 1919 1581 
Q 1219 1581 811 2004 
Q 403 2428 403 3163 
Q 403 3881 828 4315 
Q 1253 4750 1959 4750 
Q 2769 4750 3195 4129 
Q 3622 3509 3622 2328 
Q 3622 1225 3098 567 
Q 2575 -91 1691 -91 
Q 1453 -91 1209 -44 
Q 966 3 703 97 
z
M 1959 2075 
Q 2384 2075 2632 2365 
Q 2881 2656 2881 3163 
Q 2881 3666 2632 3958 
Q 2384 4250 1959 4250 
Q 1534 4250 1286 3958 
Q 1038 3666 1038 3163 
Q 1038 2656 1286 2365 
Q 1534 2075 1959 2075 
z
" transform="scale(0.015625)"/>
        <path id="DejaVuSans-35" d="M 691 4666 
L 3169 4666 
L 3169 4134 
L 1269 4134 
L 1269 2991 
Q 1406 3038 1543 3061 
Q 1681 3084 1819 3084 
Q 2600 3084 3056 2656 
Q 3513 2228 3513 1497 
Q 3513 744 3044 326 
Q 2575 -91 1722 -91 
Q 1428 -91 1123 -41 
Q 819 9 494 109 
L 494 744 
Q 775 591 1075 516 
Q 1375 441 1709 441 
Q 2250 441 2565 725 
Q 2881 1009 2881 1497 
Q 2881 1984 2565 2268 
Q 2250 2553 1709 2553 
Q 1456 2553 1204 2497 
Q 953 2441 691 2322 
L 691 4666 
z
" transform="scale(0.015625)"/>
       </defs>
       <use xlink:href="#DejaVuSans-36"/>
       <use xlink:href="#DejaVuSans-38" transform="translate(63.623047 0)"/>
       <use xlink:href="#DejaVuSans-39" transform="translate(127.246094 0)"/>
       <use xlink:href="#DejaVuSans-35" transform="translate(190.869141 0)"/>
      </g>
     </g>
    </g>
    <g id="ytick_2">
     <g id="line2d_15">
      <path d="M 57.35 164.391963 
L 424.125 164.391963 
" clip-path="url(#p3b7556b6d5)" style="fill: none; stroke-dasharray: 0.6,0.99; stroke-dashoffset: 0; stroke: #b0b0b0; stroke-width: 0.6"/>
     </g>
     <g id="line2d_16">
      <g>
       <use xlink:href="#mdcab30a58d" x="57.35" y="164.391963" style="stroke: #000000; stroke-width: 0.8"/>
      </g>
     </g>
     <g id="text_2">
      <!-- 6900 -->
      <g transform="translate(24.9 168.191181) scale(0.1 -0.1)">
       <defs>
        <path id="DejaVuSans-30" d="M 2034 4250 
Q 1547 4250 1301 3770 
Q 1056 3291 1056 2328 
Q 1056 1369 1301 889 
Q 1547 409 2034 409 
Q 2525 409 2770 889 
Q 3016 1369 3016 2328 
Q 3016 3291 2770 3770 
Q 2525 4250 2034 4250 
z
M 2034 4750 
Q 2819 4750 3233 4129 
Q 3647 3509 3647 2328 
Q 3647 1150 3233 529 
Q 2819 -91 2034 -91 
Q 1250 -91 836 529 
Q 422 1150 422 2328 
Q 422 3509 836 4129 
Q 1250 4750 2034 4750 
z
" transform="scale(0.015625)"/>
       </defs>
       <use xlink:href="#DejaVuSans-36"/>
       <use xlink:href="#DejaVuSans-39" transform="translate(63.623047 0)"/>
       <use xlink:href="#DejaVuSans-30" transform="translate(127.246094 0)"/>
       <use xlink:href="#DejaVuSans-30" transform="translate(190.869141 0)"/>
      </g>
     </g>
    </g>
    <g id="ytick_3">
     <g id="line2d_17">
      <path d="M 57.35 111.74184 
L 424.125 111.74184 
" clip-path="url(#p3b7556b6d5)" style="fill: none; stroke-dasharray: 0.6,0.99; stroke-dashoffset: 0; stroke: #b0b0b0; stroke-width: 0.6"/>
     </g>
     <g id="line2d_18">
      <g>
       <use xlink:href="#mdcab30a58d" x="57.35" y="111.74184" style="stroke: #000000; stroke-width: 0.8"/>
      </g>
     </g>
     <g id="text_3">
      <!-- 6905 -->
      <g transform="translate(24.9 115.541059) scale(0.1 -0.1)">
       <use xlink:href="#DejaVuSans-36"/>
       <use xlink:href="#DejaVuSans-39" transform="translate(63.623047 0)"/>
       <use xlink:href="#DejaVuSans-30" transform="translate(127.246094 0)"/>
       <use xlink:href="#DejaVuSans-35" transform="translate(190.869141 0)"/>
      </g>
     </g>
    </g>
    <g id="ytick_4">
     <g id="line2d_19">
      <path d="M 57.35 59.091718 
L 424.125 59.091718 
" clip-path="url(#p3b7556b6d5)" style="fill: none; stroke-dasharray: 0.6,0.99; stroke-dashoffset: 0; stroke: #b0b0b0; stroke-width: 0.6"/>
     </g>
     <g id="line2d_20">
      <g>
       <use xlink:href="#mdcab30a58d" x="57.35" y="59.091718" style="stroke: #000000; stroke-width: 0.8"/>
      </g>
     </g>
     <g id="text_4">
      <!-- 6910 -->
      <g transform="translate(24.9 62.890937) scale(0.1 -0.1)">
       <defs>
        <path id="DejaVuSans-31" d="M 794 531 
L 1825 531 
L 1825 4091 
L 703 3866 
L 703 4441 
L 1819 4666 
L 2450 4666 
L 2450 531 
L 3481 531 
L 3481 0 
L 794 0 
L 794 531 
z
" transform="scale(0.015625)"/>
       </defs>
       <use xlink:href="#DejaVuSans-36"/>
       <use xlink:href="#DejaVuSans-39" transform="translate(63.623047 0)"/>
       <use xlink:href="#DejaVuSans-31" transform="translate(127.246094 0)"/>
       <use xlink:href="#DejaVuSans-30" transform="translate(190.869141 0)"/>
      </g>
     </g>
    </g>
    <g id="text_5">
     <!-- Semi-major axis [km] -->
     <g transform="translate(18.820312 200.979844) rotate(-90) scale(0.1 -0.1)">
      <defs>
       <path id="DejaVuSans-53" d="M 3425 4513 
L 3425 3897 
Q 3066 4069 2747 4153 
Q 2428 4238 2131 4238 
Q 1616 4238 1336 4038 
Q 1056 3838 1056 3469 
Q 1056 3159 1242 3001 
Q 1428 2844 1947 2747 
L 2328 2669 
Q 3034 2534 3370 2195 
Q 3706 1856 3706 1288 
Q 3706 609 3251 259 
Q 2797 -91 1919 -91 
Q 1588 -91 1214 -16 
Q 841 59 441 206 
L 441 856 
Q 825 641 1194 531 
Q 1563 422 1919 422 
Q 2459 422 2753 634 
Q 3047 847 3047 1241 
Q 3047 1584 2836 1778 
Q 2625 1972 2144 2069 
L 1759 2144 
Q 1053 2284 737 2584 
Q 422 2884 422 3419 
Q 422 4038 858 4394 
Q 1294 4750 2059 4750 
Q 2388 4750 2728 4690 
Q 3069 4631 3425 4513 
z
" transform="scale(0.015625)"/>
       <path id="DejaVuSans-65" d="M 3597 1894 
L 3597 1613 
L 953 1613 
Q 991 1019 1311 708 
Q 1631 397 2203 397 
Q 2534 397 2845 478 
Q 3156 559 3463 722 
L 3463 178 
Q 3153 47 2828 -22 
Q 2503 -91 2169 -91 
Q 1331 -91 842 396 
Q 353 884 353 1716 
Q 353 2575 817 3079 
Q 1281 3584 2069 3584 
Q 2775 3584 3186 3129 
Q 3597 2675 3597 1894 
z
M 3022 2063 
Q 3016 2534 2758 2815 
Q 2500 3097 2075 3097 
Q 1594 3097 1305 2825 
Q 1016 2553 972 2059 
L 3022 2063 
z
" transform="scale(0.015625)"/>
       <path id="DejaVuSans-6d" d="M 3328 2828 
Q 3544 3216 3844 3400 
Q 4144 3584 4550 3584 
Q 5097 3584 5394 3201 
Q 5691 2819 5691 2113 
L 5691 0 
L 5113 0 
L 5113 2094 
Q 5113 2597 4934 2840 
Q 4756 3084 4391 3084 
Q 3944 3084 3684 2787 
Q 3425 2491 3425 1978 
L 3425 0 
L 2847 0 
L 2847 2094 
Q 2847 2600 2669 2842 
Q 2491 3084 2119 3084 
Q 1678 3084 1418 2786 
Q 1159 2488 1159 1978 
L 1159 0 
L 581 0 
L 581 3500 
L 1159 3500 
L 1159 2956 
Q 1356 3278 1631 3431 
Q 1906 3584 2284 3584 
Q 2666 3584 2933 3390 
Q 3200 3197 3328 2828 
z
" transform="scale(0.015625)"/>
       <path id="DejaVuSans-69" d="M 603 3500 
L 1178 3500 
L 1178 0 
L 603 0 
L 603 3500 
z
M 603 4863 
L 1178 4863 
L 1178 4134 
L 603 4134 
L 603 4863 
z
" transform="scale(0.015625)"/>
       <path id="DejaVuSans-2d" d="M 313 2009 
L 1997 2009 
L 1997 1497 
L 313 1497 
L 313 2009 
z
" transform="scale(0.015625)"/>
       <path id="DejaVuSans-61" d="M 2194 1759 
Q 1497 1759 1228 1600 
Q 959 1441 959 1056 
Q 959 750 1161 570 
Q 1363 391 1709 391 
Q 2188 391 2477 730 
Q 2766 1069 2766 1631 
L 2766 1759 
L 2194 1759 
z
M 3341 1997 
L 3341 0 
L 2766 0 
L 2766 531 
Q 2569 213 2275 61 
Q 1981 -91 1556 -91 
Q 1019 -91 701 211 
Q 384 513 384 1019 
Q 384 1609 779 1909 
Q 1175 2209 1959 2209 
L 2766 2209 
L 2766 2266 
Q 2766 2663 2505 2880 
Q 2244 3097 1772 3097 
Q 1472 3097 1187 3025 
Q 903 2953 641 2809 
L 641 3341 
Q 956 3463 1253 3523 
Q 1550 3584 1831 3584 
Q 2591 3584 2966 3190 
Q 3341 2797 3341 1997 
z
" transform="scale(0.015625)"/>
       <path id="DejaVuSans-6a" d="M 603 3500 
L 1178 3500 
L 1178 -63 
Q 1178 -731 923 -1031 
Q 669 -1331 103 -1331 
L -116 -1331 
L -116 -844 
L 38 -844 
Q 366 -844 484 -692 
Q 603 -541 603 -63 
L 603 3500 
z
M 603 4863 
L 1178 4863 
L 1178 4134 
L 603 4134 
L 603 4863 
z
" transform="scale(0.015625)"/>
       <path id="DejaVuSans-6f" d="M 1959 3097 
Q 1497 3097 1228 2736 
Q 959 2375 959 1747 
Q 959 1119 1226 758 
Q 1494 397 1959 397 
Q 2419 397 2687 759 
Q 2956 1122 2956 1747 
Q 2956 2369 2687 2733 
Q 2419 3097 1959 3097 
z
M 1959 3584 
Q 2709 3584 3137 3096 
Q 3566 2609 3566 1747 
Q 3566 888 3137 398 
Q 2709 -91 1959 -91 
Q 1206 -91 779 398 
Q 353 888 353 1747 
Q 353 2609 779 3096 
Q 1206 3584 1959 3584 
z
" transform="scale(0.015625)"/>
       <path id="DejaVuSans-72" d="M 2631 2963 
Q 2534 3019 2420 3045 
Q 2306 3072 2169 3072 
Q 1681 3072 1420 2755 
Q 1159 2438 1159 1844 
L 1159 0 
L 581 0 
L 581 3500 
L 1159 3500 
L 1159 2956 
Q 1341 3275 1631 3429 
Q 1922 3584 2338 3584 
Q 2397 3584 2469 3576 
Q 2541 3569 2628 3553 
L 2631 2963 
z
" transform="scale(0.015625)"/>
       <path id="DejaVuSans-20" transform="scale(0.015625)"/>
       <path id="DejaVuSans-78" d="M 3513 3500 
L 2247 1797 
L 3578 0 
L 2900 0 
L 1881 1375 
L 863 0 
L 184 0 
L 1544 1831 
L 300 3500 
L 978 3500 
L 1906 2253 
L 2834 3500 
L 3513 3500 
z
" transform="scale(0.015625)"/>
       <path id="DejaVuSans-73" d="M 2834 3397 
L 2834 2853 
Q 2591 2978 2328 3040 
Q 2066 3103 1784 3103 
Q 1356 3103 1142 2972 
Q 928 2841 928 2578 
Q 928 2378 1081 2264 
Q 1234 2150 1697 2047 
L 1894 2003 
Q 2506 1872 2764 1633 
Q 3022 1394 3022 966 
Q 3022 478 2636 193 
Q 2250 -91 1575 -91 
Q 1294 -91 989 -36 
Q 684 19 347 128 
L 347 722 
Q 666 556 975 473 
Q 1284 391 1588 391 
Q 1994 391 2212 530 
Q 2431 669 2431 922 
Q 2431 1156 2273 1281 
Q 2116 1406 1581 1522 
L 1381 1569 
Q 847 1681 609 1914 
Q 372 2147 372 2553 
Q 372 3047 722 3315 
Q 1072 3584 1716 3584 
Q 2034 3584 2315 3537 
Q 2597 3491 2834 3397 
z
" transform="scale(0.015625)"/>
       <path id="DejaVuSans-5b" d="M 550 4863 
L 1875 4863 
L 1875 4416 
L 1125 4416 
L 1125 -397 
L 1875 -397 
L 1875 -844 
L 550 -844 
L 550 4863 
z
" transform="scale(0.015625)"/>
       <path id="DejaVuSans-6b" d="M 581 4863 
L 1159 4863 
L 1159 1991 
L 2875 3500 
L 3609 3500 
L 1753 1863 
L 3688 0 
L 2938 0 
L 1159 1709 
L 1159 0 
L 581 0 
L 581 4863 
z
" transform="scale(0.015625)"/>
       <path id="DejaVuSans-5d" d="M 1947 4863 
L 1947 -844 
L 622 -844 
L 622 -397 
L 1369 -397 
L 1369 4416 
L 622 4416 
L 622 4863 
L 1947 4863 
z
" transform="scale(0.015625)"/>
      </defs>
      <use xlink:href="#DejaVuSans-53"/>
      <use xlink:href="#DejaVuSans-65" transform="translate(63.476562 0)"/>
      <use xlink:href="#DejaVuSans-6d" transform="translate(125 0)"/>
      <use xlink:href="#DejaVuSans-69" transform="translate(222.412109 0)"/>
      <use xlink:href="#DejaVuSans-2d" transform="translate(250.195312 0)"/>
      <use xlink:href="#DejaVuSans-6d" transform="translate(286.279297 0)"/>
      <use xlink:href="#DejaVuSans-61" transform="translate(383.691406 0)"/>
      <use xlink:href="#DejaVuSans-6a" transform="translate(444.970703 0)"/>
      <use xlink:href="#DejaVuSans-6f" transform="translate(472.753906 0)"/>
      <use xlink:href="#DejaVuSans-72" transform="translate(533.935547 0)"/>
      <use xlink:href="#DejaVuSans-20" transform="translate(575.048828 0)"/>
      <use xlink:href="#DejaVuSans-61" transform="translate(606.835938 0)"/>
      <use xlink:href="#DejaVuSans-78" transform="translate(668.115234 0)"/>
      <use xlink:href="#DejaVuSans-69" transform="translate(727.294922 0)"/>
      <use xlink:href="#DejaVuSans-73" transform="translate(755.078125 0)"/>
      <use xlink:href="#DejaVuSans-20" transform="translate(807.177734 0)"/>
      <use xlink:href="#DejaVuSans-5b" transform="translate(838.964844 0)"/>
      <use xlink:href="#DejaVuSans-6b" transform="translate(877.978516 0)"/>
      <use xlink:href="#DejaVuSans-6d" transform="translate(935.888672 0)"/>
      <use xlink:href="#DejaVuSans-5d" transform="translate(1033.300781 0)"/>
     </g>
    </g>
   </g>
   <g id="line2d_21">
    <path d="M 74.02159 256.874822 
L 85.135984 256.896818 
L 407.453409 256.874822 
L 407.453409 256.874822 
" clip-path="url(#p3b7556b6d5)" style="fill: none; stroke: #1f77b4; stroke-width: 1.5; stroke-linecap: square"/>
   </g>
   <g id="line2d_22">
    <path d="M 74.02159 256.874822 
L 85.135984 256.896818 
L 407.453409 256.874822 
L 407.453409 256.874822 
" clip-path="url(#p3b7556b6d5)" style="fill: none; stroke: #ff7f0e; stroke-width: 1.5; stroke-linecap: square"/>
   </g>
   <g id="line2d_23">
    <path d="M 74.02159 37.833182 
L 85.135984 37.855345 
L 407.453409 37.833182 
L 407.453409 37.833182 
" clip-path="url(#p3b7556b6d5)" style="fill: none; stroke: #2ca02c; stroke-width: 1.5; stroke-linecap: square"/>
   </g>
   <g id="patch_3">
    <path d="M 57.35 267.85 
L 57.35 26.88 
" style="fill: none; stroke: #000000; stroke-width: 0.8; stroke-linejoin: miter; stroke-linecap: square"/>
   </g>
   <g id="patch_4">
    <path d="M 424.125 267.85 
L 424.125 26.88 
" style="fill: none; stroke: #000000; stroke-width: 0.8; stroke-linejoin: miter; stroke-linecap: square"/>
   </g>
   <g id="patch_5">
    <path d="M 57.349999 267.85 
L 424.125 267.85 
" style="fill: none; stroke: #000000; stroke-width: 0.8; stroke-linejoin: miter; stroke-linecap: square"/>
   </g>
   <g id="patch_6">
    <path d="M 57.349999 26.88 
L 424.125 26.88 
" style="fill: none; stroke: #000000; stroke-width: 0.8; stroke-linejoin: miter; stroke-linecap: square"/>
   </g>
   <g id="text_6">
    <!-- Orbital element stability over the formation window -->
    <g transform="translate(85.175313 20.88) scale(0.12 -0.12)">
     <defs>
      <path id="DejaVuSans-4f" d="M 2522 4238 
Q 1834 4238 1429 3725 
Q 1025 3213 1025 2328 
Q 1025 1447 1429 934 
Q 1834 422 2522 422 
Q 3209 422 3611 934 
Q 4013 1447 4013 2328 
Q 4013 3213 3611 3725 
Q 3209 4238 2522 4238 
z
M 2522 4750 
Q 3503 4750 4090 4092 
Q 4678 3434 4678 2328 
Q 4678 1225 4090 567 
Q 3503 -91 2522 -91 
Q 1538 -91 948 565 
Q 359 1222 359 2328 
Q 359 3434 948 4092 
Q 1538 4750 2522 4750 
z
" transform="scale(0.015625)"/>
      <path id="DejaVuSans-62" d="M 3116 1747 
Q 3116 2381 2855 2742 
Q 2594 3103 2138 3103 
Q 1681 3103 1420 2742 
Q 1159 2381 1159 1747 
Q 1159 1113 1420 752 
Q 1681 391 2138 391 
Q 2594 391 2855 752 
Q 3116 1113 3116 1747 
z
M 1159 2969 
Q 1341 3281 1617 3432 
Q 1894 3584 2278 3584 
Q 2916 3584 3314 3078 
Q 3713 2572 3713 1747 
Q 3713 922 3314 415 
Q 2916 -91 2278 -91 
Q 1894 -91 1617 61 
Q 1341 213 1159 525 
L 1159 0 
L 581 0 
L 581 4863 
L 1159 4863 
L 1159 2969 
z
" transform="scale(0.015625)"/>
      <path id="DejaVuSans-74" d="M 1172 4494 
L 1172 3500 
L 2356 3500 
L 2356 3053 
L 1172 3053 
L 1172 1153 
Q 1172 725 1289 603 
Q 1406 481 1766 481 
L 2356 481 
L 2356 0 
L 1766 0 
Q 1100 0 847 248 
Q 594 497 594 1153 
L 594 3053 
L 172 3053 
L 172 3500 
L 594 3500 
L 594 4494 
L 1172 4494 
z
" transform="scale(0.015625)"/>
      <path id="DejaVuSans-6c" d="M 603 4863 
L 1178 4863 
L 1178 0 
L 603 0 
L 603 4863 
z
" transform="scale(0.015625)"/>
      <path id="DejaVuSans-6e" d="M 3513 2113 
L 3513 0 
L 2938 0 
L 2938 2094 
Q 2938 2591 2744 2837 
Q 2550 3084 2163 3084 
Q 1697 3084 1428 2787 
Q 1159 2491 1159 1978 
L 1159 0 
L 581 0 
L 581 3500 
L 1159 3500 
L 1159 2956 
Q 1366 3272 1645 3428 
Q 1925 3584 2291 3584 
Q 2894 3584 3203 3211 
Q 3513 2838 3513 2113 
z
" transform="scale(0.015625)"/>
      <path id="DejaVuSans-79" d="M 2059 -325 
Q 1816 -950 1584 -1140 
Q 1353 -1331 966 -1331 
L 506 -1331 
L 506 -850 
L 844 -850 
Q 1081 -850 1212 -737 
Q 1344 -625 1503 -206 
L 1606 56 
L 191 3500 
L 800 3500 
L 1894 763 
L 2988 3500 
L 3597 3500 
L 2059 -325 
z
" transform="scale(0.015625)"/>
      <path id="DejaVuSans-76" d="M 191 3500 
L 800 3500 
L 1894 563 
L 2988 3500 
L 3597 3500 
L 2284 0 
L 1503 0 
L 191 3500 
z
" transform="scale(0.015625)"/>
      <path id="DejaVuSans-68" d="M 3513 2113 
L 3513 0 
L 2938 0 
L 2938 2094 
Q 2938 2591 2744 2837 
Q 2550 3084 2163 3084 
Q 1697 3084 1428 2787 
Q 1159 2491 1159 1978 
L 1159 0 
L 581 0 
L 581 4863 
L 1159 4863 
L 1159 2956 
Q 1366 3272 1645 3428 
Q 1925 3584 2291 3584 
Q 2894 3584 3203 3211 
Q 3513 2838 3513 2113 
z
" transform="scale(0.015625)"/>
      <path id="DejaVuSans-66" d="M 2375 4863 
L 2375 4384 
L 1825 4384 
Q 1516 4384 1395 4259 
Q 1275 4134 1275 3809 
L 1275 3500 
L 2222 3500 
L 2222 3053 
L 1275 3053 
L 1275 0 
L 697 0 
L 697 3053 
L 147 3053 
L 147 3500 
L 697 3500 
L 697 3744 
Q 697 4328 969 4595 
Q 1241 4863 1831 4863 
L 2375 4863 
z
" transform="scale(0.015625)"/>
      <path id="DejaVuSans-77" d="M 269 3500 
L 844 3500 
L 1563 769 
L 2278 3500 
L 2956 3500 
L 3675 769 
L 4391 3500 
L 4966 3500 
L 4050 0 
L 3372 0 
L 2619 2869 
L 1863 0 
L 1184 0 
L 269 3500 
z
" transform="scale(0.015625)"/>
      <path id="DejaVuSans-64" d="M 2906 2969 
L 2906 4863 
L 3481 4863 
L 3481 0 
L 2906 0 
L 2906 525 
Q 2725 213 2448 61 
Q 2172 -91 1784 -91 
Q 1150 -91 751 415 
Q 353 922 353 1747 
Q 353 2572 751 3078 
Q 1150 3584 1784 3584 
Q 2172 3584 2448 3432 
Q 2725 3281 2906 2969 
z
M 947 1747 
Q 947 1113 1208 752 
Q 1469 391 1925 391 
Q 2381 391 2643 752 
Q 2906 1113 2906 1747 
Q 2906 2381 2643 2742 
Q 2381 3103 1925 3103 
Q 1469 3103 1208 2742 
Q 947 2381 947 1747 
z
" transform="scale(0.015625)"/>
     </defs>
     <use xlink:href="#DejaVuSans-4f"/>
     <use xlink:href="#DejaVuSans-72" transform="translate(78.710938 0)"/>
     <use xlink:href="#DejaVuSans-62" transform="translate(119.824219 0)"/>
     <use xlink:href="#DejaVuSans-69" transform="translate(183.300781 0)"/>
     <use xlink:href="#DejaVuSans-74" transform="translate(211.083984 0)"/>
     <use xlink:href="#DejaVuSans-61" transform="translate(250.292969 0)"/>
     <use xlink:href="#DejaVuSans-6c" transform="translate(311.572266 0)"/>
     <use xlink:href="#DejaVuSans-20" transform="translate(339.355469 0)"/>
     <use xlink:href="#DejaVuSans-65" transform="translate(371.142578 0)"/>
     <use xlink:href="#DejaVuSans-6c" transform="translate(432.666016 0)"/>
     <use xlink:href="#DejaVuSans-65" transform="translate(460.449219 0)"/>
     <use xlink:href="#DejaVuSans-6d" transform="translate(521.972656 0)"/>
     <use xlink:href="#DejaVuSans-65" transform="translate(619.384766 0)"/>
     <use xlink:href="#DejaVuSans-6e" transform="translate(680.908203 0)"/>
     <use xlink:href="#DejaVuSans-74" transform="translate(744.287109 0)"/>
     <use xlink:href="#DejaVuSans-20" transform="translate(783.496094 0)"/>
     <use xlink:href="#DejaVuSans-73" transform="translate(815.283203 0)"/>
     <use xlink:href="#DejaVuSans-74" transform="translate(867.382812 0)"/>
     <use xlink:href="#DejaVuSans-61" transform="translate(906.591797 0)"/>
     <use xlink:href="#DejaVuSans-62" transform="translate(967.871094 0)"/>
     <use xlink:href="#DejaVuSans-69" transform="translate(1031.347656 0)"/>
     <use xlink:href="#DejaVuSans-6c" transform="translate(1059.130859 0)"/>
     <use xlink:href="#DejaVuSans-69" transform="translate(1086.914062 0)"/>
     <use xlink:href="#DejaVuSans-74" transform="translate(1114.697266 0)"/>
     <use xlink:href="#DejaVuSans-79" transform="translate(1153.90625 0)"/>
     <use xlink:href="#DejaVuSans-20" transform="translate(1213.085938 0)"/>
     <use xlink:href="#DejaVuSans-6f" transform="translate(1244.873047 0)"/>
     <use xlink:href="#DejaVuSans-76" transform="translate(1306.054688 0)"/>
     <use xlink:href="#DejaVuSans-65" transform="translate(1365.234375 0)"/>
     <use xlink:href="#DejaVuSans-72" transform="translate(1426.757812 0)"/>
     <use xlink:href="#DejaVuSans-20" transform="translate(1467.871094 0)"/>
     <use xlink:href="#DejaVuSans-74" transform="translate(1499.658203 0)"/>
     <use xlink:href="#DejaVuSans-68" transform="translate(1538.867188 0)"/>
     <use xlink:href="#DejaVuSans-65" transform="translate(1602.246094 0)"/>
     <use xlink:href="#DejaVuSans-20" transform="translate(1663.769531 0)"/>
     <use xlink:href="#DejaVuSans-66" transform="translate(1695.556641 0)"/>
     <use xlink:href="#DejaVuSans-6f" transform="translate(1730.761719 0)"/>
     <use xlink:href="#DejaVuSans-72" transform="translate(1791.943359 0)"/>
     <use xlink:href="#DejaVuSans-6d" transform="translate(1831.306641 0)"/>
     <use xlink:href="#DejaVuSans-61" transform="translate(1928.71875 0)"/>
     <use xlink:href="#DejaVuSans-74" transform="translate(1989.998047 0)"/>
     <use xlink:href="#DejaVuSans-69" transform="translate(2029.207031 0)"/>
     <use xlink:href="#DejaVuSans-6f" transform="translate(2056.990234 0)"/>
     <use xlink:href="#DejaVuSans-6e" transform="translate(2118.171875 0)"/>
     <use xlink:href="#DejaVuSans-20" transform="translate(2181.550781 0)"/>
     <use xlink:href="#DejaVuSans-77" transform="translate(2213.337891 0)"/>
     <use xlink:href="#DejaVuSans-69" transform="translate(2295.125 0)"/>
     <use xlink:href="#DejaVuSans-6e" transform="translate(2322.908203 0)"/>
     <use xlink:href="#DejaVuSans-64" transform="translate(2386.287109 0)"/>
     <use xlink:href="#DejaVuSans-6f" transform="translate(2449.763672 0)"/>
     <use xlink:href="#DejaVuSans-77" transform="translate(2510.945312 0)"/>
    </g>
   </g>
   <g id="legend_1">
    <g id="patch_7">
     <path d="M 368.507933 70.224634 
L 418.294 70.224634 
Q 419.96 70.224634 419.96 68.558634 
L 419.96 32.711 
Q 419.96 31.045 418.294 31.045 
L 368.507933 31.045 
Q 366.841933 31.045 366.841933 32.711 
L 366.841933 68.558634 
Q 366.841933 70.224634 368.507933 70.224634 
z
" style="fill: #ffffff; opacity: 0.8; stroke: #cccccc; stroke-linejoin: miter"/>
    </g>
    <g id="line2d_24">
     <path d="M 370.173933 37.790998 
L 378.503933 37.790998 
L 386.833933 37.790998 
" style="fill: none; stroke: #1f77b4; stroke-width: 1.5; stroke-linecap: square"/>
    </g>
    <g id="text_7">
     <!-- SAT-1 -->
     <g transform="translate(393.497933 40.706498) scale(0.0833 -0.0833)">
      <defs>
       <path id="DejaVuSans-41" d="M 2188 4044 
L 1331 1722 
L 3047 1722 
L 2188 4044 
z
M 1831 4666 
L 2547 4666 
L 4325 0 
L 3669 0 
L 3244 1197 
L 1141 1197 
L 716 0 
L 50 0 
L 1831 4666 
z
" transform="scale(0.015625)"/>
       <path id="DejaVuSans-54" d="M -19 4666 
L 3928 4666 
L 3928 4134 
L 2272 4134 
L 2272 0 
L 1638 0 
L 1638 4134 
L -19 4134 
L -19 4666 
z
" transform="scale(0.015625)"/>
      </defs>
      <use xlink:href="#DejaVuSans-53"/>
      <use xlink:href="#DejaVuSans-41" transform="translate(65.351562 0)"/>
      <use xlink:href="#DejaVuSans-54" transform="translate(126.009766 0)"/>
      <use xlink:href="#DejaVuSans-2d" transform="translate(177.96875 0)"/>
      <use xlink:href="#DejaVuSans-31" transform="translate(214.052734 0)"/>
     </g>
    </g>
    <g id="line2d_25">
     <path d="M 370.173933 50.017877 
L 378.503933 50.017877 
L 386.833933 50.017877 
" style="fill: none; stroke: #ff7f0e; stroke-width: 1.5; stroke-linecap: square"/>
    </g>
    <g id="text_8">
     <!-- SAT-2 -->
     <g transform="translate(393.497933 52.933377) scale(0.0833 -0.0833)">
      <defs>
       <path id="DejaVuSans-32" d="M 1228 531 
L 3431 531 
L 3431 0 
L 469 0 
L 469 531 
Q 828 903 1448 1529 
Q 2069 2156 2228 2338 
Q 2531 2678 2651 2914 
Q 2772 3150 2772 3378 
Q 2772 3750 2511 3984 
Q 2250 4219 1831 4219 
Q 1534 4219 1204 4116 
Q 875 4013 500 3803 
L 500 4441 
Q 881 4594 1212 4672 
Q 1544 4750 1819 4750 
Q 2544 4750 2975 4387 
Q 3406 4025 3406 3419 
Q 3406 3131 3298 2873 
Q 3191 2616 2906 2266 
Q 2828 2175 2409 1742 
Q 1991 1309 1228 531 
z
" transform="scale(0.015625)"/>
      </defs>
      <use xlink:href="#DejaVuSans-53"/>
      <use xlink:href="#DejaVuSans-41" transform="translate(65.351562 0)"/>
      <use xlink:href="#DejaVuSans-54" transform="translate(126.009766 0)"/>
      <use xlink:href="#DejaVuSans-2d" transform="translate(177.96875 0)"/>
      <use xlink:href="#DejaVuSans-32" transform="translate(214.052734 0)"/>
     </g>
    </g>
    <g id="line2d_26">
     <path d="M 370.173933 62.244755 
L 378.503933 62.244755 
L 386.833933 62.244755 
" style="fill: none; stroke: #2ca02c; stroke-width: 1.5; stroke-linecap: square"/>
    </g>
    <g id="text_9">
     <!-- SAT-3 -->
     <g transform="translate(393.497933 65.160255) scale(0.0833 -0.0833)">
      <defs>
       <path id="DejaVuSans-33" d="M 2597 2516 
Q 3050 2419 3304 2112 
Q 3559 1806 3559 1356 
Q 3559 666 3084 287 
Q 2609 -91 1734 -91 
Q 1441 -91 1130 -33 
Q 819 25 488 141 
L 488 750 
Q 750 597 1062 519 
Q 1375 441 1716 441 
Q 2309 441 2620 675 
Q 2931 909 2931 1356 
Q 2931 1769 2642 2001 
Q 2353 2234 1838 2234 
L 1294 2234 
L 1294 2753 
L 1863 2753 
Q 2328 2753 2575 2939 
Q 2822 3125 2822 3475 
Q 2822 3834 2567 4026 
Q 2313 4219 1838 4219 
Q 1578 4219 1281 4162 
Q 984 4106 628 3988 
L 628 4550 
Q 988 4650 1302 4700 
Q 1616 4750 1894 4750 
Q 2613 4750 3031 4423 
Q 3450 4097 3450 3541 
Q 3450 3153 3228 2886 
Q 3006 2619 2597 2516 
z
" transform="scale(0.015625)"/>
      </defs>
      <use xlink:href="#DejaVuSans-53"/>
      <use xlink:href="#DejaVuSans-41" transform="translate(65.351562 0)"/>
      <use xlink:href="#DejaVuSans-54" transform="translate(126.009766 0)"/>
      <use xlink:href="#DejaVuSans-2d" transform="translate(177.96875 0)"/>
      <use xlink:href="#DejaVuSans-33" transform="translate(214.052734 0)"/>
     </g>
    </g>
   </g>
  </g>
  <g id="axes_2">
   <g id="patch_8">
    <path d="M 486.425 267.85 
L 853.2 267.85 
L 853.2 26.88 
L 486.425 26.88 
z
" style="fill: #ffffff"/>
   </g>
   <g id="matplotlib.axis_3">
    <g id="xtick_7">
     <g id="line2d_27">
      <path d="M 540.14457 267.85 
L 540.14457 26.88 
" clip-path="url(#p9884cd3d61)" style="fill: none; stroke-dasharray: 0.6,0.99; stroke-dashoffset: 0; stroke: #b0b0b0; stroke-width: 0.6"/>
     </g>
     <g id="line2d_28">
      <g>
       <use xlink:href="#m75471c7c7a" x="540.14457" y="267.85" style="stroke: #000000; stroke-width: 0.8"/>
      </g>
     </g>
    </g>
    <g id="xtick_8">
     <g id="line2d_29">
      <path d="M 595.71654 267.85 
L 595.71654 26.88 
" clip-path="url(#p9884cd3d61)" style="fill: none; stroke-dasharray: 0.6,0.99; stroke-dashoffset: 0; stroke: #b0b0b0; stroke-width: 0.6"/>
     </g>
     <g id="line2d_30">
      <g>
       <use xlink:href="#m75471c7c7a" x="595.71654" y="267.85" style="stroke: #000000; stroke-width: 0.8"/>
      </g>
     </g>
    </g>
    <g id="xtick_9">
     <g id="line2d_31">
      <path d="M 651.28851 267.85 
L 651.28851 26.88 
" clip-path="url(#p9884cd3d61)" style="fill: none; stroke-dasharray: 0.6,0.99; stroke-dashoffset: 0; stroke: #b0b0b0; stroke-width: 0.6"/>
     </g>
     <g id="line2d_32">
      <g>
       <use xlink:href="#m75471c7c7a" x="651.28851" y="267.85" style="stroke: #000000; stroke-width: 0.8"/>
      </g>
     </g>
    </g>
    <g id="xtick_10">
     <g id="line2d_33">
      <path d="M 706.86048 267.85 
L 706.86048 26.88 
" clip-path="url(#p9884cd3d61)" style="fill: none; stroke-dasharray: 0.6,0.99; stroke-dashoffset: 0; stroke: #b0b0b0; stroke-width: 0.6"/>
     </g>
     <g id="line2d_34">
      <g>
       <use xlink:href="#m75471c7c7a" x="706.86048" y="267.85" style="stroke: #000000; stroke-width: 0.8"/>
      </g>
     </g>
    </g>
    <g id="xtick_11">
     <g id="line2d_35">
      <path d="M 762.43245 267.85 
L 762.43245 26.88 
" clip-path="url(#p9884cd3d61)" style="fill: none; stroke-dasharray: 0.6,0.99; stroke-dashoffset: 0; stroke: #b0b0b0; stroke-width: 0.6"/>
     </g>
     <g id="line2d_36">
      <g>
       <use xlink:href="#m75471c7c7a" x="762.43245" y="267.85" style="stroke: #000000; stroke-width: 0.8"/>
      </g>
     </g>
    </g>
    <g id="xtick_12">
     <g id="line2d_37">
      <path d="M 818.00442 267.85 
L 818.00442 26.88 
" clip-path="url(#p9884cd3d61)" style="fill: none; stroke-dasharray: 0.6,0.99; stroke-dashoffset: 0; stroke: #b0b0b0; stroke-width: 0.6"/>
     </g>
     <g id="line2d_38">
      <g>
       <use xlink:href="#m75471c7c7a" x="818.00442" y="267.85" style="stroke: #000000; stroke-width: 0.8"/>
      </g>
     </g>
    </g>
   </g>
   <g id="matplotlib.axis_4">
    <g id="ytick_5">
     <g id="line2d_39">
      <path d="M 486.425 238.1875 
L 853.2 238.1875 
" clip-path="url(#p9884cd3d61)" style="fill: none; stroke-dasharray: 0.6,0.99; stroke-dashoffset: 0; stroke: #b0b0b0; stroke-width: 0.6"/>
     </g>
     <g id="line2d_40">
      <g>
       <use xlink:href="#mdcab30a58d" x="486.425" y="238.1875" style="stroke: #000000; stroke-width: 0.8"/>
      </g>
     </g>
     <g id="text_10">
      <!-- −0.75 -->
      <g transform="translate(448.779687 241.986719) scale(0.1 -0.1)">
       <defs>
        <path id="DejaVuSans-2212" d="M 678 2272 
L 4684 2272 
L 4684 1741 
L 678 1741 
L 678 2272 
z
" transform="scale(0.015625)"/>
        <path id="DejaVuSans-2e" d="M 684 794 
L 1344 794 
L 1344 0 
L 684 0 
L 684 794 
z
" transform="scale(0.015625)"/>
        <path id="DejaVuSans-37" d="M 525 4666 
L 3525 4666 
L 3525 4397 
L 1831 0 
L 1172 0 
L 2766 4134 
L 525 4134 
L 525 4666 
z
" transform="scale(0.015625)"/>
       </defs>
       <use xlink:href="#DejaVuSans-2212"/>
       <use xlink:href="#DejaVuSans-30" transform="translate(83.789062 0)"/>
       <use xlink:href="#DejaVuSans-2e" transform="translate(147.412109 0)"/>
       <use xlink:href="#DejaVuSans-37" transform="translate(179.199219 0)"/>
       <use xlink:href="#DejaVuSans-35" transform="translate(242.822266 0)"/>
      </g>
     </g>
    </g>
    <g id="ytick_6">
     <g id="line2d_41">
      <path d="M 486.425 207.953125 
L 853.2 207.953125 
" clip-path="url(#p9884cd3d61)" style="fill: none; stroke-dasharray: 0.6,0.99; stroke-dashoffset: 0; stroke: #b0b0b0; stroke-width: 0.6"/>
     </g>
     <g id="line2d_42">
      <g>
       <use xlink:href="#mdcab30a58d" x="486.425" y="207.953125" style="stroke: #000000; stroke-width: 0.8"/>
      </g>
     </g>
     <g id="text_11">
      <!-- −0.50 -->
      <g transform="translate(448.779687 211.752344) scale(0.1 -0.1)">
       <use xlink:href="#DejaVuSans-2212"/>
       <use xlink:href="#DejaVuSans-30" transform="translate(83.789062 0)"/>
       <use xlink:href="#DejaVuSans-2e" transform="translate(147.412109 0)"/>
       <use xlink:href="#DejaVuSans-35" transform="translate(179.199219 0)"/>
       <use xlink:href="#DejaVuSans-30" transform="translate(242.822266 0)"/>
      </g>
     </g>
    </g>
    <g id="ytick_7">
     <g id="line2d_43">
      <path d="M 486.425 177.6875 
L 853.2 177.6875 
" clip-path="url(#p9884cd3d61)" style="fill: none; stroke-dasharray: 0.6,0.99; stroke-dashoffset: 0; stroke: #b0b0b0; stroke-width: 0.6"/>
     </g>
     <g id="line2d_44">
      <g>
       <use xlink:href="#mdcab30a58d" x="486.425" y="177.6875" style="stroke: #000000; stroke-width: 0.8"/>
      </g>
     </g>
     <g id="text_12">
      <!-- −0.25 -->
      <g transform="translate(448.779687 181.486719) scale(0.1 -0.1)">
       <use xlink:href="#DejaVuSans-2212"/>
       <use xlink:href="#DejaVuSans-30" transform="translate(83.789062 0)"/>
       <use xlink:href="#DejaVuSans-2e" transform="translate(147.412109 0)"/>
       <use xlink:href="#DejaVuSans-32" transform="translate(179.199219 0)"/>
       <use xlink:href="#DejaVuSans-35" transform="translate(242.822266 0)"/>
      </g>
     </g>
    </g>
    <g id="ytick_8">
     <g id="line2d_45">
      <path d="M 486.425 147.453125 
L 853.2 147.453125 
" clip-path="url(#p9884cd3d61)" style="fill: none; stroke-dasharray: 0.6,0.99; stroke-dashoffset: 0; stroke: #b0b0b0; stroke-width: 0.6"/>
     </g>
     <g id="line2d_46">
      <g>
       <use xlink:href="#mdcab30a58d" x="486.425" y="147.453125" style="stroke: #000000; stroke-width: 0.8"/>
      </g>
     </g>
     <g id="text_13">
      <!-- −0.00 -->
      <g transform="translate(448.779687 151.252344) scale(0.1 -0.1)">
       <use xlink:href="#DejaVuSans-2212"/>
       <use xlink:href="#DejaVuSans-30" transform="translate(83.789062 0)"/>
       <use xlink:href="#DejaVuSans-2e" transform="translate(147.412109 0)"/>
       <use xlink:href="#DejaVuSans-30" transform="translate(179.199219 0)"/>
       <use xlink:href="#DejaVuSans-30" transform="translate(242.822266 0)"/>
      </g>
     </g>
    </g>
    <g id="ytick_9">
     <g id="line2d_47">
      <path d="M 486.425 117.21875 
L 853.2 117.21875 
" clip-path="url(#p9884cd3d61)" style="fill: none; stroke-dasharray: 0.6,0.99; stroke-dashoffset: 0; stroke: #b0b0b0; stroke-width: 0.6"/>
     </g>
     <g id="line2d_48">
      <g>
       <use xlink:href="#mdcab30a58d" x="486.425" y="117.21875" style="stroke: #000000; stroke-width: 0.8"/>
      </g>
     </g>
     <g id="text_14">
      <!-- 0.25 -->
      <g transform="translate(457.159375 121.017969) scale(0.1 -0.1)">
       <use xlink:href="#DejaVuSans-30"/>
       <use xlink:href="#DejaVuSans-2e" transform="translate(63.623047 0)"/>
       <use xlink:href="#DejaVuSans-32" transform="translate(95.410156 0)"/>
       <use xlink:href="#DejaVuSans-35" transform="translate(159.033203 0)"/>
      </g>
     </g>
    </g>
    <g id="ytick_10">
     <g id="line2d_49">
      <path d="M 486.425 86.984375 
L 853.2 86.984375 
" clip-path="url(#p9884cd3d61)" style="fill: none; stroke-dasharray: 0.6,0.99; stroke-dashoffset: 0; stroke: #b0b0b0; stroke-width: 0.6"/>
     </g>
     <g id="line2d_50">
      <g>
       <use xlink:href="#mdcab30a58d" x="486.425" y="86.984375" style="stroke: #000000; stroke-width: 0.8"/>
      </g>
     </g>
     <g id="text_15">
      <!-- 0.50 -->
      <g transform="translate(457.159375 90.783594) scale(0.1 -0.1)">
       <use xlink:href="#DejaVuSans-30"/>
       <use xlink:href="#DejaVuSans-2e" transform="translate(63.623047 0)"/>
       <use xlink:href="#DejaVuSans-35" transform="translate(95.410156 0)"/>
       <use xlink:href="#DejaVuSans-30" transform="translate(159.033203 0)"/>
      </g>
     </g>
    </g>
    <g id="ytick_11">
     <g id="line2d_51">
      <path d="M 486.425 56.734375 
L 853.2 56.734375 
" clip-path="url(#p9884cd3d61)" style="fill: none; stroke-dasharray: 0.6,0.99; stroke-dashoffset: 0; stroke: #b0b0b0; stroke-width: 0.6"/>
     </g>
     <g id="line2d_52">
      <g>
       <use xlink:href="#mdcab30a58d" x="486.425" y="56.734375" style="stroke: #000000; stroke-width: 0.8"/>
      </g>
     </g>
     <g id="text_16">
      <!-- 0.75 -->
      <g transform="translate(457.159375 60.533594) scale(0.1 -0.1)">
       <use xlink:href="#DejaVuSans-30"/>
       <use xlink:href="#DejaVuSans-2e" transform="translate(63.623047 0)"/>
       <use xlink:href="#DejaVuSans-37" transform="translate(95.410156 0)"/>
       <use xlink:href="#DejaVuSans-35" transform="translate(159.033203 0)"/>
      </g>
     </g>
    </g>
    <g id="text_17">
     <!-- Inclination [deg] -->
     <g transform="translate(442.7 188.261875) rotate(-90) scale(0.1 -0.1)">
      <defs>
       <path id="DejaVuSans-49" d="M 628 4666 
L 1259 4666 
L 1259 0 
L 628 0 
L 628 4666 
z
" transform="scale(0.015625)"/>
       <path id="DejaVuSans-63" d="M 3122 3366 
L 3122 2828 
Q 2878 2963 2633 3030 
Q 2388 3097 2138 3097 
Q 1578 3097 1268 2742 
Q 959 2388 959 1747 
Q 959 1106 1268 751 
Q 1578 397 2138 397 
Q 2388 397 2633 464 
Q 2878 531 3122 666 
L 3122 134 
Q 2881 22 2623 -34 
Q 2366 -91 2075 -91 
Q 1284 -91 818 406 
Q 353 903 353 1747 
Q 353 2603 823 3093 
Q 1294 3584 2113 3584 
Q 2378 3584 2631 3529 
Q 2884 3475 3122 3366 
z
" transform="scale(0.015625)"/>
       <path id="DejaVuSans-67" d="M 2906 1791 
Q 2906 2416 2648 2759 
Q 2391 3103 1925 3103 
Q 1463 3103 1205 2759 
Q 947 2416 947 1791 
Q 947 1169 1205 825 
Q 1463 481 1925 481 
Q 2391 481 2648 825 
Q 2906 1169 2906 1791 
z
M 3481 434 
Q 3481 -459 3084 -895 
Q 2688 -1331 1869 -1331 
Q 1566 -1331 1297 -1286 
Q 1028 -1241 775 -1147 
L 775 -588 
Q 1028 -725 1275 -790 
Q 1522 -856 1778 -856 
Q 2344 -856 2625 -561 
Q 2906 -266 2906 331 
L 2906 616 
Q 2728 306 2450 153 
Q 2172 0 1784 0 
Q 1141 0 747 490 
Q 353 981 353 1791 
Q 353 2603 747 3093 
Q 1141 3584 1784 3584 
Q 2172 3584 2450 3431 
Q 2728 3278 2906 2969 
L 2906 3500 
L 3481 3500 
L 3481 434 
z
" transform="scale(0.015625)"/>
      </defs>
      <use xlink:href="#DejaVuSans-49"/>
      <use xlink:href="#DejaVuSans-6e" transform="translate(29.492188 0)"/>
      <use xlink:href="#DejaVuSans-63" transform="translate(92.871094 0)"/>
      <use xlink:href="#DejaVuSans-6c" transform="translate(147.851562 0)"/>
      <use xlink:href="#DejaVuSans-69" transform="translate(175.634766 0)"/>
      <use xlink:href="#DejaVuSans-6e" transform="translate(203.417969 0)"/>
      <use xlink:href="#DejaVuSans-61" transform="translate(266.796875 0)"/>
      <use xlink:href="#DejaVuSans-74" transform="translate(328.076172 0)"/>
      <use xlink:href="#DejaVuSans-69" transform="translate(367.285156 0)"/>
      <use xlink:href="#DejaVuSans-6f" transform="translate(395.068359 0)"/>
      <use xlink:href="#DejaVuSans-6e" transform="translate(456.25 0)"/>
      <use xlink:href="#DejaVuSans-20" transform="translate(519.628906 0)"/>
      <use xlink:href="#DejaVuSans-5b" transform="translate(551.416016 0)"/>
      <use xlink:href="#DejaVuSans-64" transform="translate(590.429688 0)"/>
      <use xlink:href="#DejaVuSans-65" transform="translate(653.90625 0)"/>
      <use xlink:href="#DejaVuSans-67" transform="translate(715.429688 0)"/>
      <use xlink:href="#DejaVuSans-5d" transform="translate(778.90625 0)"/>
     </g>
    </g>
    <g id="text_18">
     <!-- 1e−10+9.77e1 -->
     <g transform="translate(486.425 23.88) scale(0.1 -0.1)">
      <defs>
       <path id="DejaVuSans-2b" d="M 2944 4013 
L 2944 2272 
L 4684 2272 
L 4684 1741 
L 2944 1741 
L 2944 0 
L 2419 0 
L 2419 1741 
L 678 1741 
L 678 2272 
L 2419 2272 
L 2419 4013 
L 2944 4013 
z
" transform="scale(0.015625)"/>
      </defs>
      <use xlink:href="#DejaVuSans-31"/>
      <use xlink:href="#DejaVuSans-65" transform="translate(63.623047 0)"/>
      <use xlink:href="#DejaVuSans-2212" transform="translate(125.146484 0)"/>
      <use xlink:href="#DejaVuSans-31" transform="translate(208.935547 0)"/>
      <use xlink:href="#DejaVuSans-30" transform="translate(272.558594 0)"/>
      <use xlink:href="#DejaVuSans-2b" transform="translate(336.181641 0)"/>
      <use xlink:href="#DejaVuSans-39" transform="translate(419.970703 0)"/>
      <use xlink:href="#DejaVuSans-2e" transform="translate(483.59375 0)"/>
      <use xlink:href="#DejaVuSans-37" transform="translate(515.380859 0)"/>
      <use xlink:href="#DejaVuSans-37" transform="translate(579.003906 0)"/>
      <use xlink:href="#DejaVuSans-65" transform="translate(642.626953 0)"/>
      <use xlink:href="#DejaVuSans-31" transform="translate(704.150391 0)"/>
     </g>
    </g>
   </g>
   <g id="line2d_53">
    <path d="M 503.096591 146.375 
L 504.94899 147.0625 
L 506.801389 147.375 
L 508.653788 146.28125 
L 510.506187 147.921875 
L 512.358586 148.390625 
L 514.210985 146.765625 
L 516.063384 147.78125 
L 517.915782 146.71875 
L 519.768182 146.609375 
L 521.620581 148.21875 
L 523.47298 148.609375 
L 527.177778 146.28125 
L 529.030177 147.03125 
L 530.882576 148.140625 
L 532.734974 147.125 
L 534.587374 146.828125 
L 536.439773 147.953125 
L 538.292171 148.265625 
L 540.14457 147.140625 
L 541.99697 147.390625 
L 543.849369 148.5 
L 545.701767 147.015625 
L 547.554166 147.296875 
L 549.406566 147.375 
L 551.258965 146.140625 
L 553.111363 146.953125 
L 554.963762 147.203125 
L 556.816162 147.296875 
L 558.668561 149.140625 
L 560.520959 148.796875 
L 564.225758 146.375 
L 566.078156 146.671875 
L 567.930555 147.921875 
L 569.782955 147.59375 
L 571.635354 147.625 
L 573.487752 147.859375 
L 575.340151 146.765625 
L 577.192551 146.25 
L 579.04495 147.828125 
L 580.897348 148.5 
L 582.749747 146.765625 
L 584.602147 147.359375 
L 586.454545 148.625 
L 588.306944 147.359375 
L 590.159343 146.59375 
L 592.011743 147.6875 
L 593.864141 147.625 
L 595.71654 146.71875 
L 597.568939 148.078125 
L 599.421339 147.09375 
L 601.273737 147.296875 
L 604.978535 147.375 
L 606.830935 147.734375 
L 608.683333 147.59375 
L 610.535732 147.921875 
L 612.388131 146.84375 
L 617.945328 147.953125 
L 621.650126 146.90625 
L 623.502525 147.828125 
L 625.354924 147.25 
L 627.207323 146.953125 
L 629.059722 148.09375 
L 630.912121 147.890625 
L 632.76452 147.015625 
L 634.616919 146.765625 
L 636.469318 148.3125 
L 638.321717 146.765625 
L 640.174116 146.328125 
L 642.026515 147.1875 
L 643.878914 146.953125 
L 645.731313 148.6875 
L 647.583712 147.96875 
L 649.436111 147.796875 
L 651.28851 147.484375 
L 653.140909 147.296875 
L 654.993308 147.625 
L 656.845707 147.09375 
L 658.698106 148.046875 
L 660.550505 148.65625 
L 662.402904 146.609375 
L 664.255303 146.078125 
L 666.107702 147.59375 
L 667.960101 148.03125 
L 669.8125 147.78125 
L 671.664899 146.828125 
L 675.369697 147.1875 
L 677.222096 148.09375 
L 679.074495 148.21875 
L 680.926894 146.5 
L 682.779293 146.71875 
L 684.631692 147.59375 
L 686.484091 148.21875 
L 688.33649 147.015625 
L 690.188889 147.203125 
L 692.041288 148.140625 
L 693.893687 147.921875 
L 695.746086 147.828125 
L 697.598485 146.890625 
L 699.450884 146.890625 
L 701.303283 146.359375 
L 703.155682 147.546875 
L 705.008081 147.96875 
L 706.86048 147.890625 
L 708.712879 148.328125 
L 710.565278 146.671875 
L 712.417677 146.671875 
L 714.270076 148.3125 
L 716.122475 148.125 
L 717.974874 146.671875 
L 719.827273 146.78125 
L 721.679672 147.546875 
L 723.532071 148.09375 
L 727.236869 147.140625 
L 729.089268 147.90625 
L 730.941667 146.484375 
L 732.794066 147.625 
L 734.646465 148.40625 
L 736.498864 147.0625 
L 738.351263 146.890625 
L 740.203662 147.203125 
L 742.056061 148.6875 
L 743.90846 147.59375 
L 745.760859 147.078125 
L 747.613258 147.1875 
L 749.465657 146.953125 
L 751.318056 147.296875 
L 755.022854 147.125 
L 756.875253 148.390625 
L 758.727652 147.609375 
L 760.580051 146.484375 
L 762.43245 148.734375 
L 764.284849 147.484375 
L 766.137248 146.046875 
L 767.989647 147.96875 
L 769.842046 148.078125 
L 771.694445 147.546875 
L 773.546844 146.828125 
L 775.399243 147.359375 
L 777.251642 147.65625 
L 779.104041 147.1875 
L 780.95644 147.96875 
L 782.808839 147.03125 
L 784.661238 147.359375 
L 786.513637 148.6875 
L 790.218435 146.375 
L 792.070834 146.5 
L 793.923233 147.1875 
L 795.775632 148.390625 
L 797.628031 147.3125 
L 799.48043 146.765625 
L 801.332829 147.828125 
L 803.185228 146.859375 
L 805.037627 147.25 
L 806.890026 148.9375 
L 808.742425 147.828125 
L 810.594824 145.9375 
L 812.447223 147.0625 
L 814.299622 148.40625 
L 816.152021 147.921875 
L 818.00442 147.296875 
L 821.709218 147.6875 
L 823.561617 147.3125 
L 825.414016 147.296875 
L 827.266415 146.828125 
L 829.118814 147.390625 
L 830.971213 147.1875 
L 832.823612 147.546875 
L 834.676011 148.15625 
L 836.528409 147.296875 
L 836.528409 147.296875 
" clip-path="url(#p9884cd3d61)" style="fill: none; stroke: #1f77b4; stroke-width: 1.5; stroke-linecap: square"/>
   </g>
   <g id="line2d_54">
    <path d="M 503.096591 147.921875 
L 508.653788 146.859375 
L 510.506187 147.59375 
L 512.358586 148.5 
L 514.210985 147.609375 
L 516.063384 147.484375 
L 517.915782 146.28125 
L 519.768182 145.9375 
L 521.620581 148.75 
L 523.47298 148.21875 
L 525.325378 146.78125 
L 527.177778 147.546875 
L 530.882576 147.734375 
L 532.734974 147.0625 
L 534.587374 146.859375 
L 536.439773 147.625 
L 538.292171 147.796875 
L 540.14457 147.25 
L 541.99697 147.78125 
L 543.849369 148.078125 
L 545.701767 146.84375 
L 547.554166 147.25 
L 549.406566 147.4375 
L 551.258965 146.484375 
L 553.111363 147.546875 
L 554.963762 148.328125 
L 556.816162 147.09375 
L 558.668561 148.15625 
L 560.520959 147.5625 
L 562.373358 146.375 
L 564.225758 147.828125 
L 566.078156 148.453125 
L 567.930555 147.59375 
L 569.782955 146.078125 
L 571.635354 146.953125 
L 573.487752 147.59375 
L 575.340151 146.765625 
L 577.192551 147.625 
L 579.04495 148.6875 
L 580.897348 147.734375 
L 582.749747 146.328125 
L 584.602147 147.890625 
L 586.454545 148.453125 
L 588.306944 146.671875 
L 590.159343 146.859375 
L 592.011743 147.71875 
L 593.864141 147.375 
L 595.71654 147.265625 
L 597.568939 148.03125 
L 599.421339 147.03125 
L 601.273737 147.484375 
L 603.126136 147.359375 
L 604.978535 147.546875 
L 606.830935 148.203125 
L 608.683333 147.390625 
L 610.535732 147.25 
L 612.388131 147.546875 
L 614.24053 148.265625 
L 616.092929 146.953125 
L 617.945328 147.25 
L 619.797727 147.0625 
L 621.650126 147.296875 
L 623.502525 147.96875 
L 625.354924 146.890625 
L 627.207323 147.375 
L 629.059722 147.484375 
L 630.912121 147.015625 
L 632.76452 148.140625 
L 634.616919 147.625 
L 636.469318 147.625 
L 638.321717 146.78125 
L 640.174116 146.546875 
L 642.026515 147.3125 
L 643.878914 147.25 
L 645.731313 148.609375 
L 651.28851 146.609375 
L 653.140909 147.609375 
L 654.993308 147.625 
L 656.845707 146.71875 
L 658.698106 147.921875 
L 660.550505 148.453125 
L 662.402904 147.09375 
L 664.255303 146.671875 
L 666.107702 148.578125 
L 667.960101 147.828125 
L 669.8125 146.671875 
L 671.664899 147.3125 
L 673.517298 147.6875 
L 675.369697 146.609375 
L 677.222096 146.71875 
L 679.074495 147.890625 
L 680.926894 147.25 
L 684.631692 147.96875 
L 686.484091 147.3125 
L 688.33649 147.015625 
L 690.188889 147.625 
L 692.041288 148.484375 
L 693.893687 148.078125 
L 695.746086 147.546875 
L 697.598485 146.3125 
L 699.450884 147.1875 
L 701.303283 146.953125 
L 703.155682 146.484375 
L 705.008081 148.28125 
L 706.86048 147.484375 
L 708.712879 148.28125 
L 710.565278 148.046875 
L 712.417677 146.890625 
L 716.122475 147.78125 
L 717.974874 147.921875 
L 719.827273 146.859375 
L 721.679672 147.140625 
L 723.532071 147.734375 
L 725.38447 147.4375 
L 727.236869 147.625 
L 729.089268 146.59375 
L 730.941667 146.25 
L 732.794066 148.15625 
L 734.646465 148.125 
L 736.498864 147.390625 
L 738.351263 147.078125 
L 740.203662 147.5625 
L 742.056061 147.90625 
L 743.90846 147.5625 
L 745.760859 147.484375 
L 747.613258 147.140625 
L 749.465657 147.6875 
L 751.318056 146.609375 
L 753.170455 146.375 
L 755.022854 147.296875 
L 756.875253 148.40625 
L 758.727652 148.484375 
L 760.580051 147.359375 
L 762.43245 147.828125 
L 766.137248 146.578125 
L 767.989647 147.828125 
L 769.842046 147.828125 
L 771.694445 147.125 
L 773.546844 146.828125 
L 775.399243 147.0625 
L 777.251642 147.484375 
L 780.95644 147.796875 
L 782.808839 147.484375 
L 784.661238 146.90625 
L 786.513637 147.96875 
L 788.366036 147.78125 
L 790.218435 146.546875 
L 792.070834 146.828125 
L 793.923233 147.90625 
L 795.775632 149.328125 
L 797.628031 146.71875 
L 799.48043 145.75 
L 801.332829 148.390625 
L 803.185228 148.078125 
L 805.037627 147.265625 
L 806.890026 147.625 
L 808.742425 147.0625 
L 812.447223 147.390625 
L 814.299622 148.03125 
L 816.152021 147.796875 
L 819.856819 146.953125 
L 821.709218 146.671875 
L 823.561617 147.203125 
L 825.414016 148.140625 
L 827.266415 148.078125 
L 829.118814 147.25 
L 830.971213 147.203125 
L 832.823612 147.828125 
L 834.676011 147.03125 
L 836.528409 145.28125 
L 836.528409 145.28125 
" clip-path="url(#p9884cd3d61)" style="fill: none; stroke: #ff7f0e; stroke-width: 1.5; stroke-linecap: square"/>
   </g>
   <g id="line2d_55">
    <path d="M 503.096591 148.609375 
L 504.94899 147.796875 
L 506.801389 146.71875 
L 508.653788 146.859375 
L 512.358586 148.796875 
L 514.210985 148.140625 
L 517.915782 145.484375 
L 519.768182 147.015625 
L 521.620581 149.453125 
L 523.47298 147.953125 
L 525.325378 146.828125 
L 527.177778 146.890625 
L 529.030177 147.25 
L 530.882576 148.140625 
L 532.734974 147.203125 
L 534.587374 146.078125 
L 538.292171 148.078125 
L 540.14457 147.625 
L 545.701767 148.078125 
L 547.554166 146.78125 
L 549.406566 147.140625 
L 551.258965 147.734375 
L 553.111363 147.390625 
L 554.963762 147.359375 
L 556.816162 147.203125 
L 558.668561 148.6875 
L 562.373358 146.484375 
L 564.225758 147.140625 
L 566.078156 147.65625 
L 567.930555 147.65625 
L 569.782955 147.25 
L 571.635354 147.125 
L 573.487752 147.421875 
L 575.340151 147.390625 
L 577.192551 147.1875 
L 579.04495 148.046875 
L 580.897348 147.796875 
L 582.749747 146.078125 
L 584.602147 147.796875 
L 586.454545 149.015625 
L 588.306944 147.546875 
L 590.159343 146.609375 
L 592.011743 146.828125 
L 593.864141 147.796875 
L 595.71654 147.125 
L 597.568939 147.3125 
L 599.421339 147.3125 
L 601.273737 147.03125 
L 603.126136 147.359375 
L 604.978535 147.359375 
L 606.830935 148.375 
L 608.683333 148.15625 
L 610.535732 147.796875 
L 614.24053 146.90625 
L 616.092929 146.609375 
L 617.945328 147.5625 
L 619.797727 148.125 
L 621.650126 146.78125 
L 623.502525 147.359375 
L 625.354924 147.015625 
L 627.207323 147.796875 
L 629.059722 148.328125 
L 630.912121 146.328125 
L 632.76452 147.25 
L 636.469318 148.140625 
L 638.321717 146.828125 
L 640.174116 146.359375 
L 642.026515 147.734375 
L 643.878914 147.828125 
L 645.731313 147.625 
L 647.583712 148.046875 
L 649.436111 147.609375 
L 651.28851 146.65625 
L 653.140909 147.359375 
L 654.993308 147.09375 
L 656.845707 147.921875 
L 660.550505 148.5 
L 662.402904 147.296875 
L 664.255303 146.90625 
L 666.107702 147.546875 
L 667.960101 147.125 
L 669.8125 147.796875 
L 671.664899 147.1875 
L 673.517298 146.375 
L 675.369697 147.125 
L 677.222096 148.125 
L 680.926894 147.484375 
L 682.779293 146.953125 
L 684.631692 146.890625 
L 686.484091 147.921875 
L 688.33649 147.4375 
L 690.188889 147.25 
L 692.041288 147.484375 
L 695.746086 148.203125 
L 697.598485 146.71875 
L 699.450884 147.421875 
L 701.303283 146.90625 
L 703.155682 146.859375 
L 705.008081 147.484375 
L 706.86048 147.796875 
L 708.712879 148.609375 
L 710.565278 147.359375 
L 712.417677 146.828125 
L 714.270076 146.71875 
L 716.122475 148.03125 
L 717.974874 148.125 
L 719.827273 146.90625 
L 721.679672 148.265625 
L 723.532071 147.96875 
L 725.38447 147.078125 
L 727.236869 147.96875 
L 729.089268 146.484375 
L 730.941667 145.546875 
L 732.794066 148.28125 
L 734.646465 148.390625 
L 736.498864 146.375 
L 738.351263 146.484375 
L 740.203662 147.828125 
L 742.056061 149.46875 
L 745.760859 146.484375 
L 747.613258 146.65625 
L 749.465657 147.3125 
L 751.318056 147.78125 
L 753.170455 147.203125 
L 755.022854 146.78125 
L 756.875253 148.125 
L 758.727652 148.5625 
L 760.580051 147.1875 
L 762.43245 148.203125 
L 764.284849 146.59375 
L 766.137248 146.1875 
L 767.989647 148.15625 
L 769.842046 148.078125 
L 771.694445 147.484375 
L 773.546844 147.140625 
L 775.399243 147.5625 
L 777.251642 147.78125 
L 779.104041 147.203125 
L 780.95644 147.015625 
L 782.808839 147.71875 
L 784.661238 146.953125 
L 786.513637 147.953125 
L 788.366036 147.59375 
L 790.218435 146.109375 
L 792.070834 148.078125 
L 793.923233 147.96875 
L 795.775632 148.125 
L 797.628031 147.265625 
L 799.48043 146.140625 
L 801.332829 147.078125 
L 803.185228 147.890625 
L 805.037627 148.375 
L 806.890026 148.03125 
L 808.742425 146.859375 
L 810.594824 145.875 
L 812.447223 147.359375 
L 814.299622 148.40625 
L 816.152021 147.359375 
L 818.00442 146.90625 
L 819.856819 148.3125 
L 823.561617 147.140625 
L 825.414016 146.953125 
L 827.266415 147.546875 
L 829.118814 147.921875 
L 830.971213 146.328125 
L 832.823612 147.484375 
L 834.676011 148.21875 
L 836.528409 147.734375 
L 836.528409 147.734375 
" clip-path="url(#p9884cd3d61)" style="fill: none; stroke: #2ca02c; stroke-width: 1.5; stroke-linecap: square"/>
   </g>
   <g id="patch_9">
    <path d="M 486.425 267.859375 
L 486.425 26.890625 
" style="fill: none; stroke: #000000; stroke-width: 0.8; stroke-linejoin: miter; stroke-linecap: square"/>
   </g>
   <g id="patch_10">
    <path d="M 853.2 267.859375 
L 853.2 26.890625 
" style="fill: none; stroke: #000000; stroke-width: 0.8; stroke-linejoin: miter; stroke-linecap: square"/>
   </g>
   <g id="patch_11">
    <path d="M 486.425 267.85 
L 853.2 267.85 
" style="fill: none; stroke: #000000; stroke-width: 0.8; stroke-linejoin: miter; stroke-linecap: square"/>
   </g>
   <g id="patch_12">
    <path d="M 486.425 26.88 
L 853.2 26.88 
" style="fill: none; stroke: #000000; stroke-width: 0.8; stroke-linejoin: miter; stroke-linecap: square"/>
   </g>
  </g>
  <g id="axes_3">
   <g id="patch_13">
    <path d="M 57.35 534.04 
L 424.125 534.04 
L 424.125 293.07 
L 57.35 293.07 
z
" style="fill: #ffffff"/>
   </g>
   <g id="matplotlib.axis_5">
    <g id="xtick_13">
     <g id="line2d_56">
      <path d="M 111.06957 534.04 
L 111.06957 293.07 
" clip-path="url(#p5c788c5cf8)" style="fill: none; stroke-dasharray: 0.6,0.99; stroke-dashoffset: 0; stroke: #b0b0b0; stroke-width: 0.6"/>
     </g>
     <g id="line2d_57">
      <g>
       <use xlink:href="#m75471c7c7a" x="111.06957" y="534.04" style="stroke: #000000; stroke-width: 0.8"/>
      </g>
     </g>
     <g id="text_19">
      <!-- 07:39:00 -->
      <g transform="translate(88.61332 548.638437) scale(0.1 -0.1)">
       <defs>
        <path id="DejaVuSans-3a" d="M 750 794 
L 1409 794 
L 1409 0 
L 750 0 
L 750 794 
z
M 750 3309 
L 1409 3309 
L 1409 2516 
L 750 2516 
L 750 3309 
z
" transform="scale(0.015625)"/>
       </defs>
       <use xlink:href="#DejaVuSans-30"/>
       <use xlink:href="#DejaVuSans-37" transform="translate(63.623047 0)"/>
       <use xlink:href="#DejaVuSans-3a" transform="translate(127.246094 0)"/>
       <use xlink:href="#DejaVuSans-33" transform="translate(160.9375 0)"/>
       <use xlink:href="#DejaVuSans-39" transform="translate(224.560547 0)"/>
       <use xlink:href="#DejaVuSans-3a" transform="translate(288.183594 0)"/>
       <use xlink:href="#DejaVuSans-30" transform="translate(321.875 0)"/>
       <use xlink:href="#DejaVuSans-30" transform="translate(385.498047 0)"/>
      </g>
     </g>
    </g>
    <g id="xtick_14">
     <g id="line2d_58">
      <path d="M 166.64154 534.04 
L 166.64154 293.07 
" clip-path="url(#p5c788c5cf8)" style="fill: none; stroke-dasharray: 0.6,0.99; stroke-dashoffset: 0; stroke: #b0b0b0; stroke-width: 0.6"/>
     </g>
     <g id="line2d_59">
      <g>
       <use xlink:href="#m75471c7c7a" x="166.64154" y="534.04" style="stroke: #000000; stroke-width: 0.8"/>
      </g>
     </g>
     <g id="text_20">
      <!-- 07:39:30 -->
      <g transform="translate(144.18529 548.638437) scale(0.1 -0.1)">
       <use xlink:href="#DejaVuSans-30"/>
       <use xlink:href="#DejaVuSans-37" transform="translate(63.623047 0)"/>
       <use xlink:href="#DejaVuSans-3a" transform="translate(127.246094 0)"/>
       <use xlink:href="#DejaVuSans-33" transform="translate(160.9375 0)"/>
       <use xlink:href="#DejaVuSans-39" transform="translate(224.560547 0)"/>
       <use xlink:href="#DejaVuSans-3a" transform="translate(288.183594 0)"/>
       <use xlink:href="#DejaVuSans-33" transform="translate(321.875 0)"/>
       <use xlink:href="#DejaVuSans-30" transform="translate(385.498047 0)"/>
      </g>
     </g>
    </g>
    <g id="xtick_15">
     <g id="line2d_60">
      <path d="M 222.21351 534.04 
L 222.21351 293.07 
" clip-path="url(#p5c788c5cf8)" style="fill: none; stroke-dasharray: 0.6,0.99; stroke-dashoffset: 0; stroke: #b0b0b0; stroke-width: 0.6"/>
     </g>
     <g id="line2d_61">
      <g>
       <use xlink:href="#m75471c7c7a" x="222.21351" y="534.04" style="stroke: #000000; stroke-width: 0.8"/>
      </g>
     </g>
     <g id="text_21">
      <!-- 07:40:00 -->
      <g transform="translate(199.75726 548.638437) scale(0.1 -0.1)">
       <defs>
        <path id="DejaVuSans-34" d="M 2419 4116 
L 825 1625 
L 2419 1625 
L 2419 4116 
z
M 2253 4666 
L 3047 4666 
L 3047 1625 
L 3713 1625 
L 3713 1100 
L 3047 1100 
L 3047 0 
L 2419 0 
L 2419 1100 
L 313 1100 
L 313 1709 
L 2253 4666 
z
" transform="scale(0.015625)"/>
       </defs>
       <use xlink:href="#DejaVuSans-30"/>
       <use xlink:href="#DejaVuSans-37" transform="translate(63.623047 0)"/>
       <use xlink:href="#DejaVuSans-3a" transform="translate(127.246094 0)"/>
       <use xlink:href="#DejaVuSans-34" transform="translate(160.9375 0)"/>
       <use xlink:href="#DejaVuSans-30" transform="translate(224.560547 0)"/>
       <use xlink:href="#DejaVuSans-3a" transform="translate(288.183594 0)"/>
       <use xlink:href="#DejaVuSans-30" transform="translate(321.875 0)"/>
       <use xlink:href="#DejaVuSans-30" transform="translate(385.498047 0)"/>
      </g>
     </g>
    </g>
    <g id="xtick_16">
     <g id="line2d_62">
      <path d="M 277.78548 534.04 
L 277.78548 293.07 
" clip-path="url(#p5c788c5cf8)" style="fill: none; stroke-dasharray: 0.6,0.99; stroke-dashoffset: 0; stroke: #b0b0b0; stroke-width: 0.6"/>
     </g>
     <g id="line2d_63">
      <g>
       <use xlink:href="#m75471c7c7a" x="277.78548" y="534.04" style="stroke: #000000; stroke-width: 0.8"/>
      </g>
     </g>
     <g id="text_22">
      <!-- 07:40:30 -->
      <g transform="translate(255.32923 548.638437) scale(0.1 -0.1)">
       <use xlink:href="#DejaVuSans-30"/>
       <use xlink:href="#DejaVuSans-37" transform="translate(63.623047 0)"/>
       <use xlink:href="#DejaVuSans-3a" transform="translate(127.246094 0)"/>
       <use xlink:href="#DejaVuSans-34" transform="translate(160.9375 0)"/>
       <use xlink:href="#DejaVuSans-30" transform="translate(224.560547 0)"/>
       <use xlink:href="#DejaVuSans-3a" transform="translate(288.183594 0)"/>
       <use xlink:href="#DejaVuSans-33" transform="translate(321.875 0)"/>
       <use xlink:href="#DejaVuSans-30" transform="translate(385.498047 0)"/>
      </g>
     </g>
    </g>
    <g id="xtick_17">
     <g id="line2d_64">
      <path d="M 333.35745 534.04 
L 333.35745 293.07 
" clip-path="url(#p5c788c5cf8)" style="fill: none; stroke-dasharray: 0.6,0.99; stroke-dashoffset: 0; stroke: #b0b0b0; stroke-width: 0.6"/>
     </g>
     <g id="line2d_65">
      <g>
       <use xlink:href="#m75471c7c7a" x="333.35745" y="534.04" style="stroke: #000000; stroke-width: 0.8"/>
      </g>
     </g>
     <g id="text_23">
      <!-- 07:41:00 -->
      <g transform="translate(310.9012 548.638437) scale(0.1 -0.1)">
       <use xlink:href="#DejaVuSans-30"/>
       <use xlink:href="#DejaVuSans-37" transform="translate(63.623047 0)"/>
       <use xlink:href="#DejaVuSans-3a" transform="translate(127.246094 0)"/>
       <use xlink:href="#DejaVuSans-34" transform="translate(160.9375 0)"/>
       <use xlink:href="#DejaVuSans-31" transform="translate(224.560547 0)"/>
       <use xlink:href="#DejaVuSans-3a" transform="translate(288.183594 0)"/>
       <use xlink:href="#DejaVuSans-30" transform="translate(321.875 0)"/>
       <use xlink:href="#DejaVuSans-30" transform="translate(385.498047 0)"/>
      </g>
     </g>
    </g>
    <g id="xtick_18">
     <g id="line2d_66">
      <path d="M 388.929419 534.04 
L 388.929419 293.07 
" clip-path="url(#p5c788c5cf8)" style="fill: none; stroke-dasharray: 0.6,0.99; stroke-dashoffset: 0; stroke: #b0b0b0; stroke-width: 0.6"/>
     </g>
     <g id="line2d_67">
      <g>
       <use xlink:href="#m75471c7c7a" x="388.929419" y="534.04" style="stroke: #000000; stroke-width: 0.8"/>
      </g>
     </g>
     <g id="text_24">
      <!-- 07:41:30 -->
      <g transform="translate(366.473169 548.638437) scale(0.1 -0.1)">
       <use xlink:href="#DejaVuSans-30"/>
       <use xlink:href="#DejaVuSans-37" transform="translate(63.623047 0)"/>
       <use xlink:href="#DejaVuSans-3a" transform="translate(127.246094 0)"/>
       <use xlink:href="#DejaVuSans-34" transform="translate(160.9375 0)"/>
       <use xlink:href="#DejaVuSans-31" transform="translate(224.560547 0)"/>
       <use xlink:href="#DejaVuSans-3a" transform="translate(288.183594 0)"/>
       <use xlink:href="#DejaVuSans-33" transform="translate(321.875 0)"/>
       <use xlink:href="#DejaVuSans-30" transform="translate(385.498047 0)"/>
      </g>
     </g>
    </g>
   </g>
   <g id="matplotlib.axis_6">
    <g id="ytick_12">
     <g id="line2d_68">
      <path d="M 57.35 511.25 
L 424.125 511.25 
" clip-path="url(#p5c788c5cf8)" style="fill: none; stroke-dasharray: 0.6,0.99; stroke-dashoffset: 0; stroke: #b0b0b0; stroke-width: 0.6"/>
     </g>
     <g id="line2d_69">
      <g>
       <use xlink:href="#mdcab30a58d" x="57.35" y="511.25" style="stroke: #000000; stroke-width: 0.8"/>
      </g>
     </g>
     <g id="text_25">
      <!-- 40 -->
      <g transform="translate(37.625 515.049219) scale(0.1 -0.1)">
       <use xlink:href="#DejaVuSans-34"/>
       <use xlink:href="#DejaVuSans-30" transform="translate(63.623047 0)"/>
      </g>
     </g>
    </g>
    <g id="ytick_13">
     <g id="line2d_70">
      <path d="M 57.35 477.0625 
L 424.125 477.0625 
" clip-path="url(#p5c788c5cf8)" style="fill: none; stroke-dasharray: 0.6,0.99; stroke-dashoffset: 0; stroke: #b0b0b0; stroke-width: 0.6"/>
     </g>
     <g id="line2d_71">
      <g>
       <use xlink:href="#mdcab30a58d" x="57.35" y="477.0625" style="stroke: #000000; stroke-width: 0.8"/>
      </g>
     </g>
     <g id="text_26">
      <!-- 41 -->
      <g transform="translate(37.625 480.861719) scale(0.1 -0.1)">
       <use xlink:href="#DejaVuSans-34"/>
       <use xlink:href="#DejaVuSans-31" transform="translate(63.623047 0)"/>
      </g>
     </g>
    </g>
    <g id="ytick_14">
     <g id="line2d_72">
      <path d="M 57.35 442.921875 
L 424.125 442.921875 
" clip-path="url(#p5c788c5cf8)" style="fill: none; stroke-dasharray: 0.6,0.99; stroke-dashoffset: 0; stroke: #b0b0b0; stroke-width: 0.6"/>
     </g>
     <g id="line2d_73">
      <g>
       <use xlink:href="#mdcab30a58d" x="57.35" y="442.921875" style="stroke: #000000; stroke-width: 0.8"/>
      </g>
     </g>
     <g id="text_27">
      <!-- 42 -->
      <g transform="translate(37.625 446.721094) scale(0.1 -0.1)">
       <use xlink:href="#DejaVuSans-34"/>
       <use xlink:href="#DejaVuSans-32" transform="translate(63.623047 0)"/>
      </g>
     </g>
    </g>
    <g id="ytick_15">
     <g id="line2d_74">
      <path d="M 57.35 408.734375 
L 424.125 408.734375 
" clip-path="url(#p5c788c5cf8)" style="fill: none; stroke-dasharray: 0.6,0.99; stroke-dashoffset: 0; stroke: #b0b0b0; stroke-width: 0.6"/>
     </g>
     <g id="line2d_75">
      <g>
       <use xlink:href="#mdcab30a58d" x="57.35" y="408.734375" style="stroke: #000000; stroke-width: 0.8"/>
      </g>
     </g>
     <g id="text_28">
      <!-- 43 -->
      <g transform="translate(37.625 412.533594) scale(0.1 -0.1)">
       <use xlink:href="#DejaVuSans-34"/>
       <use xlink:href="#DejaVuSans-33" transform="translate(63.623047 0)"/>
      </g>
     </g>
    </g>
    <g id="ytick_16">
     <g id="line2d_76">
      <path d="M 57.35 374.578125 
L 424.125 374.578125 
" clip-path="url(#p5c788c5cf8)" style="fill: none; stroke-dasharray: 0.6,0.99; stroke-dashoffset: 0; stroke: #b0b0b0; stroke-width: 0.6"/>
     </g>
     <g id="line2d_77">
      <g>
       <use xlink:href="#mdcab30a58d" x="57.35" y="374.578125" style="stroke: #000000; stroke-width: 0.8"/>
      </g>
     </g>
     <g id="text_29">
      <!-- 44 -->
      <g transform="translate(37.625 378.377344) scale(0.1 -0.1)">
       <use xlink:href="#DejaVuSans-34"/>
       <use xlink:href="#DejaVuSans-34" transform="translate(63.623047 0)"/>
      </g>
     </g>
    </g>
    <g id="ytick_17">
     <g id="line2d_78">
      <path d="M 57.35 340.40625 
L 424.125 340.40625 
" clip-path="url(#p5c788c5cf8)" style="fill: none; stroke-dasharray: 0.6,0.99; stroke-dashoffset: 0; stroke: #b0b0b0; stroke-width: 0.6"/>
     </g>
     <g id="line2d_79">
      <g>
       <use xlink:href="#mdcab30a58d" x="57.35" y="340.40625" style="stroke: #000000; stroke-width: 0.8"/>
      </g>
     </g>
     <g id="text_30">
      <!-- 45 -->
      <g transform="translate(37.625 344.205469) scale(0.1 -0.1)">
       <use xlink:href="#DejaVuSans-34"/>
       <use xlink:href="#DejaVuSans-35" transform="translate(63.623047 0)"/>
      </g>
     </g>
    </g>
    <g id="ytick_18">
     <g id="line2d_80">
      <path d="M 57.35 306.234375 
L 424.125 306.234375 
" clip-path="url(#p5c788c5cf8)" style="fill: none; stroke-dasharray: 0.6,0.99; stroke-dashoffset: 0; stroke: #b0b0b0; stroke-width: 0.6"/>
     </g>
     <g id="line2d_81">
      <g>
       <use xlink:href="#mdcab30a58d" x="57.35" y="306.234375" style="stroke: #000000; stroke-width: 0.8"/>
      </g>
     </g>
     <g id="text_31">
      <!-- 46 -->
      <g transform="translate(37.625 310.033594) scale(0.1 -0.1)">
       <use xlink:href="#DejaVuSans-34"/>
       <use xlink:href="#DejaVuSans-36" transform="translate(63.623047 0)"/>
      </g>
     </g>
    </g>
    <g id="text_32">
     <!-- RAAN [deg] -->
     <g transform="translate(31.545312 442.463594) rotate(-90) scale(0.1 -0.1)">
      <defs>
       <path id="DejaVuSans-52" d="M 2841 2188 
Q 3044 2119 3236 1894 
Q 3428 1669 3622 1275 
L 4263 0 
L 3584 0 
L 2988 1197 
Q 2756 1666 2539 1819 
Q 2322 1972 1947 1972 
L 1259 1972 
L 1259 0 
L 628 0 
L 628 4666 
L 2053 4666 
Q 2853 4666 3247 4331 
Q 3641 3997 3641 3322 
Q 3641 2881 3436 2590 
Q 3231 2300 2841 2188 
z
M 1259 4147 
L 1259 2491 
L 2053 2491 
Q 2509 2491 2742 2702 
Q 2975 2913 2975 3322 
Q 2975 3731 2742 3939 
Q 2509 4147 2053 4147 
L 1259 4147 
z
" transform="scale(0.015625)"/>
       <path id="DejaVuSans-4e" d="M 628 4666 
L 1478 4666 
L 3547 763 
L 3547 4666 
L 4159 4666 
L 4159 0 
L 3309 0 
L 1241 3903 
L 1241 0 
L 628 0 
L 628 4666 
z
" transform="scale(0.015625)"/>
      </defs>
      <use xlink:href="#DejaVuSans-52"/>
      <use xlink:href="#DejaVuSans-41" transform="translate(65.482422 0)"/>
      <use xlink:href="#DejaVuSans-41" transform="translate(136.640625 0)"/>
      <use xlink:href="#DejaVuSans-4e" transform="translate(205.048828 0)"/>
      <use xlink:href="#DejaVuSans-20" transform="translate(279.853516 0)"/>
      <use xlink:href="#DejaVuSans-5b" transform="translate(311.640625 0)"/>
      <use xlink:href="#DejaVuSans-64" transform="translate(350.654297 0)"/>
      <use xlink:href="#DejaVuSans-65" transform="translate(414.130859 0)"/>
      <use xlink:href="#DejaVuSans-67" transform="translate(475.654297 0)"/>
      <use xlink:href="#DejaVuSans-5d" transform="translate(539.130859 0)"/>
     </g>
    </g>
    <g id="text_33">
     <!-- 1e−10+3.50983817e2 -->
     <g transform="translate(57.35 290.07) scale(0.1 -0.1)">
      <use xlink:href="#DejaVuSans-31"/>
      <use xlink:href="#DejaVuSans-65" transform="translate(63.623047 0)"/>
      <use xlink:href="#DejaVuSans-2212" transform="translate(125.146484 0)"/>
      <use xlink:href="#DejaVuSans-31" transform="translate(208.935547 0)"/>
      <use xlink:href="#DejaVuSans-30" transform="translate(272.558594 0)"/>
      <use xlink:href="#DejaVuSans-2b" transform="translate(336.181641 0)"/>
      <use xlink:href="#DejaVuSans-33" transform="translate(419.970703 0)"/>
      <use xlink:href="#DejaVuSans-2e" transform="translate(483.59375 0)"/>
      <use xlink:href="#DejaVuSans-35" transform="translate(515.380859 0)"/>
      <use xlink:href="#DejaVuSans-30" transform="translate(579.003906 0)"/>
      <use xlink:href="#DejaVuSans-39" transform="translate(642.626953 0)"/>
      <use xlink:href="#DejaVuSans-38" transform="translate(706.25 0)"/>
      <use xlink:href="#DejaVuSans-33" transform="translate(769.873047 0)"/>
      <use xlink:href="#DejaVuSans-38" transform="translate(833.496094 0)"/>
      <use xlink:href="#DejaVuSans-31" transform="translate(897.119141 0)"/>
      <use xlink:href="#DejaVuSans-37" transform="translate(960.742188 0)"/>
      <use xlink:href="#DejaVuSans-65" transform="translate(1024.365234 0)"/>
      <use xlink:href="#DejaVuSans-32" transform="translate(1085.888672 0)"/>
     </g>
    </g>
   </g>
   <g id="line2d_82">
    <path d="M 74.02159 413.4375 
L 77.726388 413.609375 
L 79.578787 413.40625 
L 81.431186 413.6875 
L 83.283586 413.765625 
L 85.135984 413.5 
L 86.988383 413.671875 
L 88.840782 413.484375 
L 90.693182 413.484375 
L 92.54558 413.75 
L 94.397979 413.828125 
L 98.102777 413.40625 
L 101.807575 413.734375 
L 103.659974 413.5625 
L 105.512373 413.515625 
L 107.364772 413.71875 
L 109.217171 413.75 
L 111.06957 413.59375 
L 112.921969 413.609375 
L 114.774368 413.8125 
L 116.626767 413.53125 
L 120.331565 413.609375 
L 122.183964 413.40625 
L 125.888762 413.578125 
L 127.741161 413.578125 
L 129.59356 413.90625 
L 131.445959 413.84375 
L 135.150757 413.421875 
L 137.003156 413.484375 
L 138.855555 413.6875 
L 146.265151 413.484375 
L 148.11755 413.40625 
L 149.969949 413.6875 
L 151.822348 413.828125 
L 153.674747 413.5 
L 157.379545 413.828125 
L 161.084343 413.484375 
L 162.936742 413.671875 
L 164.789141 413.65625 
L 166.64154 413.484375 
L 168.493939 413.734375 
L 170.346338 413.53125 
L 181.460732 413.71875 
L 183.313131 413.5 
L 188.870328 413.734375 
L 192.575126 413.515625 
L 194.427525 413.6875 
L 198.132323 413.5 
L 199.984722 413.734375 
L 205.541919 413.5 
L 207.394318 413.8125 
L 209.246717 413.5 
L 211.099116 413.375 
L 212.951515 413.5625 
L 214.803914 413.53125 
L 216.656313 413.875 
L 220.361111 413.671875 
L 227.770707 413.53125 
L 231.475505 413.875 
L 233.327904 413.453125 
L 235.180303 413.328125 
L 237.032702 413.65625 
L 238.885101 413.734375 
L 246.294697 413.5625 
L 248.147096 413.75 
L 249.999495 413.796875 
L 251.851894 413.421875 
L 255.556692 413.65625 
L 257.409091 413.796875 
L 259.26149 413.515625 
L 266.671086 413.6875 
L 268.523485 413.5 
L 270.375884 413.5 
L 272.228283 413.375 
L 274.080682 413.65625 
L 279.637879 413.828125 
L 281.490278 413.453125 
L 283.342677 413.484375 
L 285.195076 413.828125 
L 287.047475 413.75 
L 288.899874 413.4375 
L 292.604672 413.640625 
L 294.457071 413.765625 
L 298.161869 413.5625 
L 300.014268 413.734375 
L 301.866667 413.40625 
L 305.571465 413.828125 
L 307.423864 413.53125 
L 311.128662 413.578125 
L 312.981061 413.90625 
L 314.83346 413.65625 
L 316.685859 413.53125 
L 324.095455 413.578125 
L 325.947854 413.53125 
L 327.800252 413.828125 
L 331.505051 413.40625 
L 333.35745 413.921875 
L 337.062248 413.328125 
L 338.914647 413.75 
L 340.767045 413.765625 
L 344.471844 413.484375 
L 348.176641 413.671875 
L 350.02904 413.53125 
L 351.88144 413.75 
L 353.733839 413.5 
L 355.586237 413.609375 
L 357.438636 413.90625 
L 361.143435 413.34375 
L 362.995833 413.375 
L 366.700632 413.84375 
L 368.55303 413.578125 
L 370.405429 413.453125 
L 372.257829 413.6875 
L 374.110228 413.5 
L 375.962626 413.59375 
L 377.815025 413.984375 
L 379.667425 413.71875 
L 381.519824 413.25 
L 385.224621 413.84375 
L 390.781818 413.640625 
L 394.486617 413.59375 
L 396.339015 413.59375 
L 398.191414 413.453125 
L 400.043813 413.609375 
L 401.896212 413.5625 
L 405.60101 413.796875 
L 407.453409 413.578125 
L 407.453409 413.578125 
" clip-path="url(#p5c788c5cf8)" style="fill: none; stroke: #1f77b4; stroke-width: 1.5; stroke-linecap: square"/>
   </g>
   <g id="line2d_83">
    <path d="M 74.02159 413.6875 
L 81.431186 413.65625 
L 83.283586 413.8125 
L 85.135984 413.640625 
L 86.988383 413.609375 
L 88.840782 413.40625 
L 90.693182 413.359375 
L 92.54558 413.875 
L 94.397979 413.75 
L 96.250378 413.5 
L 98.102777 413.65625 
L 101.807575 413.671875 
L 105.512373 413.5 
L 107.364772 413.65625 
L 114.774368 413.71875 
L 116.626767 413.5 
L 120.331565 413.609375 
L 122.183964 413.453125 
L 125.888762 413.796875 
L 127.741161 413.53125 
L 129.59356 413.75 
L 133.298358 413.421875 
L 137.003156 413.828125 
L 140.707954 413.359375 
L 144.412752 413.65625 
L 146.265151 413.5 
L 149.969949 413.828125 
L 153.674747 413.40625 
L 155.527146 413.6875 
L 157.379545 413.828125 
L 159.231944 413.484375 
L 161.084343 413.5 
L 162.936742 413.671875 
L 166.64154 413.578125 
L 168.493939 413.71875 
L 170.346338 413.53125 
L 172.198737 413.640625 
L 175.903535 413.609375 
L 177.755934 413.75 
L 181.460732 413.578125 
L 185.16553 413.796875 
L 187.017929 413.515625 
L 194.427525 413.71875 
L 196.279924 413.5 
L 199.984722 413.609375 
L 201.837121 413.53125 
L 203.68952 413.75 
L 211.099116 413.453125 
L 212.951515 413.59375 
L 214.803914 413.59375 
L 216.656313 413.84375 
L 222.21351 413.453125 
L 224.065909 413.65625 
L 225.918308 413.65625 
L 227.770707 413.453125 
L 229.623106 413.734375 
L 231.475505 413.828125 
L 233.327904 413.53125 
L 235.180303 413.484375 
L 237.032702 413.828125 
L 240.7375 413.453125 
L 244.442298 413.65625 
L 246.294697 413.453125 
L 248.147096 413.453125 
L 249.999495 413.734375 
L 251.851894 413.578125 
L 255.556692 413.75 
L 259.26149 413.53125 
L 262.966288 413.828125 
L 266.671086 413.640625 
L 268.523485 413.359375 
L 270.375884 413.5625 
L 274.080682 413.40625 
L 275.933081 413.828125 
L 277.78548 413.640625 
L 279.637879 413.8125 
L 281.490278 413.734375 
L 283.342677 413.5 
L 288.899874 413.734375 
L 290.752273 413.5 
L 298.161869 413.65625 
L 300.014268 413.4375 
L 301.866667 413.34375 
L 303.719066 413.765625 
L 305.571465 413.75 
L 309.276263 413.53125 
L 312.981061 413.71875 
L 318.538258 413.53125 
L 320.390656 413.671875 
L 322.243056 413.421875 
L 324.095455 413.359375 
L 327.800252 413.84375 
L 329.652652 413.875 
L 331.505051 413.609375 
L 333.35745 413.71875 
L 337.062248 413.40625 
L 338.914647 413.71875 
L 340.767045 413.6875 
L 344.471844 413.484375 
L 353.733839 413.65625 
L 355.586237 413.5 
L 357.438636 413.75 
L 359.291036 413.671875 
L 361.143435 413.375 
L 362.995833 413.453125 
L 366.700632 414.0625 
L 368.55303 413.453125 
L 370.405429 413.203125 
L 372.257829 413.84375 
L 381.519824 413.5625 
L 387.077021 413.6875 
L 392.634217 413.40625 
L 398.191414 413.796875 
L 400.043813 413.5625 
L 401.896212 413.5625 
L 403.748611 413.71875 
L 405.60101 413.515625 
L 407.453409 413.078125 
L 407.453409 413.078125 
" clip-path="url(#p5c788c5cf8)" style="fill: none; stroke: #ff7f0e; stroke-width: 1.5; stroke-linecap: square"/>
   </g>
   <g id="line2d_84">
    <path d="M 74.02159 413.8125 
L 79.578787 413.5 
L 83.283586 413.84375 
L 85.135984 413.75 
L 88.840782 413.28125 
L 90.693182 413.53125 
L 92.54558 413.96875 
L 96.250378 413.515625 
L 99.955176 413.578125 
L 101.807575 413.75 
L 105.512373 413.375 
L 109.217171 413.734375 
L 112.921969 413.671875 
L 116.626767 413.734375 
L 118.479166 413.5 
L 122.183964 413.671875 
L 127.741161 413.578125 
L 129.59356 413.84375 
L 133.298358 413.4375 
L 137.003156 413.65625 
L 151.822348 413.671875 
L 153.674747 413.375 
L 157.379545 413.90625 
L 161.084343 413.484375 
L 162.936742 413.5 
L 164.789141 413.671875 
L 166.64154 413.5625 
L 170.346338 413.59375 
L 172.198737 413.53125 
L 179.608333 413.75 
L 187.017929 413.484375 
L 190.722727 413.75 
L 192.575126 413.484375 
L 194.427525 413.609375 
L 196.279924 413.53125 
L 199.984722 413.796875 
L 201.837121 413.40625 
L 205.541919 413.671875 
L 207.394318 413.75 
L 209.246717 413.5 
L 211.099116 413.40625 
L 212.951515 413.671875 
L 220.361111 413.65625 
L 222.21351 413.484375 
L 224.065909 413.59375 
L 225.918308 413.5625 
L 229.623106 413.765625 
L 231.475505 413.828125 
L 233.327904 413.59375 
L 235.180303 413.5 
L 237.032702 413.640625 
L 238.885101 413.5625 
L 240.7375 413.6875 
L 244.442298 413.40625 
L 249.999495 413.71875 
L 255.556692 413.5 
L 257.409091 413.734375 
L 261.113889 413.59375 
L 266.671086 413.796875 
L 268.523485 413.484375 
L 270.375884 413.609375 
L 274.080682 413.5 
L 279.637879 413.875 
L 281.490278 413.59375 
L 285.195076 413.453125 
L 287.047475 413.75 
L 288.899874 413.75 
L 290.752273 413.5 
L 292.604672 413.8125 
L 294.457071 413.75 
L 296.30947 413.53125 
L 298.161869 413.75 
L 300.014268 413.375 
L 301.866667 413.1875 
L 303.719066 413.8125 
L 305.571465 413.828125 
L 307.423864 413.40625 
L 309.276263 413.40625 
L 311.128662 413.671875 
L 312.981061 414.0625 
L 316.685859 413.40625 
L 318.538258 413.421875 
L 322.243056 413.6875 
L 325.947854 413.484375 
L 327.800252 413.796875 
L 329.652652 413.890625 
L 331.505051 413.5625 
L 333.35745 413.8125 
L 335.209848 413.40625 
L 337.062248 413.328125 
L 338.914647 413.8125 
L 346.324243 413.640625 
L 348.176641 413.671875 
L 351.88144 413.5 
L 353.733839 413.671875 
L 355.586237 413.5 
L 357.438636 413.75 
L 359.291036 413.65625 
L 361.143435 413.296875 
L 362.995833 413.75 
L 366.700632 413.8125 
L 370.405429 413.328125 
L 375.962626 413.828125 
L 377.815025 413.75 
L 381.519824 413.21875 
L 385.224621 413.875 
L 387.077021 413.59375 
L 388.929419 413.484375 
L 390.781818 413.828125 
L 394.486617 413.53125 
L 396.339015 413.484375 
L 400.043813 413.75 
L 401.896212 413.328125 
L 405.60101 413.828125 
L 407.453409 413.6875 
L 407.453409 413.6875 
" clip-path="url(#p5c788c5cf8)" style="fill: none; stroke: #2ca02c; stroke-width: 1.5; stroke-linecap: square"/>
   </g>
   <g id="patch_14">
    <path d="M 57.35 534.046875 
L 57.35 293.078125 
" style="fill: none; stroke: #000000; stroke-width: 0.8; stroke-linejoin: miter; stroke-linecap: square"/>
   </g>
   <g id="patch_15">
    <path d="M 424.125 534.046875 
L 424.125 293.078125 
" style="fill: none; stroke: #000000; stroke-width: 0.8; stroke-linejoin: miter; stroke-linecap: square"/>
   </g>
   <g id="patch_16">
    <path d="M 57.349999 534.04 
L 424.125 534.04 
" style="fill: none; stroke: #000000; stroke-width: 0.8; stroke-linejoin: miter; stroke-linecap: square"/>
   </g>
   <g id="patch_17">
    <path d="M 57.349999 293.07 
L 424.125 293.07 
" style="fill: none; stroke: #000000; stroke-width: 0.8; stroke-linejoin: miter; stroke-linecap: square"/>
   </g>
  </g>
  <g id="axes_4">
   <g id="patch_18">
    <path d="M 486.425 534.04 
L 853.2 534.04 
L 853.2 293.07 
L 486.425 293.07 
z
" style="fill: #ffffff"/>
   </g>
   <g id="matplotlib.axis_7">
    <g id="xtick_19">
     <g id="line2d_85">
      <path d="M 540.14457 534.04 
L 540.14457 293.07 
" clip-path="url(#pe899c2e5b0)" style="fill: none; stroke-dasharray: 0.6,0.99; stroke-dashoffset: 0; stroke: #b0b0b0; stroke-width: 0.6"/>
     </g>
     <g id="line2d_86">
      <g>
       <use xlink:href="#m75471c7c7a" x="540.14457" y="534.04" style="stroke: #000000; stroke-width: 0.8"/>
      </g>
     </g>
     <g id="text_34">
      <!-- 07:39:00 -->
      <g transform="translate(517.68832 548.638437) scale(0.1 -0.1)">
       <use xlink:href="#DejaVuSans-30"/>
       <use xlink:href="#DejaVuSans-37" transform="translate(63.623047 0)"/>
       <use xlink:href="#DejaVuSans-3a" transform="translate(127.246094 0)"/>
       <use xlink:href="#DejaVuSans-33" transform="translate(160.9375 0)"/>
       <use xlink:href="#DejaVuSans-39" transform="translate(224.560547 0)"/>
       <use xlink:href="#DejaVuSans-3a" transform="translate(288.183594 0)"/>
       <use xlink:href="#DejaVuSans-30" transform="translate(321.875 0)"/>
       <use xlink:href="#DejaVuSans-30" transform="translate(385.498047 0)"/>
      </g>
     </g>
    </g>
    <g id="xtick_20">
     <g id="line2d_87">
      <path d="M 595.71654 534.04 
L 595.71654 293.07 
" clip-path="url(#pe899c2e5b0)" style="fill: none; stroke-dasharray: 0.6,0.99; stroke-dashoffset: 0; stroke: #b0b0b0; stroke-width: 0.6"/>
     </g>
     <g id="line2d_88">
      <g>
       <use xlink:href="#m75471c7c7a" x="595.71654" y="534.04" style="stroke: #000000; stroke-width: 0.8"/>
      </g>
     </g>
     <g id="text_35">
      <!-- 07:39:30 -->
      <g transform="translate(573.26029 548.638437) scale(0.1 -0.1)">
       <use xlink:href="#DejaVuSans-30"/>
       <use xlink:href="#DejaVuSans-37" transform="translate(63.623047 0)"/>
       <use xlink:href="#DejaVuSans-3a" transform="translate(127.246094 0)"/>
       <use xlink:href="#DejaVuSans-33" transform="translate(160.9375 0)"/>
       <use xlink:href="#DejaVuSans-39" transform="translate(224.560547 0)"/>
       <use xlink:href="#DejaVuSans-3a" transform="translate(288.183594 0)"/>
       <use xlink:href="#DejaVuSans-33" transform="translate(321.875 0)"/>
       <use xlink:href="#DejaVuSans-30" transform="translate(385.498047 0)"/>
      </g>
     </g>
    </g>
    <g id="xtick_21">
     <g id="line2d_89">
      <path d="M 651.28851 534.04 
L 651.28851 293.07 
" clip-path="url(#pe899c2e5b0)" style="fill: none; stroke-dasharray: 0.6,0.99; stroke-dashoffset: 0; stroke: #b0b0b0; stroke-width: 0.6"/>
     </g>
     <g id="line2d_90">
      <g>
       <use xlink:href="#m75471c7c7a" x="651.28851" y="534.04" style="stroke: #000000; stroke-width: 0.8"/>
      </g>
     </g>
     <g id="text_36">
      <!-- 07:40:00 -->
      <g transform="translate(628.83226 548.638437) scale(0.1 -0.1)">
       <use xlink:href="#DejaVuSans-30"/>
       <use xlink:href="#DejaVuSans-37" transform="translate(63.623047 0)"/>
       <use xlink:href="#DejaVuSans-3a" transform="translate(127.246094 0)"/>
       <use xlink:href="#DejaVuSans-34" transform="translate(160.9375 0)"/>
       <use xlink:href="#DejaVuSans-30" transform="translate(224.560547 0)"/>
       <use xlink:href="#DejaVuSans-3a" transform="translate(288.183594 0)"/>
       <use xlink:href="#DejaVuSans-30" transform="translate(321.875 0)"/>
       <use xlink:href="#DejaVuSans-30" transform="translate(385.498047 0)"/>
      </g>
     </g>
    </g>
    <g id="xtick_22">
     <g id="line2d_91">
      <path d="M 706.86048 534.04 
L 706.86048 293.07 
" clip-path="url(#pe899c2e5b0)" style="fill: none; stroke-dasharray: 0.6,0.99; stroke-dashoffset: 0; stroke: #b0b0b0; stroke-width: 0.6"/>
     </g>
     <g id="line2d_92">
      <g>
       <use xlink:href="#m75471c7c7a" x="706.86048" y="534.04" style="stroke: #000000; stroke-width: 0.8"/>
      </g>
     </g>
     <g id="text_37">
      <!-- 07:40:30 -->
      <g transform="translate(684.40423 548.638437) scale(0.1 -0.1)">
       <use xlink:href="#DejaVuSans-30"/>
       <use xlink:href="#DejaVuSans-37" transform="translate(63.623047 0)"/>
       <use xlink:href="#DejaVuSans-3a" transform="translate(127.246094 0)"/>
       <use xlink:href="#DejaVuSans-34" transform="translate(160.9375 0)"/>
       <use xlink:href="#DejaVuSans-30" transform="translate(224.560547 0)"/>
       <use xlink:href="#DejaVuSans-3a" transform="translate(288.183594 0)"/>
       <use xlink:href="#DejaVuSans-33" transform="translate(321.875 0)"/>
       <use xlink:href="#DejaVuSans-30" transform="translate(385.498047 0)"/>
      </g>
     </g>
    </g>
    <g id="xtick_23">
     <g id="line2d_93">
      <path d="M 762.43245 534.04 
L 762.43245 293.07 
" clip-path="url(#pe899c2e5b0)" style="fill: none; stroke-dasharray: 0.6,0.99; stroke-dashoffset: 0; stroke: #b0b0b0; stroke-width: 0.6"/>
     </g>
     <g id="line2d_94">
      <g>
       <use xlink:href="#m75471c7c7a" x="762.43245" y="534.04" style="stroke: #000000; stroke-width: 0.8"/>
      </g>
     </g>
     <g id="text_38">
      <!-- 07:41:00 -->
      <g transform="translate(739.9762 548.638437) scale(0.1 -0.1)">
       <use xlink:href="#DejaVuSans-30"/>
       <use xlink:href="#DejaVuSans-37" transform="translate(63.623047 0)"/>
       <use xlink:href="#DejaVuSans-3a" transform="translate(127.246094 0)"/>
       <use xlink:href="#DejaVuSans-34" transform="translate(160.9375 0)"/>
       <use xlink:href="#DejaVuSans-31" transform="translate(224.560547 0)"/>
       <use xlink:href="#DejaVuSans-3a" transform="translate(288.183594 0)"/>
       <use xlink:href="#DejaVuSans-30" transform="translate(321.875 0)"/>
       <use xlink:href="#DejaVuSans-30" transform="translate(385.498047 0)"/>
      </g>
     </g>
    </g>
    <g id="xtick_24">
     <g id="line2d_95">
      <path d="M 818.00442 534.04 
L 818.00442 293.07 
" clip-path="url(#pe899c2e5b0)" style="fill: none; stroke-dasharray: 0.6,0.99; stroke-dashoffset: 0; stroke: #b0b0b0; stroke-width: 0.6"/>
     </g>
     <g id="line2d_96">
      <g>
       <use xlink:href="#m75471c7c7a" x="818.00442" y="534.04" style="stroke: #000000; stroke-width: 0.8"/>
      </g>
     </g>
     <g id="text_39">
      <!-- 07:41:30 -->
      <g transform="translate(795.54817 548.638437) scale(0.1 -0.1)">
       <use xlink:href="#DejaVuSans-30"/>
       <use xlink:href="#DejaVuSans-37" transform="translate(63.623047 0)"/>
       <use xlink:href="#DejaVuSans-3a" transform="translate(127.246094 0)"/>
       <use xlink:href="#DejaVuSans-34" transform="translate(160.9375 0)"/>
       <use xlink:href="#DejaVuSans-31" transform="translate(224.560547 0)"/>
       <use xlink:href="#DejaVuSans-3a" transform="translate(288.183594 0)"/>
       <use xlink:href="#DejaVuSans-33" transform="translate(321.875 0)"/>
       <use xlink:href="#DejaVuSans-30" transform="translate(385.498047 0)"/>
      </g>
     </g>
    </g>
    <g id="text_40">
     <!-- UTC -->
     <g transform="translate(659.901562 562.316562) scale(0.1 -0.1)">
      <defs>
       <path id="DejaVuSans-55" d="M 556 4666 
L 1191 4666 
L 1191 1831 
Q 1191 1081 1462 751 
Q 1734 422 2344 422 
Q 2950 422 3222 751 
Q 3494 1081 3494 1831 
L 3494 4666 
L 4128 4666 
L 4128 1753 
Q 4128 841 3676 375 
Q 3225 -91 2344 -91 
Q 1459 -91 1007 375 
Q 556 841 556 1753 
L 556 4666 
z
" transform="scale(0.015625)"/>
       <path id="DejaVuSans-43" d="M 4122 4306 
L 4122 3641 
Q 3803 3938 3442 4084 
Q 3081 4231 2675 4231 
Q 1875 4231 1450 3742 
Q 1025 3253 1025 2328 
Q 1025 1406 1450 917 
Q 1875 428 2675 428 
Q 3081 428 3442 575 
Q 3803 722 4122 1019 
L 4122 359 
Q 3791 134 3420 21 
Q 3050 -91 2638 -91 
Q 1578 -91 968 557 
Q 359 1206 359 2328 
Q 359 3453 968 4101 
Q 1578 4750 2638 4750 
Q 3056 4750 3426 4639 
Q 3797 4528 4122 4306 
z
" transform="scale(0.015625)"/>
      </defs>
      <use xlink:href="#DejaVuSans-55"/>
      <use xlink:href="#DejaVuSans-54" transform="translate(73.193359 0)"/>
      <use xlink:href="#DejaVuSans-43" transform="translate(128.402344 0)"/>
     </g>
    </g>
   </g>
   <g id="matplotlib.axis_8">
    <g id="ytick_19">
     <g id="line2d_97">
      <path d="M 486.425 496.790721 
L 853.2 496.790721 
" clip-path="url(#pe899c2e5b0)" style="fill: none; stroke-dasharray: 0.6,0.99; stroke-dashoffset: 0; stroke: #b0b0b0; stroke-width: 0.6"/>
     </g>
     <g id="line2d_98">
      <g>
       <use xlink:href="#mdcab30a58d" x="486.425" y="496.790721" style="stroke: #000000; stroke-width: 0.8"/>
      </g>
     </g>
     <g id="text_41">
      <!-- 50 -->
      <g transform="translate(466.7 500.589939) scale(0.1 -0.1)">
       <use xlink:href="#DejaVuSans-35"/>
       <use xlink:href="#DejaVuSans-30" transform="translate(63.623047 0)"/>
      </g>
     </g>
    </g>
    <g id="ytick_20">
     <g id="line2d_99">
      <path d="M 486.425 450.438519 
L 853.2 450.438519 
" clip-path="url(#pe899c2e5b0)" style="fill: none; stroke-dasharray: 0.6,0.99; stroke-dashoffset: 0; stroke: #b0b0b0; stroke-width: 0.6"/>
     </g>
     <g id="line2d_100">
      <g>
       <use xlink:href="#mdcab30a58d" x="486.425" y="450.438519" style="stroke: #000000; stroke-width: 0.8"/>
      </g>
     </g>
     <g id="text_42">
      <!-- 100 -->
      <g transform="translate(460.3375 454.237738) scale(0.1 -0.1)">
       <use xlink:href="#DejaVuSans-31"/>
       <use xlink:href="#DejaVuSans-30" transform="translate(63.623047 0)"/>
       <use xlink:href="#DejaVuSans-30" transform="translate(127.246094 0)"/>
      </g>
     </g>
    </g>
    <g id="ytick_21">
     <g id="line2d_101">
      <path d="M 486.425 404.086318 
L 853.2 404.086318 
" clip-path="url(#pe899c2e5b0)" style="fill: none; stroke-dasharray: 0.6,0.99; stroke-dashoffset: 0; stroke: #b0b0b0; stroke-width: 0.6"/>
     </g>
     <g id="line2d_102">
      <g>
       <use xlink:href="#mdcab30a58d" x="486.425" y="404.086318" style="stroke: #000000; stroke-width: 0.8"/>
      </g>
     </g>
     <g id="text_43">
      <!-- 150 -->
      <g transform="translate(460.3375 407.885537) scale(0.1 -0.1)">
       <use xlink:href="#DejaVuSans-31"/>
       <use xlink:href="#DejaVuSans-35" transform="translate(63.623047 0)"/>
       <use xlink:href="#DejaVuSans-30" transform="translate(127.246094 0)"/>
      </g>
     </g>
    </g>
    <g id="ytick_22">
     <g id="line2d_103">
      <path d="M 486.425 357.734117 
L 853.2 357.734117 
" clip-path="url(#pe899c2e5b0)" style="fill: none; stroke-dasharray: 0.6,0.99; stroke-dashoffset: 0; stroke: #b0b0b0; stroke-width: 0.6"/>
     </g>
     <g id="line2d_104">
      <g>
       <use xlink:href="#mdcab30a58d" x="486.425" y="357.734117" style="stroke: #000000; stroke-width: 0.8"/>
      </g>
     </g>
     <g id="text_44">
      <!-- 200 -->
      <g transform="translate(460.3375 361.533336) scale(0.1 -0.1)">
       <use xlink:href="#DejaVuSans-32"/>
       <use xlink:href="#DejaVuSans-30" transform="translate(63.623047 0)"/>
       <use xlink:href="#DejaVuSans-30" transform="translate(127.246094 0)"/>
      </g>
     </g>
    </g>
    <g id="ytick_23">
     <g id="line2d_105">
      <path d="M 486.425 311.381916 
L 853.2 311.381916 
" clip-path="url(#pe899c2e5b0)" style="fill: none; stroke-dasharray: 0.6,0.99; stroke-dashoffset: 0; stroke: #b0b0b0; stroke-width: 0.6"/>
     </g>
     <g id="line2d_106">
      <g>
       <use xlink:href="#mdcab30a58d" x="486.425" y="311.381916" style="stroke: #000000; stroke-width: 0.8"/>
      </g>
     </g>
     <g id="text_45">
      <!-- 250 -->
      <g transform="translate(460.3375 315.181135) scale(0.1 -0.1)">
       <use xlink:href="#DejaVuSans-32"/>
       <use xlink:href="#DejaVuSans-35" transform="translate(63.623047 0)"/>
       <use xlink:href="#DejaVuSans-30" transform="translate(127.246094 0)"/>
      </g>
     </g>
    </g>
    <g id="text_46">
     <!-- Argument of perigee [deg] -->
     <g transform="translate(454.257812 480.297969) rotate(-90) scale(0.1 -0.1)">
      <defs>
       <path id="DejaVuSans-75" d="M 544 1381 
L 544 3500 
L 1119 3500 
L 1119 1403 
Q 1119 906 1312 657 
Q 1506 409 1894 409 
Q 2359 409 2629 706 
Q 2900 1003 2900 1516 
L 2900 3500 
L 3475 3500 
L 3475 0 
L 2900 0 
L 2900 538 
Q 2691 219 2414 64 
Q 2138 -91 1772 -91 
Q 1169 -91 856 284 
Q 544 659 544 1381 
z
M 1991 3584 
L 1991 3584 
z
" transform="scale(0.015625)"/>
       <path id="DejaVuSans-70" d="M 1159 525 
L 1159 -1331 
L 581 -1331 
L 581 3500 
L 1159 3500 
L 1159 2969 
Q 1341 3281 1617 3432 
Q 1894 3584 2278 3584 
Q 2916 3584 3314 3078 
Q 3713 2572 3713 1747 
Q 3713 922 3314 415 
Q 2916 -91 2278 -91 
Q 1894 -91 1617 61 
Q 1341 213 1159 525 
z
M 3116 1747 
Q 3116 2381 2855 2742 
Q 2594 3103 2138 3103 
Q 1681 3103 1420 2742 
Q 1159 2381 1159 1747 
Q 1159 1113 1420 752 
Q 1681 391 2138 391 
Q 2594 391 2855 752 
Q 3116 1113 3116 1747 
z
" transform="scale(0.015625)"/>
      </defs>
      <use xlink:href="#DejaVuSans-41"/>
      <use xlink:href="#DejaVuSans-72" transform="translate(68.408203 0)"/>
      <use xlink:href="#DejaVuSans-67" transform="translate(107.771484 0)"/>
      <use xlink:href="#DejaVuSans-75" transform="translate(171.248047 0)"/>
      <use xlink:href="#DejaVuSans-6d" transform="translate(234.626953 0)"/>
      <use xlink:href="#DejaVuSans-65" transform="translate(332.039062 0)"/>
      <use xlink:href="#DejaVuSans-6e" transform="translate(393.5625 0)"/>
      <use xlink:href="#DejaVuSans-74" transform="translate(456.941406 0)"/>
      <use xlink:href="#DejaVuSans-20" transform="translate(496.150391 0)"/>
      <use xlink:href="#DejaVuSans-6f" transform="translate(527.9375 0)"/>
      <use xlink:href="#DejaVuSans-66" transform="translate(589.119141 0)"/>
      <use xlink:href="#DejaVuSans-20" transform="translate(624.324219 0)"/>
      <use xlink:href="#DejaVuSans-70" transform="translate(656.111328 0)"/>
      <use xlink:href="#DejaVuSans-65" transform="translate(719.587891 0)"/>
      <use xlink:href="#DejaVuSans-72" transform="translate(781.111328 0)"/>
      <use xlink:href="#DejaVuSans-69" transform="translate(822.224609 0)"/>
      <use xlink:href="#DejaVuSans-67" transform="translate(850.007812 0)"/>
      <use xlink:href="#DejaVuSans-65" transform="translate(913.484375 0)"/>
      <use xlink:href="#DejaVuSans-65" transform="translate(975.007812 0)"/>
      <use xlink:href="#DejaVuSans-20" transform="translate(1036.53125 0)"/>
      <use xlink:href="#DejaVuSans-5b" transform="translate(1068.318359 0)"/>
      <use xlink:href="#DejaVuSans-64" transform="translate(1107.332031 0)"/>
      <use xlink:href="#DejaVuSans-65" transform="translate(1170.808594 0)"/>
      <use xlink:href="#DejaVuSans-67" transform="translate(1232.332031 0)"/>
      <use xlink:href="#DejaVuSans-5d" transform="translate(1295.808594 0)"/>
     </g>
    </g>
   </g>
   <g id="line2d_107">
    <path d="M 503.096591 381.659968 
L 504.94899 348.074038 
L 834.676011 337.655323 
L 836.528409 304.069393 
L 836.528409 304.069393 
" clip-path="url(#pe899c2e5b0)" style="fill: none; stroke: #1f77b4; stroke-width: 1.5; stroke-linecap: square"/>
   </g>
   <g id="line2d_108">
    <path d="M 503.096591 381.613757 
L 504.94899 348.027827 
L 834.676011 337.609112 
L 836.528409 304.023182 
L 836.528409 304.023182 
" clip-path="url(#pe899c2e5b0)" style="fill: none; stroke: #ff7f0e; stroke-width: 1.5; stroke-linecap: square"/>
   </g>
   <g id="line2d_109">
    <path d="M 503.096591 496.33218 
L 504.94899 514.918856 
L 834.676011 504.500141 
L 836.528409 523.086818 
L 836.528409 523.086818 
" clip-path="url(#pe899c2e5b0)" style="fill: none; stroke: #2ca02c; stroke-width: 1.5; stroke-linecap: square"/>
   </g>
   <g id="patch_19">
    <path d="M 486.425 534.04 
L 486.425 293.07 
" style="fill: none; stroke: #000000; stroke-width: 0.8; stroke-linejoin: miter; stroke-linecap: square"/>
   </g>
   <g id="patch_20">
    <path d="M 853.2 534.04 
L 853.2 293.07 
" style="fill: none; stroke: #000000; stroke-width: 0.8; stroke-linejoin: miter; stroke-linecap: square"/>
   </g>
   <g id="patch_21">
    <path d="M 486.425 534.04 
L 853.2 534.04 
" style="fill: none; stroke: #000000; stroke-width: 0.8; stroke-linejoin: miter; stroke-linecap: square"/>
   </g>
   <g id="patch_22">
    <path d="M 486.425 293.07 
L 853.2 293.07 
" style="fill: none; stroke: #000000; stroke-width: 0.8; stroke-linejoin: miter; stroke-linecap: square"/>
   </g>
  </g>
 </g>
 <defs>
  <clipPath id="p3b7556b6d5">
   <rect x="57.35" y="26.88" width="366.775" height="240.97"/>
  </clipPath>
  <clipPath id="p9884cd3d61">
   <rect x="486.425" y="26.88" width="366.775" height="240.97"/>
  </clipPath>
  <clipPath id="p5c788c5cf8">
   <rect x="57.35" y="293.07" width="366.775" height="240.97"/>
  </clipPath>
  <clipPath id="pe899c2e5b0">
   <rect x="486.425" y="293.07" width="366.775" height="240.97"/>
  </clipPath>
 </defs>
</svg>
