<?xml version="1.0" encoding="utf-8" standalone="no"?>
<!DOCTYPE svg PUBLIC "-//W3C//DTD SVG 1.1//EN"
  "http://www.w3.org/Graphics/SVG/1.1/DTD/svg11.dtd">
<svg xmlns:xlink="http://www.w3.org/1999/xlink" width="720pt" height="360pt" viewBox="0 0 720 360" xmlns="http://www.w3.org/2000/svg" version="1.1">
 <metadata>
  <rdf:RDF xmlns:dc="http://purl.org/dc/elements/1.1/" xmlns:cc="http://creativecommons.org/ns#" xmlns:rdf="http://www.w3.org/1999/02/22-rdf-syntax-ns#">
   <cc:Work>
    <dc:type rdf:resource="http://purl.org/dc/dcmitype/StillImage"/>
    <dc:date>2025-11-01T08:07:48.804415</dc:date>
    <dc:format>image/svg+xml</dc:format>
    <dc:creator>
     <cc:Agent>
      <dc:title>Matplotlib v3.10.7, https://matplotlib.org/</dc:title>
     </cc:Agent>
    </dc:creator>
   </cc:Work>
  </rdf:RDF>
 </metadata>
 <defs>
  <style type="text/css">*{stroke-linejoin: round; stroke-linecap: butt}</style>
 </defs>
 <g id="figure_1">
  <g id="patch_1">
   <path d="M 0 360 
L 720 360 
L 720 0 
L 0 0 
z
" style="fill: #ffffff"/>
  </g>
  <g id="axes_1">
   <g id="patch_2">
    <path d="M 62.3 318.04 
L 709.2 318.04 
L 709.2 26.88 
L 62.3 26.88 
z
" style="fill: #ffffff"/>
   </g>
   <g id="matplotlib.axis_1">
    <g id="xtick_1">
     <g id="line2d_1">
      <path d="M 157.047978 318.04 
L 157.047978 26.88 
" clip-path="url(#p500557634e)" style="fill: none; stroke-dasharray: 0.6,0.99; stroke-dashoffset: 0; stroke: #b0b0b0; stroke-width: 0.6"/>
     </g>
     <g id="line2d_2">
      <defs>
       <path id="m8215b816ba" d="M 0 0 
L 0 3.5 
" style="stroke: #000000; stroke-width: 0.8"/>
      </defs>
      <g>
       <use xlink:href="#m8215b816ba" x="157.047978" y="318.04" style="stroke: #000000; stroke-width: 0.8"/>
      </g>
     </g>
     <g id="text_1">
      <!-- 07:39:00 -->
      <g transform="translate(134.591728 332.638438) scale(0.1 -0.1)">
       <defs>
        <path id="DejaVuSans-30" d="M 2034 4250 
Q 1547 4250 1301 3770 
Q 1056 3291 1056 2328 
Q 1056 1369 1301 889 
Q 1547 409 2034 409 
Q 2525 409 2770 889 
Q 3016 1369 3016 2328 
Q 3016 3291 2770 3770 
Q 2525 4250 2034 4250 
z
M 2034 4750 
Q 2819 4750 3233 4129 
Q 3647 3509 3647 2328 
Q 3647 1150 3233 529 
Q 2819 -91 2034 -91 
Q 1250 -91 836 529 
Q 422 1150 422 2328 
Q 422 3509 836 4129 
Q 1250 4750 2034 4750 
z
" transform="scale(0.015625)"/>
        <path id="DejaVuSans-37" d="M 525 4666 
L 3525 4666 
L 3525 4397 
L 1831 0 
L 1172 0 
L 2766 4134 
L 525 4134 
L 525 4666 
z
" transform="scale(0.015625)"/>
        <path id="DejaVuSans-3a" d="M 750 794 
L 1409 794 
L 1409 0 
L 750 0 
L 750 794 
z
M 750 3309 
L 1409 3309 
L 1409 2516 
L 750 2516 
L 750 3309 
z
" transform="scale(0.015625)"/>
        <path id="DejaVuSans-33" d="M 2597 2516 
Q 3050 2419 3304 2112 
Q 3559 1806 3559 1356 
Q 3559 666 3084 287 
Q 2609 -91 1734 -91 
Q 1441 -91 1130 -33 
Q 819 25 488 141 
L 488 750 
Q 750 597 1062 519 
Q 1375 441 1716 441 
Q 2309 441 2620 675 
Q 2931 909 2931 1356 
Q 2931 1769 2642 2001 
Q 2353 2234 1838 2234 
L 1294 2234 
L 1294 2753 
L 1863 2753 
Q 2328 2753 2575 2939 
Q 2822 3125 2822 3475 
Q 2822 3834 2567 4026 
Q 2313 4219 1838 4219 
Q 1578 4219 1281 4162 
Q 984 4106 628 3988 
L 628 4550 
Q 988 4650 1302 4700 
Q 1616 4750 1894 4750 
Q 2613 4750 3031 4423 
Q 3450 4097 3450 3541 
Q 3450 3153 3228 2886 
Q 3006 2619 2597 2516 
z
" transform="scale(0.015625)"/>
        <path id="DejaVuSans-39" d="M 703 97 
L 703 672 
Q 941 559 1184 500 
Q 1428 441 1663 441 
Q 2288 441 2617 861 
Q 2947 1281 2994 2138 
Q 2813 1869 2534 1725 
Q 2256 1581 1919 1581 
Q 1219 1581 811 2004 
Q 403 2428 403 3163 
Q 403 3881 828 4315 
Q 1253 4750 1959 4750 
Q 2769 4750 3195 4129 
Q 3622 3509 3622 2328 
Q 3622 1225 3098 567 
Q 2575 -91 1691 -91 
Q 1453 -91 1209 -44 
Q 966 3 703 97 
z
M 1959 2075 
Q 2384 2075 2632 2365 
Q 2881 2656 2881 3163 
Q 2881 3666 2632 3958 
Q 2384 4250 1959 4250 
Q 1534 4250 1286 3958 
Q 1038 3666 1038 3163 
Q 1038 2656 1286 2365 
Q 1534 2075 1959 2075 
z
" transform="scale(0.015625)"/>
       </defs>
       <use xlink:href="#DejaVuSans-30"/>
       <use xlink:href="#DejaVuSans-37" transform="translate(63.623047 0)"/>
       <use xlink:href="#DejaVuSans-3a" transform="translate(127.246094 0)"/>
       <use xlink:href="#DejaVuSans-33" transform="translate(160.9375 0)"/>
       <use xlink:href="#DejaVuSans-39" transform="translate(224.560547 0)"/>
       <use xlink:href="#DejaVuSans-3a" transform="translate(288.183594 0)"/>
       <use xlink:href="#DejaVuSans-30" transform="translate(321.875 0)"/>
       <use xlink:href="#DejaVuSans-30" transform="translate(385.498047 0)"/>
      </g>
     </g>
    </g>
    <g id="xtick_2">
     <g id="line2d_3">
      <path d="M 255.06313 318.04 
L 255.06313 26.88 
" clip-path="url(#p500557634e)" style="fill: none; stroke-dasharray: 0.6,0.99; stroke-dashoffset: 0; stroke: #b0b0b0; stroke-width: 0.6"/>
     </g>
     <g id="line2d_4">
      <g>
       <use xlink:href="#m8215b816ba" x="255.06313" y="318.04" style="stroke: #000000; stroke-width: 0.8"/>
      </g>
     </g>
     <g id="text_2">
      <!-- 07:39:30 -->
      <g transform="translate(232.60688 332.638438) scale(0.1 -0.1)">
       <use xlink:href="#DejaVuSans-30"/>
       <use xlink:href="#DejaVuSans-37" transform="translate(63.623047 0)"/>
       <use xlink:href="#DejaVuSans-3a" transform="translate(127.246094 0)"/>
       <use xlink:href="#DejaVuSans-33" transform="translate(160.9375 0)"/>
       <use xlink:href="#DejaVuSans-39" transform="translate(224.560547 0)"/>
       <use xlink:href="#DejaVuSans-3a" transform="translate(288.183594 0)"/>
       <use xlink:href="#DejaVuSans-33" transform="translate(321.875 0)"/>
       <use xlink:href="#DejaVuSans-30" transform="translate(385.498047 0)"/>
      </g>
     </g>
    </g>
    <g id="xtick_3">
     <g id="line2d_5">
      <path d="M 353.078282 318.04 
L 353.078282 26.88 
" clip-path="url(#p500557634e)" style="fill: none; stroke-dasharray: 0.6,0.99; stroke-dashoffset: 0; stroke: #b0b0b0; stroke-width: 0.6"/>
     </g>
     <g id="line2d_6">
      <g>
       <use xlink:href="#m8215b816ba" x="353.078282" y="318.04" style="stroke: #000000; stroke-width: 0.8"/>
      </g>
     </g>
     <g id="text_3">
      <!-- 07:40:00 -->
      <g transform="translate(330.622032 332.638438) scale(0.1 -0.1)">
       <defs>
        <path id="DejaVuSans-34" d="M 2419 4116 
L 825 1625 
L 2419 1625 
L 2419 4116 
z
M 2253 4666 
L 3047 4666 
L 3047 1625 
L 3713 1625 
L 3713 1100 
L 3047 1100 
L 3047 0 
L 2419 0 
L 2419 1100 
L 313 1100 
L 313 1709 
L 2253 4666 
z
" transform="scale(0.015625)"/>
       </defs>
       <use xlink:href="#DejaVuSans-30"/>
       <use xlink:href="#DejaVuSans-37" transform="translate(63.623047 0)"/>
       <use xlink:href="#DejaVuSans-3a" transform="translate(127.246094 0)"/>
       <use xlink:href="#DejaVuSans-34" transform="translate(160.9375 0)"/>
       <use xlink:href="#DejaVuSans-30" transform="translate(224.560547 0)"/>
       <use xlink:href="#DejaVuSans-3a" transform="translate(288.183594 0)"/>
       <use xlink:href="#DejaVuSans-30" transform="translate(321.875 0)"/>
       <use xlink:href="#DejaVuSans-30" transform="translate(385.498047 0)"/>
      </g>
     </g>
    </g>
    <g id="xtick_4">
     <g id="line2d_7">
      <path d="M 451.093433 318.04 
L 451.093433 26.88 
" clip-path="url(#p500557634e)" style="fill: none; stroke-dasharray: 0.6,0.99; stroke-dashoffset: 0; stroke: #b0b0b0; stroke-width: 0.6"/>
     </g>
     <g id="line2d_8">
      <g>
       <use xlink:href="#m8215b816ba" x="451.093433" y="318.04" style="stroke: #000000; stroke-width: 0.8"/>
      </g>
     </g>
     <g id="text_4">
      <!-- 07:40:30 -->
      <g transform="translate(428.637183 332.638438) scale(0.1 -0.1)">
       <use xlink:href="#DejaVuSans-30"/>
       <use xlink:href="#DejaVuSans-37" transform="translate(63.623047 0)"/>
       <use xlink:href="#DejaVuSans-3a" transform="translate(127.246094 0)"/>
       <use xlink:href="#DejaVuSans-34" transform="translate(160.9375 0)"/>
       <use xlink:href="#DejaVuSans-30" transform="translate(224.560547 0)"/>
       <use xlink:href="#DejaVuSans-3a" transform="translate(288.183594 0)"/>
       <use xlink:href="#DejaVuSans-33" transform="translate(321.875 0)"/>
       <use xlink:href="#DejaVuSans-30" transform="translate(385.498047 0)"/>
      </g>
     </g>
    </g>
    <g id="xtick_5">
     <g id="line2d_9">
      <path d="M 549.108585 318.04 
L 549.108585 26.88 
" clip-path="url(#p500557634e)" style="fill: none; stroke-dasharray: 0.6,0.99; stroke-dashoffset: 0; stroke: #b0b0b0; stroke-width: 0.6"/>
     </g>
     <g id="line2d_10">
      <g>
       <use xlink:href="#m8215b816ba" x="549.108585" y="318.04" style="stroke: #000000; stroke-width: 0.8"/>
      </g>
     </g>
     <g id="text_5">
      <!-- 07:41:00 -->
      <g transform="translate(526.652335 332.638438) scale(0.1 -0.1)">
       <defs>
        <path id="DejaVuSans-31" d="M 794 531 
L 1825 531 
L 1825 4091 
L 703 3866 
L 703 4441 
L 1819 4666 
L 2450 4666 
L 2450 531 
L 3481 531 
L 3481 0 
L 794 0 
L 794 531 
z
" transform="scale(0.015625)"/>
       </defs>
       <use xlink:href="#DejaVuSans-30"/>
       <use xlink:href="#DejaVuSans-37" transform="translate(63.623047 0)"/>
       <use xlink:href="#DejaVuSans-3a" transform="translate(127.246094 0)"/>
       <use xlink:href="#DejaVuSans-34" transform="translate(160.9375 0)"/>
       <use xlink:href="#DejaVuSans-31" transform="translate(224.560547 0)"/>
       <use xlink:href="#DejaVuSans-3a" transform="translate(288.183594 0)"/>
       <use xlink:href="#DejaVuSans-30" transform="translate(321.875 0)"/>
       <use xlink:href="#DejaVuSans-30" transform="translate(385.498047 0)"/>
      </g>
     </g>
    </g>
    <g id="xtick_6">
     <g id="line2d_11">
      <path d="M 647.123737 318.04 
L 647.123737 26.88 
" clip-path="url(#p500557634e)" style="fill: none; stroke-dasharray: 0.6,0.99; stroke-dashoffset: 0; stroke: #b0b0b0; stroke-width: 0.6"/>
     </g>
     <g id="line2d_12">
      <g>
       <use xlink:href="#m8215b816ba" x="647.123737" y="318.04" style="stroke: #000000; stroke-width: 0.8"/>
      </g>
     </g>
     <g id="text_6">
      <!-- 07:41:30 -->
      <g transform="translate(624.667487 332.638438) scale(0.1 -0.1)">
       <use xlink:href="#DejaVuSans-30"/>
       <use xlink:href="#DejaVuSans-37" transform="translate(63.623047 0)"/>
       <use xlink:href="#DejaVuSans-3a" transform="translate(127.246094 0)"/>
       <use xlink:href="#DejaVuSans-34" transform="translate(160.9375 0)"/>
       <use xlink:href="#DejaVuSans-31" transform="translate(224.560547 0)"/>
       <use xlink:href="#DejaVuSans-3a" transform="translate(288.183594 0)"/>
       <use xlink:href="#DejaVuSans-33" transform="translate(321.875 0)"/>
       <use xlink:href="#DejaVuSans-30" transform="translate(385.498047 0)"/>
      </g>
     </g>
    </g>
    <g id="text_7">
     <!-- UTC -->
     <g transform="translate(375.839063 346.316563) scale(0.1 -0.1)">
      <defs>
       <path id="DejaVuSans-55" d="M 556 4666 
L 1191 4666 
L 1191 1831 
Q 1191 1081 1462 751 
Q 1734 422 2344 422 
Q 2950 422 3222 751 
Q 3494 1081 3494 1831 
L 3494 4666 
L 4128 4666 
L 4128 1753 
Q 4128 841 3676 375 
Q 3225 -91 2344 -91 
Q 1459 -91 1007 375 
Q 556 841 556 1753 
L 556 4666 
z
" transform="scale(0.015625)"/>
       <path id="DejaVuSans-54" d="M -19 4666 
L 3928 4666 
L 3928 4134 
L 2272 4134 
L 2272 0 
L 1638 0 
L 1638 4134 
L -19 4134 
L -19 4666 
z
" transform="scale(0.015625)"/>
       <path id="DejaVuSans-43" d="M 4122 4306 
L 4122 3641 
Q 3803 3938 3442 4084 
Q 3081 4231 2675 4231 
Q 1875 4231 1450 3742 
Q 1025 3253 1025 2328 
Q 1025 1406 1450 917 
Q 1875 428 2675 428 
Q 3081 428 3442 575 
Q 3803 722 4122 1019 
L 4122 359 
Q 3791 134 3420 21 
Q 3050 -91 2638 -91 
Q 1578 -91 968 557 
Q 359 1206 359 2328 
Q 359 3453 968 4101 
Q 1578 4750 2638 4750 
Q 3056 4750 3426 4639 
Q 3797 4528 4122 4306 
z
" transform="scale(0.015625)"/>
      </defs>
      <use xlink:href="#DejaVuSans-55"/>
      <use xlink:href="#DejaVuSans-54" transform="translate(73.193359 0)"/>
      <use xlink:href="#DejaVuSans-43" transform="translate(128.402344 0)"/>
     </g>
    </g>
   </g>
   <g id="matplotlib.axis_2">
    <g id="ytick_1">
     <g id="line2d_13">
      <path d="M 62.3 296.5 
L 709.2 296.5 
" clip-path="url(#p500557634e)" style="fill: none; stroke-dasharray: 0.6,0.99; stroke-dashoffset: 0; stroke: #b0b0b0; stroke-width: 0.6"/>
     </g>
     <g id="line2d_14">
      <defs>
       <path id="m7bb0adf7ff" d="M 0 0 
L -3.5 0 
" style="stroke: #000000; stroke-width: 0.8"/>
      </defs>
      <g>
       <use xlink:href="#m7bb0adf7ff" x="62.3" y="296.5" style="stroke: #000000; stroke-width: 0.8"/>
      </g>
     </g>
     <g id="text_8">
      <!-- −0.75 -->
      <g transform="translate(24.654688 300.299219) scale(0.1 -0.1)">
       <defs>
        <path id="DejaVuSans-2212" d="M 678 2272 
L 4684 2272 
L 4684 1741 
L 678 1741 
L 678 2272 
z
" transform="scale(0.015625)"/>
        <path id="DejaVuSans-2e" d="M 684 794 
L 1344 794 
L 1344 0 
L 684 0 
L 684 794 
z
" transform="scale(0.015625)"/>
        <path id="DejaVuSans-35" d="M 691 4666 
L 3169 4666 
L 3169 4134 
L 1269 4134 
L 1269 2991 
Q 1406 3038 1543 3061 
Q 1681 3084 1819 3084 
Q 2600 3084 3056 2656 
Q 3513 2228 3513 1497 
Q 3513 744 3044 326 
Q 2575 -91 1722 -91 
Q 1428 -91 1123 -41 
Q 819 9 494 109 
L 494 744 
Q 775 591 1075 516 
Q 1375 441 1709 441 
Q 2250 441 2565 725 
Q 2881 1009 2881 1497 
Q 2881 1984 2565 2268 
Q 2250 2553 1709 2553 
Q 1456 2553 1204 2497 
Q 953 2441 691 2322 
L 691 4666 
z
" transform="scale(0.015625)"/>
       </defs>
       <use xlink:href="#DejaVuSans-2212"/>
       <use xlink:href="#DejaVuSans-30" transform="translate(83.789062 0)"/>
       <use xlink:href="#DejaVuSans-2e" transform="translate(147.412109 0)"/>
       <use xlink:href="#DejaVuSans-37" transform="translate(179.199219 0)"/>
       <use xlink:href="#DejaVuSans-35" transform="translate(242.822266 0)"/>
      </g>
     </g>
    </g>
    <g id="ytick_2">
     <g id="line2d_15">
      <path d="M 62.3 258.125 
L 709.2 258.125 
" clip-path="url(#p500557634e)" style="fill: none; stroke-dasharray: 0.6,0.99; stroke-dashoffset: 0; stroke: #b0b0b0; stroke-width: 0.6"/>
     </g>
     <g id="line2d_16">
      <g>
       <use xlink:href="#m7bb0adf7ff" x="62.3" y="258.125" style="stroke: #000000; stroke-width: 0.8"/>
      </g>
     </g>
     <g id="text_9">
      <!-- −0.50 -->
      <g transform="translate(24.654688 261.924219) scale(0.1 -0.1)">
       <use xlink:href="#DejaVuSans-2212"/>
       <use xlink:href="#DejaVuSans-30" transform="translate(83.789062 0)"/>
       <use xlink:href="#DejaVuSans-2e" transform="translate(147.412109 0)"/>
       <use xlink:href="#DejaVuSans-35" transform="translate(179.199219 0)"/>
       <use xlink:href="#DejaVuSans-30" transform="translate(242.822266 0)"/>
      </g>
     </g>
    </g>
    <g id="ytick_3">
     <g id="line2d_17">
      <path d="M 62.3 219.875 
L 709.2 219.875 
" clip-path="url(#p500557634e)" style="fill: none; stroke-dasharray: 0.6,0.99; stroke-dashoffset: 0; stroke: #b0b0b0; stroke-width: 0.6"/>
     </g>
     <g id="line2d_18">
      <g>
       <use xlink:href="#m7bb0adf7ff" x="62.3" y="219.875" style="stroke: #000000; stroke-width: 0.8"/>
      </g>
     </g>
     <g id="text_10">
      <!-- −0.25 -->
      <g transform="translate(24.654688 223.674219) scale(0.1 -0.1)">
       <defs>
        <path id="DejaVuSans-32" d="M 1228 531 
L 3431 531 
L 3431 0 
L 469 0 
L 469 531 
Q 828 903 1448 1529 
Q 2069 2156 2228 2338 
Q 2531 2678 2651 2914 
Q 2772 3150 2772 3378 
Q 2772 3750 2511 3984 
Q 2250 4219 1831 4219 
Q 1534 4219 1204 4116 
Q 875 4013 500 3803 
L 500 4441 
Q 881 4594 1212 4672 
Q 1544 4750 1819 4750 
Q 2544 4750 2975 4387 
Q 3406 4025 3406 3419 
Q 3406 3131 3298 2873 
Q 3191 2616 2906 2266 
Q 2828 2175 2409 1742 
Q 1991 1309 1228 531 
z
" transform="scale(0.015625)"/>
       </defs>
       <use xlink:href="#DejaVuSans-2212"/>
       <use xlink:href="#DejaVuSans-30" transform="translate(83.789062 0)"/>
       <use xlink:href="#DejaVuSans-2e" transform="translate(147.412109 0)"/>
       <use xlink:href="#DejaVuSans-32" transform="translate(179.199219 0)"/>
       <use xlink:href="#DejaVuSans-35" transform="translate(242.822266 0)"/>
      </g>
     </g>
    </g>
    <g id="ytick_4">
     <g id="line2d_19">
      <path d="M 62.3 181.375 
L 709.2 181.375 
" clip-path="url(#p500557634e)" style="fill: none; stroke-dasharray: 0.6,0.99; stroke-dashoffset: 0; stroke: #b0b0b0; stroke-width: 0.6"/>
     </g>
     <g id="line2d_20">
      <g>
       <use xlink:href="#m7bb0adf7ff" x="62.3" y="181.375" style="stroke: #000000; stroke-width: 0.8"/>
      </g>
     </g>
     <g id="text_11">
      <!-- 0.00 -->
      <g transform="translate(33.034375 185.174219) scale(0.1 -0.1)">
       <use xlink:href="#DejaVuSans-30"/>
       <use xlink:href="#DejaVuSans-2e" transform="translate(63.623047 0)"/>
       <use xlink:href="#DejaVuSans-30" transform="translate(95.410156 0)"/>
       <use xlink:href="#DejaVuSans-30" transform="translate(159.033203 0)"/>
      </g>
     </g>
    </g>
    <g id="ytick_5">
     <g id="line2d_21">
      <path d="M 62.3 143.125 
L 709.2 143.125 
" clip-path="url(#p500557634e)" style="fill: none; stroke-dasharray: 0.6,0.99; stroke-dashoffset: 0; stroke: #b0b0b0; stroke-width: 0.6"/>
     </g>
     <g id="line2d_22">
      <g>
       <use xlink:href="#m7bb0adf7ff" x="62.3" y="143.125" style="stroke: #000000; stroke-width: 0.8"/>
      </g>
     </g>
     <g id="text_12">
      <!-- 0.25 -->
      <g transform="translate(33.034375 146.924219) scale(0.1 -0.1)">
       <use xlink:href="#DejaVuSans-30"/>
       <use xlink:href="#DejaVuSans-2e" transform="translate(63.623047 0)"/>
       <use xlink:href="#DejaVuSans-32" transform="translate(95.410156 0)"/>
       <use xlink:href="#DejaVuSans-35" transform="translate(159.033203 0)"/>
      </g>
     </g>
    </g>
    <g id="ytick_6">
     <g id="line2d_23">
      <path d="M 62.3 104.75 
L 709.2 104.75 
" clip-path="url(#p500557634e)" style="fill: none; stroke-dasharray: 0.6,0.99; stroke-dashoffset: 0; stroke: #b0b0b0; stroke-width: 0.6"/>
     </g>
     <g id="line2d_24">
      <g>
       <use xlink:href="#m7bb0adf7ff" x="62.3" y="104.75" style="stroke: #000000; stroke-width: 0.8"/>
      </g>
     </g>
     <g id="text_13">
      <!-- 0.50 -->
      <g transform="translate(33.034375 108.549219) scale(0.1 -0.1)">
       <use xlink:href="#DejaVuSans-30"/>
       <use xlink:href="#DejaVuSans-2e" transform="translate(63.623047 0)"/>
       <use xlink:href="#DejaVuSans-35" transform="translate(95.410156 0)"/>
       <use xlink:href="#DejaVuSans-30" transform="translate(159.033203 0)"/>
      </g>
     </g>
    </g>
    <g id="ytick_7">
     <g id="line2d_25">
      <path d="M 62.3 66.5 
L 709.2 66.5 
" clip-path="url(#p500557634e)" style="fill: none; stroke-dasharray: 0.6,0.99; stroke-dashoffset: 0; stroke: #b0b0b0; stroke-width: 0.6"/>
     </g>
     <g id="line2d_26">
      <g>
       <use xlink:href="#m7bb0adf7ff" x="62.3" y="66.5" style="stroke: #000000; stroke-width: 0.8"/>
      </g>
     </g>
     <g id="text_14">
      <!-- 0.75 -->
      <g transform="translate(33.034375 70.299219) scale(0.1 -0.1)">
       <use xlink:href="#DejaVuSans-30"/>
       <use xlink:href="#DejaVuSans-2e" transform="translate(63.623047 0)"/>
       <use xlink:href="#DejaVuSans-37" transform="translate(95.410156 0)"/>
       <use xlink:href="#DejaVuSans-35" transform="translate(159.033203 0)"/>
      </g>
     </g>
    </g>
    <g id="ytick_8">
     <g id="line2d_27">
      <path d="M 62.3 28.125 
L 709.2 28.125 
" clip-path="url(#p500557634e)" style="fill: none; stroke-dasharray: 0.6,0.99; stroke-dashoffset: 0; stroke: #b0b0b0; stroke-width: 0.6"/>
     </g>
     <g id="line2d_28">
      <g>
       <use xlink:href="#m7bb0adf7ff" x="62.3" y="28.125" style="stroke: #000000; stroke-width: 0.8"/>
      </g>
     </g>
     <g id="text_15">
      <!-- 1.00 -->
      <g transform="translate(33.034375 31.924219) scale(0.1 -0.1)">
       <use xlink:href="#DejaVuSans-31"/>
       <use xlink:href="#DejaVuSans-2e" transform="translate(63.623047 0)"/>
       <use xlink:href="#DejaVuSans-30" transform="translate(95.410156 0)"/>
       <use xlink:href="#DejaVuSans-30" transform="translate(159.033203 0)"/>
      </g>
     </g>
    </g>
    <g id="text_16">
     <!-- Separation [km] -->
     <g transform="translate(18.575 212.902188) rotate(-90) scale(0.1 -0.1)">
      <defs>
       <path id="DejaVuSans-53" d="M 3425 4513 
L 3425 3897 
Q 3066 4069 2747 4153 
Q 2428 4238 2131 4238 
Q 1616 4238 1336 4038 
Q 1056 3838 1056 3469 
Q 1056 3159 1242 3001 
Q 1428 2844 1947 2747 
L 2328 2669 
Q 3034 2534 3370 2195 
Q 3706 1856 3706 1288 
Q 3706 609 3251 259 
Q 2797 -91 1919 -91 
Q 1588 -91 1214 -16 
Q 841 59 441 206 
L 441 856 
Q 825 641 1194 531 
Q 1563 422 1919 422 
Q 2459 422 2753 634 
Q 3047 847 3047 1241 
Q 3047 1584 2836 1778 
Q 2625 1972 2144 2069 
L 1759 2144 
Q 1053 2284 737 2584 
Q 422 2884 422 3419 
Q 422 4038 858 4394 
Q 1294 4750 2059 4750 
Q 2388 4750 2728 4690 
Q 3069 4631 3425 4513 
z
" transform="scale(0.015625)"/>
       <path id="DejaVuSans-65" d="M 3597 1894 
L 3597 1613 
L 953 1613 
Q 991 1019 1311 708 
Q 1631 397 2203 397 
Q 2534 397 2845 478 
Q 3156 559 3463 722 
L 3463 178 
Q 3153 47 2828 -22 
Q 2503 -91 2169 -91 
Q 1331 -91 842 396 
Q 353 884 353 1716 
Q 353 2575 817 3079 
Q 1281 3584 2069 3584 
Q 2775 3584 3186 3129 
Q 3597 2675 3597 1894 
z
M 3022 2063 
Q 3016 2534 2758 2815 
Q 2500 3097 2075 3097 
Q 1594 3097 1305 2825 
Q 1016 2553 972 2059 
L 3022 2063 
z
" transform="scale(0.015625)"/>
       <path id="DejaVuSans-70" d="M 1159 525 
L 1159 -1331 
L 581 -1331 
L 581 3500 
L 1159 3500 
L 1159 2969 
Q 1341 3281 1617 3432 
Q 1894 3584 2278 3584 
Q 2916 3584 3314 3078 
Q 3713 2572 3713 1747 
Q 3713 922 3314 415 
Q 2916 -91 2278 -91 
Q 1894 -91 1617 61 
Q 1341 213 1159 525 
z
M 3116 1747 
Q 3116 2381 2855 2742 
Q 2594 3103 2138 3103 
Q 1681 3103 1420 2742 
Q 1159 2381 1159 1747 
Q 1159 1113 1420 752 
Q 1681 391 2138 391 
Q 2594 391 2855 752 
Q 3116 1113 3116 1747 
z
" transform="scale(0.015625)"/>
       <path id="DejaVuSans-61" d="M 2194 1759 
Q 1497 1759 1228 1600 
Q 959 1441 959 1056 
Q 959 750 1161 570 
Q 1363 391 1709 391 
Q 2188 391 2477 730 
Q 2766 1069 2766 1631 
L 2766 1759 
L 2194 1759 
z
M 3341 1997 
L 3341 0 
L 2766 0 
L 2766 531 
Q 2569 213 2275 61 
Q 1981 -91 1556 -91 
Q 1019 -91 701 211 
Q 384 513 384 1019 
Q 384 1609 779 1909 
Q 1175 2209 1959 2209 
L 2766 2209 
L 2766 2266 
Q 2766 2663 2505 2880 
Q 2244 3097 1772 3097 
Q 1472 3097 1187 3025 
Q 903 2953 641 2809 
L 641 3341 
Q 956 3463 1253 3523 
Q 1550 3584 1831 3584 
Q 2591 3584 2966 3190 
Q 3341 2797 3341 1997 
z
" transform="scale(0.015625)"/>
       <path id="DejaVuSans-72" d="M 2631 2963 
Q 2534 3019 2420 3045 
Q 2306 3072 2169 3072 
Q 1681 3072 1420 2755 
Q 1159 2438 1159 1844 
L 1159 0 
L 581 0 
L 581 3500 
L 1159 3500 
L 1159 2956 
Q 1341 3275 1631 3429 
Q 1922 3584 2338 3584 
Q 2397 3584 2469 3576 
Q 2541 3569 2628 3553 
L 2631 2963 
z
" transform="scale(0.015625)"/>
       <path id="DejaVuSans-74" d="M 1172 4494 
L 1172 3500 
L 2356 3500 
L 2356 3053 
L 1172 3053 
L 1172 1153 
Q 1172 725 1289 603 
Q 1406 481 1766 481 
L 2356 481 
L 2356 0 
L 1766 0 
Q 1100 0 847 248 
Q 594 497 594 1153 
L 594 3053 
L 172 3053 
L 172 3500 
L 594 3500 
L 594 4494 
L 1172 4494 
z
" transform="scale(0.015625)"/>
       <path id="DejaVuSans-69" d="M 603 3500 
L 1178 3500 
L 1178 0 
L 603 0 
L 603 3500 
z
M 603 4863 
L 1178 4863 
L 1178 4134 
L 603 4134 
L 603 4863 
z
" transform="scale(0.015625)"/>
       <path id="DejaVuSans-6f" d="M 1959 3097 
Q 1497 3097 1228 2736 
Q 959 2375 959 1747 
Q 959 1119 1226 758 
Q 1494 397 1959 397 
Q 2419 397 2687 759 
Q 2956 1122 2956 1747 
Q 2956 2369 2687 2733 
Q 2419 3097 1959 3097 
z
M 1959 3584 
Q 2709 3584 3137 3096 
Q 3566 2609 3566 1747 
Q 3566 888 3137 398 
Q 2709 -91 1959 -91 
Q 1206 -91 779 398 
Q 353 888 353 1747 
Q 353 2609 779 3096 
Q 1206 3584 1959 3584 
z
" transform="scale(0.015625)"/>
       <path id="DejaVuSans-6e" d="M 3513 2113 
L 3513 0 
L 2938 0 
L 2938 2094 
Q 2938 2591 2744 2837 
Q 2550 3084 2163 3084 
Q 1697 3084 1428 2787 
Q 1159 2491 1159 1978 
L 1159 0 
L 581 0 
L 581 3500 
L 1159 3500 
L 1159 2956 
Q 1366 3272 1645 3428 
Q 1925 3584 2291 3584 
Q 2894 3584 3203 3211 
Q 3513 2838 3513 2113 
z
" transform="scale(0.015625)"/>
       <path id="DejaVuSans-20" transform="scale(0.015625)"/>
       <path id="DejaVuSans-5b" d="M 550 4863 
L 1875 4863 
L 1875 4416 
L 1125 4416 
L 1125 -397 
L 1875 -397 
L 1875 -844 
L 550 -844 
L 550 4863 
z
" transform="scale(0.015625)"/>
       <path id="DejaVuSans-6b" d="M 581 4863 
L 1159 4863 
L 1159 1991 
L 2875 3500 
L 3609 3500 
L 1753 1863 
L 3688 0 
L 2938 0 
L 1159 1709 
L 1159 0 
L 581 0 
L 581 4863 
z
" transform="scale(0.015625)"/>
       <path id="DejaVuSans-6d" d="M 3328 2828 
Q 3544 3216 3844 3400 
Q 4144 3584 4550 3584 
Q 5097 3584 5394 3201 
Q 5691 2819 5691 2113 
L 5691 0 
L 5113 0 
L 5113 2094 
Q 5113 2597 4934 2840 
Q 4756 3084 4391 3084 
Q 3944 3084 3684 2787 
Q 3425 2491 3425 1978 
L 3425 0 
L 2847 0 
L 2847 2094 
Q 2847 2600 2669 2842 
Q 2491 3084 2119 3084 
Q 1678 3084 1418 2786 
Q 1159 2488 1159 1978 
L 1159 0 
L 581 0 
L 581 3500 
L 1159 3500 
L 1159 2956 
Q 1356 3278 1631 3431 
Q 1906 3584 2284 3584 
Q 2666 3584 2933 3390 
Q 3200 3197 3328 2828 
z
" transform="scale(0.015625)"/>
       <path id="DejaVuSans-5d" d="M 1947 4863 
L 1947 -844 
L 622 -844 
L 622 -397 
L 1369 -397 
L 1369 4416 
L 622 4416 
L 622 4863 
L 1947 4863 
z
" transform="scale(0.015625)"/>
      </defs>
      <use xlink:href="#DejaVuSans-53"/>
      <use xlink:href="#DejaVuSans-65" transform="translate(63.476562 0)"/>
      <use xlink:href="#DejaVuSans-70" transform="translate(125 0)"/>
      <use xlink:href="#DejaVuSans-61" transform="translate(188.476562 0)"/>
      <use xlink:href="#DejaVuSans-72" transform="translate(249.755859 0)"/>
      <use xlink:href="#DejaVuSans-61" transform="translate(290.869141 0)"/>
      <use xlink:href="#DejaVuSans-74" transform="translate(352.148438 0)"/>
      <use xlink:href="#DejaVuSans-69" transform="translate(391.357422 0)"/>
      <use xlink:href="#DejaVuSans-6f" transform="translate(419.140625 0)"/>
      <use xlink:href="#DejaVuSans-6e" transform="translate(480.322266 0)"/>
      <use xlink:href="#DejaVuSans-20" transform="translate(543.701172 0)"/>
      <use xlink:href="#DejaVuSans-5b" transform="translate(575.488281 0)"/>
      <use xlink:href="#DejaVuSans-6b" transform="translate(614.501953 0)"/>
      <use xlink:href="#DejaVuSans-6d" transform="translate(672.412109 0)"/>
      <use xlink:href="#DejaVuSans-5d" transform="translate(769.824219 0)"/>
     </g>
    </g>
    <g id="text_17">
     <!-- 1e−12+6 -->
     <g transform="translate(62.3 23.88) scale(0.1 -0.1)">
      <defs>
       <path id="DejaVuSans-2b" d="M 2944 4013 
L 2944 2272 
L 4684 2272 
L 4684 1741 
L 2944 1741 
L 2944 0 
L 2419 0 
L 2419 1741 
L 678 1741 
L 678 2272 
L 2419 2272 
L 2419 4013 
L 2944 4013 
z
" transform="scale(0.015625)"/>
       <path id="DejaVuSans-36" d="M 2113 2584 
Q 1688 2584 1439 2293 
Q 1191 2003 1191 1497 
Q 1191 994 1439 701 
Q 1688 409 2113 409 
Q 2538 409 2786 701 
Q 3034 994 3034 1497 
Q 3034 2003 2786 2293 
Q 2538 2584 2113 2584 
z
M 3366 4563 
L 3366 3988 
Q 3128 4100 2886 4159 
Q 2644 4219 2406 4219 
Q 1781 4219 1451 3797 
Q 1122 3375 1075 2522 
Q 1259 2794 1537 2939 
Q 1816 3084 2150 3084 
Q 2853 3084 3261 2657 
Q 3669 2231 3669 1497 
Q 3669 778 3244 343 
Q 2819 -91 2113 -91 
Q 1303 -91 875 529 
Q 447 1150 447 2328 
Q 447 3434 972 4092 
Q 1497 4750 2381 4750 
Q 2619 4750 2861 4703 
Q 3103 4656 3366 4563 
z
" transform="scale(0.015625)"/>
      </defs>
      <use xlink:href="#DejaVuSans-31"/>
      <use xlink:href="#DejaVuSans-65" transform="translate(63.623047 0)"/>
      <use xlink:href="#DejaVuSans-2212" transform="translate(125.146484 0)"/>
      <use xlink:href="#DejaVuSans-31" transform="translate(208.935547 0)"/>
      <use xlink:href="#DejaVuSans-32" transform="translate(272.558594 0)"/>
      <use xlink:href="#DejaVuSans-2b" transform="translate(336.181641 0)"/>
      <use xlink:href="#DejaVuSans-36" transform="translate(419.970703 0)"/>
     </g>
    </g>
   </g>
   <g id="line2d_29">
    <path d="M 91.704544 199.25 
L 94.971717 222.875 
L 98.238888 266.75 
L 101.50606 135.625 
L 104.773232 169 
L 108.040403 234.5 
L 111.307575 240.5 
L 114.574746 205.25 
L 117.841918 235.25 
L 121.109091 186.625 
L 124.376262 121.125 
L 127.643434 246.375 
L 130.910604 108.5 
L 134.177777 194.125 
L 137.444949 232.375 
L 140.71212 225.125 
L 143.979292 164.875 
L 147.246464 130 
L 150.513636 175.25 
L 153.780807 125.25 
L 157.047978 188.5 
L 160.315151 192.5 
L 163.582322 241.25 
L 166.849494 254.875 
L 170.116665 129.375 
L 173.383838 210.875 
L 176.65101 232.5 
L 179.91818 192 
L 183.185352 174.125 
L 186.452525 211.5 
L 189.719696 173.125 
L 192.986868 249.75 
L 196.254039 208 
L 199.521212 179.75 
L 202.788383 149.25 
L 206.055554 226.75 
L 209.322727 138.25 
L 212.589898 111.5 
L 215.85707 168.25 
L 219.124241 162.125 
L 222.391414 133.375 
L 225.658586 190.25 
L 228.925756 135 
L 232.192928 214.5 
L 235.4601 212.125 
L 238.727272 175.5 
L 241.994444 122.625 
L 245.261615 201.5 
L 248.528788 213.125 
L 251.795959 203.5 
L 255.06313 230.75 
L 258.330302 183.5 
L 261.597474 176.625 
L 264.864646 158.375 
L 268.131817 204 
L 271.398989 142.25 
L 274.666162 144.5 
L 277.933332 221.375 
L 281.200504 262 
L 284.467675 115.625 
L 287.734848 215.875 
L 294.269191 115.625 
L 297.536363 148.875 
L 300.803535 203.5 
L 304.070706 197.625 
L 307.337878 136.875 
L 310.605049 90.375 
L 313.872222 204.625 
L 317.139393 134.125 
L 320.406565 132.375 
L 323.673737 241 
L 326.940908 238.375 
L 330.20808 199.25 
L 333.475251 258.375 
L 336.742423 180.125 
L 340.009596 157 
L 343.276767 151.375 
L 346.543939 212.75 
L 349.81111 161.25 
L 353.078282 186.5 
L 356.345454 106.75 
L 359.612625 202.375 
L 362.879798 140.5 
L 366.146969 149.125 
L 369.414141 236.875 
L 372.681313 145.625 
L 375.948484 141.25 
L 379.215656 191 
L 382.482827 221.625 
L 385.749999 140.75 
L 389.017172 159.875 
L 392.284343 160.25 
L 395.551515 179.375 
L 398.818686 127.5 
L 402.085858 185.375 
L 405.35303 206.375 
L 408.620201 285.125 
L 411.887373 159 
L 415.154545 237.625 
L 418.421717 143.25 
L 421.688889 258.625 
L 424.956059 176.75 
L 428.223232 135.375 
L 431.490403 185.125 
L 434.757575 250.75 
L 438.024747 180.125 
L 441.291919 156 
L 444.559091 169.75 
L 447.826262 231.125 
L 451.093433 159.625 
L 454.360606 133.625 
L 457.627777 151.125 
L 460.894949 241 
L 464.16212 138.25 
L 467.429293 194.75 
L 470.696465 228.875 
L 473.963635 217.875 
L 477.230808 204.875 
L 480.497979 227.25 
L 483.765151 73.875 
L 487.032323 144.5 
L 490.299495 286.625 
L 493.566667 210.75 
L 496.833838 227.25 
L 500.101009 126.875 
L 503.368182 190.5 
L 506.635353 179.5 
L 509.902525 165.25 
L 513.169696 169.5 
L 516.436869 142.875 
L 519.704041 238.5 
L 522.971211 217 
L 526.238383 221.5 
L 529.505555 254.625 
L 532.772727 138 
L 536.039898 156.375 
L 539.30707 212.125 
L 542.574243 248.875 
L 545.841413 140.5 
L 549.108585 148.5 
L 552.375756 299.75 
L 555.642929 95.75 
L 558.910101 174.125 
L 562.177272 207.5 
L 565.444444 110.125 
L 568.711617 254.875 
L 571.978787 90.25 
L 575.245959 179 
L 578.51313 175.875 
L 581.780303 86.25 
L 585.047474 157 
L 588.314646 179.75 
L 591.581818 187 
L 594.848989 127.625 
L 598.116161 207.5 
L 601.383332 177 
L 604.650505 214 
L 607.917677 148.5 
L 611.184848 145.5 
L 614.45202 114.375 
L 617.719192 192.875 
L 620.986363 155.875 
L 624.253535 140.875 
L 627.520706 218.375 
L 630.787879 189.375 
L 634.05505 97.375 
L 637.322222 133 
L 640.589394 136.25 
L 643.856565 164.875 
L 647.123737 139.125 
L 650.390908 303.75 
L 653.65808 161.75 
L 656.925253 240.375 
L 660.192424 228.75 
L 663.459596 226.875 
L 666.726767 206 
L 669.993939 177 
L 673.261111 170.5 
L 676.528282 77.375 
L 679.795454 231.375 
L 679.795454 231.375 
" clip-path="url(#p500557634e)" style="fill: none; stroke: #1f77b4; stroke-width: 1.5; stroke-linecap: square"/>
   </g>
   <g id="line2d_30">
    <path d="M 91.704544 256.875 
L 94.971717 177.625 
L 98.238888 148.875 
L 101.50606 201.125 
L 104.773232 150.75 
L 108.040403 162.375 
L 111.307575 196.5 
L 114.574746 72 
L 117.841918 143.875 
L 121.109091 187 
L 124.376262 144.25 
L 127.643434 131.75 
L 130.910604 208.125 
L 134.177777 166.125 
L 137.444949 164.375 
L 140.71212 162.375 
L 143.979292 171.125 
L 150.513636 227.75 
L 153.780807 196.75 
L 157.047978 195.375 
L 160.315151 204.625 
L 163.582322 222.375 
L 166.849494 205 
L 170.116665 167 
L 173.383838 195.625 
L 176.65101 180.75 
L 179.91818 136.5 
L 183.185352 161.5 
L 186.452525 139.75 
L 189.719696 149.875 
L 192.986868 186.25 
L 196.254039 242.625 
L 199.521212 235.5 
L 202.788383 213.75 
L 206.055554 114 
L 209.322727 164.625 
L 212.589898 175.5 
L 215.85707 145.625 
L 219.124241 197 
L 222.391414 254.375 
L 225.658586 143.125 
L 228.925756 225.125 
L 232.192928 183.375 
L 235.4601 173.375 
L 238.727272 123.75 
L 241.994444 152.875 
L 245.261615 178.5 
L 248.528788 237.875 
L 251.795959 224.75 
L 255.06313 178.25 
L 258.330302 211.125 
L 261.597474 147.625 
L 264.864646 171.75 
L 268.131817 193.25 
L 271.398989 136.5 
L 274.666162 203.75 
L 277.933332 119.25 
L 281.200504 185.5 
L 284.467675 168.875 
L 287.734848 178 
L 291.00202 200.375 
L 294.269191 203.25 
L 297.536363 233.5 
L 300.803535 171.625 
L 304.070706 148.125 
L 307.337878 238.5 
L 310.605049 241.25 
L 313.872222 147.5 
L 317.139393 221.375 
L 320.406565 257.875 
L 323.673737 218.25 
L 326.940908 157.625 
L 330.20808 205.5 
L 333.475251 230.25 
L 336.742423 205.125 
L 340.009596 174.375 
L 343.276767 154.125 
L 346.543939 144.5 
L 349.81111 195.875 
L 353.078282 180 
L 356.345454 130.5 
L 359.612625 254.625 
L 362.879798 208.375 
L 366.146969 201.375 
L 369.414141 234.375 
L 372.681313 186.125 
L 375.948484 230.5 
L 379.215656 106.375 
L 382.482827 197 
L 385.749999 107.25 
L 389.017172 158.25 
L 392.284343 215.125 
L 395.551515 200.5 
L 398.818686 187.25 
L 402.085858 165.375 
L 405.35303 183.5 
L 408.620201 193.25 
L 411.887373 219.25 
L 418.421717 110.25 
L 421.688889 165.125 
L 424.956059 132.625 
L 428.223232 154.5 
L 431.490403 117.75 
L 434.757575 185.75 
L 438.024747 183.5 
L 441.291919 164.875 
L 444.559091 250 
L 447.826262 129.375 
L 451.093433 210.75 
L 454.360606 195.25 
L 457.627777 139.5 
L 460.894949 201 
L 464.16212 238.125 
L 467.429293 247 
L 470.696465 231.5 
L 473.963635 181.25 
L 477.230808 187.125 
L 480.497979 130.75 
L 483.765151 160.25 
L 487.032323 161.25 
L 490.299495 92.75 
L 493.566667 300.375 
L 496.833838 217.625 
L 500.101009 218.5 
L 503.368182 240.5 
L 506.635353 205.25 
L 509.902525 155.625 
L 513.169696 137 
L 516.436869 112.5 
L 519.704041 121.625 
L 522.971211 224.125 
L 526.238383 245.625 
L 529.505555 288.25 
L 532.772727 179.5 
L 536.039898 202.5 
L 539.30707 204 
L 542.574243 222.75 
L 545.841413 40.125 
L 549.108585 145.75 
L 552.375756 215.25 
L 555.642929 221.75 
L 558.910101 248.5 
L 565.444444 102.875 
L 568.711617 266.875 
L 571.978787 50.875 
L 575.245959 238 
L 578.51313 177 
L 581.780303 152.125 
L 585.047474 147.375 
L 588.314646 112.75 
L 591.581818 234.875 
L 594.848989 217 
L 598.116161 245.75 
L 601.383332 252.25 
L 604.650505 125.75 
L 607.917677 188.125 
L 611.184848 121.875 
L 614.45202 211.625 
L 617.719192 182.25 
L 620.986363 199.5 
L 624.253535 48.125 
L 627.520706 100 
L 630.787879 192.375 
L 634.05505 135.625 
L 637.322222 226.75 
L 640.589394 180.625 
L 643.856565 249.625 
L 647.123737 206.125 
L 650.390908 224.875 
L 653.65808 133.75 
L 656.925253 182.125 
L 660.192424 223 
L 663.459596 281.375 
L 666.726767 132.875 
L 669.993939 247.625 
L 673.261111 134.125 
L 676.528282 204.375 
L 679.795454 270.875 
L 679.795454 270.875 
" clip-path="url(#p500557634e)" style="fill: none; stroke: #ff7f0e; stroke-width: 1.5; stroke-linecap: square"/>
   </g>
   <g id="line2d_31">
    <path d="M 91.704544 239.5 
L 94.971717 272.5 
L 98.238888 253.25 
L 101.50606 169.375 
L 104.773232 199 
L 108.040403 144.625 
L 111.307575 159.125 
L 114.574746 141.125 
L 117.841918 207.875 
L 121.109091 242.125 
L 124.376262 176.375 
L 127.643434 127 
L 130.910604 153.625 
L 134.177777 44.75 
L 137.444949 252.5 
L 140.71212 257.25 
L 143.979292 172.375 
L 147.246464 165.375 
L 150.513636 165.875 
L 153.780807 171.875 
L 157.047978 220.5 
L 160.315151 262.25 
L 163.582322 301.625 
L 166.849494 263.25 
L 170.116665 110.875 
L 173.383838 277.75 
L 176.65101 164.5 
L 179.91818 149.875 
L 183.185352 143.125 
L 186.452525 229.25 
L 189.719696 137.75 
L 192.986868 188.75 
L 196.254039 219.375 
L 199.521212 233 
L 202.788383 303.375 
L 206.055554 252.625 
L 209.322727 135.125 
L 212.589898 155.625 
L 215.85707 164.125 
L 219.124241 68.375 
L 222.391414 99.375 
L 225.658586 103.25 
L 228.925756 165.5 
L 232.192928 215.625 
L 235.4601 151.125 
L 238.727272 170.25 
L 241.994444 103.25 
L 245.261615 112.5 
L 248.528788 280.5 
L 251.795959 164.875 
L 255.06313 76.625 
L 258.330302 246.375 
L 261.597474 96.875 
L 264.864646 238 
L 268.131817 191.625 
L 271.398989 115.25 
L 274.666162 167.25 
L 277.933332 196.75 
L 281.200504 187.875 
L 284.467675 68 
L 287.734848 202.25 
L 291.00202 203.5 
L 294.269191 255.875 
L 297.536363 183.625 
L 300.803535 161 
L 304.070706 223.25 
L 307.337878 229 
L 310.605049 175.875 
L 313.872222 133.375 
L 317.139393 215.25 
L 320.406565 155.75 
L 323.673737 302.5 
L 326.940908 213.625 
L 330.20808 177.125 
L 333.475251 270.875 
L 336.742423 168.25 
L 340.009596 191.75 
L 343.276767 95.25 
L 346.543939 281.375 
L 349.81111 79.875 
L 353.078282 222 
L 356.345454 130 
L 359.612625 227.375 
L 362.879798 161.875 
L 366.146969 155.125 
L 369.414141 224.25 
L 372.681313 128.25 
L 375.948484 249 
L 379.215656 153.125 
L 382.482827 301.625 
L 385.749999 93.25 
L 389.017172 66.875 
L 392.284343 109.25 
L 395.551515 304.875 
L 398.818686 64.875 
L 402.085858 91.875 
L 405.35303 199 
L 408.620201 202.375 
L 411.887373 231.25 
L 415.154545 213.25 
L 418.421717 90 
L 421.688889 136.125 
L 424.956059 113.75 
L 428.223232 219.25 
L 431.490403 158.125 
L 434.757575 246.625 
L 438.024747 230.5 
L 441.291919 215 
L 444.559091 217.875 
L 447.826262 102 
L 451.093433 253.25 
L 454.360606 88.875 
L 457.627777 160.625 
L 460.894949 272.5 
L 464.16212 225.125 
L 467.429293 287.125 
L 470.696465 215.75 
L 473.963635 217.375 
L 477.230808 123.125 
L 480.497979 73 
L 487.032323 209.125 
L 490.299495 137.75 
L 493.566667 268.625 
L 496.833838 161.5 
L 500.101009 90.875 
L 503.368182 167.875 
L 506.635353 250.875 
L 509.902525 278.5 
L 513.169696 190.75 
L 516.436869 110.875 
L 519.704041 214.5 
L 522.971211 280.875 
L 526.238383 232 
L 529.505555 206.5 
L 532.772727 87.875 
L 536.039898 56.125 
L 539.30707 184.75 
L 542.574243 76.625 
L 545.841413 120.25 
L 549.108585 96 
L 552.375756 209.5 
L 555.642929 172.625 
L 558.910101 108.625 
L 562.177272 166.125 
L 565.444444 175.125 
L 568.711617 188.75 
L 571.978787 73.875 
L 575.245959 148.5 
L 578.51313 117.625 
L 581.780303 105.75 
L 585.047474 203.875 
L 588.314646 127.875 
L 591.581818 184.375 
L 594.848989 138.125 
L 598.116161 217.125 
L 601.383332 253.25 
L 604.650505 101.25 
L 607.917677 218.5 
L 611.184848 206.375 
L 614.45202 187.125 
L 617.719192 72.375 
L 620.986363 196.875 
L 624.253535 117.25 
L 627.520706 184.375 
L 630.787879 206.375 
L 634.05505 101.5 
L 637.322222 165.5 
L 640.589394 205 
L 643.856565 191.125 
L 647.123737 245.875 
L 650.390908 223.625 
L 653.65808 209 
L 656.925253 203.25 
L 660.192424 55 
L 663.459596 232.5 
L 666.726767 210.75 
L 669.993939 231.125 
L 673.261111 202.375 
L 676.528282 191.875 
L 679.795454 243.5 
L 679.795454 243.5 
" clip-path="url(#p500557634e)" style="fill: none; stroke: #2ca02c; stroke-width: 1.5; stroke-linecap: square"/>
   </g>
   <g id="line2d_32">
    <path d="M 62.3 181.375 
L 709.2 181.375 
" clip-path="url(#p500557634e)" style="fill: none; stroke-dasharray: 3.7,1.6; stroke-dashoffset: 0; stroke: #808080"/>
   </g>
   <g id="patch_3">
    <path d="M 62.3 318 
L 62.3 26.875 
" style="fill: none; stroke: #000000; stroke-width: 0.8; stroke-linejoin: miter; stroke-linecap: square"/>
   </g>
   <g id="patch_4">
    <path d="M 709.2 318 
L 709.2 26.875 
" style="fill: none; stroke: #000000; stroke-width: 0.8; stroke-linejoin: miter; stroke-linecap: square"/>
   </g>
   <g id="patch_5">
    <path d="M 62.299999 318.04 
L 709.199999 318.04 
" style="fill: none; stroke: #000000; stroke-width: 0.8; stroke-linejoin: miter; stroke-linecap: square"/>
   </g>
   <g id="patch_6">
    <path d="M 62.299999 26.88 
L 709.199999 26.88 
" style="fill: none; stroke: #000000; stroke-width: 0.8; stroke-linejoin: miter; stroke-linecap: square"/>
   </g>
   <g id="text_18">
    <!-- Pairwise separation during the ninety-second window -->
    <g transform="translate(225.43375 20.88) scale(0.12 -0.12)">
     <defs>
      <path id="DejaVuSans-50" d="M 1259 4147 
L 1259 2394 
L 2053 2394 
Q 2494 2394 2734 2622 
Q 2975 2850 2975 3272 
Q 2975 3691 2734 3919 
Q 2494 4147 2053 4147 
L 1259 4147 
z
M 628 4666 
L 2053 4666 
Q 2838 4666 3239 4311 
Q 3641 3956 3641 3272 
Q 3641 2581 3239 2228 
Q 2838 1875 2053 1875 
L 1259 1875 
L 1259 0 
L 628 0 
L 628 4666 
z
" transform="scale(0.015625)"/>
      <path id="DejaVuSans-77" d="M 269 3500 
L 844 3500 
L 1563 769 
L 2278 3500 
L 2956 3500 
L 3675 769 
L 4391 3500 
L 4966 3500 
L 4050 0 
L 3372 0 
L 2619 2869 
L 1863 0 
L 1184 0 
L 269 3500 
z
" transform="scale(0.015625)"/>
      <path id="DejaVuSans-73" d="M 2834 3397 
L 2834 2853 
Q 2591 2978 2328 3040 
Q 2066 3103 1784 3103 
Q 1356 3103 1142 2972 
Q 928 2841 928 2578 
Q 928 2378 1081 2264 
Q 1234 2150 1697 2047 
L 1894 2003 
Q 2506 1872 2764 1633 
Q 3022 1394 3022 966 
Q 3022 478 2636 193 
Q 2250 -91 1575 -91 
Q 1294 -91 989 -36 
Q 684 19 347 128 
L 347 722 
Q 666 556 975 473 
Q 1284 391 1588 391 
Q 1994 391 2212 530 
Q 2431 669 2431 922 
Q 2431 1156 2273 1281 
Q 2116 1406 1581 1522 
L 1381 1569 
Q 847 1681 609 1914 
Q 372 2147 372 2553 
Q 372 3047 722 3315 
Q 1072 3584 1716 3584 
Q 2034 3584 2315 3537 
Q 2597 3491 2834 3397 
z
" transform="scale(0.015625)"/>
      <path id="DejaVuSans-64" d="M 2906 2969 
L 2906 4863 
L 3481 4863 
L 3481 0 
L 2906 0 
L 2906 525 
Q 2725 213 2448 61 
Q 2172 -91 1784 -91 
Q 1150 -91 751 415 
Q 353 922 353 1747 
Q 353 2572 751 3078 
Q 1150 3584 1784 3584 
Q 2172 3584 2448 3432 
Q 2725 3281 2906 2969 
z
M 947 1747 
Q 947 1113 1208 752 
Q 1469 391 1925 391 
Q 2381 391 2643 752 
Q 2906 1113 2906 1747 
Q 2906 2381 2643 2742 
Q 2381 3103 1925 3103 
Q 1469 3103 1208 2742 
Q 947 2381 947 1747 
z
" transform="scale(0.015625)"/>
      <path id="DejaVuSans-75" d="M 544 1381 
L 544 3500 
L 1119 3500 
L 1119 1403 
Q 1119 906 1312 657 
Q 1506 409 1894 409 
Q 2359 409 2629 706 
Q 2900 1003 2900 1516 
L 2900 3500 
L 3475 3500 
L 3475 0 
L 2900 0 
L 2900 538 
Q 2691 219 2414 64 
Q 2138 -91 1772 -91 
Q 1169 -91 856 284 
Q 544 659 544 1381 
z
M 1991 3584 
L 1991 3584 
z
" transform="scale(0.015625)"/>
      <path id="DejaVuSans-67" d="M 2906 1791 
Q 2906 2416 2648 2759 
Q 2391 3103 1925 3103 
Q 1463 3103 1205 2759 
Q 947 2416 947 1791 
Q 947 1169 1205 825 
Q 1463 481 1925 481 
Q 2391 481 2648 825 
Q 2906 1169 2906 1791 
z
M 3481 434 
Q 3481 -459 3084 -895 
Q 2688 -1331 1869 -1331 
Q 1566 -1331 1297 -1286 
Q 1028 -1241 775 -1147 
L 775 -588 
Q 1028 -725 1275 -790 
Q 1522 -856 1778 -856 
Q 2344 -856 2625 -561 
Q 2906 -266 2906 331 
L 2906 616 
Q 2728 306 2450 153 
Q 2172 0 1784 0 
Q 1141 0 747 490 
Q 353 981 353 1791 
Q 353 2603 747 3093 
Q 1141 3584 1784 3584 
Q 2172 3584 2450 3431 
Q 2728 3278 2906 2969 
L 2906 3500 
L 3481 3500 
L 3481 434 
z
" transform="scale(0.015625)"/>
      <path id="DejaVuSans-68" d="M 3513 2113 
L 3513 0 
L 2938 0 
L 2938 2094 
Q 2938 2591 2744 2837 
Q 2550 3084 2163 3084 
Q 1697 3084 1428 2787 
Q 1159 2491 1159 1978 
L 1159 0 
L 581 0 
L 581 4863 
L 1159 4863 
L 1159 2956 
Q 1366 3272 1645 3428 
Q 1925 3584 2291 3584 
Q 2894 3584 3203 3211 
Q 3513 2838 3513 2113 
z
" transform="scale(0.015625)"/>
      <path id="DejaVuSans-79" d="M 2059 -325 
Q 1816 -950 1584 -1140 
Q 1353 -1331 966 -1331 
L 506 -1331 
L 506 -850 
L 844 -850 
Q 1081 -850 1212 -737 
Q 1344 -625 1503 -206 
L 1606 56 
L 191 3500 
L 800 3500 
L 1894 763 
L 2988 3500 
L 3597 3500 
L 2059 -325 
z
" transform="scale(0.015625)"/>
      <path id="DejaVuSans-2d" d="M 313 2009 
L 1997 2009 
L 1997 1497 
L 313 1497 
L 313 2009 
z
" transform="scale(0.015625)"/>
      <path id="DejaVuSans-63" d="M 3122 3366 
L 3122 2828 
Q 2878 2963 2633 3030 
Q 2388 3097 2138 3097 
Q 1578 3097 1268 2742 
Q 959 2388 959 1747 
Q 959 1106 1268 751 
Q 1578 397 2138 397 
Q 2388 397 2633 464 
Q 2878 531 3122 666 
L 3122 134 
Q 2881 22 2623 -34 
Q 2366 -91 2075 -91 
Q 1284 -91 818 406 
Q 353 903 353 1747 
Q 353 2603 823 3093 
Q 1294 3584 2113 3584 
Q 2378 3584 2631 3529 
Q 2884 3475 3122 3366 
z
" transform="scale(0.015625)"/>
     </defs>
     <use xlink:href="#DejaVuSans-50"/>
     <use xlink:href="#DejaVuSans-61" transform="translate(55.802734 0)"/>
     <use xlink:href="#DejaVuSans-69" transform="translate(117.082031 0)"/>
     <use xlink:href="#DejaVuSans-72" transform="translate(144.865234 0)"/>
     <use xlink:href="#DejaVuSans-77" transform="translate(185.978516 0)"/>
     <use xlink:href="#DejaVuSans-69" transform="translate(267.765625 0)"/>
     <use xlink:href="#DejaVuSans-73" transform="translate(295.548828 0)"/>
     <use xlink:href="#DejaVuSans-65" transform="translate(347.648438 0)"/>
     <use xlink:href="#DejaVuSans-20" transform="translate(409.171875 0)"/>
     <use xlink:href="#DejaVuSans-73" transform="translate(440.958984 0)"/>
     <use xlink:href="#DejaVuSans-65" transform="translate(493.058594 0)"/>
     <use xlink:href="#DejaVuSans-70" transform="translate(554.582031 0)"/>
     <use xlink:href="#DejaVuSans-61" transform="translate(618.058594 0)"/>
     <use xlink:href="#DejaVuSans-72" transform="translate(679.337891 0)"/>
     <use xlink:href="#DejaVuSans-61" transform="translate(720.451172 0)"/>
     <use xlink:href="#DejaVuSans-74" transform="translate(781.730469 0)"/>
     <use xlink:href="#DejaVuSans-69" transform="translate(820.939453 0)"/>
     <use xlink:href="#DejaVuSans-6f" transform="translate(848.722656 0)"/>
     <use xlink:href="#DejaVuSans-6e" transform="translate(909.904297 0)"/>
     <use xlink:href="#DejaVuSans-20" transform="translate(973.283203 0)"/>
     <use xlink:href="#DejaVuSans-64" transform="translate(1005.070312 0)"/>
     <use xlink:href="#DejaVuSans-75" transform="translate(1068.546875 0)"/>
     <use xlink:href="#DejaVuSans-72" transform="translate(1131.925781 0)"/>
     <use xlink:href="#DejaVuSans-69" transform="translate(1173.039062 0)"/>
     <use xlink:href="#DejaVuSans-6e" transform="translate(1200.822266 0)"/>
     <use xlink:href="#DejaVuSans-67" transform="translate(1264.201172 0)"/>
     <use xlink:href="#DejaVuSans-20" transform="translate(1327.677734 0)"/>
     <use xlink:href="#DejaVuSans-74" transform="translate(1359.464844 0)"/>
     <use xlink:href="#DejaVuSans-68" transform="translate(1398.673828 0)"/>
     <use xlink:href="#DejaVuSans-65" transform="translate(1462.052734 0)"/>
     <use xlink:href="#DejaVuSans-20" transform="translate(1523.576172 0)"/>
     <use xlink:href="#DejaVuSans-6e" transform="translate(1555.363281 0)"/>
     <use xlink:href="#DejaVuSans-69" transform="translate(1618.742188 0)"/>
     <use xlink:href="#DejaVuSans-6e" transform="translate(1646.525391 0)"/>
     <use xlink:href="#DejaVuSans-65" transform="translate(1709.904297 0)"/>
     <use xlink:href="#DejaVuSans-74" transform="translate(1771.427734 0)"/>
     <use xlink:href="#DejaVuSans-79" transform="translate(1810.636719 0)"/>
     <use xlink:href="#DejaVuSans-2d" transform="translate(1868.066406 0)"/>
     <use xlink:href="#DejaVuSans-73" transform="translate(1904.150391 0)"/>
     <use xlink:href="#DejaVuSans-65" transform="translate(1956.25 0)"/>
     <use xlink:href="#DejaVuSans-63" transform="translate(2017.773438 0)"/>
     <use xlink:href="#DejaVuSans-6f" transform="translate(2072.753906 0)"/>
     <use xlink:href="#DejaVuSans-6e" transform="translate(2133.935547 0)"/>
     <use xlink:href="#DejaVuSans-64" transform="translate(2197.314453 0)"/>
     <use xlink:href="#DejaVuSans-20" transform="translate(2260.791016 0)"/>
     <use xlink:href="#DejaVuSans-77" transform="translate(2292.578125 0)"/>
     <use xlink:href="#DejaVuSans-69" transform="translate(2374.365234 0)"/>
     <use xlink:href="#DejaVuSans-6e" transform="translate(2402.148438 0)"/>
     <use xlink:href="#DejaVuSans-64" transform="translate(2465.527344 0)"/>
     <use xlink:href="#DejaVuSans-6f" transform="translate(2529.003906 0)"/>
     <use xlink:href="#DejaVuSans-77" transform="translate(2590.185547 0)"/>
    </g>
   </g>
   <g id="legend_1">
    <g id="patch_7">
     <path d="M 626.287866 70.224634 
L 703.369 70.224634 
Q 705.035 70.224634 705.035 68.558634 
L 705.035 32.711 
Q 705.035 31.045 703.369 31.045 
L 626.287866 31.045 
Q 624.621866 31.045 624.621866 32.711 
L 624.621866 68.558634 
Q 624.621866 70.224634 626.287866 70.224634 
z
" style="fill: #ffffff; opacity: 0.8; stroke: #cccccc; stroke-linejoin: miter"/>
    </g>
    <g id="line2d_33">
     <path d="M 627.953866 37.790998 
L 636.283866 37.790998 
L 644.613866 37.790998 
" style="fill: none; stroke: #1f77b4; stroke-width: 1.5; stroke-linecap: square"/>
    </g>
    <g id="text_19">
     <!-- SAT-1–SAT-2 -->
     <g transform="translate(651.277866 40.706498) scale(0.0833 -0.0833)">
      <defs>
       <path id="DejaVuSans-41" d="M 2188 4044 
L 1331 1722 
L 3047 1722 
L 2188 4044 
z
M 1831 4666 
L 2547 4666 
L 4325 0 
L 3669 0 
L 3244 1197 
L 1141 1197 
L 716 0 
L 50 0 
L 1831 4666 
z
" transform="scale(0.015625)"/>
       <path id="DejaVuSans-2013" d="M 313 1978 
L 2888 1978 
L 2888 1528 
L 313 1528 
L 313 1978 
z
" transform="scale(0.015625)"/>
      </defs>
      <use xlink:href="#DejaVuSans-53"/>
      <use xlink:href="#DejaVuSans-41" transform="translate(65.351562 0)"/>
      <use xlink:href="#DejaVuSans-54" transform="translate(126.009766 0)"/>
      <use xlink:href="#DejaVuSans-2d" transform="translate(177.96875 0)"/>
      <use xlink:href="#DejaVuSans-31" transform="translate(214.052734 0)"/>
      <use xlink:href="#DejaVuSans-2013" transform="translate(277.675781 0)"/>
      <use xlink:href="#DejaVuSans-53" transform="translate(327.675781 0)"/>
      <use xlink:href="#DejaVuSans-41" transform="translate(393.027344 0)"/>
      <use xlink:href="#DejaVuSans-54" transform="translate(453.685547 0)"/>
      <use xlink:href="#DejaVuSans-2d" transform="translate(505.644531 0)"/>
      <use xlink:href="#DejaVuSans-32" transform="translate(541.728516 0)"/>
     </g>
    </g>
    <g id="line2d_34">
     <path d="M 627.953866 50.017877 
L 636.283866 50.017877 
L 644.613866 50.017877 
" style="fill: none; stroke: #ff7f0e; stroke-width: 1.5; stroke-linecap: square"/>
    </g>
    <g id="text_20">
     <!-- SAT-1–SAT-3 -->
     <g transform="translate(651.277866 52.933377) scale(0.0833 -0.0833)">
      <use xlink:href="#DejaVuSans-53"/>
      <use xlink:href="#DejaVuSans-41" transform="translate(65.351562 0)"/>
      <use xlink:href="#DejaVuSans-54" transform="translate(126.009766 0)"/>
      <use xlink:href="#DejaVuSans-2d" transform="translate(177.96875 0)"/>
      <use xlink:href="#DejaVuSans-31" transform="translate(214.052734 0)"/>
      <use xlink:href="#DejaVuSans-2013" transform="translate(277.675781 0)"/>
      <use xlink:href="#DejaVuSans-53" transform="translate(327.675781 0)"/>
      <use xlink:href="#DejaVuSans-41" transform="translate(393.027344 0)"/>
      <use xlink:href="#DejaVuSans-54" transform="translate(453.685547 0)"/>
      <use xlink:href="#DejaVuSans-2d" transform="translate(505.644531 0)"/>
      <use xlink:href="#DejaVuSans-33" transform="translate(541.728516 0)"/>
     </g>
    </g>
    <g id="line2d_35">
     <path d="M 627.953866 62.244755 
L 636.283866 62.244755 
L 644.613866 62.244755 
" style="fill: none; stroke: #2ca02c; stroke-width: 1.5; stroke-linecap: square"/>
    </g>
    <g id="text_21">
     <!-- SAT-2–SAT-3 -->
     <g transform="translate(651.277866 65.160255) scale(0.0833 -0.0833)">
      <use xlink:href="#DejaVuSans-53"/>
      <use xlink:href="#DejaVuSans-41" transform="translate(65.351562 0)"/>
      <use xlink:href="#DejaVuSans-54" transform="translate(126.009766 0)"/>
      <use xlink:href="#DejaVuSans-2d" transform="translate(177.96875 0)"/>
      <use xlink:href="#DejaVuSans-32" transform="translate(214.052734 0)"/>
      <use xlink:href="#DejaVuSans-2013" transform="translate(277.675781 0)"/>
      <use xlink:href="#DejaVuSans-53" transform="translate(327.675781 0)"/>
      <use xlink:href="#DejaVuSans-41" transform="translate(393.027344 0)"/>
      <use xlink:href="#DejaVuSans-54" transform="translate(453.685547 0)"/>
      <use xlink:href="#DejaVuSans-2d" transform="translate(505.644531 0)"/>
      <use xlink:href="#DejaVuSans-33" transform="translate(541.728516 0)"/>
     </g>
    </g>
   </g>
  </g>
 </g>
 <defs>
  <clipPath id="p500557634e">
   <rect x="62.3" y="26.88" width="646.9" height="291.16"/>
  </clipPath>
 </defs>
</svg>
