<?xml version="1.0" encoding="utf-8" standalone="no"?>
<!DOCTYPE svg PUBLIC "-//W3C//DTD SVG 1.1//EN"
  "http://www.w3.org/Graphics/SVG/1.1/DTD/svg11.dtd">
<svg xmlns:xlink="http://www.w3.org/1999/xlink" width="720pt" height="432pt" viewBox="0 0 720 432" xmlns="http://www.w3.org/2000/svg" version="1.1">
 <metadata>
  <rdf:RDF xmlns:dc="http://purl.org/dc/elements/1.1/" xmlns:cc="http://creativecommons.org/ns#" xmlns:rdf="http://www.w3.org/1999/02/22-rdf-syntax-ns#">
   <cc:Work>
    <dc:type rdf:resource="http://purl.org/dc/dcmitype/StillImage"/>
    <dc:date>2025-11-01T08:07:52.515302</dc:date>
    <dc:format>image/svg+xml</dc:format>
    <dc:creator>
     <cc:Agent>
      <dc:title>Matplotlib v3.10.7, https://matplotlib.org/</dc:title>
     </cc:Agent>
    </dc:creator>
   </cc:Work>
  </rdf:RDF>
 </metadata>
 <defs>
  <style type="text/css">*{stroke-linejoin: round; stroke-linecap: butt}</style>
 </defs>
 <g id="figure_1">
  <g id="patch_1">
   <path d="M 0 432 
L 720 432 
L 720 0 
L 0 0 
z
" style="fill: #ffffff"/>
  </g>
  <g id="axes_1">
   <g id="patch_2">
    <path d="M 62.3 390.04 
L 709.2 390.04 
L 709.2 26.88 
L 62.3 26.88 
z
" style="fill: #ffffff"/>
   </g>
   <g id="matplotlib.axis_1">
    <g id="xtick_1">
     <g id="line2d_1">
      <path d="M 91.704545 390.04 
L 91.704545 26.88 
" clip-path="url(#p721ca9db07)" style="fill: none; stroke-dasharray: 2.96,1.28; stroke-dashoffset: 0; stroke: #b0b0b0; stroke-opacity: 0.5; stroke-width: 0.8"/>
     </g>
     <g id="line2d_2">
      <defs>
       <path id="m663c67e99b" d="M 0 0 
L 0 3.5 
" style="stroke: #000000; stroke-width: 0.8"/>
      </defs>
      <g>
       <use xlink:href="#m663c67e99b" x="91.704545" y="390.04" style="stroke: #000000; stroke-width: 0.8"/>
      </g>
     </g>
     <g id="text_1">
      <!-- 0 -->
      <g transform="translate(88.523295 404.638438) scale(0.1 -0.1)">
       <defs>
        <path id="DejaVuSans-30" d="M 2034 4250 
Q 1547 4250 1301 3770 
Q 1056 3291 1056 2328 
Q 1056 1369 1301 889 
Q 1547 409 2034 409 
Q 2525 409 2770 889 
Q 3016 1369 3016 2328 
Q 3016 3291 2770 3770 
Q 2525 4250 2034 4250 
z
M 2034 4750 
Q 2819 4750 3233 4129 
Q 3647 3509 3647 2328 
Q 3647 1150 3233 529 
Q 2819 -91 2034 -91 
Q 1250 -91 836 529 
Q 422 1150 422 2328 
Q 422 3509 836 4129 
Q 1250 4750 2034 4750 
z
" transform="scale(0.015625)"/>
       </defs>
       <use xlink:href="#DejaVuSans-30"/>
      </g>
     </g>
    </g>
    <g id="xtick_2">
     <g id="line2d_3">
      <path d="M 173.383838 390.04 
L 173.383838 26.88 
" clip-path="url(#p721ca9db07)" style="fill: none; stroke-dasharray: 2.96,1.28; stroke-dashoffset: 0; stroke: #b0b0b0; stroke-opacity: 0.5; stroke-width: 0.8"/>
     </g>
     <g id="line2d_4">
      <g>
       <use xlink:href="#m663c67e99b" x="173.383838" y="390.04" style="stroke: #000000; stroke-width: 0.8"/>
      </g>
     </g>
     <g id="text_2">
      <!-- 25 -->
      <g transform="translate(167.021338 404.638438) scale(0.1 -0.1)">
       <defs>
        <path id="DejaVuSans-32" d="M 1228 531 
L 3431 531 
L 3431 0 
L 469 0 
L 469 531 
Q 828 903 1448 1529 
Q 2069 2156 2228 2338 
Q 2531 2678 2651 2914 
Q 2772 3150 2772 3378 
Q 2772 3750 2511 3984 
Q 2250 4219 1831 4219 
Q 1534 4219 1204 4116 
Q 875 4013 500 3803 
L 500 4441 
Q 881 4594 1212 4672 
Q 1544 4750 1819 4750 
Q 2544 4750 2975 4387 
Q 3406 4025 3406 3419 
Q 3406 3131 3298 2873 
Q 3191 2616 2906 2266 
Q 2828 2175 2409 1742 
Q 1991 1309 1228 531 
z
" transform="scale(0.015625)"/>
        <path id="DejaVuSans-35" d="M 691 4666 
L 3169 4666 
L 3169 4134 
L 1269 4134 
L 1269 2991 
Q 1406 3038 1543 3061 
Q 1681 3084 1819 3084 
Q 2600 3084 3056 2656 
Q 3513 2228 3513 1497 
Q 3513 744 3044 326 
Q 2575 -91 1722 -91 
Q 1428 -91 1123 -41 
Q 819 9 494 109 
L 494 744 
Q 775 591 1075 516 
Q 1375 441 1709 441 
Q 2250 441 2565 725 
Q 2881 1009 2881 1497 
Q 2881 1984 2565 2268 
Q 2250 2553 1709 2553 
Q 1456 2553 1204 2497 
Q 953 2441 691 2322 
L 691 4666 
z
" transform="scale(0.015625)"/>
       </defs>
       <use xlink:href="#DejaVuSans-32"/>
       <use xlink:href="#DejaVuSans-35" transform="translate(63.623047 0)"/>
      </g>
     </g>
    </g>
    <g id="xtick_3">
     <g id="line2d_5">
      <path d="M 255.063131 390.04 
L 255.063131 26.88 
" clip-path="url(#p721ca9db07)" style="fill: none; stroke-dasharray: 2.96,1.28; stroke-dashoffset: 0; stroke: #b0b0b0; stroke-opacity: 0.5; stroke-width: 0.8"/>
     </g>
     <g id="line2d_6">
      <g>
       <use xlink:href="#m663c67e99b" x="255.063131" y="390.04" style="stroke: #000000; stroke-width: 0.8"/>
      </g>
     </g>
     <g id="text_3">
      <!-- 50 -->
      <g transform="translate(248.700631 404.638438) scale(0.1 -0.1)">
       <use xlink:href="#DejaVuSans-35"/>
       <use xlink:href="#DejaVuSans-30" transform="translate(63.623047 0)"/>
      </g>
     </g>
    </g>
    <g id="xtick_4">
     <g id="line2d_7">
      <path d="M 336.742424 390.04 
L 336.742424 26.88 
" clip-path="url(#p721ca9db07)" style="fill: none; stroke-dasharray: 2.96,1.28; stroke-dashoffset: 0; stroke: #b0b0b0; stroke-opacity: 0.5; stroke-width: 0.8"/>
     </g>
     <g id="line2d_8">
      <g>
       <use xlink:href="#m663c67e99b" x="336.742424" y="390.04" style="stroke: #000000; stroke-width: 0.8"/>
      </g>
     </g>
     <g id="text_4">
      <!-- 75 -->
      <g transform="translate(330.379924 404.638438) scale(0.1 -0.1)">
       <defs>
        <path id="DejaVuSans-37" d="M 525 4666 
L 3525 4666 
L 3525 4397 
L 1831 0 
L 1172 0 
L 2766 4134 
L 525 4134 
L 525 4666 
z
" transform="scale(0.015625)"/>
       </defs>
       <use xlink:href="#DejaVuSans-37"/>
       <use xlink:href="#DejaVuSans-35" transform="translate(63.623047 0)"/>
      </g>
     </g>
    </g>
    <g id="xtick_5">
     <g id="line2d_9">
      <path d="M 418.421717 390.04 
L 418.421717 26.88 
" clip-path="url(#p721ca9db07)" style="fill: none; stroke-dasharray: 2.96,1.28; stroke-dashoffset: 0; stroke: #b0b0b0; stroke-opacity: 0.5; stroke-width: 0.8"/>
     </g>
     <g id="line2d_10">
      <g>
       <use xlink:href="#m663c67e99b" x="418.421717" y="390.04" style="stroke: #000000; stroke-width: 0.8"/>
      </g>
     </g>
     <g id="text_5">
      <!-- 100 -->
      <g transform="translate(408.877967 404.638438) scale(0.1 -0.1)">
       <defs>
        <path id="DejaVuSans-31" d="M 794 531 
L 1825 531 
L 1825 4091 
L 703 3866 
L 703 4441 
L 1819 4666 
L 2450 4666 
L 2450 531 
L 3481 531 
L 3481 0 
L 794 0 
L 794 531 
z
" transform="scale(0.015625)"/>
       </defs>
       <use xlink:href="#DejaVuSans-31"/>
       <use xlink:href="#DejaVuSans-30" transform="translate(63.623047 0)"/>
       <use xlink:href="#DejaVuSans-30" transform="translate(127.246094 0)"/>
      </g>
     </g>
    </g>
    <g id="xtick_6">
     <g id="line2d_11">
      <path d="M 500.10101 390.04 
L 500.10101 26.88 
" clip-path="url(#p721ca9db07)" style="fill: none; stroke-dasharray: 2.96,1.28; stroke-dashoffset: 0; stroke: #b0b0b0; stroke-opacity: 0.5; stroke-width: 0.8"/>
     </g>
     <g id="line2d_12">
      <g>
       <use xlink:href="#m663c67e99b" x="500.10101" y="390.04" style="stroke: #000000; stroke-width: 0.8"/>
      </g>
     </g>
     <g id="text_6">
      <!-- 125 -->
      <g transform="translate(490.55726 404.638438) scale(0.1 -0.1)">
       <use xlink:href="#DejaVuSans-31"/>
       <use xlink:href="#DejaVuSans-32" transform="translate(63.623047 0)"/>
       <use xlink:href="#DejaVuSans-35" transform="translate(127.246094 0)"/>
      </g>
     </g>
    </g>
    <g id="xtick_7">
     <g id="line2d_13">
      <path d="M 581.780303 390.04 
L 581.780303 26.88 
" clip-path="url(#p721ca9db07)" style="fill: none; stroke-dasharray: 2.96,1.28; stroke-dashoffset: 0; stroke: #b0b0b0; stroke-opacity: 0.5; stroke-width: 0.8"/>
     </g>
     <g id="line2d_14">
      <g>
       <use xlink:href="#m663c67e99b" x="581.780303" y="390.04" style="stroke: #000000; stroke-width: 0.8"/>
      </g>
     </g>
     <g id="text_7">
      <!-- 150 -->
      <g transform="translate(572.236553 404.638438) scale(0.1 -0.1)">
       <use xlink:href="#DejaVuSans-31"/>
       <use xlink:href="#DejaVuSans-35" transform="translate(63.623047 0)"/>
       <use xlink:href="#DejaVuSans-30" transform="translate(127.246094 0)"/>
      </g>
     </g>
    </g>
    <g id="xtick_8">
     <g id="line2d_15">
      <path d="M 663.459596 390.04 
L 663.459596 26.88 
" clip-path="url(#p721ca9db07)" style="fill: none; stroke-dasharray: 2.96,1.28; stroke-dashoffset: 0; stroke: #b0b0b0; stroke-opacity: 0.5; stroke-width: 0.8"/>
     </g>
     <g id="line2d_16">
      <g>
       <use xlink:href="#m663c67e99b" x="663.459596" y="390.04" style="stroke: #000000; stroke-width: 0.8"/>
      </g>
     </g>
     <g id="text_8">
      <!-- 175 -->
      <g transform="translate(653.915846 404.638438) scale(0.1 -0.1)">
       <use xlink:href="#DejaVuSans-31"/>
       <use xlink:href="#DejaVuSans-37" transform="translate(63.623047 0)"/>
       <use xlink:href="#DejaVuSans-35" transform="translate(127.246094 0)"/>
      </g>
     </g>
    </g>
    <g id="text_9">
     <!-- Time offset [s] -->
     <g transform="translate(349.610937 418.316562) scale(0.1 -0.1)">
      <defs>
       <path id="DejaVuSans-54" d="M -19 4666 
L 3928 4666 
L 3928 4134 
L 2272 4134 
L 2272 0 
L 1638 0 
L 1638 4134 
L -19 4134 
L -19 4666 
z
" transform="scale(0.015625)"/>
       <path id="DejaVuSans-69" d="M 603 3500 
L 1178 3500 
L 1178 0 
L 603 0 
L 603 3500 
z
M 603 4863 
L 1178 4863 
L 1178 4134 
L 603 4134 
L 603 4863 
z
" transform="scale(0.015625)"/>
       <path id="DejaVuSans-6d" d="M 3328 2828 
Q 3544 3216 3844 3400 
Q 4144 3584 4550 3584 
Q 5097 3584 5394 3201 
Q 5691 2819 5691 2113 
L 5691 0 
L 5113 0 
L 5113 2094 
Q 5113 2597 4934 2840 
Q 4756 3084 4391 3084 
Q 3944 3084 3684 2787 
Q 3425 2491 3425 1978 
L 3425 0 
L 2847 0 
L 2847 2094 
Q 2847 2600 2669 2842 
Q 2491 3084 2119 3084 
Q 1678 3084 1418 2786 
Q 1159 2488 1159 1978 
L 1159 0 
L 581 0 
L 581 3500 
L 1159 3500 
L 1159 2956 
Q 1356 3278 1631 3431 
Q 1906 3584 2284 3584 
Q 2666 3584 2933 3390 
Q 3200 3197 3328 2828 
z
" transform="scale(0.015625)"/>
       <path id="DejaVuSans-65" d="M 3597 1894 
L 3597 1613 
L 953 1613 
Q 991 1019 1311 708 
Q 1631 397 2203 397 
Q 2534 397 2845 478 
Q 3156 559 3463 722 
L 3463 178 
Q 3153 47 2828 -22 
Q 2503 -91 2169 -91 
Q 1331 -91 842 396 
Q 353 884 353 1716 
Q 353 2575 817 3079 
Q 1281 3584 2069 3584 
Q 2775 3584 3186 3129 
Q 3597 2675 3597 1894 
z
M 3022 2063 
Q 3016 2534 2758 2815 
Q 2500 3097 2075 3097 
Q 1594 3097 1305 2825 
Q 1016 2553 972 2059 
L 3022 2063 
z
" transform="scale(0.015625)"/>
       <path id="DejaVuSans-20" transform="scale(0.015625)"/>
       <path id="DejaVuSans-6f" d="M 1959 3097 
Q 1497 3097 1228 2736 
Q 959 2375 959 1747 
Q 959 1119 1226 758 
Q 1494 397 1959 397 
Q 2419 397 2687 759 
Q 2956 1122 2956 1747 
Q 2956 2369 2687 2733 
Q 2419 3097 1959 3097 
z
M 1959 3584 
Q 2709 3584 3137 3096 
Q 3566 2609 3566 1747 
Q 3566 888 3137 398 
Q 2709 -91 1959 -91 
Q 1206 -91 779 398 
Q 353 888 353 1747 
Q 353 2609 779 3096 
Q 1206 3584 1959 3584 
z
" transform="scale(0.015625)"/>
       <path id="DejaVuSans-66" d="M 2375 4863 
L 2375 4384 
L 1825 4384 
Q 1516 4384 1395 4259 
Q 1275 4134 1275 3809 
L 1275 3500 
L 2222 3500 
L 2222 3053 
L 1275 3053 
L 1275 0 
L 697 0 
L 697 3053 
L 147 3053 
L 147 3500 
L 697 3500 
L 697 3744 
Q 697 4328 969 4595 
Q 1241 4863 1831 4863 
L 2375 4863 
z
" transform="scale(0.015625)"/>
       <path id="DejaVuSans-73" d="M 2834 3397 
L 2834 2853 
Q 2591 2978 2328 3040 
Q 2066 3103 1784 3103 
Q 1356 3103 1142 2972 
Q 928 2841 928 2578 
Q 928 2378 1081 2264 
Q 1234 2150 1697 2047 
L 1894 2003 
Q 2506 1872 2764 1633 
Q 3022 1394 3022 966 
Q 3022 478 2636 193 
Q 2250 -91 1575 -91 
Q 1294 -91 989 -36 
Q 684 19 347 128 
L 347 722 
Q 666 556 975 473 
Q 1284 391 1588 391 
Q 1994 391 2212 530 
Q 2431 669 2431 922 
Q 2431 1156 2273 1281 
Q 2116 1406 1581 1522 
L 1381 1569 
Q 847 1681 609 1914 
Q 372 2147 372 2553 
Q 372 3047 722 3315 
Q 1072 3584 1716 3584 
Q 2034 3584 2315 3537 
Q 2597 3491 2834 3397 
z
" transform="scale(0.015625)"/>
       <path id="DejaVuSans-74" d="M 1172 4494 
L 1172 3500 
L 2356 3500 
L 2356 3053 
L 1172 3053 
L 1172 1153 
Q 1172 725 1289 603 
Q 1406 481 1766 481 
L 2356 481 
L 2356 0 
L 1766 0 
Q 1100 0 847 248 
Q 594 497 594 1153 
L 594 3053 
L 172 3053 
L 172 3500 
L 594 3500 
L 594 4494 
L 1172 4494 
z
" transform="scale(0.015625)"/>
       <path id="DejaVuSans-5b" d="M 550 4863 
L 1875 4863 
L 1875 4416 
L 1125 4416 
L 1125 -397 
L 1875 -397 
L 1875 -844 
L 550 -844 
L 550 4863 
z
" transform="scale(0.015625)"/>
       <path id="DejaVuSans-5d" d="M 1947 4863 
L 1947 -844 
L 622 -844 
L 622 -397 
L 1369 -397 
L 1369 4416 
L 622 4416 
L 622 4863 
L 1947 4863 
z
" transform="scale(0.015625)"/>
      </defs>
      <use xlink:href="#DejaVuSans-54"/>
      <use xlink:href="#DejaVuSans-69" transform="translate(57.958984 0)"/>
      <use xlink:href="#DejaVuSans-6d" transform="translate(85.742188 0)"/>
      <use xlink:href="#DejaVuSans-65" transform="translate(183.154297 0)"/>
      <use xlink:href="#DejaVuSans-20" transform="translate(244.677734 0)"/>
      <use xlink:href="#DejaVuSans-6f" transform="translate(276.464844 0)"/>
      <use xlink:href="#DejaVuSans-66" transform="translate(337.646484 0)"/>
      <use xlink:href="#DejaVuSans-66" transform="translate(372.851562 0)"/>
      <use xlink:href="#DejaVuSans-73" transform="translate(408.056641 0)"/>
      <use xlink:href="#DejaVuSans-65" transform="translate(460.15625 0)"/>
      <use xlink:href="#DejaVuSans-74" transform="translate(521.679688 0)"/>
      <use xlink:href="#DejaVuSans-20" transform="translate(560.888672 0)"/>
      <use xlink:href="#DejaVuSans-5b" transform="translate(592.675781 0)"/>
      <use xlink:href="#DejaVuSans-73" transform="translate(631.689453 0)"/>
      <use xlink:href="#DejaVuSans-5d" transform="translate(683.789062 0)"/>
     </g>
    </g>
   </g>
   <g id="matplotlib.axis_2">
    <g id="ytick_1">
     <g id="line2d_17">
      <path d="M 62.3 363.25 
L 709.2 363.25 
" clip-path="url(#p721ca9db07)" style="fill: none; stroke-dasharray: 2.96,1.28; stroke-dashoffset: 0; stroke: #b0b0b0; stroke-opacity: 0.5; stroke-width: 0.8"/>
     </g>
     <g id="line2d_18">
      <defs>
       <path id="m8764626d55" d="M 0 0 
L -3.5 0 
" style="stroke: #000000; stroke-width: 0.8"/>
      </defs>
      <g>
       <use xlink:href="#m8764626d55" x="62.3" y="363.25" style="stroke: #000000; stroke-width: 0.8"/>
      </g>
     </g>
     <g id="text_10">
      <!-- −0.75 -->
      <g transform="translate(24.654688 367.049219) scale(0.1 -0.1)">
       <defs>
        <path id="DejaVuSans-2212" d="M 678 2272 
L 4684 2272 
L 4684 1741 
L 678 1741 
L 678 2272 
z
" transform="scale(0.015625)"/>
        <path id="DejaVuSans-2e" d="M 684 794 
L 1344 794 
L 1344 0 
L 684 0 
L 684 794 
z
" transform="scale(0.015625)"/>
       </defs>
       <use xlink:href="#DejaVuSans-2212"/>
       <use xlink:href="#DejaVuSans-30" transform="translate(83.789062 0)"/>
       <use xlink:href="#DejaVuSans-2e" transform="translate(147.412109 0)"/>
       <use xlink:href="#DejaVuSans-37" transform="translate(179.199219 0)"/>
       <use xlink:href="#DejaVuSans-35" transform="translate(242.822266 0)"/>
      </g>
     </g>
    </g>
    <g id="ytick_2">
     <g id="line2d_19">
      <path d="M 62.3 315.5 
L 709.2 315.5 
" clip-path="url(#p721ca9db07)" style="fill: none; stroke-dasharray: 2.96,1.28; stroke-dashoffset: 0; stroke: #b0b0b0; stroke-opacity: 0.5; stroke-width: 0.8"/>
     </g>
     <g id="line2d_20">
      <g>
       <use xlink:href="#m8764626d55" x="62.3" y="315.5" style="stroke: #000000; stroke-width: 0.8"/>
      </g>
     </g>
     <g id="text_11">
      <!-- −0.50 -->
      <g transform="translate(24.654688 319.299219) scale(0.1 -0.1)">
       <use xlink:href="#DejaVuSans-2212"/>
       <use xlink:href="#DejaVuSans-30" transform="translate(83.789062 0)"/>
       <use xlink:href="#DejaVuSans-2e" transform="translate(147.412109 0)"/>
       <use xlink:href="#DejaVuSans-35" transform="translate(179.199219 0)"/>
       <use xlink:href="#DejaVuSans-30" transform="translate(242.822266 0)"/>
      </g>
     </g>
    </g>
    <g id="ytick_3">
     <g id="line2d_21">
      <path d="M 62.3 267.75 
L 709.2 267.75 
" clip-path="url(#p721ca9db07)" style="fill: none; stroke-dasharray: 2.96,1.28; stroke-dashoffset: 0; stroke: #b0b0b0; stroke-opacity: 0.5; stroke-width: 0.8"/>
     </g>
     <g id="line2d_22">
      <g>
       <use xlink:href="#m8764626d55" x="62.3" y="267.75" style="stroke: #000000; stroke-width: 0.8"/>
      </g>
     </g>
     <g id="text_12">
      <!-- −0.25 -->
      <g transform="translate(24.654688 271.549219) scale(0.1 -0.1)">
       <use xlink:href="#DejaVuSans-2212"/>
       <use xlink:href="#DejaVuSans-30" transform="translate(83.789062 0)"/>
       <use xlink:href="#DejaVuSans-2e" transform="translate(147.412109 0)"/>
       <use xlink:href="#DejaVuSans-32" transform="translate(179.199219 0)"/>
       <use xlink:href="#DejaVuSans-35" transform="translate(242.822266 0)"/>
      </g>
     </g>
    </g>
    <g id="ytick_4">
     <g id="line2d_23">
      <path d="M 62.3 219.75 
L 709.2 219.75 
" clip-path="url(#p721ca9db07)" style="fill: none; stroke-dasharray: 2.96,1.28; stroke-dashoffset: 0; stroke: #b0b0b0; stroke-opacity: 0.5; stroke-width: 0.8"/>
     </g>
     <g id="line2d_24">
      <g>
       <use xlink:href="#m8764626d55" x="62.3" y="219.75" style="stroke: #000000; stroke-width: 0.8"/>
      </g>
     </g>
     <g id="text_13">
      <!-- 0.00 -->
      <g transform="translate(33.034375 223.549219) scale(0.1 -0.1)">
       <use xlink:href="#DejaVuSans-30"/>
       <use xlink:href="#DejaVuSans-2e" transform="translate(63.623047 0)"/>
       <use xlink:href="#DejaVuSans-30" transform="translate(95.410156 0)"/>
       <use xlink:href="#DejaVuSans-30" transform="translate(159.033203 0)"/>
      </g>
     </g>
    </g>
    <g id="ytick_5">
     <g id="line2d_25">
      <path d="M 62.3 172 
L 709.2 172 
" clip-path="url(#p721ca9db07)" style="fill: none; stroke-dasharray: 2.96,1.28; stroke-dashoffset: 0; stroke: #b0b0b0; stroke-opacity: 0.5; stroke-width: 0.8"/>
     </g>
     <g id="line2d_26">
      <g>
       <use xlink:href="#m8764626d55" x="62.3" y="172" style="stroke: #000000; stroke-width: 0.8"/>
      </g>
     </g>
     <g id="text_14">
      <!-- 0.25 -->
      <g transform="translate(33.034375 175.799219) scale(0.1 -0.1)">
       <use xlink:href="#DejaVuSans-30"/>
       <use xlink:href="#DejaVuSans-2e" transform="translate(63.623047 0)"/>
       <use xlink:href="#DejaVuSans-32" transform="translate(95.410156 0)"/>
       <use xlink:href="#DejaVuSans-35" transform="translate(159.033203 0)"/>
      </g>
     </g>
    </g>
    <g id="ytick_6">
     <g id="line2d_27">
      <path d="M 62.3 124.25 
L 709.2 124.25 
" clip-path="url(#p721ca9db07)" style="fill: none; stroke-dasharray: 2.96,1.28; stroke-dashoffset: 0; stroke: #b0b0b0; stroke-opacity: 0.5; stroke-width: 0.8"/>
     </g>
     <g id="line2d_28">
      <g>
       <use xlink:href="#m8764626d55" x="62.3" y="124.25" style="stroke: #000000; stroke-width: 0.8"/>
      </g>
     </g>
     <g id="text_15">
      <!-- 0.50 -->
      <g transform="translate(33.034375 128.049219) scale(0.1 -0.1)">
       <use xlink:href="#DejaVuSans-30"/>
       <use xlink:href="#DejaVuSans-2e" transform="translate(63.623047 0)"/>
       <use xlink:href="#DejaVuSans-35" transform="translate(95.410156 0)"/>
       <use xlink:href="#DejaVuSans-30" transform="translate(159.033203 0)"/>
      </g>
     </g>
    </g>
    <g id="ytick_7">
     <g id="line2d_29">
      <path d="M 62.3 76.5 
L 709.2 76.5 
" clip-path="url(#p721ca9db07)" style="fill: none; stroke-dasharray: 2.96,1.28; stroke-dashoffset: 0; stroke: #b0b0b0; stroke-opacity: 0.5; stroke-width: 0.8"/>
     </g>
     <g id="line2d_30">
      <g>
       <use xlink:href="#m8764626d55" x="62.3" y="76.5" style="stroke: #000000; stroke-width: 0.8"/>
      </g>
     </g>
     <g id="text_16">
      <!-- 0.75 -->
      <g transform="translate(33.034375 80.299219) scale(0.1 -0.1)">
       <use xlink:href="#DejaVuSans-30"/>
       <use xlink:href="#DejaVuSans-2e" transform="translate(63.623047 0)"/>
       <use xlink:href="#DejaVuSans-37" transform="translate(95.410156 0)"/>
       <use xlink:href="#DejaVuSans-35" transform="translate(159.033203 0)"/>
      </g>
     </g>
    </g>
    <g id="ytick_8">
     <g id="line2d_31">
      <path d="M 62.3 28.5 
L 709.2 28.5 
" clip-path="url(#p721ca9db07)" style="fill: none; stroke-dasharray: 2.96,1.28; stroke-dashoffset: 0; stroke: #b0b0b0; stroke-opacity: 0.5; stroke-width: 0.8"/>
     </g>
     <g id="line2d_32">
      <g>
       <use xlink:href="#m8764626d55" x="62.3" y="28.5" style="stroke: #000000; stroke-width: 0.8"/>
      </g>
     </g>
     <g id="text_17">
      <!-- 1.00 -->
      <g transform="translate(33.034375 32.299219) scale(0.1 -0.1)">
       <use xlink:href="#DejaVuSans-31"/>
       <use xlink:href="#DejaVuSans-2e" transform="translate(63.623047 0)"/>
       <use xlink:href="#DejaVuSans-30" transform="translate(95.410156 0)"/>
       <use xlink:href="#DejaVuSans-30" transform="translate(159.033203 0)"/>
      </g>
     </g>
    </g>
    <g id="text_18">
     <!-- Separation [km] -->
     <g transform="translate(18.575 248.902187) rotate(-90) scale(0.1 -0.1)">
      <defs>
       <path id="DejaVuSans-53" d="M 3425 4513 
L 3425 3897 
Q 3066 4069 2747 4153 
Q 2428 4238 2131 4238 
Q 1616 4238 1336 4038 
Q 1056 3838 1056 3469 
Q 1056 3159 1242 3001 
Q 1428 2844 1947 2747 
L 2328 2669 
Q 3034 2534 3370 2195 
Q 3706 1856 3706 1288 
Q 3706 609 3251 259 
Q 2797 -91 1919 -91 
Q 1588 -91 1214 -16 
Q 841 59 441 206 
L 441 856 
Q 825 641 1194 531 
Q 1563 422 1919 422 
Q 2459 422 2753 634 
Q 3047 847 3047 1241 
Q 3047 1584 2836 1778 
Q 2625 1972 2144 2069 
L 1759 2144 
Q 1053 2284 737 2584 
Q 422 2884 422 3419 
Q 422 4038 858 4394 
Q 1294 4750 2059 4750 
Q 2388 4750 2728 4690 
Q 3069 4631 3425 4513 
z
" transform="scale(0.015625)"/>
       <path id="DejaVuSans-70" d="M 1159 525 
L 1159 -1331 
L 581 -1331 
L 581 3500 
L 1159 3500 
L 1159 2969 
Q 1341 3281 1617 3432 
Q 1894 3584 2278 3584 
Q 2916 3584 3314 3078 
Q 3713 2572 3713 1747 
Q 3713 922 3314 415 
Q 2916 -91 2278 -91 
Q 1894 -91 1617 61 
Q 1341 213 1159 525 
z
M 3116 1747 
Q 3116 2381 2855 2742 
Q 2594 3103 2138 3103 
Q 1681 3103 1420 2742 
Q 1159 2381 1159 1747 
Q 1159 1113 1420 752 
Q 1681 391 2138 391 
Q 2594 391 2855 752 
Q 3116 1113 3116 1747 
z
" transform="scale(0.015625)"/>
       <path id="DejaVuSans-61" d="M 2194 1759 
Q 1497 1759 1228 1600 
Q 959 1441 959 1056 
Q 959 750 1161 570 
Q 1363 391 1709 391 
Q 2188 391 2477 730 
Q 2766 1069 2766 1631 
L 2766 1759 
L 2194 1759 
z
M 3341 1997 
L 3341 0 
L 2766 0 
L 2766 531 
Q 2569 213 2275 61 
Q 1981 -91 1556 -91 
Q 1019 -91 701 211 
Q 384 513 384 1019 
Q 384 1609 779 1909 
Q 1175 2209 1959 2209 
L 2766 2209 
L 2766 2266 
Q 2766 2663 2505 2880 
Q 2244 3097 1772 3097 
Q 1472 3097 1187 3025 
Q 903 2953 641 2809 
L 641 3341 
Q 956 3463 1253 3523 
Q 1550 3584 1831 3584 
Q 2591 3584 2966 3190 
Q 3341 2797 3341 1997 
z
" transform="scale(0.015625)"/>
       <path id="DejaVuSans-72" d="M 2631 2963 
Q 2534 3019 2420 3045 
Q 2306 3072 2169 3072 
Q 1681 3072 1420 2755 
Q 1159 2438 1159 1844 
L 1159 0 
L 581 0 
L 581 3500 
L 1159 3500 
L 1159 2956 
Q 1341 3275 1631 3429 
Q 1922 3584 2338 3584 
Q 2397 3584 2469 3576 
Q 2541 3569 2628 3553 
L 2631 2963 
z
" transform="scale(0.015625)"/>
       <path id="DejaVuSans-6e" d="M 3513 2113 
L 3513 0 
L 2938 0 
L 2938 2094 
Q 2938 2591 2744 2837 
Q 2550 3084 2163 3084 
Q 1697 3084 1428 2787 
Q 1159 2491 1159 1978 
L 1159 0 
L 581 0 
L 581 3500 
L 1159 3500 
L 1159 2956 
Q 1366 3272 1645 3428 
Q 1925 3584 2291 3584 
Q 2894 3584 3203 3211 
Q 3513 2838 3513 2113 
z
" transform="scale(0.015625)"/>
       <path id="DejaVuSans-6b" d="M 581 4863 
L 1159 4863 
L 1159 1991 
L 2875 3500 
L 3609 3500 
L 1753 1863 
L 3688 0 
L 2938 0 
L 1159 1709 
L 1159 0 
L 581 0 
L 581 4863 
z
" transform="scale(0.015625)"/>
      </defs>
      <use xlink:href="#DejaVuSans-53"/>
      <use xlink:href="#DejaVuSans-65" transform="translate(63.476562 0)"/>
      <use xlink:href="#DejaVuSans-70" transform="translate(125 0)"/>
      <use xlink:href="#DejaVuSans-61" transform="translate(188.476562 0)"/>
      <use xlink:href="#DejaVuSans-72" transform="translate(249.755859 0)"/>
      <use xlink:href="#DejaVuSans-61" transform="translate(290.869141 0)"/>
      <use xlink:href="#DejaVuSans-74" transform="translate(352.148438 0)"/>
      <use xlink:href="#DejaVuSans-69" transform="translate(391.357422 0)"/>
      <use xlink:href="#DejaVuSans-6f" transform="translate(419.140625 0)"/>
      <use xlink:href="#DejaVuSans-6e" transform="translate(480.322266 0)"/>
      <use xlink:href="#DejaVuSans-20" transform="translate(543.701172 0)"/>
      <use xlink:href="#DejaVuSans-5b" transform="translate(575.488281 0)"/>
      <use xlink:href="#DejaVuSans-6b" transform="translate(614.501953 0)"/>
      <use xlink:href="#DejaVuSans-6d" transform="translate(672.412109 0)"/>
      <use xlink:href="#DejaVuSans-5d" transform="translate(769.824219 0)"/>
     </g>
    </g>
    <g id="text_19">
     <!-- 1e−12+6 -->
     <g transform="translate(62.3 23.88) scale(0.1 -0.1)">
      <defs>
       <path id="DejaVuSans-2b" d="M 2944 4013 
L 2944 2272 
L 4684 2272 
L 4684 1741 
L 2944 1741 
L 2944 0 
L 2419 0 
L 2419 1741 
L 678 1741 
L 678 2272 
L 2419 2272 
L 2419 4013 
L 2944 4013 
z
" transform="scale(0.015625)"/>
       <path id="DejaVuSans-36" d="M 2113 2584 
Q 1688 2584 1439 2293 
Q 1191 2003 1191 1497 
Q 1191 994 1439 701 
Q 1688 409 2113 409 
Q 2538 409 2786 701 
Q 3034 994 3034 1497 
Q 3034 2003 2786 2293 
Q 2538 2584 2113 2584 
z
M 3366 4563 
L 3366 3988 
Q 3128 4100 2886 4159 
Q 2644 4219 2406 4219 
Q 1781 4219 1451 3797 
Q 1122 3375 1075 2522 
Q 1259 2794 1537 2939 
Q 1816 3084 2150 3084 
Q 2853 3084 3261 2657 
Q 3669 2231 3669 1497 
Q 3669 778 3244 343 
Q 2819 -91 2113 -91 
Q 1303 -91 875 529 
Q 447 1150 447 2328 
Q 447 3434 972 4092 
Q 1497 4750 2381 4750 
Q 2619 4750 2861 4703 
Q 3103 4656 3366 4563 
z
" transform="scale(0.015625)"/>
      </defs>
      <use xlink:href="#DejaVuSans-31"/>
      <use xlink:href="#DejaVuSans-65" transform="translate(63.623047 0)"/>
      <use xlink:href="#DejaVuSans-2212" transform="translate(125.146484 0)"/>
      <use xlink:href="#DejaVuSans-31" transform="translate(208.935547 0)"/>
      <use xlink:href="#DejaVuSans-32" transform="translate(272.558594 0)"/>
      <use xlink:href="#DejaVuSans-2b" transform="translate(336.181641 0)"/>
      <use xlink:href="#DejaVuSans-36" transform="translate(419.970703 0)"/>
     </g>
    </g>
   </g>
   <g id="line2d_33">
    <path d="M 91.704545 242 
L 94.971717 271.5 
L 98.238889 326.25 
L 101.506061 162.75 
L 104.773232 204.25 
L 108.040404 286 
L 111.307576 293.5 
L 114.574747 249.5 
L 117.841919 287 
L 121.109091 226.25 
L 124.376263 144.5 
L 127.643434 300.75 
L 130.910606 128.75 
L 134.177778 235.5 
L 137.444949 283.25 
L 140.712121 274.25 
L 143.979293 199 
L 147.246465 155.5 
L 150.513636 212.25 
L 153.780808 149.75 
L 157.04798 228.75 
L 160.315152 233.5 
L 163.582323 294.5 
L 166.849495 311.25 
L 170.116667 155 
L 173.383838 256.5 
L 176.65101 283.5 
L 179.918182 233 
L 183.185354 210.75 
L 186.452525 257.25 
L 189.719697 209.5 
L 192.986869 305 
L 196.25404 253 
L 199.521212 217.75 
L 202.788384 179.75 
L 206.055556 276.5 
L 209.322727 166 
L 212.589899 132.5 
L 215.857071 203.25 
L 219.124242 195.75 
L 222.391414 159.75 
L 225.658586 230.75 
L 228.925758 162 
L 232.192929 261 
L 235.460101 258 
L 238.727273 212.25 
L 241.994444 146.5 
L 245.261616 244.75 
L 248.528788 259.5 
L 251.79596 247.25 
L 255.063131 281.25 
L 258.330303 222.25 
L 261.597475 213.75 
L 264.864646 191 
L 268.131818 248 
L 271.39899 171 
L 274.666162 173.75 
L 277.933333 269.5 
L 281.200505 320.25 
L 284.467677 137.75 
L 287.734848 262.75 
L 294.269192 137.75 
L 297.536364 179.25 
L 300.803535 247.25 
L 304.070707 240 
L 307.337879 164.25 
L 310.605051 106.25 
L 313.872222 248.75 
L 317.139394 160.75 
L 320.406566 158.75 
L 323.673737 294 
L 326.940909 290.75 
L 330.208081 242 
L 333.475253 315.75 
L 336.742424 218 
L 340.009596 189.5 
L 343.276768 182.25 
L 346.543939 259 
L 349.811111 194.75 
L 353.078283 226 
L 356.345455 126.75 
L 359.612626 246 
L 362.879798 168.75 
L 366.14697 179.5 
L 369.414141 289 
L 372.681313 175.25 
L 375.948485 169.75 
L 379.215657 231.75 
L 382.482828 270 
L 385.75 169 
L 389.017172 193 
L 392.284343 193.25 
L 395.551515 217.25 
L 398.818687 152.5 
L 402.085859 224.75 
L 405.35303 251 
L 408.620202 349 
L 411.887374 191.75 
L 415.154545 290 
L 418.421717 172.25 
L 421.688889 316 
L 424.956061 214 
L 428.223232 162.5 
L 431.490404 224.5 
L 434.757576 306.25 
L 438.024747 218 
L 441.291919 188 
L 444.559091 205.25 
L 447.826263 281.75 
L 451.093434 192.75 
L 454.360606 160.25 
L 457.627778 182 
L 460.894949 294 
L 464.162121 166 
L 467.429293 236.5 
L 470.696465 279 
L 473.963636 265.25 
L 477.230808 249 
L 480.49798 277 
L 483.765152 85.5 
L 487.032323 173.75 
L 490.299495 351 
L 493.566667 256.25 
L 496.833838 277 
L 500.10101 151.75 
L 503.368182 231.25 
L 506.635354 217.5 
L 509.902525 199.5 
L 513.169697 204.75 
L 516.436869 171.75 
L 519.70404 291 
L 522.971212 264.25 
L 526.238384 269.75 
L 529.505556 311 
L 532.772727 165.75 
L 536.039899 188.5 
L 539.307071 258 
L 542.574242 304 
L 545.841414 168.75 
L 549.108586 178.75 
L 552.375758 367.5 
L 555.642929 113 
L 558.910101 210.75 
L 562.177273 252.25 
L 565.444444 130.75 
L 568.711616 311.25 
L 571.978788 106 
L 575.24596 216.75 
L 578.513131 212.75 
L 581.780303 101 
L 585.047475 189.5 
L 588.314646 217.75 
L 591.581818 226.75 
L 594.84899 152.75 
L 598.116162 252.25 
L 601.383333 214.25 
L 604.650505 260.5 
L 607.917677 178.75 
L 611.184848 175 
L 614.45202 136.25 
L 617.719192 234 
L 620.986364 188 
L 624.253535 169.25 
L 627.520707 265.75 
L 630.787879 229.75 
L 634.055051 115 
L 637.322222 159.25 
L 640.589394 163.5 
L 643.856566 199 
L 647.123737 167 
L 650.390909 372.25 
L 653.658081 195.25 
L 656.925253 293.25 
L 660.192424 278.75 
L 663.459596 276.5 
L 666.726768 250.5 
L 669.993939 214.25 
L 673.261111 206.25 
L 676.528283 90 
L 679.795455 282.25 
L 679.795455 282.25 
" clip-path="url(#p721ca9db07)" style="fill: none; stroke: #1f77b4; stroke-width: 1.5; stroke-linecap: square"/>
   </g>
   <g id="line2d_34">
    <path d="M 91.704545 314 
L 94.971717 215 
L 98.238889 179.25 
L 101.506061 244.5 
L 104.773232 181.5 
L 108.040404 196 
L 111.307576 238.75 
L 114.574747 83.25 
L 117.841919 173 
L 121.109091 226.75 
L 124.376263 173.5 
L 127.643434 157.75 
L 130.910606 253 
L 134.177778 200.75 
L 137.444949 198.5 
L 140.712121 196 
L 143.979293 207 
L 150.513636 277.5 
L 153.780808 238.75 
L 157.04798 237.25 
L 160.315152 248.75 
L 163.582323 271 
L 166.849495 249.25 
L 170.116667 201.75 
L 173.383838 237.5 
L 176.65101 219 
L 179.918182 163.75 
L 183.185354 195 
L 186.452525 167.75 
L 189.719697 180.5 
L 192.986869 225.75 
L 196.25404 296 
L 199.521212 287.25 
L 202.788384 260 
L 206.055556 135.75 
L 209.322727 199 
L 212.589899 212.25 
L 215.857071 175.25 
L 219.124242 239.25 
L 222.391414 310.75 
L 225.658586 172 
L 228.925758 274.25 
L 232.192929 222.25 
L 235.460101 209.75 
L 238.727273 147.75 
L 241.994444 184.25 
L 245.261616 216 
L 248.528788 290.25 
L 251.79596 273.75 
L 255.063131 216 
L 258.330303 256.75 
L 261.597475 177.75 
L 264.864646 207.75 
L 268.131818 234.5 
L 271.39899 163.75 
L 274.666162 247.75 
L 277.933333 142.25 
L 281.200505 225 
L 284.467677 204.25 
L 287.734848 215.5 
L 291.00202 243.5 
L 294.269192 247 
L 297.536364 284.75 
L 300.803535 207.5 
L 304.070707 178.25 
L 307.337879 291 
L 310.605051 294.5 
L 313.872222 177.5 
L 317.139394 269.5 
L 320.406566 315 
L 323.673737 265.75 
L 326.940909 190 
L 330.208081 250 
L 333.475253 280.5 
L 336.742424 249.25 
L 340.009596 211 
L 343.276768 185.75 
L 346.543939 173.75 
L 349.811111 237.75 
L 353.078283 218 
L 356.345455 156.25 
L 359.612626 311 
L 362.879798 253.5 
L 366.14697 244.5 
L 369.414141 286 
L 372.681313 225.5 
L 375.948485 281 
L 379.215657 126.25 
L 382.482828 239.25 
L 385.75 127.25 
L 389.017172 191 
L 392.284343 261.75 
L 395.551515 243.5 
L 398.818687 227 
L 402.085859 199.75 
L 405.35303 222.25 
L 408.620202 234.5 
L 411.887374 267 
L 418.421717 131 
L 421.688889 199.5 
L 424.956061 159 
L 428.223232 186.25 
L 431.490404 140.25 
L 434.757576 225.25 
L 438.024747 222.25 
L 441.291919 199 
L 444.559091 305.25 
L 447.826263 155 
L 451.093434 256.25 
L 454.360606 237 
L 457.627778 167.5 
L 460.894949 244.25 
L 464.162121 290.5 
L 467.429293 301.5 
L 470.696465 282.25 
L 473.963636 219.75 
L 477.230808 227 
L 480.49798 156.5 
L 483.765152 193.25 
L 487.032323 194.75 
L 490.299495 109.25 
L 493.566667 368 
L 496.833838 265 
L 500.10101 266 
L 503.368182 293.5 
L 506.635354 249.5 
L 509.902525 187.5 
L 513.169697 164.5 
L 516.436869 133.75 
L 519.70404 145.25 
L 522.971212 273 
L 526.238384 299.75 
L 529.505556 353 
L 532.772727 217.5 
L 536.039899 246.25 
L 539.307071 248 
L 542.574242 271.25 
L 545.841414 43.5 
L 549.108586 175.25 
L 552.375758 262 
L 555.642929 270 
L 558.910101 303.5 
L 565.444444 121.75 
L 568.711616 326.25 
L 571.978788 57 
L 575.24596 290.25 
L 578.513131 214.25 
L 581.780303 183.25 
L 585.047475 177.25 
L 588.314646 134.25 
L 591.581818 286.5 
L 594.84899 264.25 
L 598.116162 300 
L 601.383333 308.25 
L 604.650505 150.25 
L 607.917677 228.25 
L 611.184848 145.5 
L 614.45202 257.5 
L 617.719192 220.75 
L 620.986364 242.5 
L 624.253535 53.5 
L 627.520707 118.25 
L 630.787879 233.5 
L 634.055051 162.75 
L 637.322222 276.5 
L 640.589394 218.75 
L 643.856566 305 
L 647.123737 250.5 
L 650.390909 274 
L 653.658081 160.25 
L 656.925253 220.75 
L 660.192424 271.5 
L 663.459596 344.5 
L 666.726768 159.25 
L 669.993939 302.25 
L 673.261111 160.75 
L 676.528283 248.25 
L 679.795455 331.5 
L 679.795455 331.5 
" clip-path="url(#p721ca9db07)" style="fill: none; stroke: #ff7f0e; stroke-width: 1.5; stroke-linecap: square"/>
   </g>
   <g id="line2d_35">
    <path d="M 91.704545 292.25 
L 94.971717 333.5 
L 98.238889 309.25 
L 101.506061 204.75 
L 104.773232 241.75 
L 108.040404 174 
L 111.307576 192 
L 114.574747 169.5 
L 117.841919 252.75 
L 121.109091 295.5 
L 124.376263 213.5 
L 127.643434 151.75 
L 130.910606 185.25 
L 134.177778 49.25 
L 137.444949 308.5 
L 140.712121 314.5 
L 143.979293 208.5 
L 147.246465 199.75 
L 150.513636 200.5 
L 153.780808 208 
L 157.04798 268.5 
L 160.315152 320.5 
L 163.582323 369.75 
L 166.849495 322 
L 170.116667 131.75 
L 173.383838 340 
L 176.65101 198.75 
L 179.918182 180.5 
L 183.185354 172 
L 186.452525 279.5 
L 189.719697 165.25 
L 192.986869 229 
L 196.25404 267.25 
L 199.521212 284.25 
L 202.788384 371.75 
L 206.055556 308.75 
L 209.322727 162 
L 212.589899 187.5 
L 215.857071 198.25 
L 219.124242 78.75 
L 222.391414 117.5 
L 225.658586 122.25 
L 228.925758 200 
L 232.192929 262.5 
L 235.460101 182 
L 238.727273 206 
L 241.994444 122.25 
L 245.261616 133.75 
L 248.528788 343.25 
L 251.79596 199 
L 255.063131 89 
L 258.330303 300.75 
L 261.597475 114.25 
L 264.864646 290.25 
L 268.131818 232.5 
L 271.39899 137.25 
L 274.666162 202.25 
L 277.933333 238.75 
L 281.200505 227.75 
L 284.467677 78.25 
L 287.734848 245.75 
L 291.00202 247.25 
L 294.269192 312.75 
L 297.536364 222.5 
L 300.803535 194.25 
L 304.070707 272 
L 307.337879 279 
L 310.605051 212.75 
L 313.872222 159.75 
L 317.139394 262 
L 320.406566 187.75 
L 323.673737 370.75 
L 326.940909 260 
L 330.208081 214.5 
L 333.475253 331.5 
L 336.742424 203.25 
L 340.009596 232.75 
L 343.276768 112.25 
L 346.543939 344.5 
L 349.811111 93 
L 353.078283 270.5 
L 356.345455 155.5 
L 359.612626 277 
L 362.879798 195.25 
L 366.14697 187 
L 369.414141 273.25 
L 372.681313 153.5 
L 375.948485 304 
L 379.215657 184.5 
L 382.482828 369.75 
L 385.75 109.75 
L 389.017172 77 
L 392.284343 129.75 
L 395.551515 373.75 
L 398.818687 74.5 
L 402.085859 108 
L 405.35303 241.75 
L 408.620202 246 
L 411.887374 282 
L 415.154545 259.5 
L 418.421717 105.75 
L 421.688889 163.25 
L 424.956061 135.5 
L 428.223232 267 
L 431.490404 190.75 
L 434.757576 301.25 
L 438.024747 281 
L 441.291919 261.5 
L 444.559091 265.25 
L 447.826263 120.75 
L 451.093434 309.25 
L 454.360606 104.25 
L 457.627778 193.75 
L 460.894949 333.5 
L 464.162121 274.25 
L 467.429293 351.5 
L 470.696465 262.5 
L 473.963636 264.75 
L 477.230808 147 
L 480.49798 84.5 
L 487.032323 254.25 
L 490.299495 165.25 
L 493.566667 328.5 
L 496.833838 195 
L 500.10101 106.75 
L 503.368182 202.75 
L 506.635354 306.5 
L 509.902525 341 
L 513.169697 231.25 
L 516.436869 131.75 
L 519.70404 261 
L 522.971212 343.75 
L 526.238384 282.75 
L 529.505556 251 
L 532.772727 103 
L 536.039899 63.5 
L 539.307071 224 
L 542.574242 89 
L 545.841414 143.5 
L 549.108586 113.25 
L 552.375758 254.75 
L 555.642929 208.75 
L 558.910101 129 
L 562.177273 200.75 
L 565.444444 212 
L 568.711616 229 
L 571.978788 85.5 
L 575.24596 178.75 
L 578.513131 140.25 
L 581.780303 125.25 
L 585.047475 247.75 
L 588.314646 153 
L 591.581818 223.5 
L 594.84899 165.75 
L 598.116162 264.25 
L 601.383333 309.25 
L 604.650505 119.75 
L 607.917677 266 
L 611.184848 251 
L 614.45202 227 
L 617.719192 83.75 
L 620.986364 239 
L 624.253535 139.75 
L 627.520707 223.5 
L 630.787879 251 
L 634.055051 120 
L 637.322222 200 
L 640.589394 249.25 
L 643.856566 231.75 
L 647.123737 300.25 
L 650.390909 272.5 
L 653.658081 254 
L 656.925253 247 
L 660.192424 62.25 
L 663.459596 283.5 
L 666.726768 256.25 
L 669.993939 281.75 
L 673.261111 246 
L 676.528283 233 
L 679.795455 297.25 
L 679.795455 297.25 
" clip-path="url(#p721ca9db07)" style="fill: none; stroke: #2ca02c; stroke-width: 1.5; stroke-linecap: square"/>
   </g>
   <g id="patch_3">
    <path d="M 62.3 390.25 
L 62.3 27 
" style="fill: none; stroke: #000000; stroke-width: 0.8; stroke-linejoin: miter; stroke-linecap: square"/>
   </g>
   <g id="patch_4">
    <path d="M 709.2 390.25 
L 709.2 27 
" style="fill: none; stroke: #000000; stroke-width: 0.8; stroke-linejoin: miter; stroke-linecap: square"/>
   </g>
   <g id="patch_5">
    <path d="M 62.3 390.04 
L 709.2 390.04 
" style="fill: none; stroke: #000000; stroke-width: 0.8; stroke-linejoin: miter; stroke-linecap: square"/>
   </g>
   <g id="patch_6">
    <path d="M 62.3 26.88 
L 709.2 26.88 
" style="fill: none; stroke: #000000; stroke-width: 0.8; stroke-linejoin: miter; stroke-linecap: square"/>
   </g>
   <g id="text_20">
    <!-- Inter-satellite separation during access window -->
    <g transform="translate(244.088125 20.88) scale(0.12 -0.12)">
     <defs>
      <path id="DejaVuSans-49" d="M 628 4666 
L 1259 4666 
L 1259 0 
L 628 0 
L 628 4666 
z
" transform="scale(0.015625)"/>
      <path id="DejaVuSans-2d" d="M 313 2009 
L 1997 2009 
L 1997 1497 
L 313 1497 
L 313 2009 
z
" transform="scale(0.015625)"/>
      <path id="DejaVuSans-6c" d="M 603 4863 
L 1178 4863 
L 1178 0 
L 603 0 
L 603 4863 
z
" transform="scale(0.015625)"/>
      <path id="DejaVuSans-64" d="M 2906 2969 
L 2906 4863 
L 3481 4863 
L 3481 0 
L 2906 0 
L 2906 525 
Q 2725 213 2448 61 
Q 2172 -91 1784 -91 
Q 1150 -91 751 415 
Q 353 922 353 1747 
Q 353 2572 751 3078 
Q 1150 3584 1784 3584 
Q 2172 3584 2448 3432 
Q 2725 3281 2906 2969 
z
M 947 1747 
Q 947 1113 1208 752 
Q 1469 391 1925 391 
Q 2381 391 2643 752 
Q 2906 1113 2906 1747 
Q 2906 2381 2643 2742 
Q 2381 3103 1925 3103 
Q 1469 3103 1208 2742 
Q 947 2381 947 1747 
z
" transform="scale(0.015625)"/>
      <path id="DejaVuSans-75" d="M 544 1381 
L 544 3500 
L 1119 3500 
L 1119 1403 
Q 1119 906 1312 657 
Q 1506 409 1894 409 
Q 2359 409 2629 706 
Q 2900 1003 2900 1516 
L 2900 3500 
L 3475 3500 
L 3475 0 
L 2900 0 
L 2900 538 
Q 2691 219 2414 64 
Q 2138 -91 1772 -91 
Q 1169 -91 856 284 
Q 544 659 544 1381 
z
M 1991 3584 
L 1991 3584 
z
" transform="scale(0.015625)"/>
      <path id="DejaVuSans-67" d="M 2906 1791 
Q 2906 2416 2648 2759 
Q 2391 3103 1925 3103 
Q 1463 3103 1205 2759 
Q 947 2416 947 1791 
Q 947 1169 1205 825 
Q 1463 481 1925 481 
Q 2391 481 2648 825 
Q 2906 1169 2906 1791 
z
M 3481 434 
Q 3481 -459 3084 -895 
Q 2688 -1331 1869 -1331 
Q 1566 -1331 1297 -1286 
Q 1028 -1241 775 -1147 
L 775 -588 
Q 1028 -725 1275 -790 
Q 1522 -856 1778 -856 
Q 2344 -856 2625 -561 
Q 2906 -266 2906 331 
L 2906 616 
Q 2728 306 2450 153 
Q 2172 0 1784 0 
Q 1141 0 747 490 
Q 353 981 353 1791 
Q 353 2603 747 3093 
Q 1141 3584 1784 3584 
Q 2172 3584 2450 3431 
Q 2728 3278 2906 2969 
L 2906 3500 
L 3481 3500 
L 3481 434 
z
" transform="scale(0.015625)"/>
      <path id="DejaVuSans-63" d="M 3122 3366 
L 3122 2828 
Q 2878 2963 2633 3030 
Q 2388 3097 2138 3097 
Q 1578 3097 1268 2742 
Q 959 2388 959 1747 
Q 959 1106 1268 751 
Q 1578 397 2138 397 
Q 2388 397 2633 464 
Q 2878 531 3122 666 
L 3122 134 
Q 2881 22 2623 -34 
Q 2366 -91 2075 -91 
Q 1284 -91 818 406 
Q 353 903 353 1747 
Q 353 2603 823 3093 
Q 1294 3584 2113 3584 
Q 2378 3584 2631 3529 
Q 2884 3475 3122 3366 
z
" transform="scale(0.015625)"/>
      <path id="DejaVuSans-77" d="M 269 3500 
L 844 3500 
L 1563 769 
L 2278 3500 
L 2956 3500 
L 3675 769 
L 4391 3500 
L 4966 3500 
L 4050 0 
L 3372 0 
L 2619 2869 
L 1863 0 
L 1184 0 
L 269 3500 
z
" transform="scale(0.015625)"/>
     </defs>
     <use xlink:href="#DejaVuSans-49"/>
     <use xlink:href="#DejaVuSans-6e" transform="translate(29.492188 0)"/>
     <use xlink:href="#DejaVuSans-74" transform="translate(92.871094 0)"/>
     <use xlink:href="#DejaVuSans-65" transform="translate(132.080078 0)"/>
     <use xlink:href="#DejaVuSans-72" transform="translate(193.603516 0)"/>
     <use xlink:href="#DejaVuSans-2d" transform="translate(228.341797 0)"/>
     <use xlink:href="#DejaVuSans-73" transform="translate(264.425781 0)"/>
     <use xlink:href="#DejaVuSans-61" transform="translate(316.525391 0)"/>
     <use xlink:href="#DejaVuSans-74" transform="translate(377.804688 0)"/>
     <use xlink:href="#DejaVuSans-65" transform="translate(417.013672 0)"/>
     <use xlink:href="#DejaVuSans-6c" transform="translate(478.537109 0)"/>
     <use xlink:href="#DejaVuSans-6c" transform="translate(506.320312 0)"/>
     <use xlink:href="#DejaVuSans-69" transform="translate(534.103516 0)"/>
     <use xlink:href="#DejaVuSans-74" transform="translate(561.886719 0)"/>
     <use xlink:href="#DejaVuSans-65" transform="translate(601.095703 0)"/>
     <use xlink:href="#DejaVuSans-20" transform="translate(662.619141 0)"/>
     <use xlink:href="#DejaVuSans-73" transform="translate(694.40625 0)"/>
     <use xlink:href="#DejaVuSans-65" transform="translate(746.505859 0)"/>
     <use xlink:href="#DejaVuSans-70" transform="translate(808.029297 0)"/>
     <use xlink:href="#DejaVuSans-61" transform="translate(871.505859 0)"/>
     <use xlink:href="#DejaVuSans-72" transform="translate(932.785156 0)"/>
     <use xlink:href="#DejaVuSans-61" transform="translate(973.898438 0)"/>
     <use xlink:href="#DejaVuSans-74" transform="translate(1035.177734 0)"/>
     <use xlink:href="#DejaVuSans-69" transform="translate(1074.386719 0)"/>
     <use xlink:href="#DejaVuSans-6f" transform="translate(1102.169922 0)"/>
     <use xlink:href="#DejaVuSans-6e" transform="translate(1163.351562 0)"/>
     <use xlink:href="#DejaVuSans-20" transform="translate(1226.730469 0)"/>
     <use xlink:href="#DejaVuSans-64" transform="translate(1258.517578 0)"/>
     <use xlink:href="#DejaVuSans-75" transform="translate(1321.994141 0)"/>
     <use xlink:href="#DejaVuSans-72" transform="translate(1385.373047 0)"/>
     <use xlink:href="#DejaVuSans-69" transform="translate(1426.486328 0)"/>
     <use xlink:href="#DejaVuSans-6e" transform="translate(1454.269531 0)"/>
     <use xlink:href="#DejaVuSans-67" transform="translate(1517.648438 0)"/>
     <use xlink:href="#DejaVuSans-20" transform="translate(1581.125 0)"/>
     <use xlink:href="#DejaVuSans-61" transform="translate(1612.912109 0)"/>
     <use xlink:href="#DejaVuSans-63" transform="translate(1674.191406 0)"/>
     <use xlink:href="#DejaVuSans-63" transform="translate(1729.171875 0)"/>
     <use xlink:href="#DejaVuSans-65" transform="translate(1784.152344 0)"/>
     <use xlink:href="#DejaVuSans-73" transform="translate(1845.675781 0)"/>
     <use xlink:href="#DejaVuSans-73" transform="translate(1897.775391 0)"/>
     <use xlink:href="#DejaVuSans-20" transform="translate(1949.875 0)"/>
     <use xlink:href="#DejaVuSans-77" transform="translate(1981.662109 0)"/>
     <use xlink:href="#DejaVuSans-69" transform="translate(2063.449219 0)"/>
     <use xlink:href="#DejaVuSans-6e" transform="translate(2091.232422 0)"/>
     <use xlink:href="#DejaVuSans-64" transform="translate(2154.611328 0)"/>
     <use xlink:href="#DejaVuSans-6f" transform="translate(2218.087891 0)"/>
     <use xlink:href="#DejaVuSans-77" transform="translate(2279.269531 0)"/>
    </g>
   </g>
   <g id="legend_1">
    <g id="patch_7">
     <path d="M 69.3 78.914375 
L 161.834375 78.914375 
Q 163.834375 78.914375 163.834375 76.914375 
L 163.834375 33.88 
Q 163.834375 31.88 161.834375 31.88 
L 69.3 31.88 
Q 67.3 31.88 67.3 33.88 
L 67.3 76.914375 
Q 67.3 78.914375 69.3 78.914375 
z
" style="fill: #ffffff; opacity: 0.8; stroke: #cccccc; stroke-linejoin: miter"/>
    </g>
    <g id="line2d_36">
     <path d="M 71.3 39.978437 
L 81.3 39.978437 
L 91.3 39.978437 
" style="fill: none; stroke: #1f77b4; stroke-width: 1.5; stroke-linecap: square"/>
    </g>
    <g id="text_21">
     <!-- SAT-1–SAT-2 -->
     <g transform="translate(99.3 43.478437) scale(0.1 -0.1)">
      <defs>
       <path id="DejaVuSans-41" d="M 2188 4044 
L 1331 1722 
L 3047 1722 
L 2188 4044 
z
M 1831 4666 
L 2547 4666 
L 4325 0 
L 3669 0 
L 3244 1197 
L 1141 1197 
L 716 0 
L 50 0 
L 1831 4666 
z
" transform="scale(0.015625)"/>
       <path id="DejaVuSans-2013" d="M 313 1978 
L 2888 1978 
L 2888 1528 
L 313 1528 
L 313 1978 
z
" transform="scale(0.015625)"/>
      </defs>
      <use xlink:href="#DejaVuSans-53"/>
      <use xlink:href="#DejaVuSans-41" transform="translate(65.351562 0)"/>
      <use xlink:href="#DejaVuSans-54" transform="translate(126.009766 0)"/>
      <use xlink:href="#DejaVuSans-2d" transform="translate(177.96875 0)"/>
      <use xlink:href="#DejaVuSans-31" transform="translate(214.052734 0)"/>
      <use xlink:href="#DejaVuSans-2013" transform="translate(277.675781 0)"/>
      <use xlink:href="#DejaVuSans-53" transform="translate(327.675781 0)"/>
      <use xlink:href="#DejaVuSans-41" transform="translate(393.027344 0)"/>
      <use xlink:href="#DejaVuSans-54" transform="translate(453.685547 0)"/>
      <use xlink:href="#DejaVuSans-2d" transform="translate(505.644531 0)"/>
      <use xlink:href="#DejaVuSans-32" transform="translate(541.728516 0)"/>
     </g>
    </g>
    <g id="line2d_37">
     <path d="M 71.3 54.656563 
L 81.3 54.656563 
L 91.3 54.656563 
" style="fill: none; stroke: #ff7f0e; stroke-width: 1.5; stroke-linecap: square"/>
    </g>
    <g id="text_22">
     <!-- SAT-1–SAT-3 -->
     <g transform="translate(99.3 58.156563) scale(0.1 -0.1)">
      <defs>
       <path id="DejaVuSans-33" d="M 2597 2516 
Q 3050 2419 3304 2112 
Q 3559 1806 3559 1356 
Q 3559 666 3084 287 
Q 2609 -91 1734 -91 
Q 1441 -91 1130 -33 
Q 819 25 488 141 
L 488 750 
Q 750 597 1062 519 
Q 1375 441 1716 441 
Q 2309 441 2620 675 
Q 2931 909 2931 1356 
Q 2931 1769 2642 2001 
Q 2353 2234 1838 2234 
L 1294 2234 
L 1294 2753 
L 1863 2753 
Q 2328 2753 2575 2939 
Q 2822 3125 2822 3475 
Q 2822 3834 2567 4026 
Q 2313 4219 1838 4219 
Q 1578 4219 1281 4162 
Q 984 4106 628 3988 
L 628 4550 
Q 988 4650 1302 4700 
Q 1616 4750 1894 4750 
Q 2613 4750 3031 4423 
Q 3450 4097 3450 3541 
Q 3450 3153 3228 2886 
Q 3006 2619 2597 2516 
z
" transform="scale(0.015625)"/>
      </defs>
      <use xlink:href="#DejaVuSans-53"/>
      <use xlink:href="#DejaVuSans-41" transform="translate(65.351562 0)"/>
      <use xlink:href="#DejaVuSans-54" transform="translate(126.009766 0)"/>
      <use xlink:href="#DejaVuSans-2d" transform="translate(177.96875 0)"/>
      <use xlink:href="#DejaVuSans-31" transform="translate(214.052734 0)"/>
      <use xlink:href="#DejaVuSans-2013" transform="translate(277.675781 0)"/>
      <use xlink:href="#DejaVuSans-53" transform="translate(327.675781 0)"/>
      <use xlink:href="#DejaVuSans-41" transform="translate(393.027344 0)"/>
      <use xlink:href="#DejaVuSans-54" transform="translate(453.685547 0)"/>
      <use xlink:href="#DejaVuSans-2d" transform="translate(505.644531 0)"/>
      <use xlink:href="#DejaVuSans-33" transform="translate(541.728516 0)"/>
     </g>
    </g>
    <g id="line2d_38">
     <path d="M 71.3 69.334687 
L 81.3 69.334687 
L 91.3 69.334687 
" style="fill: none; stroke: #2ca02c; stroke-width: 1.5; stroke-linecap: square"/>
    </g>
    <g id="text_23">
     <!-- SAT-2–SAT-3 -->
     <g transform="translate(99.3 72.834687) scale(0.1 -0.1)">
      <use xlink:href="#DejaVuSans-53"/>
      <use xlink:href="#DejaVuSans-41" transform="translate(65.351562 0)"/>
      <use xlink:href="#DejaVuSans-54" transform="translate(126.009766 0)"/>
      <use xlink:href="#DejaVuSans-2d" transform="translate(177.96875 0)"/>
      <use xlink:href="#DejaVuSans-32" transform="translate(214.052734 0)"/>
      <use xlink:href="#DejaVuSans-2013" transform="translate(277.675781 0)"/>
      <use xlink:href="#DejaVuSans-53" transform="translate(327.675781 0)"/>
      <use xlink:href="#DejaVuSans-41" transform="translate(393.027344 0)"/>
      <use xlink:href="#DejaVuSans-54" transform="translate(453.685547 0)"/>
      <use xlink:href="#DejaVuSans-2d" transform="translate(505.644531 0)"/>
      <use xlink:href="#DejaVuSans-33" transform="translate(541.728516 0)"/>
     </g>
    </g>
   </g>
  </g>
 </g>
 <defs>
  <clipPath id="p721ca9db07">
   <rect x="62.3" y="26.88" width="646.9" height="363.16"/>
  </clipPath>
 </defs>
</svg>
