<?xml version="1.0" encoding="utf-8" standalone="no"?>
<!DOCTYPE svg PUBLIC "-//W3C//DTD SVG 1.1//EN"
  "http://www.w3.org/Graphics/SVG/1.1/DTD/svg11.dtd">
<svg xmlns:xlink="http://www.w3.org/1999/xlink" width="648pt" height="720pt" viewBox="0 0 648 720" xmlns="http://www.w3.org/2000/svg" version="1.1">
 <metadata>
  <rdf:RDF xmlns:dc="http://purl.org/dc/elements/1.1/" xmlns:cc="http://creativecommons.org/ns#" xmlns:rdf="http://www.w3.org/1999/02/22-rdf-syntax-ns#">
   <cc:Work>
    <dc:type rdf:resource="http://purl.org/dc/dcmitype/StillImage"/>
    <dc:date>2025-11-01T08:08:14.054188</dc:date>
    <dc:format>image/svg+xml</dc:format>
    <dc:creator>
     <cc:Agent>
      <dc:title>Matplotlib v3.10.7, https://matplotlib.org/</dc:title>
     </cc:Agent>
    </dc:creator>
   </cc:Work>
  </rdf:RDF>
 </metadata>
 <defs>
  <style type="text/css">*{stroke-linejoin: round; stroke-linecap: butt}</style>
 </defs>
 <g id="figure_1">
  <g id="patch_1">
   <path d="M 0 720 
L 648 720 
L 648 0 
L 0 0 
z
" style="fill: #ffffff"/>
  </g>
  <g id="axes_1">
   <g id="patch_2">
    <path d="M 57.35 192.715 
L 637.2 192.715 
L 637.2 56.16 
L 57.35 56.16 
z
" style="fill: #ffffff"/>
   </g>
   <g id="matplotlib.axis_1">
    <g id="xtick_1">
     <g id="line2d_1">
      <path d="M 83.706818 192.715 
L 83.706818 56.16 
" clip-path="url(#p08d5700c52)" style="fill: none; stroke: #b0b0b0; stroke-width: 0.3; stroke-linecap: square"/>
     </g>
     <g id="line2d_2">
      <defs>
       <path id="mf77986cfc5" d="M 0 0 
L 0 3.5 
" style="stroke: #000000; stroke-width: 0.8"/>
      </defs>
      <g>
       <use xlink:href="#mf77986cfc5" x="83.706818" y="192.715" style="stroke: #000000; stroke-width: 0.8"/>
      </g>
     </g>
    </g>
    <g id="xtick_2">
     <g id="line2d_3">
      <path d="M 156.920202 192.715 
L 156.920202 56.16 
" clip-path="url(#p08d5700c52)" style="fill: none; stroke: #b0b0b0; stroke-width: 0.3; stroke-linecap: square"/>
     </g>
     <g id="line2d_4">
      <g>
       <use xlink:href="#mf77986cfc5" x="156.920202" y="192.715" style="stroke: #000000; stroke-width: 0.8"/>
      </g>
     </g>
    </g>
    <g id="xtick_3">
     <g id="line2d_5">
      <path d="M 230.133586 192.715 
L 230.133586 56.16 
" clip-path="url(#p08d5700c52)" style="fill: none; stroke: #b0b0b0; stroke-width: 0.3; stroke-linecap: square"/>
     </g>
     <g id="line2d_6">
      <g>
       <use xlink:href="#mf77986cfc5" x="230.133586" y="192.715" style="stroke: #000000; stroke-width: 0.8"/>
      </g>
     </g>
    </g>
    <g id="xtick_4">
     <g id="line2d_7">
      <path d="M 303.34697 192.715 
L 303.34697 56.16 
" clip-path="url(#p08d5700c52)" style="fill: none; stroke: #b0b0b0; stroke-width: 0.3; stroke-linecap: square"/>
     </g>
     <g id="line2d_8">
      <g>
       <use xlink:href="#mf77986cfc5" x="303.34697" y="192.715" style="stroke: #000000; stroke-width: 0.8"/>
      </g>
     </g>
    </g>
    <g id="xtick_5">
     <g id="line2d_9">
      <path d="M 376.560354 192.715 
L 376.560354 56.16 
" clip-path="url(#p08d5700c52)" style="fill: none; stroke: #b0b0b0; stroke-width: 0.3; stroke-linecap: square"/>
     </g>
     <g id="line2d_10">
      <g>
       <use xlink:href="#mf77986cfc5" x="376.560354" y="192.715" style="stroke: #000000; stroke-width: 0.8"/>
      </g>
     </g>
    </g>
    <g id="xtick_6">
     <g id="line2d_11">
      <path d="M 449.773737 192.715 
L 449.773737 56.16 
" clip-path="url(#p08d5700c52)" style="fill: none; stroke: #b0b0b0; stroke-width: 0.3; stroke-linecap: square"/>
     </g>
     <g id="line2d_12">
      <g>
       <use xlink:href="#mf77986cfc5" x="449.773737" y="192.715" style="stroke: #000000; stroke-width: 0.8"/>
      </g>
     </g>
    </g>
    <g id="xtick_7">
     <g id="line2d_13">
      <path d="M 522.987121 192.715 
L 522.987121 56.16 
" clip-path="url(#p08d5700c52)" style="fill: none; stroke: #b0b0b0; stroke-width: 0.3; stroke-linecap: square"/>
     </g>
     <g id="line2d_14">
      <g>
       <use xlink:href="#mf77986cfc5" x="522.987121" y="192.715" style="stroke: #000000; stroke-width: 0.8"/>
      </g>
     </g>
    </g>
    <g id="xtick_8">
     <g id="line2d_15">
      <path d="M 596.200505 192.715 
L 596.200505 56.16 
" clip-path="url(#p08d5700c52)" style="fill: none; stroke: #b0b0b0; stroke-width: 0.3; stroke-linecap: square"/>
     </g>
     <g id="line2d_16">
      <g>
       <use xlink:href="#mf77986cfc5" x="596.200505" y="192.715" style="stroke: #000000; stroke-width: 0.8"/>
      </g>
     </g>
    </g>
   </g>
   <g id="matplotlib.axis_2">
    <g id="ytick_1">
     <g id="line2d_17">
      <path d="M 57.35 163.922724 
L 637.2 163.922724 
" clip-path="url(#p08d5700c52)" style="fill: none; stroke: #b0b0b0; stroke-width: 0.3; stroke-linecap: square"/>
     </g>
     <g id="line2d_18">
      <defs>
       <path id="maad49074f5" d="M 0 0 
L -3.5 0 
" style="stroke: #000000; stroke-width: 0.8"/>
      </defs>
      <g>
       <use xlink:href="#maad49074f5" x="57.35" y="163.922724" style="stroke: #000000; stroke-width: 0.8"/>
      </g>
     </g>
     <g id="text_1">
      <!-- 6895 -->
      <g transform="translate(24.9 167.721942) scale(0.1 -0.1)">
       <defs>
        <path id="DejaVuSans-36" d="M 2113 2584 
Q 1688 2584 1439 2293 
Q 1191 2003 1191 1497 
Q 1191 994 1439 701 
Q 1688 409 2113 409 
Q 2538 409 2786 701 
Q 3034 994 3034 1497 
Q 3034 2003 2786 2293 
Q 2538 2584 2113 2584 
z
M 3366 4563 
L 3366 3988 
Q 3128 4100 2886 4159 
Q 2644 4219 2406 4219 
Q 1781 4219 1451 3797 
Q 1122 3375 1075 2522 
Q 1259 2794 1537 2939 
Q 1816 3084 2150 3084 
Q 2853 3084 3261 2657 
Q 3669 2231 3669 1497 
Q 3669 778 3244 343 
Q 2819 -91 2113 -91 
Q 1303 -91 875 529 
Q 447 1150 447 2328 
Q 447 3434 972 4092 
Q 1497 4750 2381 4750 
Q 2619 4750 2861 4703 
Q 3103 4656 3366 4563 
z
" transform="scale(0.015625)"/>
        <path id="DejaVuSans-38" d="M 2034 2216 
Q 1584 2216 1326 1975 
Q 1069 1734 1069 1313 
Q 1069 891 1326 650 
Q 1584 409 2034 409 
Q 2484 409 2743 651 
Q 3003 894 3003 1313 
Q 3003 1734 2745 1975 
Q 2488 2216 2034 2216 
z
M 1403 2484 
Q 997 2584 770 2862 
Q 544 3141 544 3541 
Q 544 4100 942 4425 
Q 1341 4750 2034 4750 
Q 2731 4750 3128 4425 
Q 3525 4100 3525 3541 
Q 3525 3141 3298 2862 
Q 3072 2584 2669 2484 
Q 3125 2378 3379 2068 
Q 3634 1759 3634 1313 
Q 3634 634 3220 271 
Q 2806 -91 2034 -91 
Q 1263 -91 848 271 
Q 434 634 434 1313 
Q 434 1759 690 2068 
Q 947 2378 1403 2484 
z
M 1172 3481 
Q 1172 3119 1398 2916 
Q 1625 2713 2034 2713 
Q 2441 2713 2670 2916 
Q 2900 3119 2900 3481 
Q 2900 3844 2670 4047 
Q 2441 4250 2034 4250 
Q 1625 4250 1398 4047 
Q 1172 3844 1172 3481 
z
" transform="scale(0.015625)"/>
        <path id="DejaVuSans-39" d="M 703 97 
L 703 672 
Q 941 559 1184 500 
Q 1428 441 1663 441 
Q 2288 441 2617 861 
Q 2947 1281 2994 2138 
Q 2813 1869 2534 1725 
Q 2256 1581 1919 1581 
Q 1219 1581 811 2004 
Q 403 2428 403 3163 
Q 403 3881 828 4315 
Q 1253 4750 1959 4750 
Q 2769 4750 3195 4129 
Q 3622 3509 3622 2328 
Q 3622 1225 3098 567 
Q 2575 -91 1691 -91 
Q 1453 -91 1209 -44 
Q 966 3 703 97 
z
M 1959 2075 
Q 2384 2075 2632 2365 
Q 2881 2656 2881 3163 
Q 2881 3666 2632 3958 
Q 2384 4250 1959 4250 
Q 1534 4250 1286 3958 
Q 1038 3666 1038 3163 
Q 1038 2656 1286 2365 
Q 1534 2075 1959 2075 
z
" transform="scale(0.015625)"/>
        <path id="DejaVuSans-35" d="M 691 4666 
L 3169 4666 
L 3169 4134 
L 1269 4134 
L 1269 2991 
Q 1406 3038 1543 3061 
Q 1681 3084 1819 3084 
Q 2600 3084 3056 2656 
Q 3513 2228 3513 1497 
Q 3513 744 3044 326 
Q 2575 -91 1722 -91 
Q 1428 -91 1123 -41 
Q 819 9 494 109 
L 494 744 
Q 775 591 1075 516 
Q 1375 441 1709 441 
Q 2250 441 2565 725 
Q 2881 1009 2881 1497 
Q 2881 1984 2565 2268 
Q 2250 2553 1709 2553 
Q 1456 2553 1204 2497 
Q 953 2441 691 2322 
L 691 4666 
z
" transform="scale(0.015625)"/>
       </defs>
       <use xlink:href="#DejaVuSans-36"/>
       <use xlink:href="#DejaVuSans-38" transform="translate(63.623047 0)"/>
       <use xlink:href="#DejaVuSans-39" transform="translate(127.246094 0)"/>
       <use xlink:href="#DejaVuSans-35" transform="translate(190.869141 0)"/>
      </g>
     </g>
    </g>
    <g id="ytick_2">
     <g id="line2d_19">
      <path d="M 57.35 134.086489 
L 637.2 134.086489 
" clip-path="url(#p08d5700c52)" style="fill: none; stroke: #b0b0b0; stroke-width: 0.3; stroke-linecap: square"/>
     </g>
     <g id="line2d_20">
      <g>
       <use xlink:href="#maad49074f5" x="57.35" y="134.086489" style="stroke: #000000; stroke-width: 0.8"/>
      </g>
     </g>
     <g id="text_2">
      <!-- 6900 -->
      <g transform="translate(24.9 137.885708) scale(0.1 -0.1)">
       <defs>
        <path id="DejaVuSans-30" d="M 2034 4250 
Q 1547 4250 1301 3770 
Q 1056 3291 1056 2328 
Q 1056 1369 1301 889 
Q 1547 409 2034 409 
Q 2525 409 2770 889 
Q 3016 1369 3016 2328 
Q 3016 3291 2770 3770 
Q 2525 4250 2034 4250 
z
M 2034 4750 
Q 2819 4750 3233 4129 
Q 3647 3509 3647 2328 
Q 3647 1150 3233 529 
Q 2819 -91 2034 -91 
Q 1250 -91 836 529 
Q 422 1150 422 2328 
Q 422 3509 836 4129 
Q 1250 4750 2034 4750 
z
" transform="scale(0.015625)"/>
       </defs>
       <use xlink:href="#DejaVuSans-36"/>
       <use xlink:href="#DejaVuSans-39" transform="translate(63.623047 0)"/>
       <use xlink:href="#DejaVuSans-30" transform="translate(127.246094 0)"/>
       <use xlink:href="#DejaVuSans-30" transform="translate(190.869141 0)"/>
      </g>
     </g>
    </g>
    <g id="ytick_3">
     <g id="line2d_21">
      <path d="M 57.35 104.250254 
L 637.2 104.250254 
" clip-path="url(#p08d5700c52)" style="fill: none; stroke: #b0b0b0; stroke-width: 0.3; stroke-linecap: square"/>
     </g>
     <g id="line2d_22">
      <g>
       <use xlink:href="#maad49074f5" x="57.35" y="104.250254" style="stroke: #000000; stroke-width: 0.8"/>
      </g>
     </g>
     <g id="text_3">
      <!-- 6905 -->
      <g transform="translate(24.9 108.049473) scale(0.1 -0.1)">
       <use xlink:href="#DejaVuSans-36"/>
       <use xlink:href="#DejaVuSans-39" transform="translate(63.623047 0)"/>
       <use xlink:href="#DejaVuSans-30" transform="translate(127.246094 0)"/>
       <use xlink:href="#DejaVuSans-35" transform="translate(190.869141 0)"/>
      </g>
     </g>
    </g>
    <g id="ytick_4">
     <g id="line2d_23">
      <path d="M 57.35 74.41402 
L 637.2 74.41402 
" clip-path="url(#p08d5700c52)" style="fill: none; stroke: #b0b0b0; stroke-width: 0.3; stroke-linecap: square"/>
     </g>
     <g id="line2d_24">
      <g>
       <use xlink:href="#maad49074f5" x="57.35" y="74.41402" style="stroke: #000000; stroke-width: 0.8"/>
      </g>
     </g>
     <g id="text_4">
      <!-- 6910 -->
      <g transform="translate(24.9 78.213239) scale(0.1 -0.1)">
       <defs>
        <path id="DejaVuSans-31" d="M 794 531 
L 1825 531 
L 1825 4091 
L 703 3866 
L 703 4441 
L 1819 4666 
L 2450 4666 
L 2450 531 
L 3481 531 
L 3481 0 
L 794 0 
L 794 531 
z
" transform="scale(0.015625)"/>
       </defs>
       <use xlink:href="#DejaVuSans-36"/>
       <use xlink:href="#DejaVuSans-39" transform="translate(63.623047 0)"/>
       <use xlink:href="#DejaVuSans-31" transform="translate(127.246094 0)"/>
       <use xlink:href="#DejaVuSans-30" transform="translate(190.869141 0)"/>
      </g>
     </g>
    </g>
    <g id="text_5">
     <!-- Semi-major axis [km] -->
     <g transform="translate(18.820312 178.052344) rotate(-90) scale(0.1 -0.1)">
      <defs>
       <path id="DejaVuSans-53" d="M 3425 4513 
L 3425 3897 
Q 3066 4069 2747 4153 
Q 2428 4238 2131 4238 
Q 1616 4238 1336 4038 
Q 1056 3838 1056 3469 
Q 1056 3159 1242 3001 
Q 1428 2844 1947 2747 
L 2328 2669 
Q 3034 2534 3370 2195 
Q 3706 1856 3706 1288 
Q 3706 609 3251 259 
Q 2797 -91 1919 -91 
Q 1588 -91 1214 -16 
Q 841 59 441 206 
L 441 856 
Q 825 641 1194 531 
Q 1563 422 1919 422 
Q 2459 422 2753 634 
Q 3047 847 3047 1241 
Q 3047 1584 2836 1778 
Q 2625 1972 2144 2069 
L 1759 2144 
Q 1053 2284 737 2584 
Q 422 2884 422 3419 
Q 422 4038 858 4394 
Q 1294 4750 2059 4750 
Q 2388 4750 2728 4690 
Q 3069 4631 3425 4513 
z
" transform="scale(0.015625)"/>
       <path id="DejaVuSans-65" d="M 3597 1894 
L 3597 1613 
L 953 1613 
Q 991 1019 1311 708 
Q 1631 397 2203 397 
Q 2534 397 2845 478 
Q 3156 559 3463 722 
L 3463 178 
Q 3153 47 2828 -22 
Q 2503 -91 2169 -91 
Q 1331 -91 842 396 
Q 353 884 353 1716 
Q 353 2575 817 3079 
Q 1281 3584 2069 3584 
Q 2775 3584 3186 3129 
Q 3597 2675 3597 1894 
z
M 3022 2063 
Q 3016 2534 2758 2815 
Q 2500 3097 2075 3097 
Q 1594 3097 1305 2825 
Q 1016 2553 972 2059 
L 3022 2063 
z
" transform="scale(0.015625)"/>
       <path id="DejaVuSans-6d" d="M 3328 2828 
Q 3544 3216 3844 3400 
Q 4144 3584 4550 3584 
Q 5097 3584 5394 3201 
Q 5691 2819 5691 2113 
L 5691 0 
L 5113 0 
L 5113 2094 
Q 5113 2597 4934 2840 
Q 4756 3084 4391 3084 
Q 3944 3084 3684 2787 
Q 3425 2491 3425 1978 
L 3425 0 
L 2847 0 
L 2847 2094 
Q 2847 2600 2669 2842 
Q 2491 3084 2119 3084 
Q 1678 3084 1418 2786 
Q 1159 2488 1159 1978 
L 1159 0 
L 581 0 
L 581 3500 
L 1159 3500 
L 1159 2956 
Q 1356 3278 1631 3431 
Q 1906 3584 2284 3584 
Q 2666 3584 2933 3390 
Q 3200 3197 3328 2828 
z
" transform="scale(0.015625)"/>
       <path id="DejaVuSans-69" d="M 603 3500 
L 1178 3500 
L 1178 0 
L 603 0 
L 603 3500 
z
M 603 4863 
L 1178 4863 
L 1178 4134 
L 603 4134 
L 603 4863 
z
" transform="scale(0.015625)"/>
       <path id="DejaVuSans-2d" d="M 313 2009 
L 1997 2009 
L 1997 1497 
L 313 1497 
L 313 2009 
z
" transform="scale(0.015625)"/>
       <path id="DejaVuSans-61" d="M 2194 1759 
Q 1497 1759 1228 1600 
Q 959 1441 959 1056 
Q 959 750 1161 570 
Q 1363 391 1709 391 
Q 2188 391 2477 730 
Q 2766 1069 2766 1631 
L 2766 1759 
L 2194 1759 
z
M 3341 1997 
L 3341 0 
L 2766 0 
L 2766 531 
Q 2569 213 2275 61 
Q 1981 -91 1556 -91 
Q 1019 -91 701 211 
Q 384 513 384 1019 
Q 384 1609 779 1909 
Q 1175 2209 1959 2209 
L 2766 2209 
L 2766 2266 
Q 2766 2663 2505 2880 
Q 2244 3097 1772 3097 
Q 1472 3097 1187 3025 
Q 903 2953 641 2809 
L 641 3341 
Q 956 3463 1253 3523 
Q 1550 3584 1831 3584 
Q 2591 3584 2966 3190 
Q 3341 2797 3341 1997 
z
" transform="scale(0.015625)"/>
       <path id="DejaVuSans-6a" d="M 603 3500 
L 1178 3500 
L 1178 -63 
Q 1178 -731 923 -1031 
Q 669 -1331 103 -1331 
L -116 -1331 
L -116 -844 
L 38 -844 
Q 366 -844 484 -692 
Q 603 -541 603 -63 
L 603 3500 
z
M 603 4863 
L 1178 4863 
L 1178 4134 
L 603 4134 
L 603 4863 
z
" transform="scale(0.015625)"/>
       <path id="DejaVuSans-6f" d="M 1959 3097 
Q 1497 3097 1228 2736 
Q 959 2375 959 1747 
Q 959 1119 1226 758 
Q 1494 397 1959 397 
Q 2419 397 2687 759 
Q 2956 1122 2956 1747 
Q 2956 2369 2687 2733 
Q 2419 3097 1959 3097 
z
M 1959 3584 
Q 2709 3584 3137 3096 
Q 3566 2609 3566 1747 
Q 3566 888 3137 398 
Q 2709 -91 1959 -91 
Q 1206 -91 779 398 
Q 353 888 353 1747 
Q 353 2609 779 3096 
Q 1206 3584 1959 3584 
z
" transform="scale(0.015625)"/>
       <path id="DejaVuSans-72" d="M 2631 2963 
Q 2534 3019 2420 3045 
Q 2306 3072 2169 3072 
Q 1681 3072 1420 2755 
Q 1159 2438 1159 1844 
L 1159 0 
L 581 0 
L 581 3500 
L 1159 3500 
L 1159 2956 
Q 1341 3275 1631 3429 
Q 1922 3584 2338 3584 
Q 2397 3584 2469 3576 
Q 2541 3569 2628 3553 
L 2631 2963 
z
" transform="scale(0.015625)"/>
       <path id="DejaVuSans-20" transform="scale(0.015625)"/>
       <path id="DejaVuSans-78" d="M 3513 3500 
L 2247 1797 
L 3578 0 
L 2900 0 
L 1881 1375 
L 863 0 
L 184 0 
L 1544 1831 
L 300 3500 
L 978 3500 
L 1906 2253 
L 2834 3500 
L 3513 3500 
z
" transform="scale(0.015625)"/>
       <path id="DejaVuSans-73" d="M 2834 3397 
L 2834 2853 
Q 2591 2978 2328 3040 
Q 2066 3103 1784 3103 
Q 1356 3103 1142 2972 
Q 928 2841 928 2578 
Q 928 2378 1081 2264 
Q 1234 2150 1697 2047 
L 1894 2003 
Q 2506 1872 2764 1633 
Q 3022 1394 3022 966 
Q 3022 478 2636 193 
Q 2250 -91 1575 -91 
Q 1294 -91 989 -36 
Q 684 19 347 128 
L 347 722 
Q 666 556 975 473 
Q 1284 391 1588 391 
Q 1994 391 2212 530 
Q 2431 669 2431 922 
Q 2431 1156 2273 1281 
Q 2116 1406 1581 1522 
L 1381 1569 
Q 847 1681 609 1914 
Q 372 2147 372 2553 
Q 372 3047 722 3315 
Q 1072 3584 1716 3584 
Q 2034 3584 2315 3537 
Q 2597 3491 2834 3397 
z
" transform="scale(0.015625)"/>
       <path id="DejaVuSans-5b" d="M 550 4863 
L 1875 4863 
L 1875 4416 
L 1125 4416 
L 1125 -397 
L 1875 -397 
L 1875 -844 
L 550 -844 
L 550 4863 
z
" transform="scale(0.015625)"/>
       <path id="DejaVuSans-6b" d="M 581 4863 
L 1159 4863 
L 1159 1991 
L 2875 3500 
L 3609 3500 
L 1753 1863 
L 3688 0 
L 2938 0 
L 1159 1709 
L 1159 0 
L 581 0 
L 581 4863 
z
" transform="scale(0.015625)"/>
       <path id="DejaVuSans-5d" d="M 1947 4863 
L 1947 -844 
L 622 -844 
L 622 -397 
L 1369 -397 
L 1369 4416 
L 622 4416 
L 622 4863 
L 1947 4863 
z
" transform="scale(0.015625)"/>
      </defs>
      <use xlink:href="#DejaVuSans-53"/>
      <use xlink:href="#DejaVuSans-65" transform="translate(63.476562 0)"/>
      <use xlink:href="#DejaVuSans-6d" transform="translate(125 0)"/>
      <use xlink:href="#DejaVuSans-69" transform="translate(222.412109 0)"/>
      <use xlink:href="#DejaVuSans-2d" transform="translate(250.195312 0)"/>
      <use xlink:href="#DejaVuSans-6d" transform="translate(286.279297 0)"/>
      <use xlink:href="#DejaVuSans-61" transform="translate(383.691406 0)"/>
      <use xlink:href="#DejaVuSans-6a" transform="translate(444.970703 0)"/>
      <use xlink:href="#DejaVuSans-6f" transform="translate(472.753906 0)"/>
      <use xlink:href="#DejaVuSans-72" transform="translate(533.935547 0)"/>
      <use xlink:href="#DejaVuSans-20" transform="translate(575.048828 0)"/>
      <use xlink:href="#DejaVuSans-61" transform="translate(606.835938 0)"/>
      <use xlink:href="#DejaVuSans-78" transform="translate(668.115234 0)"/>
      <use xlink:href="#DejaVuSans-69" transform="translate(727.294922 0)"/>
      <use xlink:href="#DejaVuSans-73" transform="translate(755.078125 0)"/>
      <use xlink:href="#DejaVuSans-20" transform="translate(807.177734 0)"/>
      <use xlink:href="#DejaVuSans-5b" transform="translate(838.964844 0)"/>
      <use xlink:href="#DejaVuSans-6b" transform="translate(877.978516 0)"/>
      <use xlink:href="#DejaVuSans-6d" transform="translate(935.888672 0)"/>
      <use xlink:href="#DejaVuSans-5d" transform="translate(1033.300781 0)"/>
     </g>
    </g>
   </g>
   <g id="line2d_25">
    <path d="M 83.706818 186.495489 
L 110.063636 186.507955 
L 610.843182 186.495489 
L 610.843182 186.495489 
" clip-path="url(#p08d5700c52)" style="fill: none; stroke: #440154; stroke-width: 1.5; stroke-linecap: square"/>
   </g>
   <g id="line2d_26">
    <path d="M 83.706818 186.495489 
L 110.063636 186.507955 
L 610.843182 186.495489 
L 610.843182 186.495489 
" clip-path="url(#p08d5700c52)" style="fill: none; stroke: #21918c; stroke-width: 1.5; stroke-linecap: square"/>
   </g>
   <g id="line2d_27">
    <path d="M 83.706818 62.367045 
L 110.063636 62.379605 
L 610.843182 62.367045 
L 610.843182 62.367045 
" clip-path="url(#p08d5700c52)" style="fill: none; stroke: #fde725; stroke-width: 1.5; stroke-linecap: square"/>
   </g>
   <g id="patch_3">
    <path d="M 57.35 192.715 
L 57.35 56.16 
" style="fill: none; stroke: #000000; stroke-width: 0.8; stroke-linejoin: miter; stroke-linecap: square"/>
   </g>
   <g id="patch_4">
    <path d="M 637.2 192.715 
L 637.2 56.16 
" style="fill: none; stroke: #000000; stroke-width: 0.8; stroke-linejoin: miter; stroke-linecap: square"/>
   </g>
   <g id="patch_5">
    <path d="M 57.35 192.715 
L 637.2 192.715 
" style="fill: none; stroke: #000000; stroke-width: 0.8; stroke-linejoin: miter; stroke-linecap: square"/>
   </g>
   <g id="patch_6">
    <path d="M 57.35 56.16 
L 637.2 56.16 
" style="fill: none; stroke: #000000; stroke-width: 0.8; stroke-linejoin: miter; stroke-linecap: square"/>
   </g>
   <g id="legend_1">
    <g id="patch_7">
     <path d="M 570.432812 108.194375 
L 630.2 108.194375 
Q 632.2 108.194375 632.2 106.194375 
L 632.2 63.16 
Q 632.2 61.16 630.2 61.16 
L 570.432812 61.16 
Q 568.432812 61.16 568.432812 63.16 
L 568.432812 106.194375 
Q 568.432812 108.194375 570.432812 108.194375 
z
" style="fill: #ffffff; opacity: 0.8; stroke: #cccccc; stroke-linejoin: miter"/>
    </g>
    <g id="line2d_28">
     <path d="M 572.432812 69.258438 
L 582.432812 69.258438 
L 592.432812 69.258438 
" style="fill: none; stroke: #440154; stroke-width: 1.5; stroke-linecap: square"/>
    </g>
    <g id="text_6">
     <!-- SAT-1 -->
     <g transform="translate(600.432812 72.758438) scale(0.1 -0.1)">
      <defs>
       <path id="DejaVuSans-41" d="M 2188 4044 
L 1331 1722 
L 3047 1722 
L 2188 4044 
z
M 1831 4666 
L 2547 4666 
L 4325 0 
L 3669 0 
L 3244 1197 
L 1141 1197 
L 716 0 
L 50 0 
L 1831 4666 
z
" transform="scale(0.015625)"/>
       <path id="DejaVuSans-54" d="M -19 4666 
L 3928 4666 
L 3928 4134 
L 2272 4134 
L 2272 0 
L 1638 0 
L 1638 4134 
L -19 4134 
L -19 4666 
z
" transform="scale(0.015625)"/>
      </defs>
      <use xlink:href="#DejaVuSans-53"/>
      <use xlink:href="#DejaVuSans-41" transform="translate(65.351562 0)"/>
      <use xlink:href="#DejaVuSans-54" transform="translate(126.009766 0)"/>
      <use xlink:href="#DejaVuSans-2d" transform="translate(177.96875 0)"/>
      <use xlink:href="#DejaVuSans-31" transform="translate(214.052734 0)"/>
     </g>
    </g>
    <g id="line2d_29">
     <path d="M 572.432812 83.936563 
L 582.432812 83.936563 
L 592.432812 83.936563 
" style="fill: none; stroke: #21918c; stroke-width: 1.5; stroke-linecap: square"/>
    </g>
    <g id="text_7">
     <!-- SAT-2 -->
     <g transform="translate(600.432812 87.436563) scale(0.1 -0.1)">
      <defs>
       <path id="DejaVuSans-32" d="M 1228 531 
L 3431 531 
L 3431 0 
L 469 0 
L 469 531 
Q 828 903 1448 1529 
Q 2069 2156 2228 2338 
Q 2531 2678 2651 2914 
Q 2772 3150 2772 3378 
Q 2772 3750 2511 3984 
Q 2250 4219 1831 4219 
Q 1534 4219 1204 4116 
Q 875 4013 500 3803 
L 500 4441 
Q 881 4594 1212 4672 
Q 1544 4750 1819 4750 
Q 2544 4750 2975 4387 
Q 3406 4025 3406 3419 
Q 3406 3131 3298 2873 
Q 3191 2616 2906 2266 
Q 2828 2175 2409 1742 
Q 1991 1309 1228 531 
z
" transform="scale(0.015625)"/>
      </defs>
      <use xlink:href="#DejaVuSans-53"/>
      <use xlink:href="#DejaVuSans-41" transform="translate(65.351562 0)"/>
      <use xlink:href="#DejaVuSans-54" transform="translate(126.009766 0)"/>
      <use xlink:href="#DejaVuSans-2d" transform="translate(177.96875 0)"/>
      <use xlink:href="#DejaVuSans-32" transform="translate(214.052734 0)"/>
     </g>
    </g>
    <g id="line2d_30">
     <path d="M 572.432812 98.614688 
L 582.432812 98.614688 
L 592.432812 98.614688 
" style="fill: none; stroke: #fde725; stroke-width: 1.5; stroke-linecap: square"/>
    </g>
    <g id="text_8">
     <!-- SAT-3 -->
     <g transform="translate(600.432812 102.114688) scale(0.1 -0.1)">
      <defs>
       <path id="DejaVuSans-33" d="M 2597 2516 
Q 3050 2419 3304 2112 
Q 3559 1806 3559 1356 
Q 3559 666 3084 287 
Q 2609 -91 1734 -91 
Q 1441 -91 1130 -33 
Q 819 25 488 141 
L 488 750 
Q 750 597 1062 519 
Q 1375 441 1716 441 
Q 2309 441 2620 675 
Q 2931 909 2931 1356 
Q 2931 1769 2642 2001 
Q 2353 2234 1838 2234 
L 1294 2234 
L 1294 2753 
L 1863 2753 
Q 2328 2753 2575 2939 
Q 2822 3125 2822 3475 
Q 2822 3834 2567 4026 
Q 2313 4219 1838 4219 
Q 1578 4219 1281 4162 
Q 984 4106 628 3988 
L 628 4550 
Q 988 4650 1302 4700 
Q 1616 4750 1894 4750 
Q 2613 4750 3031 4423 
Q 3450 4097 3450 3541 
Q 3450 3153 3228 2886 
Q 3006 2619 2597 2516 
z
" transform="scale(0.015625)"/>
      </defs>
      <use xlink:href="#DejaVuSans-53"/>
      <use xlink:href="#DejaVuSans-41" transform="translate(65.351562 0)"/>
      <use xlink:href="#DejaVuSans-54" transform="translate(126.009766 0)"/>
      <use xlink:href="#DejaVuSans-2d" transform="translate(177.96875 0)"/>
      <use xlink:href="#DejaVuSans-33" transform="translate(214.052734 0)"/>
     </g>
    </g>
   </g>
  </g>
  <g id="axes_2">
   <g id="patch_8">
    <path d="M 57.35 354.49 
L 637.2 354.49 
L 637.2 217.935 
L 57.35 217.935 
z
" style="fill: #ffffff"/>
   </g>
   <g id="matplotlib.axis_3">
    <g id="xtick_9">
     <g id="line2d_31">
      <path d="M 83.706818 354.49 
L 83.706818 217.935 
" clip-path="url(#p99708eb3c8)" style="fill: none; stroke: #b0b0b0; stroke-width: 0.3; stroke-linecap: square"/>
     </g>
     <g id="line2d_32">
      <g>
       <use xlink:href="#mf77986cfc5" x="83.706818" y="354.49" style="stroke: #000000; stroke-width: 0.8"/>
      </g>
     </g>
    </g>
    <g id="xtick_10">
     <g id="line2d_33">
      <path d="M 156.920202 354.49 
L 156.920202 217.935 
" clip-path="url(#p99708eb3c8)" style="fill: none; stroke: #b0b0b0; stroke-width: 0.3; stroke-linecap: square"/>
     </g>
     <g id="line2d_34">
      <g>
       <use xlink:href="#mf77986cfc5" x="156.920202" y="354.49" style="stroke: #000000; stroke-width: 0.8"/>
      </g>
     </g>
    </g>
    <g id="xtick_11">
     <g id="line2d_35">
      <path d="M 230.133586 354.49 
L 230.133586 217.935 
" clip-path="url(#p99708eb3c8)" style="fill: none; stroke: #b0b0b0; stroke-width: 0.3; stroke-linecap: square"/>
     </g>
     <g id="line2d_36">
      <g>
       <use xlink:href="#mf77986cfc5" x="230.133586" y="354.49" style="stroke: #000000; stroke-width: 0.8"/>
      </g>
     </g>
    </g>
    <g id="xtick_12">
     <g id="line2d_37">
      <path d="M 303.34697 354.49 
L 303.34697 217.935 
" clip-path="url(#p99708eb3c8)" style="fill: none; stroke: #b0b0b0; stroke-width: 0.3; stroke-linecap: square"/>
     </g>
     <g id="line2d_38">
      <g>
       <use xlink:href="#mf77986cfc5" x="303.34697" y="354.49" style="stroke: #000000; stroke-width: 0.8"/>
      </g>
     </g>
    </g>
    <g id="xtick_13">
     <g id="line2d_39">
      <path d="M 376.560354 354.49 
L 376.560354 217.935 
" clip-path="url(#p99708eb3c8)" style="fill: none; stroke: #b0b0b0; stroke-width: 0.3; stroke-linecap: square"/>
     </g>
     <g id="line2d_40">
      <g>
       <use xlink:href="#mf77986cfc5" x="376.560354" y="354.49" style="stroke: #000000; stroke-width: 0.8"/>
      </g>
     </g>
    </g>
    <g id="xtick_14">
     <g id="line2d_41">
      <path d="M 449.773737 354.49 
L 449.773737 217.935 
" clip-path="url(#p99708eb3c8)" style="fill: none; stroke: #b0b0b0; stroke-width: 0.3; stroke-linecap: square"/>
     </g>
     <g id="line2d_42">
      <g>
       <use xlink:href="#mf77986cfc5" x="449.773737" y="354.49" style="stroke: #000000; stroke-width: 0.8"/>
      </g>
     </g>
    </g>
    <g id="xtick_15">
     <g id="line2d_43">
      <path d="M 522.987121 354.49 
L 522.987121 217.935 
" clip-path="url(#p99708eb3c8)" style="fill: none; stroke: #b0b0b0; stroke-width: 0.3; stroke-linecap: square"/>
     </g>
     <g id="line2d_44">
      <g>
       <use xlink:href="#mf77986cfc5" x="522.987121" y="354.49" style="stroke: #000000; stroke-width: 0.8"/>
      </g>
     </g>
    </g>
    <g id="xtick_16">
     <g id="line2d_45">
      <path d="M 596.200505 354.49 
L 596.200505 217.935 
" clip-path="url(#p99708eb3c8)" style="fill: none; stroke: #b0b0b0; stroke-width: 0.3; stroke-linecap: square"/>
     </g>
     <g id="line2d_46">
      <g>
       <use xlink:href="#mf77986cfc5" x="596.200505" y="354.49" style="stroke: #000000; stroke-width: 0.8"/>
      </g>
     </g>
    </g>
   </g>
   <g id="matplotlib.axis_4">
    <g id="ytick_5">
     <g id="line2d_47">
      <path d="M 57.35 320.539062 
L 637.2 320.539062 
" clip-path="url(#p99708eb3c8)" style="fill: none; stroke: #b0b0b0; stroke-width: 0.3; stroke-linecap: square"/>
     </g>
     <g id="line2d_48">
      <g>
       <use xlink:href="#maad49074f5" x="57.35" y="320.539062" style="stroke: #000000; stroke-width: 0.8"/>
      </g>
     </g>
     <g id="text_9">
      <!-- −0.5 -->
      <g transform="translate(26.067188 324.338281) scale(0.1 -0.1)">
       <defs>
        <path id="DejaVuSans-2212" d="M 678 2272 
L 4684 2272 
L 4684 1741 
L 678 1741 
L 678 2272 
z
" transform="scale(0.015625)"/>
        <path id="DejaVuSans-2e" d="M 684 794 
L 1344 794 
L 1344 0 
L 684 0 
L 684 794 
z
" transform="scale(0.015625)"/>
       </defs>
       <use xlink:href="#DejaVuSans-2212"/>
       <use xlink:href="#DejaVuSans-30" transform="translate(83.789062 0)"/>
       <use xlink:href="#DejaVuSans-2e" transform="translate(147.412109 0)"/>
       <use xlink:href="#DejaVuSans-35" transform="translate(179.199219 0)"/>
      </g>
     </g>
    </g>
    <g id="ytick_6">
     <g id="line2d_49">
      <path d="M 57.35 286.257812 
L 637.2 286.257812 
" clip-path="url(#p99708eb3c8)" style="fill: none; stroke: #b0b0b0; stroke-width: 0.3; stroke-linecap: square"/>
     </g>
     <g id="line2d_50">
      <g>
       <use xlink:href="#maad49074f5" x="57.35" y="286.257812" style="stroke: #000000; stroke-width: 0.8"/>
      </g>
     </g>
     <g id="text_10">
      <!-- −0.0 -->
      <g transform="translate(26.067188 290.057031) scale(0.1 -0.1)">
       <use xlink:href="#DejaVuSans-2212"/>
       <use xlink:href="#DejaVuSans-30" transform="translate(83.789062 0)"/>
       <use xlink:href="#DejaVuSans-2e" transform="translate(147.412109 0)"/>
       <use xlink:href="#DejaVuSans-30" transform="translate(179.199219 0)"/>
      </g>
     </g>
    </g>
    <g id="ytick_7">
     <g id="line2d_51">
      <path d="M 57.35 251.992188 
L 637.2 251.992188 
" clip-path="url(#p99708eb3c8)" style="fill: none; stroke: #b0b0b0; stroke-width: 0.3; stroke-linecap: square"/>
     </g>
     <g id="line2d_52">
      <g>
       <use xlink:href="#maad49074f5" x="57.35" y="251.992188" style="stroke: #000000; stroke-width: 0.8"/>
      </g>
     </g>
     <g id="text_11">
      <!-- 0.5 -->
      <g transform="translate(34.446875 255.791406) scale(0.1 -0.1)">
       <use xlink:href="#DejaVuSans-30"/>
       <use xlink:href="#DejaVuSans-2e" transform="translate(63.623047 0)"/>
       <use xlink:href="#DejaVuSans-35" transform="translate(95.410156 0)"/>
      </g>
     </g>
    </g>
    <g id="text_12">
     <!-- Inclination [deg] -->
     <g transform="translate(19.9875 327.109375) rotate(-90) scale(0.1 -0.1)">
      <defs>
       <path id="DejaVuSans-49" d="M 628 4666 
L 1259 4666 
L 1259 0 
L 628 0 
L 628 4666 
z
" transform="scale(0.015625)"/>
       <path id="DejaVuSans-6e" d="M 3513 2113 
L 3513 0 
L 2938 0 
L 2938 2094 
Q 2938 2591 2744 2837 
Q 2550 3084 2163 3084 
Q 1697 3084 1428 2787 
Q 1159 2491 1159 1978 
L 1159 0 
L 581 0 
L 581 3500 
L 1159 3500 
L 1159 2956 
Q 1366 3272 1645 3428 
Q 1925 3584 2291 3584 
Q 2894 3584 3203 3211 
Q 3513 2838 3513 2113 
z
" transform="scale(0.015625)"/>
       <path id="DejaVuSans-63" d="M 3122 3366 
L 3122 2828 
Q 2878 2963 2633 3030 
Q 2388 3097 2138 3097 
Q 1578 3097 1268 2742 
Q 959 2388 959 1747 
Q 959 1106 1268 751 
Q 1578 397 2138 397 
Q 2388 397 2633 464 
Q 2878 531 3122 666 
L 3122 134 
Q 2881 22 2623 -34 
Q 2366 -91 2075 -91 
Q 1284 -91 818 406 
Q 353 903 353 1747 
Q 353 2603 823 3093 
Q 1294 3584 2113 3584 
Q 2378 3584 2631 3529 
Q 2884 3475 3122 3366 
z
" transform="scale(0.015625)"/>
       <path id="DejaVuSans-6c" d="M 603 4863 
L 1178 4863 
L 1178 0 
L 603 0 
L 603 4863 
z
" transform="scale(0.015625)"/>
       <path id="DejaVuSans-74" d="M 1172 4494 
L 1172 3500 
L 2356 3500 
L 2356 3053 
L 1172 3053 
L 1172 1153 
Q 1172 725 1289 603 
Q 1406 481 1766 481 
L 2356 481 
L 2356 0 
L 1766 0 
Q 1100 0 847 248 
Q 594 497 594 1153 
L 594 3053 
L 172 3053 
L 172 3500 
L 594 3500 
L 594 4494 
L 1172 4494 
z
" transform="scale(0.015625)"/>
       <path id="DejaVuSans-64" d="M 2906 2969 
L 2906 4863 
L 3481 4863 
L 3481 0 
L 2906 0 
L 2906 525 
Q 2725 213 2448 61 
Q 2172 -91 1784 -91 
Q 1150 -91 751 415 
Q 353 922 353 1747 
Q 353 2572 751 3078 
Q 1150 3584 1784 3584 
Q 2172 3584 2448 3432 
Q 2725 3281 2906 2969 
z
M 947 1747 
Q 947 1113 1208 752 
Q 1469 391 1925 391 
Q 2381 391 2643 752 
Q 2906 1113 2906 1747 
Q 2906 2381 2643 2742 
Q 2381 3103 1925 3103 
Q 1469 3103 1208 2742 
Q 947 2381 947 1747 
z
" transform="scale(0.015625)"/>
       <path id="DejaVuSans-67" d="M 2906 1791 
Q 2906 2416 2648 2759 
Q 2391 3103 1925 3103 
Q 1463 3103 1205 2759 
Q 947 2416 947 1791 
Q 947 1169 1205 825 
Q 1463 481 1925 481 
Q 2391 481 2648 825 
Q 2906 1169 2906 1791 
z
M 3481 434 
Q 3481 -459 3084 -895 
Q 2688 -1331 1869 -1331 
Q 1566 -1331 1297 -1286 
Q 1028 -1241 775 -1147 
L 775 -588 
Q 1028 -725 1275 -790 
Q 1522 -856 1778 -856 
Q 2344 -856 2625 -561 
Q 2906 -266 2906 331 
L 2906 616 
Q 2728 306 2450 153 
Q 2172 0 1784 0 
Q 1141 0 747 490 
Q 353 981 353 1791 
Q 353 2603 747 3093 
Q 1141 3584 1784 3584 
Q 2172 3584 2450 3431 
Q 2728 3278 2906 2969 
L 2906 3500 
L 3481 3500 
L 3481 434 
z
" transform="scale(0.015625)"/>
      </defs>
      <use xlink:href="#DejaVuSans-49"/>
      <use xlink:href="#DejaVuSans-6e" transform="translate(29.492188 0)"/>
      <use xlink:href="#DejaVuSans-63" transform="translate(92.871094 0)"/>
      <use xlink:href="#DejaVuSans-6c" transform="translate(147.851562 0)"/>
      <use xlink:href="#DejaVuSans-69" transform="translate(175.634766 0)"/>
      <use xlink:href="#DejaVuSans-6e" transform="translate(203.417969 0)"/>
      <use xlink:href="#DejaVuSans-61" transform="translate(266.796875 0)"/>
      <use xlink:href="#DejaVuSans-74" transform="translate(328.076172 0)"/>
      <use xlink:href="#DejaVuSans-69" transform="translate(367.285156 0)"/>
      <use xlink:href="#DejaVuSans-6f" transform="translate(395.068359 0)"/>
      <use xlink:href="#DejaVuSans-6e" transform="translate(456.25 0)"/>
      <use xlink:href="#DejaVuSans-20" transform="translate(519.628906 0)"/>
      <use xlink:href="#DejaVuSans-5b" transform="translate(551.416016 0)"/>
      <use xlink:href="#DejaVuSans-64" transform="translate(590.429688 0)"/>
      <use xlink:href="#DejaVuSans-65" transform="translate(653.90625 0)"/>
      <use xlink:href="#DejaVuSans-67" transform="translate(715.429688 0)"/>
      <use xlink:href="#DejaVuSans-5d" transform="translate(778.90625 0)"/>
     </g>
    </g>
    <g id="text_13">
     <!-- 1e−10+9.77e1 -->
     <g transform="translate(57.35 214.935) scale(0.1 -0.1)">
      <defs>
       <path id="DejaVuSans-2b" d="M 2944 4013 
L 2944 2272 
L 4684 2272 
L 4684 1741 
L 2944 1741 
L 2944 0 
L 2419 0 
L 2419 1741 
L 678 1741 
L 678 2272 
L 2419 2272 
L 2419 4013 
L 2944 4013 
z
" transform="scale(0.015625)"/>
       <path id="DejaVuSans-37" d="M 525 4666 
L 3525 4666 
L 3525 4397 
L 1831 0 
L 1172 0 
L 2766 4134 
L 525 4134 
L 525 4666 
z
" transform="scale(0.015625)"/>
      </defs>
      <use xlink:href="#DejaVuSans-31"/>
      <use xlink:href="#DejaVuSans-65" transform="translate(63.623047 0)"/>
      <use xlink:href="#DejaVuSans-2212" transform="translate(125.146484 0)"/>
      <use xlink:href="#DejaVuSans-31" transform="translate(208.935547 0)"/>
      <use xlink:href="#DejaVuSans-30" transform="translate(272.558594 0)"/>
      <use xlink:href="#DejaVuSans-2b" transform="translate(336.181641 0)"/>
      <use xlink:href="#DejaVuSans-39" transform="translate(419.970703 0)"/>
      <use xlink:href="#DejaVuSans-2e" transform="translate(483.59375 0)"/>
      <use xlink:href="#DejaVuSans-37" transform="translate(515.380859 0)"/>
      <use xlink:href="#DejaVuSans-37" transform="translate(579.003906 0)"/>
      <use xlink:href="#DejaVuSans-65" transform="translate(642.626953 0)"/>
      <use xlink:href="#DejaVuSans-31" transform="translate(704.150391 0)"/>
     </g>
    </g>
   </g>
   <g id="line2d_53">
    <path d="M 83.706818 285.648438 
L 86.635354 286.039062 
L 89.563889 286.210938 
L 92.492424 285.59375 
L 95.42096 286.523438 
L 98.349495 286.789062 
L 101.27803 285.867188 
L 104.206566 286.445312 
L 107.135101 285.84375 
L 110.063636 285.78125 
L 112.992172 286.6875 
L 115.920707 286.914062 
L 121.777778 285.59375 
L 124.706313 286.015625 
L 127.634848 286.648438 
L 130.563384 286.078125 
L 133.491919 285.898438 
L 136.420455 286.539062 
L 139.34899 286.71875 
L 142.277525 286.085938 
L 145.206061 286.21875 
L 148.134596 286.851562 
L 151.063131 286.007812 
L 153.991667 286.171875 
L 156.920202 286.210938 
L 159.848737 285.507812 
L 162.777273 285.976562 
L 168.634343 286.171875 
L 171.562879 287.210938 
L 174.491414 287.023438 
L 180.348485 285.648438 
L 183.27702 285.8125 
L 186.205556 286.523438 
L 189.134091 286.335938 
L 194.991162 286.484375 
L 197.919697 285.867188 
L 200.848232 285.578125 
L 203.776768 286.476562 
L 206.705303 286.851562 
L 209.633838 285.867188 
L 212.562374 286.203125 
L 215.490909 286.921875 
L 218.419444 286.203125 
L 221.34798 285.773438 
L 224.276515 286.382812 
L 227.205051 286.359375 
L 230.133586 285.84375 
L 233.062121 286.609375 
L 235.990657 286.054688 
L 241.847727 286.203125 
L 244.776263 286.210938 
L 247.704798 286.414062 
L 250.633333 286.335938 
L 253.561869 286.523438 
L 256.490404 285.90625 
L 265.27601 286.539062 
L 271.133081 285.945312 
L 274.061616 286.476562 
L 276.990152 286.140625 
L 279.918687 285.976562 
L 282.847222 286.617188 
L 285.775758 286.5 
L 288.704293 286.007812 
L 291.632828 285.867188 
L 294.561364 286.75 
L 297.489899 285.867188 
L 300.418434 285.617188 
L 303.34697 286.101562 
L 306.275505 285.976562 
L 309.20404 286.960938 
L 312.132576 286.554688 
L 320.918182 286.171875 
L 323.846717 286.359375 
L 326.775253 286.054688 
L 329.703788 286.59375 
L 332.632323 286.945312 
L 335.560859 285.78125 
L 338.489394 285.484375 
L 341.417929 286.335938 
L 344.346465 286.578125 
L 347.275 286.445312 
L 350.203535 285.898438 
L 356.060606 286.101562 
L 358.989141 286.617188 
L 361.917677 286.6875 
L 364.846212 285.710938 
L 367.774747 285.84375 
L 370.703283 286.335938 
L 373.631818 286.6875 
L 376.560354 286.007812 
L 379.488889 286.117188 
L 382.417424 286.648438 
L 388.274495 286.476562 
L 391.20303 285.9375 
L 394.131566 285.9375 
L 397.060101 285.632812 
L 399.988636 286.304688 
L 402.917172 286.554688 
L 405.845707 286.5 
L 408.774242 286.757812 
L 411.702778 285.8125 
L 414.631313 285.8125 
L 417.559848 286.75 
L 420.488384 286.640625 
L 423.416919 285.8125 
L 426.345455 285.882812 
L 432.202525 286.617188 
L 438.059596 286.085938 
L 440.988131 286.515625 
L 443.916667 285.703125 
L 446.845202 286.359375 
L 449.773737 286.796875 
L 452.702273 286.039062 
L 455.630808 285.9375 
L 458.559343 286.117188 
L 461.487879 286.960938 
L 464.416414 286.335938 
L 467.344949 286.046875 
L 470.273485 286.101562 
L 473.20202 285.976562 
L 476.130556 286.171875 
L 481.987626 286.078125 
L 484.916162 286.789062 
L 487.844697 286.34375 
L 490.773232 285.703125 
L 493.701768 286.984375 
L 496.630303 286.28125 
L 499.558838 285.460938 
L 502.487374 286.554688 
L 505.415909 286.609375 
L 511.27298 285.898438 
L 514.201515 286.203125 
L 517.130051 286.375 
L 520.058586 286.101562 
L 522.987121 286.554688 
L 525.915657 286.015625 
L 528.844192 286.203125 
L 531.772727 286.960938 
L 537.629798 285.648438 
L 540.558333 285.710938 
L 543.486869 286.101562 
L 546.415404 286.789062 
L 549.343939 286.179688 
L 552.272475 285.867188 
L 555.20101 286.476562 
L 558.129545 285.921875 
L 561.058081 286.140625 
L 563.986616 287.09375 
L 566.915152 286.476562 
L 569.843687 285.40625 
L 572.772222 286.039062 
L 575.700758 286.796875 
L 581.557828 286.171875 
L 587.414899 286.382812 
L 590.343434 286.179688 
L 593.27197 286.171875 
L 596.200505 285.898438 
L 599.12904 286.21875 
L 602.057576 286.101562 
L 604.986111 286.304688 
L 607.914646 286.65625 
L 610.843182 286.171875 
L 610.843182 286.171875 
" clip-path="url(#p99708eb3c8)" style="fill: none; stroke: #440154; stroke-width: 1.5; stroke-linecap: square"/>
   </g>
   <g id="line2d_54">
    <path d="M 83.706818 286.523438 
L 92.492424 285.921875 
L 98.349495 286.851562 
L 101.27803 286.34375 
L 104.206566 286.28125 
L 107.135101 285.59375 
L 110.063636 285.40625 
L 112.992172 286.992188 
L 115.920707 286.6875 
L 118.849242 285.882812 
L 121.777778 286.304688 
L 127.634848 286.414062 
L 130.563384 286.039062 
L 133.491919 285.921875 
L 136.420455 286.359375 
L 139.34899 286.453125 
L 142.277525 286.140625 
L 145.206061 286.445312 
L 148.134596 286.609375 
L 151.063131 285.90625 
L 153.991667 286.140625 
L 156.920202 286.25 
L 159.848737 285.703125 
L 162.777273 286.304688 
L 165.705808 286.757812 
L 168.634343 286.054688 
L 171.562879 286.65625 
L 174.491414 286.320312 
L 177.419949 285.648438 
L 180.348485 286.476562 
L 183.27702 286.828125 
L 186.205556 286.335938 
L 189.134091 285.484375 
L 192.062626 285.976562 
L 194.991162 286.335938 
L 197.919697 285.867188 
L 203.776768 286.960938 
L 206.705303 286.414062 
L 209.633838 285.617188 
L 212.562374 286.5 
L 215.490909 286.828125 
L 218.419444 285.8125 
L 221.34798 285.921875 
L 224.276515 286.40625 
L 227.205051 286.210938 
L 230.133586 286.15625 
L 233.062121 286.578125 
L 235.990657 286.015625 
L 238.919192 286.28125 
L 241.847727 286.203125 
L 244.776263 286.304688 
L 247.704798 286.679688 
L 250.633333 286.21875 
L 253.561869 286.140625 
L 256.490404 286.304688 
L 259.418939 286.71875 
L 262.347475 285.976562 
L 265.27601 286.140625 
L 268.204545 286.039062 
L 271.133081 286.171875 
L 274.061616 286.554688 
L 276.990152 285.9375 
L 279.918687 286.210938 
L 282.847222 286.28125 
L 285.775758 286.007812 
L 288.704293 286.648438 
L 291.632828 286.359375 
L 294.561364 286.359375 
L 297.489899 285.882812 
L 300.418434 285.742188 
L 303.34697 286.179688 
L 306.275505 286.140625 
L 309.20404 286.914062 
L 317.989646 285.78125 
L 320.918182 286.34375 
L 323.846717 286.359375 
L 326.775253 285.84375 
L 329.703788 286.523438 
L 332.632323 286.828125 
L 335.560859 286.054688 
L 338.489394 285.8125 
L 341.417929 286.890625 
L 344.346465 286.476562 
L 347.275 285.8125 
L 350.203535 286.179688 
L 353.132071 286.382812 
L 356.060606 285.78125 
L 358.989141 285.84375 
L 361.917677 286.5 
L 364.846212 286.140625 
L 370.703283 286.554688 
L 373.631818 286.179688 
L 376.560354 286.007812 
L 379.488889 286.359375 
L 382.417424 286.84375 
L 388.274495 286.304688 
L 391.20303 285.609375 
L 394.131566 286.101562 
L 397.060101 285.976562 
L 399.988636 285.703125 
L 402.917172 286.726562 
L 405.845707 286.28125 
L 408.774242 286.726562 
L 411.702778 286.59375 
L 414.631313 285.9375 
L 420.488384 286.445312 
L 423.416919 286.523438 
L 426.345455 285.921875 
L 429.27399 286.085938 
L 432.202525 286.414062 
L 435.131061 286.25 
L 438.059596 286.359375 
L 440.988131 285.773438 
L 443.916667 285.578125 
L 446.845202 286.65625 
L 449.773737 286.640625 
L 452.702273 286.21875 
L 455.630808 286.046875 
L 461.487879 286.515625 
L 464.416414 286.320312 
L 467.344949 286.28125 
L 470.273485 286.085938 
L 473.20202 286.382812 
L 476.130556 285.78125 
L 479.059091 285.648438 
L 484.916162 286.796875 
L 487.844697 286.84375 
L 490.773232 286.203125 
L 493.701768 286.476562 
L 499.558838 285.765625 
L 502.487374 286.476562 
L 505.415909 286.476562 
L 508.344444 286.078125 
L 511.27298 285.898438 
L 522.987121 286.453125 
L 525.915657 286.28125 
L 528.844192 285.945312 
L 531.772727 286.554688 
L 534.701263 286.445312 
L 537.629798 285.742188 
L 540.558333 285.898438 
L 543.486869 286.515625 
L 546.415404 287.320312 
L 549.343939 285.84375 
L 552.272475 285.296875 
L 555.20101 286.789062 
L 558.129545 286.609375 
L 561.058081 286.15625 
L 563.986616 286.359375 
L 566.915152 286.039062 
L 572.772222 286.21875 
L 575.700758 286.578125 
L 578.629293 286.453125 
L 587.414899 285.8125 
L 590.343434 286.117188 
L 593.27197 286.648438 
L 596.200505 286.609375 
L 599.12904 286.140625 
L 602.057576 286.117188 
L 604.986111 286.476562 
L 607.914646 286.015625 
L 610.843182 285.023438 
L 610.843182 285.023438 
" clip-path="url(#p99708eb3c8)" style="fill: none; stroke: #21918c; stroke-width: 1.5; stroke-linecap: square"/>
   </g>
   <g id="line2d_55">
    <path d="M 83.706818 286.914062 
L 86.635354 286.453125 
L 89.563889 285.84375 
L 92.492424 285.921875 
L 98.349495 287.023438 
L 101.27803 286.648438 
L 107.135101 285.140625 
L 110.063636 286.007812 
L 112.992172 287.390625 
L 115.920707 286.539062 
L 118.849242 285.898438 
L 121.777778 285.9375 
L 124.706313 286.140625 
L 127.634848 286.648438 
L 133.491919 285.484375 
L 139.34899 286.609375 
L 142.277525 286.359375 
L 151.063131 286.609375 
L 153.991667 285.882812 
L 156.920202 286.085938 
L 159.848737 286.414062 
L 162.777273 286.21875 
L 168.634343 286.117188 
L 171.562879 286.960938 
L 177.419949 285.703125 
L 183.27702 286.375 
L 186.205556 286.375 
L 189.134091 286.140625 
L 192.062626 286.078125 
L 194.991162 286.242188 
L 200.848232 286.101562 
L 203.776768 286.59375 
L 206.705303 286.453125 
L 209.633838 285.484375 
L 212.562374 286.453125 
L 215.490909 287.148438 
L 218.419444 286.304688 
L 221.34798 285.78125 
L 224.276515 285.898438 
L 227.205051 286.453125 
L 230.133586 286.078125 
L 235.990657 286.179688 
L 238.919192 286.015625 
L 241.847727 286.203125 
L 244.776263 286.203125 
L 247.704798 286.773438 
L 253.561869 286.453125 
L 259.418939 285.945312 
L 262.347475 285.78125 
L 265.27601 286.320312 
L 268.204545 286.640625 
L 271.133081 285.882812 
L 274.061616 286.203125 
L 276.990152 286.007812 
L 279.918687 286.453125 
L 282.847222 286.757812 
L 285.775758 285.617188 
L 288.704293 286.140625 
L 294.561364 286.648438 
L 297.489899 285.898438 
L 300.418434 285.632812 
L 303.34697 286.414062 
L 306.275505 286.476562 
L 309.20404 286.359375 
L 312.132576 286.59375 
L 315.061111 286.34375 
L 317.989646 285.804688 
L 320.918182 286.203125 
L 323.846717 286.054688 
L 326.775253 286.523438 
L 332.632323 286.851562 
L 335.560859 286.171875 
L 338.489394 285.945312 
L 341.417929 286.304688 
L 344.346465 286.078125 
L 347.275 286.453125 
L 353.132071 285.648438 
L 356.060606 286.078125 
L 358.989141 286.640625 
L 364.846212 286.28125 
L 367.774747 285.976562 
L 370.703283 285.9375 
L 373.631818 286.523438 
L 376.560354 286.25 
L 379.488889 286.140625 
L 385.34596 286.484375 
L 388.274495 286.679688 
L 391.20303 285.84375 
L 394.131566 286.242188 
L 397.060101 285.945312 
L 399.988636 285.921875 
L 402.917172 286.28125 
L 405.845707 286.453125 
L 408.774242 286.914062 
L 411.702778 286.203125 
L 414.631313 285.898438 
L 417.559848 285.84375 
L 420.488384 286.578125 
L 423.416919 286.640625 
L 426.345455 285.945312 
L 429.27399 286.71875 
L 432.202525 286.554688 
L 435.131061 286.046875 
L 438.059596 286.554688 
L 440.988131 285.703125 
L 443.916667 285.179688 
L 446.845202 286.726562 
L 449.773737 286.789062 
L 452.702273 285.648438 
L 455.630808 285.703125 
L 458.559343 286.476562 
L 461.487879 287.398438 
L 467.344949 285.703125 
L 470.273485 285.804688 
L 476.130556 286.445312 
L 481.987626 285.882812 
L 484.916162 286.640625 
L 487.844697 286.882812 
L 490.773232 286.101562 
L 493.701768 286.679688 
L 496.630303 285.773438 
L 499.558838 285.539062 
L 502.487374 286.65625 
L 505.415909 286.609375 
L 508.344444 286.28125 
L 511.27298 286.085938 
L 517.130051 286.445312 
L 520.058586 286.117188 
L 522.987121 286.007812 
L 525.915657 286.40625 
L 528.844192 285.976562 
L 531.772727 286.539062 
L 534.701263 286.335938 
L 537.629798 285.5 
L 540.558333 286.609375 
L 543.486869 286.554688 
L 546.415404 286.640625 
L 549.343939 286.15625 
L 552.272475 285.507812 
L 558.129545 286.5 
L 561.058081 286.773438 
L 563.986616 286.578125 
L 569.843687 285.367188 
L 572.772222 286.203125 
L 575.700758 286.796875 
L 578.629293 286.203125 
L 581.557828 285.945312 
L 584.486364 286.75 
L 590.343434 286.085938 
L 593.27197 285.976562 
L 599.12904 286.523438 
L 602.057576 285.617188 
L 604.986111 286.28125 
L 607.914646 286.6875 
L 610.843182 286.414062 
L 610.843182 286.414062 
" clip-path="url(#p99708eb3c8)" style="fill: none; stroke: #fde725; stroke-width: 1.5; stroke-linecap: square"/>
   </g>
   <g id="patch_9">
    <path d="M 57.35 354.492188 
L 57.35 217.9375 
" style="fill: none; stroke: #000000; stroke-width: 0.8; stroke-linejoin: miter; stroke-linecap: square"/>
   </g>
   <g id="patch_10">
    <path d="M 637.2 354.492188 
L 637.2 217.9375 
" style="fill: none; stroke: #000000; stroke-width: 0.8; stroke-linejoin: miter; stroke-linecap: square"/>
   </g>
   <g id="patch_11">
    <path d="M 57.35 354.49 
L 637.2 354.49 
" style="fill: none; stroke: #000000; stroke-width: 0.8; stroke-linejoin: miter; stroke-linecap: square"/>
   </g>
   <g id="patch_12">
    <path d="M 57.35 217.935 
L 637.2 217.935 
" style="fill: none; stroke: #000000; stroke-width: 0.8; stroke-linejoin: miter; stroke-linecap: square"/>
   </g>
  </g>
  <g id="axes_3">
   <g id="patch_13">
    <path d="M 57.35 516.265 
L 637.2 516.265 
L 637.2 379.71 
L 57.35 379.71 
z
" style="fill: #ffffff"/>
   </g>
   <g id="matplotlib.axis_5">
    <g id="xtick_17">
     <g id="line2d_56">
      <path d="M 83.706818 516.265 
L 83.706818 379.71 
" clip-path="url(#pc04c033955)" style="fill: none; stroke: #b0b0b0; stroke-width: 0.3; stroke-linecap: square"/>
     </g>
     <g id="line2d_57">
      <g>
       <use xlink:href="#mf77986cfc5" x="83.706818" y="516.265" style="stroke: #000000; stroke-width: 0.8"/>
      </g>
     </g>
    </g>
    <g id="xtick_18">
     <g id="line2d_58">
      <path d="M 156.920202 516.265 
L 156.920202 379.71 
" clip-path="url(#pc04c033955)" style="fill: none; stroke: #b0b0b0; stroke-width: 0.3; stroke-linecap: square"/>
     </g>
     <g id="line2d_59">
      <g>
       <use xlink:href="#mf77986cfc5" x="156.920202" y="516.265" style="stroke: #000000; stroke-width: 0.8"/>
      </g>
     </g>
    </g>
    <g id="xtick_19">
     <g id="line2d_60">
      <path d="M 230.133586 516.265 
L 230.133586 379.71 
" clip-path="url(#pc04c033955)" style="fill: none; stroke: #b0b0b0; stroke-width: 0.3; stroke-linecap: square"/>
     </g>
     <g id="line2d_61">
      <g>
       <use xlink:href="#mf77986cfc5" x="230.133586" y="516.265" style="stroke: #000000; stroke-width: 0.8"/>
      </g>
     </g>
    </g>
    <g id="xtick_20">
     <g id="line2d_62">
      <path d="M 303.34697 516.265 
L 303.34697 379.71 
" clip-path="url(#pc04c033955)" style="fill: none; stroke: #b0b0b0; stroke-width: 0.3; stroke-linecap: square"/>
     </g>
     <g id="line2d_63">
      <g>
       <use xlink:href="#mf77986cfc5" x="303.34697" y="516.265" style="stroke: #000000; stroke-width: 0.8"/>
      </g>
     </g>
    </g>
    <g id="xtick_21">
     <g id="line2d_64">
      <path d="M 376.560354 516.265 
L 376.560354 379.71 
" clip-path="url(#pc04c033955)" style="fill: none; stroke: #b0b0b0; stroke-width: 0.3; stroke-linecap: square"/>
     </g>
     <g id="line2d_65">
      <g>
       <use xlink:href="#mf77986cfc5" x="376.560354" y="516.265" style="stroke: #000000; stroke-width: 0.8"/>
      </g>
     </g>
    </g>
    <g id="xtick_22">
     <g id="line2d_66">
      <path d="M 449.773737 516.265 
L 449.773737 379.71 
" clip-path="url(#pc04c033955)" style="fill: none; stroke: #b0b0b0; stroke-width: 0.3; stroke-linecap: square"/>
     </g>
     <g id="line2d_67">
      <g>
       <use xlink:href="#mf77986cfc5" x="449.773737" y="516.265" style="stroke: #000000; stroke-width: 0.8"/>
      </g>
     </g>
    </g>
    <g id="xtick_23">
     <g id="line2d_68">
      <path d="M 522.987121 516.265 
L 522.987121 379.71 
" clip-path="url(#pc04c033955)" style="fill: none; stroke: #b0b0b0; stroke-width: 0.3; stroke-linecap: square"/>
     </g>
     <g id="line2d_69">
      <g>
       <use xlink:href="#mf77986cfc5" x="522.987121" y="516.265" style="stroke: #000000; stroke-width: 0.8"/>
      </g>
     </g>
    </g>
    <g id="xtick_24">
     <g id="line2d_70">
      <path d="M 596.200505 516.265 
L 596.200505 379.71 
" clip-path="url(#pc04c033955)" style="fill: none; stroke: #b0b0b0; stroke-width: 0.3; stroke-linecap: square"/>
     </g>
     <g id="line2d_71">
      <g>
       <use xlink:href="#mf77986cfc5" x="596.200505" y="516.265" style="stroke: #000000; stroke-width: 0.8"/>
      </g>
     </g>
    </g>
   </g>
   <g id="matplotlib.axis_6">
    <g id="ytick_8">
     <g id="line2d_72">
      <path d="M 57.35 503.34375 
L 637.2 503.34375 
" clip-path="url(#pc04c033955)" style="fill: none; stroke: #b0b0b0; stroke-width: 0.3; stroke-linecap: square"/>
     </g>
     <g id="line2d_73">
      <g>
       <use xlink:href="#maad49074f5" x="57.35" y="503.34375" style="stroke: #000000; stroke-width: 0.8"/>
      </g>
     </g>
     <g id="text_14">
      <!-- 40 -->
      <g transform="translate(37.625 507.142969) scale(0.1 -0.1)">
       <defs>
        <path id="DejaVuSans-34" d="M 2419 4116 
L 825 1625 
L 2419 1625 
L 2419 4116 
z
M 2253 4666 
L 3047 4666 
L 3047 1625 
L 3713 1625 
L 3713 1100 
L 3047 1100 
L 3047 0 
L 2419 0 
L 2419 1100 
L 313 1100 
L 313 1709 
L 2253 4666 
z
" transform="scale(0.015625)"/>
       </defs>
       <use xlink:href="#DejaVuSans-34"/>
       <use xlink:href="#DejaVuSans-30" transform="translate(63.623047 0)"/>
      </g>
     </g>
    </g>
    <g id="ytick_9">
     <g id="line2d_74">
      <path d="M 57.35 464.617188 
L 637.2 464.617188 
" clip-path="url(#pc04c033955)" style="fill: none; stroke: #b0b0b0; stroke-width: 0.3; stroke-linecap: square"/>
     </g>
     <g id="line2d_75">
      <g>
       <use xlink:href="#maad49074f5" x="57.35" y="464.617188" style="stroke: #000000; stroke-width: 0.8"/>
      </g>
     </g>
     <g id="text_15">
      <!-- 42 -->
      <g transform="translate(37.625 468.416406) scale(0.1 -0.1)">
       <use xlink:href="#DejaVuSans-34"/>
       <use xlink:href="#DejaVuSans-32" transform="translate(63.623047 0)"/>
      </g>
     </g>
    </g>
    <g id="ytick_10">
     <g id="line2d_76">
      <path d="M 57.35 425.882812 
L 637.2 425.882812 
" clip-path="url(#pc04c033955)" style="fill: none; stroke: #b0b0b0; stroke-width: 0.3; stroke-linecap: square"/>
     </g>
     <g id="line2d_77">
      <g>
       <use xlink:href="#maad49074f5" x="57.35" y="425.882812" style="stroke: #000000; stroke-width: 0.8"/>
      </g>
     </g>
     <g id="text_16">
      <!-- 44 -->
      <g transform="translate(37.625 429.682031) scale(0.1 -0.1)">
       <use xlink:href="#DejaVuSans-34"/>
       <use xlink:href="#DejaVuSans-34" transform="translate(63.623047 0)"/>
      </g>
     </g>
    </g>
    <g id="ytick_11">
     <g id="line2d_78">
      <path d="M 57.35 387.164062 
L 637.2 387.164062 
" clip-path="url(#pc04c033955)" style="fill: none; stroke: #b0b0b0; stroke-width: 0.3; stroke-linecap: square"/>
     </g>
     <g id="line2d_79">
      <g>
       <use xlink:href="#maad49074f5" x="57.35" y="387.164062" style="stroke: #000000; stroke-width: 0.8"/>
      </g>
     </g>
     <g id="text_17">
      <!-- 46 -->
      <g transform="translate(37.625 390.963281) scale(0.1 -0.1)">
       <use xlink:href="#DejaVuSans-34"/>
       <use xlink:href="#DejaVuSans-36" transform="translate(63.623047 0)"/>
      </g>
     </g>
    </g>
    <g id="text_18">
     <!-- RAAN [deg] -->
     <g transform="translate(31.545313 476.896094) rotate(-90) scale(0.1 -0.1)">
      <defs>
       <path id="DejaVuSans-52" d="M 2841 2188 
Q 3044 2119 3236 1894 
Q 3428 1669 3622 1275 
L 4263 0 
L 3584 0 
L 2988 1197 
Q 2756 1666 2539 1819 
Q 2322 1972 1947 1972 
L 1259 1972 
L 1259 0 
L 628 0 
L 628 4666 
L 2053 4666 
Q 2853 4666 3247 4331 
Q 3641 3997 3641 3322 
Q 3641 2881 3436 2590 
Q 3231 2300 2841 2188 
z
M 1259 4147 
L 1259 2491 
L 2053 2491 
Q 2509 2491 2742 2702 
Q 2975 2913 2975 3322 
Q 2975 3731 2742 3939 
Q 2509 4147 2053 4147 
L 1259 4147 
z
" transform="scale(0.015625)"/>
       <path id="DejaVuSans-4e" d="M 628 4666 
L 1478 4666 
L 3547 763 
L 3547 4666 
L 4159 4666 
L 4159 0 
L 3309 0 
L 1241 3903 
L 1241 0 
L 628 0 
L 628 4666 
z
" transform="scale(0.015625)"/>
      </defs>
      <use xlink:href="#DejaVuSans-52"/>
      <use xlink:href="#DejaVuSans-41" transform="translate(65.482422 0)"/>
      <use xlink:href="#DejaVuSans-41" transform="translate(136.640625 0)"/>
      <use xlink:href="#DejaVuSans-4e" transform="translate(205.048828 0)"/>
      <use xlink:href="#DejaVuSans-20" transform="translate(279.853516 0)"/>
      <use xlink:href="#DejaVuSans-5b" transform="translate(311.640625 0)"/>
      <use xlink:href="#DejaVuSans-64" transform="translate(350.654297 0)"/>
      <use xlink:href="#DejaVuSans-65" transform="translate(414.130859 0)"/>
      <use xlink:href="#DejaVuSans-67" transform="translate(475.654297 0)"/>
      <use xlink:href="#DejaVuSans-5d" transform="translate(539.130859 0)"/>
     </g>
    </g>
    <g id="text_19">
     <!-- 1e−10+3.50983817e2 -->
     <g transform="translate(57.35 376.71) scale(0.1 -0.1)">
      <use xlink:href="#DejaVuSans-31"/>
      <use xlink:href="#DejaVuSans-65" transform="translate(63.623047 0)"/>
      <use xlink:href="#DejaVuSans-2212" transform="translate(125.146484 0)"/>
      <use xlink:href="#DejaVuSans-31" transform="translate(208.935547 0)"/>
      <use xlink:href="#DejaVuSans-30" transform="translate(272.558594 0)"/>
      <use xlink:href="#DejaVuSans-2b" transform="translate(336.181641 0)"/>
      <use xlink:href="#DejaVuSans-33" transform="translate(419.970703 0)"/>
      <use xlink:href="#DejaVuSans-2e" transform="translate(483.59375 0)"/>
      <use xlink:href="#DejaVuSans-35" transform="translate(515.380859 0)"/>
      <use xlink:href="#DejaVuSans-30" transform="translate(579.003906 0)"/>
      <use xlink:href="#DejaVuSans-39" transform="translate(642.626953 0)"/>
      <use xlink:href="#DejaVuSans-38" transform="translate(706.25 0)"/>
      <use xlink:href="#DejaVuSans-33" transform="translate(769.873047 0)"/>
      <use xlink:href="#DejaVuSans-38" transform="translate(833.496094 0)"/>
      <use xlink:href="#DejaVuSans-31" transform="translate(897.119141 0)"/>
      <use xlink:href="#DejaVuSans-37" transform="translate(960.742188 0)"/>
      <use xlink:href="#DejaVuSans-65" transform="translate(1024.365234 0)"/>
      <use xlink:href="#DejaVuSans-32" transform="translate(1085.888672 0)"/>
     </g>
    </g>
   </g>
   <g id="line2d_80">
    <path d="M 83.706818 447.914062 
L 89.563889 448.015625 
L 92.492424 447.898438 
L 95.42096 448.0625 
L 98.349495 448.101562 
L 101.27803 447.953125 
L 104.206566 448.046875 
L 110.063636 447.9375 
L 115.920707 448.140625 
L 121.777778 447.898438 
L 127.634848 448.078125 
L 133.491919 447.960938 
L 139.34899 448.09375 
L 145.206061 448.015625 
L 148.134596 448.125 
L 151.063131 447.96875 
L 156.920202 448.015625 
L 159.848737 447.898438 
L 174.491414 448.148438 
L 180.348485 447.90625 
L 194.991162 448.046875 
L 200.848232 447.898438 
L 206.705303 448.140625 
L 209.633838 447.953125 
L 215.490909 448.140625 
L 221.34798 447.9375 
L 224.276515 448.046875 
L 262.347475 448.039062 
L 268.204545 448.023438 
L 271.133081 447.960938 
L 274.061616 448.0625 
L 279.918687 447.953125 
L 282.847222 448.078125 
L 291.632828 447.953125 
L 294.561364 448.125 
L 300.418434 447.882812 
L 303.34697 447.984375 
L 306.275505 447.96875 
L 309.20404 448.15625 
L 317.989646 448.023438 
L 329.703788 448.09375 
L 332.632323 448.15625 
L 335.560859 447.929688 
L 338.489394 447.851562 
L 341.417929 448.039062 
L 347.275 448.046875 
L 353.132071 447.96875 
L 361.917677 448.117188 
L 364.846212 447.90625 
L 370.703283 448.039062 
L 373.631818 448.117188 
L 376.560354 447.960938 
L 388.274495 448.0625 
L 394.131566 447.953125 
L 397.060101 447.882812 
L 399.988636 448.039062 
L 408.774242 448.140625 
L 411.702778 447.929688 
L 414.631313 447.9375 
L 417.559848 448.140625 
L 420.488384 448.09375 
L 423.416919 447.914062 
L 429.27399 448.023438 
L 432.202525 448.101562 
L 438.059596 447.984375 
L 440.988131 448.078125 
L 443.916667 447.898438 
L 449.773737 448.140625 
L 452.702273 447.96875 
L 458.559343 447.992188 
L 461.487879 448.179688 
L 467.344949 447.96875 
L 487.844697 448.039062 
L 490.773232 447.898438 
L 493.701768 448.195312 
L 499.558838 447.851562 
L 502.487374 448.09375 
L 508.344444 448.023438 
L 511.27298 447.9375 
L 517.130051 448.046875 
L 520.058586 447.96875 
L 522.987121 448.09375 
L 525.915657 447.953125 
L 531.772727 448.179688 
L 537.629798 447.859375 
L 543.486869 447.992188 
L 546.415404 448.148438 
L 552.272475 447.929688 
L 555.20101 448.0625 
L 558.129545 447.953125 
L 561.058081 448.007812 
L 563.986616 448.226562 
L 569.843687 447.804688 
L 575.700758 448.148438 
L 584.486364 448.023438 
L 593.27197 448.007812 
L 596.200505 447.929688 
L 599.12904 448.015625 
L 604.986111 448.023438 
L 607.914646 448.117188 
L 610.843182 447.992188 
L 610.843182 447.992188 
" clip-path="url(#pc04c033955)" style="fill: none; stroke: #440154; stroke-width: 1.5; stroke-linecap: square"/>
   </g>
   <g id="line2d_81">
    <path d="M 83.706818 448.0625 
L 95.42096 448.039062 
L 98.349495 448.125 
L 107.135101 447.898438 
L 110.063636 447.875 
L 112.992172 448.15625 
L 121.777778 448.039062 
L 174.491414 448.023438 
L 177.419949 447.90625 
L 183.27702 448.140625 
L 189.134091 447.875 
L 194.991162 448.039062 
L 197.919697 447.953125 
L 203.776768 448.140625 
L 209.633838 447.898438 
L 215.490909 448.140625 
L 218.419444 447.9375 
L 250.633333 448.015625 
L 256.490404 448.023438 
L 259.418939 448.117188 
L 262.347475 447.960938 
L 274.061616 448.070312 
L 276.990152 447.953125 
L 282.847222 448.015625 
L 285.775758 447.96875 
L 288.704293 448.09375 
L 300.418434 447.929688 
L 309.20404 448.148438 
L 320.918182 448.039062 
L 388.274495 448.023438 
L 391.20303 447.875 
L 394.131566 447.984375 
L 399.988636 447.898438 
L 402.917172 448.140625 
L 405.845707 448.023438 
L 408.774242 448.125 
L 420.488384 448.046875 
L 423.416919 448.078125 
L 426.345455 447.953125 
L 438.059596 448.039062 
L 443.916667 447.859375 
L 446.845202 448.101562 
L 473.20202 448.046875 
L 479.059091 447.875 
L 484.916162 448.148438 
L 487.844697 448.15625 
L 490.773232 448.015625 
L 493.701768 448.070312 
L 499.558838 447.898438 
L 502.487374 448.070312 
L 540.558333 447.929688 
L 546.415404 448.265625 
L 549.343939 447.929688 
L 552.272475 447.78125 
L 555.20101 448.148438 
L 569.843687 447.984375 
L 581.557828 448.007812 
L 587.414899 447.898438 
L 596.200505 448.117188 
L 599.12904 447.984375 
L 607.914646 447.960938 
L 610.843182 447.710938 
L 610.843182 447.710938 
" clip-path="url(#pc04c033955)" style="fill: none; stroke: #21918c; stroke-width: 1.5; stroke-linecap: square"/>
   </g>
   <g id="line2d_82">
    <path d="M 83.706818 448.125 
L 92.492424 447.953125 
L 98.349495 448.148438 
L 104.206566 447.953125 
L 107.135101 447.828125 
L 112.992172 448.210938 
L 118.849242 447.960938 
L 124.706313 447.992188 
L 127.634848 448.09375 
L 133.491919 447.882812 
L 139.34899 448.078125 
L 148.134596 448.070312 
L 151.063131 448.078125 
L 153.991667 447.953125 
L 165.705808 448.015625 
L 168.634343 447.992188 
L 171.562879 448.148438 
L 177.419949 447.914062 
L 186.205556 448.039062 
L 192.062626 447.984375 
L 206.705303 448.046875 
L 209.633838 447.882812 
L 215.490909 448.179688 
L 221.34798 447.9375 
L 253.561869 448.046875 
L 262.347475 447.9375 
L 268.204545 448.09375 
L 271.133081 447.9375 
L 274.061616 448.015625 
L 276.990152 447.96875 
L 282.847222 448.117188 
L 285.775758 447.898438 
L 294.561364 448.09375 
L 300.418434 447.898438 
L 303.34697 448.046875 
L 350.203535 447.984375 
L 353.132071 447.898438 
L 361.917677 448.070312 
L 370.703283 447.953125 
L 373.631818 448.078125 
L 379.488889 448.007812 
L 388.274495 448.117188 
L 391.20303 447.9375 
L 394.131566 448.015625 
L 399.988636 447.953125 
L 408.774242 448.15625 
L 414.631313 447.9375 
L 417.559848 447.929688 
L 420.488384 448.09375 
L 423.416919 448.09375 
L 426.345455 447.953125 
L 429.27399 448.125 
L 438.059596 448.09375 
L 443.916667 447.773438 
L 446.845202 448.125 
L 449.773737 448.140625 
L 452.702273 447.898438 
L 455.630808 447.898438 
L 461.487879 448.265625 
L 467.344949 447.898438 
L 473.20202 448.007812 
L 476.130556 448.0625 
L 481.987626 447.9375 
L 484.916162 448.117188 
L 487.844697 448.171875 
L 490.773232 447.984375 
L 493.701768 448.125 
L 496.630303 447.898438 
L 499.558838 447.851562 
L 502.487374 448.125 
L 522.987121 447.953125 
L 525.915657 448.046875 
L 528.844192 447.953125 
L 531.772727 448.09375 
L 534.701263 448.039062 
L 537.629798 447.835938 
L 540.558333 448.09375 
L 546.415404 448.125 
L 552.272475 447.851562 
L 561.058081 448.140625 
L 566.915152 447.9375 
L 569.843687 447.796875 
L 575.700758 448.15625 
L 581.557828 447.9375 
L 584.486364 448.140625 
L 593.27197 447.9375 
L 599.12904 448.09375 
L 602.057576 447.851562 
L 607.914646 448.140625 
L 610.843182 448.0625 
L 610.843182 448.0625 
" clip-path="url(#pc04c033955)" style="fill: none; stroke: #fde725; stroke-width: 1.5; stroke-linecap: square"/>
   </g>
   <g id="patch_14">
    <path d="M 57.35 516.265625 
L 57.35 379.710938 
" style="fill: none; stroke: #000000; stroke-width: 0.8; stroke-linejoin: miter; stroke-linecap: square"/>
   </g>
   <g id="patch_15">
    <path d="M 637.2 516.265625 
L 637.2 379.710938 
" style="fill: none; stroke: #000000; stroke-width: 0.8; stroke-linejoin: miter; stroke-linecap: square"/>
   </g>
   <g id="patch_16">
    <path d="M 57.35 516.265 
L 637.2 516.265 
" style="fill: none; stroke: #000000; stroke-width: 0.8; stroke-linejoin: miter; stroke-linecap: square"/>
   </g>
   <g id="patch_17">
    <path d="M 57.35 379.71 
L 637.2 379.71 
" style="fill: none; stroke: #000000; stroke-width: 0.8; stroke-linejoin: miter; stroke-linecap: square"/>
   </g>
  </g>
  <g id="axes_4">
   <g id="patch_18">
    <path d="M 57.35 678.04 
L 637.2 678.04 
L 637.2 541.485 
L 57.35 541.485 
z
" style="fill: #ffffff"/>
   </g>
   <g id="matplotlib.axis_7">
    <g id="xtick_25">
     <g id="line2d_83">
      <path d="M 83.706818 678.04 
L 83.706818 541.485 
" clip-path="url(#p121f8568cd)" style="fill: none; stroke: #b0b0b0; stroke-width: 0.3; stroke-linecap: square"/>
     </g>
     <g id="line2d_84">
      <g>
       <use xlink:href="#mf77986cfc5" x="83.706818" y="678.04" style="stroke: #000000; stroke-width: 0.8"/>
      </g>
     </g>
     <g id="text_20">
      <!-- 0 -->
      <g transform="translate(80.525568 692.638437) scale(0.1 -0.1)">
       <use xlink:href="#DejaVuSans-30"/>
      </g>
     </g>
    </g>
    <g id="xtick_26">
     <g id="line2d_85">
      <path d="M 156.920202 678.04 
L 156.920202 541.485 
" clip-path="url(#p121f8568cd)" style="fill: none; stroke: #b0b0b0; stroke-width: 0.3; stroke-linecap: square"/>
     </g>
     <g id="line2d_86">
      <g>
       <use xlink:href="#mf77986cfc5" x="156.920202" y="678.04" style="stroke: #000000; stroke-width: 0.8"/>
      </g>
     </g>
     <g id="text_21">
      <!-- 25 -->
      <g transform="translate(150.557702 692.638437) scale(0.1 -0.1)">
       <use xlink:href="#DejaVuSans-32"/>
       <use xlink:href="#DejaVuSans-35" transform="translate(63.623047 0)"/>
      </g>
     </g>
    </g>
    <g id="xtick_27">
     <g id="line2d_87">
      <path d="M 230.133586 678.04 
L 230.133586 541.485 
" clip-path="url(#p121f8568cd)" style="fill: none; stroke: #b0b0b0; stroke-width: 0.3; stroke-linecap: square"/>
     </g>
     <g id="line2d_88">
      <g>
       <use xlink:href="#mf77986cfc5" x="230.133586" y="678.04" style="stroke: #000000; stroke-width: 0.8"/>
      </g>
     </g>
     <g id="text_22">
      <!-- 50 -->
      <g transform="translate(223.771086 692.638437) scale(0.1 -0.1)">
       <use xlink:href="#DejaVuSans-35"/>
       <use xlink:href="#DejaVuSans-30" transform="translate(63.623047 0)"/>
      </g>
     </g>
    </g>
    <g id="xtick_28">
     <g id="line2d_89">
      <path d="M 303.34697 678.04 
L 303.34697 541.485 
" clip-path="url(#p121f8568cd)" style="fill: none; stroke: #b0b0b0; stroke-width: 0.3; stroke-linecap: square"/>
     </g>
     <g id="line2d_90">
      <g>
       <use xlink:href="#mf77986cfc5" x="303.34697" y="678.04" style="stroke: #000000; stroke-width: 0.8"/>
      </g>
     </g>
     <g id="text_23">
      <!-- 75 -->
      <g transform="translate(296.98447 692.638437) scale(0.1 -0.1)">
       <use xlink:href="#DejaVuSans-37"/>
       <use xlink:href="#DejaVuSans-35" transform="translate(63.623047 0)"/>
      </g>
     </g>
    </g>
    <g id="xtick_29">
     <g id="line2d_91">
      <path d="M 376.560354 678.04 
L 376.560354 541.485 
" clip-path="url(#p121f8568cd)" style="fill: none; stroke: #b0b0b0; stroke-width: 0.3; stroke-linecap: square"/>
     </g>
     <g id="line2d_92">
      <g>
       <use xlink:href="#mf77986cfc5" x="376.560354" y="678.04" style="stroke: #000000; stroke-width: 0.8"/>
      </g>
     </g>
     <g id="text_24">
      <!-- 100 -->
      <g transform="translate(367.016604 692.638437) scale(0.1 -0.1)">
       <use xlink:href="#DejaVuSans-31"/>
       <use xlink:href="#DejaVuSans-30" transform="translate(63.623047 0)"/>
       <use xlink:href="#DejaVuSans-30" transform="translate(127.246094 0)"/>
      </g>
     </g>
    </g>
    <g id="xtick_30">
     <g id="line2d_93">
      <path d="M 449.773737 678.04 
L 449.773737 541.485 
" clip-path="url(#p121f8568cd)" style="fill: none; stroke: #b0b0b0; stroke-width: 0.3; stroke-linecap: square"/>
     </g>
     <g id="line2d_94">
      <g>
       <use xlink:href="#mf77986cfc5" x="449.773737" y="678.04" style="stroke: #000000; stroke-width: 0.8"/>
      </g>
     </g>
     <g id="text_25">
      <!-- 125 -->
      <g transform="translate(440.229987 692.638437) scale(0.1 -0.1)">
       <use xlink:href="#DejaVuSans-31"/>
       <use xlink:href="#DejaVuSans-32" transform="translate(63.623047 0)"/>
       <use xlink:href="#DejaVuSans-35" transform="translate(127.246094 0)"/>
      </g>
     </g>
    </g>
    <g id="xtick_31">
     <g id="line2d_95">
      <path d="M 522.987121 678.04 
L 522.987121 541.485 
" clip-path="url(#p121f8568cd)" style="fill: none; stroke: #b0b0b0; stroke-width: 0.3; stroke-linecap: square"/>
     </g>
     <g id="line2d_96">
      <g>
       <use xlink:href="#mf77986cfc5" x="522.987121" y="678.04" style="stroke: #000000; stroke-width: 0.8"/>
      </g>
     </g>
     <g id="text_26">
      <!-- 150 -->
      <g transform="translate(513.443371 692.638437) scale(0.1 -0.1)">
       <use xlink:href="#DejaVuSans-31"/>
       <use xlink:href="#DejaVuSans-35" transform="translate(63.623047 0)"/>
       <use xlink:href="#DejaVuSans-30" transform="translate(127.246094 0)"/>
      </g>
     </g>
    </g>
    <g id="xtick_32">
     <g id="line2d_97">
      <path d="M 596.200505 678.04 
L 596.200505 541.485 
" clip-path="url(#p121f8568cd)" style="fill: none; stroke: #b0b0b0; stroke-width: 0.3; stroke-linecap: square"/>
     </g>
     <g id="line2d_98">
      <g>
       <use xlink:href="#mf77986cfc5" x="596.200505" y="678.04" style="stroke: #000000; stroke-width: 0.8"/>
      </g>
     </g>
     <g id="text_27">
      <!-- 175 -->
      <g transform="translate(586.656755 692.638437) scale(0.1 -0.1)">
       <use xlink:href="#DejaVuSans-31"/>
       <use xlink:href="#DejaVuSans-37" transform="translate(63.623047 0)"/>
       <use xlink:href="#DejaVuSans-35" transform="translate(127.246094 0)"/>
      </g>
     </g>
    </g>
    <g id="text_28">
     <!-- Elapsed time [s] -->
     <g transform="translate(306.652344 706.316562) scale(0.1 -0.1)">
      <defs>
       <path id="DejaVuSans-45" d="M 628 4666 
L 3578 4666 
L 3578 4134 
L 1259 4134 
L 1259 2753 
L 3481 2753 
L 3481 2222 
L 1259 2222 
L 1259 531 
L 3634 531 
L 3634 0 
L 628 0 
L 628 4666 
z
" transform="scale(0.015625)"/>
       <path id="DejaVuSans-70" d="M 1159 525 
L 1159 -1331 
L 581 -1331 
L 581 3500 
L 1159 3500 
L 1159 2969 
Q 1341 3281 1617 3432 
Q 1894 3584 2278 3584 
Q 2916 3584 3314 3078 
Q 3713 2572 3713 1747 
Q 3713 922 3314 415 
Q 2916 -91 2278 -91 
Q 1894 -91 1617 61 
Q 1341 213 1159 525 
z
M 3116 1747 
Q 3116 2381 2855 2742 
Q 2594 3103 2138 3103 
Q 1681 3103 1420 2742 
Q 1159 2381 1159 1747 
Q 1159 1113 1420 752 
Q 1681 391 2138 391 
Q 2594 391 2855 752 
Q 3116 1113 3116 1747 
z
" transform="scale(0.015625)"/>
      </defs>
      <use xlink:href="#DejaVuSans-45"/>
      <use xlink:href="#DejaVuSans-6c" transform="translate(63.183594 0)"/>
      <use xlink:href="#DejaVuSans-61" transform="translate(90.966797 0)"/>
      <use xlink:href="#DejaVuSans-70" transform="translate(152.246094 0)"/>
      <use xlink:href="#DejaVuSans-73" transform="translate(215.722656 0)"/>
      <use xlink:href="#DejaVuSans-65" transform="translate(267.822266 0)"/>
      <use xlink:href="#DejaVuSans-64" transform="translate(329.345703 0)"/>
      <use xlink:href="#DejaVuSans-20" transform="translate(392.822266 0)"/>
      <use xlink:href="#DejaVuSans-74" transform="translate(424.609375 0)"/>
      <use xlink:href="#DejaVuSans-69" transform="translate(463.818359 0)"/>
      <use xlink:href="#DejaVuSans-6d" transform="translate(491.601562 0)"/>
      <use xlink:href="#DejaVuSans-65" transform="translate(589.013672 0)"/>
      <use xlink:href="#DejaVuSans-20" transform="translate(650.537109 0)"/>
      <use xlink:href="#DejaVuSans-5b" transform="translate(682.324219 0)"/>
      <use xlink:href="#DejaVuSans-73" transform="translate(721.337891 0)"/>
      <use xlink:href="#DejaVuSans-5d" transform="translate(773.4375 0)"/>
     </g>
    </g>
   </g>
   <g id="matplotlib.axis_8">
    <g id="ytick_12">
     <g id="line2d_99">
      <path d="M 57.35 656.931251 
L 637.2 656.931251 
" clip-path="url(#p121f8568cd)" style="fill: none; stroke: #b0b0b0; stroke-width: 0.3; stroke-linecap: square"/>
     </g>
     <g id="line2d_100">
      <g>
       <use xlink:href="#maad49074f5" x="57.35" y="656.931251" style="stroke: #000000; stroke-width: 0.8"/>
      </g>
     </g>
     <g id="text_29">
      <!-- 50 -->
      <g transform="translate(37.625 660.730469) scale(0.1 -0.1)">
       <use xlink:href="#DejaVuSans-35"/>
       <use xlink:href="#DejaVuSans-30" transform="translate(63.623047 0)"/>
      </g>
     </g>
    </g>
    <g id="ytick_13">
     <g id="line2d_101">
      <path d="M 57.35 630.663977 
L 637.2 630.663977 
" clip-path="url(#p121f8568cd)" style="fill: none; stroke: #b0b0b0; stroke-width: 0.3; stroke-linecap: square"/>
     </g>
     <g id="line2d_102">
      <g>
       <use xlink:href="#maad49074f5" x="57.35" y="630.663977" style="stroke: #000000; stroke-width: 0.8"/>
      </g>
     </g>
     <g id="text_30">
      <!-- 100 -->
      <g transform="translate(31.2625 634.463196) scale(0.1 -0.1)">
       <use xlink:href="#DejaVuSans-31"/>
       <use xlink:href="#DejaVuSans-30" transform="translate(63.623047 0)"/>
       <use xlink:href="#DejaVuSans-30" transform="translate(127.246094 0)"/>
      </g>
     </g>
    </g>
    <g id="ytick_14">
     <g id="line2d_103">
      <path d="M 57.35 604.396704 
L 637.2 604.396704 
" clip-path="url(#p121f8568cd)" style="fill: none; stroke: #b0b0b0; stroke-width: 0.3; stroke-linecap: square"/>
     </g>
     <g id="line2d_104">
      <g>
       <use xlink:href="#maad49074f5" x="57.35" y="604.396704" style="stroke: #000000; stroke-width: 0.8"/>
      </g>
     </g>
     <g id="text_31">
      <!-- 150 -->
      <g transform="translate(31.2625 608.195923) scale(0.1 -0.1)">
       <use xlink:href="#DejaVuSans-31"/>
       <use xlink:href="#DejaVuSans-35" transform="translate(63.623047 0)"/>
       <use xlink:href="#DejaVuSans-30" transform="translate(127.246094 0)"/>
      </g>
     </g>
    </g>
    <g id="ytick_15">
     <g id="line2d_105">
      <path d="M 57.35 578.129431 
L 637.2 578.129431 
" clip-path="url(#p121f8568cd)" style="fill: none; stroke: #b0b0b0; stroke-width: 0.3; stroke-linecap: square"/>
     </g>
     <g id="line2d_106">
      <g>
       <use xlink:href="#maad49074f5" x="57.35" y="578.129431" style="stroke: #000000; stroke-width: 0.8"/>
      </g>
     </g>
     <g id="text_32">
      <!-- 200 -->
      <g transform="translate(31.2625 581.92865) scale(0.1 -0.1)">
       <use xlink:href="#DejaVuSans-32"/>
       <use xlink:href="#DejaVuSans-30" transform="translate(63.623047 0)"/>
       <use xlink:href="#DejaVuSans-30" transform="translate(127.246094 0)"/>
      </g>
     </g>
    </g>
    <g id="ytick_16">
     <g id="line2d_107">
      <path d="M 57.35 551.862158 
L 637.2 551.862158 
" clip-path="url(#p121f8568cd)" style="fill: none; stroke: #b0b0b0; stroke-width: 0.3; stroke-linecap: square"/>
     </g>
     <g id="line2d_108">
      <g>
       <use xlink:href="#maad49074f5" x="57.35" y="551.862158" style="stroke: #000000; stroke-width: 0.8"/>
      </g>
     </g>
     <g id="text_33">
      <!-- 250 -->
      <g transform="translate(31.2625 555.661377) scale(0.1 -0.1)">
       <use xlink:href="#DejaVuSans-32"/>
       <use xlink:href="#DejaVuSans-35" transform="translate(63.623047 0)"/>
       <use xlink:href="#DejaVuSans-30" transform="translate(127.246094 0)"/>
      </g>
     </g>
    </g>
    <g id="text_34">
     <!-- Argument of perigee [deg] -->
     <g transform="translate(25.182813 676.505469) rotate(-90) scale(0.1 -0.1)">
      <defs>
       <path id="DejaVuSans-75" d="M 544 1381 
L 544 3500 
L 1119 3500 
L 1119 1403 
Q 1119 906 1312 657 
Q 1506 409 1894 409 
Q 2359 409 2629 706 
Q 2900 1003 2900 1516 
L 2900 3500 
L 3475 3500 
L 3475 0 
L 2900 0 
L 2900 538 
Q 2691 219 2414 64 
Q 2138 -91 1772 -91 
Q 1169 -91 856 284 
Q 544 659 544 1381 
z
M 1991 3584 
L 1991 3584 
z
" transform="scale(0.015625)"/>
       <path id="DejaVuSans-66" d="M 2375 4863 
L 2375 4384 
L 1825 4384 
Q 1516 4384 1395 4259 
Q 1275 4134 1275 3809 
L 1275 3500 
L 2222 3500 
L 2222 3053 
L 1275 3053 
L 1275 0 
L 697 0 
L 697 3053 
L 147 3053 
L 147 3500 
L 697 3500 
L 697 3744 
Q 697 4328 969 4595 
Q 1241 4863 1831 4863 
L 2375 4863 
z
" transform="scale(0.015625)"/>
      </defs>
      <use xlink:href="#DejaVuSans-41"/>
      <use xlink:href="#DejaVuSans-72" transform="translate(68.408203 0)"/>
      <use xlink:href="#DejaVuSans-67" transform="translate(107.771484 0)"/>
      <use xlink:href="#DejaVuSans-75" transform="translate(171.248047 0)"/>
      <use xlink:href="#DejaVuSans-6d" transform="translate(234.626953 0)"/>
      <use xlink:href="#DejaVuSans-65" transform="translate(332.039062 0)"/>
      <use xlink:href="#DejaVuSans-6e" transform="translate(393.5625 0)"/>
      <use xlink:href="#DejaVuSans-74" transform="translate(456.941406 0)"/>
      <use xlink:href="#DejaVuSans-20" transform="translate(496.150391 0)"/>
      <use xlink:href="#DejaVuSans-6f" transform="translate(527.9375 0)"/>
      <use xlink:href="#DejaVuSans-66" transform="translate(589.119141 0)"/>
      <use xlink:href="#DejaVuSans-20" transform="translate(624.324219 0)"/>
      <use xlink:href="#DejaVuSans-70" transform="translate(656.111328 0)"/>
      <use xlink:href="#DejaVuSans-65" transform="translate(719.587891 0)"/>
      <use xlink:href="#DejaVuSans-72" transform="translate(781.111328 0)"/>
      <use xlink:href="#DejaVuSans-69" transform="translate(822.224609 0)"/>
      <use xlink:href="#DejaVuSans-67" transform="translate(850.007812 0)"/>
      <use xlink:href="#DejaVuSans-65" transform="translate(913.484375 0)"/>
      <use xlink:href="#DejaVuSans-65" transform="translate(975.007812 0)"/>
      <use xlink:href="#DejaVuSans-20" transform="translate(1036.53125 0)"/>
      <use xlink:href="#DejaVuSans-5b" transform="translate(1068.318359 0)"/>
      <use xlink:href="#DejaVuSans-64" transform="translate(1107.332031 0)"/>
      <use xlink:href="#DejaVuSans-65" transform="translate(1170.808594 0)"/>
      <use xlink:href="#DejaVuSans-67" transform="translate(1232.332031 0)"/>
      <use xlink:href="#DejaVuSans-5d" transform="translate(1295.808594 0)"/>
     </g>
    </g>
   </g>
   <g id="line2d_109">
    <path d="M 83.706818 591.687943 
L 86.635354 572.655172 
L 607.914646 566.751003 
L 610.843182 547.718233 
L 610.843182 547.718233 
" clip-path="url(#p121f8568cd)" style="fill: none; stroke: #440154; stroke-width: 1.5; stroke-linecap: square"/>
   </g>
   <g id="line2d_110">
    <path d="M 83.706818 591.661755 
L 86.635354 572.628985 
L 607.914646 566.724816 
L 610.843182 547.692045 
L 610.843182 547.692045 
" clip-path="url(#p121f8568cd)" style="fill: none; stroke: #21918c; stroke-width: 1.5; stroke-linecap: square"/>
   </g>
   <g id="line2d_111">
    <path d="M 83.706818 656.671401 
L 86.635354 667.204262 
L 607.914646 661.300093 
L 610.843182 671.832955 
L 610.843182 671.832955 
" clip-path="url(#p121f8568cd)" style="fill: none; stroke: #fde725; stroke-width: 1.5; stroke-linecap: square"/>
   </g>
   <g id="patch_19">
    <path d="M 57.35 678.04 
L 57.35 541.485 
" style="fill: none; stroke: #000000; stroke-width: 0.8; stroke-linejoin: miter; stroke-linecap: square"/>
   </g>
   <g id="patch_20">
    <path d="M 637.2 678.04 
L 637.2 541.485 
" style="fill: none; stroke: #000000; stroke-width: 0.8; stroke-linejoin: miter; stroke-linecap: square"/>
   </g>
   <g id="patch_21">
    <path d="M 57.35 678.04 
L 637.2 678.04 
" style="fill: none; stroke: #000000; stroke-width: 0.8; stroke-linejoin: miter; stroke-linecap: square"/>
   </g>
   <g id="patch_22">
    <path d="M 57.35 541.485 
L 637.2 541.485 
" style="fill: none; stroke: #000000; stroke-width: 0.8; stroke-linejoin: miter; stroke-linecap: square"/>
   </g>
  </g>
  <g id="text_35">
   <!-- Classical orbital-element evolution during the access window -->
   <g transform="translate(140.187187 23.518125) scale(0.12 -0.12)">
    <defs>
     <path id="DejaVuSans-43" d="M 4122 4306 
L 4122 3641 
Q 3803 3938 3442 4084 
Q 3081 4231 2675 4231 
Q 1875 4231 1450 3742 
Q 1025 3253 1025 2328 
Q 1025 1406 1450 917 
Q 1875 428 2675 428 
Q 3081 428 3442 575 
Q 3803 722 4122 1019 
L 4122 359 
Q 3791 134 3420 21 
Q 3050 -91 2638 -91 
Q 1578 -91 968 557 
Q 359 1206 359 2328 
Q 359 3453 968 4101 
Q 1578 4750 2638 4750 
Q 3056 4750 3426 4639 
Q 3797 4528 4122 4306 
z
" transform="scale(0.015625)"/>
     <path id="DejaVuSans-62" d="M 3116 1747 
Q 3116 2381 2855 2742 
Q 2594 3103 2138 3103 
Q 1681 3103 1420 2742 
Q 1159 2381 1159 1747 
Q 1159 1113 1420 752 
Q 1681 391 2138 391 
Q 2594 391 2855 752 
Q 3116 1113 3116 1747 
z
M 1159 2969 
Q 1341 3281 1617 3432 
Q 1894 3584 2278 3584 
Q 2916 3584 3314 3078 
Q 3713 2572 3713 1747 
Q 3713 922 3314 415 
Q 2916 -91 2278 -91 
Q 1894 -91 1617 61 
Q 1341 213 1159 525 
L 1159 0 
L 581 0 
L 581 4863 
L 1159 4863 
L 1159 2969 
z
" transform="scale(0.015625)"/>
     <path id="DejaVuSans-76" d="M 191 3500 
L 800 3500 
L 1894 563 
L 2988 3500 
L 3597 3500 
L 2284 0 
L 1503 0 
L 191 3500 
z
" transform="scale(0.015625)"/>
     <path id="DejaVuSans-68" d="M 3513 2113 
L 3513 0 
L 2938 0 
L 2938 2094 
Q 2938 2591 2744 2837 
Q 2550 3084 2163 3084 
Q 1697 3084 1428 2787 
Q 1159 2491 1159 1978 
L 1159 0 
L 581 0 
L 581 4863 
L 1159 4863 
L 1159 2956 
Q 1366 3272 1645 3428 
Q 1925 3584 2291 3584 
Q 2894 3584 3203 3211 
Q 3513 2838 3513 2113 
z
" transform="scale(0.015625)"/>
     <path id="DejaVuSans-77" d="M 269 3500 
L 844 3500 
L 1563 769 
L 2278 3500 
L 2956 3500 
L 3675 769 
L 4391 3500 
L 4966 3500 
L 4050 0 
L 3372 0 
L 2619 2869 
L 1863 0 
L 1184 0 
L 269 3500 
z
" transform="scale(0.015625)"/>
    </defs>
    <use xlink:href="#DejaVuSans-43"/>
    <use xlink:href="#DejaVuSans-6c" transform="translate(69.824219 0)"/>
    <use xlink:href="#DejaVuSans-61" transform="translate(97.607422 0)"/>
    <use xlink:href="#DejaVuSans-73" transform="translate(158.886719 0)"/>
    <use xlink:href="#DejaVuSans-73" transform="translate(210.986328 0)"/>
    <use xlink:href="#DejaVuSans-69" transform="translate(263.085938 0)"/>
    <use xlink:href="#DejaVuSans-63" transform="translate(290.869141 0)"/>
    <use xlink:href="#DejaVuSans-61" transform="translate(345.849609 0)"/>
    <use xlink:href="#DejaVuSans-6c" transform="translate(407.128906 0)"/>
    <use xlink:href="#DejaVuSans-20" transform="translate(434.912109 0)"/>
    <use xlink:href="#DejaVuSans-6f" transform="translate(466.699219 0)"/>
    <use xlink:href="#DejaVuSans-72" transform="translate(527.880859 0)"/>
    <use xlink:href="#DejaVuSans-62" transform="translate(568.994141 0)"/>
    <use xlink:href="#DejaVuSans-69" transform="translate(632.470703 0)"/>
    <use xlink:href="#DejaVuSans-74" transform="translate(660.253906 0)"/>
    <use xlink:href="#DejaVuSans-61" transform="translate(699.462891 0)"/>
    <use xlink:href="#DejaVuSans-6c" transform="translate(760.742188 0)"/>
    <use xlink:href="#DejaVuSans-2d" transform="translate(788.525391 0)"/>
    <use xlink:href="#DejaVuSans-65" transform="translate(824.609375 0)"/>
    <use xlink:href="#DejaVuSans-6c" transform="translate(886.132812 0)"/>
    <use xlink:href="#DejaVuSans-65" transform="translate(913.916016 0)"/>
    <use xlink:href="#DejaVuSans-6d" transform="translate(975.439453 0)"/>
    <use xlink:href="#DejaVuSans-65" transform="translate(1072.851562 0)"/>
    <use xlink:href="#DejaVuSans-6e" transform="translate(1134.375 0)"/>
    <use xlink:href="#DejaVuSans-74" transform="translate(1197.753906 0)"/>
    <use xlink:href="#DejaVuSans-20" transform="translate(1236.962891 0)"/>
    <use xlink:href="#DejaVuSans-65" transform="translate(1268.75 0)"/>
    <use xlink:href="#DejaVuSans-76" transform="translate(1330.273438 0)"/>
    <use xlink:href="#DejaVuSans-6f" transform="translate(1389.453125 0)"/>
    <use xlink:href="#DejaVuSans-6c" transform="translate(1450.634766 0)"/>
    <use xlink:href="#DejaVuSans-75" transform="translate(1478.417969 0)"/>
    <use xlink:href="#DejaVuSans-74" transform="translate(1541.796875 0)"/>
    <use xlink:href="#DejaVuSans-69" transform="translate(1581.005859 0)"/>
    <use xlink:href="#DejaVuSans-6f" transform="translate(1608.789062 0)"/>
    <use xlink:href="#DejaVuSans-6e" transform="translate(1669.970703 0)"/>
    <use xlink:href="#DejaVuSans-20" transform="translate(1733.349609 0)"/>
    <use xlink:href="#DejaVuSans-64" transform="translate(1765.136719 0)"/>
    <use xlink:href="#DejaVuSans-75" transform="translate(1828.613281 0)"/>
    <use xlink:href="#DejaVuSans-72" transform="translate(1891.992188 0)"/>
    <use xlink:href="#DejaVuSans-69" transform="translate(1933.105469 0)"/>
    <use xlink:href="#DejaVuSans-6e" transform="translate(1960.888672 0)"/>
    <use xlink:href="#DejaVuSans-67" transform="translate(2024.267578 0)"/>
    <use xlink:href="#DejaVuSans-20" transform="translate(2087.744141 0)"/>
    <use xlink:href="#DejaVuSans-74" transform="translate(2119.53125 0)"/>
    <use xlink:href="#DejaVuSans-68" transform="translate(2158.740234 0)"/>
    <use xlink:href="#DejaVuSans-65" transform="translate(2222.119141 0)"/>
    <use xlink:href="#DejaVuSans-20" transform="translate(2283.642578 0)"/>
    <use xlink:href="#DejaVuSans-61" transform="translate(2315.429688 0)"/>
    <use xlink:href="#DejaVuSans-63" transform="translate(2376.708984 0)"/>
    <use xlink:href="#DejaVuSans-63" transform="translate(2431.689453 0)"/>
    <use xlink:href="#DejaVuSans-65" transform="translate(2486.669922 0)"/>
    <use xlink:href="#DejaVuSans-73" transform="translate(2548.193359 0)"/>
    <use xlink:href="#DejaVuSans-73" transform="translate(2600.292969 0)"/>
    <use xlink:href="#DejaVuSans-20" transform="translate(2652.392578 0)"/>
    <use xlink:href="#DejaVuSans-77" transform="translate(2684.179688 0)"/>
    <use xlink:href="#DejaVuSans-69" transform="translate(2765.966797 0)"/>
    <use xlink:href="#DejaVuSans-6e" transform="translate(2793.75 0)"/>
    <use xlink:href="#DejaVuSans-64" transform="translate(2857.128906 0)"/>
    <use xlink:href="#DejaVuSans-6f" transform="translate(2920.605469 0)"/>
    <use xlink:href="#DejaVuSans-77" transform="translate(2981.787109 0)"/>
   </g>
  </g>
 </g>
 <defs>
  <clipPath id="p08d5700c52">
   <rect x="57.35" y="56.16" width="579.85" height="136.555"/>
  </clipPath>
  <clipPath id="p99708eb3c8">
   <rect x="57.35" y="217.935" width="579.85" height="136.555"/>
  </clipPath>
  <clipPath id="pc04c033955">
   <rect x="57.35" y="379.71" width="579.85" height="136.555"/>
  </clipPath>
  <clipPath id="p121f8568cd">
   <rect x="57.35" y="541.485" width="579.85" height="136.555"/>
  </clipPath>
 </defs>
</svg>
