<?xml version="1.0" encoding="utf-8" standalone="no"?>
<!DOCTYPE svg PUBLIC "-//W3C//DTD SVG 1.1//EN"
  "http://www.w3.org/Graphics/SVG/1.1/DTD/svg11.dtd">
<svg xmlns:xlink="http://www.w3.org/1999/xlink" width="648pt" height="288pt" viewBox="0 0 648 288" xmlns="http://www.w3.org/2000/svg" version="1.1">
 <metadata>
  <rdf:RDF xmlns:dc="http://purl.org/dc/elements/1.1/" xmlns:cc="http://creativecommons.org/ns#" xmlns:rdf="http://www.w3.org/1999/02/22-rdf-syntax-ns#">
   <cc:Work>
    <dc:type rdf:resource="http://purl.org/dc/dcmitype/StillImage"/>
    <dc:date>2025-11-01T08:08:14.592385</dc:date>
    <dc:format>image/svg+xml</dc:format>
    <dc:creator>
     <cc:Agent>
      <dc:title>Matplotlib v3.10.7, https://matplotlib.org/</dc:title>
     </cc:Agent>
    </dc:creator>
   </cc:Work>
  </rdf:RDF>
 </metadata>
 <defs>
  <style type="text/css">*{stroke-linejoin: round; stroke-linecap: butt}</style>
 </defs>
 <g id="figure_1">
  <g id="patch_1">
   <path d="M 0 288 
L 648 288 
L 648 0 
L 0 0 
z
" style="fill: #ffffff"/>
  </g>
  <g id="axes_1">
   <g id="patch_2">
    <path d="M 62.3 225.115464 
L 637.2 225.115464 
L 637.2 26.88 
L 62.3 26.88 
z
" style="fill: #ffffff"/>
   </g>
   <g id="matplotlib.axis_1">
    <g id="xtick_1">
     <g id="line2d_1">
      <path d="M 146.502525 225.115464 
L 146.502525 26.88 
" clip-path="url(#p88311d5c9e)" style="fill: none; stroke: #b0b0b0; stroke-width: 0.3; stroke-linecap: square"/>
     </g>
     <g id="line2d_2">
      <defs>
       <path id="md4e00dfb96" d="M 0 0 
L 0 3.5 
" style="stroke: #000000; stroke-width: 0.8"/>
      </defs>
      <g>
       <use xlink:href="#md4e00dfb96" x="146.502525" y="225.115464" style="stroke: #000000; stroke-width: 0.8"/>
      </g>
     </g>
     <g id="text_1">
      <!-- 07:39:00 -->
      <g transform="translate(106.567316 261.152154) rotate(-30) scale(0.1 -0.1)">
       <defs>
        <path id="DejaVuSans-30" d="M 2034 4250 
Q 1547 4250 1301 3770 
Q 1056 3291 1056 2328 
Q 1056 1369 1301 889 
Q 1547 409 2034 409 
Q 2525 409 2770 889 
Q 3016 1369 3016 2328 
Q 3016 3291 2770 3770 
Q 2525 4250 2034 4250 
z
M 2034 4750 
Q 2819 4750 3233 4129 
Q 3647 3509 3647 2328 
Q 3647 1150 3233 529 
Q 2819 -91 2034 -91 
Q 1250 -91 836 529 
Q 422 1150 422 2328 
Q 422 3509 836 4129 
Q 1250 4750 2034 4750 
z
" transform="scale(0.015625)"/>
        <path id="DejaVuSans-37" d="M 525 4666 
L 3525 4666 
L 3525 4397 
L 1831 0 
L 1172 0 
L 2766 4134 
L 525 4134 
L 525 4666 
z
" transform="scale(0.015625)"/>
        <path id="DejaVuSans-3a" d="M 750 794 
L 1409 794 
L 1409 0 
L 750 0 
L 750 794 
z
M 750 3309 
L 1409 3309 
L 1409 2516 
L 750 2516 
L 750 3309 
z
" transform="scale(0.015625)"/>
        <path id="DejaVuSans-33" d="M 2597 2516 
Q 3050 2419 3304 2112 
Q 3559 1806 3559 1356 
Q 3559 666 3084 287 
Q 2609 -91 1734 -91 
Q 1441 -91 1130 -33 
Q 819 25 488 141 
L 488 750 
Q 750 597 1062 519 
Q 1375 441 1716 441 
Q 2309 441 2620 675 
Q 2931 909 2931 1356 
Q 2931 1769 2642 2001 
Q 2353 2234 1838 2234 
L 1294 2234 
L 1294 2753 
L 1863 2753 
Q 2328 2753 2575 2939 
Q 2822 3125 2822 3475 
Q 2822 3834 2567 4026 
Q 2313 4219 1838 4219 
Q 1578 4219 1281 4162 
Q 984 4106 628 3988 
L 628 4550 
Q 988 4650 1302 4700 
Q 1616 4750 1894 4750 
Q 2613 4750 3031 4423 
Q 3450 4097 3450 3541 
Q 3450 3153 3228 2886 
Q 3006 2619 2597 2516 
z
" transform="scale(0.015625)"/>
        <path id="DejaVuSans-39" d="M 703 97 
L 703 672 
Q 941 559 1184 500 
Q 1428 441 1663 441 
Q 2288 441 2617 861 
Q 2947 1281 2994 2138 
Q 2813 1869 2534 1725 
Q 2256 1581 1919 1581 
Q 1219 1581 811 2004 
Q 403 2428 403 3163 
Q 403 3881 828 4315 
Q 1253 4750 1959 4750 
Q 2769 4750 3195 4129 
Q 3622 3509 3622 2328 
Q 3622 1225 3098 567 
Q 2575 -91 1691 -91 
Q 1453 -91 1209 -44 
Q 966 3 703 97 
z
M 1959 2075 
Q 2384 2075 2632 2365 
Q 2881 2656 2881 3163 
Q 2881 3666 2632 3958 
Q 2384 4250 1959 4250 
Q 1534 4250 1286 3958 
Q 1038 3666 1038 3163 
Q 1038 2656 1286 2365 
Q 1534 2075 1959 2075 
z
" transform="scale(0.015625)"/>
       </defs>
       <use xlink:href="#DejaVuSans-30"/>
       <use xlink:href="#DejaVuSans-37" transform="translate(63.623047 0)"/>
       <use xlink:href="#DejaVuSans-3a" transform="translate(127.246094 0)"/>
       <use xlink:href="#DejaVuSans-33" transform="translate(160.9375 0)"/>
       <use xlink:href="#DejaVuSans-39" transform="translate(224.560547 0)"/>
       <use xlink:href="#DejaVuSans-3a" transform="translate(288.183594 0)"/>
       <use xlink:href="#DejaVuSans-30" transform="translate(321.875 0)"/>
       <use xlink:href="#DejaVuSans-30" transform="translate(385.498047 0)"/>
      </g>
     </g>
    </g>
    <g id="xtick_2">
     <g id="line2d_3">
      <path d="M 233.608586 225.115464 
L 233.608586 26.88 
" clip-path="url(#p88311d5c9e)" style="fill: none; stroke: #b0b0b0; stroke-width: 0.3; stroke-linecap: square"/>
     </g>
     <g id="line2d_4">
      <g>
       <use xlink:href="#md4e00dfb96" x="233.608586" y="225.115464" style="stroke: #000000; stroke-width: 0.8"/>
      </g>
     </g>
     <g id="text_2">
      <!-- 07:39:30 -->
      <g transform="translate(193.673377 261.152154) rotate(-30) scale(0.1 -0.1)">
       <use xlink:href="#DejaVuSans-30"/>
       <use xlink:href="#DejaVuSans-37" transform="translate(63.623047 0)"/>
       <use xlink:href="#DejaVuSans-3a" transform="translate(127.246094 0)"/>
       <use xlink:href="#DejaVuSans-33" transform="translate(160.9375 0)"/>
       <use xlink:href="#DejaVuSans-39" transform="translate(224.560547 0)"/>
       <use xlink:href="#DejaVuSans-3a" transform="translate(288.183594 0)"/>
       <use xlink:href="#DejaVuSans-33" transform="translate(321.875 0)"/>
       <use xlink:href="#DejaVuSans-30" transform="translate(385.498047 0)"/>
      </g>
     </g>
    </g>
    <g id="xtick_3">
     <g id="line2d_5">
      <path d="M 320.714647 225.115464 
L 320.714647 26.88 
" clip-path="url(#p88311d5c9e)" style="fill: none; stroke: #b0b0b0; stroke-width: 0.3; stroke-linecap: square"/>
     </g>
     <g id="line2d_6">
      <g>
       <use xlink:href="#md4e00dfb96" x="320.714647" y="225.115464" style="stroke: #000000; stroke-width: 0.8"/>
      </g>
     </g>
     <g id="text_3">
      <!-- 07:40:00 -->
      <g transform="translate(280.779438 261.152154) rotate(-30) scale(0.1 -0.1)">
       <defs>
        <path id="DejaVuSans-34" d="M 2419 4116 
L 825 1625 
L 2419 1625 
L 2419 4116 
z
M 2253 4666 
L 3047 4666 
L 3047 1625 
L 3713 1625 
L 3713 1100 
L 3047 1100 
L 3047 0 
L 2419 0 
L 2419 1100 
L 313 1100 
L 313 1709 
L 2253 4666 
z
" transform="scale(0.015625)"/>
       </defs>
       <use xlink:href="#DejaVuSans-30"/>
       <use xlink:href="#DejaVuSans-37" transform="translate(63.623047 0)"/>
       <use xlink:href="#DejaVuSans-3a" transform="translate(127.246094 0)"/>
       <use xlink:href="#DejaVuSans-34" transform="translate(160.9375 0)"/>
       <use xlink:href="#DejaVuSans-30" transform="translate(224.560547 0)"/>
       <use xlink:href="#DejaVuSans-3a" transform="translate(288.183594 0)"/>
       <use xlink:href="#DejaVuSans-30" transform="translate(321.875 0)"/>
       <use xlink:href="#DejaVuSans-30" transform="translate(385.498047 0)"/>
      </g>
     </g>
    </g>
    <g id="xtick_4">
     <g id="line2d_7">
      <path d="M 407.820707 225.115464 
L 407.820707 26.88 
" clip-path="url(#p88311d5c9e)" style="fill: none; stroke: #b0b0b0; stroke-width: 0.3; stroke-linecap: square"/>
     </g>
     <g id="line2d_8">
      <g>
       <use xlink:href="#md4e00dfb96" x="407.820707" y="225.115464" style="stroke: #000000; stroke-width: 0.8"/>
      </g>
     </g>
     <g id="text_4">
      <!-- 07:40:30 -->
      <g transform="translate(367.885498 261.152154) rotate(-30) scale(0.1 -0.1)">
       <use xlink:href="#DejaVuSans-30"/>
       <use xlink:href="#DejaVuSans-37" transform="translate(63.623047 0)"/>
       <use xlink:href="#DejaVuSans-3a" transform="translate(127.246094 0)"/>
       <use xlink:href="#DejaVuSans-34" transform="translate(160.9375 0)"/>
       <use xlink:href="#DejaVuSans-30" transform="translate(224.560547 0)"/>
       <use xlink:href="#DejaVuSans-3a" transform="translate(288.183594 0)"/>
       <use xlink:href="#DejaVuSans-33" transform="translate(321.875 0)"/>
       <use xlink:href="#DejaVuSans-30" transform="translate(385.498047 0)"/>
      </g>
     </g>
    </g>
    <g id="xtick_5">
     <g id="line2d_9">
      <path d="M 494.926768 225.115464 
L 494.926768 26.88 
" clip-path="url(#p88311d5c9e)" style="fill: none; stroke: #b0b0b0; stroke-width: 0.3; stroke-linecap: square"/>
     </g>
     <g id="line2d_10">
      <g>
       <use xlink:href="#md4e00dfb96" x="494.926768" y="225.115464" style="stroke: #000000; stroke-width: 0.8"/>
      </g>
     </g>
     <g id="text_5">
      <!-- 07:41:00 -->
      <g transform="translate(454.991559 261.152154) rotate(-30) scale(0.1 -0.1)">
       <defs>
        <path id="DejaVuSans-31" d="M 794 531 
L 1825 531 
L 1825 4091 
L 703 3866 
L 703 4441 
L 1819 4666 
L 2450 4666 
L 2450 531 
L 3481 531 
L 3481 0 
L 794 0 
L 794 531 
z
" transform="scale(0.015625)"/>
       </defs>
       <use xlink:href="#DejaVuSans-30"/>
       <use xlink:href="#DejaVuSans-37" transform="translate(63.623047 0)"/>
       <use xlink:href="#DejaVuSans-3a" transform="translate(127.246094 0)"/>
       <use xlink:href="#DejaVuSans-34" transform="translate(160.9375 0)"/>
       <use xlink:href="#DejaVuSans-31" transform="translate(224.560547 0)"/>
       <use xlink:href="#DejaVuSans-3a" transform="translate(288.183594 0)"/>
       <use xlink:href="#DejaVuSans-30" transform="translate(321.875 0)"/>
       <use xlink:href="#DejaVuSans-30" transform="translate(385.498047 0)"/>
      </g>
     </g>
    </g>
    <g id="xtick_6">
     <g id="line2d_11">
      <path d="M 582.032829 225.115464 
L 582.032829 26.88 
" clip-path="url(#p88311d5c9e)" style="fill: none; stroke: #b0b0b0; stroke-width: 0.3; stroke-linecap: square"/>
     </g>
     <g id="line2d_12">
      <g>
       <use xlink:href="#md4e00dfb96" x="582.032829" y="225.115464" style="stroke: #000000; stroke-width: 0.8"/>
      </g>
     </g>
     <g id="text_6">
      <!-- 07:41:30 -->
      <g transform="translate(542.09762 261.152154) rotate(-30) scale(0.1 -0.1)">
       <use xlink:href="#DejaVuSans-30"/>
       <use xlink:href="#DejaVuSans-37" transform="translate(63.623047 0)"/>
       <use xlink:href="#DejaVuSans-3a" transform="translate(127.246094 0)"/>
       <use xlink:href="#DejaVuSans-34" transform="translate(160.9375 0)"/>
       <use xlink:href="#DejaVuSans-31" transform="translate(224.560547 0)"/>
       <use xlink:href="#DejaVuSans-3a" transform="translate(288.183594 0)"/>
       <use xlink:href="#DejaVuSans-33" transform="translate(321.875 0)"/>
       <use xlink:href="#DejaVuSans-30" transform="translate(385.498047 0)"/>
      </g>
     </g>
    </g>
    <g id="text_7">
     <!-- UTC time -->
     <g transform="translate(326.953906 274.551654) scale(0.1 -0.1)">
      <defs>
       <path id="DejaVuSans-55" d="M 556 4666 
L 1191 4666 
L 1191 1831 
Q 1191 1081 1462 751 
Q 1734 422 2344 422 
Q 2950 422 3222 751 
Q 3494 1081 3494 1831 
L 3494 4666 
L 4128 4666 
L 4128 1753 
Q 4128 841 3676 375 
Q 3225 -91 2344 -91 
Q 1459 -91 1007 375 
Q 556 841 556 1753 
L 556 4666 
z
" transform="scale(0.015625)"/>
       <path id="DejaVuSans-54" d="M -19 4666 
L 3928 4666 
L 3928 4134 
L 2272 4134 
L 2272 0 
L 1638 0 
L 1638 4134 
L -19 4134 
L -19 4666 
z
" transform="scale(0.015625)"/>
       <path id="DejaVuSans-43" d="M 4122 4306 
L 4122 3641 
Q 3803 3938 3442 4084 
Q 3081 4231 2675 4231 
Q 1875 4231 1450 3742 
Q 1025 3253 1025 2328 
Q 1025 1406 1450 917 
Q 1875 428 2675 428 
Q 3081 428 3442 575 
Q 3803 722 4122 1019 
L 4122 359 
Q 3791 134 3420 21 
Q 3050 -91 2638 -91 
Q 1578 -91 968 557 
Q 359 1206 359 2328 
Q 359 3453 968 4101 
Q 1578 4750 2638 4750 
Q 3056 4750 3426 4639 
Q 3797 4528 4122 4306 
z
" transform="scale(0.015625)"/>
       <path id="DejaVuSans-20" transform="scale(0.015625)"/>
       <path id="DejaVuSans-74" d="M 1172 4494 
L 1172 3500 
L 2356 3500 
L 2356 3053 
L 1172 3053 
L 1172 1153 
Q 1172 725 1289 603 
Q 1406 481 1766 481 
L 2356 481 
L 2356 0 
L 1766 0 
Q 1100 0 847 248 
Q 594 497 594 1153 
L 594 3053 
L 172 3053 
L 172 3500 
L 594 3500 
L 594 4494 
L 1172 4494 
z
" transform="scale(0.015625)"/>
       <path id="DejaVuSans-69" d="M 603 3500 
L 1178 3500 
L 1178 0 
L 603 0 
L 603 3500 
z
M 603 4863 
L 1178 4863 
L 1178 4134 
L 603 4134 
L 603 4863 
z
" transform="scale(0.015625)"/>
       <path id="DejaVuSans-6d" d="M 3328 2828 
Q 3544 3216 3844 3400 
Q 4144 3584 4550 3584 
Q 5097 3584 5394 3201 
Q 5691 2819 5691 2113 
L 5691 0 
L 5113 0 
L 5113 2094 
Q 5113 2597 4934 2840 
Q 4756 3084 4391 3084 
Q 3944 3084 3684 2787 
Q 3425 2491 3425 1978 
L 3425 0 
L 2847 0 
L 2847 2094 
Q 2847 2600 2669 2842 
Q 2491 3084 2119 3084 
Q 1678 3084 1418 2786 
Q 1159 2488 1159 1978 
L 1159 0 
L 581 0 
L 581 3500 
L 1159 3500 
L 1159 2956 
Q 1356 3278 1631 3431 
Q 1906 3584 2284 3584 
Q 2666 3584 2933 3390 
Q 3200 3197 3328 2828 
z
" transform="scale(0.015625)"/>
       <path id="DejaVuSans-65" d="M 3597 1894 
L 3597 1613 
L 953 1613 
Q 991 1019 1311 708 
Q 1631 397 2203 397 
Q 2534 397 2845 478 
Q 3156 559 3463 722 
L 3463 178 
Q 3153 47 2828 -22 
Q 2503 -91 2169 -91 
Q 1331 -91 842 396 
Q 353 884 353 1716 
Q 353 2575 817 3079 
Q 1281 3584 2069 3584 
Q 2775 3584 3186 3129 
Q 3597 2675 3597 1894 
z
M 3022 2063 
Q 3016 2534 2758 2815 
Q 2500 3097 2075 3097 
Q 1594 3097 1305 2825 
Q 1016 2553 972 2059 
L 3022 2063 
z
" transform="scale(0.015625)"/>
      </defs>
      <use xlink:href="#DejaVuSans-55"/>
      <use xlink:href="#DejaVuSans-54" transform="translate(73.193359 0)"/>
      <use xlink:href="#DejaVuSans-43" transform="translate(128.402344 0)"/>
      <use xlink:href="#DejaVuSans-20" transform="translate(198.226562 0)"/>
      <use xlink:href="#DejaVuSans-74" transform="translate(230.013672 0)"/>
      <use xlink:href="#DejaVuSans-69" transform="translate(269.222656 0)"/>
      <use xlink:href="#DejaVuSans-6d" transform="translate(297.005859 0)"/>
      <use xlink:href="#DejaVuSans-65" transform="translate(394.417969 0)"/>
     </g>
    </g>
   </g>
   <g id="matplotlib.axis_2">
    <g id="ytick_1">
     <g id="line2d_13">
      <path d="M 62.3 210.5 
L 637.2 210.5 
" clip-path="url(#p88311d5c9e)" style="fill: none; stroke: #b0b0b0; stroke-width: 0.3; stroke-linecap: square"/>
     </g>
     <g id="line2d_14">
      <defs>
       <path id="mf68d957033" d="M 0 0 
L -3.5 0 
" style="stroke: #000000; stroke-width: 0.8"/>
      </defs>
      <g>
       <use xlink:href="#mf68d957033" x="62.3" y="210.5" style="stroke: #000000; stroke-width: 0.8"/>
      </g>
     </g>
     <g id="text_8">
      <!-- −0.75 -->
      <g transform="translate(24.654688 214.299219) scale(0.1 -0.1)">
       <defs>
        <path id="DejaVuSans-2212" d="M 678 2272 
L 4684 2272 
L 4684 1741 
L 678 1741 
L 678 2272 
z
" transform="scale(0.015625)"/>
        <path id="DejaVuSans-2e" d="M 684 794 
L 1344 794 
L 1344 0 
L 684 0 
L 684 794 
z
" transform="scale(0.015625)"/>
        <path id="DejaVuSans-35" d="M 691 4666 
L 3169 4666 
L 3169 4134 
L 1269 4134 
L 1269 2991 
Q 1406 3038 1543 3061 
Q 1681 3084 1819 3084 
Q 2600 3084 3056 2656 
Q 3513 2228 3513 1497 
Q 3513 744 3044 326 
Q 2575 -91 1722 -91 
Q 1428 -91 1123 -41 
Q 819 9 494 109 
L 494 744 
Q 775 591 1075 516 
Q 1375 441 1709 441 
Q 2250 441 2565 725 
Q 2881 1009 2881 1497 
Q 2881 1984 2565 2268 
Q 2250 2553 1709 2553 
Q 1456 2553 1204 2497 
Q 953 2441 691 2322 
L 691 4666 
z
" transform="scale(0.015625)"/>
       </defs>
       <use xlink:href="#DejaVuSans-2212"/>
       <use xlink:href="#DejaVuSans-30" transform="translate(83.789062 0)"/>
       <use xlink:href="#DejaVuSans-2e" transform="translate(147.412109 0)"/>
       <use xlink:href="#DejaVuSans-37" transform="translate(179.199219 0)"/>
       <use xlink:href="#DejaVuSans-35" transform="translate(242.822266 0)"/>
      </g>
     </g>
    </g>
    <g id="ytick_2">
     <g id="line2d_15">
      <path d="M 62.3 184.375 
L 637.2 184.375 
" clip-path="url(#p88311d5c9e)" style="fill: none; stroke: #b0b0b0; stroke-width: 0.3; stroke-linecap: square"/>
     </g>
     <g id="line2d_16">
      <g>
       <use xlink:href="#mf68d957033" x="62.3" y="184.375" style="stroke: #000000; stroke-width: 0.8"/>
      </g>
     </g>
     <g id="text_9">
      <!-- −0.50 -->
      <g transform="translate(24.654688 188.174219) scale(0.1 -0.1)">
       <use xlink:href="#DejaVuSans-2212"/>
       <use xlink:href="#DejaVuSans-30" transform="translate(83.789062 0)"/>
       <use xlink:href="#DejaVuSans-2e" transform="translate(147.412109 0)"/>
       <use xlink:href="#DejaVuSans-35" transform="translate(179.199219 0)"/>
       <use xlink:href="#DejaVuSans-30" transform="translate(242.822266 0)"/>
      </g>
     </g>
    </g>
    <g id="ytick_3">
     <g id="line2d_17">
      <path d="M 62.3 158.25 
L 637.2 158.25 
" clip-path="url(#p88311d5c9e)" style="fill: none; stroke: #b0b0b0; stroke-width: 0.3; stroke-linecap: square"/>
     </g>
     <g id="line2d_18">
      <g>
       <use xlink:href="#mf68d957033" x="62.3" y="158.25" style="stroke: #000000; stroke-width: 0.8"/>
      </g>
     </g>
     <g id="text_10">
      <!-- −0.25 -->
      <g transform="translate(24.654688 162.049219) scale(0.1 -0.1)">
       <defs>
        <path id="DejaVuSans-32" d="M 1228 531 
L 3431 531 
L 3431 0 
L 469 0 
L 469 531 
Q 828 903 1448 1529 
Q 2069 2156 2228 2338 
Q 2531 2678 2651 2914 
Q 2772 3150 2772 3378 
Q 2772 3750 2511 3984 
Q 2250 4219 1831 4219 
Q 1534 4219 1204 4116 
Q 875 4013 500 3803 
L 500 4441 
Q 881 4594 1212 4672 
Q 1544 4750 1819 4750 
Q 2544 4750 2975 4387 
Q 3406 4025 3406 3419 
Q 3406 3131 3298 2873 
Q 3191 2616 2906 2266 
Q 2828 2175 2409 1742 
Q 1991 1309 1228 531 
z
" transform="scale(0.015625)"/>
       </defs>
       <use xlink:href="#DejaVuSans-2212"/>
       <use xlink:href="#DejaVuSans-30" transform="translate(83.789062 0)"/>
       <use xlink:href="#DejaVuSans-2e" transform="translate(147.412109 0)"/>
       <use xlink:href="#DejaVuSans-32" transform="translate(179.199219 0)"/>
       <use xlink:href="#DejaVuSans-35" transform="translate(242.822266 0)"/>
      </g>
     </g>
    </g>
    <g id="ytick_4">
     <g id="line2d_19">
      <path d="M 62.3 132.125 
L 637.2 132.125 
" clip-path="url(#p88311d5c9e)" style="fill: none; stroke: #b0b0b0; stroke-width: 0.3; stroke-linecap: square"/>
     </g>
     <g id="line2d_20">
      <g>
       <use xlink:href="#mf68d957033" x="62.3" y="132.125" style="stroke: #000000; stroke-width: 0.8"/>
      </g>
     </g>
     <g id="text_11">
      <!-- 0.00 -->
      <g transform="translate(33.034375 135.924219) scale(0.1 -0.1)">
       <use xlink:href="#DejaVuSans-30"/>
       <use xlink:href="#DejaVuSans-2e" transform="translate(63.623047 0)"/>
       <use xlink:href="#DejaVuSans-30" transform="translate(95.410156 0)"/>
       <use xlink:href="#DejaVuSans-30" transform="translate(159.033203 0)"/>
      </g>
     </g>
    </g>
    <g id="ytick_5">
     <g id="line2d_21">
      <path d="M 62.3 106.125 
L 637.2 106.125 
" clip-path="url(#p88311d5c9e)" style="fill: none; stroke: #b0b0b0; stroke-width: 0.3; stroke-linecap: square"/>
     </g>
     <g id="line2d_22">
      <g>
       <use xlink:href="#mf68d957033" x="62.3" y="106.125" style="stroke: #000000; stroke-width: 0.8"/>
      </g>
     </g>
     <g id="text_12">
      <!-- 0.25 -->
      <g transform="translate(33.034375 109.924219) scale(0.1 -0.1)">
       <use xlink:href="#DejaVuSans-30"/>
       <use xlink:href="#DejaVuSans-2e" transform="translate(63.623047 0)"/>
       <use xlink:href="#DejaVuSans-32" transform="translate(95.410156 0)"/>
       <use xlink:href="#DejaVuSans-35" transform="translate(159.033203 0)"/>
      </g>
     </g>
    </g>
    <g id="ytick_6">
     <g id="line2d_23">
      <path d="M 62.3 80 
L 637.2 80 
" clip-path="url(#p88311d5c9e)" style="fill: none; stroke: #b0b0b0; stroke-width: 0.3; stroke-linecap: square"/>
     </g>
     <g id="line2d_24">
      <g>
       <use xlink:href="#mf68d957033" x="62.3" y="80" style="stroke: #000000; stroke-width: 0.8"/>
      </g>
     </g>
     <g id="text_13">
      <!-- 0.50 -->
      <g transform="translate(33.034375 83.799219) scale(0.1 -0.1)">
       <use xlink:href="#DejaVuSans-30"/>
       <use xlink:href="#DejaVuSans-2e" transform="translate(63.623047 0)"/>
       <use xlink:href="#DejaVuSans-35" transform="translate(95.410156 0)"/>
       <use xlink:href="#DejaVuSans-30" transform="translate(159.033203 0)"/>
      </g>
     </g>
    </g>
    <g id="ytick_7">
     <g id="line2d_25">
      <path d="M 62.3 53.875 
L 637.2 53.875 
" clip-path="url(#p88311d5c9e)" style="fill: none; stroke: #b0b0b0; stroke-width: 0.3; stroke-linecap: square"/>
     </g>
     <g id="line2d_26">
      <g>
       <use xlink:href="#mf68d957033" x="62.3" y="53.875" style="stroke: #000000; stroke-width: 0.8"/>
      </g>
     </g>
     <g id="text_14">
      <!-- 0.75 -->
      <g transform="translate(33.034375 57.674219) scale(0.1 -0.1)">
       <use xlink:href="#DejaVuSans-30"/>
       <use xlink:href="#DejaVuSans-2e" transform="translate(63.623047 0)"/>
       <use xlink:href="#DejaVuSans-37" transform="translate(95.410156 0)"/>
       <use xlink:href="#DejaVuSans-35" transform="translate(159.033203 0)"/>
      </g>
     </g>
    </g>
    <g id="ytick_8">
     <g id="line2d_27">
      <path d="M 62.3 27.75 
L 637.2 27.75 
" clip-path="url(#p88311d5c9e)" style="fill: none; stroke: #b0b0b0; stroke-width: 0.3; stroke-linecap: square"/>
     </g>
     <g id="line2d_28">
      <g>
       <use xlink:href="#mf68d957033" x="62.3" y="27.75" style="stroke: #000000; stroke-width: 0.8"/>
      </g>
     </g>
     <g id="text_15">
      <!-- 1.00 -->
      <g transform="translate(33.034375 31.549219) scale(0.1 -0.1)">
       <use xlink:href="#DejaVuSans-31"/>
       <use xlink:href="#DejaVuSans-2e" transform="translate(63.623047 0)"/>
       <use xlink:href="#DejaVuSans-30" transform="translate(95.410156 0)"/>
       <use xlink:href="#DejaVuSans-30" transform="translate(159.033203 0)"/>
      </g>
     </g>
    </g>
    <g id="text_16">
     <!-- Distance [km] -->
     <g transform="translate(18.575 161.116482) rotate(-90) scale(0.1 -0.1)">
      <defs>
       <path id="DejaVuSans-44" d="M 1259 4147 
L 1259 519 
L 2022 519 
Q 2988 519 3436 956 
Q 3884 1394 3884 2338 
Q 3884 3275 3436 3711 
Q 2988 4147 2022 4147 
L 1259 4147 
z
M 628 4666 
L 1925 4666 
Q 3281 4666 3915 4102 
Q 4550 3538 4550 2338 
Q 4550 1131 3912 565 
Q 3275 0 1925 0 
L 628 0 
L 628 4666 
z
" transform="scale(0.015625)"/>
       <path id="DejaVuSans-73" d="M 2834 3397 
L 2834 2853 
Q 2591 2978 2328 3040 
Q 2066 3103 1784 3103 
Q 1356 3103 1142 2972 
Q 928 2841 928 2578 
Q 928 2378 1081 2264 
Q 1234 2150 1697 2047 
L 1894 2003 
Q 2506 1872 2764 1633 
Q 3022 1394 3022 966 
Q 3022 478 2636 193 
Q 2250 -91 1575 -91 
Q 1294 -91 989 -36 
Q 684 19 347 128 
L 347 722 
Q 666 556 975 473 
Q 1284 391 1588 391 
Q 1994 391 2212 530 
Q 2431 669 2431 922 
Q 2431 1156 2273 1281 
Q 2116 1406 1581 1522 
L 1381 1569 
Q 847 1681 609 1914 
Q 372 2147 372 2553 
Q 372 3047 722 3315 
Q 1072 3584 1716 3584 
Q 2034 3584 2315 3537 
Q 2597 3491 2834 3397 
z
" transform="scale(0.015625)"/>
       <path id="DejaVuSans-61" d="M 2194 1759 
Q 1497 1759 1228 1600 
Q 959 1441 959 1056 
Q 959 750 1161 570 
Q 1363 391 1709 391 
Q 2188 391 2477 730 
Q 2766 1069 2766 1631 
L 2766 1759 
L 2194 1759 
z
M 3341 1997 
L 3341 0 
L 2766 0 
L 2766 531 
Q 2569 213 2275 61 
Q 1981 -91 1556 -91 
Q 1019 -91 701 211 
Q 384 513 384 1019 
Q 384 1609 779 1909 
Q 1175 2209 1959 2209 
L 2766 2209 
L 2766 2266 
Q 2766 2663 2505 2880 
Q 2244 3097 1772 3097 
Q 1472 3097 1187 3025 
Q 903 2953 641 2809 
L 641 3341 
Q 956 3463 1253 3523 
Q 1550 3584 1831 3584 
Q 2591 3584 2966 3190 
Q 3341 2797 3341 1997 
z
" transform="scale(0.015625)"/>
       <path id="DejaVuSans-6e" d="M 3513 2113 
L 3513 0 
L 2938 0 
L 2938 2094 
Q 2938 2591 2744 2837 
Q 2550 3084 2163 3084 
Q 1697 3084 1428 2787 
Q 1159 2491 1159 1978 
L 1159 0 
L 581 0 
L 581 3500 
L 1159 3500 
L 1159 2956 
Q 1366 3272 1645 3428 
Q 1925 3584 2291 3584 
Q 2894 3584 3203 3211 
Q 3513 2838 3513 2113 
z
" transform="scale(0.015625)"/>
       <path id="DejaVuSans-63" d="M 3122 3366 
L 3122 2828 
Q 2878 2963 2633 3030 
Q 2388 3097 2138 3097 
Q 1578 3097 1268 2742 
Q 959 2388 959 1747 
Q 959 1106 1268 751 
Q 1578 397 2138 397 
Q 2388 397 2633 464 
Q 2878 531 3122 666 
L 3122 134 
Q 2881 22 2623 -34 
Q 2366 -91 2075 -91 
Q 1284 -91 818 406 
Q 353 903 353 1747 
Q 353 2603 823 3093 
Q 1294 3584 2113 3584 
Q 2378 3584 2631 3529 
Q 2884 3475 3122 3366 
z
" transform="scale(0.015625)"/>
       <path id="DejaVuSans-5b" d="M 550 4863 
L 1875 4863 
L 1875 4416 
L 1125 4416 
L 1125 -397 
L 1875 -397 
L 1875 -844 
L 550 -844 
L 550 4863 
z
" transform="scale(0.015625)"/>
       <path id="DejaVuSans-6b" d="M 581 4863 
L 1159 4863 
L 1159 1991 
L 2875 3500 
L 3609 3500 
L 1753 1863 
L 3688 0 
L 2938 0 
L 1159 1709 
L 1159 0 
L 581 0 
L 581 4863 
z
" transform="scale(0.015625)"/>
       <path id="DejaVuSans-5d" d="M 1947 4863 
L 1947 -844 
L 622 -844 
L 622 -397 
L 1369 -397 
L 1369 4416 
L 622 4416 
L 622 4863 
L 1947 4863 
z
" transform="scale(0.015625)"/>
      </defs>
      <use xlink:href="#DejaVuSans-44"/>
      <use xlink:href="#DejaVuSans-69" transform="translate(77.001953 0)"/>
      <use xlink:href="#DejaVuSans-73" transform="translate(104.785156 0)"/>
      <use xlink:href="#DejaVuSans-74" transform="translate(156.884766 0)"/>
      <use xlink:href="#DejaVuSans-61" transform="translate(196.09375 0)"/>
      <use xlink:href="#DejaVuSans-6e" transform="translate(257.373047 0)"/>
      <use xlink:href="#DejaVuSans-63" transform="translate(320.751953 0)"/>
      <use xlink:href="#DejaVuSans-65" transform="translate(375.732422 0)"/>
      <use xlink:href="#DejaVuSans-20" transform="translate(437.255859 0)"/>
      <use xlink:href="#DejaVuSans-5b" transform="translate(469.042969 0)"/>
      <use xlink:href="#DejaVuSans-6b" transform="translate(508.056641 0)"/>
      <use xlink:href="#DejaVuSans-6d" transform="translate(565.966797 0)"/>
      <use xlink:href="#DejaVuSans-5d" transform="translate(663.378906 0)"/>
     </g>
    </g>
    <g id="text_17">
     <!-- 1e−12+6 -->
     <g transform="translate(62.3 23.88) scale(0.1 -0.1)">
      <defs>
       <path id="DejaVuSans-2b" d="M 2944 4013 
L 2944 2272 
L 4684 2272 
L 4684 1741 
L 2944 1741 
L 2944 0 
L 2419 0 
L 2419 1741 
L 678 1741 
L 678 2272 
L 2419 2272 
L 2419 4013 
L 2944 4013 
z
" transform="scale(0.015625)"/>
       <path id="DejaVuSans-36" d="M 2113 2584 
Q 1688 2584 1439 2293 
Q 1191 2003 1191 1497 
Q 1191 994 1439 701 
Q 1688 409 2113 409 
Q 2538 409 2786 701 
Q 3034 994 3034 1497 
Q 3034 2003 2786 2293 
Q 2538 2584 2113 2584 
z
M 3366 4563 
L 3366 3988 
Q 3128 4100 2886 4159 
Q 2644 4219 2406 4219 
Q 1781 4219 1451 3797 
Q 1122 3375 1075 2522 
Q 1259 2794 1537 2939 
Q 1816 3084 2150 3084 
Q 2853 3084 3261 2657 
Q 3669 2231 3669 1497 
Q 3669 778 3244 343 
Q 2819 -91 2113 -91 
Q 1303 -91 875 529 
Q 447 1150 447 2328 
Q 447 3434 972 4092 
Q 1497 4750 2381 4750 
Q 2619 4750 2861 4703 
Q 3103 4656 3366 4563 
z
" transform="scale(0.015625)"/>
      </defs>
      <use xlink:href="#DejaVuSans-31"/>
      <use xlink:href="#DejaVuSans-65" transform="translate(63.623047 0)"/>
      <use xlink:href="#DejaVuSans-2212" transform="translate(125.146484 0)"/>
      <use xlink:href="#DejaVuSans-31" transform="translate(208.935547 0)"/>
      <use xlink:href="#DejaVuSans-32" transform="translate(272.558594 0)"/>
      <use xlink:href="#DejaVuSans-2b" transform="translate(336.181641 0)"/>
      <use xlink:href="#DejaVuSans-36" transform="translate(419.970703 0)"/>
     </g>
    </g>
   </g>
   <g id="line2d_29">
    <path d="M 88.431818 144.25 
L 91.335354 160.375 
L 94.238889 190.25 
L 97.142425 101 
L 100.045959 123.75 
L 102.949495 168.375 
L 105.85303 172.375 
L 108.756566 148.375 
L 111.660101 168.75 
L 114.563637 135.625 
L 117.467172 91.125 
L 120.370707 176.375 
L 123.274242 82.5 
L 126.177778 140.75 
L 129.081313 166.875 
L 131.984848 161.875 
L 134.888384 120.875 
L 137.79192 97.125 
L 140.695455 128 
L 143.598989 93.875 
L 146.502525 137 
L 149.406061 139.625 
L 152.309596 172.875 
L 155.213131 182.125 
L 158.116667 96.75 
L 161.020203 152.125 
L 163.923738 166.875 
L 166.827272 139.375 
L 169.730807 127.125 
L 172.634344 152.625 
L 175.537879 126.5 
L 178.441414 178.75 
L 181.344949 150.25 
L 184.248486 131 
L 187.15202 110.25 
L 190.055555 163 
L 192.959091 102.75 
L 195.862627 84.5 
L 198.766162 123.125 
L 201.669697 119 
L 204.573233 99.375 
L 207.476768 138.125 
L 210.380303 100.5 
L 213.283838 154.625 
L 216.187374 153 
L 219.090909 128.125 
L 221.994445 92.125 
L 224.89798 145.75 
L 227.801516 153.75 
L 230.70505 147.125 
L 233.608586 165.75 
L 236.512121 133.5 
L 239.415657 128.875 
L 242.319192 116.5 
L 245.222728 147.5 
L 248.126263 105.5 
L 251.029799 107 
L 253.933333 159.375 
L 256.836868 187 
L 259.740404 87.375 
L 262.64394 155.625 
L 268.45101 87.375 
L 271.354546 110 
L 274.258081 147.125 
L 277.161616 143.25 
L 280.065151 101.875 
L 282.968687 70.125 
L 285.872223 147.875 
L 288.775758 100 
L 291.679293 98.75 
L 294.582829 172.625 
L 297.486364 170.875 
L 300.389899 144.25 
L 303.293434 184.5 
L 306.196969 131.25 
L 309.100506 115.5 
L 312.004041 111.625 
L 314.907576 153.5 
L 317.811111 118.375 
L 320.714647 135.625 
L 323.618182 81.375 
L 326.521717 146.375 
L 329.425253 104.25 
L 332.328789 110.125 
L 335.232324 169.875 
L 338.135859 107.75 
L 341.039394 104.75 
L 343.94293 138.625 
L 346.846465 159.5 
L 349.75 104.375 
L 352.653536 117.5 
L 355.557071 117.75 
L 358.460607 130.75 
L 361.364141 95.5 
L 364.267677 134.875 
L 367.171212 149.125 
L 370.074748 202.75 
L 372.978283 116.875 
L 375.881819 170.5 
L 378.785354 106.25 
L 381.68889 184.75 
L 384.592424 129 
L 387.49596 100.875 
L 390.399495 134.625 
L 393.303031 179.375 
L 396.206566 131.25 
L 399.110102 114.875 
L 402.013637 124.125 
L 404.917171 166 
L 407.820707 117.375 
L 410.724243 99.625 
L 413.627778 111.5 
L 416.531313 172.625 
L 419.434849 102.75 
L 422.338385 141.25 
L 425.24192 164.375 
L 428.145454 157 
L 431.048991 148.125 
L 433.952526 163.25 
L 436.856061 58.875 
L 439.759596 107 
L 442.663132 203.75 
L 445.566668 152.125 
L 448.470202 163.25 
L 451.373737 95 
L 454.277273 138.375 
L 457.180809 130.875 
L 460.084344 121.125 
L 462.987879 124 
L 465.891415 105.875 
L 468.79495 171 
L 471.698485 156.375 
L 474.60202 159.375 
L 477.505556 182 
L 480.409092 102.625 
L 483.312627 115.125 
L 486.216162 153 
L 489.119698 178 
L 492.023232 104.25 
L 494.926768 109.75 
L 497.830303 212.75 
L 500.733839 73.875 
L 503.637374 127.125 
L 506.54091 149.875 
L 509.444445 83.625 
L 512.34798 182.125 
L 515.251515 70 
L 518.155051 130.5 
L 521.058586 128.375 
L 523.962122 67.375 
L 526.865657 115.5 
L 529.769193 131 
L 532.672728 136 
L 535.576263 95.5 
L 538.479798 149.875 
L 541.383333 129.125 
L 544.28687 154.375 
L 547.190405 109.75 
L 550.09394 107.625 
L 552.997475 86.5 
L 555.901011 140 
L 558.804546 114.75 
L 561.708081 104.5 
L 564.611616 157.25 
L 567.515153 137.5 
L 570.418688 75 
L 573.322223 99.125 
L 576.225758 101.375 
L 579.129293 120.875 
L 582.032829 103.375 
L 584.936364 215.375 
L 587.839899 118.75 
L 590.743435 172.25 
L 593.646971 164.375 
L 596.550506 163.125 
L 599.454041 148.875 
L 602.357576 129.125 
L 605.261112 124.75 
L 608.164647 61.375 
L 611.068182 166.125 
L 611.068182 166.125 
" clip-path="url(#p88311d5c9e)" style="fill: none; stroke: #1f77b4; stroke-width: 1.5; stroke-linecap: square"/>
   </g>
   <g id="line2d_30">
    <path d="M 88.431818 183.5 
L 91.335354 129.5 
L 94.238889 110 
L 97.142425 145.625 
L 100.045959 111.25 
L 102.949495 119.125 
L 105.85303 142.5 
L 108.756566 57.625 
L 111.660101 106.625 
L 114.563637 136 
L 117.467172 106.875 
L 120.370707 98.375 
L 123.274242 150.375 
L 126.177778 121.75 
L 129.081313 120.625 
L 131.984848 119.125 
L 134.888384 125.125 
L 140.695455 163.625 
L 143.598989 142.5 
L 146.502525 141.625 
L 149.406061 147.875 
L 152.309596 160.125 
L 155.213131 148.25 
L 158.116667 122.375 
L 161.020203 141.75 
L 163.923738 131.75 
L 166.827272 101.5 
L 169.730807 118.625 
L 172.634344 103.75 
L 175.537879 110.625 
L 178.441414 135.375 
L 181.344949 173.75 
L 184.248486 169 
L 187.15202 154.125 
L 190.055555 86.25 
L 192.959091 120.75 
L 195.862627 128.125 
L 198.766162 107.75 
L 201.669697 142.75 
L 204.573233 181.875 
L 207.476768 106.125 
L 210.380303 161.875 
L 213.283838 133.5 
L 216.187374 126.625 
L 219.090909 92.875 
L 221.994445 112.625 
L 224.89798 130.125 
L 227.801516 170.5 
L 230.70505 161.625 
L 233.608586 130 
L 236.512121 152.375 
L 239.415657 109.125 
L 242.319192 125.625 
L 245.222728 140.25 
L 248.126263 101.5 
L 251.029799 147.375 
L 253.933333 89.75 
L 256.836868 135 
L 259.740404 123.625 
L 262.64394 129.875 
L 265.547475 145 
L 268.45101 147 
L 271.354546 167.625 
L 274.258081 125.5 
L 277.161616 109.5 
L 280.065151 171 
L 282.968687 172.875 
L 285.872223 109.125 
L 288.775758 159.375 
L 291.679293 184.125 
L 294.582829 157.25 
L 297.486364 115.875 
L 300.389899 148.625 
L 303.293434 165.375 
L 306.196969 148.25 
L 309.100506 127.375 
L 312.004041 113.5 
L 314.907576 107 
L 317.811111 142 
L 320.714647 131.125 
L 323.618182 97.5 
L 326.521717 182 
L 329.425253 150.5 
L 332.328789 145.75 
L 335.232324 168.25 
L 338.135859 135.25 
L 341.039394 165.5 
L 343.94293 81.125 
L 346.846465 142.75 
L 349.75 81.625 
L 352.653536 116.375 
L 355.557071 155 
L 358.460607 145.125 
L 361.364141 136.125 
L 364.267677 121.25 
L 367.171212 133.5 
L 370.074748 140.25 
L 372.978283 157.875 
L 378.785354 83.625 
L 381.68889 121 
L 384.592424 99 
L 387.49596 113.75 
L 390.399495 88.75 
L 393.303031 135.125 
L 396.206566 133.5 
L 399.110102 120.875 
L 402.013637 178.75 
L 404.917171 96.75 
L 407.820707 152.125 
L 410.724243 141.5 
L 413.627778 103.625 
L 416.531313 145.5 
L 419.434849 170.75 
L 422.338385 176.75 
L 425.24192 166.25 
L 428.145454 132.125 
L 431.048991 136 
L 433.952526 97.625 
L 436.856061 117.75 
L 439.759596 118.375 
L 442.663132 71.75 
L 445.566668 213.125 
L 448.470202 156.875 
L 451.373737 157.375 
L 454.277273 172.375 
L 457.180809 148.375 
L 460.084344 114.5 
L 462.987879 101.875 
L 465.891415 85.25 
L 468.79495 91.5 
L 471.698485 161.125 
L 474.60202 175.875 
L 477.505556 204.875 
L 480.409092 130.875 
L 483.312627 146.5 
L 486.216162 147.5 
L 489.119698 160.25 
L 492.023232 35.875 
L 494.926768 107.875 
L 497.830303 155.125 
L 500.733839 159.625 
L 503.637374 177.75 
L 509.444445 78.625 
L 512.34798 190.25 
L 515.251515 43.25 
L 518.155051 170.625 
L 521.058586 129.125 
L 523.962122 112.25 
L 526.865657 109 
L 529.769193 85.375 
L 532.672728 168.5 
L 535.576263 156.375 
L 538.479798 175.875 
L 541.383333 180.375 
L 544.28687 94.25 
L 547.190405 136.75 
L 550.09394 91.625 
L 552.997475 152.75 
L 555.901011 132.75 
L 558.804546 144.5 
L 561.708081 41.375 
L 564.611616 76.75 
L 567.515153 139.625 
L 570.418688 101 
L 573.322223 163 
L 576.225758 131.625 
L 579.129293 178.625 
L 582.032829 149 
L 584.936364 161.75 
L 587.839899 99.75 
L 590.743435 132.625 
L 593.646971 160.375 
L 596.550506 200.25 
L 599.454041 99 
L 602.357576 177.25 
L 605.261112 100 
L 608.164647 147.75 
L 611.068182 193.125 
L 611.068182 193.125 
" clip-path="url(#p88311d5c9e)" style="fill: none; stroke: #ff7f0e; stroke-width: 1.5; stroke-linecap: square"/>
   </g>
   <g id="line2d_31">
    <path d="M 88.431818 171.625 
L 91.335354 194.125 
L 94.238889 181 
L 97.142425 123.875 
L 100.045959 144.125 
L 102.949495 107.125 
L 105.85303 117 
L 108.756566 104.75 
L 111.660101 150.125 
L 114.563637 173.5 
L 117.467172 128.75 
L 120.370707 95.125 
L 123.274242 113.25 
L 126.177778 39.125 
L 129.081313 180.5 
L 131.984848 183.75 
L 134.888384 126 
L 137.79192 121.25 
L 140.695455 121.625 
L 143.598989 125.625 
L 146.502525 158.75 
L 149.406061 187.125 
L 152.309596 214 
L 155.213131 187.875 
L 158.116667 84.125 
L 161.020203 197.75 
L 163.923738 120.625 
L 166.827272 110.625 
L 169.730807 106.125 
L 172.634344 164.75 
L 175.537879 102.375 
L 178.441414 137.125 
L 181.344949 158 
L 184.248486 167.25 
L 187.15202 215.125 
L 190.055555 180.625 
L 192.959091 100.625 
L 195.862627 114.5 
L 198.766162 120.375 
L 201.669697 55.25 
L 204.573233 76.25 
L 207.476768 78.875 
L 210.380303 121.25 
L 213.283838 155.375 
L 216.187374 111.5 
L 219.090909 124.5 
L 221.994445 78.875 
L 224.89798 85.25 
L 227.801516 199.625 
L 230.70505 120.875 
L 233.608586 60.75 
L 236.512121 176.375 
L 239.415657 74.625 
L 242.319192 170.625 
L 245.222728 139.125 
L 248.126263 87.125 
L 251.029799 122.5 
L 253.933333 142.5 
L 256.836868 136.5 
L 259.740404 54.875 
L 262.64394 146.375 
L 265.547475 147.125 
L 268.45101 182.875 
L 271.354546 133.625 
L 274.258081 118.25 
L 277.161616 160.625 
L 280.065151 164.5 
L 282.968687 128.375 
L 285.872223 99.375 
L 288.775758 155.125 
L 291.679293 114.625 
L 294.582829 214.625 
L 297.486364 154 
L 300.389899 129.25 
L 303.293434 193.125 
L 306.196969 123.125 
L 309.100506 139.25 
L 312.004041 73.5 
L 314.907576 200.25 
L 317.811111 63 
L 320.714647 159.75 
L 323.618182 97.125 
L 326.521717 163.375 
L 329.425253 118.75 
L 332.328789 114.25 
L 335.232324 161.25 
L 338.135859 95.875 
L 341.039394 178.125 
L 343.94293 112.875 
L 346.846465 214 
L 349.75 72.125 
L 352.653536 54.125 
L 355.557071 83 
L 358.460607 216.125 
L 361.364141 52.75 
L 364.267677 71.125 
L 367.171212 144.125 
L 370.074748 146.375 
L 372.978283 166.125 
L 375.881819 153.875 
L 378.785354 70 
L 381.68889 101.25 
L 384.592424 86.125 
L 387.49596 157.875 
L 390.399495 116.25 
L 393.303031 176.625 
L 396.206566 165.5 
L 399.110102 155 
L 402.013637 157 
L 404.917171 78.125 
L 407.820707 181 
L 410.724243 69.125 
L 413.627778 118 
L 416.531313 194.125 
L 419.434849 161.875 
L 422.338385 204.125 
L 425.24192 155.5 
L 428.145454 156.625 
L 431.048991 92.5 
L 433.952526 58.375 
L 439.759596 151 
L 442.663132 102.375 
L 445.566668 191.5 
L 448.470202 118.625 
L 451.373737 70.5 
L 454.277273 122.875 
L 457.180809 179.5 
L 460.084344 198.25 
L 462.987879 138.5 
L 465.891415 84.125 
L 468.79495 154.625 
L 471.698485 199.875 
L 474.60202 166.5 
L 477.505556 149.25 
L 480.409092 68.5 
L 483.312627 46.875 
L 486.216162 134.375 
L 489.119698 60.75 
L 492.023232 90.5 
L 494.926768 74 
L 497.830303 151.25 
L 500.733839 126.125 
L 503.637374 82.5 
L 506.54091 121.75 
L 509.444445 127.875 
L 512.34798 137.125 
L 515.251515 58.875 
L 518.155051 109.75 
L 521.058586 88.625 
L 523.962122 80.625 
L 526.865657 147.5 
L 529.769193 95.75 
L 532.672728 134.25 
L 535.576263 102.625 
L 538.479798 156.5 
L 541.383333 181 
L 544.28687 77.5 
L 547.190405 157.375 
L 550.09394 149.125 
L 552.997475 136 
L 555.901011 57.875 
L 558.804546 142.625 
L 561.708081 88.5 
L 564.611616 134.25 
L 567.515153 149.125 
L 570.418688 77.75 
L 573.322223 121.25 
L 576.225758 148.25 
L 579.129293 138.75 
L 582.032829 176 
L 584.936364 160.875 
L 587.839899 150.875 
L 590.743435 147 
L 593.646971 46.125 
L 596.550506 166.875 
L 599.454041 152.125 
L 602.357576 166 
L 605.261112 146.375 
L 608.164647 139.25 
L 611.068182 174.375 
L 611.068182 174.375 
" clip-path="url(#p88311d5c9e)" style="fill: none; stroke: #2ca02c; stroke-width: 1.5; stroke-linecap: square"/>
   </g>
   <g id="patch_3">
    <path d="M 62.3 225.125 
L 62.3 26.875 
" style="fill: none; stroke: #000000; stroke-width: 0.8; stroke-linejoin: miter; stroke-linecap: square"/>
   </g>
   <g id="patch_4">
    <path d="M 637.2 225.125 
L 637.2 26.875 
" style="fill: none; stroke: #000000; stroke-width: 0.8; stroke-linejoin: miter; stroke-linecap: square"/>
   </g>
   <g id="patch_5">
    <path d="M 62.3 225.115464 
L 637.2 225.115464 
" style="fill: none; stroke: #000000; stroke-width: 0.8; stroke-linejoin: miter; stroke-linecap: square"/>
   </g>
   <g id="patch_6">
    <path d="M 62.3 26.88 
L 637.2 26.88 
" style="fill: none; stroke: #000000; stroke-width: 0.8; stroke-linejoin: miter; stroke-linecap: square"/>
   </g>
   <g id="text_18">
    <!-- Pairwise separations during the access window -->
    <g transform="translate(208.41625 20.88) scale(0.12 -0.12)">
     <defs>
      <path id="DejaVuSans-50" d="M 1259 4147 
L 1259 2394 
L 2053 2394 
Q 2494 2394 2734 2622 
Q 2975 2850 2975 3272 
Q 2975 3691 2734 3919 
Q 2494 4147 2053 4147 
L 1259 4147 
z
M 628 4666 
L 2053 4666 
Q 2838 4666 3239 4311 
Q 3641 3956 3641 3272 
Q 3641 2581 3239 2228 
Q 2838 1875 2053 1875 
L 1259 1875 
L 1259 0 
L 628 0 
L 628 4666 
z
" transform="scale(0.015625)"/>
      <path id="DejaVuSans-72" d="M 2631 2963 
Q 2534 3019 2420 3045 
Q 2306 3072 2169 3072 
Q 1681 3072 1420 2755 
Q 1159 2438 1159 1844 
L 1159 0 
L 581 0 
L 581 3500 
L 1159 3500 
L 1159 2956 
Q 1341 3275 1631 3429 
Q 1922 3584 2338 3584 
Q 2397 3584 2469 3576 
Q 2541 3569 2628 3553 
L 2631 2963 
z
" transform="scale(0.015625)"/>
      <path id="DejaVuSans-77" d="M 269 3500 
L 844 3500 
L 1563 769 
L 2278 3500 
L 2956 3500 
L 3675 769 
L 4391 3500 
L 4966 3500 
L 4050 0 
L 3372 0 
L 2619 2869 
L 1863 0 
L 1184 0 
L 269 3500 
z
" transform="scale(0.015625)"/>
      <path id="DejaVuSans-70" d="M 1159 525 
L 1159 -1331 
L 581 -1331 
L 581 3500 
L 1159 3500 
L 1159 2969 
Q 1341 3281 1617 3432 
Q 1894 3584 2278 3584 
Q 2916 3584 3314 3078 
Q 3713 2572 3713 1747 
Q 3713 922 3314 415 
Q 2916 -91 2278 -91 
Q 1894 -91 1617 61 
Q 1341 213 1159 525 
z
M 3116 1747 
Q 3116 2381 2855 2742 
Q 2594 3103 2138 3103 
Q 1681 3103 1420 2742 
Q 1159 2381 1159 1747 
Q 1159 1113 1420 752 
Q 1681 391 2138 391 
Q 2594 391 2855 752 
Q 3116 1113 3116 1747 
z
" transform="scale(0.015625)"/>
      <path id="DejaVuSans-6f" d="M 1959 3097 
Q 1497 3097 1228 2736 
Q 959 2375 959 1747 
Q 959 1119 1226 758 
Q 1494 397 1959 397 
Q 2419 397 2687 759 
Q 2956 1122 2956 1747 
Q 2956 2369 2687 2733 
Q 2419 3097 1959 3097 
z
M 1959 3584 
Q 2709 3584 3137 3096 
Q 3566 2609 3566 1747 
Q 3566 888 3137 398 
Q 2709 -91 1959 -91 
Q 1206 -91 779 398 
Q 353 888 353 1747 
Q 353 2609 779 3096 
Q 1206 3584 1959 3584 
z
" transform="scale(0.015625)"/>
      <path id="DejaVuSans-64" d="M 2906 2969 
L 2906 4863 
L 3481 4863 
L 3481 0 
L 2906 0 
L 2906 525 
Q 2725 213 2448 61 
Q 2172 -91 1784 -91 
Q 1150 -91 751 415 
Q 353 922 353 1747 
Q 353 2572 751 3078 
Q 1150 3584 1784 3584 
Q 2172 3584 2448 3432 
Q 2725 3281 2906 2969 
z
M 947 1747 
Q 947 1113 1208 752 
Q 1469 391 1925 391 
Q 2381 391 2643 752 
Q 2906 1113 2906 1747 
Q 2906 2381 2643 2742 
Q 2381 3103 1925 3103 
Q 1469 3103 1208 2742 
Q 947 2381 947 1747 
z
" transform="scale(0.015625)"/>
      <path id="DejaVuSans-75" d="M 544 1381 
L 544 3500 
L 1119 3500 
L 1119 1403 
Q 1119 906 1312 657 
Q 1506 409 1894 409 
Q 2359 409 2629 706 
Q 2900 1003 2900 1516 
L 2900 3500 
L 3475 3500 
L 3475 0 
L 2900 0 
L 2900 538 
Q 2691 219 2414 64 
Q 2138 -91 1772 -91 
Q 1169 -91 856 284 
Q 544 659 544 1381 
z
M 1991 3584 
L 1991 3584 
z
" transform="scale(0.015625)"/>
      <path id="DejaVuSans-67" d="M 2906 1791 
Q 2906 2416 2648 2759 
Q 2391 3103 1925 3103 
Q 1463 3103 1205 2759 
Q 947 2416 947 1791 
Q 947 1169 1205 825 
Q 1463 481 1925 481 
Q 2391 481 2648 825 
Q 2906 1169 2906 1791 
z
M 3481 434 
Q 3481 -459 3084 -895 
Q 2688 -1331 1869 -1331 
Q 1566 -1331 1297 -1286 
Q 1028 -1241 775 -1147 
L 775 -588 
Q 1028 -725 1275 -790 
Q 1522 -856 1778 -856 
Q 2344 -856 2625 -561 
Q 2906 -266 2906 331 
L 2906 616 
Q 2728 306 2450 153 
Q 2172 0 1784 0 
Q 1141 0 747 490 
Q 353 981 353 1791 
Q 353 2603 747 3093 
Q 1141 3584 1784 3584 
Q 2172 3584 2450 3431 
Q 2728 3278 2906 2969 
L 2906 3500 
L 3481 3500 
L 3481 434 
z
" transform="scale(0.015625)"/>
      <path id="DejaVuSans-68" d="M 3513 2113 
L 3513 0 
L 2938 0 
L 2938 2094 
Q 2938 2591 2744 2837 
Q 2550 3084 2163 3084 
Q 1697 3084 1428 2787 
Q 1159 2491 1159 1978 
L 1159 0 
L 581 0 
L 581 4863 
L 1159 4863 
L 1159 2956 
Q 1366 3272 1645 3428 
Q 1925 3584 2291 3584 
Q 2894 3584 3203 3211 
Q 3513 2838 3513 2113 
z
" transform="scale(0.015625)"/>
     </defs>
     <use xlink:href="#DejaVuSans-50"/>
     <use xlink:href="#DejaVuSans-61" transform="translate(55.802734 0)"/>
     <use xlink:href="#DejaVuSans-69" transform="translate(117.082031 0)"/>
     <use xlink:href="#DejaVuSans-72" transform="translate(144.865234 0)"/>
     <use xlink:href="#DejaVuSans-77" transform="translate(185.978516 0)"/>
     <use xlink:href="#DejaVuSans-69" transform="translate(267.765625 0)"/>
     <use xlink:href="#DejaVuSans-73" transform="translate(295.548828 0)"/>
     <use xlink:href="#DejaVuSans-65" transform="translate(347.648438 0)"/>
     <use xlink:href="#DejaVuSans-20" transform="translate(409.171875 0)"/>
     <use xlink:href="#DejaVuSans-73" transform="translate(440.958984 0)"/>
     <use xlink:href="#DejaVuSans-65" transform="translate(493.058594 0)"/>
     <use xlink:href="#DejaVuSans-70" transform="translate(554.582031 0)"/>
     <use xlink:href="#DejaVuSans-61" transform="translate(618.058594 0)"/>
     <use xlink:href="#DejaVuSans-72" transform="translate(679.337891 0)"/>
     <use xlink:href="#DejaVuSans-61" transform="translate(720.451172 0)"/>
     <use xlink:href="#DejaVuSans-74" transform="translate(781.730469 0)"/>
     <use xlink:href="#DejaVuSans-69" transform="translate(820.939453 0)"/>
     <use xlink:href="#DejaVuSans-6f" transform="translate(848.722656 0)"/>
     <use xlink:href="#DejaVuSans-6e" transform="translate(909.904297 0)"/>
     <use xlink:href="#DejaVuSans-73" transform="translate(973.283203 0)"/>
     <use xlink:href="#DejaVuSans-20" transform="translate(1025.382812 0)"/>
     <use xlink:href="#DejaVuSans-64" transform="translate(1057.169922 0)"/>
     <use xlink:href="#DejaVuSans-75" transform="translate(1120.646484 0)"/>
     <use xlink:href="#DejaVuSans-72" transform="translate(1184.025391 0)"/>
     <use xlink:href="#DejaVuSans-69" transform="translate(1225.138672 0)"/>
     <use xlink:href="#DejaVuSans-6e" transform="translate(1252.921875 0)"/>
     <use xlink:href="#DejaVuSans-67" transform="translate(1316.300781 0)"/>
     <use xlink:href="#DejaVuSans-20" transform="translate(1379.777344 0)"/>
     <use xlink:href="#DejaVuSans-74" transform="translate(1411.564453 0)"/>
     <use xlink:href="#DejaVuSans-68" transform="translate(1450.773438 0)"/>
     <use xlink:href="#DejaVuSans-65" transform="translate(1514.152344 0)"/>
     <use xlink:href="#DejaVuSans-20" transform="translate(1575.675781 0)"/>
     <use xlink:href="#DejaVuSans-61" transform="translate(1607.462891 0)"/>
     <use xlink:href="#DejaVuSans-63" transform="translate(1668.742188 0)"/>
     <use xlink:href="#DejaVuSans-63" transform="translate(1723.722656 0)"/>
     <use xlink:href="#DejaVuSans-65" transform="translate(1778.703125 0)"/>
     <use xlink:href="#DejaVuSans-73" transform="translate(1840.226562 0)"/>
     <use xlink:href="#DejaVuSans-73" transform="translate(1892.326172 0)"/>
     <use xlink:href="#DejaVuSans-20" transform="translate(1944.425781 0)"/>
     <use xlink:href="#DejaVuSans-77" transform="translate(1976.212891 0)"/>
     <use xlink:href="#DejaVuSans-69" transform="translate(2058 0)"/>
     <use xlink:href="#DejaVuSans-6e" transform="translate(2085.783203 0)"/>
     <use xlink:href="#DejaVuSans-64" transform="translate(2149.162109 0)"/>
     <use xlink:href="#DejaVuSans-6f" transform="translate(2212.638672 0)"/>
     <use xlink:href="#DejaVuSans-77" transform="translate(2273.820312 0)"/>
    </g>
   </g>
   <g id="legend_1">
    <g id="patch_7">
     <path d="M 537.665625 78.914375 
L 630.2 78.914375 
Q 632.2 78.914375 632.2 76.914375 
L 632.2 33.88 
Q 632.2 31.88 630.2 31.88 
L 537.665625 31.88 
Q 535.665625 31.88 535.665625 33.88 
L 535.665625 76.914375 
Q 535.665625 78.914375 537.665625 78.914375 
z
" style="fill: #ffffff; opacity: 0.8; stroke: #cccccc; stroke-linejoin: miter"/>
    </g>
    <g id="line2d_32">
     <path d="M 539.665625 39.978438 
L 549.665625 39.978438 
L 559.665625 39.978438 
" style="fill: none; stroke: #1f77b4; stroke-width: 1.5; stroke-linecap: square"/>
    </g>
    <g id="text_19">
     <!-- SAT-1–SAT-2 -->
     <g transform="translate(567.665625 43.478438) scale(0.1 -0.1)">
      <defs>
       <path id="DejaVuSans-53" d="M 3425 4513 
L 3425 3897 
Q 3066 4069 2747 4153 
Q 2428 4238 2131 4238 
Q 1616 4238 1336 4038 
Q 1056 3838 1056 3469 
Q 1056 3159 1242 3001 
Q 1428 2844 1947 2747 
L 2328 2669 
Q 3034 2534 3370 2195 
Q 3706 1856 3706 1288 
Q 3706 609 3251 259 
Q 2797 -91 1919 -91 
Q 1588 -91 1214 -16 
Q 841 59 441 206 
L 441 856 
Q 825 641 1194 531 
Q 1563 422 1919 422 
Q 2459 422 2753 634 
Q 3047 847 3047 1241 
Q 3047 1584 2836 1778 
Q 2625 1972 2144 2069 
L 1759 2144 
Q 1053 2284 737 2584 
Q 422 2884 422 3419 
Q 422 4038 858 4394 
Q 1294 4750 2059 4750 
Q 2388 4750 2728 4690 
Q 3069 4631 3425 4513 
z
" transform="scale(0.015625)"/>
       <path id="DejaVuSans-41" d="M 2188 4044 
L 1331 1722 
L 3047 1722 
L 2188 4044 
z
M 1831 4666 
L 2547 4666 
L 4325 0 
L 3669 0 
L 3244 1197 
L 1141 1197 
L 716 0 
L 50 0 
L 1831 4666 
z
" transform="scale(0.015625)"/>
       <path id="DejaVuSans-2d" d="M 313 2009 
L 1997 2009 
L 1997 1497 
L 313 1497 
L 313 2009 
z
" transform="scale(0.015625)"/>
       <path id="DejaVuSans-2013" d="M 313 1978 
L 2888 1978 
L 2888 1528 
L 313 1528 
L 313 1978 
z
" transform="scale(0.015625)"/>
      </defs>
      <use xlink:href="#DejaVuSans-53"/>
      <use xlink:href="#DejaVuSans-41" transform="translate(65.351562 0)"/>
      <use xlink:href="#DejaVuSans-54" transform="translate(126.009766 0)"/>
      <use xlink:href="#DejaVuSans-2d" transform="translate(177.96875 0)"/>
      <use xlink:href="#DejaVuSans-31" transform="translate(214.052734 0)"/>
      <use xlink:href="#DejaVuSans-2013" transform="translate(277.675781 0)"/>
      <use xlink:href="#DejaVuSans-53" transform="translate(327.675781 0)"/>
      <use xlink:href="#DejaVuSans-41" transform="translate(393.027344 0)"/>
      <use xlink:href="#DejaVuSans-54" transform="translate(453.685547 0)"/>
      <use xlink:href="#DejaVuSans-2d" transform="translate(505.644531 0)"/>
      <use xlink:href="#DejaVuSans-32" transform="translate(541.728516 0)"/>
     </g>
    </g>
    <g id="line2d_33">
     <path d="M 539.665625 54.656563 
L 549.665625 54.656563 
L 559.665625 54.656563 
" style="fill: none; stroke: #ff7f0e; stroke-width: 1.5; stroke-linecap: square"/>
    </g>
    <g id="text_20">
     <!-- SAT-1–SAT-3 -->
     <g transform="translate(567.665625 58.156563) scale(0.1 -0.1)">
      <use xlink:href="#DejaVuSans-53"/>
      <use xlink:href="#DejaVuSans-41" transform="translate(65.351562 0)"/>
      <use xlink:href="#DejaVuSans-54" transform="translate(126.009766 0)"/>
      <use xlink:href="#DejaVuSans-2d" transform="translate(177.96875 0)"/>
      <use xlink:href="#DejaVuSans-31" transform="translate(214.052734 0)"/>
      <use xlink:href="#DejaVuSans-2013" transform="translate(277.675781 0)"/>
      <use xlink:href="#DejaVuSans-53" transform="translate(327.675781 0)"/>
      <use xlink:href="#DejaVuSans-41" transform="translate(393.027344 0)"/>
      <use xlink:href="#DejaVuSans-54" transform="translate(453.685547 0)"/>
      <use xlink:href="#DejaVuSans-2d" transform="translate(505.644531 0)"/>
      <use xlink:href="#DejaVuSans-33" transform="translate(541.728516 0)"/>
     </g>
    </g>
    <g id="line2d_34">
     <path d="M 539.665625 69.334688 
L 549.665625 69.334688 
L 559.665625 69.334688 
" style="fill: none; stroke: #2ca02c; stroke-width: 1.5; stroke-linecap: square"/>
    </g>
    <g id="text_21">
     <!-- SAT-2–SAT-3 -->
     <g transform="translate(567.665625 72.834688) scale(0.1 -0.1)">
      <use xlink:href="#DejaVuSans-53"/>
      <use xlink:href="#DejaVuSans-41" transform="translate(65.351562 0)"/>
      <use xlink:href="#DejaVuSans-54" transform="translate(126.009766 0)"/>
      <use xlink:href="#DejaVuSans-2d" transform="translate(177.96875 0)"/>
      <use xlink:href="#DejaVuSans-32" transform="translate(214.052734 0)"/>
      <use xlink:href="#DejaVuSans-2013" transform="translate(277.675781 0)"/>
      <use xlink:href="#DejaVuSans-53" transform="translate(327.675781 0)"/>
      <use xlink:href="#DejaVuSans-41" transform="translate(393.027344 0)"/>
      <use xlink:href="#DejaVuSans-54" transform="translate(453.685547 0)"/>
      <use xlink:href="#DejaVuSans-2d" transform="translate(505.644531 0)"/>
      <use xlink:href="#DejaVuSans-33" transform="translate(541.728516 0)"/>
     </g>
    </g>
   </g>
  </g>
 </g>
 <defs>
  <clipPath id="p88311d5c9e">
   <rect x="62.3" y="26.88" width="574.9" height="198.235464"/>
  </clipPath>
 </defs>
</svg>
