<?xml version="1.0" encoding="utf-8" standalone="no"?>
<!DOCTYPE svg PUBLIC "-//W3C//DTD SVG 1.1//EN"
  "http://www.w3.org/Graphics/SVG/1.1/DTD/svg11.dtd">
<svg xmlns:xlink="http://www.w3.org/1999/xlink" width="576pt" height="324pt" viewBox="0 0 576 324" xmlns="http://www.w3.org/2000/svg" version="1.1">
 <metadata>
  <rdf:RDF xmlns:dc="http://purl.org/dc/elements/1.1/" xmlns:cc="http://creativecommons.org/ns#" xmlns:rdf="http://www.w3.org/1999/02/22-rdf-syntax-ns#">
   <cc:Work>
    <dc:type rdf:resource="http://purl.org/dc/dcmitype/StillImage"/>
    <dc:date>2025-11-01T20:08:29.892912</dc:date>
    <dc:format>image/svg+xml</dc:format>
    <dc:creator>
     <cc:Agent>
      <dc:title>Matplotlib v3.10.7, https://matplotlib.org/</dc:title>
     </cc:Agent>
    </dc:creator>
   </cc:Work>
  </rdf:RDF>
 </metadata>
 <defs>
  <style type="text/css">*{stroke-linejoin: round; stroke-linecap: butt}</style>
 </defs>
 <g id="figure_1">
  <g id="patch_1">
   <path d="M 0 324 
L 576 324 
L 576 0 
L 0 0 
z
" style="fill: #ffffff"/>
  </g>
  <g id="axes_1">
   <g id="patch_2">
    <path d="M 57.17 261.205464 
L 565.2 261.205464 
L 565.2 26.88 
L 57.17 26.88 
z
" style="fill: #ffffff"/>
   </g>
   <g id="matplotlib.axis_1">
    <g id="xtick_1">
     <g id="line2d_1">
      <defs>
       <path id="m69fbfe087d" d="M 0 0 
L 0 3.5 
" style="stroke: #000000; stroke-width: 0.8"/>
      </defs>
      <g>
       <use xlink:href="#m69fbfe087d" x="103.689216" y="261.205464" style="stroke: #000000; stroke-width: 0.8"/>
      </g>
     </g>
     <g id="text_1">
      <!-- 21 07:35 -->
      <g transform="translate(63.919093 297.146841) rotate(-30) scale(0.1 -0.1)">
       <defs>
        <path id="DejaVuSans-32" d="M 1228 531 
L 3431 531 
L 3431 0 
L 469 0 
L 469 531 
Q 828 903 1448 1529 
Q 2069 2156 2228 2338 
Q 2531 2678 2651 2914 
Q 2772 3150 2772 3378 
Q 2772 3750 2511 3984 
Q 2250 4219 1831 4219 
Q 1534 4219 1204 4116 
Q 875 4013 500 3803 
L 500 4441 
Q 881 4594 1212 4672 
Q 1544 4750 1819 4750 
Q 2544 4750 2975 4387 
Q 3406 4025 3406 3419 
Q 3406 3131 3298 2873 
Q 3191 2616 2906 2266 
Q 2828 2175 2409 1742 
Q 1991 1309 1228 531 
z
" transform="scale(0.015625)"/>
        <path id="DejaVuSans-31" d="M 794 531 
L 1825 531 
L 1825 4091 
L 703 3866 
L 703 4441 
L 1819 4666 
L 2450 4666 
L 2450 531 
L 3481 531 
L 3481 0 
L 794 0 
L 794 531 
z
" transform="scale(0.015625)"/>
        <path id="DejaVuSans-20" transform="scale(0.015625)"/>
        <path id="DejaVuSans-30" d="M 2034 4250 
Q 1547 4250 1301 3770 
Q 1056 3291 1056 2328 
Q 1056 1369 1301 889 
Q 1547 409 2034 409 
Q 2525 409 2770 889 
Q 3016 1369 3016 2328 
Q 3016 3291 2770 3770 
Q 2525 4250 2034 4250 
z
M 2034 4750 
Q 2819 4750 3233 4129 
Q 3647 3509 3647 2328 
Q 3647 1150 3233 529 
Q 2819 -91 2034 -91 
Q 1250 -91 836 529 
Q 422 1150 422 2328 
Q 422 3509 836 4129 
Q 1250 4750 2034 4750 
z
" transform="scale(0.015625)"/>
        <path id="DejaVuSans-37" d="M 525 4666 
L 3525 4666 
L 3525 4397 
L 1831 0 
L 1172 0 
L 2766 4134 
L 525 4134 
L 525 4666 
z
" transform="scale(0.015625)"/>
        <path id="DejaVuSans-3a" d="M 750 794 
L 1409 794 
L 1409 0 
L 750 0 
L 750 794 
z
M 750 3309 
L 1409 3309 
L 1409 2516 
L 750 2516 
L 750 3309 
z
" transform="scale(0.015625)"/>
        <path id="DejaVuSans-33" d="M 2597 2516 
Q 3050 2419 3304 2112 
Q 3559 1806 3559 1356 
Q 3559 666 3084 287 
Q 2609 -91 1734 -91 
Q 1441 -91 1130 -33 
Q 819 25 488 141 
L 488 750 
Q 750 597 1062 519 
Q 1375 441 1716 441 
Q 2309 441 2620 675 
Q 2931 909 2931 1356 
Q 2931 1769 2642 2001 
Q 2353 2234 1838 2234 
L 1294 2234 
L 1294 2753 
L 1863 2753 
Q 2328 2753 2575 2939 
Q 2822 3125 2822 3475 
Q 2822 3834 2567 4026 
Q 2313 4219 1838 4219 
Q 1578 4219 1281 4162 
Q 984 4106 628 3988 
L 628 4550 
Q 988 4650 1302 4700 
Q 1616 4750 1894 4750 
Q 2613 4750 3031 4423 
Q 3450 4097 3450 3541 
Q 3450 3153 3228 2886 
Q 3006 2619 2597 2516 
z
" transform="scale(0.015625)"/>
        <path id="DejaVuSans-35" d="M 691 4666 
L 3169 4666 
L 3169 4134 
L 1269 4134 
L 1269 2991 
Q 1406 3038 1543 3061 
Q 1681 3084 1819 3084 
Q 2600 3084 3056 2656 
Q 3513 2228 3513 1497 
Q 3513 744 3044 326 
Q 2575 -91 1722 -91 
Q 1428 -91 1123 -41 
Q 819 9 494 109 
L 494 744 
Q 775 591 1075 516 
Q 1375 441 1709 441 
Q 2250 441 2565 725 
Q 2881 1009 2881 1497 
Q 2881 1984 2565 2268 
Q 2250 2553 1709 2553 
Q 1456 2553 1204 2497 
Q 953 2441 691 2322 
L 691 4666 
z
" transform="scale(0.015625)"/>
       </defs>
       <use xlink:href="#DejaVuSans-32"/>
       <use xlink:href="#DejaVuSans-31" transform="translate(63.623047 0)"/>
       <use xlink:href="#DejaVuSans-20" transform="translate(127.246094 0)"/>
       <use xlink:href="#DejaVuSans-30" transform="translate(159.033203 0)"/>
       <use xlink:href="#DejaVuSans-37" transform="translate(222.65625 0)"/>
       <use xlink:href="#DejaVuSans-3a" transform="translate(286.279297 0)"/>
       <use xlink:href="#DejaVuSans-33" transform="translate(319.970703 0)"/>
       <use xlink:href="#DejaVuSans-35" transform="translate(383.59375 0)"/>
      </g>
     </g>
    </g>
    <g id="xtick_2">
     <g id="line2d_2">
      <g>
       <use xlink:href="#m69fbfe087d" x="304.491588" y="261.205464" style="stroke: #000000; stroke-width: 0.8"/>
      </g>
     </g>
     <g id="text_2">
      <!-- 21 07:40 -->
      <g transform="translate(264.721464 297.146841) rotate(-30) scale(0.1 -0.1)">
       <defs>
        <path id="DejaVuSans-34" d="M 2419 4116 
L 825 1625 
L 2419 1625 
L 2419 4116 
z
M 2253 4666 
L 3047 4666 
L 3047 1625 
L 3713 1625 
L 3713 1100 
L 3047 1100 
L 3047 0 
L 2419 0 
L 2419 1100 
L 313 1100 
L 313 1709 
L 2253 4666 
z
" transform="scale(0.015625)"/>
       </defs>
       <use xlink:href="#DejaVuSans-32"/>
       <use xlink:href="#DejaVuSans-31" transform="translate(63.623047 0)"/>
       <use xlink:href="#DejaVuSans-20" transform="translate(127.246094 0)"/>
       <use xlink:href="#DejaVuSans-30" transform="translate(159.033203 0)"/>
       <use xlink:href="#DejaVuSans-37" transform="translate(222.65625 0)"/>
       <use xlink:href="#DejaVuSans-3a" transform="translate(286.279297 0)"/>
       <use xlink:href="#DejaVuSans-34" transform="translate(319.970703 0)"/>
       <use xlink:href="#DejaVuSans-30" transform="translate(383.59375 0)"/>
      </g>
     </g>
    </g>
    <g id="xtick_3">
     <g id="line2d_3">
      <g>
       <use xlink:href="#m69fbfe087d" x="505.293959" y="261.205464" style="stroke: #000000; stroke-width: 0.8"/>
      </g>
     </g>
     <g id="text_3">
      <!-- 21 07:45 -->
      <g transform="translate(465.523836 297.146841) rotate(-30) scale(0.1 -0.1)">
       <use xlink:href="#DejaVuSans-32"/>
       <use xlink:href="#DejaVuSans-31" transform="translate(63.623047 0)"/>
       <use xlink:href="#DejaVuSans-20" transform="translate(127.246094 0)"/>
       <use xlink:href="#DejaVuSans-30" transform="translate(159.033203 0)"/>
       <use xlink:href="#DejaVuSans-37" transform="translate(222.65625 0)"/>
       <use xlink:href="#DejaVuSans-3a" transform="translate(286.279297 0)"/>
       <use xlink:href="#DejaVuSans-34" transform="translate(319.970703 0)"/>
       <use xlink:href="#DejaVuSans-35" transform="translate(383.59375 0)"/>
      </g>
     </g>
    </g>
    <g id="text_4">
     <!-- UTC time -->
     <g transform="translate(288.388906 310.546341) scale(0.1 -0.1)">
      <defs>
       <path id="DejaVuSans-55" d="M 556 4666 
L 1191 4666 
L 1191 1831 
Q 1191 1081 1462 751 
Q 1734 422 2344 422 
Q 2950 422 3222 751 
Q 3494 1081 3494 1831 
L 3494 4666 
L 4128 4666 
L 4128 1753 
Q 4128 841 3676 375 
Q 3225 -91 2344 -91 
Q 1459 -91 1007 375 
Q 556 841 556 1753 
L 556 4666 
z
" transform="scale(0.015625)"/>
       <path id="DejaVuSans-54" d="M -19 4666 
L 3928 4666 
L 3928 4134 
L 2272 4134 
L 2272 0 
L 1638 0 
L 1638 4134 
L -19 4134 
L -19 4666 
z
" transform="scale(0.015625)"/>
       <path id="DejaVuSans-43" d="M 4122 4306 
L 4122 3641 
Q 3803 3938 3442 4084 
Q 3081 4231 2675 4231 
Q 1875 4231 1450 3742 
Q 1025 3253 1025 2328 
Q 1025 1406 1450 917 
Q 1875 428 2675 428 
Q 3081 428 3442 575 
Q 3803 722 4122 1019 
L 4122 359 
Q 3791 134 3420 21 
Q 3050 -91 2638 -91 
Q 1578 -91 968 557 
Q 359 1206 359 2328 
Q 359 3453 968 4101 
Q 1578 4750 2638 4750 
Q 3056 4750 3426 4639 
Q 3797 4528 4122 4306 
z
" transform="scale(0.015625)"/>
       <path id="DejaVuSans-74" d="M 1172 4494 
L 1172 3500 
L 2356 3500 
L 2356 3053 
L 1172 3053 
L 1172 1153 
Q 1172 725 1289 603 
Q 1406 481 1766 481 
L 2356 481 
L 2356 0 
L 1766 0 
Q 1100 0 847 248 
Q 594 497 594 1153 
L 594 3053 
L 172 3053 
L 172 3500 
L 594 3500 
L 594 4494 
L 1172 4494 
z
" transform="scale(0.015625)"/>
       <path id="DejaVuSans-69" d="M 603 3500 
L 1178 3500 
L 1178 0 
L 603 0 
L 603 3500 
z
M 603 4863 
L 1178 4863 
L 1178 4134 
L 603 4134 
L 603 4863 
z
" transform="scale(0.015625)"/>
       <path id="DejaVuSans-6d" d="M 3328 2828 
Q 3544 3216 3844 3400 
Q 4144 3584 4550 3584 
Q 5097 3584 5394 3201 
Q 5691 2819 5691 2113 
L 5691 0 
L 5113 0 
L 5113 2094 
Q 5113 2597 4934 2840 
Q 4756 3084 4391 3084 
Q 3944 3084 3684 2787 
Q 3425 2491 3425 1978 
L 3425 0 
L 2847 0 
L 2847 2094 
Q 2847 2600 2669 2842 
Q 2491 3084 2119 3084 
Q 1678 3084 1418 2786 
Q 1159 2488 1159 1978 
L 1159 0 
L 581 0 
L 581 3500 
L 1159 3500 
L 1159 2956 
Q 1356 3278 1631 3431 
Q 1906 3584 2284 3584 
Q 2666 3584 2933 3390 
Q 3200 3197 3328 2828 
z
" transform="scale(0.015625)"/>
       <path id="DejaVuSans-65" d="M 3597 1894 
L 3597 1613 
L 953 1613 
Q 991 1019 1311 708 
Q 1631 397 2203 397 
Q 2534 397 2845 478 
Q 3156 559 3463 722 
L 3463 178 
Q 3153 47 2828 -22 
Q 2503 -91 2169 -91 
Q 1331 -91 842 396 
Q 353 884 353 1716 
Q 353 2575 817 3079 
Q 1281 3584 2069 3584 
Q 2775 3584 3186 3129 
Q 3597 2675 3597 1894 
z
M 3022 2063 
Q 3016 2534 2758 2815 
Q 2500 3097 2075 3097 
Q 1594 3097 1305 2825 
Q 1016 2553 972 2059 
L 3022 2063 
z
" transform="scale(0.015625)"/>
      </defs>
      <use xlink:href="#DejaVuSans-55"/>
      <use xlink:href="#DejaVuSans-54" transform="translate(73.193359 0)"/>
      <use xlink:href="#DejaVuSans-43" transform="translate(128.402344 0)"/>
      <use xlink:href="#DejaVuSans-20" transform="translate(198.226562 0)"/>
      <use xlink:href="#DejaVuSans-74" transform="translate(230.013672 0)"/>
      <use xlink:href="#DejaVuSans-69" transform="translate(269.222656 0)"/>
      <use xlink:href="#DejaVuSans-6d" transform="translate(297.005859 0)"/>
      <use xlink:href="#DejaVuSans-65" transform="translate(394.417969 0)"/>
     </g>
    </g>
   </g>
   <g id="matplotlib.axis_2">
    <g id="ytick_1">
     <g id="line2d_4">
      <defs>
       <path id="me8c4fcf816" d="M 0 0 
L -3.5 0 
" style="stroke: #000000; stroke-width: 0.8"/>
      </defs>
      <g>
       <use xlink:href="#me8c4fcf816" x="57.17" y="251.273255" style="stroke: #000000; stroke-width: 0.8"/>
      </g>
     </g>
     <g id="text_5">
      <!-- 0 -->
      <g transform="translate(43.8075 255.072474) scale(0.1 -0.1)">
       <use xlink:href="#DejaVuSans-30"/>
      </g>
     </g>
    </g>
    <g id="ytick_2">
     <g id="line2d_5">
      <g>
       <use xlink:href="#me8c4fcf816" x="57.17" y="208.149639" style="stroke: #000000; stroke-width: 0.8"/>
      </g>
     </g>
     <g id="text_6">
      <!-- 500 -->
      <g transform="translate(31.0825 211.948858) scale(0.1 -0.1)">
       <use xlink:href="#DejaVuSans-35"/>
       <use xlink:href="#DejaVuSans-30" transform="translate(63.623047 0)"/>
       <use xlink:href="#DejaVuSans-30" transform="translate(127.246094 0)"/>
      </g>
     </g>
    </g>
    <g id="ytick_3">
     <g id="line2d_6">
      <g>
       <use xlink:href="#me8c4fcf816" x="57.17" y="165.026024" style="stroke: #000000; stroke-width: 0.8"/>
      </g>
     </g>
     <g id="text_7">
      <!-- 1000 -->
      <g transform="translate(24.72 168.825242) scale(0.1 -0.1)">
       <use xlink:href="#DejaVuSans-31"/>
       <use xlink:href="#DejaVuSans-30" transform="translate(63.623047 0)"/>
       <use xlink:href="#DejaVuSans-30" transform="translate(127.246094 0)"/>
       <use xlink:href="#DejaVuSans-30" transform="translate(190.869141 0)"/>
      </g>
     </g>
    </g>
    <g id="ytick_4">
     <g id="line2d_7">
      <g>
       <use xlink:href="#me8c4fcf816" x="57.17" y="121.902408" style="stroke: #000000; stroke-width: 0.8"/>
      </g>
     </g>
     <g id="text_8">
      <!-- 1500 -->
      <g transform="translate(24.72 125.701627) scale(0.1 -0.1)">
       <use xlink:href="#DejaVuSans-31"/>
       <use xlink:href="#DejaVuSans-35" transform="translate(63.623047 0)"/>
       <use xlink:href="#DejaVuSans-30" transform="translate(127.246094 0)"/>
       <use xlink:href="#DejaVuSans-30" transform="translate(190.869141 0)"/>
      </g>
     </g>
    </g>
    <g id="ytick_5">
     <g id="line2d_8">
      <g>
       <use xlink:href="#me8c4fcf816" x="57.17" y="78.778792" style="stroke: #000000; stroke-width: 0.8"/>
      </g>
     </g>
     <g id="text_9">
      <!-- 2000 -->
      <g transform="translate(24.72 82.578011) scale(0.1 -0.1)">
       <use xlink:href="#DejaVuSans-32"/>
       <use xlink:href="#DejaVuSans-30" transform="translate(63.623047 0)"/>
       <use xlink:href="#DejaVuSans-30" transform="translate(127.246094 0)"/>
       <use xlink:href="#DejaVuSans-30" transform="translate(190.869141 0)"/>
      </g>
     </g>
    </g>
    <g id="ytick_6">
     <g id="line2d_9">
      <g>
       <use xlink:href="#me8c4fcf816" x="57.17" y="35.655176" style="stroke: #000000; stroke-width: 0.8"/>
      </g>
     </g>
     <g id="text_10">
      <!-- 2500 -->
      <g transform="translate(24.72 39.454395) scale(0.1 -0.1)">
       <use xlink:href="#DejaVuSans-32"/>
       <use xlink:href="#DejaVuSans-35" transform="translate(63.623047 0)"/>
       <use xlink:href="#DejaVuSans-30" transform="translate(127.246094 0)"/>
       <use xlink:href="#DejaVuSans-30" transform="translate(190.869141 0)"/>
      </g>
     </g>
    </g>
    <g id="text_11">
     <!-- Absolute cross-track offset (km) -->
     <g transform="translate(18.640313 224.040388) rotate(-90) scale(0.1 -0.1)">
      <defs>
       <path id="DejaVuSans-41" d="M 2188 4044 
L 1331 1722 
L 3047 1722 
L 2188 4044 
z
M 1831 4666 
L 2547 4666 
L 4325 0 
L 3669 0 
L 3244 1197 
L 1141 1197 
L 716 0 
L 50 0 
L 1831 4666 
z
" transform="scale(0.015625)"/>
       <path id="DejaVuSans-62" d="M 3116 1747 
Q 3116 2381 2855 2742 
Q 2594 3103 2138 3103 
Q 1681 3103 1420 2742 
Q 1159 2381 1159 1747 
Q 1159 1113 1420 752 
Q 1681 391 2138 391 
Q 2594 391 2855 752 
Q 3116 1113 3116 1747 
z
M 1159 2969 
Q 1341 3281 1617 3432 
Q 1894 3584 2278 3584 
Q 2916 3584 3314 3078 
Q 3713 2572 3713 1747 
Q 3713 922 3314 415 
Q 2916 -91 2278 -91 
Q 1894 -91 1617 61 
Q 1341 213 1159 525 
L 1159 0 
L 581 0 
L 581 4863 
L 1159 4863 
L 1159 2969 
z
" transform="scale(0.015625)"/>
       <path id="DejaVuSans-73" d="M 2834 3397 
L 2834 2853 
Q 2591 2978 2328 3040 
Q 2066 3103 1784 3103 
Q 1356 3103 1142 2972 
Q 928 2841 928 2578 
Q 928 2378 1081 2264 
Q 1234 2150 1697 2047 
L 1894 2003 
Q 2506 1872 2764 1633 
Q 3022 1394 3022 966 
Q 3022 478 2636 193 
Q 2250 -91 1575 -91 
Q 1294 -91 989 -36 
Q 684 19 347 128 
L 347 722 
Q 666 556 975 473 
Q 1284 391 1588 391 
Q 1994 391 2212 530 
Q 2431 669 2431 922 
Q 2431 1156 2273 1281 
Q 2116 1406 1581 1522 
L 1381 1569 
Q 847 1681 609 1914 
Q 372 2147 372 2553 
Q 372 3047 722 3315 
Q 1072 3584 1716 3584 
Q 2034 3584 2315 3537 
Q 2597 3491 2834 3397 
z
" transform="scale(0.015625)"/>
       <path id="DejaVuSans-6f" d="M 1959 3097 
Q 1497 3097 1228 2736 
Q 959 2375 959 1747 
Q 959 1119 1226 758 
Q 1494 397 1959 397 
Q 2419 397 2687 759 
Q 2956 1122 2956 1747 
Q 2956 2369 2687 2733 
Q 2419 3097 1959 3097 
z
M 1959 3584 
Q 2709 3584 3137 3096 
Q 3566 2609 3566 1747 
Q 3566 888 3137 398 
Q 2709 -91 1959 -91 
Q 1206 -91 779 398 
Q 353 888 353 1747 
Q 353 2609 779 3096 
Q 1206 3584 1959 3584 
z
" transform="scale(0.015625)"/>
       <path id="DejaVuSans-6c" d="M 603 4863 
L 1178 4863 
L 1178 0 
L 603 0 
L 603 4863 
z
" transform="scale(0.015625)"/>
       <path id="DejaVuSans-75" d="M 544 1381 
L 544 3500 
L 1119 3500 
L 1119 1403 
Q 1119 906 1312 657 
Q 1506 409 1894 409 
Q 2359 409 2629 706 
Q 2900 1003 2900 1516 
L 2900 3500 
L 3475 3500 
L 3475 0 
L 2900 0 
L 2900 538 
Q 2691 219 2414 64 
Q 2138 -91 1772 -91 
Q 1169 -91 856 284 
Q 544 659 544 1381 
z
M 1991 3584 
L 1991 3584 
z
" transform="scale(0.015625)"/>
       <path id="DejaVuSans-63" d="M 3122 3366 
L 3122 2828 
Q 2878 2963 2633 3030 
Q 2388 3097 2138 3097 
Q 1578 3097 1268 2742 
Q 959 2388 959 1747 
Q 959 1106 1268 751 
Q 1578 397 2138 397 
Q 2388 397 2633 464 
Q 2878 531 3122 666 
L 3122 134 
Q 2881 22 2623 -34 
Q 2366 -91 2075 -91 
Q 1284 -91 818 406 
Q 353 903 353 1747 
Q 353 2603 823 3093 
Q 1294 3584 2113 3584 
Q 2378 3584 2631 3529 
Q 2884 3475 3122 3366 
z
" transform="scale(0.015625)"/>
       <path id="DejaVuSans-72" d="M 2631 2963 
Q 2534 3019 2420 3045 
Q 2306 3072 2169 3072 
Q 1681 3072 1420 2755 
Q 1159 2438 1159 1844 
L 1159 0 
L 581 0 
L 581 3500 
L 1159 3500 
L 1159 2956 
Q 1341 3275 1631 3429 
Q 1922 3584 2338 3584 
Q 2397 3584 2469 3576 
Q 2541 3569 2628 3553 
L 2631 2963 
z
" transform="scale(0.015625)"/>
       <path id="DejaVuSans-2d" d="M 313 2009 
L 1997 2009 
L 1997 1497 
L 313 1497 
L 313 2009 
z
" transform="scale(0.015625)"/>
       <path id="DejaVuSans-61" d="M 2194 1759 
Q 1497 1759 1228 1600 
Q 959 1441 959 1056 
Q 959 750 1161 570 
Q 1363 391 1709 391 
Q 2188 391 2477 730 
Q 2766 1069 2766 1631 
L 2766 1759 
L 2194 1759 
z
M 3341 1997 
L 3341 0 
L 2766 0 
L 2766 531 
Q 2569 213 2275 61 
Q 1981 -91 1556 -91 
Q 1019 -91 701 211 
Q 384 513 384 1019 
Q 384 1609 779 1909 
Q 1175 2209 1959 2209 
L 2766 2209 
L 2766 2266 
Q 2766 2663 2505 2880 
Q 2244 3097 1772 3097 
Q 1472 3097 1187 3025 
Q 903 2953 641 2809 
L 641 3341 
Q 956 3463 1253 3523 
Q 1550 3584 1831 3584 
Q 2591 3584 2966 3190 
Q 3341 2797 3341 1997 
z
" transform="scale(0.015625)"/>
       <path id="DejaVuSans-6b" d="M 581 4863 
L 1159 4863 
L 1159 1991 
L 2875 3500 
L 3609 3500 
L 1753 1863 
L 3688 0 
L 2938 0 
L 1159 1709 
L 1159 0 
L 581 0 
L 581 4863 
z
" transform="scale(0.015625)"/>
       <path id="DejaVuSans-66" d="M 2375 4863 
L 2375 4384 
L 1825 4384 
Q 1516 4384 1395 4259 
Q 1275 4134 1275 3809 
L 1275 3500 
L 2222 3500 
L 2222 3053 
L 1275 3053 
L 1275 0 
L 697 0 
L 697 3053 
L 147 3053 
L 147 3500 
L 697 3500 
L 697 3744 
Q 697 4328 969 4595 
Q 1241 4863 1831 4863 
L 2375 4863 
z
" transform="scale(0.015625)"/>
       <path id="DejaVuSans-28" d="M 1984 4856 
Q 1566 4138 1362 3434 
Q 1159 2731 1159 2009 
Q 1159 1288 1364 580 
Q 1569 -128 1984 -844 
L 1484 -844 
Q 1016 -109 783 600 
Q 550 1309 550 2009 
Q 550 2706 781 3412 
Q 1013 4119 1484 4856 
L 1984 4856 
z
" transform="scale(0.015625)"/>
       <path id="DejaVuSans-29" d="M 513 4856 
L 1013 4856 
Q 1481 4119 1714 3412 
Q 1947 2706 1947 2009 
Q 1947 1309 1714 600 
Q 1481 -109 1013 -844 
L 513 -844 
Q 928 -128 1133 580 
Q 1338 1288 1338 2009 
Q 1338 2731 1133 3434 
Q 928 4138 513 4856 
z
" transform="scale(0.015625)"/>
      </defs>
      <use xlink:href="#DejaVuSans-41"/>
      <use xlink:href="#DejaVuSans-62" transform="translate(68.408203 0)"/>
      <use xlink:href="#DejaVuSans-73" transform="translate(131.884766 0)"/>
      <use xlink:href="#DejaVuSans-6f" transform="translate(183.984375 0)"/>
      <use xlink:href="#DejaVuSans-6c" transform="translate(245.166016 0)"/>
      <use xlink:href="#DejaVuSans-75" transform="translate(272.949219 0)"/>
      <use xlink:href="#DejaVuSans-74" transform="translate(336.328125 0)"/>
      <use xlink:href="#DejaVuSans-65" transform="translate(375.537109 0)"/>
      <use xlink:href="#DejaVuSans-20" transform="translate(437.060547 0)"/>
      <use xlink:href="#DejaVuSans-63" transform="translate(468.847656 0)"/>
      <use xlink:href="#DejaVuSans-72" transform="translate(523.828125 0)"/>
      <use xlink:href="#DejaVuSans-6f" transform="translate(562.691406 0)"/>
      <use xlink:href="#DejaVuSans-73" transform="translate(623.873047 0)"/>
      <use xlink:href="#DejaVuSans-73" transform="translate(675.972656 0)"/>
      <use xlink:href="#DejaVuSans-2d" transform="translate(728.072266 0)"/>
      <use xlink:href="#DejaVuSans-74" transform="translate(764.15625 0)"/>
      <use xlink:href="#DejaVuSans-72" transform="translate(803.365234 0)"/>
      <use xlink:href="#DejaVuSans-61" transform="translate(844.478516 0)"/>
      <use xlink:href="#DejaVuSans-63" transform="translate(905.757812 0)"/>
      <use xlink:href="#DejaVuSans-6b" transform="translate(960.738281 0)"/>
      <use xlink:href="#DejaVuSans-20" transform="translate(1018.648438 0)"/>
      <use xlink:href="#DejaVuSans-6f" transform="translate(1050.435547 0)"/>
      <use xlink:href="#DejaVuSans-66" transform="translate(1111.617188 0)"/>
      <use xlink:href="#DejaVuSans-66" transform="translate(1146.822266 0)"/>
      <use xlink:href="#DejaVuSans-73" transform="translate(1182.027344 0)"/>
      <use xlink:href="#DejaVuSans-65" transform="translate(1234.126953 0)"/>
      <use xlink:href="#DejaVuSans-74" transform="translate(1295.650391 0)"/>
      <use xlink:href="#DejaVuSans-20" transform="translate(1334.859375 0)"/>
      <use xlink:href="#DejaVuSans-28" transform="translate(1366.646484 0)"/>
      <use xlink:href="#DejaVuSans-6b" transform="translate(1405.660156 0)"/>
      <use xlink:href="#DejaVuSans-6d" transform="translate(1463.570312 0)"/>
      <use xlink:href="#DejaVuSans-29" transform="translate(1560.982422 0)"/>
     </g>
    </g>
   </g>
   <g id="line2d_10">
    <path d="M 80.262273 41.773211 
L 86.955685 47.924558 
L 93.649097 54.075418 
L 100.34251 60.225789 
L 107.035922 66.375669 
L 113.729335 72.525055 
L 120.422747 78.673946 
L 127.116159 84.822338 
L 133.809572 90.970231 
L 140.502984 97.117623 
L 147.196397 103.26451 
L 153.889809 109.410893 
L 160.583221 115.556768 
L 167.276634 121.702135 
L 173.970046 127.846991 
L 180.663458 133.991335 
L 187.356871 140.135165 
L 194.050283 146.278479 
L 200.743696 152.421275 
L 207.437108 158.563552 
L 214.13052 164.705308 
L 220.823933 170.846539 
L 227.517345 176.987245 
L 234.210758 183.127421 
L 240.90417 189.267064 
L 247.597582 195.406169 
L 254.290995 201.544728 
L 260.984407 207.68273 
L 267.67782 213.820157 
L 274.371232 219.95698 
L 281.064644 226.093137 
L 287.758057 232.228491 
L 294.451469 238.362643 
L 301.144881 244.493755 
L 307.838294 250.554306 
L 314.531706 245.765953 
L 321.225119 239.637846 
L 327.918531 233.506582 
L 334.611943 227.374995 
L 341.305356 221.243605 
L 347.998768 215.112578 
L 354.692181 208.981985 
L 361.385593 202.851861 
L 368.079005 196.722224 
L 374.772418 190.593085 
L 381.46583 184.46445 
L 388.159243 178.336325 
L 394.852655 172.208712 
L 401.546067 166.081614 
L 408.23948 159.95503 
L 414.932892 153.828962 
L 421.626305 147.70341 
L 428.319717 141.578374 
L 435.013129 135.453855 
L 441.706542 129.329851 
L 448.399954 123.206362 
L 455.093366 117.083388 
L 461.786779 110.960927 
L 468.480191 104.838981 
L 475.173604 98.717546 
L 481.867016 92.596623 
L 488.560428 86.476211 
L 495.253841 80.356308 
L 501.947253 74.236913 
L 508.640666 68.118026 
L 515.334078 61.999645 
L 522.02749 55.881769 
L 528.720903 49.764397 
L 535.414315 43.647527 
L 542.107728 37.531157 
" clip-path="url(#p2933b15cd3)" style="fill: none; stroke: #1b9e77; stroke-width: 1.5; stroke-linecap: square"/>
   </g>
   <g id="line2d_11">
    <path d="M 80.262273 38.577552 
L 86.955685 44.729182 
L 93.649097 50.881107 
L 100.34251 57.033326 
L 107.035922 63.185836 
L 113.729335 69.338635 
L 120.422747 75.491719 
L 127.116159 81.645086 
L 133.809572 87.798734 
L 140.502984 93.95266 
L 147.196397 100.10686 
L 153.889809 106.261333 
L 160.583221 112.416074 
L 167.276634 118.571082 
L 173.970046 124.726353 
L 180.663458 130.881883 
L 187.356871 137.03767 
L 194.050283 143.19371 
L 200.743696 149.349998 
L 207.437108 155.506532 
L 214.13052 161.663307 
L 220.823933 167.820317 
L 227.517345 173.977558 
L 234.210758 180.135023 
L 240.90417 186.292704 
L 247.597582 192.450591 
L 254.290995 198.608673 
L 260.984407 204.766929 
L 267.67782 210.925334 
L 274.371232 217.083843 
L 281.064644 223.242374 
L 287.758057 229.400757 
L 294.451469 235.558564 
L 301.144881 241.714264 
L 307.838294 247.855323 
L 314.531706 248.465591 
L 321.225119 242.329885 
L 327.918531 236.173844 
L 334.611943 230.014962 
L 341.305356 223.855026 
L 347.998768 217.694516 
L 354.692181 211.533616 
L 361.385593 205.372415 
L 368.079005 199.210959 
L 374.772418 193.049277 
L 381.46583 186.887389 
L 388.159243 180.725309 
L 394.852655 174.563048 
L 401.546067 168.400614 
L 408.23948 162.238014 
L 414.932892 156.075256 
L 421.626305 149.912344 
L 428.319717 143.749285 
L 435.013129 137.586083 
L 441.706542 131.422743 
L 448.399954 125.259271 
L 455.093366 119.09567 
L 461.786779 112.931946 
L 468.480191 106.768102 
L 475.173604 100.604145 
L 481.867016 94.440077 
L 488.560428 88.275904 
L 495.253841 82.111629 
L 501.947253 75.947258 
L 508.640666 69.782795 
L 515.334078 63.618245 
L 522.02749 57.453611 
L 528.720903 51.288899 
L 535.414315 45.124113 
L 542.107728 38.959258 
" clip-path="url(#p2933b15cd3)" style="fill: none; stroke: #d95f02; stroke-width: 1.5; stroke-linecap: square"/>
   </g>
   <g id="line2d_12">
    <path d="M 80.262273 40.17538 
L 86.955685 46.32692 
L 93.649097 52.478364 
L 100.34251 58.629711 
L 107.035922 64.780957 
L 113.729335 70.932101 
L 120.422747 77.083139 
L 127.116159 83.23407 
L 133.809572 89.384891 
L 140.502984 95.5356 
L 147.196397 101.686194 
L 153.889809 107.836671 
L 160.583221 113.987028 
L 167.276634 120.137264 
L 173.970046 126.287376 
L 180.663458 132.43736 
L 187.356871 138.587215 
L 194.050283 144.736938 
L 200.743696 150.886526 
L 207.437108 157.035976 
L 214.13052 163.185286 
L 220.823933 169.33445 
L 227.517345 175.483466 
L 234.210758 181.632328 
L 240.90417 187.781031 
L 247.597582 193.929567 
L 254.290995 200.077926 
L 260.984407 206.226093 
L 267.67782 212.374046 
L 274.371232 218.521748 
L 281.064644 224.669125 
L 287.758057 230.816023 
L 294.451469 236.962022 
L 301.144881 243.105449 
L 307.838294 249.224468 
L 314.531706 247.118879 
L 321.225119 240.982922 
L 327.918531 234.838908 
L 334.611943 228.693551 
L 341.305356 222.547823 
L 347.998768 216.40201 
L 354.692181 210.256231 
L 361.385593 204.11054 
L 368.079005 197.964971 
L 374.772418 191.819541 
L 381.46583 185.674263 
L 388.159243 179.529146 
L 394.852655 173.384197 
L 401.546067 167.239421 
L 408.23948 161.094821 
L 414.932892 154.950401 
L 421.626305 148.806165 
L 428.319717 142.662115 
L 435.013129 136.518253 
L 441.706542 130.374582 
L 448.399954 124.231105 
L 455.093366 118.087822 
L 461.786779 111.944736 
L 468.480191 105.801849 
L 475.173604 99.659163 
L 481.867016 93.516679 
L 488.560428 87.3744 
L 495.253841 81.232326 
L 501.947253 75.09046 
L 508.640666 68.948804 
L 515.334078 62.807358 
L 522.02749 56.666125 
L 528.720903 50.525107 
L 535.414315 44.384304 
L 542.107728 38.243719 
" clip-path="url(#p2933b15cd3)" style="fill: none; stroke: #7570b3; stroke-width: 1.5; stroke-linecap: square"/>
   </g>
   <g id="line2d_13">
    <path d="M 80.262273 40.175381 
L 86.955685 46.326887 
L 93.649097 52.478297 
L 100.34251 58.629609 
L 107.035922 64.780821 
L 113.729335 70.93193 
L 120.422747 77.082935 
L 127.116159 83.233831 
L 133.809572 89.384619 
L 140.502984 95.535294 
L 147.196397 101.685855 
L 153.889809 107.836299 
L 160.583221 113.986624 
L 167.276634 120.136827 
L 173.970046 126.286906 
L 180.663458 132.436859 
L 187.356871 138.586683 
L 194.050283 144.736376 
L 200.743696 150.885933 
L 207.437108 157.035353 
L 214.13052 163.184633 
L 220.823933 169.333769 
L 227.517345 175.482756 
L 234.210758 181.631591 
L 240.90417 187.780266 
L 247.597582 193.928776 
L 254.290995 200.077109 
L 260.984407 206.225251 
L 267.67782 212.373179 
L 274.371232 218.520857 
L 281.064644 224.668212 
L 287.758057 230.81509 
L 294.451469 236.961076 
L 301.144881 243.104489 
L 307.838294 249.211366 
L 314.531706 247.116808 
L 321.225119 240.983551 
L 327.918531 234.839778 
L 334.611943 228.694503 
L 341.305356 222.548818 
L 347.998768 216.403035 
L 354.692181 210.257278 
L 361.385593 204.111606 
L 368.079005 197.966051 
L 374.772418 191.820634 
L 381.46583 185.675368 
L 388.159243 179.53026 
L 394.852655 173.385319 
L 401.546067 167.24055 
L 408.23948 161.095955 
L 414.932892 154.95154 
L 421.626305 148.807307 
L 428.319717 142.663258 
L 435.013129 136.519397 
L 441.706542 130.375725 
L 448.399954 124.232246 
L 455.093366 118.08896 
L 461.786779 111.94587 
L 468.480191 105.802977 
L 475.173604 99.660285 
L 481.867016 93.517793 
L 488.560428 87.375505 
L 495.253841 81.233421 
L 501.947253 75.091544 
L 508.640666 68.949875 
L 515.334078 62.808416 
L 522.02749 56.667168 
L 528.720903 50.526134 
L 535.414315 44.385315 
L 542.107728 38.244712 
" clip-path="url(#p2933b15cd3)" style="fill: none; stroke-dasharray: 5.55,2.4; stroke-dashoffset: 0; stroke: #4d4d4d; stroke-width: 1.5"/>
   </g>
   <g id="line2d_14">
    <path d="M 57.17 248.685838 
L 565.2 248.685838 
" clip-path="url(#p2933b15cd3)" style="fill: none; stroke: #999999; stroke-width: 0.8; stroke-linecap: square"/>
   </g>
   <g id="line2d_15">
    <path d="M 57.17 245.235949 
L 565.2 245.235949 
" clip-path="url(#p2933b15cd3)" style="fill: none; stroke-dasharray: 0.8,1.32; stroke-dashoffset: 0; stroke: #999999; stroke-width: 0.8"/>
   </g>
   <g id="line2d_16">
    <path d="M 311.185 261.205464 
L 311.185 26.88 
" clip-path="url(#p2933b15cd3)" style="fill: none; stroke-dasharray: 3.33,1.44; stroke-dashoffset: 0; stroke: #666666; stroke-width: 0.9"/>
   </g>
   <g id="patch_3">
    <path d="M 57.17 261.205464 
L 57.17 26.88 
" style="fill: none; stroke: #000000; stroke-width: 0.8; stroke-linejoin: miter; stroke-linecap: square"/>
   </g>
   <g id="patch_4">
    <path d="M 565.2 261.205464 
L 565.2 26.88 
" style="fill: none; stroke: #000000; stroke-width: 0.8; stroke-linejoin: miter; stroke-linecap: square"/>
   </g>
   <g id="patch_5">
    <path d="M 57.17 261.205464 
L 565.2 261.205464 
" style="fill: none; stroke: #000000; stroke-width: 0.8; stroke-linejoin: miter; stroke-linecap: square"/>
   </g>
   <g id="patch_6">
    <path d="M 57.17 26.88 
L 565.2 26.88 
" style="fill: none; stroke: #000000; stroke-width: 0.8; stroke-linejoin: miter; stroke-linecap: square"/>
   </g>
   <g id="text_12">
    <!-- Deterministic absolute cross-track geometry -->
    <g transform="translate(177.460937 20.88) scale(0.12 -0.12)">
     <defs>
      <path id="DejaVuSans-44" d="M 1259 4147 
L 1259 519 
L 2022 519 
Q 2988 519 3436 956 
Q 3884 1394 3884 2338 
Q 3884 3275 3436 3711 
Q 2988 4147 2022 4147 
L 1259 4147 
z
M 628 4666 
L 1925 4666 
Q 3281 4666 3915 4102 
Q 4550 3538 4550 2338 
Q 4550 1131 3912 565 
Q 3275 0 1925 0 
L 628 0 
L 628 4666 
z
" transform="scale(0.015625)"/>
      <path id="DejaVuSans-6e" d="M 3513 2113 
L 3513 0 
L 2938 0 
L 2938 2094 
Q 2938 2591 2744 2837 
Q 2550 3084 2163 3084 
Q 1697 3084 1428 2787 
Q 1159 2491 1159 1978 
L 1159 0 
L 581 0 
L 581 3500 
L 1159 3500 
L 1159 2956 
Q 1366 3272 1645 3428 
Q 1925 3584 2291 3584 
Q 2894 3584 3203 3211 
Q 3513 2838 3513 2113 
z
" transform="scale(0.015625)"/>
      <path id="DejaVuSans-67" d="M 2906 1791 
Q 2906 2416 2648 2759 
Q 2391 3103 1925 3103 
Q 1463 3103 1205 2759 
Q 947 2416 947 1791 
Q 947 1169 1205 825 
Q 1463 481 1925 481 
Q 2391 481 2648 825 
Q 2906 1169 2906 1791 
z
M 3481 434 
Q 3481 -459 3084 -895 
Q 2688 -1331 1869 -1331 
Q 1566 -1331 1297 -1286 
Q 1028 -1241 775 -1147 
L 775 -588 
Q 1028 -725 1275 -790 
Q 1522 -856 1778 -856 
Q 2344 -856 2625 -561 
Q 2906 -266 2906 331 
L 2906 616 
Q 2728 306 2450 153 
Q 2172 0 1784 0 
Q 1141 0 747 490 
Q 353 981 353 1791 
Q 353 2603 747 3093 
Q 1141 3584 1784 3584 
Q 2172 3584 2450 3431 
Q 2728 3278 2906 2969 
L 2906 3500 
L 3481 3500 
L 3481 434 
z
" transform="scale(0.015625)"/>
      <path id="DejaVuSans-79" d="M 2059 -325 
Q 1816 -950 1584 -1140 
Q 1353 -1331 966 -1331 
L 506 -1331 
L 506 -850 
L 844 -850 
Q 1081 -850 1212 -737 
Q 1344 -625 1503 -206 
L 1606 56 
L 191 3500 
L 800 3500 
L 1894 763 
L 2988 3500 
L 3597 3500 
L 2059 -325 
z
" transform="scale(0.015625)"/>
     </defs>
     <use xlink:href="#DejaVuSans-44"/>
     <use xlink:href="#DejaVuSans-65" transform="translate(77.001953 0)"/>
     <use xlink:href="#DejaVuSans-74" transform="translate(138.525391 0)"/>
     <use xlink:href="#DejaVuSans-65" transform="translate(177.734375 0)"/>
     <use xlink:href="#DejaVuSans-72" transform="translate(239.257812 0)"/>
     <use xlink:href="#DejaVuSans-6d" transform="translate(278.621094 0)"/>
     <use xlink:href="#DejaVuSans-69" transform="translate(376.033203 0)"/>
     <use xlink:href="#DejaVuSans-6e" transform="translate(403.816406 0)"/>
     <use xlink:href="#DejaVuSans-69" transform="translate(467.195312 0)"/>
     <use xlink:href="#DejaVuSans-73" transform="translate(494.978516 0)"/>
     <use xlink:href="#DejaVuSans-74" transform="translate(547.078125 0)"/>
     <use xlink:href="#DejaVuSans-69" transform="translate(586.287109 0)"/>
     <use xlink:href="#DejaVuSans-63" transform="translate(614.070312 0)"/>
     <use xlink:href="#DejaVuSans-20" transform="translate(669.050781 0)"/>
     <use xlink:href="#DejaVuSans-61" transform="translate(700.837891 0)"/>
     <use xlink:href="#DejaVuSans-62" transform="translate(762.117188 0)"/>
     <use xlink:href="#DejaVuSans-73" transform="translate(825.59375 0)"/>
     <use xlink:href="#DejaVuSans-6f" transform="translate(877.693359 0)"/>
     <use xlink:href="#DejaVuSans-6c" transform="translate(938.875 0)"/>
     <use xlink:href="#DejaVuSans-75" transform="translate(966.658203 0)"/>
     <use xlink:href="#DejaVuSans-74" transform="translate(1030.037109 0)"/>
     <use xlink:href="#DejaVuSans-65" transform="translate(1069.246094 0)"/>
     <use xlink:href="#DejaVuSans-20" transform="translate(1130.769531 0)"/>
     <use xlink:href="#DejaVuSans-63" transform="translate(1162.556641 0)"/>
     <use xlink:href="#DejaVuSans-72" transform="translate(1217.537109 0)"/>
     <use xlink:href="#DejaVuSans-6f" transform="translate(1256.400391 0)"/>
     <use xlink:href="#DejaVuSans-73" transform="translate(1317.582031 0)"/>
     <use xlink:href="#DejaVuSans-73" transform="translate(1369.681641 0)"/>
     <use xlink:href="#DejaVuSans-2d" transform="translate(1421.78125 0)"/>
     <use xlink:href="#DejaVuSans-74" transform="translate(1457.865234 0)"/>
     <use xlink:href="#DejaVuSans-72" transform="translate(1497.074219 0)"/>
     <use xlink:href="#DejaVuSans-61" transform="translate(1538.1875 0)"/>
     <use xlink:href="#DejaVuSans-63" transform="translate(1599.466797 0)"/>
     <use xlink:href="#DejaVuSans-6b" transform="translate(1654.447266 0)"/>
     <use xlink:href="#DejaVuSans-20" transform="translate(1712.357422 0)"/>
     <use xlink:href="#DejaVuSans-67" transform="translate(1744.144531 0)"/>
     <use xlink:href="#DejaVuSans-65" transform="translate(1807.621094 0)"/>
     <use xlink:href="#DejaVuSans-6f" transform="translate(1869.144531 0)"/>
     <use xlink:href="#DejaVuSans-6d" transform="translate(1930.326172 0)"/>
     <use xlink:href="#DejaVuSans-65" transform="translate(2027.738281 0)"/>
     <use xlink:href="#DejaVuSans-74" transform="translate(2089.261719 0)"/>
     <use xlink:href="#DejaVuSans-72" transform="translate(2128.470703 0)"/>
     <use xlink:href="#DejaVuSans-79" transform="translate(2169.583984 0)"/>
    </g>
   </g>
   <g id="legend_1">
    <g id="patch_7">
     <path d="M 478.998437 93.5925 
L 558.2 93.5925 
Q 560.2 93.5925 560.2 91.5925 
L 560.2 33.88 
Q 560.2 31.88 558.2 31.88 
L 478.998437 31.88 
Q 476.998437 31.88 476.998437 33.88 
L 476.998437 91.5925 
Q 476.998437 93.5925 478.998437 93.5925 
z
" style="fill: #ffffff; opacity: 0.8; stroke: #cccccc; stroke-linejoin: miter"/>
    </g>
    <g id="line2d_17">
     <path d="M 480.998437 39.978437 
L 490.998437 39.978437 
L 500.998437 39.978437 
" style="fill: none; stroke: #1b9e77; stroke-width: 1.5; stroke-linecap: square"/>
    </g>
    <g id="text_13">
     <!-- FSAT-DP1 -->
     <g transform="translate(508.998437 43.478437) scale(0.1 -0.1)">
      <defs>
       <path id="DejaVuSans-46" d="M 628 4666 
L 3309 4666 
L 3309 4134 
L 1259 4134 
L 1259 2759 
L 3109 2759 
L 3109 2228 
L 1259 2228 
L 1259 0 
L 628 0 
L 628 4666 
z
" transform="scale(0.015625)"/>
       <path id="DejaVuSans-53" d="M 3425 4513 
L 3425 3897 
Q 3066 4069 2747 4153 
Q 2428 4238 2131 4238 
Q 1616 4238 1336 4038 
Q 1056 3838 1056 3469 
Q 1056 3159 1242 3001 
Q 1428 2844 1947 2747 
L 2328 2669 
Q 3034 2534 3370 2195 
Q 3706 1856 3706 1288 
Q 3706 609 3251 259 
Q 2797 -91 1919 -91 
Q 1588 -91 1214 -16 
Q 841 59 441 206 
L 441 856 
Q 825 641 1194 531 
Q 1563 422 1919 422 
Q 2459 422 2753 634 
Q 3047 847 3047 1241 
Q 3047 1584 2836 1778 
Q 2625 1972 2144 2069 
L 1759 2144 
Q 1053 2284 737 2584 
Q 422 2884 422 3419 
Q 422 4038 858 4394 
Q 1294 4750 2059 4750 
Q 2388 4750 2728 4690 
Q 3069 4631 3425 4513 
z
" transform="scale(0.015625)"/>
       <path id="DejaVuSans-50" d="M 1259 4147 
L 1259 2394 
L 2053 2394 
Q 2494 2394 2734 2622 
Q 2975 2850 2975 3272 
Q 2975 3691 2734 3919 
Q 2494 4147 2053 4147 
L 1259 4147 
z
M 628 4666 
L 2053 4666 
Q 2838 4666 3239 4311 
Q 3641 3956 3641 3272 
Q 3641 2581 3239 2228 
Q 2838 1875 2053 1875 
L 1259 1875 
L 1259 0 
L 628 0 
L 628 4666 
z
" transform="scale(0.015625)"/>
      </defs>
      <use xlink:href="#DejaVuSans-46"/>
      <use xlink:href="#DejaVuSans-53" transform="translate(55.769531 0)"/>
      <use xlink:href="#DejaVuSans-41" transform="translate(121.121094 0)"/>
      <use xlink:href="#DejaVuSans-54" transform="translate(181.779297 0)"/>
      <use xlink:href="#DejaVuSans-2d" transform="translate(233.738281 0)"/>
      <use xlink:href="#DejaVuSans-44" transform="translate(269.822266 0)"/>
      <use xlink:href="#DejaVuSans-50" transform="translate(346.824219 0)"/>
      <use xlink:href="#DejaVuSans-31" transform="translate(407.126953 0)"/>
     </g>
    </g>
    <g id="line2d_18">
     <path d="M 480.998437 54.656563 
L 490.998437 54.656563 
L 500.998437 54.656563 
" style="fill: none; stroke: #d95f02; stroke-width: 1.5; stroke-linecap: square"/>
    </g>
    <g id="text_14">
     <!-- FSAT-DP2 -->
     <g transform="translate(508.998437 58.156563) scale(0.1 -0.1)">
      <use xlink:href="#DejaVuSans-46"/>
      <use xlink:href="#DejaVuSans-53" transform="translate(55.769531 0)"/>
      <use xlink:href="#DejaVuSans-41" transform="translate(121.121094 0)"/>
      <use xlink:href="#DejaVuSans-54" transform="translate(181.779297 0)"/>
      <use xlink:href="#DejaVuSans-2d" transform="translate(233.738281 0)"/>
      <use xlink:href="#DejaVuSans-44" transform="translate(269.822266 0)"/>
      <use xlink:href="#DejaVuSans-50" transform="translate(346.824219 0)"/>
      <use xlink:href="#DejaVuSans-32" transform="translate(407.126953 0)"/>
     </g>
    </g>
    <g id="line2d_19">
     <path d="M 480.998437 69.334687 
L 490.998437 69.334687 
L 500.998437 69.334687 
" style="fill: none; stroke: #7570b3; stroke-width: 1.5; stroke-linecap: square"/>
    </g>
    <g id="text_15">
     <!-- FSAT-LDR -->
     <g transform="translate(508.998437 72.834687) scale(0.1 -0.1)">
      <defs>
       <path id="DejaVuSans-4c" d="M 628 4666 
L 1259 4666 
L 1259 531 
L 3531 531 
L 3531 0 
L 628 0 
L 628 4666 
z
" transform="scale(0.015625)"/>
       <path id="DejaVuSans-52" d="M 2841 2188 
Q 3044 2119 3236 1894 
Q 3428 1669 3622 1275 
L 4263 0 
L 3584 0 
L 2988 1197 
Q 2756 1666 2539 1819 
Q 2322 1972 1947 1972 
L 1259 1972 
L 1259 0 
L 628 0 
L 628 4666 
L 2053 4666 
Q 2853 4666 3247 4331 
Q 3641 3997 3641 3322 
Q 3641 2881 3436 2590 
Q 3231 2300 2841 2188 
z
M 1259 4147 
L 1259 2491 
L 2053 2491 
Q 2509 2491 2742 2702 
Q 2975 2913 2975 3322 
Q 2975 3731 2742 3939 
Q 2509 4147 2053 4147 
L 1259 4147 
z
" transform="scale(0.015625)"/>
      </defs>
      <use xlink:href="#DejaVuSans-46"/>
      <use xlink:href="#DejaVuSans-53" transform="translate(55.769531 0)"/>
      <use xlink:href="#DejaVuSans-41" transform="translate(121.121094 0)"/>
      <use xlink:href="#DejaVuSans-54" transform="translate(181.779297 0)"/>
      <use xlink:href="#DejaVuSans-2d" transform="translate(233.738281 0)"/>
      <use xlink:href="#DejaVuSans-4c" transform="translate(269.822266 0)"/>
      <use xlink:href="#DejaVuSans-44" transform="translate(325.535156 0)"/>
      <use xlink:href="#DejaVuSans-52" transform="translate(402.537109 0)"/>
     </g>
    </g>
    <g id="line2d_20">
     <path d="M 480.998437 84.012812 
L 490.998437 84.012812 
L 500.998437 84.012812 
" style="fill: none; stroke-dasharray: 5.55,2.4; stroke-dashoffset: 0; stroke: #4d4d4d; stroke-width: 1.5"/>
    </g>
    <g id="text_16">
     <!-- Centroid -->
     <g transform="translate(508.998437 87.512812) scale(0.1 -0.1)">
      <defs>
       <path id="DejaVuSans-64" d="M 2906 2969 
L 2906 4863 
L 3481 4863 
L 3481 0 
L 2906 0 
L 2906 525 
Q 2725 213 2448 61 
Q 2172 -91 1784 -91 
Q 1150 -91 751 415 
Q 353 922 353 1747 
Q 353 2572 751 3078 
Q 1150 3584 1784 3584 
Q 2172 3584 2448 3432 
Q 2725 3281 2906 2969 
z
M 947 1747 
Q 947 1113 1208 752 
Q 1469 391 1925 391 
Q 2381 391 2643 752 
Q 2906 1113 2906 1747 
Q 2906 2381 2643 2742 
Q 2381 3103 1925 3103 
Q 1469 3103 1208 2742 
Q 947 2381 947 1747 
z
" transform="scale(0.015625)"/>
      </defs>
      <use xlink:href="#DejaVuSans-43"/>
      <use xlink:href="#DejaVuSans-65" transform="translate(69.824219 0)"/>
      <use xlink:href="#DejaVuSans-6e" transform="translate(131.347656 0)"/>
      <use xlink:href="#DejaVuSans-74" transform="translate(194.726562 0)"/>
      <use xlink:href="#DejaVuSans-72" transform="translate(233.935547 0)"/>
      <use xlink:href="#DejaVuSans-6f" transform="translate(272.798828 0)"/>
      <use xlink:href="#DejaVuSans-69" transform="translate(333.980469 0)"/>
      <use xlink:href="#DejaVuSans-64" transform="translate(361.763672 0)"/>
     </g>
    </g>
   </g>
  </g>
 </g>
 <defs>
  <clipPath id="p2933b15cd3">
   <rect x="57.17" y="26.88" width="508.03" height="234.325464"/>
  </clipPath>
 </defs>
</svg>
