<?xml version="1.0" encoding="utf-8" standalone="no"?>
<!DOCTYPE svg PUBLIC "-//W3C//DTD SVG 1.1//EN"
  "http://www.w3.org/Graphics/SVG/1.1/DTD/svg11.dtd">
<svg xmlns:xlink="http://www.w3.org/1999/xlink" width="576pt" height="324pt" viewBox="0 0 576 324" xmlns="http://www.w3.org/2000/svg" version="1.1">
 <metadata>
  <rdf:RDF xmlns:dc="http://purl.org/dc/elements/1.1/" xmlns:cc="http://creativecommons.org/ns#" xmlns:rdf="http://www.w3.org/1999/02/22-rdf-syntax-ns#">
   <cc:Work>
    <dc:type rdf:resource="http://purl.org/dc/dcmitype/StillImage"/>
    <dc:date>2025-11-01T20:08:29.775148</dc:date>
    <dc:format>image/svg+xml</dc:format>
    <dc:creator>
     <cc:Agent>
      <dc:title>Matplotlib v3.10.7, https://matplotlib.org/</dc:title>
     </cc:Agent>
    </dc:creator>
   </cc:Work>
  </rdf:RDF>
 </metadata>
 <defs>
  <style type="text/css">*{stroke-linejoin: round; stroke-linecap: butt}</style>
 </defs>
 <g id="figure_1">
  <g id="patch_1">
   <path d="M 0 324 
L 576 324 
L 576 0 
L 0 0 
z
" style="fill: #ffffff"/>
  </g>
  <g id="axes_1">
   <g id="patch_2">
    <path d="M 65.54 261.205464 
L 565.2 261.205464 
L 565.2 26.88 
L 65.54 26.88 
z
" style="fill: #ffffff"/>
   </g>
   <g id="matplotlib.axis_1">
    <g id="xtick_1">
     <g id="line2d_1">
      <defs>
       <path id="mc63be42e62" d="M 0 0 
L 0 3.5 
" style="stroke: #000000; stroke-width: 0.8"/>
      </defs>
      <g>
       <use xlink:href="#mc63be42e62" x="111.292793" y="261.205464" style="stroke: #000000; stroke-width: 0.8"/>
      </g>
     </g>
     <g id="text_1">
      <!-- 21 07:35 -->
      <g transform="translate(71.522669 297.146841) rotate(-30) scale(0.1 -0.1)">
       <defs>
        <path id="DejaVuSans-32" d="M 1228 531 
L 3431 531 
L 3431 0 
L 469 0 
L 469 531 
Q 828 903 1448 1529 
Q 2069 2156 2228 2338 
Q 2531 2678 2651 2914 
Q 2772 3150 2772 3378 
Q 2772 3750 2511 3984 
Q 2250 4219 1831 4219 
Q 1534 4219 1204 4116 
Q 875 4013 500 3803 
L 500 4441 
Q 881 4594 1212 4672 
Q 1544 4750 1819 4750 
Q 2544 4750 2975 4387 
Q 3406 4025 3406 3419 
Q 3406 3131 3298 2873 
Q 3191 2616 2906 2266 
Q 2828 2175 2409 1742 
Q 1991 1309 1228 531 
z
" transform="scale(0.015625)"/>
        <path id="DejaVuSans-31" d="M 794 531 
L 1825 531 
L 1825 4091 
L 703 3866 
L 703 4441 
L 1819 4666 
L 2450 4666 
L 2450 531 
L 3481 531 
L 3481 0 
L 794 0 
L 794 531 
z
" transform="scale(0.015625)"/>
        <path id="DejaVuSans-20" transform="scale(0.015625)"/>
        <path id="DejaVuSans-30" d="M 2034 4250 
Q 1547 4250 1301 3770 
Q 1056 3291 1056 2328 
Q 1056 1369 1301 889 
Q 1547 409 2034 409 
Q 2525 409 2770 889 
Q 3016 1369 3016 2328 
Q 3016 3291 2770 3770 
Q 2525 4250 2034 4250 
z
M 2034 4750 
Q 2819 4750 3233 4129 
Q 3647 3509 3647 2328 
Q 3647 1150 3233 529 
Q 2819 -91 2034 -91 
Q 1250 -91 836 529 
Q 422 1150 422 2328 
Q 422 3509 836 4129 
Q 1250 4750 2034 4750 
z
" transform="scale(0.015625)"/>
        <path id="DejaVuSans-37" d="M 525 4666 
L 3525 4666 
L 3525 4397 
L 1831 0 
L 1172 0 
L 2766 4134 
L 525 4134 
L 525 4666 
z
" transform="scale(0.015625)"/>
        <path id="DejaVuSans-3a" d="M 750 794 
L 1409 794 
L 1409 0 
L 750 0 
L 750 794 
z
M 750 3309 
L 1409 3309 
L 1409 2516 
L 750 2516 
L 750 3309 
z
" transform="scale(0.015625)"/>
        <path id="DejaVuSans-33" d="M 2597 2516 
Q 3050 2419 3304 2112 
Q 3559 1806 3559 1356 
Q 3559 666 3084 287 
Q 2609 -91 1734 -91 
Q 1441 -91 1130 -33 
Q 819 25 488 141 
L 488 750 
Q 750 597 1062 519 
Q 1375 441 1716 441 
Q 2309 441 2620 675 
Q 2931 909 2931 1356 
Q 2931 1769 2642 2001 
Q 2353 2234 1838 2234 
L 1294 2234 
L 1294 2753 
L 1863 2753 
Q 2328 2753 2575 2939 
Q 2822 3125 2822 3475 
Q 2822 3834 2567 4026 
Q 2313 4219 1838 4219 
Q 1578 4219 1281 4162 
Q 984 4106 628 3988 
L 628 4550 
Q 988 4650 1302 4700 
Q 1616 4750 1894 4750 
Q 2613 4750 3031 4423 
Q 3450 4097 3450 3541 
Q 3450 3153 3228 2886 
Q 3006 2619 2597 2516 
z
" transform="scale(0.015625)"/>
        <path id="DejaVuSans-35" d="M 691 4666 
L 3169 4666 
L 3169 4134 
L 1269 4134 
L 1269 2991 
Q 1406 3038 1543 3061 
Q 1681 3084 1819 3084 
Q 2600 3084 3056 2656 
Q 3513 2228 3513 1497 
Q 3513 744 3044 326 
Q 2575 -91 1722 -91 
Q 1428 -91 1123 -41 
Q 819 9 494 109 
L 494 744 
Q 775 591 1075 516 
Q 1375 441 1709 441 
Q 2250 441 2565 725 
Q 2881 1009 2881 1497 
Q 2881 1984 2565 2268 
Q 2250 2553 1709 2553 
Q 1456 2553 1204 2497 
Q 953 2441 691 2322 
L 691 4666 
z
" transform="scale(0.015625)"/>
       </defs>
       <use xlink:href="#DejaVuSans-32"/>
       <use xlink:href="#DejaVuSans-31" transform="translate(63.623047 0)"/>
       <use xlink:href="#DejaVuSans-20" transform="translate(127.246094 0)"/>
       <use xlink:href="#DejaVuSans-30" transform="translate(159.033203 0)"/>
       <use xlink:href="#DejaVuSans-37" transform="translate(222.65625 0)"/>
       <use xlink:href="#DejaVuSans-3a" transform="translate(286.279297 0)"/>
       <use xlink:href="#DejaVuSans-33" transform="translate(319.970703 0)"/>
       <use xlink:href="#DejaVuSans-35" transform="translate(383.59375 0)"/>
      </g>
     </g>
    </g>
    <g id="xtick_2">
     <g id="line2d_2">
      <g>
       <use xlink:href="#mc63be42e62" x="308.786864" y="261.205464" style="stroke: #000000; stroke-width: 0.8"/>
      </g>
     </g>
     <g id="text_2">
      <!-- 21 07:40 -->
      <g transform="translate(269.016741 297.146841) rotate(-30) scale(0.1 -0.1)">
       <defs>
        <path id="DejaVuSans-34" d="M 2419 4116 
L 825 1625 
L 2419 1625 
L 2419 4116 
z
M 2253 4666 
L 3047 4666 
L 3047 1625 
L 3713 1625 
L 3713 1100 
L 3047 1100 
L 3047 0 
L 2419 0 
L 2419 1100 
L 313 1100 
L 313 1709 
L 2253 4666 
z
" transform="scale(0.015625)"/>
       </defs>
       <use xlink:href="#DejaVuSans-32"/>
       <use xlink:href="#DejaVuSans-31" transform="translate(63.623047 0)"/>
       <use xlink:href="#DejaVuSans-20" transform="translate(127.246094 0)"/>
       <use xlink:href="#DejaVuSans-30" transform="translate(159.033203 0)"/>
       <use xlink:href="#DejaVuSans-37" transform="translate(222.65625 0)"/>
       <use xlink:href="#DejaVuSans-3a" transform="translate(286.279297 0)"/>
       <use xlink:href="#DejaVuSans-34" transform="translate(319.970703 0)"/>
       <use xlink:href="#DejaVuSans-30" transform="translate(383.59375 0)"/>
      </g>
     </g>
    </g>
    <g id="xtick_3">
     <g id="line2d_3">
      <g>
       <use xlink:href="#mc63be42e62" x="506.280935" y="261.205464" style="stroke: #000000; stroke-width: 0.8"/>
      </g>
     </g>
     <g id="text_3">
      <!-- 21 07:45 -->
      <g transform="translate(466.510812 297.146841) rotate(-30) scale(0.1 -0.1)">
       <use xlink:href="#DejaVuSans-32"/>
       <use xlink:href="#DejaVuSans-31" transform="translate(63.623047 0)"/>
       <use xlink:href="#DejaVuSans-20" transform="translate(127.246094 0)"/>
       <use xlink:href="#DejaVuSans-30" transform="translate(159.033203 0)"/>
       <use xlink:href="#DejaVuSans-37" transform="translate(222.65625 0)"/>
       <use xlink:href="#DejaVuSans-3a" transform="translate(286.279297 0)"/>
       <use xlink:href="#DejaVuSans-34" transform="translate(319.970703 0)"/>
       <use xlink:href="#DejaVuSans-35" transform="translate(383.59375 0)"/>
      </g>
     </g>
    </g>
    <g id="text_4">
     <!-- UTC time -->
     <g transform="translate(292.573906 310.546341) scale(0.1 -0.1)">
      <defs>
       <path id="DejaVuSans-55" d="M 556 4666 
L 1191 4666 
L 1191 1831 
Q 1191 1081 1462 751 
Q 1734 422 2344 422 
Q 2950 422 3222 751 
Q 3494 1081 3494 1831 
L 3494 4666 
L 4128 4666 
L 4128 1753 
Q 4128 841 3676 375 
Q 3225 -91 2344 -91 
Q 1459 -91 1007 375 
Q 556 841 556 1753 
L 556 4666 
z
" transform="scale(0.015625)"/>
       <path id="DejaVuSans-54" d="M -19 4666 
L 3928 4666 
L 3928 4134 
L 2272 4134 
L 2272 0 
L 1638 0 
L 1638 4134 
L -19 4134 
L -19 4666 
z
" transform="scale(0.015625)"/>
       <path id="DejaVuSans-43" d="M 4122 4306 
L 4122 3641 
Q 3803 3938 3442 4084 
Q 3081 4231 2675 4231 
Q 1875 4231 1450 3742 
Q 1025 3253 1025 2328 
Q 1025 1406 1450 917 
Q 1875 428 2675 428 
Q 3081 428 3442 575 
Q 3803 722 4122 1019 
L 4122 359 
Q 3791 134 3420 21 
Q 3050 -91 2638 -91 
Q 1578 -91 968 557 
Q 359 1206 359 2328 
Q 359 3453 968 4101 
Q 1578 4750 2638 4750 
Q 3056 4750 3426 4639 
Q 3797 4528 4122 4306 
z
" transform="scale(0.015625)"/>
       <path id="DejaVuSans-74" d="M 1172 4494 
L 1172 3500 
L 2356 3500 
L 2356 3053 
L 1172 3053 
L 1172 1153 
Q 1172 725 1289 603 
Q 1406 481 1766 481 
L 2356 481 
L 2356 0 
L 1766 0 
Q 1100 0 847 248 
Q 594 497 594 1153 
L 594 3053 
L 172 3053 
L 172 3500 
L 594 3500 
L 594 4494 
L 1172 4494 
z
" transform="scale(0.015625)"/>
       <path id="DejaVuSans-69" d="M 603 3500 
L 1178 3500 
L 1178 0 
L 603 0 
L 603 3500 
z
M 603 4863 
L 1178 4863 
L 1178 4134 
L 603 4134 
L 603 4863 
z
" transform="scale(0.015625)"/>
       <path id="DejaVuSans-6d" d="M 3328 2828 
Q 3544 3216 3844 3400 
Q 4144 3584 4550 3584 
Q 5097 3584 5394 3201 
Q 5691 2819 5691 2113 
L 5691 0 
L 5113 0 
L 5113 2094 
Q 5113 2597 4934 2840 
Q 4756 3084 4391 3084 
Q 3944 3084 3684 2787 
Q 3425 2491 3425 1978 
L 3425 0 
L 2847 0 
L 2847 2094 
Q 2847 2600 2669 2842 
Q 2491 3084 2119 3084 
Q 1678 3084 1418 2786 
Q 1159 2488 1159 1978 
L 1159 0 
L 581 0 
L 581 3500 
L 1159 3500 
L 1159 2956 
Q 1356 3278 1631 3431 
Q 1906 3584 2284 3584 
Q 2666 3584 2933 3390 
Q 3200 3197 3328 2828 
z
" transform="scale(0.015625)"/>
       <path id="DejaVuSans-65" d="M 3597 1894 
L 3597 1613 
L 953 1613 
Q 991 1019 1311 708 
Q 1631 397 2203 397 
Q 2534 397 2845 478 
Q 3156 559 3463 722 
L 3463 178 
Q 3153 47 2828 -22 
Q 2503 -91 2169 -91 
Q 1331 -91 842 396 
Q 353 884 353 1716 
Q 353 2575 817 3079 
Q 1281 3584 2069 3584 
Q 2775 3584 3186 3129 
Q 3597 2675 3597 1894 
z
M 3022 2063 
Q 3016 2534 2758 2815 
Q 2500 3097 2075 3097 
Q 1594 3097 1305 2825 
Q 1016 2553 972 2059 
L 3022 2063 
z
" transform="scale(0.015625)"/>
      </defs>
      <use xlink:href="#DejaVuSans-55"/>
      <use xlink:href="#DejaVuSans-54" transform="translate(73.193359 0)"/>
      <use xlink:href="#DejaVuSans-43" transform="translate(128.402344 0)"/>
      <use xlink:href="#DejaVuSans-20" transform="translate(198.226562 0)"/>
      <use xlink:href="#DejaVuSans-74" transform="translate(230.013672 0)"/>
      <use xlink:href="#DejaVuSans-69" transform="translate(269.222656 0)"/>
      <use xlink:href="#DejaVuSans-6d" transform="translate(297.005859 0)"/>
      <use xlink:href="#DejaVuSans-65" transform="translate(394.417969 0)"/>
     </g>
    </g>
   </g>
   <g id="matplotlib.axis_2">
    <g id="ytick_1">
     <g id="line2d_4">
      <defs>
       <path id="m41179268e4" d="M 0 0 
L -3.5 0 
" style="stroke: #000000; stroke-width: 0.8"/>
      </defs>
      <g>
       <use xlink:href="#m41179268e4" x="65.54" y="230.472141" style="stroke: #000000; stroke-width: 0.8"/>
      </g>
     </g>
     <g id="text_5">
      <!-- −2000 -->
      <g transform="translate(24.710313 234.271359) scale(0.1 -0.1)">
       <defs>
        <path id="DejaVuSans-2212" d="M 678 2272 
L 4684 2272 
L 4684 1741 
L 678 1741 
L 678 2272 
z
" transform="scale(0.015625)"/>
       </defs>
       <use xlink:href="#DejaVuSans-2212"/>
       <use xlink:href="#DejaVuSans-32" transform="translate(83.789062 0)"/>
       <use xlink:href="#DejaVuSans-30" transform="translate(147.412109 0)"/>
       <use xlink:href="#DejaVuSans-30" transform="translate(211.035156 0)"/>
       <use xlink:href="#DejaVuSans-30" transform="translate(274.658203 0)"/>
      </g>
     </g>
    </g>
    <g id="ytick_2">
     <g id="line2d_5">
      <g>
       <use xlink:href="#m41179268e4" x="65.54" y="187.388116" style="stroke: #000000; stroke-width: 0.8"/>
      </g>
     </g>
     <g id="text_6">
      <!-- −1000 -->
      <g transform="translate(24.710313 191.187334) scale(0.1 -0.1)">
       <use xlink:href="#DejaVuSans-2212"/>
       <use xlink:href="#DejaVuSans-31" transform="translate(83.789062 0)"/>
       <use xlink:href="#DejaVuSans-30" transform="translate(147.412109 0)"/>
       <use xlink:href="#DejaVuSans-30" transform="translate(211.035156 0)"/>
       <use xlink:href="#DejaVuSans-30" transform="translate(274.658203 0)"/>
      </g>
     </g>
    </g>
    <g id="ytick_3">
     <g id="line2d_6">
      <g>
       <use xlink:href="#m41179268e4" x="65.54" y="144.304091" style="stroke: #000000; stroke-width: 0.8"/>
      </g>
     </g>
     <g id="text_7">
      <!-- 0 -->
      <g transform="translate(52.1775 148.103309) scale(0.1 -0.1)">
       <use xlink:href="#DejaVuSans-30"/>
      </g>
     </g>
    </g>
    <g id="ytick_4">
     <g id="line2d_7">
      <g>
       <use xlink:href="#m41179268e4" x="65.54" y="101.220066" style="stroke: #000000; stroke-width: 0.8"/>
      </g>
     </g>
     <g id="text_8">
      <!-- 1000 -->
      <g transform="translate(33.09 105.019284) scale(0.1 -0.1)">
       <use xlink:href="#DejaVuSans-31"/>
       <use xlink:href="#DejaVuSans-30" transform="translate(63.623047 0)"/>
       <use xlink:href="#DejaVuSans-30" transform="translate(127.246094 0)"/>
       <use xlink:href="#DejaVuSans-30" transform="translate(190.869141 0)"/>
      </g>
     </g>
    </g>
    <g id="ytick_5">
     <g id="line2d_8">
      <g>
       <use xlink:href="#m41179268e4" x="65.54" y="58.136041" style="stroke: #000000; stroke-width: 0.8"/>
      </g>
     </g>
     <g id="text_9">
      <!-- 2000 -->
      <g transform="translate(33.09 61.935259) scale(0.1 -0.1)">
       <use xlink:href="#DejaVuSans-32"/>
       <use xlink:href="#DejaVuSans-30" transform="translate(63.623047 0)"/>
       <use xlink:href="#DejaVuSans-30" transform="translate(127.246094 0)"/>
       <use xlink:href="#DejaVuSans-30" transform="translate(190.869141 0)"/>
      </g>
     </g>
    </g>
    <g id="text_10">
     <!-- Cross-track offset (km) -->
     <g transform="translate(18.630625 201.340388) rotate(-90) scale(0.1 -0.1)">
      <defs>
       <path id="DejaVuSans-72" d="M 2631 2963 
Q 2534 3019 2420 3045 
Q 2306 3072 2169 3072 
Q 1681 3072 1420 2755 
Q 1159 2438 1159 1844 
L 1159 0 
L 581 0 
L 581 3500 
L 1159 3500 
L 1159 2956 
Q 1341 3275 1631 3429 
Q 1922 3584 2338 3584 
Q 2397 3584 2469 3576 
Q 2541 3569 2628 3553 
L 2631 2963 
z
" transform="scale(0.015625)"/>
       <path id="DejaVuSans-6f" d="M 1959 3097 
Q 1497 3097 1228 2736 
Q 959 2375 959 1747 
Q 959 1119 1226 758 
Q 1494 397 1959 397 
Q 2419 397 2687 759 
Q 2956 1122 2956 1747 
Q 2956 2369 2687 2733 
Q 2419 3097 1959 3097 
z
M 1959 3584 
Q 2709 3584 3137 3096 
Q 3566 2609 3566 1747 
Q 3566 888 3137 398 
Q 2709 -91 1959 -91 
Q 1206 -91 779 398 
Q 353 888 353 1747 
Q 353 2609 779 3096 
Q 1206 3584 1959 3584 
z
" transform="scale(0.015625)"/>
       <path id="DejaVuSans-73" d="M 2834 3397 
L 2834 2853 
Q 2591 2978 2328 3040 
Q 2066 3103 1784 3103 
Q 1356 3103 1142 2972 
Q 928 2841 928 2578 
Q 928 2378 1081 2264 
Q 1234 2150 1697 2047 
L 1894 2003 
Q 2506 1872 2764 1633 
Q 3022 1394 3022 966 
Q 3022 478 2636 193 
Q 2250 -91 1575 -91 
Q 1294 -91 989 -36 
Q 684 19 347 128 
L 347 722 
Q 666 556 975 473 
Q 1284 391 1588 391 
Q 1994 391 2212 530 
Q 2431 669 2431 922 
Q 2431 1156 2273 1281 
Q 2116 1406 1581 1522 
L 1381 1569 
Q 847 1681 609 1914 
Q 372 2147 372 2553 
Q 372 3047 722 3315 
Q 1072 3584 1716 3584 
Q 2034 3584 2315 3537 
Q 2597 3491 2834 3397 
z
" transform="scale(0.015625)"/>
       <path id="DejaVuSans-2d" d="M 313 2009 
L 1997 2009 
L 1997 1497 
L 313 1497 
L 313 2009 
z
" transform="scale(0.015625)"/>
       <path id="DejaVuSans-61" d="M 2194 1759 
Q 1497 1759 1228 1600 
Q 959 1441 959 1056 
Q 959 750 1161 570 
Q 1363 391 1709 391 
Q 2188 391 2477 730 
Q 2766 1069 2766 1631 
L 2766 1759 
L 2194 1759 
z
M 3341 1997 
L 3341 0 
L 2766 0 
L 2766 531 
Q 2569 213 2275 61 
Q 1981 -91 1556 -91 
Q 1019 -91 701 211 
Q 384 513 384 1019 
Q 384 1609 779 1909 
Q 1175 2209 1959 2209 
L 2766 2209 
L 2766 2266 
Q 2766 2663 2505 2880 
Q 2244 3097 1772 3097 
Q 1472 3097 1187 3025 
Q 903 2953 641 2809 
L 641 3341 
Q 956 3463 1253 3523 
Q 1550 3584 1831 3584 
Q 2591 3584 2966 3190 
Q 3341 2797 3341 1997 
z
" transform="scale(0.015625)"/>
       <path id="DejaVuSans-63" d="M 3122 3366 
L 3122 2828 
Q 2878 2963 2633 3030 
Q 2388 3097 2138 3097 
Q 1578 3097 1268 2742 
Q 959 2388 959 1747 
Q 959 1106 1268 751 
Q 1578 397 2138 397 
Q 2388 397 2633 464 
Q 2878 531 3122 666 
L 3122 134 
Q 2881 22 2623 -34 
Q 2366 -91 2075 -91 
Q 1284 -91 818 406 
Q 353 903 353 1747 
Q 353 2603 823 3093 
Q 1294 3584 2113 3584 
Q 2378 3584 2631 3529 
Q 2884 3475 3122 3366 
z
" transform="scale(0.015625)"/>
       <path id="DejaVuSans-6b" d="M 581 4863 
L 1159 4863 
L 1159 1991 
L 2875 3500 
L 3609 3500 
L 1753 1863 
L 3688 0 
L 2938 0 
L 1159 1709 
L 1159 0 
L 581 0 
L 581 4863 
z
" transform="scale(0.015625)"/>
       <path id="DejaVuSans-66" d="M 2375 4863 
L 2375 4384 
L 1825 4384 
Q 1516 4384 1395 4259 
Q 1275 4134 1275 3809 
L 1275 3500 
L 2222 3500 
L 2222 3053 
L 1275 3053 
L 1275 0 
L 697 0 
L 697 3053 
L 147 3053 
L 147 3500 
L 697 3500 
L 697 3744 
Q 697 4328 969 4595 
Q 1241 4863 1831 4863 
L 2375 4863 
z
" transform="scale(0.015625)"/>
       <path id="DejaVuSans-28" d="M 1984 4856 
Q 1566 4138 1362 3434 
Q 1159 2731 1159 2009 
Q 1159 1288 1364 580 
Q 1569 -128 1984 -844 
L 1484 -844 
Q 1016 -109 783 600 
Q 550 1309 550 2009 
Q 550 2706 781 3412 
Q 1013 4119 1484 4856 
L 1984 4856 
z
" transform="scale(0.015625)"/>
       <path id="DejaVuSans-29" d="M 513 4856 
L 1013 4856 
Q 1481 4119 1714 3412 
Q 1947 2706 1947 2009 
Q 1947 1309 1714 600 
Q 1481 -109 1013 -844 
L 513 -844 
Q 928 -128 1133 580 
Q 1338 1288 1338 2009 
Q 1338 2731 1133 3434 
Q 928 4138 513 4856 
z
" transform="scale(0.015625)"/>
      </defs>
      <use xlink:href="#DejaVuSans-43"/>
      <use xlink:href="#DejaVuSans-72" transform="translate(69.824219 0)"/>
      <use xlink:href="#DejaVuSans-6f" transform="translate(108.6875 0)"/>
      <use xlink:href="#DejaVuSans-73" transform="translate(169.869141 0)"/>
      <use xlink:href="#DejaVuSans-73" transform="translate(221.96875 0)"/>
      <use xlink:href="#DejaVuSans-2d" transform="translate(274.068359 0)"/>
      <use xlink:href="#DejaVuSans-74" transform="translate(310.152344 0)"/>
      <use xlink:href="#DejaVuSans-72" transform="translate(349.361328 0)"/>
      <use xlink:href="#DejaVuSans-61" transform="translate(390.474609 0)"/>
      <use xlink:href="#DejaVuSans-63" transform="translate(451.753906 0)"/>
      <use xlink:href="#DejaVuSans-6b" transform="translate(506.734375 0)"/>
      <use xlink:href="#DejaVuSans-20" transform="translate(564.644531 0)"/>
      <use xlink:href="#DejaVuSans-6f" transform="translate(596.431641 0)"/>
      <use xlink:href="#DejaVuSans-66" transform="translate(657.613281 0)"/>
      <use xlink:href="#DejaVuSans-66" transform="translate(692.818359 0)"/>
      <use xlink:href="#DejaVuSans-73" transform="translate(728.023438 0)"/>
      <use xlink:href="#DejaVuSans-65" transform="translate(780.123047 0)"/>
      <use xlink:href="#DejaVuSans-74" transform="translate(841.646484 0)"/>
      <use xlink:href="#DejaVuSans-20" transform="translate(880.855469 0)"/>
      <use xlink:href="#DejaVuSans-28" transform="translate(912.642578 0)"/>
      <use xlink:href="#DejaVuSans-6b" transform="translate(951.65625 0)"/>
      <use xlink:href="#DejaVuSans-6d" transform="translate(1009.566406 0)"/>
      <use xlink:href="#DejaVuSans-29" transform="translate(1106.978516 0)"/>
     </g>
    </g>
   </g>
   <g id="line2d_9">
    <path d="M 88.251818 248.957944 
L 94.834954 245.885094 
L 101.418089 242.812488 
L 108.001225 239.740125 
L 114.584361 236.668009 
L 121.167496 233.596138 
L 127.750632 230.524516 
L 134.333768 227.453142 
L 140.916903 224.382017 
L 147.500039 221.311144 
L 154.083175 218.240521 
L 160.666311 215.170151 
L 167.249447 212.100035 
L 173.832582 209.030172 
L 180.415718 205.960565 
L 186.998853 202.891214 
L 193.581989 199.822119 
L 200.165125 196.753282 
L 206.748261 193.684704 
L 213.331397 190.616385 
L 219.914532 187.548326 
L 226.497668 184.480529 
L 233.080803 181.412995 
L 239.663939 178.345726 
L 246.247075 175.278723 
L 252.830211 172.211989 
L 259.413347 169.145527 
L 265.996482 166.079343 
L 272.579618 163.013447 
L 279.162753 159.947853 
L 285.745889 156.882591 
L 292.329025 153.81773 
L 298.912161 150.75347 
L 305.495296 147.690729 
L 312.078432 144.663235 
L 318.661568 141.552968 
L 325.244703 138.491727 
L 331.827839 135.428909 
L 338.410975 132.365931 
L 344.994111 129.30305 
L 351.577246 126.240351 
L 358.160382 123.177869 
L 364.743518 120.115621 
L 371.326653 117.053616 
L 377.909789 113.99186 
L 384.492925 110.930356 
L 391.076061 107.869106 
L 397.659196 104.808113 
L 404.242332 101.747376 
L 410.825468 98.686896 
L 417.408603 95.626675 
L 423.991739 92.566711 
L 430.574875 89.507004 
L 437.15801 86.447556 
L 443.741146 83.388365 
L 450.324282 80.329431 
L 456.907418 77.270755 
L 463.490553 74.212335 
L 470.073689 71.154172 
L 476.656825 68.096265 
L 483.23996 65.038613 
L 489.823096 61.981216 
L 496.406232 58.924074 
L 502.989367 55.867186 
L 509.572503 52.810551 
L 516.155639 49.754169 
L 522.738775 46.69804 
L 529.32191 43.642161 
L 535.905046 40.586534 
L 542.488182 37.531157 
" clip-path="url(#p48c5ebb6eb)" style="fill: none; stroke: #1b9e77; stroke-width: 1.5; stroke-linecap: square"/>
   </g>
   <g id="line2d_10">
    <path d="M 88.251818 250.554306 
L 94.834954 247.481316 
L 101.418089 244.408177 
L 108.001225 241.334891 
L 114.584361 238.261461 
L 121.167496 235.187886 
L 127.750632 232.114168 
L 134.333768 229.040309 
L 140.916903 225.96631 
L 147.500039 222.892172 
L 154.083175 219.817897 
L 160.666311 216.743486 
L 167.249447 213.66894 
L 173.832582 210.594262 
L 180.415718 207.519452 
L 186.998853 204.444512 
L 193.581989 201.369445 
L 200.165125 198.294251 
L 206.748261 195.218932 
L 213.331397 192.143491 
L 219.914532 189.06793 
L 226.497668 185.992251 
L 233.080803 182.916457 
L 239.663939 179.840551 
L 246.247075 176.764538 
L 252.830211 173.688421 
L 259.413347 170.612207 
L 265.996482 167.535905 
L 272.579618 164.45953 
L 279.162753 161.383102 
L 285.745889 158.306664 
L 292.329025 155.230299 
L 298.912161 152.154222 
L 305.495296 149.079198 
L 312.078432 146.011488 
L 318.661568 142.901547 
L 325.244703 139.836511 
L 331.827839 136.761316 
L 338.410975 133.684702 
L 344.994111 130.607562 
L 351.577246 127.530135 
L 358.160382 124.452513 
L 364.743518 121.374741 
L 371.326653 118.296841 
L 377.909789 115.218829 
L 384.492925 112.140713 
L 391.076061 109.062502 
L 397.659196 105.9842 
L 404.242332 102.905812 
L 410.825468 99.827341 
L 417.408603 96.748791 
L 423.991739 93.670164 
L 430.574875 90.591463 
L 437.15801 87.512691 
L 443.741146 84.43385 
L 450.324282 81.354944 
L 456.907418 78.275973 
L 463.490553 75.19694 
L 470.073689 72.117848 
L 476.656825 69.038698 
L 483.23996 65.959494 
L 489.823096 62.880237 
L 496.406232 59.800929 
L 502.989367 56.721573 
L 509.572503 53.642172 
L 516.155639 50.562726 
L 522.738775 47.483239 
L 529.32191 44.403713 
L 535.905046 41.32415 
L 542.488182 38.244552 
" clip-path="url(#p48c5ebb6eb)" style="fill: none; stroke: #d95f02; stroke-width: 1.5; stroke-linecap: square"/>
   </g>
   <g id="line2d_11">
    <path d="M 88.251818 249.756126 
L 94.834954 246.68318 
L 101.418089 243.610281 
L 108.001225 240.537432 
L 114.584361 237.464632 
L 121.167496 234.391884 
L 127.750632 231.319189 
L 134.333768 228.246547 
L 140.916903 225.17396 
L 147.500039 222.101429 
L 154.083175 219.028955 
L 160.666311 215.95654 
L 167.249447 212.884184 
L 173.832582 209.81189 
L 180.415718 206.739657 
L 186.998853 203.667488 
L 193.581989 200.595383 
L 200.165125 197.523345 
L 206.748261 194.451374 
L 213.331397 191.379471 
L 219.914532 188.307639 
L 226.497668 185.23588 
L 233.080803 182.164195 
L 239.663939 179.092586 
L 246.247075 176.021057 
L 252.830211 172.949612 
L 259.413347 169.878255 
L 265.996482 166.806993 
L 272.579618 163.735839 
L 279.162753 160.66481 
L 285.745889 157.593943 
L 292.329025 154.523316 
L 298.912161 151.453137 
L 305.495296 148.384244 
L 312.078432 145.327543 
L 318.661568 142.22881 
L 325.244703 139.163648 
L 331.827839 136.094461 
L 338.410975 133.024604 
L 344.994111 129.95456 
L 351.577246 126.884475 
L 358.160382 123.814407 
L 364.743518 120.744383 
L 371.326653 117.674419 
L 377.909789 114.604525 
L 384.492925 111.534707 
L 391.076061 108.464969 
L 397.659196 105.395316 
L 404.242332 102.325748 
L 410.825468 99.256269 
L 417.408603 96.18688 
L 423.991739 93.117582 
L 430.574875 90.048377 
L 437.15801 86.979267 
L 443.741146 83.910251 
L 450.324282 80.841333 
L 456.907418 77.772511 
L 463.490553 74.703788 
L 470.073689 71.635165 
L 476.656825 68.566641 
L 483.23996 65.498219 
L 489.823096 62.429899 
L 496.406232 59.361681 
L 502.989367 56.293568 
L 509.572503 53.225559 
L 516.155639 50.157655 
L 522.738775 47.089858 
L 529.32191 44.022167 
L 535.905046 40.954585 
L 542.488182 37.887111 
" clip-path="url(#p48c5ebb6eb)" style="fill: none; stroke: #7570b3; stroke-width: 1.5; stroke-linecap: square"/>
   </g>
   <g id="line2d_12">
    <path d="M 88.251818 249.756126 
L 94.834954 246.683197 
L 101.418089 243.610315 
L 108.001225 240.537483 
L 114.584361 237.464701 
L 121.167496 234.39197 
L 127.750632 231.319291 
L 134.333768 228.246666 
L 140.916903 225.174096 
L 147.500039 222.101581 
L 154.083175 219.029124 
L 160.666311 215.956726 
L 167.249447 212.884386 
L 173.832582 209.812108 
L 180.415718 206.739891 
L 186.998853 203.667738 
L 193.581989 200.595649 
L 200.165125 197.523626 
L 206.748261 194.45167 
L 213.331397 191.379783 
L 219.914532 188.307965 
L 226.497668 185.23622 
L 233.080803 182.164549 
L 239.663939 179.092954 
L 246.247075 176.021439 
L 252.830211 172.950007 
L 259.413347 169.878663 
L 265.996482 166.807414 
L 272.579618 163.736272 
L 279.162753 160.665255 
L 285.745889 157.594399 
L 292.329025 154.523782 
L 298.912161 151.45361 
L 305.495296 148.384724 
L 312.078432 145.334089 
L 318.661568 142.227775 
L 325.244703 139.163962 
L 331.827839 136.094896 
L 338.410975 133.025079 
L 344.994111 129.955058 
L 351.577246 126.884987 
L 358.160382 123.81493 
L 364.743518 120.744915 
L 371.326653 117.674959 
L 377.909789 114.605071 
L 384.492925 111.535259 
L 391.076061 108.465526 
L 397.659196 105.395876 
L 404.242332 102.326312 
L 410.825468 99.256835 
L 417.408603 96.187448 
L 423.991739 93.118152 
L 430.574875 90.048948 
L 437.15801 86.979838 
L 443.741146 83.910822 
L 450.324282 80.841903 
L 456.907418 77.77308 
L 463.490553 74.704354 
L 470.073689 71.635728 
L 476.656825 68.567201 
L 483.23996 65.498775 
L 489.823096 62.430451 
L 496.406232 59.362228 
L 502.989367 56.294109 
L 509.572503 53.226094 
L 516.155639 50.158184 
L 522.738775 47.090379 
L 529.32191 44.022681 
L 535.905046 40.95509 
L 542.488182 37.887607 
" clip-path="url(#p48c5ebb6eb)" style="fill: none; stroke-dasharray: 5.55,2.4; stroke-dashoffset: 0; stroke: #4d4d4d; stroke-width: 1.5"/>
   </g>
   <g id="line2d_13">
    <path d="M 65.54 144.304091 
L 565.2 144.304091 
" clip-path="url(#p48c5ebb6eb)" style="fill: none; stroke: #333333; stroke-width: 0.8; stroke-linecap: square"/>
   </g>
   <g id="line2d_14">
    <path d="M 65.54 143.01157 
L 565.2 143.01157 
" clip-path="url(#p48c5ebb6eb)" style="fill: none; stroke: #999999; stroke-width: 0.8; stroke-linecap: square"/>
   </g>
   <g id="line2d_15">
    <path d="M 65.54 145.596611 
L 565.2 145.596611 
" clip-path="url(#p48c5ebb6eb)" style="fill: none; stroke: #999999; stroke-width: 0.8; stroke-linecap: square"/>
   </g>
   <g id="line2d_16">
    <path d="M 65.54 141.288209 
L 565.2 141.288209 
" clip-path="url(#p48c5ebb6eb)" style="fill: none; stroke-dasharray: 0.8,1.32; stroke-dashoffset: 0; stroke: #999999; stroke-width: 0.8"/>
   </g>
   <g id="line2d_17">
    <path d="M 65.54 147.319972 
L 565.2 147.319972 
" clip-path="url(#p48c5ebb6eb)" style="fill: none; stroke-dasharray: 0.8,1.32; stroke-dashoffset: 0; stroke: #999999; stroke-width: 0.8"/>
   </g>
   <g id="line2d_18">
    <path d="M 315.37 261.205464 
L 315.37 26.88 
" clip-path="url(#p48c5ebb6eb)" style="fill: none; stroke-dasharray: 3.33,1.44; stroke-dashoffset: 0; stroke: #666666; stroke-width: 0.9"/>
   </g>
   <g id="patch_3">
    <path d="M 65.54 261.205464 
L 65.54 26.88 
" style="fill: none; stroke: #000000; stroke-width: 0.8; stroke-linejoin: miter; stroke-linecap: square"/>
   </g>
   <g id="patch_4">
    <path d="M 565.2 261.205464 
L 565.2 26.88 
" style="fill: none; stroke: #000000; stroke-width: 0.8; stroke-linejoin: miter; stroke-linecap: square"/>
   </g>
   <g id="patch_5">
    <path d="M 65.54 261.205464 
L 565.2 261.205464 
" style="fill: none; stroke: #000000; stroke-width: 0.8; stroke-linejoin: miter; stroke-linecap: square"/>
   </g>
   <g id="patch_6">
    <path d="M 65.54 26.88 
L 565.2 26.88 
" style="fill: none; stroke: #000000; stroke-width: 0.8; stroke-linejoin: miter; stroke-linecap: square"/>
   </g>
   <g id="text_11">
    <!-- Deterministic cross-track geometry -->
    <g transform="translate(209.349063 20.88) scale(0.12 -0.12)">
     <defs>
      <path id="DejaVuSans-44" d="M 1259 4147 
L 1259 519 
L 2022 519 
Q 2988 519 3436 956 
Q 3884 1394 3884 2338 
Q 3884 3275 3436 3711 
Q 2988 4147 2022 4147 
L 1259 4147 
z
M 628 4666 
L 1925 4666 
Q 3281 4666 3915 4102 
Q 4550 3538 4550 2338 
Q 4550 1131 3912 565 
Q 3275 0 1925 0 
L 628 0 
L 628 4666 
z
" transform="scale(0.015625)"/>
      <path id="DejaVuSans-6e" d="M 3513 2113 
L 3513 0 
L 2938 0 
L 2938 2094 
Q 2938 2591 2744 2837 
Q 2550 3084 2163 3084 
Q 1697 3084 1428 2787 
Q 1159 2491 1159 1978 
L 1159 0 
L 581 0 
L 581 3500 
L 1159 3500 
L 1159 2956 
Q 1366 3272 1645 3428 
Q 1925 3584 2291 3584 
Q 2894 3584 3203 3211 
Q 3513 2838 3513 2113 
z
" transform="scale(0.015625)"/>
      <path id="DejaVuSans-67" d="M 2906 1791 
Q 2906 2416 2648 2759 
Q 2391 3103 1925 3103 
Q 1463 3103 1205 2759 
Q 947 2416 947 1791 
Q 947 1169 1205 825 
Q 1463 481 1925 481 
Q 2391 481 2648 825 
Q 2906 1169 2906 1791 
z
M 3481 434 
Q 3481 -459 3084 -895 
Q 2688 -1331 1869 -1331 
Q 1566 -1331 1297 -1286 
Q 1028 -1241 775 -1147 
L 775 -588 
Q 1028 -725 1275 -790 
Q 1522 -856 1778 -856 
Q 2344 -856 2625 -561 
Q 2906 -266 2906 331 
L 2906 616 
Q 2728 306 2450 153 
Q 2172 0 1784 0 
Q 1141 0 747 490 
Q 353 981 353 1791 
Q 353 2603 747 3093 
Q 1141 3584 1784 3584 
Q 2172 3584 2450 3431 
Q 2728 3278 2906 2969 
L 2906 3500 
L 3481 3500 
L 3481 434 
z
" transform="scale(0.015625)"/>
      <path id="DejaVuSans-79" d="M 2059 -325 
Q 1816 -950 1584 -1140 
Q 1353 -1331 966 -1331 
L 506 -1331 
L 506 -850 
L 844 -850 
Q 1081 -850 1212 -737 
Q 1344 -625 1503 -206 
L 1606 56 
L 191 3500 
L 800 3500 
L 1894 763 
L 2988 3500 
L 3597 3500 
L 2059 -325 
z
" transform="scale(0.015625)"/>
     </defs>
     <use xlink:href="#DejaVuSans-44"/>
     <use xlink:href="#DejaVuSans-65" transform="translate(77.001953 0)"/>
     <use xlink:href="#DejaVuSans-74" transform="translate(138.525391 0)"/>
     <use xlink:href="#DejaVuSans-65" transform="translate(177.734375 0)"/>
     <use xlink:href="#DejaVuSans-72" transform="translate(239.257812 0)"/>
     <use xlink:href="#DejaVuSans-6d" transform="translate(278.621094 0)"/>
     <use xlink:href="#DejaVuSans-69" transform="translate(376.033203 0)"/>
     <use xlink:href="#DejaVuSans-6e" transform="translate(403.816406 0)"/>
     <use xlink:href="#DejaVuSans-69" transform="translate(467.195312 0)"/>
     <use xlink:href="#DejaVuSans-73" transform="translate(494.978516 0)"/>
     <use xlink:href="#DejaVuSans-74" transform="translate(547.078125 0)"/>
     <use xlink:href="#DejaVuSans-69" transform="translate(586.287109 0)"/>
     <use xlink:href="#DejaVuSans-63" transform="translate(614.070312 0)"/>
     <use xlink:href="#DejaVuSans-20" transform="translate(669.050781 0)"/>
     <use xlink:href="#DejaVuSans-63" transform="translate(700.837891 0)"/>
     <use xlink:href="#DejaVuSans-72" transform="translate(755.818359 0)"/>
     <use xlink:href="#DejaVuSans-6f" transform="translate(794.681641 0)"/>
     <use xlink:href="#DejaVuSans-73" transform="translate(855.863281 0)"/>
     <use xlink:href="#DejaVuSans-73" transform="translate(907.962891 0)"/>
     <use xlink:href="#DejaVuSans-2d" transform="translate(960.0625 0)"/>
     <use xlink:href="#DejaVuSans-74" transform="translate(996.146484 0)"/>
     <use xlink:href="#DejaVuSans-72" transform="translate(1035.355469 0)"/>
     <use xlink:href="#DejaVuSans-61" transform="translate(1076.46875 0)"/>
     <use xlink:href="#DejaVuSans-63" transform="translate(1137.748047 0)"/>
     <use xlink:href="#DejaVuSans-6b" transform="translate(1192.728516 0)"/>
     <use xlink:href="#DejaVuSans-20" transform="translate(1250.638672 0)"/>
     <use xlink:href="#DejaVuSans-67" transform="translate(1282.425781 0)"/>
     <use xlink:href="#DejaVuSans-65" transform="translate(1345.902344 0)"/>
     <use xlink:href="#DejaVuSans-6f" transform="translate(1407.425781 0)"/>
     <use xlink:href="#DejaVuSans-6d" transform="translate(1468.607422 0)"/>
     <use xlink:href="#DejaVuSans-65" transform="translate(1566.019531 0)"/>
     <use xlink:href="#DejaVuSans-74" transform="translate(1627.542969 0)"/>
     <use xlink:href="#DejaVuSans-72" transform="translate(1666.751953 0)"/>
     <use xlink:href="#DejaVuSans-79" transform="translate(1707.865234 0)"/>
    </g>
   </g>
   <g id="legend_1">
    <g id="patch_7">
     <path d="M 478.998437 93.5925 
L 558.2 93.5925 
Q 560.2 93.5925 560.2 91.5925 
L 560.2 33.88 
Q 560.2 31.88 558.2 31.88 
L 478.998437 31.88 
Q 476.998437 31.88 476.998437 33.88 
L 476.998437 91.5925 
Q 476.998437 93.5925 478.998437 93.5925 
z
" style="fill: #ffffff; opacity: 0.8; stroke: #cccccc; stroke-linejoin: miter"/>
    </g>
    <g id="line2d_19">
     <path d="M 480.998437 39.978437 
L 490.998437 39.978437 
L 500.998437 39.978437 
" style="fill: none; stroke: #1b9e77; stroke-width: 1.5; stroke-linecap: square"/>
    </g>
    <g id="text_12">
     <!-- FSAT-DP1 -->
     <g transform="translate(508.998437 43.478437) scale(0.1 -0.1)">
      <defs>
       <path id="DejaVuSans-46" d="M 628 4666 
L 3309 4666 
L 3309 4134 
L 1259 4134 
L 1259 2759 
L 3109 2759 
L 3109 2228 
L 1259 2228 
L 1259 0 
L 628 0 
L 628 4666 
z
" transform="scale(0.015625)"/>
       <path id="DejaVuSans-53" d="M 3425 4513 
L 3425 3897 
Q 3066 4069 2747 4153 
Q 2428 4238 2131 4238 
Q 1616 4238 1336 4038 
Q 1056 3838 1056 3469 
Q 1056 3159 1242 3001 
Q 1428 2844 1947 2747 
L 2328 2669 
Q 3034 2534 3370 2195 
Q 3706 1856 3706 1288 
Q 3706 609 3251 259 
Q 2797 -91 1919 -91 
Q 1588 -91 1214 -16 
Q 841 59 441 206 
L 441 856 
Q 825 641 1194 531 
Q 1563 422 1919 422 
Q 2459 422 2753 634 
Q 3047 847 3047 1241 
Q 3047 1584 2836 1778 
Q 2625 1972 2144 2069 
L 1759 2144 
Q 1053 2284 737 2584 
Q 422 2884 422 3419 
Q 422 4038 858 4394 
Q 1294 4750 2059 4750 
Q 2388 4750 2728 4690 
Q 3069 4631 3425 4513 
z
" transform="scale(0.015625)"/>
       <path id="DejaVuSans-41" d="M 2188 4044 
L 1331 1722 
L 3047 1722 
L 2188 4044 
z
M 1831 4666 
L 2547 4666 
L 4325 0 
L 3669 0 
L 3244 1197 
L 1141 1197 
L 716 0 
L 50 0 
L 1831 4666 
z
" transform="scale(0.015625)"/>
       <path id="DejaVuSans-50" d="M 1259 4147 
L 1259 2394 
L 2053 2394 
Q 2494 2394 2734 2622 
Q 2975 2850 2975 3272 
Q 2975 3691 2734 3919 
Q 2494 4147 2053 4147 
L 1259 4147 
z
M 628 4666 
L 2053 4666 
Q 2838 4666 3239 4311 
Q 3641 3956 3641 3272 
Q 3641 2581 3239 2228 
Q 2838 1875 2053 1875 
L 1259 1875 
L 1259 0 
L 628 0 
L 628 4666 
z
" transform="scale(0.015625)"/>
      </defs>
      <use xlink:href="#DejaVuSans-46"/>
      <use xlink:href="#DejaVuSans-53" transform="translate(55.769531 0)"/>
      <use xlink:href="#DejaVuSans-41" transform="translate(121.121094 0)"/>
      <use xlink:href="#DejaVuSans-54" transform="translate(181.779297 0)"/>
      <use xlink:href="#DejaVuSans-2d" transform="translate(233.738281 0)"/>
      <use xlink:href="#DejaVuSans-44" transform="translate(269.822266 0)"/>
      <use xlink:href="#DejaVuSans-50" transform="translate(346.824219 0)"/>
      <use xlink:href="#DejaVuSans-31" transform="translate(407.126953 0)"/>
     </g>
    </g>
    <g id="line2d_20">
     <path d="M 480.998437 54.656563 
L 490.998437 54.656563 
L 500.998437 54.656563 
" style="fill: none; stroke: #d95f02; stroke-width: 1.5; stroke-linecap: square"/>
    </g>
    <g id="text_13">
     <!-- FSAT-DP2 -->
     <g transform="translate(508.998437 58.156563) scale(0.1 -0.1)">
      <use xlink:href="#DejaVuSans-46"/>
      <use xlink:href="#DejaVuSans-53" transform="translate(55.769531 0)"/>
      <use xlink:href="#DejaVuSans-41" transform="translate(121.121094 0)"/>
      <use xlink:href="#DejaVuSans-54" transform="translate(181.779297 0)"/>
      <use xlink:href="#DejaVuSans-2d" transform="translate(233.738281 0)"/>
      <use xlink:href="#DejaVuSans-44" transform="translate(269.822266 0)"/>
      <use xlink:href="#DejaVuSans-50" transform="translate(346.824219 0)"/>
      <use xlink:href="#DejaVuSans-32" transform="translate(407.126953 0)"/>
     </g>
    </g>
    <g id="line2d_21">
     <path d="M 480.998437 69.334687 
L 490.998437 69.334687 
L 500.998437 69.334687 
" style="fill: none; stroke: #7570b3; stroke-width: 1.5; stroke-linecap: square"/>
    </g>
    <g id="text_14">
     <!-- FSAT-LDR -->
     <g transform="translate(508.998437 72.834687) scale(0.1 -0.1)">
      <defs>
       <path id="DejaVuSans-4c" d="M 628 4666 
L 1259 4666 
L 1259 531 
L 3531 531 
L 3531 0 
L 628 0 
L 628 4666 
z
" transform="scale(0.015625)"/>
       <path id="DejaVuSans-52" d="M 2841 2188 
Q 3044 2119 3236 1894 
Q 3428 1669 3622 1275 
L 4263 0 
L 3584 0 
L 2988 1197 
Q 2756 1666 2539 1819 
Q 2322 1972 1947 1972 
L 1259 1972 
L 1259 0 
L 628 0 
L 628 4666 
L 2053 4666 
Q 2853 4666 3247 4331 
Q 3641 3997 3641 3322 
Q 3641 2881 3436 2590 
Q 3231 2300 2841 2188 
z
M 1259 4147 
L 1259 2491 
L 2053 2491 
Q 2509 2491 2742 2702 
Q 2975 2913 2975 3322 
Q 2975 3731 2742 3939 
Q 2509 4147 2053 4147 
L 1259 4147 
z
" transform="scale(0.015625)"/>
      </defs>
      <use xlink:href="#DejaVuSans-46"/>
      <use xlink:href="#DejaVuSans-53" transform="translate(55.769531 0)"/>
      <use xlink:href="#DejaVuSans-41" transform="translate(121.121094 0)"/>
      <use xlink:href="#DejaVuSans-54" transform="translate(181.779297 0)"/>
      <use xlink:href="#DejaVuSans-2d" transform="translate(233.738281 0)"/>
      <use xlink:href="#DejaVuSans-4c" transform="translate(269.822266 0)"/>
      <use xlink:href="#DejaVuSans-44" transform="translate(325.535156 0)"/>
      <use xlink:href="#DejaVuSans-52" transform="translate(402.537109 0)"/>
     </g>
    </g>
    <g id="line2d_22">
     <path d="M 480.998437 84.012812 
L 490.998437 84.012812 
L 500.998437 84.012812 
" style="fill: none; stroke-dasharray: 5.55,2.4; stroke-dashoffset: 0; stroke: #4d4d4d; stroke-width: 1.5"/>
    </g>
    <g id="text_15">
     <!-- Centroid -->
     <g transform="translate(508.998437 87.512812) scale(0.1 -0.1)">
      <defs>
       <path id="DejaVuSans-64" d="M 2906 2969 
L 2906 4863 
L 3481 4863 
L 3481 0 
L 2906 0 
L 2906 525 
Q 2725 213 2448 61 
Q 2172 -91 1784 -91 
Q 1150 -91 751 415 
Q 353 922 353 1747 
Q 353 2572 751 3078 
Q 1150 3584 1784 3584 
Q 2172 3584 2448 3432 
Q 2725 3281 2906 2969 
z
M 947 1747 
Q 947 1113 1208 752 
Q 1469 391 1925 391 
Q 2381 391 2643 752 
Q 2906 1113 2906 1747 
Q 2906 2381 2643 2742 
Q 2381 3103 1925 3103 
Q 1469 3103 1208 2742 
Q 947 2381 947 1747 
z
" transform="scale(0.015625)"/>
      </defs>
      <use xlink:href="#DejaVuSans-43"/>
      <use xlink:href="#DejaVuSans-65" transform="translate(69.824219 0)"/>
      <use xlink:href="#DejaVuSans-6e" transform="translate(131.347656 0)"/>
      <use xlink:href="#DejaVuSans-74" transform="translate(194.726562 0)"/>
      <use xlink:href="#DejaVuSans-72" transform="translate(233.935547 0)"/>
      <use xlink:href="#DejaVuSans-6f" transform="translate(272.798828 0)"/>
      <use xlink:href="#DejaVuSans-69" transform="translate(333.980469 0)"/>
      <use xlink:href="#DejaVuSans-64" transform="translate(361.763672 0)"/>
     </g>
    </g>
   </g>
  </g>
 </g>
 <defs>
  <clipPath id="p48c5ebb6eb">
   <rect x="65.54" y="26.88" width="499.66" height="234.325464"/>
  </clipPath>
 </defs>
</svg>
