<?xml version="1.0" encoding="utf-8" standalone="no"?>
<!DOCTYPE svg PUBLIC "-//W3C//DTD SVG 1.1//EN"
  "http://www.w3.org/Graphics/SVG/1.1/DTD/svg11.dtd">
<svg xmlns:xlink="http://www.w3.org/1999/xlink" width="720pt" height="432pt" viewBox="0 0 720 432" xmlns="http://www.w3.org/2000/svg" version="1.1">
 <metadata>
  <rdf:RDF xmlns:dc="http://purl.org/dc/elements/1.1/" xmlns:cc="http://creativecommons.org/ns#" xmlns:rdf="http://www.w3.org/1999/02/22-rdf-syntax-ns#">
   <cc:Work>
    <dc:type rdf:resource="http://purl.org/dc/dcmitype/StillImage"/>
    <dc:date>2025-11-02T11:34:13.373792</dc:date>
    <dc:format>image/svg+xml</dc:format>
    <dc:creator>
     <cc:Agent>
      <dc:title>Matplotlib v3.10.7, https://matplotlib.org/</dc:title>
     </cc:Agent>
    </dc:creator>
   </cc:Work>
  </rdf:RDF>
 </metadata>
 <defs>
  <style type="text/css">*{stroke-linejoin: round; stroke-linecap: butt}</style>
 </defs>
 <g id="figure_1">
  <g id="patch_1">
   <path d="M 0 432 
L 720 432 
L 720 0 
L 0 0 
z
" style="fill: #ffffff"/>
  </g>
  <g id="axes_1">
   <g id="patch_2">
    <path d="M 44.57 390.04 
L 709.2 390.04 
L 709.2 26.88 
L 44.57 26.88 
z
" style="fill: #ffffff"/>
   </g>
   <g id="matplotlib.axis_1">
    <g id="xtick_1">
     <g id="line2d_1">
      <path d="M 108.721543 390.04 
L 108.721543 26.88 
" clip-path="url(#p29d1a5b90b)" style="fill: none; stroke-dasharray: 0.5,0.825; stroke-dashoffset: 0; stroke: #b0b0b0; stroke-width: 0.5"/>
     </g>
     <g id="line2d_2">
      <defs>
       <path id="m997a1d8a6d" d="M 0 0 
L 0 3.5 
" style="stroke: #000000; stroke-width: 0.8"/>
      </defs>
      <g>
       <use xlink:href="#m997a1d8a6d" x="108.721543" y="390.04" style="stroke: #000000; stroke-width: 0.8"/>
      </g>
     </g>
     <g id="text_1">
      <!-- 60 -->
      <g transform="translate(102.359043 404.638438) scale(0.1 -0.1)">
       <defs>
        <path id="DejaVuSans-36" d="M 2113 2584 
Q 1688 2584 1439 2293 
Q 1191 2003 1191 1497 
Q 1191 994 1439 701 
Q 1688 409 2113 409 
Q 2538 409 2786 701 
Q 3034 994 3034 1497 
Q 3034 2003 2786 2293 
Q 2538 2584 2113 2584 
z
M 3366 4563 
L 3366 3988 
Q 3128 4100 2886 4159 
Q 2644 4219 2406 4219 
Q 1781 4219 1451 3797 
Q 1122 3375 1075 2522 
Q 1259 2794 1537 2939 
Q 1816 3084 2150 3084 
Q 2853 3084 3261 2657 
Q 3669 2231 3669 1497 
Q 3669 778 3244 343 
Q 2819 -91 2113 -91 
Q 1303 -91 875 529 
Q 447 1150 447 2328 
Q 447 3434 972 4092 
Q 1497 4750 2381 4750 
Q 2619 4750 2861 4703 
Q 3103 4656 3366 4563 
z
" transform="scale(0.015625)"/>
        <path id="DejaVuSans-30" d="M 2034 4250 
Q 1547 4250 1301 3770 
Q 1056 3291 1056 2328 
Q 1056 1369 1301 889 
Q 1547 409 2034 409 
Q 2525 409 2770 889 
Q 3016 1369 3016 2328 
Q 3016 3291 2770 3770 
Q 2525 4250 2034 4250 
z
M 2034 4750 
Q 2819 4750 3233 4129 
Q 3647 3509 3647 2328 
Q 3647 1150 3233 529 
Q 2819 -91 2034 -91 
Q 1250 -91 836 529 
Q 422 1150 422 2328 
Q 422 3509 836 4129 
Q 1250 4750 2034 4750 
z
" transform="scale(0.015625)"/>
       </defs>
       <use xlink:href="#DejaVuSans-36"/>
       <use xlink:href="#DejaVuSans-30" transform="translate(63.623047 0)"/>
      </g>
     </g>
    </g>
    <g id="xtick_2">
     <g id="line2d_3">
      <path d="M 187.553475 390.04 
L 187.553475 26.88 
" clip-path="url(#p29d1a5b90b)" style="fill: none; stroke-dasharray: 0.5,0.825; stroke-dashoffset: 0; stroke: #b0b0b0; stroke-width: 0.5"/>
     </g>
     <g id="line2d_4">
      <g>
       <use xlink:href="#m997a1d8a6d" x="187.553475" y="390.04" style="stroke: #000000; stroke-width: 0.8"/>
      </g>
     </g>
     <g id="text_2">
      <!-- 80 -->
      <g transform="translate(181.190975 404.638438) scale(0.1 -0.1)">
       <defs>
        <path id="DejaVuSans-38" d="M 2034 2216 
Q 1584 2216 1326 1975 
Q 1069 1734 1069 1313 
Q 1069 891 1326 650 
Q 1584 409 2034 409 
Q 2484 409 2743 651 
Q 3003 894 3003 1313 
Q 3003 1734 2745 1975 
Q 2488 2216 2034 2216 
z
M 1403 2484 
Q 997 2584 770 2862 
Q 544 3141 544 3541 
Q 544 4100 942 4425 
Q 1341 4750 2034 4750 
Q 2731 4750 3128 4425 
Q 3525 4100 3525 3541 
Q 3525 3141 3298 2862 
Q 3072 2584 2669 2484 
Q 3125 2378 3379 2068 
Q 3634 1759 3634 1313 
Q 3634 634 3220 271 
Q 2806 -91 2034 -91 
Q 1263 -91 848 271 
Q 434 634 434 1313 
Q 434 1759 690 2068 
Q 947 2378 1403 2484 
z
M 1172 3481 
Q 1172 3119 1398 2916 
Q 1625 2713 2034 2713 
Q 2441 2713 2670 2916 
Q 2900 3119 2900 3481 
Q 2900 3844 2670 4047 
Q 2441 4250 2034 4250 
Q 1625 4250 1398 4047 
Q 1172 3844 1172 3481 
z
" transform="scale(0.015625)"/>
       </defs>
       <use xlink:href="#DejaVuSans-38"/>
       <use xlink:href="#DejaVuSans-30" transform="translate(63.623047 0)"/>
      </g>
     </g>
    </g>
    <g id="xtick_3">
     <g id="line2d_5">
      <path d="M 266.385407 390.04 
L 266.385407 26.88 
" clip-path="url(#p29d1a5b90b)" style="fill: none; stroke-dasharray: 0.5,0.825; stroke-dashoffset: 0; stroke: #b0b0b0; stroke-width: 0.5"/>
     </g>
     <g id="line2d_6">
      <g>
       <use xlink:href="#m997a1d8a6d" x="266.385407" y="390.04" style="stroke: #000000; stroke-width: 0.8"/>
      </g>
     </g>
     <g id="text_3">
      <!-- 100 -->
      <g transform="translate(256.841657 404.638438) scale(0.1 -0.1)">
       <defs>
        <path id="DejaVuSans-31" d="M 794 531 
L 1825 531 
L 1825 4091 
L 703 3866 
L 703 4441 
L 1819 4666 
L 2450 4666 
L 2450 531 
L 3481 531 
L 3481 0 
L 794 0 
L 794 531 
z
" transform="scale(0.015625)"/>
       </defs>
       <use xlink:href="#DejaVuSans-31"/>
       <use xlink:href="#DejaVuSans-30" transform="translate(63.623047 0)"/>
       <use xlink:href="#DejaVuSans-30" transform="translate(127.246094 0)"/>
      </g>
     </g>
    </g>
    <g id="xtick_4">
     <g id="line2d_7">
      <path d="M 345.217339 390.04 
L 345.217339 26.88 
" clip-path="url(#p29d1a5b90b)" style="fill: none; stroke-dasharray: 0.5,0.825; stroke-dashoffset: 0; stroke: #b0b0b0; stroke-width: 0.5"/>
     </g>
     <g id="line2d_8">
      <g>
       <use xlink:href="#m997a1d8a6d" x="345.217339" y="390.04" style="stroke: #000000; stroke-width: 0.8"/>
      </g>
     </g>
     <g id="text_4">
      <!-- 120 -->
      <g transform="translate(335.673589 404.638438) scale(0.1 -0.1)">
       <defs>
        <path id="DejaVuSans-32" d="M 1228 531 
L 3431 531 
L 3431 0 
L 469 0 
L 469 531 
Q 828 903 1448 1529 
Q 2069 2156 2228 2338 
Q 2531 2678 2651 2914 
Q 2772 3150 2772 3378 
Q 2772 3750 2511 3984 
Q 2250 4219 1831 4219 
Q 1534 4219 1204 4116 
Q 875 4013 500 3803 
L 500 4441 
Q 881 4594 1212 4672 
Q 1544 4750 1819 4750 
Q 2544 4750 2975 4387 
Q 3406 4025 3406 3419 
Q 3406 3131 3298 2873 
Q 3191 2616 2906 2266 
Q 2828 2175 2409 1742 
Q 1991 1309 1228 531 
z
" transform="scale(0.015625)"/>
       </defs>
       <use xlink:href="#DejaVuSans-31"/>
       <use xlink:href="#DejaVuSans-32" transform="translate(63.623047 0)"/>
       <use xlink:href="#DejaVuSans-30" transform="translate(127.246094 0)"/>
      </g>
     </g>
    </g>
    <g id="xtick_5">
     <g id="line2d_9">
      <path d="M 424.049272 390.04 
L 424.049272 26.88 
" clip-path="url(#p29d1a5b90b)" style="fill: none; stroke-dasharray: 0.5,0.825; stroke-dashoffset: 0; stroke: #b0b0b0; stroke-width: 0.5"/>
     </g>
     <g id="line2d_10">
      <g>
       <use xlink:href="#m997a1d8a6d" x="424.049272" y="390.04" style="stroke: #000000; stroke-width: 0.8"/>
      </g>
     </g>
     <g id="text_5">
      <!-- 140 -->
      <g transform="translate(414.505522 404.638438) scale(0.1 -0.1)">
       <defs>
        <path id="DejaVuSans-34" d="M 2419 4116 
L 825 1625 
L 2419 1625 
L 2419 4116 
z
M 2253 4666 
L 3047 4666 
L 3047 1625 
L 3713 1625 
L 3713 1100 
L 3047 1100 
L 3047 0 
L 2419 0 
L 2419 1100 
L 313 1100 
L 313 1709 
L 2253 4666 
z
" transform="scale(0.015625)"/>
       </defs>
       <use xlink:href="#DejaVuSans-31"/>
       <use xlink:href="#DejaVuSans-34" transform="translate(63.623047 0)"/>
       <use xlink:href="#DejaVuSans-30" transform="translate(127.246094 0)"/>
      </g>
     </g>
    </g>
    <g id="xtick_6">
     <g id="line2d_11">
      <path d="M 502.881204 390.04 
L 502.881204 26.88 
" clip-path="url(#p29d1a5b90b)" style="fill: none; stroke-dasharray: 0.5,0.825; stroke-dashoffset: 0; stroke: #b0b0b0; stroke-width: 0.5"/>
     </g>
     <g id="line2d_12">
      <g>
       <use xlink:href="#m997a1d8a6d" x="502.881204" y="390.04" style="stroke: #000000; stroke-width: 0.8"/>
      </g>
     </g>
     <g id="text_6">
      <!-- 160 -->
      <g transform="translate(493.337454 404.638438) scale(0.1 -0.1)">
       <use xlink:href="#DejaVuSans-31"/>
       <use xlink:href="#DejaVuSans-36" transform="translate(63.623047 0)"/>
       <use xlink:href="#DejaVuSans-30" transform="translate(127.246094 0)"/>
      </g>
     </g>
    </g>
    <g id="xtick_7">
     <g id="line2d_13">
      <path d="M 581.713136 390.04 
L 581.713136 26.88 
" clip-path="url(#p29d1a5b90b)" style="fill: none; stroke-dasharray: 0.5,0.825; stroke-dashoffset: 0; stroke: #b0b0b0; stroke-width: 0.5"/>
     </g>
     <g id="line2d_14">
      <g>
       <use xlink:href="#m997a1d8a6d" x="581.713136" y="390.04" style="stroke: #000000; stroke-width: 0.8"/>
      </g>
     </g>
     <g id="text_7">
      <!-- 180 -->
      <g transform="translate(572.169386 404.638438) scale(0.1 -0.1)">
       <use xlink:href="#DejaVuSans-31"/>
       <use xlink:href="#DejaVuSans-38" transform="translate(63.623047 0)"/>
       <use xlink:href="#DejaVuSans-30" transform="translate(127.246094 0)"/>
      </g>
     </g>
    </g>
    <g id="xtick_8">
     <g id="line2d_15">
      <path d="M 660.545068 390.04 
L 660.545068 26.88 
" clip-path="url(#p29d1a5b90b)" style="fill: none; stroke-dasharray: 0.5,0.825; stroke-dashoffset: 0; stroke: #b0b0b0; stroke-width: 0.5"/>
     </g>
     <g id="line2d_16">
      <g>
       <use xlink:href="#m997a1d8a6d" x="660.545068" y="390.04" style="stroke: #000000; stroke-width: 0.8"/>
      </g>
     </g>
     <g id="text_8">
      <!-- 200 -->
      <g transform="translate(651.001318 404.638438) scale(0.1 -0.1)">
       <use xlink:href="#DejaVuSans-32"/>
       <use xlink:href="#DejaVuSans-30" transform="translate(63.623047 0)"/>
       <use xlink:href="#DejaVuSans-30" transform="translate(127.246094 0)"/>
      </g>
     </g>
    </g>
    <g id="text_9">
     <!-- Longitude [deg] -->
     <g transform="translate(337.099844 418.316562) scale(0.1 -0.1)">
      <defs>
       <path id="DejaVuSans-4c" d="M 628 4666 
L 1259 4666 
L 1259 531 
L 3531 531 
L 3531 0 
L 628 0 
L 628 4666 
z
" transform="scale(0.015625)"/>
       <path id="DejaVuSans-6f" d="M 1959 3097 
Q 1497 3097 1228 2736 
Q 959 2375 959 1747 
Q 959 1119 1226 758 
Q 1494 397 1959 397 
Q 2419 397 2687 759 
Q 2956 1122 2956 1747 
Q 2956 2369 2687 2733 
Q 2419 3097 1959 3097 
z
M 1959 3584 
Q 2709 3584 3137 3096 
Q 3566 2609 3566 1747 
Q 3566 888 3137 398 
Q 2709 -91 1959 -91 
Q 1206 -91 779 398 
Q 353 888 353 1747 
Q 353 2609 779 3096 
Q 1206 3584 1959 3584 
z
" transform="scale(0.015625)"/>
       <path id="DejaVuSans-6e" d="M 3513 2113 
L 3513 0 
L 2938 0 
L 2938 2094 
Q 2938 2591 2744 2837 
Q 2550 3084 2163 3084 
Q 1697 3084 1428 2787 
Q 1159 2491 1159 1978 
L 1159 0 
L 581 0 
L 581 3500 
L 1159 3500 
L 1159 2956 
Q 1366 3272 1645 3428 
Q 1925 3584 2291 3584 
Q 2894 3584 3203 3211 
Q 3513 2838 3513 2113 
z
" transform="scale(0.015625)"/>
       <path id="DejaVuSans-67" d="M 2906 1791 
Q 2906 2416 2648 2759 
Q 2391 3103 1925 3103 
Q 1463 3103 1205 2759 
Q 947 2416 947 1791 
Q 947 1169 1205 825 
Q 1463 481 1925 481 
Q 2391 481 2648 825 
Q 2906 1169 2906 1791 
z
M 3481 434 
Q 3481 -459 3084 -895 
Q 2688 -1331 1869 -1331 
Q 1566 -1331 1297 -1286 
Q 1028 -1241 775 -1147 
L 775 -588 
Q 1028 -725 1275 -790 
Q 1522 -856 1778 -856 
Q 2344 -856 2625 -561 
Q 2906 -266 2906 331 
L 2906 616 
Q 2728 306 2450 153 
Q 2172 0 1784 0 
Q 1141 0 747 490 
Q 353 981 353 1791 
Q 353 2603 747 3093 
Q 1141 3584 1784 3584 
Q 2172 3584 2450 3431 
Q 2728 3278 2906 2969 
L 2906 3500 
L 3481 3500 
L 3481 434 
z
" transform="scale(0.015625)"/>
       <path id="DejaVuSans-69" d="M 603 3500 
L 1178 3500 
L 1178 0 
L 603 0 
L 603 3500 
z
M 603 4863 
L 1178 4863 
L 1178 4134 
L 603 4134 
L 603 4863 
z
" transform="scale(0.015625)"/>
       <path id="DejaVuSans-74" d="M 1172 4494 
L 1172 3500 
L 2356 3500 
L 2356 3053 
L 1172 3053 
L 1172 1153 
Q 1172 725 1289 603 
Q 1406 481 1766 481 
L 2356 481 
L 2356 0 
L 1766 0 
Q 1100 0 847 248 
Q 594 497 594 1153 
L 594 3053 
L 172 3053 
L 172 3500 
L 594 3500 
L 594 4494 
L 1172 4494 
z
" transform="scale(0.015625)"/>
       <path id="DejaVuSans-75" d="M 544 1381 
L 544 3500 
L 1119 3500 
L 1119 1403 
Q 1119 906 1312 657 
Q 1506 409 1894 409 
Q 2359 409 2629 706 
Q 2900 1003 2900 1516 
L 2900 3500 
L 3475 3500 
L 3475 0 
L 2900 0 
L 2900 538 
Q 2691 219 2414 64 
Q 2138 -91 1772 -91 
Q 1169 -91 856 284 
Q 544 659 544 1381 
z
M 1991 3584 
L 1991 3584 
z
" transform="scale(0.015625)"/>
       <path id="DejaVuSans-64" d="M 2906 2969 
L 2906 4863 
L 3481 4863 
L 3481 0 
L 2906 0 
L 2906 525 
Q 2725 213 2448 61 
Q 2172 -91 1784 -91 
Q 1150 -91 751 415 
Q 353 922 353 1747 
Q 353 2572 751 3078 
Q 1150 3584 1784 3584 
Q 2172 3584 2448 3432 
Q 2725 3281 2906 2969 
z
M 947 1747 
Q 947 1113 1208 752 
Q 1469 391 1925 391 
Q 2381 391 2643 752 
Q 2906 1113 2906 1747 
Q 2906 2381 2643 2742 
Q 2381 3103 1925 3103 
Q 1469 3103 1208 2742 
Q 947 2381 947 1747 
z
" transform="scale(0.015625)"/>
       <path id="DejaVuSans-65" d="M 3597 1894 
L 3597 1613 
L 953 1613 
Q 991 1019 1311 708 
Q 1631 397 2203 397 
Q 2534 397 2845 478 
Q 3156 559 3463 722 
L 3463 178 
Q 3153 47 2828 -22 
Q 2503 -91 2169 -91 
Q 1331 -91 842 396 
Q 353 884 353 1716 
Q 353 2575 817 3079 
Q 1281 3584 2069 3584 
Q 2775 3584 3186 3129 
Q 3597 2675 3597 1894 
z
M 3022 2063 
Q 3016 2534 2758 2815 
Q 2500 3097 2075 3097 
Q 1594 3097 1305 2825 
Q 1016 2553 972 2059 
L 3022 2063 
z
" transform="scale(0.015625)"/>
       <path id="DejaVuSans-20" transform="scale(0.015625)"/>
       <path id="DejaVuSans-5b" d="M 550 4863 
L 1875 4863 
L 1875 4416 
L 1125 4416 
L 1125 -397 
L 1875 -397 
L 1875 -844 
L 550 -844 
L 550 4863 
z
" transform="scale(0.015625)"/>
       <path id="DejaVuSans-5d" d="M 1947 4863 
L 1947 -844 
L 622 -844 
L 622 -397 
L 1369 -397 
L 1369 4416 
L 622 4416 
L 622 4863 
L 1947 4863 
z
" transform="scale(0.015625)"/>
      </defs>
      <use xlink:href="#DejaVuSans-4c"/>
      <use xlink:href="#DejaVuSans-6f" transform="translate(53.962891 0)"/>
      <use xlink:href="#DejaVuSans-6e" transform="translate(115.144531 0)"/>
      <use xlink:href="#DejaVuSans-67" transform="translate(178.523438 0)"/>
      <use xlink:href="#DejaVuSans-69" transform="translate(242 0)"/>
      <use xlink:href="#DejaVuSans-74" transform="translate(269.783203 0)"/>
      <use xlink:href="#DejaVuSans-75" transform="translate(308.992188 0)"/>
      <use xlink:href="#DejaVuSans-64" transform="translate(372.371094 0)"/>
      <use xlink:href="#DejaVuSans-65" transform="translate(435.847656 0)"/>
      <use xlink:href="#DejaVuSans-20" transform="translate(497.371094 0)"/>
      <use xlink:href="#DejaVuSans-5b" transform="translate(529.158203 0)"/>
      <use xlink:href="#DejaVuSans-64" transform="translate(568.171875 0)"/>
      <use xlink:href="#DejaVuSans-65" transform="translate(631.648438 0)"/>
      <use xlink:href="#DejaVuSans-67" transform="translate(693.171875 0)"/>
      <use xlink:href="#DejaVuSans-5d" transform="translate(756.648438 0)"/>
     </g>
    </g>
   </g>
   <g id="matplotlib.axis_2">
    <g id="ytick_1">
     <g id="line2d_17">
      <path d="M 44.57 329.268892 
L 709.2 329.268892 
" clip-path="url(#p29d1a5b90b)" style="fill: none; stroke-dasharray: 0.5,0.825; stroke-dashoffset: 0; stroke: #b0b0b0; stroke-width: 0.5"/>
     </g>
     <g id="line2d_18">
      <defs>
       <path id="m867fde318e" d="M 0 0 
L -3.5 0 
" style="stroke: #000000; stroke-width: 0.8"/>
      </defs>
      <g>
       <use xlink:href="#m867fde318e" x="44.57" y="329.268892" style="stroke: #000000; stroke-width: 0.8"/>
      </g>
     </g>
     <g id="text_10">
      <!-- 40 -->
      <g transform="translate(24.845 333.068111) scale(0.1 -0.1)">
       <use xlink:href="#DejaVuSans-34"/>
       <use xlink:href="#DejaVuSans-30" transform="translate(63.623047 0)"/>
      </g>
     </g>
    </g>
    <g id="ytick_2">
     <g id="line2d_19">
      <path d="M 44.57 250.453399 
L 709.2 250.453399 
" clip-path="url(#p29d1a5b90b)" style="fill: none; stroke-dasharray: 0.5,0.825; stroke-dashoffset: 0; stroke: #b0b0b0; stroke-width: 0.5"/>
     </g>
     <g id="line2d_20">
      <g>
       <use xlink:href="#m867fde318e" x="44.57" y="250.453399" style="stroke: #000000; stroke-width: 0.8"/>
      </g>
     </g>
     <g id="text_11">
      <!-- 50 -->
      <g transform="translate(24.845 254.252618) scale(0.1 -0.1)">
       <defs>
        <path id="DejaVuSans-35" d="M 691 4666 
L 3169 4666 
L 3169 4134 
L 1269 4134 
L 1269 2991 
Q 1406 3038 1543 3061 
Q 1681 3084 1819 3084 
Q 2600 3084 3056 2656 
Q 3513 2228 3513 1497 
Q 3513 744 3044 326 
Q 2575 -91 1722 -91 
Q 1428 -91 1123 -41 
Q 819 9 494 109 
L 494 744 
Q 775 591 1075 516 
Q 1375 441 1709 441 
Q 2250 441 2565 725 
Q 2881 1009 2881 1497 
Q 2881 1984 2565 2268 
Q 2250 2553 1709 2553 
Q 1456 2553 1204 2497 
Q 953 2441 691 2322 
L 691 4666 
z
" transform="scale(0.015625)"/>
       </defs>
       <use xlink:href="#DejaVuSans-35"/>
       <use xlink:href="#DejaVuSans-30" transform="translate(63.623047 0)"/>
      </g>
     </g>
    </g>
    <g id="ytick_3">
     <g id="line2d_21">
      <path d="M 44.57 171.637906 
L 709.2 171.637906 
" clip-path="url(#p29d1a5b90b)" style="fill: none; stroke-dasharray: 0.5,0.825; stroke-dashoffset: 0; stroke: #b0b0b0; stroke-width: 0.5"/>
     </g>
     <g id="line2d_22">
      <g>
       <use xlink:href="#m867fde318e" x="44.57" y="171.637906" style="stroke: #000000; stroke-width: 0.8"/>
      </g>
     </g>
     <g id="text_12">
      <!-- 60 -->
      <g transform="translate(24.845 175.437125) scale(0.1 -0.1)">
       <use xlink:href="#DejaVuSans-36"/>
       <use xlink:href="#DejaVuSans-30" transform="translate(63.623047 0)"/>
      </g>
     </g>
    </g>
    <g id="ytick_4">
     <g id="line2d_23">
      <path d="M 44.57 92.822413 
L 709.2 92.822413 
" clip-path="url(#p29d1a5b90b)" style="fill: none; stroke-dasharray: 0.5,0.825; stroke-dashoffset: 0; stroke: #b0b0b0; stroke-width: 0.5"/>
     </g>
     <g id="line2d_24">
      <g>
       <use xlink:href="#m867fde318e" x="44.57" y="92.822413" style="stroke: #000000; stroke-width: 0.8"/>
      </g>
     </g>
     <g id="text_13">
      <!-- 70 -->
      <g transform="translate(24.845 96.621632) scale(0.1 -0.1)">
       <defs>
        <path id="DejaVuSans-37" d="M 525 4666 
L 3525 4666 
L 3525 4397 
L 1831 0 
L 1172 0 
L 2766 4134 
L 525 4134 
L 525 4666 
z
" transform="scale(0.015625)"/>
       </defs>
       <use xlink:href="#DejaVuSans-37"/>
       <use xlink:href="#DejaVuSans-30" transform="translate(63.623047 0)"/>
      </g>
     </g>
    </g>
    <g id="text_14">
     <!-- Latitude [deg] -->
     <g transform="translate(18.765312 243.954531) rotate(-90) scale(0.1 -0.1)">
      <defs>
       <path id="DejaVuSans-61" d="M 2194 1759 
Q 1497 1759 1228 1600 
Q 959 1441 959 1056 
Q 959 750 1161 570 
Q 1363 391 1709 391 
Q 2188 391 2477 730 
Q 2766 1069 2766 1631 
L 2766 1759 
L 2194 1759 
z
M 3341 1997 
L 3341 0 
L 2766 0 
L 2766 531 
Q 2569 213 2275 61 
Q 1981 -91 1556 -91 
Q 1019 -91 701 211 
Q 384 513 384 1019 
Q 384 1609 779 1909 
Q 1175 2209 1959 2209 
L 2766 2209 
L 2766 2266 
Q 2766 2663 2505 2880 
Q 2244 3097 1772 3097 
Q 1472 3097 1187 3025 
Q 903 2953 641 2809 
L 641 3341 
Q 956 3463 1253 3523 
Q 1550 3584 1831 3584 
Q 2591 3584 2966 3190 
Q 3341 2797 3341 1997 
z
" transform="scale(0.015625)"/>
      </defs>
      <use xlink:href="#DejaVuSans-4c"/>
      <use xlink:href="#DejaVuSans-61" transform="translate(55.712891 0)"/>
      <use xlink:href="#DejaVuSans-74" transform="translate(116.992188 0)"/>
      <use xlink:href="#DejaVuSans-69" transform="translate(156.201172 0)"/>
      <use xlink:href="#DejaVuSans-74" transform="translate(183.984375 0)"/>
      <use xlink:href="#DejaVuSans-75" transform="translate(223.193359 0)"/>
      <use xlink:href="#DejaVuSans-64" transform="translate(286.572266 0)"/>
      <use xlink:href="#DejaVuSans-65" transform="translate(350.048828 0)"/>
      <use xlink:href="#DejaVuSans-20" transform="translate(411.572266 0)"/>
      <use xlink:href="#DejaVuSans-5b" transform="translate(443.359375 0)"/>
      <use xlink:href="#DejaVuSans-64" transform="translate(482.373047 0)"/>
      <use xlink:href="#DejaVuSans-65" transform="translate(545.849609 0)"/>
      <use xlink:href="#DejaVuSans-67" transform="translate(607.373047 0)"/>
      <use xlink:href="#DejaVuSans-5d" transform="translate(670.849609 0)"/>
     </g>
    </g>
   </g>
   <g id="line2d_25">
    <path d="M 674.772873 43.387273 
L 668.99748 47.576342 
L 663.615957 51.831308 
L 658.593325 56.144719 
L 653.897909 60.509863 
L 649.501087 64.920675 
L 645.377037 69.371651 
L 641.502477 73.857783 
L 637.856419 78.37449 
L 634.41994 82.917572 
L 631.173946 87.484378 
L 628.098493 92.079394 
L 625.180837 96.700846 
L 622.409275 101.345739 
L 619.773153 106.011251 
L 617.262763 110.694707 
L 614.869247 115.393573 
L 612.584513 120.105433 
L 610.401163 124.827986 
L 608.312302 129.559027 
L 606.308085 134.302289 
L 604.382839 139.060965 
L 602.531808 143.833154 
L 600.750592 148.617004 
L 599.035116 153.410707 
L 597.381606 158.212501 
L 595.786557 163.020663 
L 594.246716 167.833511 
L 592.759056 172.649399 
L 591.319507 177.468547 
L 589.923709 182.297726 
L 588.56974 187.136428 
L 587.255566 191.983146 
L 585.979399 196.836422 
L 584.769847 201.703045 
L 583.540173 206.558425 
L 582.363849 211.421529 
L 581.221929 216.286179 
L 580.110301 221.15034 
L 579.02537 226.01932 
L 577.966004 230.89616 
L 576.931162 235.779492 
L 575.919872 240.667959 
L 574.931214 245.560207 
L 573.964319 250.454889 
L 573.01836 255.350665 
L 572.092552 260.246205 
L 571.186146 265.140186 
L 570.297558 270.033713 
L 569.42524 274.93373 
L 568.568815 279.839628 
L 567.727771 284.750115 
L 566.901617 289.663901 
L 566.089883 294.579694 
L 565.292115 299.496205 
L 564.507881 304.412152 
L 563.736765 309.326255 
L 562.978219 314.237451 
L 562.230644 319.151932 
L 561.49377 324.072156 
L 560.767316 328.996868 
L 560.05101 333.924807 
L 559.344587 338.854712 
L 558.647794 343.785321 
L 557.960385 348.715374 
L 557.28212 353.643617 
L 556.61277 358.568799 
L 555.951493 363.492711 
L 555.297514 368.422067 
L 554.650748 373.356045 
" clip-path="url(#p29d1a5b90b)" style="fill: none; stroke: #1f77b4; stroke-width: 1.5; stroke-linecap: square"/>
   </g>
   <g id="line2d_26">
    <path d="M 678.989545 44.752074 
L 673.129348 48.892425 
L 667.658929 53.100996 
L 662.54483 57.370244 
L 657.756568 61.693355 
L 653.266452 66.064152 
L 649.049377 70.477023 
L 645.082608 74.926846 
L 641.34557 79.408937 
L 637.819642 83.91899 
L 634.487975 88.454846 
L 631.330237 93.020726 
L 628.331952 97.614234 
L 625.481501 102.232306 
L 622.768279 106.872051 
L 620.182601 111.530735 
L 617.715616 116.205764 
L 615.35922 120.894669 
L 613.105992 125.595098 
L 610.949216 130.304857 
L 608.881496 135.028334 
L 606.894164 139.767843 
L 604.982437 144.521452 
L 603.141882 149.287278 
L 601.368393 154.063486 
L 599.65816 158.848289 
L 598.007645 163.639939 
L 596.413561 168.43673 
L 594.872847 173.236998 
L 593.38283 178.041337 
L 591.938486 182.856325 
L 590.53691 187.681171 
L 589.176058 192.514359 
L 587.853908 197.35436 
L 586.562488 202.19796 
L 585.306492 207.045485 
L 584.09917 211.899629 
L 582.916181 216.752566 
L 581.763286 221.604998 
L 580.639006 226.462815 
L 579.540685 231.328631 
L 578.467342 236.201097 
L 577.418025 241.078855 
L 576.391818 245.960552 
L 575.38785 250.844839 
L 574.405288 255.730372 
L 573.443339 260.615816 
L 572.501248 265.499845 
L 571.578405 270.383831 
L 570.67266 275.274549 
L 569.783128 280.171252 
L 568.909294 285.072645 
L 568.050661 289.977434 
L 567.206755 294.884328 
L 566.377119 299.792035 
L 565.561315 304.699269 
L 564.758923 309.604751 
L 563.969627 314.507479 
L 563.192442 319.413811 
L 562.426153 324.325948 
L 561.670476 329.242633 
L 560.925139 334.162605 
L 560.189877 339.084602 
L 559.464435 344.007361 
L 558.748565 348.929623 
L 558.042029 353.850131 
L 557.344595 358.767634 
L 556.65602 363.684087 
L 555.975076 368.606078 
L 555.301456 373.532727 
" clip-path="url(#p29d1a5b90b)" style="fill: none; stroke: #ff7f0e; stroke-width: 1.5; stroke-linecap: square"/>
   </g>
   <g id="line2d_27">
    <path d="M 676.894169 44.065112 
L 671.075123 48.229828 
L 665.64801 52.461622 
L 660.578605 56.752992 
L 655.835822 61.097173 
L 651.391498 65.488041 
L 647.220161 69.920037 
L 643.298795 74.388093 
L 639.606611 78.887576 
L 636.124833 83.414232 
L 632.835488 87.96565 
L 629.718429 92.546184 
L 626.760036 97.153751 
L 623.948645 101.785323 
L 621.273622 106.438042 
L 618.725269 111.109204 
L 616.294726 115.796243 
L 613.973894 120.496718 
L 611.755361 125.208301 
L 609.632319 129.928792 
L 607.59615 134.662245 
L 605.639677 139.411422 
L 603.758128 144.174404 
L 601.947085 148.949325 
L 600.202459 153.734363 
L 598.520455 158.527743 
L 596.897551 163.32773 
L 595.330475 168.132629 
L 593.816185 172.940786 
L 592.351308 177.752604 
L 590.931151 182.574759 
L 589.553301 187.406605 
L 588.215723 192.246631 
L 586.916503 197.093341 
L 585.653846 201.945254 
L 584.42606 206.800904 
L 583.231556 211.658844 
L 582.068835 216.517639 
L 580.936466 221.37598 
L 579.831793 226.23943 
L 578.752898 231.110812 
L 577.698763 235.988766 
L 576.668423 240.871934 
L 575.660959 245.758961 
L 574.6755 250.648499 
L 573.711216 255.539207 
L 572.767316 260.429751 
L 571.843049 265.318807 
L 570.937317 270.207612 
L 570.048271 275.103026 
L 569.175281 280.004372 
L 568.317832 284.910358 
L 567.475431 289.819689 
L 566.647605 294.731075 
L 565.833898 299.643227 
L 565.033877 304.554858 
L 564.247121 309.46469 
L 563.473201 314.371692 
L 562.710822 319.282134 
L 561.959242 324.19835 
L 561.218181 329.119083 
L 560.487364 334.043073 
L 559.766528 338.969056 
L 559.055417 343.895771 
L 558.353786 348.82196 
L 557.661395 353.746365 
L 556.978014 358.667736 
L 556.303098 363.587945 
L 555.635648 368.513645 
L 554.975467 373.443984 
" clip-path="url(#p29d1a5b90b)" style="fill: none; stroke: #2ca02c; stroke-width: 1.5; stroke-linecap: square"/>
   </g>
   <g id="line2d_28">
    <path d="M 44.57 363.244675 
L 709.2 363.244675 
" clip-path="url(#p29d1a5b90b)" style="fill: none; stroke-dasharray: 4.44,1.92; stroke-dashoffset: 0; stroke: #d95f02; stroke-width: 1.2"/>
   </g>
   <g id="line2d_29">
    <path d="M 74.780455 390.04 
L 74.780455 26.88 
" clip-path="url(#p29d1a5b90b)" style="fill: none; stroke-dasharray: 1,1.65; stroke-dashoffset: 0; stroke: #1b9e77"/>
   </g>
   <g id="patch_3">
    <path d="M 44.57 390.04 
L 44.57 26.88 
" style="fill: none; stroke: #000000; stroke-width: 0.8; stroke-linejoin: miter; stroke-linecap: square"/>
   </g>
   <g id="patch_4">
    <path d="M 709.2 390.04 
L 709.2 26.88 
" style="fill: none; stroke: #000000; stroke-width: 0.8; stroke-linejoin: miter; stroke-linecap: square"/>
   </g>
   <g id="patch_5">
    <path d="M 44.57 390.04 
L 709.2 390.04 
" style="fill: none; stroke: #000000; stroke-width: 0.8; stroke-linejoin: miter; stroke-linecap: square"/>
   </g>
   <g id="patch_6">
    <path d="M 44.57 26.88 
L 709.2 26.88 
" style="fill: none; stroke: #000000; stroke-width: 0.8; stroke-linejoin: miter; stroke-linecap: square"/>
   </g>
   <g id="text_15">
    <!-- Ground tracks derived from STK ephemeris with cross-track offsets -->
    <g transform="translate(175.418125 20.88) scale(0.12 -0.12)">
     <defs>
      <path id="DejaVuSans-47" d="M 3809 666 
L 3809 1919 
L 2778 1919 
L 2778 2438 
L 4434 2438 
L 4434 434 
Q 4069 175 3628 42 
Q 3188 -91 2688 -91 
Q 1594 -91 976 548 
Q 359 1188 359 2328 
Q 359 3472 976 4111 
Q 1594 4750 2688 4750 
Q 3144 4750 3555 4637 
Q 3966 4525 4313 4306 
L 4313 3634 
Q 3963 3931 3569 4081 
Q 3175 4231 2741 4231 
Q 1884 4231 1454 3753 
Q 1025 3275 1025 2328 
Q 1025 1384 1454 906 
Q 1884 428 2741 428 
Q 3075 428 3337 486 
Q 3600 544 3809 666 
z
" transform="scale(0.015625)"/>
      <path id="DejaVuSans-72" d="M 2631 2963 
Q 2534 3019 2420 3045 
Q 2306 3072 2169 3072 
Q 1681 3072 1420 2755 
Q 1159 2438 1159 1844 
L 1159 0 
L 581 0 
L 581 3500 
L 1159 3500 
L 1159 2956 
Q 1341 3275 1631 3429 
Q 1922 3584 2338 3584 
Q 2397 3584 2469 3576 
Q 2541 3569 2628 3553 
L 2631 2963 
z
" transform="scale(0.015625)"/>
      <path id="DejaVuSans-63" d="M 3122 3366 
L 3122 2828 
Q 2878 2963 2633 3030 
Q 2388 3097 2138 3097 
Q 1578 3097 1268 2742 
Q 959 2388 959 1747 
Q 959 1106 1268 751 
Q 1578 397 2138 397 
Q 2388 397 2633 464 
Q 2878 531 3122 666 
L 3122 134 
Q 2881 22 2623 -34 
Q 2366 -91 2075 -91 
Q 1284 -91 818 406 
Q 353 903 353 1747 
Q 353 2603 823 3093 
Q 1294 3584 2113 3584 
Q 2378 3584 2631 3529 
Q 2884 3475 3122 3366 
z
" transform="scale(0.015625)"/>
      <path id="DejaVuSans-6b" d="M 581 4863 
L 1159 4863 
L 1159 1991 
L 2875 3500 
L 3609 3500 
L 1753 1863 
L 3688 0 
L 2938 0 
L 1159 1709 
L 1159 0 
L 581 0 
L 581 4863 
z
" transform="scale(0.015625)"/>
      <path id="DejaVuSans-73" d="M 2834 3397 
L 2834 2853 
Q 2591 2978 2328 3040 
Q 2066 3103 1784 3103 
Q 1356 3103 1142 2972 
Q 928 2841 928 2578 
Q 928 2378 1081 2264 
Q 1234 2150 1697 2047 
L 1894 2003 
Q 2506 1872 2764 1633 
Q 3022 1394 3022 966 
Q 3022 478 2636 193 
Q 2250 -91 1575 -91 
Q 1294 -91 989 -36 
Q 684 19 347 128 
L 347 722 
Q 666 556 975 473 
Q 1284 391 1588 391 
Q 1994 391 2212 530 
Q 2431 669 2431 922 
Q 2431 1156 2273 1281 
Q 2116 1406 1581 1522 
L 1381 1569 
Q 847 1681 609 1914 
Q 372 2147 372 2553 
Q 372 3047 722 3315 
Q 1072 3584 1716 3584 
Q 2034 3584 2315 3537 
Q 2597 3491 2834 3397 
z
" transform="scale(0.015625)"/>
      <path id="DejaVuSans-76" d="M 191 3500 
L 800 3500 
L 1894 563 
L 2988 3500 
L 3597 3500 
L 2284 0 
L 1503 0 
L 191 3500 
z
" transform="scale(0.015625)"/>
      <path id="DejaVuSans-66" d="M 2375 4863 
L 2375 4384 
L 1825 4384 
Q 1516 4384 1395 4259 
Q 1275 4134 1275 3809 
L 1275 3500 
L 2222 3500 
L 2222 3053 
L 1275 3053 
L 1275 0 
L 697 0 
L 697 3053 
L 147 3053 
L 147 3500 
L 697 3500 
L 697 3744 
Q 697 4328 969 4595 
Q 1241 4863 1831 4863 
L 2375 4863 
z
" transform="scale(0.015625)"/>
      <path id="DejaVuSans-6d" d="M 3328 2828 
Q 3544 3216 3844 3400 
Q 4144 3584 4550 3584 
Q 5097 3584 5394 3201 
Q 5691 2819 5691 2113 
L 5691 0 
L 5113 0 
L 5113 2094 
Q 5113 2597 4934 2840 
Q 4756 3084 4391 3084 
Q 3944 3084 3684 2787 
Q 3425 2491 3425 1978 
L 3425 0 
L 2847 0 
L 2847 2094 
Q 2847 2600 2669 2842 
Q 2491 3084 2119 3084 
Q 1678 3084 1418 2786 
Q 1159 2488 1159 1978 
L 1159 0 
L 581 0 
L 581 3500 
L 1159 3500 
L 1159 2956 
Q 1356 3278 1631 3431 
Q 1906 3584 2284 3584 
Q 2666 3584 2933 3390 
Q 3200 3197 3328 2828 
z
" transform="scale(0.015625)"/>
      <path id="DejaVuSans-53" d="M 3425 4513 
L 3425 3897 
Q 3066 4069 2747 4153 
Q 2428 4238 2131 4238 
Q 1616 4238 1336 4038 
Q 1056 3838 1056 3469 
Q 1056 3159 1242 3001 
Q 1428 2844 1947 2747 
L 2328 2669 
Q 3034 2534 3370 2195 
Q 3706 1856 3706 1288 
Q 3706 609 3251 259 
Q 2797 -91 1919 -91 
Q 1588 -91 1214 -16 
Q 841 59 441 206 
L 441 856 
Q 825 641 1194 531 
Q 1563 422 1919 422 
Q 2459 422 2753 634 
Q 3047 847 3047 1241 
Q 3047 1584 2836 1778 
Q 2625 1972 2144 2069 
L 1759 2144 
Q 1053 2284 737 2584 
Q 422 2884 422 3419 
Q 422 4038 858 4394 
Q 1294 4750 2059 4750 
Q 2388 4750 2728 4690 
Q 3069 4631 3425 4513 
z
" transform="scale(0.015625)"/>
      <path id="DejaVuSans-54" d="M -19 4666 
L 3928 4666 
L 3928 4134 
L 2272 4134 
L 2272 0 
L 1638 0 
L 1638 4134 
L -19 4134 
L -19 4666 
z
" transform="scale(0.015625)"/>
      <path id="DejaVuSans-4b" d="M 628 4666 
L 1259 4666 
L 1259 2694 
L 3353 4666 
L 4166 4666 
L 1850 2491 
L 4331 0 
L 3500 0 
L 1259 2247 
L 1259 0 
L 628 0 
L 628 4666 
z
" transform="scale(0.015625)"/>
      <path id="DejaVuSans-70" d="M 1159 525 
L 1159 -1331 
L 581 -1331 
L 581 3500 
L 1159 3500 
L 1159 2969 
Q 1341 3281 1617 3432 
Q 1894 3584 2278 3584 
Q 2916 3584 3314 3078 
Q 3713 2572 3713 1747 
Q 3713 922 3314 415 
Q 2916 -91 2278 -91 
Q 1894 -91 1617 61 
Q 1341 213 1159 525 
z
M 3116 1747 
Q 3116 2381 2855 2742 
Q 2594 3103 2138 3103 
Q 1681 3103 1420 2742 
Q 1159 2381 1159 1747 
Q 1159 1113 1420 752 
Q 1681 391 2138 391 
Q 2594 391 2855 752 
Q 3116 1113 3116 1747 
z
" transform="scale(0.015625)"/>
      <path id="DejaVuSans-68" d="M 3513 2113 
L 3513 0 
L 2938 0 
L 2938 2094 
Q 2938 2591 2744 2837 
Q 2550 3084 2163 3084 
Q 1697 3084 1428 2787 
Q 1159 2491 1159 1978 
L 1159 0 
L 581 0 
L 581 4863 
L 1159 4863 
L 1159 2956 
Q 1366 3272 1645 3428 
Q 1925 3584 2291 3584 
Q 2894 3584 3203 3211 
Q 3513 2838 3513 2113 
z
" transform="scale(0.015625)"/>
      <path id="DejaVuSans-77" d="M 269 3500 
L 844 3500 
L 1563 769 
L 2278 3500 
L 2956 3500 
L 3675 769 
L 4391 3500 
L 4966 3500 
L 4050 0 
L 3372 0 
L 2619 2869 
L 1863 0 
L 1184 0 
L 269 3500 
z
" transform="scale(0.015625)"/>
      <path id="DejaVuSans-2d" d="M 313 2009 
L 1997 2009 
L 1997 1497 
L 313 1497 
L 313 2009 
z
" transform="scale(0.015625)"/>
     </defs>
     <use xlink:href="#DejaVuSans-47"/>
     <use xlink:href="#DejaVuSans-72" transform="translate(77.490234 0)"/>
     <use xlink:href="#DejaVuSans-6f" transform="translate(116.353516 0)"/>
     <use xlink:href="#DejaVuSans-75" transform="translate(177.535156 0)"/>
     <use xlink:href="#DejaVuSans-6e" transform="translate(240.914062 0)"/>
     <use xlink:href="#DejaVuSans-64" transform="translate(304.292969 0)"/>
     <use xlink:href="#DejaVuSans-20" transform="translate(367.769531 0)"/>
     <use xlink:href="#DejaVuSans-74" transform="translate(399.556641 0)"/>
     <use xlink:href="#DejaVuSans-72" transform="translate(438.765625 0)"/>
     <use xlink:href="#DejaVuSans-61" transform="translate(479.878906 0)"/>
     <use xlink:href="#DejaVuSans-63" transform="translate(541.158203 0)"/>
     <use xlink:href="#DejaVuSans-6b" transform="translate(596.138672 0)"/>
     <use xlink:href="#DejaVuSans-73" transform="translate(654.048828 0)"/>
     <use xlink:href="#DejaVuSans-20" transform="translate(706.148438 0)"/>
     <use xlink:href="#DejaVuSans-64" transform="translate(737.935547 0)"/>
     <use xlink:href="#DejaVuSans-65" transform="translate(801.412109 0)"/>
     <use xlink:href="#DejaVuSans-72" transform="translate(862.935547 0)"/>
     <use xlink:href="#DejaVuSans-69" transform="translate(904.048828 0)"/>
     <use xlink:href="#DejaVuSans-76" transform="translate(931.832031 0)"/>
     <use xlink:href="#DejaVuSans-65" transform="translate(991.011719 0)"/>
     <use xlink:href="#DejaVuSans-64" transform="translate(1052.535156 0)"/>
     <use xlink:href="#DejaVuSans-20" transform="translate(1116.011719 0)"/>
     <use xlink:href="#DejaVuSans-66" transform="translate(1147.798828 0)"/>
     <use xlink:href="#DejaVuSans-72" transform="translate(1183.003906 0)"/>
     <use xlink:href="#DejaVuSans-6f" transform="translate(1221.867188 0)"/>
     <use xlink:href="#DejaVuSans-6d" transform="translate(1283.048828 0)"/>
     <use xlink:href="#DejaVuSans-20" transform="translate(1380.460938 0)"/>
     <use xlink:href="#DejaVuSans-53" transform="translate(1412.248047 0)"/>
     <use xlink:href="#DejaVuSans-54" transform="translate(1475.724609 0)"/>
     <use xlink:href="#DejaVuSans-4b" transform="translate(1536.808594 0)"/>
     <use xlink:href="#DejaVuSans-20" transform="translate(1602.384766 0)"/>
     <use xlink:href="#DejaVuSans-65" transform="translate(1634.171875 0)"/>
     <use xlink:href="#DejaVuSans-70" transform="translate(1695.695312 0)"/>
     <use xlink:href="#DejaVuSans-68" transform="translate(1759.171875 0)"/>
     <use xlink:href="#DejaVuSans-65" transform="translate(1822.550781 0)"/>
     <use xlink:href="#DejaVuSans-6d" transform="translate(1884.074219 0)"/>
     <use xlink:href="#DejaVuSans-65" transform="translate(1981.486328 0)"/>
     <use xlink:href="#DejaVuSans-72" transform="translate(2043.009766 0)"/>
     <use xlink:href="#DejaVuSans-69" transform="translate(2084.123047 0)"/>
     <use xlink:href="#DejaVuSans-73" transform="translate(2111.90625 0)"/>
     <use xlink:href="#DejaVuSans-20" transform="translate(2164.005859 0)"/>
     <use xlink:href="#DejaVuSans-77" transform="translate(2195.792969 0)"/>
     <use xlink:href="#DejaVuSans-69" transform="translate(2277.580078 0)"/>
     <use xlink:href="#DejaVuSans-74" transform="translate(2305.363281 0)"/>
     <use xlink:href="#DejaVuSans-68" transform="translate(2344.572266 0)"/>
     <use xlink:href="#DejaVuSans-20" transform="translate(2407.951172 0)"/>
     <use xlink:href="#DejaVuSans-63" transform="translate(2439.738281 0)"/>
     <use xlink:href="#DejaVuSans-72" transform="translate(2494.71875 0)"/>
     <use xlink:href="#DejaVuSans-6f" transform="translate(2533.582031 0)"/>
     <use xlink:href="#DejaVuSans-73" transform="translate(2594.763672 0)"/>
     <use xlink:href="#DejaVuSans-73" transform="translate(2646.863281 0)"/>
     <use xlink:href="#DejaVuSans-2d" transform="translate(2698.962891 0)"/>
     <use xlink:href="#DejaVuSans-74" transform="translate(2735.046875 0)"/>
     <use xlink:href="#DejaVuSans-72" transform="translate(2774.255859 0)"/>
     <use xlink:href="#DejaVuSans-61" transform="translate(2815.369141 0)"/>
     <use xlink:href="#DejaVuSans-63" transform="translate(2876.648438 0)"/>
     <use xlink:href="#DejaVuSans-6b" transform="translate(2931.628906 0)"/>
     <use xlink:href="#DejaVuSans-20" transform="translate(2989.539062 0)"/>
     <use xlink:href="#DejaVuSans-6f" transform="translate(3021.326172 0)"/>
     <use xlink:href="#DejaVuSans-66" transform="translate(3082.507812 0)"/>
     <use xlink:href="#DejaVuSans-66" transform="translate(3117.712891 0)"/>
     <use xlink:href="#DejaVuSans-73" transform="translate(3152.917969 0)"/>
     <use xlink:href="#DejaVuSans-65" transform="translate(3205.017578 0)"/>
     <use xlink:href="#DejaVuSans-74" transform="translate(3266.541016 0)"/>
     <use xlink:href="#DejaVuSans-73" transform="translate(3305.75 0)"/>
    </g>
   </g>
   <g id="legend_1">
    <g id="patch_7">
     <path d="M 586.426563 108.270625 
L 702.2 108.270625 
Q 704.2 108.270625 704.2 106.270625 
L 704.2 33.88 
Q 704.2 31.88 702.2 31.88 
L 586.426563 31.88 
Q 584.426563 31.88 584.426563 33.88 
L 584.426563 106.270625 
Q 584.426563 108.270625 586.426563 108.270625 
z
" style="fill: #ffffff; opacity: 0.8; stroke: #cccccc; stroke-linejoin: miter"/>
    </g>
    <g id="line2d_30">
     <path d="M 588.426563 39.978437 
L 598.426563 39.978437 
L 608.426563 39.978437 
" style="fill: none; stroke: #1f77b4; stroke-width: 1.5; stroke-linecap: square"/>
    </g>
    <g id="text_16">
     <!-- FSAT-DP1 -->
     <g transform="translate(616.426563 43.478437) scale(0.1 -0.1)">
      <defs>
       <path id="DejaVuSans-46" d="M 628 4666 
L 3309 4666 
L 3309 4134 
L 1259 4134 
L 1259 2759 
L 3109 2759 
L 3109 2228 
L 1259 2228 
L 1259 0 
L 628 0 
L 628 4666 
z
" transform="scale(0.015625)"/>
       <path id="DejaVuSans-41" d="M 2188 4044 
L 1331 1722 
L 3047 1722 
L 2188 4044 
z
M 1831 4666 
L 2547 4666 
L 4325 0 
L 3669 0 
L 3244 1197 
L 1141 1197 
L 716 0 
L 50 0 
L 1831 4666 
z
" transform="scale(0.015625)"/>
       <path id="DejaVuSans-44" d="M 1259 4147 
L 1259 519 
L 2022 519 
Q 2988 519 3436 956 
Q 3884 1394 3884 2338 
Q 3884 3275 3436 3711 
Q 2988 4147 2022 4147 
L 1259 4147 
z
M 628 4666 
L 1925 4666 
Q 3281 4666 3915 4102 
Q 4550 3538 4550 2338 
Q 4550 1131 3912 565 
Q 3275 0 1925 0 
L 628 0 
L 628 4666 
z
" transform="scale(0.015625)"/>
       <path id="DejaVuSans-50" d="M 1259 4147 
L 1259 2394 
L 2053 2394 
Q 2494 2394 2734 2622 
Q 2975 2850 2975 3272 
Q 2975 3691 2734 3919 
Q 2494 4147 2053 4147 
L 1259 4147 
z
M 628 4666 
L 2053 4666 
Q 2838 4666 3239 4311 
Q 3641 3956 3641 3272 
Q 3641 2581 3239 2228 
Q 2838 1875 2053 1875 
L 1259 1875 
L 1259 0 
L 628 0 
L 628 4666 
z
" transform="scale(0.015625)"/>
      </defs>
      <use xlink:href="#DejaVuSans-46"/>
      <use xlink:href="#DejaVuSans-53" transform="translate(55.769531 0)"/>
      <use xlink:href="#DejaVuSans-41" transform="translate(121.121094 0)"/>
      <use xlink:href="#DejaVuSans-54" transform="translate(181.779297 0)"/>
      <use xlink:href="#DejaVuSans-2d" transform="translate(233.738281 0)"/>
      <use xlink:href="#DejaVuSans-44" transform="translate(269.822266 0)"/>
      <use xlink:href="#DejaVuSans-50" transform="translate(346.824219 0)"/>
      <use xlink:href="#DejaVuSans-31" transform="translate(407.126953 0)"/>
     </g>
    </g>
    <g id="line2d_31">
     <path d="M 588.426563 54.656563 
L 598.426563 54.656563 
L 608.426563 54.656563 
" style="fill: none; stroke: #ff7f0e; stroke-width: 1.5; stroke-linecap: square"/>
    </g>
    <g id="text_17">
     <!-- FSAT-DP2 -->
     <g transform="translate(616.426563 58.156563) scale(0.1 -0.1)">
      <use xlink:href="#DejaVuSans-46"/>
      <use xlink:href="#DejaVuSans-53" transform="translate(55.769531 0)"/>
      <use xlink:href="#DejaVuSans-41" transform="translate(121.121094 0)"/>
      <use xlink:href="#DejaVuSans-54" transform="translate(181.779297 0)"/>
      <use xlink:href="#DejaVuSans-2d" transform="translate(233.738281 0)"/>
      <use xlink:href="#DejaVuSans-44" transform="translate(269.822266 0)"/>
      <use xlink:href="#DejaVuSans-50" transform="translate(346.824219 0)"/>
      <use xlink:href="#DejaVuSans-32" transform="translate(407.126953 0)"/>
     </g>
    </g>
    <g id="line2d_32">
     <path d="M 588.426563 69.334687 
L 598.426563 69.334687 
L 608.426563 69.334687 
" style="fill: none; stroke: #2ca02c; stroke-width: 1.5; stroke-linecap: square"/>
    </g>
    <g id="text_18">
     <!-- FSAT-LDR -->
     <g transform="translate(616.426563 72.834687) scale(0.1 -0.1)">
      <defs>
       <path id="DejaVuSans-52" d="M 2841 2188 
Q 3044 2119 3236 1894 
Q 3428 1669 3622 1275 
L 4263 0 
L 3584 0 
L 2988 1197 
Q 2756 1666 2539 1819 
Q 2322 1972 1947 1972 
L 1259 1972 
L 1259 0 
L 628 0 
L 628 4666 
L 2053 4666 
Q 2853 4666 3247 4331 
Q 3641 3997 3641 3322 
Q 3641 2881 3436 2590 
Q 3231 2300 2841 2188 
z
M 1259 4147 
L 1259 2491 
L 2053 2491 
Q 2509 2491 2742 2702 
Q 2975 2913 2975 3322 
Q 2975 3731 2742 3939 
Q 2509 4147 2053 4147 
L 1259 4147 
z
" transform="scale(0.015625)"/>
      </defs>
      <use xlink:href="#DejaVuSans-46"/>
      <use xlink:href="#DejaVuSans-53" transform="translate(55.769531 0)"/>
      <use xlink:href="#DejaVuSans-41" transform="translate(121.121094 0)"/>
      <use xlink:href="#DejaVuSans-54" transform="translate(181.779297 0)"/>
      <use xlink:href="#DejaVuSans-2d" transform="translate(233.738281 0)"/>
      <use xlink:href="#DejaVuSans-4c" transform="translate(269.822266 0)"/>
      <use xlink:href="#DejaVuSans-44" transform="translate(325.535156 0)"/>
      <use xlink:href="#DejaVuSans-52" transform="translate(402.537109 0)"/>
     </g>
    </g>
    <g id="line2d_33">
     <path d="M 588.426563 84.012812 
L 598.426563 84.012812 
L 608.426563 84.012812 
" style="fill: none; stroke-dasharray: 4.44,1.92; stroke-dashoffset: 0; stroke: #d95f02; stroke-width: 1.2"/>
    </g>
    <g id="text_19">
     <!-- Tehran latitude -->
     <g transform="translate(616.426563 87.512812) scale(0.1 -0.1)">
      <defs>
       <path id="DejaVuSans-6c" d="M 603 4863 
L 1178 4863 
L 1178 0 
L 603 0 
L 603 4863 
z
" transform="scale(0.015625)"/>
      </defs>
      <use xlink:href="#DejaVuSans-54"/>
      <use xlink:href="#DejaVuSans-65" transform="translate(44.083984 0)"/>
      <use xlink:href="#DejaVuSans-68" transform="translate(105.607422 0)"/>
      <use xlink:href="#DejaVuSans-72" transform="translate(168.986328 0)"/>
      <use xlink:href="#DejaVuSans-61" transform="translate(210.099609 0)"/>
      <use xlink:href="#DejaVuSans-6e" transform="translate(271.378906 0)"/>
      <use xlink:href="#DejaVuSans-20" transform="translate(334.757812 0)"/>
      <use xlink:href="#DejaVuSans-6c" transform="translate(366.544922 0)"/>
      <use xlink:href="#DejaVuSans-61" transform="translate(394.328125 0)"/>
      <use xlink:href="#DejaVuSans-74" transform="translate(455.607422 0)"/>
      <use xlink:href="#DejaVuSans-69" transform="translate(494.816406 0)"/>
      <use xlink:href="#DejaVuSans-74" transform="translate(522.599609 0)"/>
      <use xlink:href="#DejaVuSans-75" transform="translate(561.808594 0)"/>
      <use xlink:href="#DejaVuSans-64" transform="translate(625.1875 0)"/>
      <use xlink:href="#DejaVuSans-65" transform="translate(688.664062 0)"/>
     </g>
    </g>
    <g id="line2d_34">
     <path d="M 588.426563 98.690938 
L 598.426563 98.690938 
L 608.426563 98.690938 
" style="fill: none; stroke-dasharray: 1,1.65; stroke-dashoffset: 0; stroke: #1b9e77"/>
    </g>
    <g id="text_20">
     <!-- Tehran longitude -->
     <g transform="translate(616.426563 102.190938) scale(0.1 -0.1)">
      <use xlink:href="#DejaVuSans-54"/>
      <use xlink:href="#DejaVuSans-65" transform="translate(44.083984 0)"/>
      <use xlink:href="#DejaVuSans-68" transform="translate(105.607422 0)"/>
      <use xlink:href="#DejaVuSans-72" transform="translate(168.986328 0)"/>
      <use xlink:href="#DejaVuSans-61" transform="translate(210.099609 0)"/>
      <use xlink:href="#DejaVuSans-6e" transform="translate(271.378906 0)"/>
      <use xlink:href="#DejaVuSans-20" transform="translate(334.757812 0)"/>
      <use xlink:href="#DejaVuSans-6c" transform="translate(366.544922 0)"/>
      <use xlink:href="#DejaVuSans-6f" transform="translate(394.328125 0)"/>
      <use xlink:href="#DejaVuSans-6e" transform="translate(455.509766 0)"/>
      <use xlink:href="#DejaVuSans-67" transform="translate(518.888672 0)"/>
      <use xlink:href="#DejaVuSans-69" transform="translate(582.365234 0)"/>
      <use xlink:href="#DejaVuSans-74" transform="translate(610.148438 0)"/>
      <use xlink:href="#DejaVuSans-75" transform="translate(649.357422 0)"/>
      <use xlink:href="#DejaVuSans-64" transform="translate(712.736328 0)"/>
      <use xlink:href="#DejaVuSans-65" transform="translate(776.212891 0)"/>
     </g>
    </g>
   </g>
  </g>
 </g>
 <defs>
  <clipPath id="p29d1a5b90b">
   <rect x="44.57" y="26.88" width="664.63" height="363.16"/>
  </clipPath>
 </defs>
</svg>
