<?xml version="1.0" encoding="utf-8" standalone="no"?>
<!DOCTYPE svg PUBLIC "-//W3C//DTD SVG 1.1//EN"
  "http://www.w3.org/Graphics/SVG/1.1/DTD/svg11.dtd">
<svg xmlns:xlink="http://www.w3.org/1999/xlink" width="648pt" height="360pt" viewBox="0 0 648 360" xmlns="http://www.w3.org/2000/svg" version="1.1">
 <metadata>
  <rdf:RDF xmlns:dc="http://purl.org/dc/elements/1.1/" xmlns:cc="http://creativecommons.org/ns#" xmlns:rdf="http://www.w3.org/1999/02/22-rdf-syntax-ns#">
   <cc:Work>
    <dc:type rdf:resource="http://purl.org/dc/dcmitype/StillImage"/>
    <dc:date>2025-11-02T11:35:33.282166</dc:date>
    <dc:format>image/svg+xml</dc:format>
    <dc:creator>
     <cc:Agent>
      <dc:title>Matplotlib v3.10.7, https://matplotlib.org/</dc:title>
     </cc:Agent>
    </dc:creator>
   </cc:Work>
  </rdf:RDF>
 </metadata>
 <defs>
  <style type="text/css">*{stroke-linejoin: round; stroke-linecap: butt}</style>
 </defs>
 <g id="figure_1">
  <g id="patch_1">
   <path d="M 0 360 
L 648 360 
L 648 0 
L 0 0 
z
" style="fill: #ffffff"/>
  </g>
  <g id="axes_1">
   <g id="patch_2">
    <path d="M 44.57 297.205464 
L 637.2 297.205464 
L 637.2 26.88 
L 44.57 26.88 
z
" style="fill: #ffffff"/>
   </g>
   <g id="patch_3">
    <path d="M 305.748834 297.205464 
L 376.021166 297.205464 
L 376.021166 26.88 
L 305.748834 26.88 
z
" clip-path="url(#p9368b5f85a)" style="fill: #1b9e77; opacity: 0.1; stroke: #1b9e77; stroke-linejoin: miter"/>
   </g>
   <g id="matplotlib.axis_1">
    <g id="xtick_1">
     <g id="line2d_1">
      <path d="M 98.835856 297.205464 
L 98.835856 26.88 
" clip-path="url(#p9368b5f85a)" style="fill: none; stroke-dasharray: 0.5,0.825; stroke-dashoffset: 0; stroke: #b0b0b0; stroke-width: 0.5"/>
     </g>
     <g id="line2d_2">
      <defs>
       <path id="md9f7eefcc7" d="M 0 0 
L 0 3.5 
" style="stroke: #000000; stroke-width: 0.8"/>
      </defs>
      <g>
       <use xlink:href="#md9f7eefcc7" x="98.835856" y="297.205464" style="stroke: #000000; stroke-width: 0.8"/>
      </g>
     </g>
     <g id="text_1">
      <!-- 21 07:35 -->
      <g transform="translate(59.065733 333.146841) rotate(-30) scale(0.1 -0.1)">
       <defs>
        <path id="DejaVuSans-32" d="M 1228 531 
L 3431 531 
L 3431 0 
L 469 0 
L 469 531 
Q 828 903 1448 1529 
Q 2069 2156 2228 2338 
Q 2531 2678 2651 2914 
Q 2772 3150 2772 3378 
Q 2772 3750 2511 3984 
Q 2250 4219 1831 4219 
Q 1534 4219 1204 4116 
Q 875 4013 500 3803 
L 500 4441 
Q 881 4594 1212 4672 
Q 1544 4750 1819 4750 
Q 2544 4750 2975 4387 
Q 3406 4025 3406 3419 
Q 3406 3131 3298 2873 
Q 3191 2616 2906 2266 
Q 2828 2175 2409 1742 
Q 1991 1309 1228 531 
z
" transform="scale(0.015625)"/>
        <path id="DejaVuSans-31" d="M 794 531 
L 1825 531 
L 1825 4091 
L 703 3866 
L 703 4441 
L 1819 4666 
L 2450 4666 
L 2450 531 
L 3481 531 
L 3481 0 
L 794 0 
L 794 531 
z
" transform="scale(0.015625)"/>
        <path id="DejaVuSans-20" transform="scale(0.015625)"/>
        <path id="DejaVuSans-30" d="M 2034 4250 
Q 1547 4250 1301 3770 
Q 1056 3291 1056 2328 
Q 1056 1369 1301 889 
Q 1547 409 2034 409 
Q 2525 409 2770 889 
Q 3016 1369 3016 2328 
Q 3016 3291 2770 3770 
Q 2525 4250 2034 4250 
z
M 2034 4750 
Q 2819 4750 3233 4129 
Q 3647 3509 3647 2328 
Q 3647 1150 3233 529 
Q 2819 -91 2034 -91 
Q 1250 -91 836 529 
Q 422 1150 422 2328 
Q 422 3509 836 4129 
Q 1250 4750 2034 4750 
z
" transform="scale(0.015625)"/>
        <path id="DejaVuSans-37" d="M 525 4666 
L 3525 4666 
L 3525 4397 
L 1831 0 
L 1172 0 
L 2766 4134 
L 525 4134 
L 525 4666 
z
" transform="scale(0.015625)"/>
        <path id="DejaVuSans-3a" d="M 750 794 
L 1409 794 
L 1409 0 
L 750 0 
L 750 794 
z
M 750 3309 
L 1409 3309 
L 1409 2516 
L 750 2516 
L 750 3309 
z
" transform="scale(0.015625)"/>
        <path id="DejaVuSans-33" d="M 2597 2516 
Q 3050 2419 3304 2112 
Q 3559 1806 3559 1356 
Q 3559 666 3084 287 
Q 2609 -91 1734 -91 
Q 1441 -91 1130 -33 
Q 819 25 488 141 
L 488 750 
Q 750 597 1062 519 
Q 1375 441 1716 441 
Q 2309 441 2620 675 
Q 2931 909 2931 1356 
Q 2931 1769 2642 2001 
Q 2353 2234 1838 2234 
L 1294 2234 
L 1294 2753 
L 1863 2753 
Q 2328 2753 2575 2939 
Q 2822 3125 2822 3475 
Q 2822 3834 2567 4026 
Q 2313 4219 1838 4219 
Q 1578 4219 1281 4162 
Q 984 4106 628 3988 
L 628 4550 
Q 988 4650 1302 4700 
Q 1616 4750 1894 4750 
Q 2613 4750 3031 4423 
Q 3450 4097 3450 3541 
Q 3450 3153 3228 2886 
Q 3006 2619 2597 2516 
z
" transform="scale(0.015625)"/>
        <path id="DejaVuSans-35" d="M 691 4666 
L 3169 4666 
L 3169 4134 
L 1269 4134 
L 1269 2991 
Q 1406 3038 1543 3061 
Q 1681 3084 1819 3084 
Q 2600 3084 3056 2656 
Q 3513 2228 3513 1497 
Q 3513 744 3044 326 
Q 2575 -91 1722 -91 
Q 1428 -91 1123 -41 
Q 819 9 494 109 
L 494 744 
Q 775 591 1075 516 
Q 1375 441 1709 441 
Q 2250 441 2565 725 
Q 2881 1009 2881 1497 
Q 2881 1984 2565 2268 
Q 2250 2553 1709 2553 
Q 1456 2553 1204 2497 
Q 953 2441 691 2322 
L 691 4666 
z
" transform="scale(0.015625)"/>
       </defs>
       <use xlink:href="#DejaVuSans-32"/>
       <use xlink:href="#DejaVuSans-31" transform="translate(63.623047 0)"/>
       <use xlink:href="#DejaVuSans-20" transform="translate(127.246094 0)"/>
       <use xlink:href="#DejaVuSans-30" transform="translate(159.033203 0)"/>
       <use xlink:href="#DejaVuSans-37" transform="translate(222.65625 0)"/>
       <use xlink:href="#DejaVuSans-3a" transform="translate(286.279297 0)"/>
       <use xlink:href="#DejaVuSans-33" transform="translate(319.970703 0)"/>
       <use xlink:href="#DejaVuSans-35" transform="translate(383.59375 0)"/>
      </g>
     </g>
    </g>
    <g id="xtick_2">
     <g id="line2d_3">
      <path d="M 333.076963 297.205464 
L 333.076963 26.88 
" clip-path="url(#p9368b5f85a)" style="fill: none; stroke-dasharray: 0.5,0.825; stroke-dashoffset: 0; stroke: #b0b0b0; stroke-width: 0.5"/>
     </g>
     <g id="line2d_4">
      <g>
       <use xlink:href="#md9f7eefcc7" x="333.076963" y="297.205464" style="stroke: #000000; stroke-width: 0.8"/>
      </g>
     </g>
     <g id="text_2">
      <!-- 21 07:40 -->
      <g transform="translate(293.306839 333.146841) rotate(-30) scale(0.1 -0.1)">
       <defs>
        <path id="DejaVuSans-34" d="M 2419 4116 
L 825 1625 
L 2419 1625 
L 2419 4116 
z
M 2253 4666 
L 3047 4666 
L 3047 1625 
L 3713 1625 
L 3713 1100 
L 3047 1100 
L 3047 0 
L 2419 0 
L 2419 1100 
L 313 1100 
L 313 1709 
L 2253 4666 
z
" transform="scale(0.015625)"/>
       </defs>
       <use xlink:href="#DejaVuSans-32"/>
       <use xlink:href="#DejaVuSans-31" transform="translate(63.623047 0)"/>
       <use xlink:href="#DejaVuSans-20" transform="translate(127.246094 0)"/>
       <use xlink:href="#DejaVuSans-30" transform="translate(159.033203 0)"/>
       <use xlink:href="#DejaVuSans-37" transform="translate(222.65625 0)"/>
       <use xlink:href="#DejaVuSans-3a" transform="translate(286.279297 0)"/>
       <use xlink:href="#DejaVuSans-34" transform="translate(319.970703 0)"/>
       <use xlink:href="#DejaVuSans-30" transform="translate(383.59375 0)"/>
      </g>
     </g>
    </g>
    <g id="xtick_3">
     <g id="line2d_5">
      <path d="M 567.31807 297.205464 
L 567.31807 26.88 
" clip-path="url(#p9368b5f85a)" style="fill: none; stroke-dasharray: 0.5,0.825; stroke-dashoffset: 0; stroke: #b0b0b0; stroke-width: 0.5"/>
     </g>
     <g id="line2d_6">
      <g>
       <use xlink:href="#md9f7eefcc7" x="567.31807" y="297.205464" style="stroke: #000000; stroke-width: 0.8"/>
      </g>
     </g>
     <g id="text_3">
      <!-- 21 07:45 -->
      <g transform="translate(527.547946 333.146841) rotate(-30) scale(0.1 -0.1)">
       <use xlink:href="#DejaVuSans-32"/>
       <use xlink:href="#DejaVuSans-31" transform="translate(63.623047 0)"/>
       <use xlink:href="#DejaVuSans-20" transform="translate(127.246094 0)"/>
       <use xlink:href="#DejaVuSans-30" transform="translate(159.033203 0)"/>
       <use xlink:href="#DejaVuSans-37" transform="translate(222.65625 0)"/>
       <use xlink:href="#DejaVuSans-3a" transform="translate(286.279297 0)"/>
       <use xlink:href="#DejaVuSans-34" transform="translate(319.970703 0)"/>
       <use xlink:href="#DejaVuSans-35" transform="translate(383.59375 0)"/>
      </g>
     </g>
    </g>
    <g id="text_4">
     <!-- UTC -->
     <g transform="translate(330.974063 346.546341) scale(0.1 -0.1)">
      <defs>
       <path id="DejaVuSans-55" d="M 556 4666 
L 1191 4666 
L 1191 1831 
Q 1191 1081 1462 751 
Q 1734 422 2344 422 
Q 2950 422 3222 751 
Q 3494 1081 3494 1831 
L 3494 4666 
L 4128 4666 
L 4128 1753 
Q 4128 841 3676 375 
Q 3225 -91 2344 -91 
Q 1459 -91 1007 375 
Q 556 841 556 1753 
L 556 4666 
z
" transform="scale(0.015625)"/>
       <path id="DejaVuSans-54" d="M -19 4666 
L 3928 4666 
L 3928 4134 
L 2272 4134 
L 2272 0 
L 1638 0 
L 1638 4134 
L -19 4134 
L -19 4666 
z
" transform="scale(0.015625)"/>
       <path id="DejaVuSans-43" d="M 4122 4306 
L 4122 3641 
Q 3803 3938 3442 4084 
Q 3081 4231 2675 4231 
Q 1875 4231 1450 3742 
Q 1025 3253 1025 2328 
Q 1025 1406 1450 917 
Q 1875 428 2675 428 
Q 3081 428 3442 575 
Q 3803 722 4122 1019 
L 4122 359 
Q 3791 134 3420 21 
Q 3050 -91 2638 -91 
Q 1578 -91 968 557 
Q 359 1206 359 2328 
Q 359 3453 968 4101 
Q 1578 4750 2638 4750 
Q 3056 4750 3426 4639 
Q 3797 4528 4122 4306 
z
" transform="scale(0.015625)"/>
      </defs>
      <use xlink:href="#DejaVuSans-55"/>
      <use xlink:href="#DejaVuSans-54" transform="translate(73.193359 0)"/>
      <use xlink:href="#DejaVuSans-43" transform="translate(128.402344 0)"/>
     </g>
    </g>
   </g>
   <g id="matplotlib.axis_2">
    <g id="ytick_1">
     <g id="line2d_7">
      <path d="M 44.57 270.081379 
L 637.2 270.081379 
" clip-path="url(#p9368b5f85a)" style="fill: none; stroke-dasharray: 0.5,0.825; stroke-dashoffset: 0; stroke: #b0b0b0; stroke-width: 0.5"/>
     </g>
     <g id="line2d_8">
      <defs>
       <path id="m3584eab5f1" d="M 0 0 
L -3.5 0 
" style="stroke: #000000; stroke-width: 0.8"/>
      </defs>
      <g>
       <use xlink:href="#m3584eab5f1" x="44.57" y="270.081379" style="stroke: #000000; stroke-width: 0.8"/>
      </g>
     </g>
     <g id="text_5">
      <!-- 10 -->
      <g transform="translate(24.845 273.880598) scale(0.1 -0.1)">
       <use xlink:href="#DejaVuSans-31"/>
       <use xlink:href="#DejaVuSans-30" transform="translate(63.623047 0)"/>
      </g>
     </g>
    </g>
    <g id="ytick_2">
     <g id="line2d_9">
      <path d="M 44.57 227.402223 
L 637.2 227.402223 
" clip-path="url(#p9368b5f85a)" style="fill: none; stroke-dasharray: 0.5,0.825; stroke-dashoffset: 0; stroke: #b0b0b0; stroke-width: 0.5"/>
     </g>
     <g id="line2d_10">
      <g>
       <use xlink:href="#m3584eab5f1" x="44.57" y="227.402223" style="stroke: #000000; stroke-width: 0.8"/>
      </g>
     </g>
     <g id="text_6">
      <!-- 15 -->
      <g transform="translate(24.845 231.201442) scale(0.1 -0.1)">
       <use xlink:href="#DejaVuSans-31"/>
       <use xlink:href="#DejaVuSans-35" transform="translate(63.623047 0)"/>
      </g>
     </g>
    </g>
    <g id="ytick_3">
     <g id="line2d_11">
      <path d="M 44.57 184.723067 
L 637.2 184.723067 
" clip-path="url(#p9368b5f85a)" style="fill: none; stroke-dasharray: 0.5,0.825; stroke-dashoffset: 0; stroke: #b0b0b0; stroke-width: 0.5"/>
     </g>
     <g id="line2d_12">
      <g>
       <use xlink:href="#m3584eab5f1" x="44.57" y="184.723067" style="stroke: #000000; stroke-width: 0.8"/>
      </g>
     </g>
     <g id="text_7">
      <!-- 20 -->
      <g transform="translate(24.845 188.522286) scale(0.1 -0.1)">
       <use xlink:href="#DejaVuSans-32"/>
       <use xlink:href="#DejaVuSans-30" transform="translate(63.623047 0)"/>
      </g>
     </g>
    </g>
    <g id="ytick_4">
     <g id="line2d_13">
      <path d="M 44.57 142.043911 
L 637.2 142.043911 
" clip-path="url(#p9368b5f85a)" style="fill: none; stroke-dasharray: 0.5,0.825; stroke-dashoffset: 0; stroke: #b0b0b0; stroke-width: 0.5"/>
     </g>
     <g id="line2d_14">
      <g>
       <use xlink:href="#m3584eab5f1" x="44.57" y="142.043911" style="stroke: #000000; stroke-width: 0.8"/>
      </g>
     </g>
     <g id="text_8">
      <!-- 25 -->
      <g transform="translate(24.845 145.84313) scale(0.1 -0.1)">
       <use xlink:href="#DejaVuSans-32"/>
       <use xlink:href="#DejaVuSans-35" transform="translate(63.623047 0)"/>
      </g>
     </g>
    </g>
    <g id="ytick_5">
     <g id="line2d_15">
      <path d="M 44.57 99.364755 
L 637.2 99.364755 
" clip-path="url(#p9368b5f85a)" style="fill: none; stroke-dasharray: 0.5,0.825; stroke-dashoffset: 0; stroke: #b0b0b0; stroke-width: 0.5"/>
     </g>
     <g id="line2d_16">
      <g>
       <use xlink:href="#m3584eab5f1" x="44.57" y="99.364755" style="stroke: #000000; stroke-width: 0.8"/>
      </g>
     </g>
     <g id="text_9">
      <!-- 30 -->
      <g transform="translate(24.845 103.163974) scale(0.1 -0.1)">
       <use xlink:href="#DejaVuSans-33"/>
       <use xlink:href="#DejaVuSans-30" transform="translate(63.623047 0)"/>
      </g>
     </g>
    </g>
    <g id="ytick_6">
     <g id="line2d_17">
      <path d="M 44.57 56.685599 
L 637.2 56.685599 
" clip-path="url(#p9368b5f85a)" style="fill: none; stroke-dasharray: 0.5,0.825; stroke-dashoffset: 0; stroke: #b0b0b0; stroke-width: 0.5"/>
     </g>
     <g id="line2d_18">
      <g>
       <use xlink:href="#m3584eab5f1" x="44.57" y="56.685599" style="stroke: #000000; stroke-width: 0.8"/>
      </g>
     </g>
     <g id="text_10">
      <!-- 35 -->
      <g transform="translate(24.845 60.484818) scale(0.1 -0.1)">
       <use xlink:href="#DejaVuSans-33"/>
       <use xlink:href="#DejaVuSans-35" transform="translate(63.623047 0)"/>
      </g>
     </g>
    </g>
    <g id="text_11">
     <!-- Cross-track separation [km] -->
     <g transform="translate(18.765313 231.735701) rotate(-90) scale(0.1 -0.1)">
      <defs>
       <path id="DejaVuSans-72" d="M 2631 2963 
Q 2534 3019 2420 3045 
Q 2306 3072 2169 3072 
Q 1681 3072 1420 2755 
Q 1159 2438 1159 1844 
L 1159 0 
L 581 0 
L 581 3500 
L 1159 3500 
L 1159 2956 
Q 1341 3275 1631 3429 
Q 1922 3584 2338 3584 
Q 2397 3584 2469 3576 
Q 2541 3569 2628 3553 
L 2631 2963 
z
" transform="scale(0.015625)"/>
       <path id="DejaVuSans-6f" d="M 1959 3097 
Q 1497 3097 1228 2736 
Q 959 2375 959 1747 
Q 959 1119 1226 758 
Q 1494 397 1959 397 
Q 2419 397 2687 759 
Q 2956 1122 2956 1747 
Q 2956 2369 2687 2733 
Q 2419 3097 1959 3097 
z
M 1959 3584 
Q 2709 3584 3137 3096 
Q 3566 2609 3566 1747 
Q 3566 888 3137 398 
Q 2709 -91 1959 -91 
Q 1206 -91 779 398 
Q 353 888 353 1747 
Q 353 2609 779 3096 
Q 1206 3584 1959 3584 
z
" transform="scale(0.015625)"/>
       <path id="DejaVuSans-73" d="M 2834 3397 
L 2834 2853 
Q 2591 2978 2328 3040 
Q 2066 3103 1784 3103 
Q 1356 3103 1142 2972 
Q 928 2841 928 2578 
Q 928 2378 1081 2264 
Q 1234 2150 1697 2047 
L 1894 2003 
Q 2506 1872 2764 1633 
Q 3022 1394 3022 966 
Q 3022 478 2636 193 
Q 2250 -91 1575 -91 
Q 1294 -91 989 -36 
Q 684 19 347 128 
L 347 722 
Q 666 556 975 473 
Q 1284 391 1588 391 
Q 1994 391 2212 530 
Q 2431 669 2431 922 
Q 2431 1156 2273 1281 
Q 2116 1406 1581 1522 
L 1381 1569 
Q 847 1681 609 1914 
Q 372 2147 372 2553 
Q 372 3047 722 3315 
Q 1072 3584 1716 3584 
Q 2034 3584 2315 3537 
Q 2597 3491 2834 3397 
z
" transform="scale(0.015625)"/>
       <path id="DejaVuSans-2d" d="M 313 2009 
L 1997 2009 
L 1997 1497 
L 313 1497 
L 313 2009 
z
" transform="scale(0.015625)"/>
       <path id="DejaVuSans-74" d="M 1172 4494 
L 1172 3500 
L 2356 3500 
L 2356 3053 
L 1172 3053 
L 1172 1153 
Q 1172 725 1289 603 
Q 1406 481 1766 481 
L 2356 481 
L 2356 0 
L 1766 0 
Q 1100 0 847 248 
Q 594 497 594 1153 
L 594 3053 
L 172 3053 
L 172 3500 
L 594 3500 
L 594 4494 
L 1172 4494 
z
" transform="scale(0.015625)"/>
       <path id="DejaVuSans-61" d="M 2194 1759 
Q 1497 1759 1228 1600 
Q 959 1441 959 1056 
Q 959 750 1161 570 
Q 1363 391 1709 391 
Q 2188 391 2477 730 
Q 2766 1069 2766 1631 
L 2766 1759 
L 2194 1759 
z
M 3341 1997 
L 3341 0 
L 2766 0 
L 2766 531 
Q 2569 213 2275 61 
Q 1981 -91 1556 -91 
Q 1019 -91 701 211 
Q 384 513 384 1019 
Q 384 1609 779 1909 
Q 1175 2209 1959 2209 
L 2766 2209 
L 2766 2266 
Q 2766 2663 2505 2880 
Q 2244 3097 1772 3097 
Q 1472 3097 1187 3025 
Q 903 2953 641 2809 
L 641 3341 
Q 956 3463 1253 3523 
Q 1550 3584 1831 3584 
Q 2591 3584 2966 3190 
Q 3341 2797 3341 1997 
z
" transform="scale(0.015625)"/>
       <path id="DejaVuSans-63" d="M 3122 3366 
L 3122 2828 
Q 2878 2963 2633 3030 
Q 2388 3097 2138 3097 
Q 1578 3097 1268 2742 
Q 959 2388 959 1747 
Q 959 1106 1268 751 
Q 1578 397 2138 397 
Q 2388 397 2633 464 
Q 2878 531 3122 666 
L 3122 134 
Q 2881 22 2623 -34 
Q 2366 -91 2075 -91 
Q 1284 -91 818 406 
Q 353 903 353 1747 
Q 353 2603 823 3093 
Q 1294 3584 2113 3584 
Q 2378 3584 2631 3529 
Q 2884 3475 3122 3366 
z
" transform="scale(0.015625)"/>
       <path id="DejaVuSans-6b" d="M 581 4863 
L 1159 4863 
L 1159 1991 
L 2875 3500 
L 3609 3500 
L 1753 1863 
L 3688 0 
L 2938 0 
L 1159 1709 
L 1159 0 
L 581 0 
L 581 4863 
z
" transform="scale(0.015625)"/>
       <path id="DejaVuSans-65" d="M 3597 1894 
L 3597 1613 
L 953 1613 
Q 991 1019 1311 708 
Q 1631 397 2203 397 
Q 2534 397 2845 478 
Q 3156 559 3463 722 
L 3463 178 
Q 3153 47 2828 -22 
Q 2503 -91 2169 -91 
Q 1331 -91 842 396 
Q 353 884 353 1716 
Q 353 2575 817 3079 
Q 1281 3584 2069 3584 
Q 2775 3584 3186 3129 
Q 3597 2675 3597 1894 
z
M 3022 2063 
Q 3016 2534 2758 2815 
Q 2500 3097 2075 3097 
Q 1594 3097 1305 2825 
Q 1016 2553 972 2059 
L 3022 2063 
z
" transform="scale(0.015625)"/>
       <path id="DejaVuSans-70" d="M 1159 525 
L 1159 -1331 
L 581 -1331 
L 581 3500 
L 1159 3500 
L 1159 2969 
Q 1341 3281 1617 3432 
Q 1894 3584 2278 3584 
Q 2916 3584 3314 3078 
Q 3713 2572 3713 1747 
Q 3713 922 3314 415 
Q 2916 -91 2278 -91 
Q 1894 -91 1617 61 
Q 1341 213 1159 525 
z
M 3116 1747 
Q 3116 2381 2855 2742 
Q 2594 3103 2138 3103 
Q 1681 3103 1420 2742 
Q 1159 2381 1159 1747 
Q 1159 1113 1420 752 
Q 1681 391 2138 391 
Q 2594 391 2855 752 
Q 3116 1113 3116 1747 
z
" transform="scale(0.015625)"/>
       <path id="DejaVuSans-69" d="M 603 3500 
L 1178 3500 
L 1178 0 
L 603 0 
L 603 3500 
z
M 603 4863 
L 1178 4863 
L 1178 4134 
L 603 4134 
L 603 4863 
z
" transform="scale(0.015625)"/>
       <path id="DejaVuSans-6e" d="M 3513 2113 
L 3513 0 
L 2938 0 
L 2938 2094 
Q 2938 2591 2744 2837 
Q 2550 3084 2163 3084 
Q 1697 3084 1428 2787 
Q 1159 2491 1159 1978 
L 1159 0 
L 581 0 
L 581 3500 
L 1159 3500 
L 1159 2956 
Q 1366 3272 1645 3428 
Q 1925 3584 2291 3584 
Q 2894 3584 3203 3211 
Q 3513 2838 3513 2113 
z
" transform="scale(0.015625)"/>
       <path id="DejaVuSans-5b" d="M 550 4863 
L 1875 4863 
L 1875 4416 
L 1125 4416 
L 1125 -397 
L 1875 -397 
L 1875 -844 
L 550 -844 
L 550 4863 
z
" transform="scale(0.015625)"/>
       <path id="DejaVuSans-6d" d="M 3328 2828 
Q 3544 3216 3844 3400 
Q 4144 3584 4550 3584 
Q 5097 3584 5394 3201 
Q 5691 2819 5691 2113 
L 5691 0 
L 5113 0 
L 5113 2094 
Q 5113 2597 4934 2840 
Q 4756 3084 4391 3084 
Q 3944 3084 3684 2787 
Q 3425 2491 3425 1978 
L 3425 0 
L 2847 0 
L 2847 2094 
Q 2847 2600 2669 2842 
Q 2491 3084 2119 3084 
Q 1678 3084 1418 2786 
Q 1159 2488 1159 1978 
L 1159 0 
L 581 0 
L 581 3500 
L 1159 3500 
L 1159 2956 
Q 1356 3278 1631 3431 
Q 1906 3584 2284 3584 
Q 2666 3584 2933 3390 
Q 3200 3197 3328 2828 
z
" transform="scale(0.015625)"/>
       <path id="DejaVuSans-5d" d="M 1947 4863 
L 1947 -844 
L 622 -844 
L 622 -397 
L 1369 -397 
L 1369 4416 
L 622 4416 
L 622 4863 
L 1947 4863 
z
" transform="scale(0.015625)"/>
      </defs>
      <use xlink:href="#DejaVuSans-43"/>
      <use xlink:href="#DejaVuSans-72" transform="translate(69.824219 0)"/>
      <use xlink:href="#DejaVuSans-6f" transform="translate(108.6875 0)"/>
      <use xlink:href="#DejaVuSans-73" transform="translate(169.869141 0)"/>
      <use xlink:href="#DejaVuSans-73" transform="translate(221.96875 0)"/>
      <use xlink:href="#DejaVuSans-2d" transform="translate(274.068359 0)"/>
      <use xlink:href="#DejaVuSans-74" transform="translate(310.152344 0)"/>
      <use xlink:href="#DejaVuSans-72" transform="translate(349.361328 0)"/>
      <use xlink:href="#DejaVuSans-61" transform="translate(390.474609 0)"/>
      <use xlink:href="#DejaVuSans-63" transform="translate(451.753906 0)"/>
      <use xlink:href="#DejaVuSans-6b" transform="translate(506.734375 0)"/>
      <use xlink:href="#DejaVuSans-20" transform="translate(564.644531 0)"/>
      <use xlink:href="#DejaVuSans-73" transform="translate(596.431641 0)"/>
      <use xlink:href="#DejaVuSans-65" transform="translate(648.53125 0)"/>
      <use xlink:href="#DejaVuSans-70" transform="translate(710.054688 0)"/>
      <use xlink:href="#DejaVuSans-61" transform="translate(773.53125 0)"/>
      <use xlink:href="#DejaVuSans-72" transform="translate(834.810547 0)"/>
      <use xlink:href="#DejaVuSans-61" transform="translate(875.923828 0)"/>
      <use xlink:href="#DejaVuSans-74" transform="translate(937.203125 0)"/>
      <use xlink:href="#DejaVuSans-69" transform="translate(976.412109 0)"/>
      <use xlink:href="#DejaVuSans-6f" transform="translate(1004.195312 0)"/>
      <use xlink:href="#DejaVuSans-6e" transform="translate(1065.376953 0)"/>
      <use xlink:href="#DejaVuSans-20" transform="translate(1128.755859 0)"/>
      <use xlink:href="#DejaVuSans-5b" transform="translate(1160.542969 0)"/>
      <use xlink:href="#DejaVuSans-6b" transform="translate(1199.556641 0)"/>
      <use xlink:href="#DejaVuSans-6d" transform="translate(1257.466797 0)"/>
      <use xlink:href="#DejaVuSans-5d" transform="translate(1354.878906 0)"/>
     </g>
    </g>
   </g>
   <g id="line2d_19">
    <path d="M 71.507727 39.167521 
L 79.315764 39.195459 
L 87.123801 39.300876 
L 94.931838 39.483757 
L 102.739875 39.744082 
L 110.547912 40.081785 
L 118.355948 40.49684 
L 126.163985 40.989178 
L 133.972022 41.558723 
L 141.780059 42.205406 
L 149.588096 42.929125 
L 157.396133 43.729778 
L 165.20417 44.607261 
L 173.012207 45.561431 
L 180.820244 46.592166 
L 188.62828 47.699306 
L 196.436317 48.882697 
L 204.244354 50.142159 
L 212.052391 51.477487 
L 219.860428 52.888477 
L 227.668465 54.374898 
L 235.476502 55.936494 
L 243.284539 57.572967 
L 251.092576 59.284008 
L 258.900612 61.069218 
L 266.708649 62.92816 
L 274.516686 64.860279 
L 282.324723 66.864876 
L 290.13276 68.94097 
L 297.940797 71.087211 
L 305.748834 73.301533 
L 313.556871 75.58078 
L 321.364908 77.921842 
L 329.172944 80.355356 
L 336.980981 88.323043 
L 344.789018 88.258375 
L 352.597055 89.010399 
L 360.405092 91.46247 
L 368.213129 94.163924 
L 376.021166 96.98908 
L 383.829203 99.907028 
L 391.63724 102.906468 
L 399.445277 105.982158 
L 407.253314 109.131248 
L 415.06135 112.351954 
L 422.869387 115.64302 
L 430.677424 119.003509 
L 438.485461 122.432651 
L 446.293498 125.929756 
L 454.101535 129.494216 
L 461.909572 133.125461 
L 469.717609 136.822944 
L 477.525645 140.586128 
L 485.333683 144.414491 
L 493.141719 148.307513 
L 500.949756 152.264664 
L 508.757793 156.28545 
L 516.56583 160.369333 
L 524.373867 164.515793 
L 532.181904 168.72429 
L 539.989941 172.994306 
L 547.797977 177.325293 
L 555.606014 181.716705 
L 563.414051 186.167996 
L 571.222088 190.678602 
L 579.030125 195.247969 
L 586.838162 199.875525 
L 594.646199 204.560689 
L 602.454236 209.302889 
L 610.262273 214.101529 
" clip-path="url(#p9368b5f85a)" style="fill: none; stroke: #1f77b4; stroke-width: 1.5; stroke-linecap: square"/>
   </g>
   <g id="line2d_20">
    <path d="M 71.507727 197.303448 
L 79.315764 197.322526 
L 87.123801 197.380348 
L 94.931838 197.476888 
L 102.739875 197.612138 
L 110.547912 197.786064 
L 118.355948 197.998649 
L 126.163985 198.24985 
L 133.972022 198.539633 
L 141.780059 198.867938 
L 149.588096 199.234731 
L 157.396133 199.639953 
L 165.20417 200.083543 
L 173.012207 200.565433 
L 180.820244 201.085556 
L 188.62828 201.643816 
L 196.436317 202.240146 
L 204.244354 202.874452 
L 212.052391 203.546624 
L 219.860428 204.256549 
L 227.668465 205.004125 
L 235.476502 205.7892 
L 243.284539 206.611653 
L 251.092576 207.471296 
L 258.900612 208.367943 
L 266.708649 209.30137 
L 274.516686 210.271288 
L 282.324723 211.277347 
L 290.13276 212.319042 
L 297.940797 213.395675 
L 305.748834 214.506136 
L 313.556871 215.648657 
L 321.364908 216.821198 
L 329.172944 218.03997 
L 336.980981 223.826504 
L 344.789018 221.541504 
L 352.597055 222.318402 
L 360.405092 223.580219 
L 368.213129 224.943042 
L 376.021166 226.362107 
L 383.829203 227.825455 
L 391.63724 229.328496 
L 399.445277 230.869034 
L 407.253314 232.445841 
L 415.06135 234.058123 
L 422.869387 235.705316 
L 430.677424 237.386986 
L 438.485461 239.102757 
L 446.293498 240.852312 
L 454.101535 242.635344 
L 461.909572 244.45159 
L 469.717609 246.300758 
L 477.525645 248.182593 
L 485.333683 250.096856 
L 493.141719 252.043264 
L 500.949756 254.021554 
L 508.757793 256.031495 
L 516.56583 258.072805 
L 524.373867 260.145236 
L 532.181904 262.248508 
L 539.989941 264.382363 
L 547.797977 266.546529 
L 555.606014 268.74075 
L 563.414051 270.964727 
L 571.222088 273.218195 
L 579.030125 275.500872 
L 586.838162 277.812469 
L 594.646199 280.152713 
L 602.454236 282.521295 
L 610.262273 284.917943 
" clip-path="url(#p9368b5f85a)" style="fill: none; stroke: #ff7f0e; stroke-width: 1.5; stroke-linecap: square"/>
   </g>
   <g id="line2d_21">
    <path d="M 71.507727 197.303764 
L 79.315764 197.312624 
L 87.123801 197.36022 
L 94.931838 197.44656 
L 102.739875 197.571636 
L 110.547912 197.735413 
L 118.355948 197.937883 
L 126.163985 198.17902 
L 133.972022 198.458782 
L 141.780059 198.77716 
L 149.588096 199.134085 
L 157.396133 199.529516 
L 165.20417 199.96341 
L 173.012207 200.435689 
L 180.820244 200.946302 
L 188.62828 201.495182 
L 196.436317 202.082242 
L 204.244354 202.707398 
L 212.052391 203.370555 
L 219.860428 204.07162 
L 227.668465 204.810464 
L 235.476502 205.586986 
L 243.284539 206.401006 
L 251.092576 207.252403 
L 258.900612 208.140966 
L 266.708649 209.066481 
L 274.516686 210.028683 
L 282.324723 211.027221 
L 290.13276 212.061619 
L 297.940797 213.131227 
L 305.748834 214.235089 
L 313.556871 215.371814 
L 321.364908 216.540335 
L 329.172944 217.755078 
L 336.980981 219.93623 
L 344.789018 222.156562 
L 352.597055 222.131689 
L 360.405092 223.321942 
L 368.213129 224.660574 
L 376.021166 226.066664 
L 383.829203 227.521264 
L 391.63724 229.017663 
L 399.445277 230.552816 
L 407.253314 232.125099 
L 415.06135 233.733522 
L 422.869387 235.377395 
L 430.677424 237.056214 
L 438.485461 238.769586 
L 446.293498 240.517135 
L 454.101535 242.298563 
L 461.909572 244.113563 
L 469.717609 245.961877 
L 477.525645 247.843226 
L 485.333683 249.757326 
L 493.141719 251.70394 
L 500.949756 253.682801 
L 508.757793 255.693647 
L 516.56583 257.73622 
L 524.373867 259.810248 
L 532.181904 261.915474 
L 539.989941 264.051634 
L 547.797977 266.218455 
L 555.606014 268.415646 
L 563.414051 270.64296 
L 571.222088 272.900099 
L 579.030125 275.186788 
L 586.838162 277.502747 
L 594.646199 279.847668 
L 602.454236 282.221286 
L 610.262273 284.623277 
" clip-path="url(#p9368b5f85a)" style="fill: none; stroke: #2ca02c; stroke-width: 1.5; stroke-linecap: square"/>
   </g>
   <g id="patch_4">
    <path d="M 44.57 297.205464 
L 44.57 26.88 
" style="fill: none; stroke: #000000; stroke-width: 0.8; stroke-linejoin: miter; stroke-linecap: square"/>
   </g>
   <g id="patch_5">
    <path d="M 637.2 297.205464 
L 637.2 26.88 
" style="fill: none; stroke: #000000; stroke-width: 0.8; stroke-linejoin: miter; stroke-linecap: square"/>
   </g>
   <g id="patch_6">
    <path d="M 44.57 297.205464 
L 637.2 297.205464 
" style="fill: none; stroke: #000000; stroke-width: 0.8; stroke-linejoin: miter; stroke-linecap: square"/>
   </g>
   <g id="patch_7">
    <path d="M 44.57 26.88 
L 637.2 26.88 
" style="fill: none; stroke: #000000; stroke-width: 0.8; stroke-linejoin: miter; stroke-linecap: square"/>
   </g>
   <g id="text_12">
    <!-- Pairwise cross-track separations -->
    <g transform="translate(244.469687 20.88) scale(0.12 -0.12)">
     <defs>
      <path id="DejaVuSans-50" d="M 1259 4147 
L 1259 2394 
L 2053 2394 
Q 2494 2394 2734 2622 
Q 2975 2850 2975 3272 
Q 2975 3691 2734 3919 
Q 2494 4147 2053 4147 
L 1259 4147 
z
M 628 4666 
L 2053 4666 
Q 2838 4666 3239 4311 
Q 3641 3956 3641 3272 
Q 3641 2581 3239 2228 
Q 2838 1875 2053 1875 
L 1259 1875 
L 1259 0 
L 628 0 
L 628 4666 
z
" transform="scale(0.015625)"/>
      <path id="DejaVuSans-77" d="M 269 3500 
L 844 3500 
L 1563 769 
L 2278 3500 
L 2956 3500 
L 3675 769 
L 4391 3500 
L 4966 3500 
L 4050 0 
L 3372 0 
L 2619 2869 
L 1863 0 
L 1184 0 
L 269 3500 
z
" transform="scale(0.015625)"/>
     </defs>
     <use xlink:href="#DejaVuSans-50"/>
     <use xlink:href="#DejaVuSans-61" transform="translate(55.802734 0)"/>
     <use xlink:href="#DejaVuSans-69" transform="translate(117.082031 0)"/>
     <use xlink:href="#DejaVuSans-72" transform="translate(144.865234 0)"/>
     <use xlink:href="#DejaVuSans-77" transform="translate(185.978516 0)"/>
     <use xlink:href="#DejaVuSans-69" transform="translate(267.765625 0)"/>
     <use xlink:href="#DejaVuSans-73" transform="translate(295.548828 0)"/>
     <use xlink:href="#DejaVuSans-65" transform="translate(347.648438 0)"/>
     <use xlink:href="#DejaVuSans-20" transform="translate(409.171875 0)"/>
     <use xlink:href="#DejaVuSans-63" transform="translate(440.958984 0)"/>
     <use xlink:href="#DejaVuSans-72" transform="translate(495.939453 0)"/>
     <use xlink:href="#DejaVuSans-6f" transform="translate(534.802734 0)"/>
     <use xlink:href="#DejaVuSans-73" transform="translate(595.984375 0)"/>
     <use xlink:href="#DejaVuSans-73" transform="translate(648.083984 0)"/>
     <use xlink:href="#DejaVuSans-2d" transform="translate(700.183594 0)"/>
     <use xlink:href="#DejaVuSans-74" transform="translate(736.267578 0)"/>
     <use xlink:href="#DejaVuSans-72" transform="translate(775.476562 0)"/>
     <use xlink:href="#DejaVuSans-61" transform="translate(816.589844 0)"/>
     <use xlink:href="#DejaVuSans-63" transform="translate(877.869141 0)"/>
     <use xlink:href="#DejaVuSans-6b" transform="translate(932.849609 0)"/>
     <use xlink:href="#DejaVuSans-20" transform="translate(990.759766 0)"/>
     <use xlink:href="#DejaVuSans-73" transform="translate(1022.546875 0)"/>
     <use xlink:href="#DejaVuSans-65" transform="translate(1074.646484 0)"/>
     <use xlink:href="#DejaVuSans-70" transform="translate(1136.169922 0)"/>
     <use xlink:href="#DejaVuSans-61" transform="translate(1199.646484 0)"/>
     <use xlink:href="#DejaVuSans-72" transform="translate(1260.925781 0)"/>
     <use xlink:href="#DejaVuSans-61" transform="translate(1302.039062 0)"/>
     <use xlink:href="#DejaVuSans-74" transform="translate(1363.318359 0)"/>
     <use xlink:href="#DejaVuSans-69" transform="translate(1402.527344 0)"/>
     <use xlink:href="#DejaVuSans-6f" transform="translate(1430.310547 0)"/>
     <use xlink:href="#DejaVuSans-6e" transform="translate(1491.492188 0)"/>
     <use xlink:href="#DejaVuSans-73" transform="translate(1554.871094 0)"/>
    </g>
   </g>
   <g id="legend_1">
    <g id="patch_8">
     <path d="M 487.223437 94.558125 
L 630.2 94.558125 
Q 632.2 94.558125 632.2 92.558125 
L 632.2 33.88 
Q 632.2 31.88 630.2 31.88 
L 487.223437 31.88 
Q 485.223437 31.88 485.223437 33.88 
L 485.223437 92.558125 
Q 485.223437 94.558125 487.223437 94.558125 
z
" style="fill: #ffffff; opacity: 0.8; stroke: #cccccc; stroke-linejoin: miter"/>
    </g>
    <g id="line2d_22">
     <path d="M 489.223437 40.022188 
L 499.223437 40.022188 
L 509.223437 40.022188 
" style="fill: none; stroke: #1f77b4; stroke-width: 1.5; stroke-linecap: square"/>
    </g>
    <g id="text_13">
     <!-- |FSAT-DP1 - FSAT-DP2| -->
     <g transform="translate(517.223438 43.522188) scale(0.1 -0.1)">
      <defs>
       <path id="DejaVuSans-7c" d="M 1344 4891 
L 1344 -1509 
L 813 -1509 
L 813 4891 
L 1344 4891 
z
" transform="scale(0.015625)"/>
       <path id="DejaVuSans-46" d="M 628 4666 
L 3309 4666 
L 3309 4134 
L 1259 4134 
L 1259 2759 
L 3109 2759 
L 3109 2228 
L 1259 2228 
L 1259 0 
L 628 0 
L 628 4666 
z
" transform="scale(0.015625)"/>
       <path id="DejaVuSans-53" d="M 3425 4513 
L 3425 3897 
Q 3066 4069 2747 4153 
Q 2428 4238 2131 4238 
Q 1616 4238 1336 4038 
Q 1056 3838 1056 3469 
Q 1056 3159 1242 3001 
Q 1428 2844 1947 2747 
L 2328 2669 
Q 3034 2534 3370 2195 
Q 3706 1856 3706 1288 
Q 3706 609 3251 259 
Q 2797 -91 1919 -91 
Q 1588 -91 1214 -16 
Q 841 59 441 206 
L 441 856 
Q 825 641 1194 531 
Q 1563 422 1919 422 
Q 2459 422 2753 634 
Q 3047 847 3047 1241 
Q 3047 1584 2836 1778 
Q 2625 1972 2144 2069 
L 1759 2144 
Q 1053 2284 737 2584 
Q 422 2884 422 3419 
Q 422 4038 858 4394 
Q 1294 4750 2059 4750 
Q 2388 4750 2728 4690 
Q 3069 4631 3425 4513 
z
" transform="scale(0.015625)"/>
       <path id="DejaVuSans-41" d="M 2188 4044 
L 1331 1722 
L 3047 1722 
L 2188 4044 
z
M 1831 4666 
L 2547 4666 
L 4325 0 
L 3669 0 
L 3244 1197 
L 1141 1197 
L 716 0 
L 50 0 
L 1831 4666 
z
" transform="scale(0.015625)"/>
       <path id="DejaVuSans-44" d="M 1259 4147 
L 1259 519 
L 2022 519 
Q 2988 519 3436 956 
Q 3884 1394 3884 2338 
Q 3884 3275 3436 3711 
Q 2988 4147 2022 4147 
L 1259 4147 
z
M 628 4666 
L 1925 4666 
Q 3281 4666 3915 4102 
Q 4550 3538 4550 2338 
Q 4550 1131 3912 565 
Q 3275 0 1925 0 
L 628 0 
L 628 4666 
z
" transform="scale(0.015625)"/>
      </defs>
      <use xlink:href="#DejaVuSans-7c"/>
      <use xlink:href="#DejaVuSans-46" transform="translate(33.691406 0)"/>
      <use xlink:href="#DejaVuSans-53" transform="translate(89.460938 0)"/>
      <use xlink:href="#DejaVuSans-41" transform="translate(154.8125 0)"/>
      <use xlink:href="#DejaVuSans-54" transform="translate(215.470703 0)"/>
      <use xlink:href="#DejaVuSans-2d" transform="translate(267.429688 0)"/>
      <use xlink:href="#DejaVuSans-44" transform="translate(303.513672 0)"/>
      <use xlink:href="#DejaVuSans-50" transform="translate(380.515625 0)"/>
      <use xlink:href="#DejaVuSans-31" transform="translate(440.818359 0)"/>
      <use xlink:href="#DejaVuSans-20" transform="translate(504.441406 0)"/>
      <use xlink:href="#DejaVuSans-2d" transform="translate(536.228516 0)"/>
      <use xlink:href="#DejaVuSans-20" transform="translate(572.3125 0)"/>
      <use xlink:href="#DejaVuSans-46" transform="translate(604.099609 0)"/>
      <use xlink:href="#DejaVuSans-53" transform="translate(659.869141 0)"/>
      <use xlink:href="#DejaVuSans-41" transform="translate(725.220703 0)"/>
      <use xlink:href="#DejaVuSans-54" transform="translate(785.878906 0)"/>
      <use xlink:href="#DejaVuSans-2d" transform="translate(837.837891 0)"/>
      <use xlink:href="#DejaVuSans-44" transform="translate(873.921875 0)"/>
      <use xlink:href="#DejaVuSans-50" transform="translate(950.923828 0)"/>
      <use xlink:href="#DejaVuSans-32" transform="translate(1011.226562 0)"/>
      <use xlink:href="#DejaVuSans-7c" transform="translate(1074.849609 0)"/>
     </g>
    </g>
    <g id="line2d_23">
     <path d="M 489.223437 55.022188 
L 499.223437 55.022188 
L 509.223437 55.022188 
" style="fill: none; stroke: #ff7f0e; stroke-width: 1.5; stroke-linecap: square"/>
    </g>
    <g id="text_14">
     <!-- |FSAT-DP1 - FSAT-LDR| -->
     <g transform="translate(517.223438 58.522188) scale(0.1 -0.1)">
      <defs>
       <path id="DejaVuSans-4c" d="M 628 4666 
L 1259 4666 
L 1259 531 
L 3531 531 
L 3531 0 
L 628 0 
L 628 4666 
z
" transform="scale(0.015625)"/>
       <path id="DejaVuSans-52" d="M 2841 2188 
Q 3044 2119 3236 1894 
Q 3428 1669 3622 1275 
L 4263 0 
L 3584 0 
L 2988 1197 
Q 2756 1666 2539 1819 
Q 2322 1972 1947 1972 
L 1259 1972 
L 1259 0 
L 628 0 
L 628 4666 
L 2053 4666 
Q 2853 4666 3247 4331 
Q 3641 3997 3641 3322 
Q 3641 2881 3436 2590 
Q 3231 2300 2841 2188 
z
M 1259 4147 
L 1259 2491 
L 2053 2491 
Q 2509 2491 2742 2702 
Q 2975 2913 2975 3322 
Q 2975 3731 2742 3939 
Q 2509 4147 2053 4147 
L 1259 4147 
z
" transform="scale(0.015625)"/>
      </defs>
      <use xlink:href="#DejaVuSans-7c"/>
      <use xlink:href="#DejaVuSans-46" transform="translate(33.691406 0)"/>
      <use xlink:href="#DejaVuSans-53" transform="translate(89.460938 0)"/>
      <use xlink:href="#DejaVuSans-41" transform="translate(154.8125 0)"/>
      <use xlink:href="#DejaVuSans-54" transform="translate(215.470703 0)"/>
      <use xlink:href="#DejaVuSans-2d" transform="translate(267.429688 0)"/>
      <use xlink:href="#DejaVuSans-44" transform="translate(303.513672 0)"/>
      <use xlink:href="#DejaVuSans-50" transform="translate(380.515625 0)"/>
      <use xlink:href="#DejaVuSans-31" transform="translate(440.818359 0)"/>
      <use xlink:href="#DejaVuSans-20" transform="translate(504.441406 0)"/>
      <use xlink:href="#DejaVuSans-2d" transform="translate(536.228516 0)"/>
      <use xlink:href="#DejaVuSans-20" transform="translate(572.3125 0)"/>
      <use xlink:href="#DejaVuSans-46" transform="translate(604.099609 0)"/>
      <use xlink:href="#DejaVuSans-53" transform="translate(659.869141 0)"/>
      <use xlink:href="#DejaVuSans-41" transform="translate(725.220703 0)"/>
      <use xlink:href="#DejaVuSans-54" transform="translate(785.878906 0)"/>
      <use xlink:href="#DejaVuSans-2d" transform="translate(837.837891 0)"/>
      <use xlink:href="#DejaVuSans-4c" transform="translate(873.921875 0)"/>
      <use xlink:href="#DejaVuSans-44" transform="translate(929.634766 0)"/>
      <use xlink:href="#DejaVuSans-52" transform="translate(1006.636719 0)"/>
      <use xlink:href="#DejaVuSans-7c" transform="translate(1076.119141 0)"/>
     </g>
    </g>
    <g id="line2d_24">
     <path d="M 489.223437 70.022188 
L 499.223437 70.022188 
L 509.223437 70.022188 
" style="fill: none; stroke: #2ca02c; stroke-width: 1.5; stroke-linecap: square"/>
    </g>
    <g id="text_15">
     <!-- |FSAT-DP2 - FSAT-LDR| -->
     <g transform="translate(517.223438 73.522188) scale(0.1 -0.1)">
      <use xlink:href="#DejaVuSans-7c"/>
      <use xlink:href="#DejaVuSans-46" transform="translate(33.691406 0)"/>
      <use xlink:href="#DejaVuSans-53" transform="translate(89.460938 0)"/>
      <use xlink:href="#DejaVuSans-41" transform="translate(154.8125 0)"/>
      <use xlink:href="#DejaVuSans-54" transform="translate(215.470703 0)"/>
      <use xlink:href="#DejaVuSans-2d" transform="translate(267.429688 0)"/>
      <use xlink:href="#DejaVuSans-44" transform="translate(303.513672 0)"/>
      <use xlink:href="#DejaVuSans-50" transform="translate(380.515625 0)"/>
      <use xlink:href="#DejaVuSans-32" transform="translate(440.818359 0)"/>
      <use xlink:href="#DejaVuSans-20" transform="translate(504.441406 0)"/>
      <use xlink:href="#DejaVuSans-2d" transform="translate(536.228516 0)"/>
      <use xlink:href="#DejaVuSans-20" transform="translate(572.3125 0)"/>
      <use xlink:href="#DejaVuSans-46" transform="translate(604.099609 0)"/>
      <use xlink:href="#DejaVuSans-53" transform="translate(659.869141 0)"/>
      <use xlink:href="#DejaVuSans-41" transform="translate(725.220703 0)"/>
      <use xlink:href="#DejaVuSans-54" transform="translate(785.878906 0)"/>
      <use xlink:href="#DejaVuSans-2d" transform="translate(837.837891 0)"/>
      <use xlink:href="#DejaVuSans-4c" transform="translate(873.921875 0)"/>
      <use xlink:href="#DejaVuSans-44" transform="translate(929.634766 0)"/>
      <use xlink:href="#DejaVuSans-52" transform="translate(1006.636719 0)"/>
      <use xlink:href="#DejaVuSans-7c" transform="translate(1076.119141 0)"/>
     </g>
    </g>
    <g id="patch_9">
     <path d="M 489.223437 88.478438 
L 509.223437 88.478438 
L 509.223437 81.478438 
L 489.223437 81.478438 
z
" style="fill: #1b9e77; opacity: 0.1; stroke: #1b9e77; stroke-linejoin: miter"/>
    </g>
    <g id="text_16">
     <!-- Imaging window -->
     <g transform="translate(517.223438 88.478438) scale(0.1 -0.1)">
      <defs>
       <path id="DejaVuSans-49" d="M 628 4666 
L 1259 4666 
L 1259 0 
L 628 0 
L 628 4666 
z
" transform="scale(0.015625)"/>
       <path id="DejaVuSans-67" d="M 2906 1791 
Q 2906 2416 2648 2759 
Q 2391 3103 1925 3103 
Q 1463 3103 1205 2759 
Q 947 2416 947 1791 
Q 947 1169 1205 825 
Q 1463 481 1925 481 
Q 2391 481 2648 825 
Q 2906 1169 2906 1791 
z
M 3481 434 
Q 3481 -459 3084 -895 
Q 2688 -1331 1869 -1331 
Q 1566 -1331 1297 -1286 
Q 1028 -1241 775 -1147 
L 775 -588 
Q 1028 -725 1275 -790 
Q 1522 -856 1778 -856 
Q 2344 -856 2625 -561 
Q 2906 -266 2906 331 
L 2906 616 
Q 2728 306 2450 153 
Q 2172 0 1784 0 
Q 1141 0 747 490 
Q 353 981 353 1791 
Q 353 2603 747 3093 
Q 1141 3584 1784 3584 
Q 2172 3584 2450 3431 
Q 2728 3278 2906 2969 
L 2906 3500 
L 3481 3500 
L 3481 434 
z
" transform="scale(0.015625)"/>
       <path id="DejaVuSans-64" d="M 2906 2969 
L 2906 4863 
L 3481 4863 
L 3481 0 
L 2906 0 
L 2906 525 
Q 2725 213 2448 61 
Q 2172 -91 1784 -91 
Q 1150 -91 751 415 
Q 353 922 353 1747 
Q 353 2572 751 3078 
Q 1150 3584 1784 3584 
Q 2172 3584 2448 3432 
Q 2725 3281 2906 2969 
z
M 947 1747 
Q 947 1113 1208 752 
Q 1469 391 1925 391 
Q 2381 391 2643 752 
Q 2906 1113 2906 1747 
Q 2906 2381 2643 2742 
Q 2381 3103 1925 3103 
Q 1469 3103 1208 2742 
Q 947 2381 947 1747 
z
" transform="scale(0.015625)"/>
      </defs>
      <use xlink:href="#DejaVuSans-49"/>
      <use xlink:href="#DejaVuSans-6d" transform="translate(29.492188 0)"/>
      <use xlink:href="#DejaVuSans-61" transform="translate(126.904297 0)"/>
      <use xlink:href="#DejaVuSans-67" transform="translate(188.183594 0)"/>
      <use xlink:href="#DejaVuSans-69" transform="translate(251.660156 0)"/>
      <use xlink:href="#DejaVuSans-6e" transform="translate(279.443359 0)"/>
      <use xlink:href="#DejaVuSans-67" transform="translate(342.822266 0)"/>
      <use xlink:href="#DejaVuSans-20" transform="translate(406.298828 0)"/>
      <use xlink:href="#DejaVuSans-77" transform="translate(438.085938 0)"/>
      <use xlink:href="#DejaVuSans-69" transform="translate(519.873047 0)"/>
      <use xlink:href="#DejaVuSans-6e" transform="translate(547.65625 0)"/>
      <use xlink:href="#DejaVuSans-64" transform="translate(611.035156 0)"/>
      <use xlink:href="#DejaVuSans-6f" transform="translate(674.511719 0)"/>
      <use xlink:href="#DejaVuSans-77" transform="translate(735.693359 0)"/>
     </g>
    </g>
   </g>
  </g>
 </g>
 <defs>
  <clipPath id="p9368b5f85a">
   <rect x="44.57" y="26.88" width="592.63" height="270.325464"/>
  </clipPath>
 </defs>
</svg>
