<?xml version="1.0" encoding="utf-8" standalone="no"?>
<!DOCTYPE svg PUBLIC "-//W3C//DTD SVG 1.1//EN"
  "http://www.w3.org/Graphics/SVG/1.1/DTD/svg11.dtd">
<svg xmlns:xlink="http://www.w3.org/1999/xlink" width="648pt" height="324pt" viewBox="0 0 648 324" xmlns="http://www.w3.org/2000/svg" version="1.1">
 <metadata>
  <rdf:RDF xmlns:dc="http://purl.org/dc/elements/1.1/" xmlns:cc="http://creativecommons.org/ns#" xmlns:rdf="http://www.w3.org/1999/02/22-rdf-syntax-ns#">
   <cc:Work>
    <dc:type rdf:resource="http://purl.org/dc/dcmitype/StillImage"/>
    <dc:date>2025-11-02T11:34:15.401324</dc:date>
    <dc:format>image/svg+xml</dc:format>
    <dc:creator>
     <cc:Agent>
      <dc:title>Matplotlib v3.10.7, https://matplotlib.org/</dc:title>
     </cc:Agent>
    </dc:creator>
   </cc:Work>
  </rdf:RDF>
 </metadata>
 <defs>
  <style type="text/css">*{stroke-linejoin: round; stroke-linecap: butt}</style>
 </defs>
 <g id="figure_1">
  <g id="patch_1">
   <path d="M 0 324 
L 648 324 
L 648 0 
L 0 0 
z
" style="fill: #ffffff"/>
  </g>
  <g id="axes_1">
   <g id="patch_2">
    <path d="M 50.78 269.125464 
L 637.2 269.125464 
L 637.2 26.88 
L 50.78 26.88 
z
" style="fill: #ffffff"/>
   </g>
   <g id="FillBetweenPolyCollection_1">
    <defs>
     <path id="m582b9b2c2d" d="M 77.435454 -286.108843 
L 77.435454 -286.108843 
L 85.161673 -283.024241 
L 92.887892 -280.667847 
L 100.614111 -279.040527 
L 108.340329 -278.142877 
L 116.066548 -277.975229 
L 123.792767 -278.537644 
L 131.518986 -279.829915 
L 139.245204 -281.851567 
L 146.971423 -284.601858 
L 154.697642 -284.393417 
L 162.42386 -281.698522 
L 170.150079 -279.732322 
L 177.876298 -278.495539 
L 185.602516 -277.988627 
L 193.328735 -278.211773 
L 201.054954 -279.164896 
L 208.781173 -280.847644 
L 216.507391 -283.259399 
L 224.23361 -285.927057 
L 231.959829 -282.89386 
L 239.686047 -280.588919 
L 247.412266 -279.01308 
L 255.138485 -278.166922 
L 262.864703 -278.050758 
L 270.590922 -278.664628 
L 278.317141 -280.008308 
L 286.04336 -282.081303 
L 293.769578 -284.882852 
L 301.495797 -284.253464 
L 309.222016 -281.609943 
L 316.948234 -279.695149 
L 324.674453 -278.509785 
L 332.400672 -278.054289 
L 340.126891 -278.328826 
L 347.853109 -279.333296 
L 355.579328 -281.06733 
L 363.305547 -283.53029 
L 371.031765 -285.776861 
L 378.757984 -282.794942 
L 386.484203 -280.541316 
L 394.210422 -279.016809 
L 401.936641 -278.221982 
L 409.662859 -278.157128 
L 417.389078 -278.82227 
L 425.115296 -280.217163 
L 432.841515 -282.341295 
L 440.567734 -285.193887 
L 448.293952 -284.143393 
L 456.020171 -281.551079 
L 463.74639 -279.687514 
L 471.472609 -278.553382 
L 479.198827 -278.149101 
L 486.925046 -278.474819 
L 494.651265 -279.530417 
L 502.377484 -281.315506 
L 510.103702 -283.829431 
L 517.829921 -285.654703 
L 525.55614 -282.723868 
L 533.282358 -280.521353 
L 541.008577 -279.047965 
L 548.734796 -278.304245 
L 556.461015 -278.290468 
L 564.187233 -279.006638 
L 571.913452 -280.452492 
L 579.639671 -282.627499 
L 587.365889 -285.530859 
L 595.092108 -284.059053 
L 602.818327 -281.517718 
L 610.544545 -279.705144 
L 610.544545 -65.885694 
L 610.544545 -65.885694 
L 602.818327 -68.486072 
L 595.092108 -71.113356 
L 587.365889 -73.767148 
L 579.639671 -76.44705 
L 571.913452 -79.152661 
L 564.187233 -81.883575 
L 556.461015 -84.639385 
L 548.734796 -87.419682 
L 541.008577 -90.224053 
L 533.282358 -93.052084 
L 525.55614 -95.903358 
L 517.829921 -98.777455 
L 510.103702 -101.673954 
L 502.377484 -104.592432 
L 494.651265 -107.532463 
L 486.925046 -110.493621 
L 479.198827 -113.475475 
L 471.472609 -116.477597 
L 463.74639 -119.499552 
L 456.020171 -122.540908 
L 448.293952 -125.601229 
L 440.567734 -128.680078 
L 432.841515 -131.777017 
L 425.115296 -134.891608 
L 417.389078 -138.02341 
L 409.662859 -141.171982 
L 401.936641 -144.336881 
L 394.210422 -147.517665 
L 386.484203 -150.713889 
L 378.757984 -153.925109 
L 371.031765 -157.150879 
L 363.305547 -160.390754 
L 355.579328 -163.644287 
L 347.853109 -166.911032 
L 340.126891 -170.190541 
L 332.400672 -173.482367 
L 324.674453 -176.786063 
L 316.948234 -180.10118 
L 309.222016 -183.427272 
L 301.495797 -186.76389 
L 293.769578 -190.110587 
L 286.04336 -193.466916 
L 278.317141 -196.832429 
L 270.590922 -200.206678 
L 262.864703 -203.589219 
L 255.138485 -206.979604 
L 247.412266 -210.377389 
L 239.686047 -213.782127 
L 231.959829 -217.193375 
L 224.23361 -220.610688 
L 216.507391 -224.033624 
L 208.781173 -227.46174 
L 201.054954 -230.894596 
L 193.328735 -234.33175 
L 185.602516 -237.772763 
L 177.876298 -241.217197 
L 170.150079 -244.664615 
L 162.42386 -248.114579 
L 154.697642 -251.566655 
L 146.971423 -255.02041 
L 139.245204 -258.475411 
L 131.518986 -261.931227 
L 123.792767 -265.387427 
L 116.066548 -268.843585 
L 108.340329 -272.299272 
L 100.614111 -275.754065 
L 92.887892 -279.207538 
L 85.161673 -282.659271 
L 77.435454 -286.108843 
z
" style="stroke: #1f77b4; stroke-opacity: 0.15"/>
    </defs>
    <g clip-path="url(#pf0f2d81e43)">
     <use xlink:href="#m582b9b2c2d" x="0" y="324" style="fill: #1f77b4; fill-opacity: 0.15; stroke: #1f77b4; stroke-opacity: 0.15"/>
    </g>
   </g>
   <g id="matplotlib.axis_1">
    <g id="xtick_1">
     <g id="line2d_1">
      <path d="M 104.47722 269.125464 
L 104.47722 26.88 
" clip-path="url(#pf0f2d81e43)" style="fill: none; stroke-dasharray: 0.5,0.825; stroke-dashoffset: 0; stroke: #b0b0b0; stroke-width: 0.5"/>
     </g>
     <g id="line2d_2">
      <defs>
       <path id="ma90f8355a4" d="M 0 0 
L 0 3.5 
" style="stroke: #000000; stroke-width: 0.8"/>
      </defs>
      <g>
       <use xlink:href="#ma90f8355a4" x="104.47722" y="269.125464" style="stroke: #000000; stroke-width: 0.8"/>
      </g>
     </g>
     <g id="text_1">
      <!-- 07:35 -->
      <g transform="translate(78.479607 297.115279) rotate(-30) scale(0.1 -0.1)">
       <defs>
        <path id="DejaVuSans-30" d="M 2034 4250 
Q 1547 4250 1301 3770 
Q 1056 3291 1056 2328 
Q 1056 1369 1301 889 
Q 1547 409 2034 409 
Q 2525 409 2770 889 
Q 3016 1369 3016 2328 
Q 3016 3291 2770 3770 
Q 2525 4250 2034 4250 
z
M 2034 4750 
Q 2819 4750 3233 4129 
Q 3647 3509 3647 2328 
Q 3647 1150 3233 529 
Q 2819 -91 2034 -91 
Q 1250 -91 836 529 
Q 422 1150 422 2328 
Q 422 3509 836 4129 
Q 1250 4750 2034 4750 
z
" transform="scale(0.015625)"/>
        <path id="DejaVuSans-37" d="M 525 4666 
L 3525 4666 
L 3525 4397 
L 1831 0 
L 1172 0 
L 2766 4134 
L 525 4134 
L 525 4666 
z
" transform="scale(0.015625)"/>
        <path id="DejaVuSans-3a" d="M 750 794 
L 1409 794 
L 1409 0 
L 750 0 
L 750 794 
z
M 750 3309 
L 1409 3309 
L 1409 2516 
L 750 2516 
L 750 3309 
z
" transform="scale(0.015625)"/>
        <path id="DejaVuSans-33" d="M 2597 2516 
Q 3050 2419 3304 2112 
Q 3559 1806 3559 1356 
Q 3559 666 3084 287 
Q 2609 -91 1734 -91 
Q 1441 -91 1130 -33 
Q 819 25 488 141 
L 488 750 
Q 750 597 1062 519 
Q 1375 441 1716 441 
Q 2309 441 2620 675 
Q 2931 909 2931 1356 
Q 2931 1769 2642 2001 
Q 2353 2234 1838 2234 
L 1294 2234 
L 1294 2753 
L 1863 2753 
Q 2328 2753 2575 2939 
Q 2822 3125 2822 3475 
Q 2822 3834 2567 4026 
Q 2313 4219 1838 4219 
Q 1578 4219 1281 4162 
Q 984 4106 628 3988 
L 628 4550 
Q 988 4650 1302 4700 
Q 1616 4750 1894 4750 
Q 2613 4750 3031 4423 
Q 3450 4097 3450 3541 
Q 3450 3153 3228 2886 
Q 3006 2619 2597 2516 
z
" transform="scale(0.015625)"/>
        <path id="DejaVuSans-35" d="M 691 4666 
L 3169 4666 
L 3169 4134 
L 1269 4134 
L 1269 2991 
Q 1406 3038 1543 3061 
Q 1681 3084 1819 3084 
Q 2600 3084 3056 2656 
Q 3513 2228 3513 1497 
Q 3513 744 3044 326 
Q 2575 -91 1722 -91 
Q 1428 -91 1123 -41 
Q 819 9 494 109 
L 494 744 
Q 775 591 1075 516 
Q 1375 441 1709 441 
Q 2250 441 2565 725 
Q 2881 1009 2881 1497 
Q 2881 1984 2565 2268 
Q 2250 2553 1709 2553 
Q 1456 2553 1204 2497 
Q 953 2441 691 2322 
L 691 4666 
z
" transform="scale(0.015625)"/>
       </defs>
       <use xlink:href="#DejaVuSans-30"/>
       <use xlink:href="#DejaVuSans-37" transform="translate(63.623047 0)"/>
       <use xlink:href="#DejaVuSans-3a" transform="translate(127.246094 0)"/>
       <use xlink:href="#DejaVuSans-33" transform="translate(160.9375 0)"/>
       <use xlink:href="#DejaVuSans-35" transform="translate(224.560547 0)"/>
      </g>
     </g>
    </g>
    <g id="xtick_2">
     <g id="line2d_3">
      <path d="M 336.263781 269.125464 
L 336.263781 26.88 
" clip-path="url(#pf0f2d81e43)" style="fill: none; stroke-dasharray: 0.5,0.825; stroke-dashoffset: 0; stroke: #b0b0b0; stroke-width: 0.5"/>
     </g>
     <g id="line2d_4">
      <g>
       <use xlink:href="#ma90f8355a4" x="336.263781" y="269.125464" style="stroke: #000000; stroke-width: 0.8"/>
      </g>
     </g>
     <g id="text_2">
      <!-- 07:40 -->
      <g transform="translate(310.266168 297.115279) rotate(-30) scale(0.1 -0.1)">
       <defs>
        <path id="DejaVuSans-34" d="M 2419 4116 
L 825 1625 
L 2419 1625 
L 2419 4116 
z
M 2253 4666 
L 3047 4666 
L 3047 1625 
L 3713 1625 
L 3713 1100 
L 3047 1100 
L 3047 0 
L 2419 0 
L 2419 1100 
L 313 1100 
L 313 1709 
L 2253 4666 
z
" transform="scale(0.015625)"/>
       </defs>
       <use xlink:href="#DejaVuSans-30"/>
       <use xlink:href="#DejaVuSans-37" transform="translate(63.623047 0)"/>
       <use xlink:href="#DejaVuSans-3a" transform="translate(127.246094 0)"/>
       <use xlink:href="#DejaVuSans-34" transform="translate(160.9375 0)"/>
       <use xlink:href="#DejaVuSans-30" transform="translate(224.560547 0)"/>
      </g>
     </g>
    </g>
    <g id="xtick_3">
     <g id="line2d_5">
      <path d="M 568.050343 269.125464 
L 568.050343 26.88 
" clip-path="url(#pf0f2d81e43)" style="fill: none; stroke-dasharray: 0.5,0.825; stroke-dashoffset: 0; stroke: #b0b0b0; stroke-width: 0.5"/>
     </g>
     <g id="line2d_6">
      <g>
       <use xlink:href="#ma90f8355a4" x="568.050343" y="269.125464" style="stroke: #000000; stroke-width: 0.8"/>
      </g>
     </g>
     <g id="text_3">
      <!-- 07:45 -->
      <g transform="translate(542.052729 297.115279) rotate(-30) scale(0.1 -0.1)">
       <use xlink:href="#DejaVuSans-30"/>
       <use xlink:href="#DejaVuSans-37" transform="translate(63.623047 0)"/>
       <use xlink:href="#DejaVuSans-3a" transform="translate(127.246094 0)"/>
       <use xlink:href="#DejaVuSans-34" transform="translate(160.9375 0)"/>
       <use xlink:href="#DejaVuSans-35" transform="translate(224.560547 0)"/>
      </g>
     </g>
    </g>
    <g id="text_4">
     <!-- Time (UTC) -->
     <g transform="translate(316.354844 310.514779) scale(0.1 -0.1)">
      <defs>
       <path id="DejaVuSans-54" d="M -19 4666 
L 3928 4666 
L 3928 4134 
L 2272 4134 
L 2272 0 
L 1638 0 
L 1638 4134 
L -19 4134 
L -19 4666 
z
" transform="scale(0.015625)"/>
       <path id="DejaVuSans-69" d="M 603 3500 
L 1178 3500 
L 1178 0 
L 603 0 
L 603 3500 
z
M 603 4863 
L 1178 4863 
L 1178 4134 
L 603 4134 
L 603 4863 
z
" transform="scale(0.015625)"/>
       <path id="DejaVuSans-6d" d="M 3328 2828 
Q 3544 3216 3844 3400 
Q 4144 3584 4550 3584 
Q 5097 3584 5394 3201 
Q 5691 2819 5691 2113 
L 5691 0 
L 5113 0 
L 5113 2094 
Q 5113 2597 4934 2840 
Q 4756 3084 4391 3084 
Q 3944 3084 3684 2787 
Q 3425 2491 3425 1978 
L 3425 0 
L 2847 0 
L 2847 2094 
Q 2847 2600 2669 2842 
Q 2491 3084 2119 3084 
Q 1678 3084 1418 2786 
Q 1159 2488 1159 1978 
L 1159 0 
L 581 0 
L 581 3500 
L 1159 3500 
L 1159 2956 
Q 1356 3278 1631 3431 
Q 1906 3584 2284 3584 
Q 2666 3584 2933 3390 
Q 3200 3197 3328 2828 
z
" transform="scale(0.015625)"/>
       <path id="DejaVuSans-65" d="M 3597 1894 
L 3597 1613 
L 953 1613 
Q 991 1019 1311 708 
Q 1631 397 2203 397 
Q 2534 397 2845 478 
Q 3156 559 3463 722 
L 3463 178 
Q 3153 47 2828 -22 
Q 2503 -91 2169 -91 
Q 1331 -91 842 396 
Q 353 884 353 1716 
Q 353 2575 817 3079 
Q 1281 3584 2069 3584 
Q 2775 3584 3186 3129 
Q 3597 2675 3597 1894 
z
M 3022 2063 
Q 3016 2534 2758 2815 
Q 2500 3097 2075 3097 
Q 1594 3097 1305 2825 
Q 1016 2553 972 2059 
L 3022 2063 
z
" transform="scale(0.015625)"/>
       <path id="DejaVuSans-20" transform="scale(0.015625)"/>
       <path id="DejaVuSans-28" d="M 1984 4856 
Q 1566 4138 1362 3434 
Q 1159 2731 1159 2009 
Q 1159 1288 1364 580 
Q 1569 -128 1984 -844 
L 1484 -844 
Q 1016 -109 783 600 
Q 550 1309 550 2009 
Q 550 2706 781 3412 
Q 1013 4119 1484 4856 
L 1984 4856 
z
" transform="scale(0.015625)"/>
       <path id="DejaVuSans-55" d="M 556 4666 
L 1191 4666 
L 1191 1831 
Q 1191 1081 1462 751 
Q 1734 422 2344 422 
Q 2950 422 3222 751 
Q 3494 1081 3494 1831 
L 3494 4666 
L 4128 4666 
L 4128 1753 
Q 4128 841 3676 375 
Q 3225 -91 2344 -91 
Q 1459 -91 1007 375 
Q 556 841 556 1753 
L 556 4666 
z
" transform="scale(0.015625)"/>
       <path id="DejaVuSans-43" d="M 4122 4306 
L 4122 3641 
Q 3803 3938 3442 4084 
Q 3081 4231 2675 4231 
Q 1875 4231 1450 3742 
Q 1025 3253 1025 2328 
Q 1025 1406 1450 917 
Q 1875 428 2675 428 
Q 3081 428 3442 575 
Q 3803 722 4122 1019 
L 4122 359 
Q 3791 134 3420 21 
Q 3050 -91 2638 -91 
Q 1578 -91 968 557 
Q 359 1206 359 2328 
Q 359 3453 968 4101 
Q 1578 4750 2638 4750 
Q 3056 4750 3426 4639 
Q 3797 4528 4122 4306 
z
" transform="scale(0.015625)"/>
       <path id="DejaVuSans-29" d="M 513 4856 
L 1013 4856 
Q 1481 4119 1714 3412 
Q 1947 2706 1947 2009 
Q 1947 1309 1714 600 
Q 1481 -109 1013 -844 
L 513 -844 
Q 928 -128 1133 580 
Q 1338 1288 1338 2009 
Q 1338 2731 1133 3434 
Q 928 4138 513 4856 
z
" transform="scale(0.015625)"/>
      </defs>
      <use xlink:href="#DejaVuSans-54"/>
      <use xlink:href="#DejaVuSans-69" transform="translate(57.958984 0)"/>
      <use xlink:href="#DejaVuSans-6d" transform="translate(85.742188 0)"/>
      <use xlink:href="#DejaVuSans-65" transform="translate(183.154297 0)"/>
      <use xlink:href="#DejaVuSans-20" transform="translate(244.677734 0)"/>
      <use xlink:href="#DejaVuSans-28" transform="translate(276.464844 0)"/>
      <use xlink:href="#DejaVuSans-55" transform="translate(315.478516 0)"/>
      <use xlink:href="#DejaVuSans-54" transform="translate(388.671875 0)"/>
      <use xlink:href="#DejaVuSans-43" transform="translate(443.880859 0)"/>
      <use xlink:href="#DejaVuSans-29" transform="translate(513.705078 0)"/>
     </g>
    </g>
    <g id="text_5">
     <!-- 2026-Mar-21 -->
     <g transform="translate(573.579687 309.514779) scale(0.1 -0.1)">
      <defs>
       <path id="DejaVuSans-32" d="M 1228 531 
L 3431 531 
L 3431 0 
L 469 0 
L 469 531 
Q 828 903 1448 1529 
Q 2069 2156 2228 2338 
Q 2531 2678 2651 2914 
Q 2772 3150 2772 3378 
Q 2772 3750 2511 3984 
Q 2250 4219 1831 4219 
Q 1534 4219 1204 4116 
Q 875 4013 500 3803 
L 500 4441 
Q 881 4594 1212 4672 
Q 1544 4750 1819 4750 
Q 2544 4750 2975 4387 
Q 3406 4025 3406 3419 
Q 3406 3131 3298 2873 
Q 3191 2616 2906 2266 
Q 2828 2175 2409 1742 
Q 1991 1309 1228 531 
z
" transform="scale(0.015625)"/>
       <path id="DejaVuSans-36" d="M 2113 2584 
Q 1688 2584 1439 2293 
Q 1191 2003 1191 1497 
Q 1191 994 1439 701 
Q 1688 409 2113 409 
Q 2538 409 2786 701 
Q 3034 994 3034 1497 
Q 3034 2003 2786 2293 
Q 2538 2584 2113 2584 
z
M 3366 4563 
L 3366 3988 
Q 3128 4100 2886 4159 
Q 2644 4219 2406 4219 
Q 1781 4219 1451 3797 
Q 1122 3375 1075 2522 
Q 1259 2794 1537 2939 
Q 1816 3084 2150 3084 
Q 2853 3084 3261 2657 
Q 3669 2231 3669 1497 
Q 3669 778 3244 343 
Q 2819 -91 2113 -91 
Q 1303 -91 875 529 
Q 447 1150 447 2328 
Q 447 3434 972 4092 
Q 1497 4750 2381 4750 
Q 2619 4750 2861 4703 
Q 3103 4656 3366 4563 
z
" transform="scale(0.015625)"/>
       <path id="DejaVuSans-2d" d="M 313 2009 
L 1997 2009 
L 1997 1497 
L 313 1497 
L 313 2009 
z
" transform="scale(0.015625)"/>
       <path id="DejaVuSans-4d" d="M 628 4666 
L 1569 4666 
L 2759 1491 
L 3956 4666 
L 4897 4666 
L 4897 0 
L 4281 0 
L 4281 4097 
L 3078 897 
L 2444 897 
L 1241 4097 
L 1241 0 
L 628 0 
L 628 4666 
z
" transform="scale(0.015625)"/>
       <path id="DejaVuSans-61" d="M 2194 1759 
Q 1497 1759 1228 1600 
Q 959 1441 959 1056 
Q 959 750 1161 570 
Q 1363 391 1709 391 
Q 2188 391 2477 730 
Q 2766 1069 2766 1631 
L 2766 1759 
L 2194 1759 
z
M 3341 1997 
L 3341 0 
L 2766 0 
L 2766 531 
Q 2569 213 2275 61 
Q 1981 -91 1556 -91 
Q 1019 -91 701 211 
Q 384 513 384 1019 
Q 384 1609 779 1909 
Q 1175 2209 1959 2209 
L 2766 2209 
L 2766 2266 
Q 2766 2663 2505 2880 
Q 2244 3097 1772 3097 
Q 1472 3097 1187 3025 
Q 903 2953 641 2809 
L 641 3341 
Q 956 3463 1253 3523 
Q 1550 3584 1831 3584 
Q 2591 3584 2966 3190 
Q 3341 2797 3341 1997 
z
" transform="scale(0.015625)"/>
       <path id="DejaVuSans-72" d="M 2631 2963 
Q 2534 3019 2420 3045 
Q 2306 3072 2169 3072 
Q 1681 3072 1420 2755 
Q 1159 2438 1159 1844 
L 1159 0 
L 581 0 
L 581 3500 
L 1159 3500 
L 1159 2956 
Q 1341 3275 1631 3429 
Q 1922 3584 2338 3584 
Q 2397 3584 2469 3576 
Q 2541 3569 2628 3553 
L 2631 2963 
z
" transform="scale(0.015625)"/>
       <path id="DejaVuSans-31" d="M 794 531 
L 1825 531 
L 1825 4091 
L 703 3866 
L 703 4441 
L 1819 4666 
L 2450 4666 
L 2450 531 
L 3481 531 
L 3481 0 
L 794 0 
L 794 531 
z
" transform="scale(0.015625)"/>
      </defs>
      <use xlink:href="#DejaVuSans-32"/>
      <use xlink:href="#DejaVuSans-30" transform="translate(63.623047 0)"/>
      <use xlink:href="#DejaVuSans-32" transform="translate(127.246094 0)"/>
      <use xlink:href="#DejaVuSans-36" transform="translate(190.869141 0)"/>
      <use xlink:href="#DejaVuSans-2d" transform="translate(254.492188 0)"/>
      <use xlink:href="#DejaVuSans-4d" transform="translate(290.576172 0)"/>
      <use xlink:href="#DejaVuSans-61" transform="translate(376.855469 0)"/>
      <use xlink:href="#DejaVuSans-72" transform="translate(438.134766 0)"/>
      <use xlink:href="#DejaVuSans-2d" transform="translate(472.873047 0)"/>
      <use xlink:href="#DejaVuSans-32" transform="translate(508.957031 0)"/>
      <use xlink:href="#DejaVuSans-31" transform="translate(572.580078 0)"/>
     </g>
    </g>
   </g>
   <g id="matplotlib.axis_2">
    <g id="ytick_1">
     <g id="line2d_7">
      <path d="M 50.78 255.528875 
L 637.2 255.528875 
" clip-path="url(#pf0f2d81e43)" style="fill: none; stroke-dasharray: 0.5,0.825; stroke-dashoffset: 0; stroke: #b0b0b0; stroke-width: 0.5"/>
     </g>
     <g id="line2d_8">
      <defs>
       <path id="m817dfa0230" d="M 0 0 
L -3.5 0 
" style="stroke: #000000; stroke-width: 0.8"/>
      </defs>
      <g>
       <use xlink:href="#m817dfa0230" x="50.78" y="255.528875" style="stroke: #000000; stroke-width: 0.8"/>
      </g>
     </g>
     <g id="text_6">
      <!-- 250 -->
      <g transform="translate(24.6925 259.328093) scale(0.1 -0.1)">
       <use xlink:href="#DejaVuSans-32"/>
       <use xlink:href="#DejaVuSans-35" transform="translate(63.623047 0)"/>
       <use xlink:href="#DejaVuSans-30" transform="translate(127.246094 0)"/>
      </g>
     </g>
    </g>
    <g id="ytick_2">
     <g id="line2d_9">
      <path d="M 50.78 212.211746 
L 637.2 212.211746 
" clip-path="url(#pf0f2d81e43)" style="fill: none; stroke-dasharray: 0.5,0.825; stroke-dashoffset: 0; stroke: #b0b0b0; stroke-width: 0.5"/>
     </g>
     <g id="line2d_10">
      <g>
       <use xlink:href="#m817dfa0230" x="50.78" y="212.211746" style="stroke: #000000; stroke-width: 0.8"/>
      </g>
     </g>
     <g id="text_7">
      <!-- 300 -->
      <g transform="translate(24.6925 216.010965) scale(0.1 -0.1)">
       <use xlink:href="#DejaVuSans-33"/>
       <use xlink:href="#DejaVuSans-30" transform="translate(63.623047 0)"/>
       <use xlink:href="#DejaVuSans-30" transform="translate(127.246094 0)"/>
      </g>
     </g>
    </g>
    <g id="ytick_3">
     <g id="line2d_11">
      <path d="M 50.78 168.894618 
L 637.2 168.894618 
" clip-path="url(#pf0f2d81e43)" style="fill: none; stroke-dasharray: 0.5,0.825; stroke-dashoffset: 0; stroke: #b0b0b0; stroke-width: 0.5"/>
     </g>
     <g id="line2d_12">
      <g>
       <use xlink:href="#m817dfa0230" x="50.78" y="168.894618" style="stroke: #000000; stroke-width: 0.8"/>
      </g>
     </g>
     <g id="text_8">
      <!-- 350 -->
      <g transform="translate(24.6925 172.693836) scale(0.1 -0.1)">
       <use xlink:href="#DejaVuSans-33"/>
       <use xlink:href="#DejaVuSans-35" transform="translate(63.623047 0)"/>
       <use xlink:href="#DejaVuSans-30" transform="translate(127.246094 0)"/>
      </g>
     </g>
    </g>
    <g id="ytick_4">
     <g id="line2d_13">
      <path d="M 50.78 125.577489 
L 637.2 125.577489 
" clip-path="url(#pf0f2d81e43)" style="fill: none; stroke-dasharray: 0.5,0.825; stroke-dashoffset: 0; stroke: #b0b0b0; stroke-width: 0.5"/>
     </g>
     <g id="line2d_14">
      <g>
       <use xlink:href="#m817dfa0230" x="50.78" y="125.577489" style="stroke: #000000; stroke-width: 0.8"/>
      </g>
     </g>
     <g id="text_9">
      <!-- 400 -->
      <g transform="translate(24.6925 129.376708) scale(0.1 -0.1)">
       <use xlink:href="#DejaVuSans-34"/>
       <use xlink:href="#DejaVuSans-30" transform="translate(63.623047 0)"/>
       <use xlink:href="#DejaVuSans-30" transform="translate(127.246094 0)"/>
      </g>
     </g>
    </g>
    <g id="ytick_5">
     <g id="line2d_15">
      <path d="M 50.78 82.26036 
L 637.2 82.26036 
" clip-path="url(#pf0f2d81e43)" style="fill: none; stroke-dasharray: 0.5,0.825; stroke-dashoffset: 0; stroke: #b0b0b0; stroke-width: 0.5"/>
     </g>
     <g id="line2d_16">
      <g>
       <use xlink:href="#m817dfa0230" x="50.78" y="82.26036" style="stroke: #000000; stroke-width: 0.8"/>
      </g>
     </g>
     <g id="text_10">
      <!-- 450 -->
      <g transform="translate(24.6925 86.059579) scale(0.1 -0.1)">
       <use xlink:href="#DejaVuSans-34"/>
       <use xlink:href="#DejaVuSans-35" transform="translate(63.623047 0)"/>
       <use xlink:href="#DejaVuSans-30" transform="translate(127.246094 0)"/>
      </g>
     </g>
    </g>
    <g id="ytick_6">
     <g id="line2d_17">
      <path d="M 50.78 38.943232 
L 637.2 38.943232 
" clip-path="url(#pf0f2d81e43)" style="fill: none; stroke-dasharray: 0.5,0.825; stroke-dashoffset: 0; stroke: #b0b0b0; stroke-width: 0.5"/>
     </g>
     <g id="line2d_18">
      <g>
       <use xlink:href="#m817dfa0230" x="50.78" y="38.943232" style="stroke: #000000; stroke-width: 0.8"/>
      </g>
     </g>
     <g id="text_11">
      <!-- 500 -->
      <g transform="translate(24.6925 42.742451) scale(0.1 -0.1)">
       <use xlink:href="#DejaVuSans-35"/>
       <use xlink:href="#DejaVuSans-30" transform="translate(63.623047 0)"/>
       <use xlink:href="#DejaVuSans-30" transform="translate(127.246094 0)"/>
      </g>
     </g>
    </g>
    <g id="text_12">
     <!-- Altitude [km] -->
     <g transform="translate(18.612813 180.797263) rotate(-90) scale(0.1 -0.1)">
      <defs>
       <path id="DejaVuSans-41" d="M 2188 4044 
L 1331 1722 
L 3047 1722 
L 2188 4044 
z
M 1831 4666 
L 2547 4666 
L 4325 0 
L 3669 0 
L 3244 1197 
L 1141 1197 
L 716 0 
L 50 0 
L 1831 4666 
z
" transform="scale(0.015625)"/>
       <path id="DejaVuSans-6c" d="M 603 4863 
L 1178 4863 
L 1178 0 
L 603 0 
L 603 4863 
z
" transform="scale(0.015625)"/>
       <path id="DejaVuSans-74" d="M 1172 4494 
L 1172 3500 
L 2356 3500 
L 2356 3053 
L 1172 3053 
L 1172 1153 
Q 1172 725 1289 603 
Q 1406 481 1766 481 
L 2356 481 
L 2356 0 
L 1766 0 
Q 1100 0 847 248 
Q 594 497 594 1153 
L 594 3053 
L 172 3053 
L 172 3500 
L 594 3500 
L 594 4494 
L 1172 4494 
z
" transform="scale(0.015625)"/>
       <path id="DejaVuSans-75" d="M 544 1381 
L 544 3500 
L 1119 3500 
L 1119 1403 
Q 1119 906 1312 657 
Q 1506 409 1894 409 
Q 2359 409 2629 706 
Q 2900 1003 2900 1516 
L 2900 3500 
L 3475 3500 
L 3475 0 
L 2900 0 
L 2900 538 
Q 2691 219 2414 64 
Q 2138 -91 1772 -91 
Q 1169 -91 856 284 
Q 544 659 544 1381 
z
M 1991 3584 
L 1991 3584 
z
" transform="scale(0.015625)"/>
       <path id="DejaVuSans-64" d="M 2906 2969 
L 2906 4863 
L 3481 4863 
L 3481 0 
L 2906 0 
L 2906 525 
Q 2725 213 2448 61 
Q 2172 -91 1784 -91 
Q 1150 -91 751 415 
Q 353 922 353 1747 
Q 353 2572 751 3078 
Q 1150 3584 1784 3584 
Q 2172 3584 2448 3432 
Q 2725 3281 2906 2969 
z
M 947 1747 
Q 947 1113 1208 752 
Q 1469 391 1925 391 
Q 2381 391 2643 752 
Q 2906 1113 2906 1747 
Q 2906 2381 2643 2742 
Q 2381 3103 1925 3103 
Q 1469 3103 1208 2742 
Q 947 2381 947 1747 
z
" transform="scale(0.015625)"/>
       <path id="DejaVuSans-5b" d="M 550 4863 
L 1875 4863 
L 1875 4416 
L 1125 4416 
L 1125 -397 
L 1875 -397 
L 1875 -844 
L 550 -844 
L 550 4863 
z
" transform="scale(0.015625)"/>
       <path id="DejaVuSans-6b" d="M 581 4863 
L 1159 4863 
L 1159 1991 
L 2875 3500 
L 3609 3500 
L 1753 1863 
L 3688 0 
L 2938 0 
L 1159 1709 
L 1159 0 
L 581 0 
L 581 4863 
z
" transform="scale(0.015625)"/>
       <path id="DejaVuSans-5d" d="M 1947 4863 
L 1947 -844 
L 622 -844 
L 622 -397 
L 1369 -397 
L 1369 4416 
L 622 4416 
L 622 4863 
L 1947 4863 
z
" transform="scale(0.015625)"/>
      </defs>
      <use xlink:href="#DejaVuSans-41"/>
      <use xlink:href="#DejaVuSans-6c" transform="translate(68.408203 0)"/>
      <use xlink:href="#DejaVuSans-74" transform="translate(96.191406 0)"/>
      <use xlink:href="#DejaVuSans-69" transform="translate(135.400391 0)"/>
      <use xlink:href="#DejaVuSans-74" transform="translate(163.183594 0)"/>
      <use xlink:href="#DejaVuSans-75" transform="translate(202.392578 0)"/>
      <use xlink:href="#DejaVuSans-64" transform="translate(265.771484 0)"/>
      <use xlink:href="#DejaVuSans-65" transform="translate(329.248047 0)"/>
      <use xlink:href="#DejaVuSans-20" transform="translate(390.771484 0)"/>
      <use xlink:href="#DejaVuSans-5b" transform="translate(422.558594 0)"/>
      <use xlink:href="#DejaVuSans-6b" transform="translate(461.572266 0)"/>
      <use xlink:href="#DejaVuSans-6d" transform="translate(519.482422 0)"/>
      <use xlink:href="#DejaVuSans-5d" transform="translate(616.894531 0)"/>
     </g>
    </g>
   </g>
   <g id="line2d_19">
    <path d="M 77.435454 37.891157 
L 85.161673 40.975759 
L 92.887892 43.332153 
L 100.614111 44.959473 
L 108.340329 45.857123 
L 116.066548 46.024771 
L 123.792767 45.462356 
L 131.518986 44.170085 
L 139.245204 42.148433 
L 146.971423 39.398142 
L 154.697642 39.606583 
L 162.42386 42.301478 
L 170.150079 44.267678 
L 177.876298 45.504461 
L 185.602516 46.011373 
L 193.328735 45.788227 
L 201.054954 44.835104 
L 208.781173 43.152356 
L 216.507391 40.740601 
L 224.23361 38.072943 
L 231.959829 41.10614 
L 239.686047 43.411081 
L 247.412266 44.98692 
L 255.138485 45.833078 
L 262.864703 45.949242 
L 270.590922 45.335372 
L 278.317141 43.991692 
L 286.04336 41.918697 
L 293.769578 39.117148 
L 301.495797 39.746536 
L 309.222016 42.390057 
L 316.948234 44.304851 
L 324.674453 45.490215 
L 332.400672 45.945711 
L 340.126891 45.671174 
L 347.853109 44.666704 
L 355.579328 42.93267 
L 363.305547 40.46971 
L 371.031765 38.223139 
L 378.757984 41.205058 
L 386.484203 43.458684 
L 394.210422 44.983191 
L 401.936641 45.778018 
L 409.662859 45.842872 
L 417.389078 45.17773 
L 425.115296 43.782837 
L 432.841515 41.658705 
L 440.567734 38.806113 
L 448.293952 39.856607 
L 456.020171 42.448921 
L 463.74639 44.312486 
L 471.472609 45.446618 
L 479.198827 45.850899 
L 486.925046 45.525181 
L 494.651265 44.469583 
L 502.377484 42.684494 
L 510.103702 40.170569 
L 517.829921 38.345297 
L 525.55614 41.276132 
L 533.282358 43.478647 
L 541.008577 44.952035 
L 548.734796 45.695755 
L 556.461015 45.709532 
L 564.187233 44.993362 
L 571.913452 43.547508 
L 579.639671 41.372501 
L 587.365889 38.469141 
L 595.092108 39.940947 
L 602.818327 42.482282 
L 610.544545 44.294856 
" clip-path="url(#pf0f2d81e43)" style="fill: none; stroke: #1f77b4; stroke-width: 2; stroke-linecap: square"/>
   </g>
   <g id="line2d_20">
    <path d="M 77.435454 37.891157 
L 85.161673 41.340729 
L 92.887892 44.792462 
L 100.614111 48.245935 
L 108.340329 51.700728 
L 116.066548 55.156415 
L 123.792767 58.612573 
L 131.518986 62.068773 
L 139.245204 65.524589 
L 146.971423 68.97959 
L 154.697642 72.433345 
L 162.42386 75.885421 
L 170.150079 79.335385 
L 177.876298 82.782803 
L 185.602516 86.227237 
L 193.328735 89.66825 
L 201.054954 93.105404 
L 208.781173 96.53826 
L 216.507391 99.966376 
L 224.23361 103.389312 
L 231.959829 106.806625 
L 239.686047 110.217873 
L 247.412266 113.622611 
L 255.138485 117.020396 
L 262.864703 120.410781 
L 270.590922 123.793322 
L 278.317141 127.167571 
L 286.04336 130.533084 
L 293.769578 133.889413 
L 301.495797 137.23611 
L 309.222016 140.572728 
L 316.948234 143.89882 
L 324.674453 147.213937 
L 332.400672 150.517633 
L 340.126891 153.809459 
L 347.853109 157.088968 
L 355.579328 160.355713 
L 363.305547 163.609246 
L 371.031765 166.849121 
L 378.757984 170.074891 
L 386.484203 173.286111 
L 394.210422 176.482335 
L 401.936641 179.663119 
L 409.662859 182.828018 
L 417.389078 185.97659 
L 425.115296 189.108392 
L 432.841515 192.222983 
L 440.567734 195.319922 
L 448.293952 198.398771 
L 456.020171 201.459092 
L 463.74639 204.500448 
L 471.472609 207.522403 
L 479.198827 210.524525 
L 486.925046 213.506379 
L 494.651265 216.467537 
L 502.377484 219.407568 
L 510.103702 222.326046 
L 517.829921 225.222545 
L 525.55614 228.096642 
L 533.282358 230.947916 
L 541.008577 233.775947 
L 548.734796 236.580318 
L 556.461015 239.360615 
L 564.187233 242.116425 
L 571.913452 244.847339 
L 579.639671 247.55295 
L 587.365889 250.232852 
L 595.092108 252.886644 
L 602.818327 255.513928 
L 610.544545 258.114306 
" clip-path="url(#pf0f2d81e43)" style="fill: none; stroke-dasharray: 5.55,2.4; stroke-dashoffset: 0; stroke: #ff7f0e; stroke-width: 1.5"/>
   </g>
   <g id="patch_3">
    <path d="M 50.78 269.125464 
L 50.78 26.88 
" style="fill: none; stroke: #000000; stroke-width: 0.8; stroke-linejoin: miter; stroke-linecap: square"/>
   </g>
   <g id="patch_4">
    <path d="M 637.2 269.125464 
L 637.2 26.88 
" style="fill: none; stroke: #000000; stroke-width: 0.8; stroke-linejoin: miter; stroke-linecap: square"/>
   </g>
   <g id="patch_5">
    <path d="M 50.78 269.125464 
L 637.2 269.125464 
" style="fill: none; stroke: #000000; stroke-width: 0.8; stroke-linejoin: miter; stroke-linecap: square"/>
   </g>
   <g id="patch_6">
    <path d="M 50.78 26.88 
L 637.2 26.88 
" style="fill: none; stroke: #000000; stroke-width: 0.8; stroke-linejoin: miter; stroke-linecap: square"/>
   </g>
   <g id="text_13">
    <!-- Altitude variation due to perturbations -->
    <g transform="translate(228.365313 20.88) scale(0.12 -0.12)">
     <defs>
      <path id="DejaVuSans-76" d="M 191 3500 
L 800 3500 
L 1894 563 
L 2988 3500 
L 3597 3500 
L 2284 0 
L 1503 0 
L 191 3500 
z
" transform="scale(0.015625)"/>
      <path id="DejaVuSans-6f" d="M 1959 3097 
Q 1497 3097 1228 2736 
Q 959 2375 959 1747 
Q 959 1119 1226 758 
Q 1494 397 1959 397 
Q 2419 397 2687 759 
Q 2956 1122 2956 1747 
Q 2956 2369 2687 2733 
Q 2419 3097 1959 3097 
z
M 1959 3584 
Q 2709 3584 3137 3096 
Q 3566 2609 3566 1747 
Q 3566 888 3137 398 
Q 2709 -91 1959 -91 
Q 1206 -91 779 398 
Q 353 888 353 1747 
Q 353 2609 779 3096 
Q 1206 3584 1959 3584 
z
" transform="scale(0.015625)"/>
      <path id="DejaVuSans-6e" d="M 3513 2113 
L 3513 0 
L 2938 0 
L 2938 2094 
Q 2938 2591 2744 2837 
Q 2550 3084 2163 3084 
Q 1697 3084 1428 2787 
Q 1159 2491 1159 1978 
L 1159 0 
L 581 0 
L 581 3500 
L 1159 3500 
L 1159 2956 
Q 1366 3272 1645 3428 
Q 1925 3584 2291 3584 
Q 2894 3584 3203 3211 
Q 3513 2838 3513 2113 
z
" transform="scale(0.015625)"/>
      <path id="DejaVuSans-70" d="M 1159 525 
L 1159 -1331 
L 581 -1331 
L 581 3500 
L 1159 3500 
L 1159 2969 
Q 1341 3281 1617 3432 
Q 1894 3584 2278 3584 
Q 2916 3584 3314 3078 
Q 3713 2572 3713 1747 
Q 3713 922 3314 415 
Q 2916 -91 2278 -91 
Q 1894 -91 1617 61 
Q 1341 213 1159 525 
z
M 3116 1747 
Q 3116 2381 2855 2742 
Q 2594 3103 2138 3103 
Q 1681 3103 1420 2742 
Q 1159 2381 1159 1747 
Q 1159 1113 1420 752 
Q 1681 391 2138 391 
Q 2594 391 2855 752 
Q 3116 1113 3116 1747 
z
" transform="scale(0.015625)"/>
      <path id="DejaVuSans-62" d="M 3116 1747 
Q 3116 2381 2855 2742 
Q 2594 3103 2138 3103 
Q 1681 3103 1420 2742 
Q 1159 2381 1159 1747 
Q 1159 1113 1420 752 
Q 1681 391 2138 391 
Q 2594 391 2855 752 
Q 3116 1113 3116 1747 
z
M 1159 2969 
Q 1341 3281 1617 3432 
Q 1894 3584 2278 3584 
Q 2916 3584 3314 3078 
Q 3713 2572 3713 1747 
Q 3713 922 3314 415 
Q 2916 -91 2278 -91 
Q 1894 -91 1617 61 
Q 1341 213 1159 525 
L 1159 0 
L 581 0 
L 581 4863 
L 1159 4863 
L 1159 2969 
z
" transform="scale(0.015625)"/>
      <path id="DejaVuSans-73" d="M 2834 3397 
L 2834 2853 
Q 2591 2978 2328 3040 
Q 2066 3103 1784 3103 
Q 1356 3103 1142 2972 
Q 928 2841 928 2578 
Q 928 2378 1081 2264 
Q 1234 2150 1697 2047 
L 1894 2003 
Q 2506 1872 2764 1633 
Q 3022 1394 3022 966 
Q 3022 478 2636 193 
Q 2250 -91 1575 -91 
Q 1294 -91 989 -36 
Q 684 19 347 128 
L 347 722 
Q 666 556 975 473 
Q 1284 391 1588 391 
Q 1994 391 2212 530 
Q 2431 669 2431 922 
Q 2431 1156 2273 1281 
Q 2116 1406 1581 1522 
L 1381 1569 
Q 847 1681 609 1914 
Q 372 2147 372 2553 
Q 372 3047 722 3315 
Q 1072 3584 1716 3584 
Q 2034 3584 2315 3537 
Q 2597 3491 2834 3397 
z
" transform="scale(0.015625)"/>
     </defs>
     <use xlink:href="#DejaVuSans-41"/>
     <use xlink:href="#DejaVuSans-6c" transform="translate(68.408203 0)"/>
     <use xlink:href="#DejaVuSans-74" transform="translate(96.191406 0)"/>
     <use xlink:href="#DejaVuSans-69" transform="translate(135.400391 0)"/>
     <use xlink:href="#DejaVuSans-74" transform="translate(163.183594 0)"/>
     <use xlink:href="#DejaVuSans-75" transform="translate(202.392578 0)"/>
     <use xlink:href="#DejaVuSans-64" transform="translate(265.771484 0)"/>
     <use xlink:href="#DejaVuSans-65" transform="translate(329.248047 0)"/>
     <use xlink:href="#DejaVuSans-20" transform="translate(390.771484 0)"/>
     <use xlink:href="#DejaVuSans-76" transform="translate(422.558594 0)"/>
     <use xlink:href="#DejaVuSans-61" transform="translate(481.738281 0)"/>
     <use xlink:href="#DejaVuSans-72" transform="translate(543.017578 0)"/>
     <use xlink:href="#DejaVuSans-69" transform="translate(584.130859 0)"/>
     <use xlink:href="#DejaVuSans-61" transform="translate(611.914062 0)"/>
     <use xlink:href="#DejaVuSans-74" transform="translate(673.193359 0)"/>
     <use xlink:href="#DejaVuSans-69" transform="translate(712.402344 0)"/>
     <use xlink:href="#DejaVuSans-6f" transform="translate(740.185547 0)"/>
     <use xlink:href="#DejaVuSans-6e" transform="translate(801.367188 0)"/>
     <use xlink:href="#DejaVuSans-20" transform="translate(864.746094 0)"/>
     <use xlink:href="#DejaVuSans-64" transform="translate(896.533203 0)"/>
     <use xlink:href="#DejaVuSans-75" transform="translate(960.009766 0)"/>
     <use xlink:href="#DejaVuSans-65" transform="translate(1023.388672 0)"/>
     <use xlink:href="#DejaVuSans-20" transform="translate(1084.912109 0)"/>
     <use xlink:href="#DejaVuSans-74" transform="translate(1116.699219 0)"/>
     <use xlink:href="#DejaVuSans-6f" transform="translate(1155.908203 0)"/>
     <use xlink:href="#DejaVuSans-20" transform="translate(1217.089844 0)"/>
     <use xlink:href="#DejaVuSans-70" transform="translate(1248.876953 0)"/>
     <use xlink:href="#DejaVuSans-65" transform="translate(1312.353516 0)"/>
     <use xlink:href="#DejaVuSans-72" transform="translate(1373.876953 0)"/>
     <use xlink:href="#DejaVuSans-74" transform="translate(1414.990234 0)"/>
     <use xlink:href="#DejaVuSans-75" transform="translate(1454.199219 0)"/>
     <use xlink:href="#DejaVuSans-72" transform="translate(1517.578125 0)"/>
     <use xlink:href="#DejaVuSans-62" transform="translate(1558.691406 0)"/>
     <use xlink:href="#DejaVuSans-61" transform="translate(1622.167969 0)"/>
     <use xlink:href="#DejaVuSans-74" transform="translate(1683.447266 0)"/>
     <use xlink:href="#DejaVuSans-69" transform="translate(1722.65625 0)"/>
     <use xlink:href="#DejaVuSans-6f" transform="translate(1750.439453 0)"/>
     <use xlink:href="#DejaVuSans-6e" transform="translate(1811.621094 0)"/>
     <use xlink:href="#DejaVuSans-73" transform="translate(1875 0)"/>
    </g>
   </g>
   <g id="legend_1">
    <g id="patch_7">
     <path d="M 57.78 264.125464 
L 183.655 264.125464 
Q 185.655 264.125464 185.655 262.125464 
L 185.655 219.091089 
Q 185.655 217.091089 183.655 217.091089 
L 57.78 217.091089 
Q 55.78 217.091089 55.78 219.091089 
L 55.78 262.125464 
Q 55.78 264.125464 57.78 264.125464 
z
" style="fill: #ffffff; opacity: 0.8; stroke: #cccccc; stroke-linejoin: miter"/>
    </g>
    <g id="line2d_21">
     <path d="M 59.78 225.189526 
L 69.78 225.189526 
L 79.78 225.189526 
" style="fill: none; stroke: #1f77b4; stroke-width: 2; stroke-linecap: square"/>
    </g>
    <g id="text_14">
     <!-- STK (J2+drag) -->
     <g transform="translate(87.78 228.689526) scale(0.1 -0.1)">
      <defs>
       <path id="DejaVuSans-53" d="M 3425 4513 
L 3425 3897 
Q 3066 4069 2747 4153 
Q 2428 4238 2131 4238 
Q 1616 4238 1336 4038 
Q 1056 3838 1056 3469 
Q 1056 3159 1242 3001 
Q 1428 2844 1947 2747 
L 2328 2669 
Q 3034 2534 3370 2195 
Q 3706 1856 3706 1288 
Q 3706 609 3251 259 
Q 2797 -91 1919 -91 
Q 1588 -91 1214 -16 
Q 841 59 441 206 
L 441 856 
Q 825 641 1194 531 
Q 1563 422 1919 422 
Q 2459 422 2753 634 
Q 3047 847 3047 1241 
Q 3047 1584 2836 1778 
Q 2625 1972 2144 2069 
L 1759 2144 
Q 1053 2284 737 2584 
Q 422 2884 422 3419 
Q 422 4038 858 4394 
Q 1294 4750 2059 4750 
Q 2388 4750 2728 4690 
Q 3069 4631 3425 4513 
z
" transform="scale(0.015625)"/>
       <path id="DejaVuSans-4b" d="M 628 4666 
L 1259 4666 
L 1259 2694 
L 3353 4666 
L 4166 4666 
L 1850 2491 
L 4331 0 
L 3500 0 
L 1259 2247 
L 1259 0 
L 628 0 
L 628 4666 
z
" transform="scale(0.015625)"/>
       <path id="DejaVuSans-4a" d="M 628 4666 
L 1259 4666 
L 1259 325 
Q 1259 -519 939 -900 
Q 619 -1281 -91 -1281 
L -331 -1281 
L -331 -750 
L -134 -750 
Q 284 -750 456 -515 
Q 628 -281 628 325 
L 628 4666 
z
" transform="scale(0.015625)"/>
       <path id="DejaVuSans-2b" d="M 2944 4013 
L 2944 2272 
L 4684 2272 
L 4684 1741 
L 2944 1741 
L 2944 0 
L 2419 0 
L 2419 1741 
L 678 1741 
L 678 2272 
L 2419 2272 
L 2419 4013 
L 2944 4013 
z
" transform="scale(0.015625)"/>
       <path id="DejaVuSans-67" d="M 2906 1791 
Q 2906 2416 2648 2759 
Q 2391 3103 1925 3103 
Q 1463 3103 1205 2759 
Q 947 2416 947 1791 
Q 947 1169 1205 825 
Q 1463 481 1925 481 
Q 2391 481 2648 825 
Q 2906 1169 2906 1791 
z
M 3481 434 
Q 3481 -459 3084 -895 
Q 2688 -1331 1869 -1331 
Q 1566 -1331 1297 -1286 
Q 1028 -1241 775 -1147 
L 775 -588 
Q 1028 -725 1275 -790 
Q 1522 -856 1778 -856 
Q 2344 -856 2625 -561 
Q 2906 -266 2906 331 
L 2906 616 
Q 2728 306 2450 153 
Q 2172 0 1784 0 
Q 1141 0 747 490 
Q 353 981 353 1791 
Q 353 2603 747 3093 
Q 1141 3584 1784 3584 
Q 2172 3584 2450 3431 
Q 2728 3278 2906 2969 
L 2906 3500 
L 3481 3500 
L 3481 434 
z
" transform="scale(0.015625)"/>
      </defs>
      <use xlink:href="#DejaVuSans-53"/>
      <use xlink:href="#DejaVuSans-54" transform="translate(63.476562 0)"/>
      <use xlink:href="#DejaVuSans-4b" transform="translate(124.560547 0)"/>
      <use xlink:href="#DejaVuSans-20" transform="translate(190.136719 0)"/>
      <use xlink:href="#DejaVuSans-28" transform="translate(221.923828 0)"/>
      <use xlink:href="#DejaVuSans-4a" transform="translate(260.9375 0)"/>
      <use xlink:href="#DejaVuSans-32" transform="translate(290.429688 0)"/>
      <use xlink:href="#DejaVuSans-2b" transform="translate(354.052734 0)"/>
      <use xlink:href="#DejaVuSans-64" transform="translate(437.841797 0)"/>
      <use xlink:href="#DejaVuSans-72" transform="translate(501.318359 0)"/>
      <use xlink:href="#DejaVuSans-61" transform="translate(542.431641 0)"/>
      <use xlink:href="#DejaVuSans-67" transform="translate(603.710938 0)"/>
      <use xlink:href="#DejaVuSans-29" transform="translate(667.1875 0)"/>
     </g>
    </g>
    <g id="line2d_22">
     <path d="M 59.78 239.867651 
L 69.78 239.867651 
L 79.78 239.867651 
" style="fill: none; stroke-dasharray: 5.55,2.4; stroke-dashoffset: 0; stroke: #ff7f0e; stroke-width: 1.5"/>
    </g>
    <g id="text_15">
     <!-- Two-body -->
     <g transform="translate(87.78 243.367651) scale(0.1 -0.1)">
      <defs>
       <path id="DejaVuSans-77" d="M 269 3500 
L 844 3500 
L 1563 769 
L 2278 3500 
L 2956 3500 
L 3675 769 
L 4391 3500 
L 4966 3500 
L 4050 0 
L 3372 0 
L 2619 2869 
L 1863 0 
L 1184 0 
L 269 3500 
z
" transform="scale(0.015625)"/>
       <path id="DejaVuSans-79" d="M 2059 -325 
Q 1816 -950 1584 -1140 
Q 1353 -1331 966 -1331 
L 506 -1331 
L 506 -850 
L 844 -850 
Q 1081 -850 1212 -737 
Q 1344 -625 1503 -206 
L 1606 56 
L 191 3500 
L 800 3500 
L 1894 763 
L 2988 3500 
L 3597 3500 
L 2059 -325 
z
" transform="scale(0.015625)"/>
      </defs>
      <use xlink:href="#DejaVuSans-54"/>
      <use xlink:href="#DejaVuSans-77" transform="translate(44.583984 0)"/>
      <use xlink:href="#DejaVuSans-6f" transform="translate(126.371094 0)"/>
      <use xlink:href="#DejaVuSans-2d" transform="translate(189.427734 0)"/>
      <use xlink:href="#DejaVuSans-62" transform="translate(225.511719 0)"/>
      <use xlink:href="#DejaVuSans-6f" transform="translate(288.988281 0)"/>
      <use xlink:href="#DejaVuSans-64" transform="translate(350.169922 0)"/>
      <use xlink:href="#DejaVuSans-79" transform="translate(413.646484 0)"/>
     </g>
    </g>
    <g id="patch_8">
     <path d="M 59.78 258.045776 
L 79.78 258.045776 
L 79.78 251.045776 
L 59.78 251.045776 
z
" style="fill: #1f77b4; fill-opacity: 0.15; stroke: #1f77b4; stroke-opacity: 0.15; stroke-linejoin: miter"/>
    </g>
    <g id="text_16">
     <!-- Perturbation effect -->
     <g transform="translate(87.78 258.045776) scale(0.1 -0.1)">
      <defs>
       <path id="DejaVuSans-50" d="M 1259 4147 
L 1259 2394 
L 2053 2394 
Q 2494 2394 2734 2622 
Q 2975 2850 2975 3272 
Q 2975 3691 2734 3919 
Q 2494 4147 2053 4147 
L 1259 4147 
z
M 628 4666 
L 2053 4666 
Q 2838 4666 3239 4311 
Q 3641 3956 3641 3272 
Q 3641 2581 3239 2228 
Q 2838 1875 2053 1875 
L 1259 1875 
L 1259 0 
L 628 0 
L 628 4666 
z
" transform="scale(0.015625)"/>
       <path id="DejaVuSans-66" d="M 2375 4863 
L 2375 4384 
L 1825 4384 
Q 1516 4384 1395 4259 
Q 1275 4134 1275 3809 
L 1275 3500 
L 2222 3500 
L 2222 3053 
L 1275 3053 
L 1275 0 
L 697 0 
L 697 3053 
L 147 3053 
L 147 3500 
L 697 3500 
L 697 3744 
Q 697 4328 969 4595 
Q 1241 4863 1831 4863 
L 2375 4863 
z
" transform="scale(0.015625)"/>
       <path id="DejaVuSans-63" d="M 3122 3366 
L 3122 2828 
Q 2878 2963 2633 3030 
Q 2388 3097 2138 3097 
Q 1578 3097 1268 2742 
Q 959 2388 959 1747 
Q 959 1106 1268 751 
Q 1578 397 2138 397 
Q 2388 397 2633 464 
Q 2878 531 3122 666 
L 3122 134 
Q 2881 22 2623 -34 
Q 2366 -91 2075 -91 
Q 1284 -91 818 406 
Q 353 903 353 1747 
Q 353 2603 823 3093 
Q 1294 3584 2113 3584 
Q 2378 3584 2631 3529 
Q 2884 3475 3122 3366 
z
" transform="scale(0.015625)"/>
      </defs>
      <use xlink:href="#DejaVuSans-50"/>
      <use xlink:href="#DejaVuSans-65" transform="translate(56.677734 0)"/>
      <use xlink:href="#DejaVuSans-72" transform="translate(118.201172 0)"/>
      <use xlink:href="#DejaVuSans-74" transform="translate(159.314453 0)"/>
      <use xlink:href="#DejaVuSans-75" transform="translate(198.523438 0)"/>
      <use xlink:href="#DejaVuSans-72" transform="translate(261.902344 0)"/>
      <use xlink:href="#DejaVuSans-62" transform="translate(303.015625 0)"/>
      <use xlink:href="#DejaVuSans-61" transform="translate(366.492188 0)"/>
      <use xlink:href="#DejaVuSans-74" transform="translate(427.771484 0)"/>
      <use xlink:href="#DejaVuSans-69" transform="translate(466.980469 0)"/>
      <use xlink:href="#DejaVuSans-6f" transform="translate(494.763672 0)"/>
      <use xlink:href="#DejaVuSans-6e" transform="translate(555.945312 0)"/>
      <use xlink:href="#DejaVuSans-20" transform="translate(619.324219 0)"/>
      <use xlink:href="#DejaVuSans-65" transform="translate(651.111328 0)"/>
      <use xlink:href="#DejaVuSans-66" transform="translate(712.634766 0)"/>
      <use xlink:href="#DejaVuSans-66" transform="translate(747.839844 0)"/>
      <use xlink:href="#DejaVuSans-65" transform="translate(783.044922 0)"/>
      <use xlink:href="#DejaVuSans-63" transform="translate(844.568359 0)"/>
      <use xlink:href="#DejaVuSans-74" transform="translate(899.548828 0)"/>
     </g>
    </g>
   </g>
  </g>
 </g>
 <defs>
  <clipPath id="pf0f2d81e43">
   <rect x="50.78" y="26.88" width="586.42" height="242.245464"/>
  </clipPath>
 </defs>
</svg>
